<?xml version="1.0" encoding="UTF-8" standalone="no"?>
<svg
   xmlns:dc="http://purl.org/dc/elements/1.1/"
   xmlns:cc="http://creativecommons.org/ns#"
   xmlns:rdf="http://www.w3.org/1999/02/22-rdf-syntax-ns#"
   xmlns:svg="http://www.w3.org/2000/svg"
   xmlns="http://www.w3.org/2000/svg"
   xmlns:sodipodi="http://sodipodi.sourceforge.net/DTD/sodipodi-0.dtd"
   xmlns:inkscape="http://www.inkscape.org/namespaces/inkscape"
   width="64"
   height="64"
   version="1.1"
   id="svg73"
   sodipodi:docname="application-x-compressed-zip.svg"
   inkscape:version="1.0.2 (e86c870879, 2021-01-15)">
  <metadata
     id="metadata77">
    <rdf:RDF>
      <cc:Work
         rdf:about="">
        <dc:format>image/svg+xml</dc:format>
        <dc:type
           rdf:resource="http://purl.org/dc/dcmitype/StillImage" />
        <dc:title />
      </cc:Work>
    </rdf:RDF>
  </metadata>
  <sodipodi:namedview
     pagecolor="#ffffff"
     bordercolor="#666666"
     borderopacity="1"
     objecttolerance="10"
     gridtolerance="10"
     guidetolerance="10"
     inkscape:pageopacity="0"
     inkscape:pageshadow="2"
     inkscape:window-width="1920"
     inkscape:window-height="996"
     id="namedview75"
     showgrid="false"
     inkscape:zoom="17.788155"
     inkscape:cx="26.368434"
     inkscape:cy="25.992307"
     inkscape:window-x="0"
     inkscape:window-y="0"
     inkscape:window-maximized="1"
     inkscape:current-layer="svg73"
     inkscape:document-rotation="0" />
  <defs
     id="defs29">
    <linearGradient
       id="b"
       x1="399.57"
       x2="399.57"
       y1="545.8"
       y2="517.8"
       gradientTransform="matrix(2.1429,0,0,2.1429,-826.36,-1107.5)"
       gradientUnits="userSpaceOnUse">
      <stop
         stop-color="#3889e9"
         offset="0"
         id="stop2" />
      <stop
         stop-color="#5ea5fb"
         offset="1"
         id="stop4" />
    </linearGradient>
    <linearGradient
       id="linearGradient862"
       x1="7.9373"
       x2="7.9373"
       y1="15.081"
       y2="1.852"
       gradientTransform="matrix(3.3743 0 0 3.3743 3.4312 3.4278)"
       gradientUnits="userSpaceOnUse">
      <stop
         stop-color="#f1efeb"
         offset="0"
         id="stop7" />
      <stop
         stop-color="#fff"
         offset="1"
         id="stop9" />
    </linearGradient>
    <linearGradient
       id="linearGradient910"
       x1="7.9373"
       x2="7.9373"
       y1="15.081"
       y2="1.852"
       gradientTransform="scale(3.7796)"
       gradientUnits="userSpaceOnUse">
      <stop
         stop-color="#613583"
         offset="0"
         id="stop12" />
      <stop
         stop-color="#a663c0"
         offset="1"
         id="stop14" />
    </linearGradient>
    <linearGradient
       id="linearGradient932"
       x1="379.24"
       x2="374.24"
       y1="546.85"
       y2="546.85"
       gradientTransform="matrix(2.1429 0 0 2.1429 -769.68 -1134.5)"
       gradientUnits="userSpaceOnUse">
      <stop
         stop-color="#f6f5f4"
         offset="0"
         id="stop17" />
      <stop
         stop-color="#fff"
         offset=".6"
         id="stop19" />
      <stop
         stop-color="#dddbd8"
         offset="1"
         id="stop21" />
    </linearGradient>
    <linearGradient
       id="linearGradient1146"
       x1="18"
       x2="18"
       y1="52"
       y2="12"
       gradientUnits="userSpaceOnUse">
      <stop
         stop-color="#5e337f"
         offset="0"
         id="stop24" />
      <stop
         stop-color="#ab60bf"
         offset="1"
         id="stop26" />
    </linearGradient>
  </defs>
  <rect
     x="9.6784649"
     y="6.9709001"
     width="43.343258"
     height="49.998001"
     rx="8.6689987"
     ry="10"
     fill="url(#linearGradient862)"
     stroke-width="3.14173"
     id="rect35"
     style="fill:#586570;fill-opacity:1" />
  <ellipse
     cx="31.366306"
     cy="32.043999"
     fill-opacity="0"
     stroke-width="1.46319"
     id="circle39"
     rx="26.007862"
     ry="30.000999" />
  <circle
     cx="32.02"
     cy="32.044"
     r="0"
     fill="url(#b)"
     stroke-width="1.5715"
     id="circle41" />
  <path
     style="opacity:0.2;fill:#e6e6e6"
     d="m 32.187961,7.0340887 v 1 h 1 v -1 z m 0,1 h -1 v 1 h 1 z m 0,1 v 1.0000003 h 1 V 9.0340887 Z m 0,1.0000003 h -1 v 1 h 1 z m 0,1 v 1 h 1 v -1 z m 0,1 h -1 v 1 h 1 z m 0,1 v 1 h 1 v -1 z m 0,1 h -1 v 1 h 1 z m 0,1 v 1 h 1 v -1 z m 0,1 h -1 v 1 h 1 z m 0,1 v 1 h 1 v -1 z m 0,1 h -1 v 1 h 1 z m 0,1 v 1 h 1 v -1 z m 0,1 h -1 z"
     id="path12" />
  <path
     style="fill:#e6e6e6"
     d="m 31.187961,7.0340887 v 1 h 1 v -1 z m 0,2 v 1.0000003 h 1 V 9.0340887 Z m 0,2.0000003 v 1 h 1 v -1 z m 0,2 v 1 h 1 v -1 z m 0,2 v 1 h 1 v -1 z m 0,2 v 1 h 1 v -1 z m 0,2 v 1 h 1 v -1 z"
     id="path14" />
  <path
     style="opacity:0.2;fill:#e6e6e6"
     d="m 31.187961,21.034089 h 1 c 0.04125,-0.367529 0,-1 0,-1 h -1 z m 1,0 v 1 h 1 v -1 z m 0,1 h -1 v 1 h 1 z m 0,1 v 1 h 1 v -1 z m 0,1 h -1 v 1 h 1 z m 0,1 v 1 h 1 v -1 z m 0,1 h -1 v 1 h 1 z m 0,1 v 1 h 1 v -1 z m 0,1 h -1 c -0.1561,1.390912 1,1.390912 1,0 z"
     id="path16" />
  <path
     style="fill:#e6e6e6"
     d="m 31.187961,21.034089 v 1 h 1 v -1 z m 0,2 v 1 h 1 v -1 z m 0,2 v 1 h 1 v -1 z m 0,2 v 1 h 1 v -1 z"
     id="path18" />
  <path
     style="fill:#e6e6e6"
     d="m 32.187961,27.034089 c -2.210666,0 -4,1.8 -4,4 v 8 c 0,2.2 1.79,4 4,4 2.21,0 4,-1.8 4,-4 v -8 c 0,-2.2 -1.789334,-4 -4,-4 z m 0,2 c 1.104,0 2,0.8 2,2 0,0.999998 -0.896,2 -2,2 -1.104,0 -2,-1.000002 -2,-2 0,-1.2 0.896,-2 2,-2 z m 0,6 c 1.10457,0 2,0.89543 2,2 v 2 c 0,1.10457 -0.89543,2 -2,2 -1.10457,0 -2,-0.89543 -2,-2 v -2 c 0,-1.10457 0.89543,-2 2,-2 z"
     id="path20" />
  <g
     aria-label="ZIP"
     transform="matrix(1.2212657,0,0,0.81882264,-1.8492174,0.06676134)"
     id="text93"
     style="font-weight:bold;font-size:11.5263px;line-height:1.25;font-family:sans-serif;-inkscape-font-specification:'sans-serif Bold';fill:#e6e6e6;stroke-width:0.288159">
    <path
       d="m 17.383801,55.458915 h 7.063236 v 1.311342 l -4.508089,5.453606 h 4.637535 v 1.63777 h -7.322128 v -1.311341 l 4.508089,-5.453607 h -4.378643 z"
       style="fill:#e6e6e6;stroke-width:0.288159"
       id="path857" />
    <path
       d="m 26.152344,55.458915 h 2.16681 v 8.402718 h -2.16681 z"
       style="fill:#e6e6e6;stroke-width:0.288159"
       id="path859" />
    <path
       d="m 30.440939,55.458915 h 3.59634 q 1.604002,0 2.45947,0.714766 0.861095,0.709138 0.861095,2.026107 0,1.322598 -0.861095,2.037364 -0.855468,0.709138 -2.45947,0.709138 h -1.429531 v 2.915343 h -2.166809 z m 2.166809,1.570234 v 2.346907 h 1.19878 q 0.630345,0 0.973657,-0.303916 0.343313,-0.309544 0.343313,-0.872352 0,-0.562807 -0.343313,-0.866723 -0.343312,-0.303916 -0.973657,-0.303916 z"
       style="fill:#e6e6e6;stroke-width:0.288159"
       id="path861" />
  </g>
</svg>
