<?xml version="1.0" encoding="UTF-8" standalone="no"?>
<svg
   xmlns:dc="http://purl.org/dc/elements/1.1/"
   xmlns:cc="http://creativecommons.org/ns#"
   xmlns:rdf="http://www.w3.org/1999/02/22-rdf-syntax-ns#"
   xmlns:svg="http://www.w3.org/2000/svg"
   xmlns="http://www.w3.org/2000/svg"
   xmlns:sodipodi="http://sodipodi.sourceforge.net/DTD/sodipodi-0.dtd"
   xmlns:inkscape="http://www.inkscape.org/namespaces/inkscape"
   width="64"
   height="64"
   version="1.1"
   id="svg73"
   sodipodi:docname="application-vnd.debian.binary-package.svg"
   inkscape:version="1.0.2 (e86c870879, 2021-01-15)">
  <metadata
     id="metadata77">
    <rdf:RDF>
      <cc:Work
         rdf:about="">
        <dc:format>image/svg+xml</dc:format>
        <dc:type
           rdf:resource="http://purl.org/dc/dcmitype/StillImage" />
        <dc:title />
      </cc:Work>
    </rdf:RDF>
  </metadata>
  <sodipodi:namedview
     pagecolor="#ffffff"
     bordercolor="#666666"
     borderopacity="1"
     objecttolerance="10"
     gridtolerance="10"
     guidetolerance="10"
     inkscape:pageopacity="0"
     inkscape:pageshadow="2"
     inkscape:window-width="1920"
     inkscape:window-height="996"
     id="namedview75"
     showgrid="false"
     inkscape:zoom="17.788155"
     inkscape:cx="26.368434"
     inkscape:cy="34.987057"
     inkscape:window-x="0"
     inkscape:window-y="0"
     inkscape:window-maximized="1"
     inkscape:current-layer="svg73"
     inkscape:document-rotation="0" />
  <defs
     id="defs29">
    <linearGradient
       id="b"
       x1="399.57"
       x2="399.57"
       y1="545.8"
       y2="517.8"
       gradientTransform="matrix(2.1429,0,0,2.1429,-826.36,-1107.5)"
       gradientUnits="userSpaceOnUse">
      <stop
         stop-color="#3889e9"
         offset="0"
         id="stop2" />
      <stop
         stop-color="#5ea5fb"
         offset="1"
         id="stop4" />
    </linearGradient>
    <linearGradient
       id="linearGradient862"
       x1="7.9373"
       x2="7.9373"
       y1="15.081"
       y2="1.852"
       gradientTransform="matrix(3.3743 0 0 3.3743 3.4312 3.4278)"
       gradientUnits="userSpaceOnUse">
      <stop
         stop-color="#f1efeb"
         offset="0"
         id="stop7" />
      <stop
         stop-color="#fff"
         offset="1"
         id="stop9" />
    </linearGradient>
    <linearGradient
       id="linearGradient910"
       x1="7.9373"
       x2="7.9373"
       y1="15.081"
       y2="1.852"
       gradientTransform="scale(3.7796)"
       gradientUnits="userSpaceOnUse">
      <stop
         stop-color="#613583"
         offset="0"
         id="stop12" />
      <stop
         stop-color="#a663c0"
         offset="1"
         id="stop14" />
    </linearGradient>
    <linearGradient
       id="linearGradient932"
       x1="379.24"
       x2="374.24"
       y1="546.85"
       y2="546.85"
       gradientTransform="matrix(2.1429 0 0 2.1429 -769.68 -1134.5)"
       gradientUnits="userSpaceOnUse">
      <stop
         stop-color="#f6f5f4"
         offset="0"
         id="stop17" />
      <stop
         stop-color="#fff"
         offset=".6"
         id="stop19" />
      <stop
         stop-color="#dddbd8"
         offset="1"
         id="stop21" />
    </linearGradient>
    <linearGradient
       id="linearGradient1146"
       x1="18"
       x2="18"
       y1="52"
       y2="12"
       gradientUnits="userSpaceOnUse">
      <stop
         stop-color="#5e337f"
         offset="0"
         id="stop24" />
      <stop
         stop-color="#ab60bf"
         offset="1"
         id="stop26" />
    </linearGradient>
  </defs>
  <rect
     x="9.6784649"
     y="6.9709001"
     width="43.343258"
     height="49.998001"
     rx="8.6689987"
     ry="10"
     fill="url(#linearGradient862)"
     stroke-width="3.14173"
     id="rect35"
     style="fill:#586570;fill-opacity:1" />
  <ellipse
     cx="31.366306"
     cy="32.043999"
     fill-opacity="0"
     stroke-width="1.46319"
     id="circle39"
     rx="26.007862"
     ry="30.000999" />
  <circle
     cx="32.02"
     cy="32.044"
     r="0"
     fill="url(#b)"
     stroke-width="1.5715"
     id="circle41" />
  <path
     style="opacity:0.2;fill:#e6e6e6"
     d="m 32.187961,7.0340887 v 1 h 1 v -1 z m 0,1 h -1 v 1 h 1 z m 0,1 v 1.0000003 h 1 V 9.0340887 Z m 0,1.0000003 h -1 v 1 h 1 z m 0,1 v 1 h 1 v -1 z m 0,1 h -1 v 1 h 1 z m 0,1 v 1 h 1 v -1 z m 0,1 h -1 v 1 h 1 z m 0,1 v 1 h 1 v -1 z m 0,1 h -1 v 1 h 1 z m 0,1 v 1 h 1 v -1 z m 0,1 h -1 v 1 h 1 z m 0,1 v 1 h 1 v -1 z m 0,1 h -1 z"
     id="path12" />
  <path
     style="fill:#e6e6e6"
     d="m 31.187961,7.0340887 v 1 h 1 v -1 z m 0,2 v 1.0000003 h 1 V 9.0340887 Z m 0,2.0000003 v 1 h 1 v -1 z m 0,2 v 1 h 1 v -1 z m 0,2 v 1 h 1 v -1 z m 0,2 v 1 h 1 v -1 z m 0,2 v 1 h 1 v -1 z"
     id="path14" />
  <path
     style="opacity:0.2;fill:#e6e6e6"
     d="m 31.187961,21.034089 h 1 c 0.04125,-0.367529 0,-1 0,-1 h -1 z m 1,0 v 1 h 1 v -1 z m 0,1 h -1 v 1 h 1 z m 0,1 v 1 h 1 v -1 z m 0,1 h -1 v 1 h 1 z m 0,1 v 1 h 1 v -1 z m 0,1 h -1 v 1 h 1 z m 0,1 v 1 h 1 v -1 z m 0,1 h -1 c -0.1561,1.390912 1,1.390912 1,0 z"
     id="path16" />
  <path
     style="fill:#e6e6e6"
     d="m 31.187961,21.034089 v 1 h 1 v -1 z m 0,2 v 1 h 1 v -1 z m 0,2 v 1 h 1 v -1 z m 0,2 v 1 h 1 v -1 z"
     id="path18" />
  <path
     style="fill:#e6e6e6"
     d="m 32.187961,27.034089 c -2.210666,0 -4,1.8 -4,4 v 8 c 0,2.2 1.79,4 4,4 2.21,0 4,-1.8 4,-4 v -8 c 0,-2.2 -1.789334,-4 -4,-4 z m 0,2 c 1.104,0 2,0.8 2,2 0,0.999998 -0.896,2 -2,2 -1.104,0 -2,-1.000002 -2,-2 0,-1.2 0.896,-2 2,-2 z m 0,6 c 1.10457,0 2,0.89543 2,2 v 2 c 0,1.10457 -0.89543,2 -2,2 -1.10457,0 -2,-0.89543 -2,-2 v -2 c 0,-1.10457 0.89543,-2 2,-2 z"
     id="path20" />
  <g
     aria-label="DEB"
     transform="matrix(1.2212657,0,0,0.81882264,-1.9965027,-0.01534444)"
     id="text93"
     style="font-weight:bold;font-size:11.5263px;line-height:1.25;font-family:sans-serif;-inkscape-font-specification:'sans-serif Bold';fill:#e6e6e6;stroke-width:0.288159">
    <path
       d="m 17.792755,57.548124 v 5.127178 h 0.776675 q 1.328226,0 2.026107,-0.658485 0.70351,-0.658485 0.70351,-1.913546 0,-1.249433 -0.697882,-1.90229 -0.697881,-0.652857 -2.031735,-0.652857 z m -2.166809,-1.63777 h 2.284999 q 1.913546,0 2.847806,0.275776 0.939889,0.270148 1.60963,0.923004 0.590948,0.568436 0.87798,1.311342 0.287032,0.742906 0.287032,1.682795 0,0.951145 -0.287032,1.699679 -0.287032,0.742906 -0.87798,1.311342 -0.675369,0.652857 -1.620886,0.928633 -0.945517,0.270147 -2.83655,0.270147 h -2.284999 z"
       style="fill:#e6e6e6;stroke-width:0.288159"
       id="path857" />
    <path
       d="m 25.193676,55.910354 h 5.847571 v 1.63777 h -3.680762 v 1.564606 h 3.461267 v 1.63777 h -3.461267 v 1.924802 h 3.80458 v 1.63777 h -5.971389 z"
       style="fill:#e6e6e6;stroke-width:0.288159"
       id="path859" />
    <path
       d="m 36.432943,59.163382 q 0.512155,0 0.776675,-0.225123 0.26452,-0.225123 0.26452,-0.664113 0,-0.433362 -0.26452,-0.658485 -0.26452,-0.230751 -0.776675,-0.230751 h -1.19878 v 1.778472 z m 0.07316,3.675134 q 0.652857,0 0.979286,-0.275776 0.332056,-0.275775 0.332056,-0.832955 0,-0.545923 -0.326428,-0.816071 -0.326429,-0.275776 -0.984914,-0.275776 h -1.271945 v 2.200578 z m 2.014852,-3.022277 q 0.697881,0.202611 1.08059,0.748534 0.38271,0.545924 0.38271,1.339483 0,1.215664 -0.821699,1.81224 -0.8217,0.596576 -2.498866,0.596576 h -3.596341 v -8.402718 h 3.253028 q 1.750332,0 2.532634,0.529039 0.787931,0.52904 0.787931,1.694051 0,0.613461 -0.287032,1.046823 -0.287032,0.427733 -0.832955,0.635972 z"
       style="fill:#e6e6e6;stroke-width:0.288159"
       id="path861" />
  </g>
</svg>
