<?xml version="1.0" encoding="UTF-8" standalone="no"?>
<svg
   xmlns:dc="http://purl.org/dc/elements/1.1/"
   xmlns:cc="http://creativecommons.org/ns#"
   xmlns:rdf="http://www.w3.org/1999/02/22-rdf-syntax-ns#"
   xmlns:svg="http://www.w3.org/2000/svg"
   xmlns="http://www.w3.org/2000/svg"
   xmlns:sodipodi="http://sodipodi.sourceforge.net/DTD/sodipodi-0.dtd"
   xmlns:inkscape="http://www.inkscape.org/namespaces/inkscape"
   width="64"
   height="64"
   version="1.1"
   id="svg73"
   sodipodi:docname="application-vnd.wolfram.mathematica.package.svg"
   inkscape:version="1.0.2 (e86c870879, 2021-01-15)">
  <metadata
     id="metadata77">
    <rdf:RDF>
      <cc:Work
         rdf:about="">
        <dc:format>image/svg+xml</dc:format>
        <dc:type
           rdf:resource="http://purl.org/dc/dcmitype/StillImage" />
        <dc:title />
      </cc:Work>
    </rdf:RDF>
  </metadata>
  <sodipodi:namedview
     pagecolor="#ffffff"
     bordercolor="#666666"
     borderopacity="1"
     objecttolerance="10"
     gridtolerance="10"
     guidetolerance="10"
     inkscape:pageopacity="0"
     inkscape:pageshadow="2"
     inkscape:window-width="1920"
     inkscape:window-height="996"
     id="namedview75"
     showgrid="false"
     inkscape:zoom="12.578125"
     inkscape:cx="26.368434"
     inkscape:cy="32.738369"
     inkscape:window-x="0"
     inkscape:window-y="0"
     inkscape:window-maximized="1"
     inkscape:current-layer="svg73"
     inkscape:document-rotation="0" />
  <defs
     id="defs29">
    <linearGradient
       id="b"
       x1="399.57"
       x2="399.57"
       y1="545.8"
       y2="517.8"
       gradientTransform="matrix(2.1429,0,0,2.1429,-826.36,-1107.5)"
       gradientUnits="userSpaceOnUse">
      <stop
         stop-color="#3889e9"
         offset="0"
         id="stop2" />
      <stop
         stop-color="#5ea5fb"
         offset="1"
         id="stop4" />
    </linearGradient>
    <linearGradient
       id="linearGradient862"
       x1="7.9373"
       x2="7.9373"
       y1="15.081"
       y2="1.852"
       gradientTransform="matrix(3.3743 0 0 3.3743 3.4312 3.4278)"
       gradientUnits="userSpaceOnUse">
      <stop
         stop-color="#f1efeb"
         offset="0"
         id="stop7" />
      <stop
         stop-color="#fff"
         offset="1"
         id="stop9" />
    </linearGradient>
    <linearGradient
       id="linearGradient910"
       x1="7.9373"
       x2="7.9373"
       y1="15.081"
       y2="1.852"
       gradientTransform="scale(3.7796)"
       gradientUnits="userSpaceOnUse">
      <stop
         stop-color="#613583"
         offset="0"
         id="stop12" />
      <stop
         stop-color="#a663c0"
         offset="1"
         id="stop14" />
    </linearGradient>
    <linearGradient
       id="linearGradient932"
       x1="379.24"
       x2="374.24"
       y1="546.85"
       y2="546.85"
       gradientTransform="matrix(2.1429 0 0 2.1429 -769.68 -1134.5)"
       gradientUnits="userSpaceOnUse">
      <stop
         stop-color="#f6f5f4"
         offset="0"
         id="stop17" />
      <stop
         stop-color="#fff"
         offset=".6"
         id="stop19" />
      <stop
         stop-color="#dddbd8"
         offset="1"
         id="stop21" />
    </linearGradient>
    <linearGradient
       id="linearGradient1146"
       x1="18"
       x2="18"
       y1="52"
       y2="12"
       gradientUnits="userSpaceOnUse">
      <stop
         stop-color="#5e337f"
         offset="0"
         id="stop24" />
      <stop
         stop-color="#ab60bf"
         offset="1"
         id="stop26" />
    </linearGradient>
  </defs>
  <rect
     x="9.6784649"
     y="6.9709001"
     width="43.343258"
     height="49.998001"
     rx="8.6689987"
     ry="10"
     fill="url(#linearGradient862)"
     stroke-width="3.14173"
     id="rect35"
     style="fill:#586570;fill-opacity:1" />
  <ellipse
     cx="31.366306"
     cy="32.043999"
     fill-opacity="0"
     stroke-width="1.46319"
     id="circle39"
     rx="26.007862"
     ry="30.000999" />
  <circle
     cx="32.02"
     cy="32.044"
     r="0"
     fill="url(#b)"
     stroke-width="1.5715"
     id="circle41" />
  <g
     aria-label="GZ"
     transform="scale(1.2212657,0.81882264)"
     id="text93"
     style="font-weight:bold;font-size:11.5263px;line-height:1.25;font-family:sans-serif;-inkscape-font-specification:'sans-serif Bold';fill:#f2f2f2;stroke-width:0.288159" />
  <path
     style="fill:#e6e6e6;stroke-width:0.999999"
     d="m 31.603713,18.089144 c -0.470343,9.36e-4 -0.94034,0.02559 -1.408203,0.07382 -0.444879,0.04476 -0.883468,0.11123 -1.315233,0.196876 -0.01916,0.0027 -0.03829,0.0055 -0.05743,0.0083 -0.405852,0.08225 -0.802496,0.189573 -1.194923,0.306249 -0.05569,0.01425 -0.111287,0.0288 -0.166798,0.04375 -0.442603,0.137578 -0.876078,0.293826 -1.298827,0.473046 -0.417659,0.1769 -0.826476,0.374008 -1.225,0.59061 -0.790538,0.430234 -1.537746,0.935699 -2.23125,1.509375 -0.346082,0.285569 -0.678236,0.587611 -0.995311,0.905079 -0.302372,0.302901 -0.590697,0.61951 -0.864063,0.948827 -0.01614,0.01939 -0.03318,0.03795 -0.04922,0.05743 -0.221087,0.273605 -0.431783,0.555445 -0.63164,0.844921 -0.07099,0.100632 -0.144895,0.198236 -0.213283,0.300781 -0.151944,0.232611 -0.296929,0.469696 -0.434765,0.710938 -0.09706,0.166113 -0.196781,0.330038 -0.28711,0.50039 -0.112371,0.216832 -0.219047,0.43657 -0.31992,0.658984 -0.09369,0.201535 -0.186471,0.403203 -0.270703,0.609765 -0.08357,0.211341 -0.161975,0.424686 -0.235155,0.639844 -0.07962,0.226383 -0.158849,0.452104 -0.226954,0.683593 -0.05747,0.202946 -0.110349,0.407164 -0.158596,0.612499 -0.05979,0.243754 -0.12001,0.487024 -0.166797,0.735548 -0.04158,0.235118 -0.07714,0.471264 -0.106638,0.708203 -0.02978,0.219772 -0.05989,0.438878 -0.0793,0.661718 -0.03869,0.405384 -0.05967,0.812262 -0.06289,1.219475 9.35e-4,0.470344 0.02559,0.94034 0.07382,1.408203 0.240707,2.392537 1.088409,4.608099 2.384375,6.494138 0.01191,0.01739 0.02359,0.03477 0.03557,0.05197 0.100311,0.144116 0.203324,0.286304 0.308982,0.426562 7.43e-4,-0.0045 0.002,-0.0091 0.0028,-0.01361 2.556536,3.410337 6.617271,5.632863 11.194471,5.632863 2.629153,0 5.08388,-0.742272 7.188674,-2.009769 l 0.0028,0.0028 c 0.02835,-0.0189 0.05658,-0.03817 0.08478,-0.05745 0.333927,-0.204438 0.658629,-0.419913 0.973436,-0.650783 0.07253,-0.05307 0.144532,-0.106849 0.216004,-0.161313 0.276402,-0.210977 0.544122,-0.431222 0.803906,-0.661717 0.105337,-0.09411 0.209276,-0.18985 0.311703,-0.287099 0.21642,-0.203947 0.425765,-0.414459 0.628907,-0.631639 0.120947,-0.128091 0.239438,-0.258449 0.355471,-0.391018 0.190832,-0.219973 0.372555,-0.446515 0.549611,-0.678125 0.09695,-0.125067 0.191739,-0.251797 0.284377,-0.380077 0.186032,-0.261132 0.359591,-0.529979 0.527734,-0.803905 0.06996,-0.111158 0.138296,-0.223261 0.205081,-0.336309 0.166529,-0.289215 0.318885,-0.58701 0.464842,-0.888671 0.05719,-0.114975 0.112783,-0.230745 0.166794,-0.34727 0.130849,-0.290651 0.247034,-0.587996 0.358192,-0.888671 0.05428,-0.142226 0.106245,-0.285359 0.155871,-0.429298 0.09645,-0.289971 0.179418,-0.585231 0.257013,-0.883203 0.04074,-0.149763 0.07903,-0.300195 0.114786,-0.451231 0.06335,-0.281682 0.112595,-0.568114 0.158592,-0.855859 0.03213,-0.188984 0.0604,-0.378606 0.08478,-0.56875 0.0291,-0.24657 0.04418,-0.496222 0.06017,-0.746484 0.02495,-0.297473 0.04052,-0.595674 0.04649,-0.89414 0,-0.472031 -0.02532,-0.937058 -0.07109,-1.397266 l -0.0028,-0.01092 c -0.04475,-0.444879 -0.111234,-0.883468 -0.19688,-1.315234 -0.0038,-0.01882 -0.0042,-0.03861 -0.0083,-0.05743 -0.08224,-0.405851 -0.189584,-0.802495 -0.306261,-1.194922 -0.01587,-0.05298 -0.02457,-0.10861 -0.04101,-0.161328 l -0.0057,-0.01912 c -0.136441,-0.438178 -0.292693,-0.866781 -0.47013,-1.285321 -0.176912,-0.41766 -0.374018,-0.826475 -0.590623,-1.224999 -0.430232,-0.790538 -0.935697,-1.537746 -1.509376,-2.23125 -0.285568,-0.346083 -0.587611,-0.678237 -0.905078,-0.995312 -0.302901,-0.302373 -0.619511,-0.590697 -0.948827,-0.864063 -0.0155,-0.01372 -0.03099,-0.02736 -0.04649,-0.04102 -0.0035,-0.0029 -0.0076,-0.0053 -0.01096,-0.0083 -0.27361,-0.221081 -0.555444,-0.431777 -0.84492,-0.631634 -0.10065,-0.07099 -0.19824,-0.144894 -0.30078,-0.213282 -0.232597,-0.15194 -0.469646,-0.296922 -0.71086,-0.434754 -0.166113,-0.09706 -0.330034,-0.196785 -0.500389,-0.28711 -0.216835,-0.112371 -0.43657,-0.219047 -0.658984,-0.31992 -0.201528,-0.09369 -0.403203,-0.186467 -0.609766,-0.270703 -0.211317,-0.08355 -0.424623,-0.161941 -0.63975,-0.235106 -0.226398,-0.07962 -0.452104,-0.158845 -0.683593,-0.226954 -0.202965,-0.05747 -0.407165,-0.110349 -0.612499,-0.158592 -0.243712,-0.05978 -0.486981,-0.119997 -0.735505,-0.166787 -0.23512,-0.04158 -0.471265,-0.07714 -0.708203,-0.106638 -0.219772,-0.02978 -0.438877,-0.05989 -0.661718,-0.0793 -0.405402,-0.03869 -0.812299,-0.05967 -1.219531,-0.06289 z m -2.127343,2.020701 1.891174,4.440625 3.236164,-2.748046 v 7.678123 l 7.500002,6.108593 -2.305076,1.532848 -6.40664,-0.06563 3.587498,4.865589 c -1.594549,0.870986 -3.424818,1.367191 -5.375779,1.367191 -4.666903,0 -8.649026,-2.830867 -10.335936,-6.874215 0.882954,-3.411332 2.201729,-6.704889 4.090623,-8.542186 0.805813,-2.965461 2.378273,-5.420018 4.11797,-7.762889 z m 2.227502,10.579296 0.001,1.192186 2.698827,0.207814 c -0.347234,-0.839352 -1.102231,-1.225982 -2.699841,-1.4 z"
     id="path14" />
</svg>
