<?xml version="1.0" encoding="UTF-8" standalone="no"?>
<svg
   xmlns:dc="http://purl.org/dc/elements/1.1/"
   xmlns:cc="http://creativecommons.org/ns#"
   xmlns:rdf="http://www.w3.org/1999/02/22-rdf-syntax-ns#"
   xmlns:svg="http://www.w3.org/2000/svg"
   xmlns="http://www.w3.org/2000/svg"
   xmlns:sodipodi="http://sodipodi.sourceforge.net/DTD/sodipodi-0.dtd"
   xmlns:inkscape="http://www.inkscape.org/namespaces/inkscape"
   width="64"
   height="64"
   version="1.1"
   id="svg73"
   sodipodi:docname="vnd.android.package-archive.svg"
   inkscape:version="1.0.2 (e86c870879, 2021-01-15)">
  <metadata
     id="metadata77">
    <rdf:RDF>
      <cc:Work
         rdf:about="">
        <dc:format>image/svg+xml</dc:format>
        <dc:type
           rdf:resource="http://purl.org/dc/dcmitype/StillImage" />
        <dc:title />
      </cc:Work>
    </rdf:RDF>
  </metadata>
  <sodipodi:namedview
     pagecolor="#ffffff"
     bordercolor="#666666"
     borderopacity="1"
     objecttolerance="10"
     gridtolerance="10"
     guidetolerance="10"
     inkscape:pageopacity="0"
     inkscape:pageshadow="2"
     inkscape:window-width="1920"
     inkscape:window-height="996"
     id="namedview75"
     showgrid="false"
     inkscape:zoom="12.578125"
     inkscape:cx="26.368434"
     inkscape:cy="30.489682"
     inkscape:window-x="0"
     inkscape:window-y="0"
     inkscape:window-maximized="1"
     inkscape:current-layer="svg73"
     inkscape:document-rotation="0" />
  <defs
     id="defs29">
    <linearGradient
       id="b"
       x1="399.57"
       x2="399.57"
       y1="545.8"
       y2="517.8"
       gradientTransform="matrix(2.1429,0,0,2.1429,-826.36,-1107.5)"
       gradientUnits="userSpaceOnUse">
      <stop
         stop-color="#3889e9"
         offset="0"
         id="stop2" />
      <stop
         stop-color="#5ea5fb"
         offset="1"
         id="stop4" />
    </linearGradient>
    <linearGradient
       id="linearGradient862"
       x1="7.9373"
       x2="7.9373"
       y1="15.081"
       y2="1.852"
       gradientTransform="matrix(3.3743 0 0 3.3743 3.4312 3.4278)"
       gradientUnits="userSpaceOnUse">
      <stop
         stop-color="#f1efeb"
         offset="0"
         id="stop7" />
      <stop
         stop-color="#fff"
         offset="1"
         id="stop9" />
    </linearGradient>
    <linearGradient
       id="linearGradient910"
       x1="7.9373"
       x2="7.9373"
       y1="15.081"
       y2="1.852"
       gradientTransform="scale(3.7796)"
       gradientUnits="userSpaceOnUse">
      <stop
         stop-color="#613583"
         offset="0"
         id="stop12" />
      <stop
         stop-color="#a663c0"
         offset="1"
         id="stop14" />
    </linearGradient>
    <linearGradient
       id="linearGradient932"
       x1="379.24"
       x2="374.24"
       y1="546.85"
       y2="546.85"
       gradientTransform="matrix(2.1429 0 0 2.1429 -769.68 -1134.5)"
       gradientUnits="userSpaceOnUse">
      <stop
         stop-color="#f6f5f4"
         offset="0"
         id="stop17" />
      <stop
         stop-color="#fff"
         offset=".6"
         id="stop19" />
      <stop
         stop-color="#dddbd8"
         offset="1"
         id="stop21" />
    </linearGradient>
    <linearGradient
       id="linearGradient1146"
       x1="18"
       x2="18"
       y1="52"
       y2="12"
       gradientUnits="userSpaceOnUse">
      <stop
         stop-color="#5e337f"
         offset="0"
         id="stop24" />
      <stop
         stop-color="#ab60bf"
         offset="1"
         id="stop26" />
    </linearGradient>
  </defs>
  <rect
     x="9.6784649"
     y="6.9709001"
     width="43.343258"
     height="49.998001"
     rx="8.6689987"
     ry="10"
     fill="url(#linearGradient862)"
     stroke-width="3.14173"
     id="rect35"
     style="fill:#586570;fill-opacity:1" />
  <ellipse
     cx="31.366306"
     cy="32.043999"
     fill-opacity="0"
     stroke-width="1.46319"
     id="circle39"
     rx="26.007862"
     ry="30.000999" />
  <circle
     cx="32.02"
     cy="32.044"
     r="0"
     fill="url(#b)"
     stroke-width="1.5715"
     id="circle41" />
  <path
     fill="#ffffff"
     d="m 26.647012,18.792436 c 1.432797,-0.67105 3.100958,-1.055719 4.881517,-1.055719 1.780559,0 3.448718,0.384669 4.881517,1.055719 0.03367,-0.08122 0.08562,-0.157361 0.155895,-0.222891 l 2.762917,-2.576633 c 0.269742,-0.251555 0.707092,-0.251555 0.976834,0 0.269748,0.25156 0.269748,0.659418 0,0.910978 l -2.720087,2.536686 c 2.203195,1.416822 3.613129,3.589811 3.613129,6.026031 H 21.858326 c 0,-2.43622 1.409932,-4.609209 3.613125,-6.026031 L 22.751363,16.90389 c -0.269745,-0.25156 -0.269745,-0.659418 0,-0.910978 0.269747,-0.251555 0.707093,-0.251555 0.976839,0 l 2.762917,2.576633 c 0.07027,0.06553 0.122233,0.141669 0.155893,0.222891 z m 6.262975,23.422257 h -2.762916 v 4.509045 c 0,1.06731 -0.927497,1.93253 -2.072185,1.93253 -1.144438,0 -2.072188,-0.865419 -2.072188,-1.93253 v -4.509045 h -2.761219 c -0.763895,0 -1.383153,-0.577821 -1.383153,-1.288194 V 26.75492 h 19.340408 v 14.171579 c 0,0.711452 -0.61887,1.288194 -1.383155,1.288194 H 37.05436 v 4.509045 c 0,1.06731 -0.927498,1.93253 -2.072188,1.93253 -1.144438,0 -2.072185,-0.865419 -2.072185,-1.93253 z M 16.332495,28.685848 c 0,-1.066424 0.927499,-1.930928 2.072187,-1.930928 1.144437,0 2.072187,0.866756 2.072187,1.930928 v 7.732976 c 0,1.066424 -0.927499,1.930927 -2.072187,1.930927 -1.144438,0 -2.072187,-0.866755 -2.072187,-1.930927 z m 26.247695,0 c 0,-1.066424 0.927499,-1.930928 2.072184,-1.930928 1.144437,0 2.072188,0.866756 2.072188,1.930928 v 7.732976 c 0,1.066424 -0.927498,1.930927 -2.072188,1.930927 -1.144438,0 -2.072184,-0.866755 -2.072184,-1.930927 z M 27.384157,22.889973 c 0.762956,0 1.381456,-0.576793 1.381456,-1.288314 0,-0.711515 -0.6185,-1.288314 -1.381456,-1.288314 -0.762959,0 -1.381459,0.576799 -1.381459,1.288314 0,0.711521 0.6185,1.288314 1.381459,1.288314 z m 8.288747,0 c 0.762956,0 1.381456,-0.576793 1.381456,-1.288314 0,-0.711515 -0.6185,-1.288314 -1.381456,-1.288314 -0.76296,0 -1.381461,0.576799 -1.381461,1.288314 0,0.711521 0.618501,1.288314 1.381461,1.288314 z"
     id="path42"
     style="fill:#e6e6e6;stroke-width:0.16676" />
</svg>
