<?xml version="1.0" encoding="UTF-8" standalone="no"?>
<svg
   xmlns:dc="http://purl.org/dc/elements/1.1/"
   xmlns:cc="http://creativecommons.org/ns#"
   xmlns:rdf="http://www.w3.org/1999/02/22-rdf-syntax-ns#"
   xmlns:svg="http://www.w3.org/2000/svg"
   xmlns="http://www.w3.org/2000/svg"
   xmlns:sodipodi="http://sodipodi.sourceforge.net/DTD/sodipodi-0.dtd"
   xmlns:inkscape="http://www.inkscape.org/namespaces/inkscape"
   width="22"
   height="22"
   version="1.1"
   id="svg9"
   sodipodi:docname="steam_tray_mono.svg"
   inkscape:version="1.0.2 (e86c870879, 2021-01-15)">
  <path
     d="m 15.724687,0.1325378 c -3.426164,0 -6.212569,2.8368852 -6.212569,6.3231574 0,0.027946 -3.941e-4,0.056297 0.00108,0.082545 L 5.5223734,12.428212 c -0.061599,-0.0035 -0.1232619,-0.0056 -0.1849484,-0.0065 -0.8953787,0.0012 -1.7704796,0.270931 -2.5155161,0.77545 L 2.3910908,13.016855 0.04339677,12.032875 v 2.540385 c 0,3.717113 2.01658943,7.418271 5.61703783,7.067189 0.5349116,-0.038 1.0589872,-0.171838 1.5479972,-0.395338 0.00464,-0.0025 0.00927,-0.005 0.013898,-0.0076 1.6196233,-0.749259 2.6599419,-2.389748 2.6619899,-4.197718 -0.00129,-0.03985 -0.00305,-0.07967 -0.00533,-0.119467 L 15.584707,12.77804 c 0.04634,0.0015 0.09371,0.0021 0.140049,0.0021 3.427532,0 6.213664,-2.8382202 6.213664,-6.3242703 0,-3.4863832 -2.785639,-6.32204489 -6.213664,-6.32204489 v -0.001116 z m 0,2.1102584 c 2.28316,0 4.141567,1.8912752 4.141567,4.2129548 0,2.3234588 -1.858407,4.214012 -4.141567,4.214012 -2.281736,0 -4.138337,-1.8905532 -4.138337,-4.214012 0,-2.3216238 1.856654,-4.2129548 4.138337,-4.2129548 z m 0.0075,1.0404768 c -1.715873,0 -3.108857,1.4180535 -3.108857,3.1659719 0,1.7480299 1.392984,3.1648592 3.108857,3.1648592 1.717297,0 3.109898,-1.4168293 3.109898,-3.1648592 0,-1.7479184 -1.392656,-3.1659719 -3.109898,-3.1659719 z M 5.337748,13.501197 c 0.343416,1e-5 0.6849427,0.05161 1.0134967,0.153138 0.1063089,0.03327 0.2116163,0.07189 0.3164415,0.116209 0.3239953,0.136946 0.6208741,0.319167 0.8841008,0.539785 0.4387057,0.367701 0.7839877,0.842069 1.0059984,1.391306 0.08454,0.209113 0.1473059,0.423809 0.1913636,0.640768 0.0033,0.01446 0.0065,0.02894 0.00963,0.04345 0.015005,0.07888 0.024537,0.158432 0.034211,0.23785 0.0057,0.04081 0.010681,0.08174 0.014966,0.122727 0.00851,0.09783 0.013443,0.195189 0.013898,0.293242 v 0.0012 C 8.82117,18.99505 7.2613546,20.578742 5.3377741,20.57822 4.0621019,20.57702 2.8891376,19.867427 2.2802593,18.728595 l 1.8484446,0.774393 c 1.2027753,0.503951 2.5509849,0.03374 3.2211216,-1.048095 5.015e-4,-8.77e-4 0.00165,-0.0013 0.0021,-0.0021 0.00789,-0.01247 0.0126,-0.02754 0.020314,-0.04019 0.067402,-0.113234 0.1353955,-0.225984 0.1870889,-0.351891 0.00297,-0.0072 0.00355,-0.01457 0.00641,-0.02172 0.066794,-0.162859 0.1156852,-0.328614 0.1485978,-0.495254 2.089e-4,-0.0011 -2.066e-4,-0.0021 0,-0.0033 0.03386,-0.172457 0.049701,-0.34514 0.049175,-0.51698 -0.00162,-0.517569 -0.1543397,-1.021848 -0.4329749,-1.447748 -0.0025,-0.0038 -0.00603,-0.007 -0.00855,-0.01085 C 7.2326603,15.429782 7.131114,15.302741 7.017306,15.185736 6.925585,15.090876 6.8204198,15.008259 6.7136893,14.92725 c -0.026962,-0.02047 -0.049088,-0.04567 -0.07697,-0.06517 -6.45e-4,-4.47e-4 -0.00147,-6.2e-4 -0.0021,-0.0012 C 6.484248,14.755959 6.3219385,14.663071 6.1460492,14.589374 L 4.100932,13.733556 c 0.395009,-0.153097 0.814153,-0.231854 1.2369312,-0.232424 z"
     color="#000000"
     fill="url(#b)"
     stroke-width="0.588502"
     id="path25"
     style="fill:#29292a"
     sodipodi:nodetypes="csccccccsccccccsscccssssssssssccccccccccsccccccccsccsccccccccc" />
  <metadata
     id="metadata13">
    <rdf:RDF>
      <cc:Work
         rdf:about="">
        <dc:format>image/svg+xml</dc:format>
        <dc:type
           rdf:resource="http://purl.org/dc/dcmitype/StillImage" />
        <dc:title />
      </cc:Work>
    </rdf:RDF>
  </metadata>
  <sodipodi:namedview
     pagecolor="#ffffff"
     bordercolor="#666666"
     borderopacity="1"
     objecttolerance="10"
     gridtolerance="10"
     guidetolerance="10"
     inkscape:pageopacity="0"
     inkscape:pageshadow="2"
     inkscape:window-width="1541"
     inkscape:window-height="738"
     id="namedview11"
     showgrid="false"
     inkscape:zoom="37.5"
     inkscape:cx="11"
     inkscape:cy="13.133333"
     inkscape:window-x="222"
     inkscape:window-y="115"
     inkscape:window-maximized="0"
     inkscape:current-layer="svg9"
     inkscape:document-rotation="0" />
  <defs
     id="defs3">
    <style
       id="current-color-scheme"
       type="text/css">
   .ColorScheme-Text { color:#dfdfdf; } .ColorScheme-Highlight { color:#4285f4; } .ColorScheme-NeutralText { color:#ff9800; } .ColorScheme-PositiveText { color:#4caf50; } .ColorScheme-NegativeText { color:#f44336; }
  </style>
  </defs>
  <path
     style="fill:currentColor"
     class="ColorScheme-Text"
     d="M 13.349609,10.990234 A 3.9999998,3.9999998 0 0 0 13.363281,11.001953 L 13.353516,11 Z"
     id="path7" />
</svg>
