<?xml version="1.0" encoding="UTF-8" standalone="no"?>
<svg
   xmlns:dc="http://purl.org/dc/elements/1.1/"
   xmlns:cc="http://creativecommons.org/ns#"
   xmlns:rdf="http://www.w3.org/1999/02/22-rdf-syntax-ns#"
   xmlns:svg="http://www.w3.org/2000/svg"
   xmlns="http://www.w3.org/2000/svg"
   xmlns:sodipodi="http://sodipodi.sourceforge.net/DTD/sodipodi-0.dtd"
   xmlns:inkscape="http://www.inkscape.org/namespaces/inkscape"
   width="64"
   height="64"
   version="1.1"
   id="svg28"
   sodipodi:docname="applications-accessories.svg"
   inkscape:version="1.0.2 (e86c870879, 2021-01-15)">
  <metadata
     id="metadata34">
    <rdf:RDF>
      <cc:Work
         rdf:about="">
        <dc:format>image/svg+xml</dc:format>
        <dc:type
           rdf:resource="http://purl.org/dc/dcmitype/StillImage" />
        <dc:title />
      </cc:Work>
    </rdf:RDF>
  </metadata>
  <defs
     id="defs32" />
  <sodipodi:namedview
     pagecolor="#ffffff"
     bordercolor="#666666"
     borderopacity="1"
     objecttolerance="10"
     gridtolerance="10"
     guidetolerance="10"
     inkscape:pageopacity="0"
     inkscape:pageshadow="2"
     inkscape:window-width="1920"
     inkscape:window-height="996"
     id="namedview30"
     showgrid="false"
     inkscape:zoom="12.890625"
     inkscape:cx="30.860418"
     inkscape:cy="25.793939"
     inkscape:window-x="0"
     inkscape:window-y="0"
     inkscape:window-maximized="1"
     inkscape:current-layer="svg28"
     inkscape:document-rotation="0" />
  <path
     style="fill:#29292a;stroke-width:1.47408"
     d="m 19.792259,3.7687869 c -1.808282,0 -3.56096,0.4111853 -5.177138,0.9680145 l 8.535301,8.4348786 c 1.754005,1.733335 1.754005,4.488999 0,6.222431 l -3.218229,3.180358 c -1.754019,1.733336 -4.542522,1.733336 -6.296539,0 L 5.1003617,14.139602 c -0.5634967,1.597093 -0.9794648,3.329179 -0.9794648,5.116204 0,8.553226 7.0163131,15.486931 15.6713621,15.486931 1.808294,0 3.560973,-0.411191 5.177159,-0.96792 l 23.247807,23.023019 c 7.472606,7.405005 16.839138,-2.145009 9.654655,-9.264492 L 34.484164,24.37202 c 0.563487,-1.597097 0.979449,-3.329183 0.979449,-5.116206 0,-8.553225 -7.016304,-15.4870271 -15.671368,-15.4870271 z"
     id="path10" />
</svg>
