<?xml version="1.0" encoding="UTF-8" standalone="no"?>
<svg
   xmlns:dc="http://purl.org/dc/elements/1.1/"
   xmlns:cc="http://creativecommons.org/ns#"
   xmlns:rdf="http://www.w3.org/1999/02/22-rdf-syntax-ns#"
   xmlns:svg="http://www.w3.org/2000/svg"
   xmlns="http://www.w3.org/2000/svg"
   xmlns:sodipodi="http://sodipodi.sourceforge.net/DTD/sodipodi-0.dtd"
   xmlns:inkscape="http://www.inkscape.org/namespaces/inkscape"
   width="64"
   height="64"
   version="1"
   id="svg20"
   sodipodi:docname="applications-games.svg"
   inkscape:version="1.0.2 (e86c870879, 2021-01-15)">
  <metadata
     id="metadata26">
    <rdf:RDF>
      <cc:Work
         rdf:about="">
        <dc:format>image/svg+xml</dc:format>
        <dc:type
           rdf:resource="http://purl.org/dc/dcmitype/StillImage" />
        <dc:title />
      </cc:Work>
    </rdf:RDF>
  </metadata>
  <defs
     id="defs24" />
  <sodipodi:namedview
     pagecolor="#ffffff"
     bordercolor="#666666"
     borderopacity="1"
     objecttolerance="10"
     gridtolerance="10"
     guidetolerance="10"
     inkscape:pageopacity="0"
     inkscape:pageshadow="2"
     inkscape:window-width="1920"
     inkscape:window-height="996"
     id="namedview22"
     showgrid="false"
     inkscape:zoom="12.890625"
     inkscape:cx="32"
     inkscape:cy="32"
     inkscape:window-x="0"
     inkscape:window-y="0"
     inkscape:window-maximized="1"
     inkscape:current-layer="svg20"
     inkscape:document-rotation="0" />
  <path
     style="fill:#29292a"
     d="M 18.076645,10 C 11.108989,10 5.8639726,15.506015 5.4976965,22.323584 l -1.3962146,26.01912 c -0.8817461,5.087828 4.1558012,8.29972 8.3858991,2.737909 L 20,40.000011 l 23,-2.3e-5 8.565571,11.424615 c 4.197455,5.533813 8.927603,0.979966 8.392909,-2.765907 L 58.582691,22.741572 c 0.004,-0.14 0.02003,-0.275991 0.02003,-0.417986 C 58.602717,15.496215 52.991424,10 46.022366,10 l -27.946322,0 z"
     id="path4" />
  <path
     style="fill:#f2f2f2;opacity:0.85"
     d="m 16.000025,16.000038 0,4.000025 -4.000025,0 0,4.000025 4.000025,0 0,4.000026 4.000025,0 0,-4.000026 4.000026,0 0,-4.000025 -4.000026,0 0,-4.000025 -4.000025,0 z"
     id="path8" />
  <path
     style="fill:#f2f2f2;opacity:0.85"
     d="M 46.000012,16.000038 A 2.0000126,2.0000126 0 0 0 44,18.000051 a 2.0000126,2.0000126 0 0 0 2.000012,2.000012 2.0000126,2.0000126 0 0 0 2.000013,-2.000012 2.0000126,2.0000126 0 0 0 -2.000013,-2.000013 z"
     id="path10" />
  <path
     style="fill:#f2f2f2;opacity:0.85"
     d="M 42.000013,20.000063 A 2.0000126,2.0000126 0 0 0 40,22.000076 a 2.0000126,2.0000126 0 0 0 2.000013,2.000012 2.0000126,2.0000126 0 0 0 2.000013,-2.000012 2.0000126,2.0000126 0 0 0 -2.000013,-2.000013 z"
     id="path12" />
  <path
     style="fill:#f2f2f2;opacity:0.85"
     d="M 50.000012,20.000063 A 2.0000126,2.0000126 0 0 0 48,22.000076 a 2.0000126,2.0000126 0 0 0 2.000012,2.000012 2.0000126,2.0000126 0 0 0 2.000013,-2.000012 2.0000126,2.0000126 0 0 0 -2.000013,-2.000013 z"
     id="path14" />
  <path
     style="fill:#f2f2f2;opacity:0.85"
     d="M 46.000012,24.000088 A 2.0000126,2.0000126 0 0 0 44,26.000101 a 2.0000126,2.0000126 0 0 0 2.000012,2.000013 2.0000126,2.0000126 0 0 0 2.000013,-2.000013 2.0000126,2.0000126 0 0 0 -2.000013,-2.000013 z"
     id="path16" />
</svg>
