<?xml version="1.0" encoding="UTF-8" standalone="no"?>
<svg
   xmlns:dc="http://purl.org/dc/elements/1.1/"
   xmlns:cc="http://creativecommons.org/ns#"
   xmlns:rdf="http://www.w3.org/1999/02/22-rdf-syntax-ns#"
   xmlns:svg="http://www.w3.org/2000/svg"
   xmlns="http://www.w3.org/2000/svg"
   xmlns:sodipodi="http://sodipodi.sourceforge.net/DTD/sodipodi-0.dtd"
   xmlns:inkscape="http://www.inkscape.org/namespaces/inkscape"
   width="64"
   height="64"
   version="1.1"
   id="svg28"
   sodipodi:docname="applications-other.svg"
   inkscape:version="1.0.2 (e86c870879, 2021-01-15)">
  <metadata
     id="metadata34">
    <rdf:RDF>
      <cc:Work
         rdf:about="">
        <dc:format>image/svg+xml</dc:format>
        <dc:type
           rdf:resource="http://purl.org/dc/dcmitype/StillImage" />
        <dc:title></dc:title>
      </cc:Work>
    </rdf:RDF>
  </metadata>
  <defs
     id="defs32" />
  <sodipodi:namedview
     pagecolor="#ffffff"
     bordercolor="#666666"
     borderopacity="1"
     objecttolerance="10"
     gridtolerance="10"
     guidetolerance="10"
     inkscape:pageopacity="0"
     inkscape:pageshadow="2"
     inkscape:window-width="1671"
     inkscape:window-height="996"
     id="namedview30"
     showgrid="false"
     inkscape:zoom="12.890625"
     inkscape:cx="32"
     inkscape:cy="32"
     inkscape:window-x="11"
     inkscape:window-y="0"
     inkscape:window-maximized="0"
     inkscape:current-layer="svg28" />
  <g
     transform="translate(0,-280.06667)"
     id="g26">
    <path
       style="fill:#29292a;stroke:#808080;stroke-width:0;stroke-linecap:round;stroke-linejoin:round"
       d="m 4.4166669,283.06668 c -0.7848329,0 -1.4166664,0.63186 -1.4166664,1.4167 v 14.16664 c 0,0.78485 0.6318335,1.41665 1.4166664,1.41665 H 18.583333 c 0.784834,0 1.416667,-0.6318 1.416667,-1.41665 v -14.16664 c 0,-0.78484 -0.631833,-1.4167 -1.416667,-1.4167 z"
       id="path6" />
    <path
       style="fill:#29292a;stroke:#808080;stroke-width:0;stroke-linecap:round;stroke-linejoin:round"
       d="m 24.416665,283.06667 c -0.784833,0 -1.416667,0.63187 -1.416667,1.4167 v 14.16665 c 0,0.78485 0.631834,1.41665 1.416667,1.41665 h 14.166673 c 0.784833,0 1.416667,-0.6318 1.416667,-1.41665 v -14.16665 c 0,-0.78483 -0.631834,-1.4167 -1.416667,-1.4167 z"
       id="path8" />
    <path
       style="fill:#29292a;stroke:#808080;stroke-width:0;stroke-linecap:round;stroke-linejoin:round"
       d="m 44.416665,283.06667 c -0.784833,0 -1.416667,0.63187 -1.416667,1.4167 v 14.16665 c 0,0.78485 0.631834,1.41665 1.416667,1.41665 h 14.166672 c 0.784832,0 1.41667,-0.6318 1.41667,-1.41665 v -14.16665 c 0,-0.78483 -0.631838,-1.4167 -1.41667,-1.4167 z"
       id="path10" />
    <path
       style="fill:#29292a;stroke:#808080;stroke-width:0;stroke-linecap:round;stroke-linejoin:round"
       d="m 4.4166668,303.06667 c -0.7848329,0 -1.4166663,0.63181 -1.4166663,1.41665 v 14.1667 c 0,0.78484 0.6318334,1.41665 1.4166663,1.41665 H 18.583331 c 0.784834,0 1.416667,-0.63181 1.416667,-1.41665 v -14.1667 c 0,-0.78484 -0.631833,-1.41665 -1.416667,-1.41665 z"
       id="path12" />
    <path
       style="fill:#29292a;stroke:#808080;stroke-width:0;stroke-linecap:round;stroke-linejoin:round"
       d="m 24.416665,303.06667 c -0.784834,0 -1.416667,0.63181 -1.416667,1.41665 v 14.1667 c 0,0.78484 0.631833,1.41665 1.416667,1.41665 h 14.166664 c 0.784833,0 1.416666,-0.63181 1.416666,-1.41665 v -14.1667 c 0,-0.78484 -0.631833,-1.41665 -1.416666,-1.41665 z"
       id="path14" />
    <path
       style="fill:#29292a;stroke:#808080;stroke-width:0;stroke-linecap:round;stroke-linejoin:round"
       d="m 44.416665,303.06667 c -0.784833,0 -1.416667,0.63181 -1.416667,1.41665 v 14.1667 c 0,0.78484 0.631834,1.41665 1.416667,1.41665 h 14.166663 c 0.784832,0 1.416669,-0.63181 1.416669,-1.41665 v -14.1667 c 0,-0.78484 -0.631837,-1.41665 -1.416669,-1.41665 z"
       id="path16" />
    <path
       style="fill:#29292a;stroke:#808080;stroke-width:0;stroke-linecap:round;stroke-linejoin:round"
       d="m 4.4166676,323.06667 c -0.7848333,0 -1.4166671,0.6318 -1.4166671,1.41665 v 14.16665 c 0,0.78484 0.6318338,1.4167 1.4166671,1.4167 H 18.583341 c 0.784833,0 1.416667,-0.63186 1.416667,-1.4167 v -14.16665 c 0,-0.78485 -0.631834,-1.41665 -1.416667,-1.41665 z"
       id="path18" />
    <path
       style="fill:#29292a;stroke:#808080;stroke-width:0;stroke-linecap:round;stroke-linejoin:round"
       d="m 24.416677,323.06667 c -0.784832,0 -1.416667,0.6318 -1.416667,1.41665 v 14.16665 c 0,0.78484 0.631835,1.4167 1.416667,1.4167 h 14.166674 c 0.784833,0 1.416666,-0.63186 1.416666,-1.4167 v -14.16665 c 0,-0.78485 -0.631833,-1.41665 -1.416666,-1.41665 z"
       id="path20" />
    <path
       style="fill:#29292a;stroke:#808080;stroke-width:0;stroke-linecap:round;stroke-linejoin:round"
       d="m 44.416689,323.06667 c -0.784833,0 -1.416667,0.6318 -1.416667,1.41665 v 14.16665 c 0,0.78484 0.631834,1.4167 1.416667,1.4167 H 58.58336 c 0.784833,0 1.416671,-0.63186 1.416671,-1.4167 v -14.16665 c 0,-0.78485 -0.631838,-1.41665 -1.416671,-1.41665 z"
       id="path22" />
  </g>
</svg>
