<?xml version="1.0" encoding="UTF-8" standalone="no"?>
<svg
   xmlns:dc="http://purl.org/dc/elements/1.1/"
   xmlns:cc="http://creativecommons.org/ns#"
   xmlns:rdf="http://www.w3.org/1999/02/22-rdf-syntax-ns#"
   xmlns:svg="http://www.w3.org/2000/svg"
   xmlns="http://www.w3.org/2000/svg"
   xmlns:sodipodi="http://sodipodi.sourceforge.net/DTD/sodipodi-0.dtd"
   xmlns:inkscape="http://www.inkscape.org/namespaces/inkscape"
   width="16"
   height="16"
   version="1.1"
   id="svg7"
   sodipodi:docname="blueman-loudspeaker.svg"
   inkscape:version="1.0.2 (e86c870879, 2021-01-15)">
  <metadata
     id="metadata11">
    <rdf:RDF>
      <cc:Work
         rdf:about="">
        <dc:format>image/svg+xml</dc:format>
        <dc:type
           rdf:resource="http://purl.org/dc/dcmitype/StillImage" />
        <dc:title></dc:title>
      </cc:Work>
    </rdf:RDF>
  </metadata>
  <sodipodi:namedview
     pagecolor="#ffffff"
     bordercolor="#666666"
     borderopacity="1"
     objecttolerance="10"
     gridtolerance="10"
     guidetolerance="10"
     inkscape:pageopacity="0"
     inkscape:pageshadow="2"
     inkscape:window-width="1244"
     inkscape:window-height="754"
     id="namedview9"
     showgrid="false"
     inkscape:zoom="51.5625"
     inkscape:cx="8"
     inkscape:cy="8"
     inkscape:window-x="501"
     inkscape:window-y="131"
     inkscape:window-maximized="0"
     inkscape:current-layer="svg7" />
  <defs
     id="defs3">
    <style
       id="current-color-scheme"
       type="text/css">
   .ColorScheme-Text { color:#444444; } .ColorScheme-Highlight { color:#4285f4; } .ColorScheme-NeutralText { color:#ff9800; } .ColorScheme-PositiveText { color:#4caf50; } .ColorScheme-NegativeText { color:#f44336; }
  </style>
  </defs>
  <path
     style="fill:#29292a"
     class="ColorScheme-Text"
     d="M 4 1 C 2 1 2 3 2 3 L 2 14 C 2 16 3.8933 15.9964 4 16 L 12 16 C 12 16 14 15.996 14 14 L 14 3 C 14 1 12 1 12 1 L 4 1 z M 8 3 C 8.55407 3 9 3.44945 9 4 C 9 4.55064 8.55407 5 8 5 C 7.44576 5 7 4.55064 7 4 C 7 3.44945 7.44576 3 8 3 z M 8 6 C 10.2091 6 12 7.7909 12 10 C 12 12.2091 10.2091 14 8 14 C 5.7909 14 4 12.2091 4 10 C 4 7.7909 5.7909 6 8 6 z M 8 8 C 6.8954 8 6 8.89543 6 10 C 6 11.10457 6.89543 12 8 12 C 9.10457 12 10 11.10457 10 10 C 10 8.89543 9.10457 8 8 8 z"
     id="path5" />
</svg>
