<?xml version="1.0" encoding="UTF-8" standalone="no"?>
<svg
   xmlns:dc="http://purl.org/dc/elements/1.1/"
   xmlns:cc="http://creativecommons.org/ns#"
   xmlns:rdf="http://www.w3.org/1999/02/22-rdf-syntax-ns#"
   xmlns:svg="http://www.w3.org/2000/svg"
   xmlns="http://www.w3.org/2000/svg"
   xmlns:sodipodi="http://sodipodi.sourceforge.net/DTD/sodipodi-0.dtd"
   xmlns:inkscape="http://www.inkscape.org/namespaces/inkscape"
   width="16"
   height="16"
   version="1.1"
   id="svg7"
   sodipodi:docname="blueman-camera.svg"
   inkscape:version="1.0.2 (e86c870879, 2021-01-15)">
  <metadata
     id="metadata11">
    <rdf:RDF>
      <cc:Work
         rdf:about="">
        <dc:format>image/svg+xml</dc:format>
        <dc:type
           rdf:resource="http://purl.org/dc/dcmitype/StillImage" />
        <dc:title></dc:title>
      </cc:Work>
    </rdf:RDF>
  </metadata>
  <sodipodi:namedview
     pagecolor="#ffffff"
     bordercolor="#666666"
     borderopacity="1"
     objecttolerance="10"
     gridtolerance="10"
     guidetolerance="10"
     inkscape:pageopacity="0"
     inkscape:pageshadow="2"
     inkscape:window-width="777"
     inkscape:window-height="480"
     id="namedview9"
     showgrid="false"
     inkscape:zoom="51.5625"
     inkscape:cx="8"
     inkscape:cy="8"
     inkscape:window-x="0"
     inkscape:window-y="0"
     inkscape:window-maximized="0"
     inkscape:current-layer="svg7" />
  <defs
     id="defs3">
    <style
       id="current-color-scheme"
       type="text/css">
   .ColorScheme-Text { color:#444444; } .ColorScheme-Highlight { color:#4285f4; } .ColorScheme-NeutralText { color:#ff9800; } .ColorScheme-PositiveText { color:#4caf50; } .ColorScheme-NegativeText { color:#f44336; }
  </style>
  </defs>
  <path
     style="fill:#29292a"
     class="ColorScheme-Text"
     d="m 6,0.99999965 c -0.4,0 -0.399445,7.0705e-4 -0.779297,0.40429695 L 4.136719,2.9999996 H 1.59961 C 0.71960895,2.9999996 -4.9999997e-8,3.6561629 -4.9999997e-8,4.5117184 V 13.445312 C -4.9999997e-8,14.300868 0.71960895,15 1.59961,15 H 14.400391 C 15.280391,15 16,14.300869 16,13.445312 V 4.5117184 C 16,3.6561628 15.280391,2.9999996 14.400391,2.9999996 h -2.53711 L 10.765625,1.3886716 C 10.400447,1.0006727 10.4,0.99999965 10,0.99999965 Z m 8.488281,2.99999995 a 0.5,0.5 0 0 1 0.01172,0 0.5,0.5 0 0 1 0.5,0.5 0.5,0.5 0 0 1 -0.5,0.5 0.5,0.5 0 0 1 -0.5,-0.5 0.5,0.5 0 0 1 0.488281,-0.5 z m -6.548828,1 a 4,4 0 0 1 0.06055,0 4,4 0 0 1 4,4 4,4 0 0 1 -4,4.0000004 4,4 0 0 1 -4,-4.0000004 4,4 0 0 1 3.939453,-4 z m 0.01172,2 a 2,2 0 0 0 -1.951172,2 2,2 0 0 0 2,1.9999994 2,2 0 0 0 2,-1.9999994 2,2 0 0 0 -2,-2 2,2 0 0 0 -0.04883,0 z"
     id="path5" />
</svg>
