<?xml version="1.0" encoding="UTF-8" standalone="no"?>
<svg
   xmlns:dc="http://purl.org/dc/elements/1.1/"
   xmlns:cc="http://creativecommons.org/ns#"
   xmlns:rdf="http://www.w3.org/1999/02/22-rdf-syntax-ns#"
   xmlns:svg="http://www.w3.org/2000/svg"
   xmlns="http://www.w3.org/2000/svg"
   xmlns:sodipodi="http://sodipodi.sourceforge.net/DTD/sodipodi-0.dtd"
   xmlns:inkscape="http://www.inkscape.org/namespaces/inkscape"
   width="16"
   height="16"
   version="1.1"
   id="svg7"
   sodipodi:docname="camera-video.svg"
   inkscape:version="1.0.2 (e86c870879, 2021-01-15)">
  <metadata
     id="metadata11">
    <rdf:RDF>
      <cc:Work
         rdf:about="">
        <dc:format>image/svg+xml</dc:format>
        <dc:type
           rdf:resource="http://purl.org/dc/dcmitype/StillImage" />
      </cc:Work>
    </rdf:RDF>
  </metadata>
  <sodipodi:namedview
     pagecolor="#ffffff"
     bordercolor="#666666"
     borderopacity="1"
     objecttolerance="10"
     gridtolerance="10"
     guidetolerance="10"
     inkscape:pageopacity="0"
     inkscape:pageshadow="2"
     inkscape:window-width="777"
     inkscape:window-height="480"
     id="namedview9"
     showgrid="false"
     inkscape:zoom="51.5625"
     inkscape:cx="8"
     inkscape:cy="8"
     inkscape:window-x="0"
     inkscape:window-y="0"
     inkscape:window-maximized="0"
     inkscape:current-layer="svg7" />
  <defs
     id="defs3">
    <style
       id="current-color-scheme"
       type="text/css">
   .ColorScheme-Text { color:#444444; } .ColorScheme-Highlight { color:#4285f4; } .ColorScheme-NeutralText { color:#ff9800; } .ColorScheme-PositiveText { color:#4caf50; } .ColorScheme-NegativeText { color:#f44336; }
  </style>
  </defs>
  <path
     style="fill:#29292a"
     class="ColorScheme-Text"
     d="M 4.5 0 C 3.115 0 2 1.115 2 2.5 L 2 13.5 C 2 14.885 3.115 16 4.5 16 L 12.5 16 C 13.885 16 15 14.885 15 13.5 L 15 2.5 C 15 1.115 13.885 0 12.5 0 L 4.5 0 z M 13 1 A 1 1 0 0 1 14 2 A 1 1 0 0 1 13 3 A 1 1 0 0 1 12 2 A 1 1 0 0 1 13 1 z M 0.5 3 C 0.223 3 0 3.223 0 3.5 L 0 12.5 C 0 12.777 0.223 13 0.5 13 C 0.777 13 1 12.777 1 12.5 L 1 3.5 C 1 3.223 0.777 3 0.5 3 z M 8.5 4 A 3.5 3.5 0 0 1 12 7.5 A 3.5 3.5 0 0 1 8.5 11 A 3.5 3.5 0 0 1 5 7.5 A 3.5 3.5 0 0 1 8.5 4 z M 8.5 5 A 2.5 2.5 0 0 0 6 7.5 A 2.5 2.5 0 0 0 8.5 10 A 2.5 2.5 0 0 0 11 7.5 A 2.5 2.5 0 0 0 8.5 5 z M 8.5 6 A 1.5 1.5 0 0 1 10 7.5 A 1.5 1.5 0 0 1 8.5 9 A 1.5 1.5 0 0 1 7 7.5 A 1.5 1.5 0 0 1 8.5 6 z M 3.5 13 A 0.5 0.5 0 0 1 4 13.5 A 0.5 0.5 0 0 1 3.5 14 A 0.5 0.5 0 0 1 3 13.5 A 0.5 0.5 0 0 1 3.5 13 z M 5.5 13 A 0.5 0.5 0 0 1 6 13.5 A 0.5 0.5 0 0 1 5.5 14 A 0.5 0.5 0 0 1 5 13.5 A 0.5 0.5 0 0 1 5.5 13 z M 7.5 13 A 0.5 0.5 0 0 1 8 13.5 A 0.5 0.5 0 0 1 7.5 14 A 0.5 0.5 0 0 1 7 13.5 A 0.5 0.5 0 0 1 7.5 13 z M 4.5 14 A 0.5 0.5 0 0 1 5 14.5 A 0.5 0.5 0 0 1 4.5 15 A 0.5 0.5 0 0 1 4 14.5 A 0.5 0.5 0 0 1 4.5 14 z M 6.5 14 A 0.5 0.5 0 0 1 7 14.5 A 0.5 0.5 0 0 1 6.5 15 A 0.5 0.5 0 0 1 6 14.5 A 0.5 0.5 0 0 1 6.5 14 z"
     id="path5" />
</svg>
