<?xml version="1.0" encoding="UTF-8" standalone="no"?>
<svg
   xmlns:dc="http://purl.org/dc/elements/1.1/"
   xmlns:cc="http://creativecommons.org/ns#"
   xmlns:rdf="http://www.w3.org/1999/02/22-rdf-syntax-ns#"
   xmlns:svg="http://www.w3.org/2000/svg"
   xmlns="http://www.w3.org/2000/svg"
   xmlns:sodipodi="http://sodipodi.sourceforge.net/DTD/sodipodi-0.dtd"
   xmlns:inkscape="http://www.inkscape.org/namespaces/inkscape"
   width="16"
   height="16"
   version="1.1"
   id="svg7"
   sodipodi:docname="device-notifier.svg"
   inkscape:version="1.0.2 (e86c870879, 2021-01-15)">
  <metadata
     id="metadata11">
    <rdf:RDF>
      <cc:Work
         rdf:about="">
        <dc:format>image/svg+xml</dc:format>
        <dc:type
           rdf:resource="http://purl.org/dc/dcmitype/StillImage" />
        <dc:title></dc:title>
      </cc:Work>
    </rdf:RDF>
  </metadata>
  <sodipodi:namedview
     pagecolor="#ffffff"
     bordercolor="#666666"
     borderopacity="1"
     objecttolerance="10"
     gridtolerance="10"
     guidetolerance="10"
     inkscape:pageopacity="0"
     inkscape:pageshadow="2"
     inkscape:window-width="1248"
     inkscape:window-height="862"
     id="namedview9"
     showgrid="false"
     inkscape:zoom="51.5625"
     inkscape:cx="8"
     inkscape:cy="8"
     inkscape:window-x="0"
     inkscape:window-y="0"
     inkscape:window-maximized="0"
     inkscape:current-layer="svg7" />
  <defs
     id="defs3">
    <style
       id="current-color-scheme"
       type="text/css">
   .ColorScheme-Text { color:#444444; } .ColorScheme-Highlight { color:#4285f4; } .ColorScheme-NeutralText { color:#ff9800; } .ColorScheme-PositiveText { color:#4caf50; } .ColorScheme-NegativeText { color:#f44336; }
  </style>
  </defs>
  <path
     style="fill:#29292a;stroke-width:1"
     class="ColorScheme-Text"
     d="M 8,0 5.5,4 H 7 V 9 H 4 V 7.7285155 C 4.61771,7.3718856 4.9987399,6.7133 5,6 5,4.8954 4.10457,4 3,4 1.89543,4 1,4.8954301 1,6 1.00056,6.7139701 1.38169,7.3734688 2,7.7304688 V 9 c 0,2 2,2 2,2 h 3 v 1.271484 C 6.3822899,12.628114 6.00126,13.2867 6,14 c 0,1.1046 0.8954299,2 2,2 1.10457,0 1.9999999,-0.89543 1.9999999,-2 -5.599e-4,-0.71397 -0.3816899,-1.373469 -1,-1.730469 V 11 H 12 c 0,0 2,0 2,-2 V 8 c 0,0 1.125001,-0.1875 1,-1 V 5 C 15.125001,3.875 14,4 14,4 h -2 c -1.0625,0 -1,1 -1,1 v 2 c 0,1 1,1 1,1 V 9 H 8.9999999 V 4 H 10.5 Z"
     id="path5" />
</svg>
