<?xml version="1.0" encoding="UTF-8" standalone="no"?>
<svg
   xmlns:dc="http://purl.org/dc/elements/1.1/"
   xmlns:cc="http://creativecommons.org/ns#"
   xmlns:rdf="http://www.w3.org/1999/02/22-rdf-syntax-ns#"
   xmlns:svg="http://www.w3.org/2000/svg"
   xmlns="http://www.w3.org/2000/svg"
   xmlns:sodipodi="http://sodipodi.sourceforge.net/DTD/sodipodi-0.dtd"
   xmlns:inkscape="http://www.inkscape.org/namespaces/inkscape"
   width="16"
   height="16"
   version="1.1"
   id="svg7"
   sodipodi:docname="device_pci.svg"
   inkscape:version="1.0.2 (e86c870879, 2021-01-15)">
  <metadata
     id="metadata11">
    <rdf:RDF>
      <cc:Work
         rdf:about="">
        <dc:format>image/svg+xml</dc:format>
        <dc:type
           rdf:resource="http://purl.org/dc/dcmitype/StillImage" />
      </cc:Work>
    </rdf:RDF>
  </metadata>
  <sodipodi:namedview
     pagecolor="#ffffff"
     bordercolor="#666666"
     borderopacity="1"
     objecttolerance="10"
     gridtolerance="10"
     guidetolerance="10"
     inkscape:pageopacity="0"
     inkscape:pageshadow="2"
     inkscape:window-width="1357"
     inkscape:window-height="942"
     id="namedview9"
     showgrid="false"
     inkscape:zoom="51.5625"
     inkscape:cx="8"
     inkscape:cy="8"
     inkscape:window-x="0"
     inkscape:window-y="0"
     inkscape:window-maximized="0"
     inkscape:current-layer="svg7" />
  <defs
     id="defs3">
    <style
       id="current-color-scheme"
       type="text/css">
   .ColorScheme-Text { color:#444444; } .ColorScheme-Highlight { color:#4285f4; } .ColorScheme-NeutralText { color:#ff9800; } .ColorScheme-PositiveText { color:#4caf50; } .ColorScheme-NegativeText { color:#f44336; }
  </style>
  </defs>
  <path
     style="fill:#29292a;stroke-width:1"
     class="ColorScheme-Text"
     d="m 1,0 c -1.325,0 -1.325,1.9999999 0,1.9999999 h 1 v 3 H 0 v 3 H 2 V 9 H 0 v 3 h 2 v 2 c 0,1.325001 2,1.325001 2,0 V 0.99996 C 4,0 3,0 3,0 Z m 4,3 v 1.9999999 h 9 V 13 H 8 V 11 H 5 v 2 h 1 v 2 H 16 V 3 Z M 1,6 H 2 V 7 H 1 Z m 5,0 v 4 H 7 V 6 Z m 2,0 v 4 H 9 V 6 Z m 2,0 v 4 h 1 V 6 Z m 2,0 v 4 h 1 V 6 Z M 1,10 h 1 v 1 H 1 Z"
     id="path5" />
</svg>
