<?xml version="1.0" encoding="UTF-8" standalone="no"?>
<svg
   xmlns:dc="http://purl.org/dc/elements/1.1/"
   xmlns:cc="http://creativecommons.org/ns#"
   xmlns:rdf="http://www.w3.org/1999/02/22-rdf-syntax-ns#"
   xmlns:svg="http://www.w3.org/2000/svg"
   xmlns="http://www.w3.org/2000/svg"
   xmlns:sodipodi="http://sodipodi.sourceforge.net/DTD/sodipodi-0.dtd"
   xmlns:inkscape="http://www.inkscape.org/namespaces/inkscape"
   width="16"
   height="16"
   version="1.1"
   id="svg7"
   sodipodi:docname="drive-multidisk.svg"
   inkscape:version="1.0.2 (e86c870879, 2021-01-15)">
  <metadata
     id="metadata11">
    <rdf:RDF>
      <cc:Work
         rdf:about="">
        <dc:format>image/svg+xml</dc:format>
        <dc:type
           rdf:resource="http://purl.org/dc/dcmitype/StillImage" />
      </cc:Work>
    </rdf:RDF>
  </metadata>
  <sodipodi:namedview
     pagecolor="#ffffff"
     bordercolor="#666666"
     borderopacity="1"
     objecttolerance="10"
     gridtolerance="10"
     guidetolerance="10"
     inkscape:pageopacity="0"
     inkscape:pageshadow="2"
     inkscape:window-width="830"
     inkscape:window-height="480"
     id="namedview9"
     showgrid="false"
     inkscape:zoom="51.5625"
     inkscape:cx="8"
     inkscape:cy="8"
     inkscape:window-x="0"
     inkscape:window-y="0"
     inkscape:window-maximized="0"
     inkscape:current-layer="svg7" />
  <defs
     id="defs3">
    <style
       id="current-color-scheme"
       type="text/css">
   .ColorScheme-Text { color:#444444; } .ColorScheme-Highlight { color:#4285f4; } .ColorScheme-NeutralText { color:#ff9800; } .ColorScheme-PositiveText { color:#4caf50; } .ColorScheme-NegativeText { color:#f44336; }
  </style>
  </defs>
  <path
     style="fill:#29292a"
     class="ColorScheme-Text"
     d="M 1 1 C 0.446 1 0 1.446 0 2 L 0 6 C 0 6.554 0.446 7 1 7 L 2 7 L 2 8 L 1 8 C 0.446 8 0 8.446 0 9 L 0 13 C 0 13.554 0.446 14 1 14 L 2 14 L 2 15 L 3 15 L 3 14 L 13 14 L 13 15 L 14 15 L 14 14 L 15 14 C 15.554 14 16 13.554 16 13 L 16 9 C 16 8.446 15.554 8 15 8 L 14 8 L 14 7 L 15 7 C 15.554 7 16 6.554 16 6 L 16 2 C 16 1.446 15.554 1 15 1 L 1 1 z M 13 3 A 1 1 0 0 1 14 4 A 1 1 0 0 1 13 5 A 1 1 0 0 1 12 4 A 1 1 0 0 1 13 3 z M 3 7 L 13 7 L 13 8 L 3 8 L 3 7 z M 13 10 A 1 1 0 0 1 14 11 A 1 1 0 0 1 13 12 A 1 1 0 0 1 12 11 A 1 1 0 0 1 13 10 z"
     id="path5" />
</svg>
