<?xml version="1.0" encoding="UTF-8" standalone="no"?>
<svg
   xmlns:dc="http://purl.org/dc/elements/1.1/"
   xmlns:cc="http://creativecommons.org/ns#"
   xmlns:rdf="http://www.w3.org/1999/02/22-rdf-syntax-ns#"
   xmlns:svg="http://www.w3.org/2000/svg"
   xmlns="http://www.w3.org/2000/svg"
   xmlns:xlink="http://www.w3.org/1999/xlink"
   xmlns:sodipodi="http://sodipodi.sourceforge.net/DTD/sodipodi-0.dtd"
   xmlns:inkscape="http://www.inkscape.org/namespaces/inkscape"
   width="64"
   height="64"
   version="1.1"
   viewBox="0 0 16.933 16.933"
   id="svg56"
   sodipodi:docname="gnome-fs-network.svg"
   inkscape:version="1.0.2 (e86c870879, 2021-01-15)">
  <sodipodi:namedview
     pagecolor="#ffffff"
     bordercolor="#666666"
     borderopacity="1"
     objecttolerance="10"
     gridtolerance="10"
     guidetolerance="10"
     inkscape:pageopacity="0"
     inkscape:pageshadow="2"
     inkscape:window-width="1502"
     inkscape:window-height="856"
     id="namedview58"
     showgrid="false"
     inkscape:zoom="12.890625"
     inkscape:cx="32"
     inkscape:cy="21.765734"
     inkscape:window-x="131"
     inkscape:window-y="140"
     inkscape:window-maximized="0"
     inkscape:current-layer="svg56"
     inkscape:document-rotation="0" />
  <defs
     id="defs18">
    <linearGradient
       id="linearGradient1064"
       x1="-15.961"
       x2="-.30109"
       y1="-43.254"
       y2="-54.196"
       gradientTransform="matrix(1 0 0 1.1 16.669 62.435)"
       gradientUnits="userSpaceOnUse">
      <stop
         stop-color="#3c3c3c"
         offset="0"
         id="stop2" />
      <stop
         stop-color="#646464"
         offset="1"
         id="stop4" />
    </linearGradient>
    <linearGradient
       id="linearGradient992"
       x1="-16.14"
       x2="-1.0699"
       y1="-55.616"
       y2="-44.835"
       gradientTransform="matrix(1 0 0 1.1 16.669 62.435)"
       gradientUnits="userSpaceOnUse">
      <stop
         stop-color="#3c3c3c"
         offset="0"
         id="stop7" />
      <stop
         stop-color="#646464"
         offset="1"
         id="stop9" />
    </linearGradient>
    <linearGradient
       id="linearGradient1006"
       x1=".52939"
       x2="16.217"
       y1="2.7784"
       y2="14.872"
       gradientTransform="matrix(1,0,0,1.1,16.669,62.435)"
       gradientUnits="userSpaceOnUse">
      <stop
         stop-color="#3c3c3c"
         offset="0"
         id="stop12" />
      <stop
         stop-color="#646464"
         offset="1"
         id="stop14" />
    </linearGradient>
    <linearGradient
       id="linearGradient939"
       x1="-16.14"
       x2="-1.0699"
       y1="-55.616"
       y2="-44.835"
       gradientTransform="matrix(1,0,0,1.1,16.669,62.435)"
       gradientUnits="userSpaceOnUse"
       xlink:href="#linearGradient992" />
  </defs>
  <metadata
     id="metadata20">
    <rdf:RDF>
      <cc:Work
         rdf:about="">
        <dc:format>image/svg+xml</dc:format>
        <dc:type
           rdf:resource="http://purl.org/dc/dcmitype/StillImage" />
        <dc:title />
      </cc:Work>
    </rdf:RDF>
  </metadata>
  <g
     fill="#5e4aa6"
     stroke-width=".26458"
     id="g30">
    <circle
       cx="-330.35"
       cy="-328.38"
       r="0"
       id="circle22" />
    <circle
       cx="-312.11"
       cy="-326.25"
       r="0"
       id="circle24" />
    <circle
       cx="-306.02"
       cy="-333.07"
       r="0"
       id="circle26" />
    <circle
       cx="-308.84"
       cy="-326.01"
       r="0"
       id="circle28" />
  </g>
  <g
     transform="translate(.000295 -.00032978)"
     fill="#5e4aa6"
     stroke-width=".26458"
     id="g42">
    <circle
       cx="-330.35"
       cy="-328.38"
       r="0"
       id="circle32" />
    <circle
       cx="-312.11"
       cy="-326.25"
       r="0"
       id="circle34" />
    <circle
       cx="-306.02"
       cy="-333.07"
       r="0"
       id="circle36" />
    <circle
       cx="-308.84"
       cy="-326.01"
       r="0"
       id="circle38" />
    <circle
       cx="-328.8"
       cy="-330.45"
       r="0"
       id="circle40" />
  </g>
  <path
     d="m 8.5368895,0.58211288 c -4.3116103,0 -7.8068634,3.51022252 -7.8068634,7.84029382 0,4.3300713 3.4952531,7.8402943 7.8068634,7.8402943 4.3116065,0 7.8068635,-3.510223 7.8068635,-7.8402943 0,-4.3300713 -3.495257,-7.84029382 -7.8068635,-7.84029382 z M 7.9792567,2.7521943 c 0.07461,-0.00783 0.1686948,0.00449 0.2439794,0 0.00885,0.035856 -0.054335,0.1633805 -0.1393987,0.3500145 -0.5418635,1.1887681 -0.5726012,2.5809803 -0.06972,3.3251247 0.091007,0.1349199 0.1742589,0.2633206 0.1742589,0.2800125 0,0.016679 -0.098131,0.034925 -0.2091192,0.034925 -0.2605031,0 -0.5070243,-0.1594477 -1.0107102,-0.5600097 C 6.7448004,6.004318 6.4539052,5.8548609 6.3412059,5.8322381 6.1642492,5.7967206 6.1170804,5.8122992 5.88812,6.0422443 5.6751228,6.2561282 5.6093226,6.3714563 5.6093226,6.567264 c 0,0.7425205 0.877803,1.3327824 2.5093497,1.6800626 2.2156977,0.4716161 2.7619027,0.8950481 2.8230157,2.0650774 0.07672,1.467233 -0.701053,2.573599 -2.4047942,3.430129 -0.2033443,0.10226 -0.3329214,0.141964 -0.4182383,0.175005 -0.037937,-0.0034 -0.066812,0.0034 -0.1044964,0 -0.014332,-0.04536 -0.034987,-0.1506 -0.034987,-0.350015 0,-0.779303 -0.3058594,-1.581443 -0.7667308,-2.030076 C 7.0887236,11.417018 6.7423218,11.161842 6.4456854,10.977426 6.1490574,10.793023 5.8501869,10.578805 5.783493,10.487408 5.6729688,10.335741 5.6637796,10.242566 5.7485063,9.9623882 5.9032486,9.4506746 6.0874556,9.1656685 6.4455379,8.8423463 6.6332856,8.6728402 6.8221715,8.530694 6.8637762,8.5273328 6.9055073,8.5239724 6.6238434,8.4390724 6.201588,8.3523276 5.7793283,8.2654346 5.1617039,8.0834022 4.8423262,7.9673332 4.2583943,7.7551426 3.4700139,7.3096893 3.1694151,6.9872967 3.1567693,6.9736231 3.1458096,6.9644368 3.1344284,6.9523719 3.565068,5.2296802 4.773571,3.8177551 6.3756615,3.1372289 6.7108591,2.9948372 7.0564431,2.8971493 7.4212235,2.8222154 7.6029013,2.7849199 7.7912392,2.7713648 7.9788563,2.7522133 Z m 5.2278103,2.6250981 c 0.130968,0.081314 0.625562,1.1559396 0.766743,1.6800631 0.182268,0.6767183 0.169075,1.8477894 0,2.5200946 C 13.90944,9.8333115 13.826993,10.072677 13.799551,10.10247 13.772151,10.13227 13.67263,9.9607512 13.555572,9.7524552 13.43854,9.5441961 13.064692,9.1016562 12.753989,8.77242 11.857159,7.8220307 11.716133,7.3257962 12.091801,6.5673372 12.281235,6.1848532 13.10569,5.3144582 13.207067,5.3772924 Z"
     fill="#333333"
     id="path2"
     style="stroke-width:1.11765;fill:#29292a" />
</svg>
