<?xml version="1.0" encoding="UTF-8" standalone="no"?>
<svg
   xmlns:dc="http://purl.org/dc/elements/1.1/"
   xmlns:cc="http://creativecommons.org/ns#"
   xmlns:rdf="http://www.w3.org/1999/02/22-rdf-syntax-ns#"
   xmlns:svg="http://www.w3.org/2000/svg"
   xmlns="http://www.w3.org/2000/svg"
   xmlns:sodipodi="http://sodipodi.sourceforge.net/DTD/sodipodi-0.dtd"
   xmlns:inkscape="http://www.inkscape.org/namespaces/inkscape"
   width="16"
   height="16"
   version="1.1"
   id="svg7"
   sodipodi:docname="input-keyboard.svg"
   inkscape:version="1.0.2 (e86c870879, 2021-01-15)">
  <metadata
     id="metadata11">
    <rdf:RDF>
      <cc:Work
         rdf:about="">
        <dc:format>image/svg+xml</dc:format>
        <dc:type
           rdf:resource="http://purl.org/dc/dcmitype/StillImage" />
        <dc:title></dc:title>
      </cc:Work>
    </rdf:RDF>
  </metadata>
  <sodipodi:namedview
     pagecolor="#ffffff"
     bordercolor="#666666"
     borderopacity="1"
     objecttolerance="10"
     gridtolerance="10"
     guidetolerance="10"
     inkscape:pageopacity="0"
     inkscape:pageshadow="2"
     inkscape:window-width="1203"
     inkscape:window-height="706"
     id="namedview9"
     showgrid="false"
     inkscape:zoom="51.5625"
     inkscape:cx="8"
     inkscape:cy="8"
     inkscape:window-x="282"
     inkscape:window-y="376"
     inkscape:window-maximized="0"
     inkscape:current-layer="svg7" />
  <defs
     id="defs3">
    <style
       id="current-color-scheme"
       type="text/css">
   .ColorScheme-Text { color:#444444; } .ColorScheme-Highlight { color:#4285f4; } .ColorScheme-NeutralText { color:#ff9800; } .ColorScheme-PositiveText { color:#4caf50; } .ColorScheme-NegativeText { color:#f44336; }
  </style>
  </defs>
  <path
     style="fill:#29292a;stroke-width:0.999999"
     class="ColorScheme-Text"
     d="M 2,2 C 2,2 0,2 0,4 v 8 c 0,2 2,2 2,2 h 11 c 0,0 2,0 2,-2 V 4 C 15,2 13,2 13,2 Z m 0.25,2 h 1.5 c 0.1385,0 0.2500001,0.1115 0.2500001,0.25 v 1.5 C 4.0000001,5.8885 3.8885,6 3.75,6 H 2.25 C 2.1115001,6 2,5.8885 2,5.75 V 4.25 C 2,4.1115 2.1115001,4 2.25,4 Z m 3,0 h 1.5 c 0.1385,0 0.2500001,0.1115 0.2500001,0.25 v 1.5 C 7.0000001,5.8885 6.8885,6 6.75,6 H 5.25 C 5.1115,6 5,5.8885 5,5.75 V 4.25 C 5,4.1115 5.1115,4 5.25,4 Z m 3,0 h 1.5 C 9.8885,4 10,4.1115 10,4.25 v 1.5 C 10,5.8885 9.8885,6 9.75,6 H 8.25 C 8.1115001,6 8,5.8885 8,5.75 V 4.25 C 8,4.1115 8.1115001,4 8.25,4 Z m 3,0 h 1.5 C 12.8885,4 13,4.1115 13,4.25 v 1.5 C 13,5.8885 12.8885,6 12.75,6 h -1.5 C 11.1115,6 11,5.8885 11,5.75 V 4.25 C 11,4.1115 11.1115,4 11.25,4 Z m -9,3 h 1.5 c 0.1385,0 0.2500001,0.1115 0.2500001,0.25 v 1.5 C 4.0000001,8.8885 3.8885,9 3.75,9 H 2.25 C 2.1115001,9 2,8.8885 2,8.75 V 7.25 C 2,7.1115 2.1115001,7 2.25,7 Z m 3,0 h 1.5 c 0.1385,0 0.2500001,0.1115 0.2500001,0.25 v 1.5 C 7.0000001,8.8885 6.8885,9 6.75,9 H 5.25 C 5.1115,9 5,8.8885 5,8.75 V 7.25 C 5,7.1115 5.1115,7 5.25,7 Z m 3,0 h 1.5 C 9.8885,7 10,7.1115 10,7.25 v 1.5 C 10,8.8885 9.8885,9 9.75,9 H 8.25 C 8.1115001,9 8,8.8885 8,8.75 V 7.25 C 8,7.1115 8.1115001,7 8.25,7 Z m 3,0 h 1.5 C 12.8885,7 13,7.1115 13,7.25 v 1.5 C 13,8.8885 12.8885,9 12.75,9 h -1.5 C 11.1115,9 11,8.8885 11,8.75 V 7.25 C 11,7.1115 11.1115,7 11.25,7 Z m -7,3 h 6.5 c 0.1385,0 0.25,0.1115 0.25,0.25 v 1.5 C 11,11.8885 10.8885,12 10.75,12 H 4.25 C 4.1115,12 4.0000001,11.8885 4.0000001,11.75 v -1.5 C 4.0000001,10.1115 4.1115,10 4.25,10 Z"
     id="path5" />
</svg>
