<?xml version="1.0" encoding="UTF-8" standalone="no"?>
<svg
   xmlns:dc="http://purl.org/dc/elements/1.1/"
   xmlns:cc="http://creativecommons.org/ns#"
   xmlns:rdf="http://www.w3.org/1999/02/22-rdf-syntax-ns#"
   xmlns:svg="http://www.w3.org/2000/svg"
   xmlns="http://www.w3.org/2000/svg"
   xmlns:sodipodi="http://sodipodi.sourceforge.net/DTD/sodipodi-0.dtd"
   xmlns:inkscape="http://www.inkscape.org/namespaces/inkscape"
   width="16"
   height="16"
   version="1.1"
   id="svg7"
   sodipodi:docname="input-dialpad.svg"
   inkscape:version="1.0.2 (e86c870879, 2021-01-15)">
  <metadata
     id="metadata11">
    <rdf:RDF>
      <cc:Work
         rdf:about="">
        <dc:format>image/svg+xml</dc:format>
        <dc:type
           rdf:resource="http://purl.org/dc/dcmitype/StillImage" />
        <dc:title></dc:title>
      </cc:Work>
    </rdf:RDF>
  </metadata>
  <sodipodi:namedview
     pagecolor="#ffffff"
     bordercolor="#666666"
     borderopacity="1"
     objecttolerance="10"
     gridtolerance="10"
     guidetolerance="10"
     inkscape:pageopacity="0"
     inkscape:pageshadow="2"
     inkscape:window-width="777"
     inkscape:window-height="480"
     id="namedview9"
     showgrid="false"
     inkscape:zoom="51.5625"
     inkscape:cx="8"
     inkscape:cy="8"
     inkscape:window-x="0"
     inkscape:window-y="0"
     inkscape:window-maximized="0"
     inkscape:current-layer="svg7" />
  <defs
     id="defs3">
    <style
       id="current-color-scheme"
       type="text/css">
   .ColorScheme-Text { color:#444444; } .ColorScheme-Highlight { color:#4285f4; } .ColorScheme-NeutralText { color:#ff9800; } .ColorScheme-PositiveText { color:#4caf50; } .ColorScheme-NegativeText { color:#f44336; }
  </style>
  </defs>
  <path
     style="fill:#29292a"
     class="ColorScheme-Text"
     d="M 7.5,13 H 9.5 C 9.777,13 10,13.223 10,13.5 V 15.5 C 10,15.777 9.777,16 9.5,16 H 7.5 C 7.223,16 7,15.777 7,15.5 V 13.5 C 7,13.223 7.223,13 7.5,13 Z M 11.5,9 H 13.5 C 13.777,9 14,9.223 14,9.5 V 11.5 C 14,11.777 13.777,12 13.5,12 H 11.5 C 11.223,12 11,11.777 11,11.5 V 9.5 C 11,9.223 11.223,9 11.5,9 Z M 7.5,9 H 9.5 C 9.777,9 10,9.223 10,9.5 V 11.5 C 10,11.777 9.777,12 9.5,12 H 7.5 C 7.223,12 7,11.777 7,11.5 V 9.5 C 7,9.223 7.223,9 7.5,9 Z M 3.5,9 H 5.5 C 5.777,9 6,9.223 6,9.5 V 11.5 C 6,11.777 5.777,12 5.5,12 H 3.5 C 3.223,12 3,11.777 3,11.5 V 9.5 C 3,9.223 3.223,9 3.5,9 Z M 3.5,5 H 5.5 C 5.777,5 6,5.223 6,5.5 V 7.5 C 6,7.777 5.777,8 5.5,8 H 3.5 C 3.223,8 3,7.777 3,7.5 V 5.5 C 3,5.223 3.223,5 3.5,5 Z M 7.5,5 H 9.5 C 9.777,5 10,5.223 10,5.5 V 7.5 C 10,7.777 9.777,8 9.5,8 H 7.5 C 7.223,8 7,7.777 7,7.5 V 5.5 C 7,5.223 7.223,5 7.5,5 Z M 11.5,5 H 13.5 C 13.777,5 14,5.223 14,5.5 V 7.5 C 14,7.777 13.777,8 13.5,8 H 11.5 C 11.223,8 11,7.777 11,7.5 V 5.5 C 11,5.223 11.223,5 11.5,5 Z M 11.5,1 H 13.5 C 13.777,1 14,1.223 14,1.5 V 3.5 C 14,3.777 13.777,4 13.5,4 H 11.5 C 11.223,4 11,3.777 11,3.5 V 1.5 C 11,1.223 11.223,1 11.5,1 Z M 7.5,1 H 9.5 C 9.777,1 10,1.223 10,1.5 V 3.5 C 10,3.777 9.777,4 9.5,4 H 7.5 C 7.223,4 7,3.777 7,3.5 V 1.5 C 7,1.223 7.223,1 7.5,1 Z M 3.5,1 H 5.5 C 5.777,1 6,1.223 6,1.5 V 3.5 C 6,3.777 5.777,4 5.5,4 H 3.5 C 3.223,4 3,3.777 3,3.5 V 1.5 C 3,1.223 3.223,1 3.5,1 Z"
     id="path5" />
</svg>
