<?xml version="1.0" encoding="UTF-8" standalone="no"?>
<svg
   xmlns:dc="http://purl.org/dc/elements/1.1/"
   xmlns:cc="http://creativecommons.org/ns#"
   xmlns:rdf="http://www.w3.org/1999/02/22-rdf-syntax-ns#"
   xmlns:svg="http://www.w3.org/2000/svg"
   xmlns="http://www.w3.org/2000/svg"
   xmlns:sodipodi="http://sodipodi.sourceforge.net/DTD/sodipodi-0.dtd"
   xmlns:inkscape="http://www.inkscape.org/namespaces/inkscape"
   width="16"
   height="16"
   version="1.1"
   id="svg7"
   sodipodi:docname="media-tape.svg"
   inkscape:version="1.0.2 (e86c870879, 2021-01-15)">
  <metadata
     id="metadata11">
    <rdf:RDF>
      <cc:Work
         rdf:about="">
        <dc:format>image/svg+xml</dc:format>
        <dc:type
           rdf:resource="http://purl.org/dc/dcmitype/StillImage" />
        <dc:title></dc:title>
      </cc:Work>
    </rdf:RDF>
  </metadata>
  <sodipodi:namedview
     pagecolor="#ffffff"
     bordercolor="#666666"
     borderopacity="1"
     objecttolerance="10"
     gridtolerance="10"
     guidetolerance="10"
     inkscape:pageopacity="0"
     inkscape:pageshadow="2"
     inkscape:window-width="777"
     inkscape:window-height="480"
     id="namedview9"
     showgrid="false"
     inkscape:zoom="51.5625"
     inkscape:cx="8"
     inkscape:cy="8"
     inkscape:window-x="0"
     inkscape:window-y="0"
     inkscape:window-maximized="0"
     inkscape:current-layer="svg7" />
  <defs
     id="defs3">
    <style
       id="current-color-scheme"
       type="text/css">
   .ColorScheme-Text { color:#444444; } .ColorScheme-Highlight { color:#4285f4; } .ColorScheme-NeutralText { color:#ff9800; } .ColorScheme-PositiveText { color:#4caf50; } .ColorScheme-NegativeText { color:#f44336; }
  </style>
  </defs>
  <path
     style="fill:#29292a"
     class="ColorScheme-Text"
     d="M 3,2 C 1,2 1,4 1,4 V 12 C 1,12 1,14 3,14 H 13 C 13,14 15,14 15,12 V 4 C 15,2 13,2 13,2 Z M 5,6 C 6.1,6 7,6.9 7,8 7,8.36 6.89,8.71 6.72,9 H 9.28 C 9.11,8.71 9,8.36 9,8 9,6.9 9.9,6 11,6 12.1,6 13,6.9 13,8 13,9.1 12.1,10 11,10 H 5 C 3.9,10 3,9.1 3,8 3,6.9 3.9,6 5,6 Z M 5,7 C 4.45,7 4,7.45 4,8 4,8.55 4.45,9 5,9 5.55,9 6,8.55 6,8 6,7.45 5.55,7 5,7 Z M 11,7 C 10.45,7 10,7.45 10,8 10,8.55 10.45,9 11,9 11.55,9 12,8.55 12,8 12,7.45 11.55,7 11,7 Z"
     id="path5" />
</svg>
