<?xml version="1.0" encoding="UTF-8" standalone="no"?>
<svg
   xmlns:dc="http://purl.org/dc/elements/1.1/"
   xmlns:cc="http://creativecommons.org/ns#"
   xmlns:rdf="http://www.w3.org/1999/02/22-rdf-syntax-ns#"
   xmlns:svg="http://www.w3.org/2000/svg"
   xmlns="http://www.w3.org/2000/svg"
   xmlns:sodipodi="http://sodipodi.sourceforge.net/DTD/sodipodi-0.dtd"
   xmlns:inkscape="http://www.inkscape.org/namespaces/inkscape"
   width="64"
   height="64"
   version="1"
   id="svg10"
   sodipodi:docname="media-optical-cd-video.svg"
   inkscape:version="1.0.2 (e86c870879, 2021-01-15)">
  <metadata
     id="metadata16">
    <rdf:RDF>
      <cc:Work
         rdf:about="">
        <dc:format>image/svg+xml</dc:format>
        <dc:type
           rdf:resource="http://purl.org/dc/dcmitype/StillImage" />
        <dc:title></dc:title>
      </cc:Work>
    </rdf:RDF>
  </metadata>
  <defs
     id="defs14" />
  <sodipodi:namedview
     pagecolor="#ffffff"
     bordercolor="#666666"
     borderopacity="1"
     objecttolerance="10"
     gridtolerance="10"
     guidetolerance="10"
     inkscape:pageopacity="0"
     inkscape:pageshadow="2"
     inkscape:window-width="1184"
     inkscape:window-height="860"
     id="namedview12"
     showgrid="false"
     inkscape:zoom="12.890625"
     inkscape:cx="32"
     inkscape:cy="32"
     inkscape:window-x="916"
     inkscape:window-y="371"
     inkscape:window-maximized="0"
     inkscape:current-layer="svg10" />
  <path
     style="fill:#676767"
     d="M 32 17 A 15 15 0 0 0 17 32 A 15 15 0 0 0 32 47 A 15 15 0 0 0 47 32 A 15 15 0 0 0 32 17 z M 32 26 A 6 6 0 0 1 38 32 A 6 6 0 0 1 32 38 A 6 6 0 0 1 26 32 A 6 6 0 0 1 32 26 z"
     id="path4" />
  <path
     style="fill:#29292a"
     d="M 32 4 A 28 28 0 0 0 4 32 A 28 28 0 0 0 32 60 A 28 28 0 0 0 60 32 A 28 28 0 0 0 32 4 z M 32 20 A 12 12 0 0 1 44 32 A 12 12 0 0 1 32 44 A 12 12 0 0 1 20 32 A 12 12 0 0 1 32 20 z"
     id="path6" />
</svg>
