<?xml version="1.0" encoding="UTF-8" standalone="no"?>
<svg
   xmlns:dc="http://purl.org/dc/elements/1.1/"
   xmlns:cc="http://creativecommons.org/ns#"
   xmlns:rdf="http://www.w3.org/1999/02/22-rdf-syntax-ns#"
   xmlns:svg="http://www.w3.org/2000/svg"
   xmlns="http://www.w3.org/2000/svg"
   xmlns:sodipodi="http://sodipodi.sourceforge.net/DTD/sodipodi-0.dtd"
   xmlns:inkscape="http://www.inkscape.org/namespaces/inkscape"
   width="16"
   height="16"
   version="1.1"
   id="svg7"
   sodipodi:docname="audio-card.svg"
   inkscape:version="1.0.2 (e86c870879, 2021-01-15)">
  <metadata
     id="metadata11">
    <rdf:RDF>
      <cc:Work
         rdf:about="">
        <dc:format>image/svg+xml</dc:format>
        <dc:type
           rdf:resource="http://purl.org/dc/dcmitype/StillImage" />
      </cc:Work>
    </rdf:RDF>
  </metadata>
  <sodipodi:namedview
     pagecolor="#ffffff"
     bordercolor="#666666"
     borderopacity="1"
     objecttolerance="10"
     gridtolerance="10"
     guidetolerance="10"
     inkscape:pageopacity="0"
     inkscape:pageshadow="2"
     inkscape:window-width="777"
     inkscape:window-height="480"
     id="namedview9"
     showgrid="false"
     inkscape:zoom="51.5625"
     inkscape:cx="8"
     inkscape:cy="8"
     inkscape:window-x="0"
     inkscape:window-y="0"
     inkscape:window-maximized="0"
     inkscape:current-layer="svg7" />
  <defs
     id="defs3">
    <style
       id="current-color-scheme"
       type="text/css">
   .ColorScheme-Text { color:#444444; } .ColorScheme-Highlight { color:#4285f4; } .ColorScheme-NeutralText { color:#ff9800; } .ColorScheme-PositiveText { color:#4caf50; } .ColorScheme-NegativeText { color:#f44336; }
  </style>
  </defs>
  <path
     style="fill:#29292a"
     class="ColorScheme-Text"
     d="M 3 1 C 1 1 1 3 1 3 L 1 12 C 1 14 3 14 3 14 L 13 14 C 15 14 15 12 15 12 L 15 3 C 15 3 15 1 13 1 L 3 1 z M 6 4 L 11 4 L 11 9.5 C 11 10.32843 10.32843 11 9.5 11 C 8.67157 11 8 10.32843 8 9.5 C 8 8.67157 8.67157 8 9.5 8 C 9.67259 8 9.84568 8.04015 10 8.09375 L 10 6 L 7 6 L 7 9.5 C 7 10.32843 6.32843 11 5.5 11 C 4.67157 11 4 10.32843 4 9.5 C 4 8.67157 4.67157 8 5.5 8 C 5.67259 8 5.84568 8.04015 6 8.09375 L 6 6 L 6 4 z"
     id="path5" />
</svg>
