<?xml version="1.0" encoding="UTF-8" standalone="no"?>
<svg
   xmlns:dc="http://purl.org/dc/elements/1.1/"
   xmlns:cc="http://creativecommons.org/ns#"
   xmlns:rdf="http://www.w3.org/1999/02/22-rdf-syntax-ns#"
   xmlns:svg="http://www.w3.org/2000/svg"
   xmlns="http://www.w3.org/2000/svg"
   xmlns:sodipodi="http://sodipodi.sourceforge.net/DTD/sodipodi-0.dtd"
   xmlns:inkscape="http://www.inkscape.org/namespaces/inkscape"
   width="24"
   height="24"
   version="1"
   id="svg6"
   sodipodi:docname="emblem-favorite.svg"
   inkscape:version="1.0.2 (e86c870879, 2021-01-15)">
  <metadata
     id="metadata12">
    <rdf:RDF>
      <cc:Work
         rdf:about="">
        <dc:format>image/svg+xml</dc:format>
        <dc:type
           rdf:resource="http://purl.org/dc/dcmitype/StillImage" />
        <dc:title></dc:title>
      </cc:Work>
    </rdf:RDF>
  </metadata>
  <defs
     id="defs10" />
  <sodipodi:namedview
     pagecolor="#ffffff"
     bordercolor="#666666"
     borderopacity="1"
     objecttolerance="10"
     gridtolerance="10"
     guidetolerance="10"
     inkscape:pageopacity="0"
     inkscape:pageshadow="2"
     inkscape:window-width="1151"
     inkscape:window-height="842"
     id="namedview8"
     showgrid="false"
     inkscape:zoom="34.375"
     inkscape:cx="12"
     inkscape:cy="12"
     inkscape:window-x="0"
     inkscape:window-y="0"
     inkscape:window-maximized="0"
     inkscape:current-layer="svg6" />
  <circle
     style="fill:#676767"
     cx="12"
     cy="12"
     r="10"
     id="circle2" />
  <path
     style="fill:#ffffff"
     d="M 14.538213,7 C 13.535495,7 12.632507,7.424743 12.000245,8.200009 11.367819,7.424743 10.464859,7 9.462113,7 7.550099,7 6.000085,8.7638495 6.000085,10.939732 c 0,0.58462 0.090758,1.147219 0.249708,1.684458 0,0 0.144131,0.484744 0.2718125,0.75159 C 7.9808885,16.787614 12.000001,19 12.000001,19 c 0,0 4.019138,-2.212445 5.478394,-5.624219 0,0 0.188286,-0.454596 0.271812,-0.751591 0.151772,-0.539722 0.249708,-1.099838 0.249708,-1.684458 C 17.999915,8.7638495 16.449901,7 14.537887,7 Z"
     id="path4" />
</svg>
