<?xml version="1.0" encoding="UTF-8" standalone="no"?>
<svg
   xmlns:dc="http://purl.org/dc/elements/1.1/"
   xmlns:cc="http://creativecommons.org/ns#"
   xmlns:rdf="http://www.w3.org/1999/02/22-rdf-syntax-ns#"
   xmlns:svg="http://www.w3.org/2000/svg"
   xmlns="http://www.w3.org/2000/svg"
   xmlns:sodipodi="http://sodipodi.sourceforge.net/DTD/sodipodi-0.dtd"
   xmlns:inkscape="http://www.inkscape.org/namespaces/inkscape"
   width="24"
   height="24"
   version="1.1"
   id="svg6"
   sodipodi:docname="emblem-unlocked.svg"
   inkscape:version="1.0.2 (e86c870879, 2021-01-15)">
  <metadata
     id="metadata12">
    <rdf:RDF>
      <cc:Work
         rdf:about="">
        <dc:format>image/svg+xml</dc:format>
        <dc:type
           rdf:resource="http://purl.org/dc/dcmitype/StillImage" />
        <dc:title></dc:title>
      </cc:Work>
    </rdf:RDF>
  </metadata>
  <defs
     id="defs10" />
  <sodipodi:namedview
     pagecolor="#ffffff"
     bordercolor="#666666"
     borderopacity="1"
     objecttolerance="10"
     gridtolerance="10"
     guidetolerance="10"
     inkscape:pageopacity="0"
     inkscape:pageshadow="2"
     inkscape:window-width="1181"
     inkscape:window-height="816"
     id="namedview8"
     showgrid="false"
     inkscape:zoom="34.375"
     inkscape:cx="12"
     inkscape:cy="12"
     inkscape:window-x="0"
     inkscape:window-y="0"
     inkscape:window-maximized="0"
     inkscape:current-layer="svg6" />
  <circle
     style="fill:#676767"
     cx="12"
     cy="12"
     r="10"
     id="circle2" />
  <path
     style="fill:#ffffff"
     d="M 12,5 C 10.139634,5 8.713731,5.8671075 8.5234375,8 H 10.043946 C 10.243785,6.8877625 11.120993,6.5 12,6.5 c 1.000001,0 2,0.5 2,2 V 10 H 12 10 8.5 7.833008 C 7.3713415,10 7,10.374753 7,10.84961 v 5.292968 C 7,16.617435 7.3713415,17 7.833008,17 h 8.333984 C 16.628658,17 17,16.617435 17,16.142578 V 10.84961 C 17,10.374753 16.628658,10 16.166992,10 H 15.5 V 8.5 C 15.5,6.000006 14.000001,5 12,5 Z"
     id="path4" />
</svg>
