<?xml version="1.0" encoding="UTF-8" standalone="no"?>
<svg
   xmlns:dc="http://purl.org/dc/elements/1.1/"
   xmlns:cc="http://creativecommons.org/ns#"
   xmlns:rdf="http://www.w3.org/1999/02/22-rdf-syntax-ns#"
   xmlns:svg="http://www.w3.org/2000/svg"
   xmlns="http://www.w3.org/2000/svg"
   xmlns:sodipodi="http://sodipodi.sourceforge.net/DTD/sodipodi-0.dtd"
   xmlns:inkscape="http://www.inkscape.org/namespaces/inkscape"
   width="24"
   height="24"
   version="1.1"
   id="svg6"
   sodipodi:docname="emblem-locked.svg"
   inkscape:version="1.0.2 (e86c870879, 2021-01-15)">
  <metadata
     id="metadata12">
    <rdf:RDF>
      <cc:Work
         rdf:about="">
        <dc:format>image/svg+xml</dc:format>
        <dc:type
           rdf:resource="http://purl.org/dc/dcmitype/StillImage" />
        <dc:title></dc:title>
      </cc:Work>
    </rdf:RDF>
  </metadata>
  <defs
     id="defs10" />
  <sodipodi:namedview
     pagecolor="#ffffff"
     bordercolor="#666666"
     borderopacity="1"
     objecttolerance="10"
     gridtolerance="10"
     guidetolerance="10"
     inkscape:pageopacity="0"
     inkscape:pageshadow="2"
     inkscape:window-width="1259"
     inkscape:window-height="921"
     id="namedview8"
     showgrid="false"
     inkscape:zoom="34.375"
     inkscape:cx="12"
     inkscape:cy="12"
     inkscape:window-x="0"
     inkscape:window-y="0"
     inkscape:window-maximized="0"
     inkscape:current-layer="svg6" />
  <circle
     style="fill:#676767"
     cx="12"
     cy="12"
     r="10"
     id="circle2" />
  <path
     style="fill:#ffffff"
     d="m 11.999999,5.0000005 c -2,0 -3.5,1.000003 -3.5,3.499997 V 9.999998 H 7.8333325 C 7.371666,9.999998 6.999999,10.375144 6.999999,10.85 v 5.292857 C 6.999999,16.617714 7.371666,17 7.8333325,17 h 8.3333335 c 0.461666,0 0.833333,-0.382286 0.833333,-0.857143 v -5.292856 c 0,-0.474857 -0.371667,-0.850003 -0.833333,-0.850003 H 15.5 V 8.4999975 c 0,-2.499994 -1.5,-3.499997 -3.500001,-3.499997 z m 0,1.5 C 13,6.5000005 14,6.9999975 14,8.4999975 V 9.999998 H 9.999999 V 8.4999975 c 0,-1.5 1,-1.999997 2,-1.999997 z"
     id="path4" />
</svg>
