<?xml version="1.0" encoding="UTF-8" standalone="no"?>
<svg
   xmlns:dc="http://purl.org/dc/elements/1.1/"
   xmlns:cc="http://creativecommons.org/ns#"
   xmlns:rdf="http://www.w3.org/1999/02/22-rdf-syntax-ns#"
   xmlns:svg="http://www.w3.org/2000/svg"
   xmlns="http://www.w3.org/2000/svg"
   xmlns:sodipodi="http://sodipodi.sourceforge.net/DTD/sodipodi-0.dtd"
   xmlns:inkscape="http://www.inkscape.org/namespaces/inkscape"
   width="24"
   height="24"
   version="1.1"
   id="svg6"
   sodipodi:docname="emblem-shared.svg"
   inkscape:version="1.0.2 (e86c870879, 2021-01-15)">
  <metadata
     id="metadata12">
    <rdf:RDF>
      <cc:Work
         rdf:about="">
        <dc:format>image/svg+xml</dc:format>
        <dc:type
           rdf:resource="http://purl.org/dc/dcmitype/StillImage" />
        <dc:title></dc:title>
      </cc:Work>
    </rdf:RDF>
  </metadata>
  <defs
     id="defs10" />
  <sodipodi:namedview
     pagecolor="#ffffff"
     bordercolor="#666666"
     borderopacity="1"
     objecttolerance="10"
     gridtolerance="10"
     guidetolerance="10"
     inkscape:pageopacity="0"
     inkscape:pageshadow="2"
     inkscape:window-width="1309"
     inkscape:window-height="932"
     id="namedview8"
     showgrid="false"
     inkscape:zoom="34.375"
     inkscape:cx="12"
     inkscape:cy="12"
     inkscape:window-x="0"
     inkscape:window-y="0"
     inkscape:window-maximized="0"
     inkscape:current-layer="svg6" />
  <circle
     style="fill:#676767"
     cx="12"
     cy="12"
     r="10"
     id="circle2" />
  <path
     style="fill:#ffffff"
     d="m 13.905511,6.5737185 a 2,2 0 0 0 -1.6377,0.99805 2,2 0 0 0 -0.193361,1.5342 L 9.4269995,10.635268 A 2,2 0 0 0 8,10.035768 a 2,2 0 0 0 -2,2 2,2 0 0 0 2,2 2,2 0 0 0 1.4258005,-0.5996 l 2.6474505,1.5293 a 2,2 0 0 0 0.194,1.534 2,2 0 0 0 2.7325,0.7325 2,2 0 0 0 0.7325,-2.7325 2,2 0 0 0 -2.7325,-0.7315 2,2 0 0 0 -0.427,0.331 l -2.6480005,-1.5285 a 2,2 0 0 0 0.075,-0.535 2,2 0 0 0 -0.073,-0.535 L 12.574201,9.9721685 a 2,2 0 0 0 0.4255,0.3309995 2,2 0 0 0 2.7325,-0.7314995 2,2 0 0 0 -0.7325,-2.7325 2,2 0 0 0 -1.0945,-0.2655 z"
     id="path4" />
</svg>
