<?xml version="1.0" encoding="UTF-8" standalone="no"?>
<svg
   xmlns:dc="http://purl.org/dc/elements/1.1/"
   xmlns:cc="http://creativecommons.org/ns#"
   xmlns:rdf="http://www.w3.org/1999/02/22-rdf-syntax-ns#"
   xmlns:svg="http://www.w3.org/2000/svg"
   xmlns="http://www.w3.org/2000/svg"
   xmlns:sodipodi="http://sodipodi.sourceforge.net/DTD/sodipodi-0.dtd"
   xmlns:inkscape="http://www.inkscape.org/namespaces/inkscape"
   width="24"
   height="24"
   version="1.1"
   id="svg6"
   sodipodi:docname="emblem-system.svg"
   inkscape:version="1.0.2 (e86c870879, 2021-01-15)">
  <metadata
     id="metadata12">
    <rdf:RDF>
      <cc:Work
         rdf:about="">
        <dc:format>image/svg+xml</dc:format>
        <dc:type
           rdf:resource="http://purl.org/dc/dcmitype/StillImage" />
        <dc:title></dc:title>
      </cc:Work>
    </rdf:RDF>
  </metadata>
  <defs
     id="defs10" />
  <sodipodi:namedview
     pagecolor="#ffffff"
     bordercolor="#666666"
     borderopacity="1"
     objecttolerance="10"
     gridtolerance="10"
     guidetolerance="10"
     inkscape:pageopacity="0"
     inkscape:pageshadow="2"
     inkscape:window-width="1192"
     inkscape:window-height="849"
     id="namedview8"
     showgrid="false"
     inkscape:zoom="34.375"
     inkscape:cx="12"
     inkscape:cy="12"
     inkscape:window-x="0"
     inkscape:window-y="0"
     inkscape:window-maximized="0"
     inkscape:current-layer="svg6" />
  <circle
     style="fill:#676767"
     cx="12"
     cy="12"
     r="10"
     id="circle2" />
  <path
     style="fill:#ffffff"
     d="m 10.5,5 0,1.709961 A 5.5000005,5.5000005 0 0 0 9.324219,7.2021485 L 8.111328,5.989258 5.989258,8.111328 7.199219,9.321289 A 5.5000005,5.5000005 0 0 0 6.713867,10.5 L 5,10.5 l 0,3 1.709961,0 a 5.5000005,5.5000005 0 0 0 0.4921875,1.175781 l -1.2128905,1.212891 2.12207,2.12207 1.209961,-1.209961 A 5.5000005,5.5000005 0 0 0 10.5,17.286133 L 10.5,19 l 3,0 0,-1.709961 a 5.5000005,5.5000005 0 0 0 1.175781,-0.492188 l 1.212891,1.212891 2.12207,-2.12207 -1.209961,-1.209961 A 5.5000005,5.5000005 0 0 0 17.286133,13.5 L 19,13.5 l 0,-3 -1.709961,0 A 5.5000005,5.5000005 0 0 0 16.797851,9.324219 l 1.212891,-1.212891 -2.12207,-2.12207 -1.209961,1.209961 A 5.5000005,5.5000005 0 0 0 13.5,6.713867 L 13.5,5 10.5,5 Z M 12,9.5 A 2.5,2.5 0 0 1 14.5,12 2.5,2.5 0 0 1 12,14.5 2.5,2.5 0 0 1 9.5,12 2.5,2.5 0 0 1 12,9.5 Z"
     id="path4" />
</svg>
