<?xml version="1.0" encoding="UTF-8" standalone="no"?>
<svg
   xmlns:dc="http://purl.org/dc/elements/1.1/"
   xmlns:cc="http://creativecommons.org/ns#"
   xmlns:rdf="http://www.w3.org/1999/02/22-rdf-syntax-ns#"
   xmlns:svg="http://www.w3.org/2000/svg"
   xmlns="http://www.w3.org/2000/svg"
   xmlns:xlink="http://www.w3.org/1999/xlink"
   xmlns:sodipodi="http://sodipodi.sourceforge.net/DTD/sodipodi-0.dtd"
   xmlns:inkscape="http://www.inkscape.org/namespaces/inkscape"
   width="64"
   height="64"
   version="1.1"
   viewBox="0 0 16.933 16.933"
   id="svg56"
   sodipodi:docname="folder-gitkraken.svg"
   inkscape:version="1.0.2 (e86c870879, 2021-01-15)">
  <sodipodi:namedview
     pagecolor="#ffffff"
     bordercolor="#666666"
     borderopacity="1"
     objecttolerance="10"
     gridtolerance="10"
     guidetolerance="10"
     inkscape:pageopacity="0"
     inkscape:pageshadow="2"
     inkscape:window-width="1920"
     inkscape:window-height="996"
     id="namedview58"
     showgrid="false"
     inkscape:zoom="12.890625"
     inkscape:cx="32"
     inkscape:cy="35.10303"
     inkscape:window-x="0"
     inkscape:window-y="0"
     inkscape:window-maximized="1"
     inkscape:current-layer="svg56"
     inkscape:document-rotation="0" />
  <defs
     id="defs18">
    <linearGradient
       id="linearGradient1064"
       x1="-15.961"
       x2="-.30109"
       y1="-43.254"
       y2="-54.196"
       gradientTransform="matrix(1 0 0 1.1 16.669 62.435)"
       gradientUnits="userSpaceOnUse">
      <stop
         stop-color="#3c3c3c"
         offset="0"
         id="stop2" />
      <stop
         stop-color="#646464"
         offset="1"
         id="stop4" />
    </linearGradient>
    <linearGradient
       id="linearGradient992"
       x1="-16.14"
       x2="-1.0699"
       y1="-55.616"
       y2="-44.835"
       gradientTransform="matrix(1 0 0 1.1 16.669 62.435)"
       gradientUnits="userSpaceOnUse">
      <stop
         stop-color="#3c3c3c"
         offset="0"
         id="stop7" />
      <stop
         stop-color="#646464"
         offset="1"
         id="stop9" />
    </linearGradient>
    <linearGradient
       id="linearGradient1006"
       x1=".52939"
       x2="16.217"
       y1="2.7784"
       y2="14.872"
       gradientTransform="matrix(1,0,0,1.1,16.669,62.435)"
       gradientUnits="userSpaceOnUse">
      <stop
         stop-color="#3c3c3c"
         offset="0"
         id="stop12" />
      <stop
         stop-color="#646464"
         offset="1"
         id="stop14" />
    </linearGradient>
    <linearGradient
       id="linearGradient939"
       x1="-16.14"
       x2="-1.0699"
       y1="-55.616"
       y2="-44.835"
       gradientTransform="matrix(1,0,0,1.1,16.669,62.435)"
       gradientUnits="userSpaceOnUse"
       xlink:href="#linearGradient992" />
  </defs>
  <metadata
     id="metadata20">
    <rdf:RDF>
      <cc:Work
         rdf:about="">
        <dc:format>image/svg+xml</dc:format>
        <dc:type
           rdf:resource="http://purl.org/dc/dcmitype/StillImage" />
        <dc:title></dc:title>
      </cc:Work>
    </rdf:RDF>
  </metadata>
  <g
     fill="#5e4aa6"
     stroke-width=".26458"
     id="g30">
    <circle
       cx="-330.35"
       cy="-328.38"
       r="0"
       id="circle22" />
    <circle
       cx="-312.11"
       cy="-326.25"
       r="0"
       id="circle24" />
    <circle
       cx="-306.02"
       cy="-333.07"
       r="0"
       id="circle26" />
    <circle
       cx="-308.84"
       cy="-326.01"
       r="0"
       id="circle28" />
  </g>
  <g
     transform="translate(.000295 -.00032978)"
     fill="#5e4aa6"
     stroke-width=".26458"
     id="g42">
    <circle
       cx="-330.35"
       cy="-328.38"
       r="0"
       id="circle32" />
    <circle
       cx="-312.11"
       cy="-326.25"
       r="0"
       id="circle34" />
    <circle
       cx="-306.02"
       cy="-333.07"
       r="0"
       id="circle36" />
    <circle
       cx="-308.84"
       cy="-326.01"
       r="0"
       id="circle38" />
    <circle
       cx="-328.8"
       cy="-330.45"
       r="0"
       id="circle40" />
  </g>
  <g
     transform="translate(.000295 -.00032978)"
     id="g52"
     style="fill:#123354">
    <g
       transform="matrix(1,0,0,1.1,16.669,63.956)"
       fill="url(#linearGradient939)"
       stroke-width=".66145"
       id="g46"
       style="fill:#29292a">
      <path
         d="m-8.2026-51.317h-7.9373v-3.6379c0-0.36531 0.29614-0.66144 0.66144-0.66144h5.6223l1.6536 1.3229z"
         fill="url(#linearGradient939)"
         id="path44"
         style="fill:#29292a" />
    </g>
    <rect
       x=".52939"
       y="4.2333"
       width="15.874"
       height="10.848"
       ry=".79373"
       fill="url(#linearGradient1006)"
       id="rect48"
       style="fill:#29292a" />
    <rect
       x=".97311"
       y="4.6963"
       width="14.987"
       height="9.9217"
       ry=".29919"
       fill="#fffffc"
       id="rect50"
       style="fill:#f2f2f2;opacity:0.85" />
  </g>
  <path
     d="m15.742 4.2329h-7.2759l-1.6536 1.4552h-5.6223c-0.36531 0-0.66144 0.32575-0.66144 0.72759v7.9373c0 0.40184 0.29614 0.72759 0.66144 0.72759h14.552c0.36531 0 0.66145-0.32575 0.66145-0.72759v-9.3926c0-0.40184-0.29614-0.72759-0.66145-0.72759z"
     fill="url(#linearGradient1064)"
     stroke-width=".69373"
     id="path54"
     style="fill:#586570" />
  <path
     style="opacity:1;fill:#ffffff;stroke-width:0.157226"
     d="m 11.052514,9.1295823 c -0.39116,0.4948863 -0.593222,0.8946337 -0.593222,1.1724167 0,0.184155 0.01694,0.213567 0.182409,0.319476 0.282852,0.247054 0.232025,0.477026 0.298488,0.802609 -0.09108,0 -0.160195,0.154312 -0.160195,0.308625 0,0.154313 0.0733,0.308626 0.160195,0.308626 l -3.2e-4,0.315558 C 10.221314,11.957565 9.8185039,11.211769 9.8185039,10.35203 c 0,-0.9204806 0.5534251,-1.6404322 1.3572771,-2.0140506 H 10.315046 V 8.3376708 C 9.7163864,8.8459831 9.3379189,9.5189895 9.3379189,10.351722 c 0,1.124898 0.6083818,2.087372 1.6019501,2.525066 l 0.04631,0.0217 c 0.138912,0.05829 0.284976,0.103076 0.434279,0.140148 v 0.471679 C 9.8798322,13.18472 8.8607953,11.871523 8.8570285,10.35203 c 4.966e-4,-0.313629 0.04823,-0.6336 0.141735,-0.9340151 H 8.5019086 C 8.4197592,9.7203346 8.3775018,10.039526 8.3764434,10.35203 c 7.69e-4,1.955277 1.498933,3.57317 3.5246026,3.695374 v -1.543733 c 8.1e-5,1.3e-5 2.41e-4,-1.2e-5 3.21e-4,0 l -8e-6,5.84e-4 c 0.04021,-8.75e-4 0.0998,0.002 0.15957,0.0036 4.64e-4,-1.3e-5 7.87e-4,1.3e-5 0.0013,0 0.05978,-0.0016 0.119365,-0.0045 0.159571,-0.0036 v -5.84e-4 c 8.1e-5,-1.2e-5 2.41e-4,1.3e-5 3.21e-4,0 v 1.543733 c 2.025663,-0.122205 3.523828,-1.740098 3.524596,-3.695375 -10e-4,-0.312504 -0.04332,-0.6316954 -0.125466,-0.934015 h -0.496876 c 0.09351,0.3004151 0.141238,0.620386 0.141735,0.934015 -0.0038,1.519493 -1.022811,2.832698 -2.563433,3.158292 v -0.471678 c 0.149302,-0.03707 0.295367,-0.08186 0.434278,-0.140147 l 0.04631,-0.0217 c 0.993568,-0.437693 1.60195,-1.400168 1.60195,-2.525066 0,-0.8327322 -0.378468,-1.5057458 -0.977127,-2.0140582 v 3.086e-4 H 12.94732 c 0.803852,0.3736184 1.357278,1.0935773 1.357278,2.0140586 0,0.859738 -0.402811,1.605534 -1.121365,2.004863 l -3.13e-4,-0.315566 c 0.08689,0 0.160195,-0.154312 0.160195,-0.308625 0,-0.154314 -0.06912,-0.308626 -0.160195,-0.308626 0.06646,-0.325583 0.01564,-0.555555 0.298488,-0.802609 0.165475,-0.105909 0.18241,-0.135321 0.18241,-0.319476 0,-0.277783 -0.202063,-0.6775304 -0.593223,-1.1724167 -0.254142,-0.3214207 -0.528455,-0.7917572 -1.009041,-0.7917572 -0.480584,0 -0.793047,0.5286687 -1.00904,0.7917574 z m 0.288163,2.4488137 c 0.132711,0 0.24028,0.10362 0.240293,0.23147 -1.3e-5,0.12785 -0.107582,0.231469 -0.240293,0.231469 -0.132711,0 -0.24028,-0.10362 -0.240292,-0.231469 1.2e-5,-0.12785 0.107581,-0.23147 0.240292,-0.23147 z m 1.441755,0 c 0.132711,0 0.240281,0.10362 0.240293,0.23147 -1.2e-5,0.127849 -0.107582,0.231469 -0.240293,0.231469 -0.13271,0 -0.24028,-0.103619 -0.240292,-0.231469 1.2e-5,-0.12785 0.107582,-0.23147 0.240292,-0.23147 z"
     id="path8" />
</svg>
