<?xml version="1.0" encoding="UTF-8" standalone="no"?>
<svg
   xmlns:dc="http://purl.org/dc/elements/1.1/"
   xmlns:cc="http://creativecommons.org/ns#"
   xmlns:rdf="http://www.w3.org/1999/02/22-rdf-syntax-ns#"
   xmlns:svg="http://www.w3.org/2000/svg"
   xmlns="http://www.w3.org/2000/svg"
   xmlns:xlink="http://www.w3.org/1999/xlink"
   xmlns:sodipodi="http://sodipodi.sourceforge.net/DTD/sodipodi-0.dtd"
   xmlns:inkscape="http://www.inkscape.org/namespaces/inkscape"
   width="64"
   height="64"
   version="1.1"
   viewBox="0 0 16.933 16.933"
   id="svg56"
   sodipodi:docname="folder-torrent.svg"
   inkscape:version="1.0.2 (e86c870879, 2021-01-15)">
  <sodipodi:namedview
     pagecolor="#ffffff"
     bordercolor="#666666"
     borderopacity="1"
     objecttolerance="10"
     gridtolerance="10"
     guidetolerance="10"
     inkscape:pageopacity="0"
     inkscape:pageshadow="2"
     inkscape:window-width="1502"
     inkscape:window-height="856"
     id="namedview58"
     showgrid="false"
     inkscape:zoom="12.890625"
     inkscape:cx="32"
     inkscape:cy="41.309091"
     inkscape:window-x="162"
     inkscape:window-y="105"
     inkscape:window-maximized="0"
     inkscape:current-layer="svg56"
     inkscape:document-rotation="0" />
  <defs
     id="defs18">
    <linearGradient
       id="linearGradient1064"
       x1="-15.961"
       x2="-.30109"
       y1="-43.254"
       y2="-54.196"
       gradientTransform="matrix(1 0 0 1.1 16.669 62.435)"
       gradientUnits="userSpaceOnUse">
      <stop
         stop-color="#3c3c3c"
         offset="0"
         id="stop2" />
      <stop
         stop-color="#646464"
         offset="1"
         id="stop4" />
    </linearGradient>
    <linearGradient
       id="linearGradient992"
       x1="-16.14"
       x2="-1.0699"
       y1="-55.616"
       y2="-44.835"
       gradientTransform="matrix(1 0 0 1.1 16.669 62.435)"
       gradientUnits="userSpaceOnUse">
      <stop
         stop-color="#3c3c3c"
         offset="0"
         id="stop7" />
      <stop
         stop-color="#646464"
         offset="1"
         id="stop9" />
    </linearGradient>
    <linearGradient
       id="linearGradient1006"
       x1=".52939"
       x2="16.217"
       y1="2.7784"
       y2="14.872"
       gradientTransform="matrix(1,0,0,1.1,16.669,62.435)"
       gradientUnits="userSpaceOnUse">
      <stop
         stop-color="#3c3c3c"
         offset="0"
         id="stop12" />
      <stop
         stop-color="#646464"
         offset="1"
         id="stop14" />
    </linearGradient>
    <linearGradient
       id="linearGradient939"
       x1="-16.14"
       x2="-1.0699"
       y1="-55.616"
       y2="-44.835"
       gradientTransform="matrix(1,0,0,1.1,16.669,62.435)"
       gradientUnits="userSpaceOnUse"
       xlink:href="#linearGradient992" />
  </defs>
  <metadata
     id="metadata20">
    <rdf:RDF>
      <cc:Work
         rdf:about="">
        <dc:format>image/svg+xml</dc:format>
        <dc:type
           rdf:resource="http://purl.org/dc/dcmitype/StillImage" />
        <dc:title />
      </cc:Work>
    </rdf:RDF>
  </metadata>
  <g
     fill="#5e4aa6"
     stroke-width=".26458"
     id="g30">
    <circle
       cx="-330.35"
       cy="-328.38"
       r="0"
       id="circle22" />
    <circle
       cx="-312.11"
       cy="-326.25"
       r="0"
       id="circle24" />
    <circle
       cx="-306.02"
       cy="-333.07"
       r="0"
       id="circle26" />
    <circle
       cx="-308.84"
       cy="-326.01"
       r="0"
       id="circle28" />
  </g>
  <g
     transform="translate(.000295 -.00032978)"
     fill="#5e4aa6"
     stroke-width=".26458"
     id="g42">
    <circle
       cx="-330.35"
       cy="-328.38"
       r="0"
       id="circle32" />
    <circle
       cx="-312.11"
       cy="-326.25"
       r="0"
       id="circle34" />
    <circle
       cx="-306.02"
       cy="-333.07"
       r="0"
       id="circle36" />
    <circle
       cx="-308.84"
       cy="-326.01"
       r="0"
       id="circle38" />
    <circle
       cx="-328.8"
       cy="-330.45"
       r="0"
       id="circle40" />
  </g>
  <g
     transform="translate(.000295 -.00032978)"
     id="g52"
     style="fill:#123354">
    <g
       transform="matrix(1,0,0,1.1,16.669,63.956)"
       fill="url(#linearGradient939)"
       stroke-width=".66145"
       id="g46"
       style="fill:#29292a">
      <path
         d="m-8.2026-51.317h-7.9373v-3.6379c0-0.36531 0.29614-0.66144 0.66144-0.66144h5.6223l1.6536 1.3229z"
         fill="url(#linearGradient939)"
         id="path44"
         style="fill:#29292a" />
    </g>
    <rect
       x=".52939"
       y="4.2333"
       width="15.874"
       height="10.848"
       ry=".79373"
       fill="url(#linearGradient1006)"
       id="rect48"
       style="fill:#29292a" />
    <rect
       x=".97311"
       y="4.6963"
       width="14.987"
       height="9.9217"
       ry=".29919"
       fill="#fffffc"
       id="rect50"
       style="fill:#f2f2f2;opacity:0.85" />
  </g>
  <path
     d="m15.742 4.2329h-7.2759l-1.6536 1.4552h-5.6223c-0.36531 0-0.66144 0.32575-0.66144 0.72759v7.9373c0 0.40184 0.29614 0.72759 0.66144 0.72759h14.552c0.36531 0 0.66145-0.32575 0.66145-0.72759v-9.3926c0-0.40184-0.29614-0.72759-0.66145-0.72759z"
     fill="url(#linearGradient1064)"
     stroke-width=".69373"
     id="path54"
     style="fill:#586570" />
  <path
     style="fill:#ffffff;stroke-width:0.237263"
     d="m 9.506423,8.5490911 a 2.8954963,2.7996296 0 0 0 -2.8954962,2.7996299 2.8954963,2.7996296 0 0 0 2.8954962,2.79963 h 6.032284 V 13.681745 H 11.103565 9.506423 A 2.4129136,2.3330247 0 0 1 7.0935095,11.348721 2.4129136,2.3330247 0 0 1 9.506423,9.015696 Z m 0,0.6999073 c -1.1993538,0 -2.1716222,0.9400776 -2.1716222,2.0997226 0,1.159644 0.9722684,2.099722 2.1716222,2.099722 h 6.032284 V 12.981838 H 9.506423 c -0.9328306,0 -1.6890394,-0.731172 -1.6890394,-1.633117 0,-0.901946 0.7562088,-1.6331176 1.6890394,-1.6331176 0.2505744,7.465e-4 0.49784,0.055369 0.723874,0.1599398 V 9.3715735 C 9.9979601,9.2912495 9.7531642,9.249798 9.506423,9.2489984 Z m 0,0.6999075 A 1.4477481,1.3998148 0 0 0 8.0586749,11.348721 1.4477481,1.3998148 0 0 0 9.506423,12.748536 h 6.032284 V 12.281931 H 9.506423 a 0.96516545,0.93320988 0 0 1 -0.9651654,-0.93321 0.96516545,0.93320988 0 0 1 0.9651654,-0.93321 0.96516545,0.93320988 0 0 1 0.834623,0.466605 h 0.528296 A 1.4477481,1.3998148 0 0 0 9.506423,9.9489059 Z"
     id="path14-3" />
</svg>
