<?xml version="1.0" encoding="UTF-8" standalone="no"?>
<svg
   xmlns:dc="http://purl.org/dc/elements/1.1/"
   xmlns:cc="http://creativecommons.org/ns#"
   xmlns:rdf="http://www.w3.org/1999/02/22-rdf-syntax-ns#"
   xmlns:svg="http://www.w3.org/2000/svg"
   xmlns="http://www.w3.org/2000/svg"
   xmlns:xlink="http://www.w3.org/1999/xlink"
   xmlns:sodipodi="http://sodipodi.sourceforge.net/DTD/sodipodi-0.dtd"
   xmlns:inkscape="http://www.inkscape.org/namespaces/inkscape"
   width="64"
   height="64"
   version="1.1"
   viewBox="0 0 16.933 16.933"
   id="svg56"
   sodipodi:docname="folder-lightworks.svg"
   inkscape:version="1.0.2 (e86c870879, 2021-01-15)">
  <sodipodi:namedview
     pagecolor="#ffffff"
     bordercolor="#666666"
     borderopacity="1"
     objecttolerance="10"
     gridtolerance="10"
     guidetolerance="10"
     inkscape:pageopacity="0"
     inkscape:pageshadow="2"
     inkscape:window-width="1502"
     inkscape:window-height="856"
     id="namedview58"
     showgrid="false"
     inkscape:zoom="12.890625"
     inkscape:cx="32"
     inkscape:cy="41.309091"
     inkscape:window-x="418"
     inkscape:window-y="103"
     inkscape:window-maximized="0"
     inkscape:current-layer="svg56"
     inkscape:document-rotation="0" />
  <defs
     id="defs18">
    <linearGradient
       id="linearGradient1064"
       x1="-15.961"
       x2="-.30109"
       y1="-43.254"
       y2="-54.196"
       gradientTransform="matrix(1 0 0 1.1 16.669 62.435)"
       gradientUnits="userSpaceOnUse">
      <stop
         stop-color="#3c3c3c"
         offset="0"
         id="stop2" />
      <stop
         stop-color="#646464"
         offset="1"
         id="stop4" />
    </linearGradient>
    <linearGradient
       id="linearGradient992"
       x1="-16.14"
       x2="-1.0699"
       y1="-55.616"
       y2="-44.835"
       gradientTransform="matrix(1 0 0 1.1 16.669 62.435)"
       gradientUnits="userSpaceOnUse">
      <stop
         stop-color="#3c3c3c"
         offset="0"
         id="stop7" />
      <stop
         stop-color="#646464"
         offset="1"
         id="stop9" />
    </linearGradient>
    <linearGradient
       id="linearGradient1006"
       x1=".52939"
       x2="16.217"
       y1="2.7784"
       y2="14.872"
       gradientTransform="matrix(1,0,0,1.1,16.669,62.435)"
       gradientUnits="userSpaceOnUse">
      <stop
         stop-color="#3c3c3c"
         offset="0"
         id="stop12" />
      <stop
         stop-color="#646464"
         offset="1"
         id="stop14" />
    </linearGradient>
    <linearGradient
       id="linearGradient939"
       x1="-16.14"
       x2="-1.0699"
       y1="-55.616"
       y2="-44.835"
       gradientTransform="matrix(1,0,0,1.1,16.669,62.435)"
       gradientUnits="userSpaceOnUse"
       xlink:href="#linearGradient992" />
  </defs>
  <metadata
     id="metadata20">
    <rdf:RDF>
      <cc:Work
         rdf:about="">
        <dc:format>image/svg+xml</dc:format>
        <dc:type
           rdf:resource="http://purl.org/dc/dcmitype/StillImage" />
        <dc:title />
      </cc:Work>
    </rdf:RDF>
  </metadata>
  <g
     fill="#5e4aa6"
     stroke-width=".26458"
     id="g30">
    <circle
       cx="-330.35"
       cy="-328.38"
       r="0"
       id="circle22" />
    <circle
       cx="-312.11"
       cy="-326.25"
       r="0"
       id="circle24" />
    <circle
       cx="-306.02"
       cy="-333.07"
       r="0"
       id="circle26" />
    <circle
       cx="-308.84"
       cy="-326.01"
       r="0"
       id="circle28" />
  </g>
  <g
     transform="translate(.000295 -.00032978)"
     fill="#5e4aa6"
     stroke-width=".26458"
     id="g42">
    <circle
       cx="-330.35"
       cy="-328.38"
       r="0"
       id="circle32" />
    <circle
       cx="-312.11"
       cy="-326.25"
       r="0"
       id="circle34" />
    <circle
       cx="-306.02"
       cy="-333.07"
       r="0"
       id="circle36" />
    <circle
       cx="-308.84"
       cy="-326.01"
       r="0"
       id="circle38" />
    <circle
       cx="-328.8"
       cy="-330.45"
       r="0"
       id="circle40" />
  </g>
  <g
     transform="translate(.000295 -.00032978)"
     id="g52"
     style="fill:#123354">
    <g
       transform="matrix(1,0,0,1.1,16.669,63.956)"
       fill="url(#linearGradient939)"
       stroke-width=".66145"
       id="g46"
       style="fill:#29292a">
      <path
         d="m-8.2026-51.317h-7.9373v-3.6379c0-0.36531 0.29614-0.66144 0.66144-0.66144h5.6223l1.6536 1.3229z"
         fill="url(#linearGradient939)"
         id="path44"
         style="fill:#29292a" />
    </g>
    <rect
       x=".52939"
       y="4.2333"
       width="15.874"
       height="10.848"
       ry=".79373"
       fill="url(#linearGradient1006)"
       id="rect48"
       style="fill:#29292a" />
    <rect
       x=".97311"
       y="4.6963"
       width="14.987"
       height="9.9217"
       ry=".29919"
       fill="#fffffc"
       id="rect50"
       style="fill:#f2f2f2;opacity:0.85" />
  </g>
  <path
     d="m15.742 4.2329h-7.2759l-1.6536 1.4552h-5.6223c-0.36531 0-0.66144 0.32575-0.66144 0.72759v7.9373c0 0.40184 0.29614 0.72759 0.66144 0.72759h14.552c0.36531 0 0.66145-0.32575 0.66145-0.72759v-9.3926c0-0.40184-0.29614-0.72759-0.66145-0.72759z"
     fill="url(#linearGradient1064)"
     stroke-width=".69373"
     id="path54"
     style="fill:#586570" />
  <path
     style="fill:#586570;fill-rule:evenodd;stroke-width:0.12334"
     d="m 15.60193,11.286658 c -0.661404,0.399908 -1.318832,0.654543 -1.887248,0.817904 -0.02356,0.008 -0.04992,0.01825 -0.07265,0.02556 -0.746026,0.239867 -1.27279,1.103434 -1.27279,1.103434 l -0.04132,0.415598 c 0.06694,0.03277 0.693871,0.322059 1.52594,9.74e-4 0.834883,-0.322117 1.664145,-1.470275 1.748073,-1.600823 z"
     id="path26" />
  <path
     style="fill:#ffffff;fill-rule:evenodd;stroke-width:0.12334"
     d="m 14.78586,11.695881 c 0,0 -0.009,0.0015 -0.0091,0.0016 -1.616022,0.333602 -2.758772,0.477265 -2.758772,0.477265 0,0 -0.519219,0.188448 -0.982406,0.07766 l 0.463163,0.758078 0.146214,-0.471573 0.321945,0.521158 0.226586,-0.537771 0.511977,0.570743 0.182995,-0.653301 0.482688,0.521158 0.23408,-0.71132 0.365762,0.446524 0.226587,-0.653301 0.402316,0.314127 0.175502,-0.625713 z"
     id="path32" />
  <path
     style="fill:#ffffff;fill-rule:evenodd;stroke-width:0.12334"
     d="m 14.593556,12.474694 -0.06743,0.503011 -0.330798,-0.263262 -0.01566,0.584801 -0.434329,-0.345053 -0.06221,0.649211 -0.470428,-0.456237 -0.134636,0.532404 -0.372346,-0.485631 -0.222273,0.415343 -0.191395,-0.497133 -0.164151,0.37368 c 0.02038,0.02449 -0.05235,0.151115 -0.03163,0.174141 0.05173,0.04514 0.01855,0.15955 0.01855,0.15955 0,0 0.953686,0.396254 1.832888,0.05703 0.445997,-0.172079 0.886479,-0.823357 1.216485,-1.217561 -0.01269,-0.0056 -0.117285,-0.02718 -0.131074,-0.03222 z"
     id="path34" />
  <path
     style="fill:#ffffff;stroke-width:0.12334"
     d="M 15.161337,7.4670058 C 14.90669,7.5599915 11.706997,8.8045581 10.628673,9.4538817 9.502319,10.132125 9.4847511,10.37995 9.6164028,10.743886 c 0.1316519,0.363936 0.5293492,0.560095 0.7341412,1.105998 0.204791,0.545904 1.667501,0.495247 1.667501,0.495247 0,0 1.780014,0.06878 3.583885,-1.021906 V 8.0003453 c 0,-0.2029999 0.02175,-0.2778626 -0.108843,-0.3653797 z m 0.440593,4.5640222 c 0,0 -1.407959,1.837669 -2.777154,1.884475 -0.291205,0.0056 -0.548224,-0.150286 -0.69707,-0.429508 0,0 -0.116982,0.02057 -0.09504,0.202537 0.112185,0.645199 1.07857,0.746871 1.314992,0.750436 0.534218,-0.0017 1.26726,-0.168368 2.254272,-0.679585 z"
     id="path36"
     sodipodi:nodetypes="csssccsccccccccc" />
  <ellipse
     style="fill:#586570;stroke-width:0.12334"
     cx="14.439465"
     cy="10.251245"
     id="circle38-7"
     rx="0.46498558"
     ry="0.52346528" />
  <ellipse
     style="fill:#ffffff;stroke-width:0.12334"
     cx="14.265096"
     cy="10.054947"
     id="circle40-5"
     rx="0.17436959"
     ry="0.19629948" />
</svg>
