<?xml version="1.0" encoding="UTF-8" standalone="no"?>
<svg
   xmlns:dc="http://purl.org/dc/elements/1.1/"
   xmlns:cc="http://creativecommons.org/ns#"
   xmlns:rdf="http://www.w3.org/1999/02/22-rdf-syntax-ns#"
   xmlns:svg="http://www.w3.org/2000/svg"
   xmlns="http://www.w3.org/2000/svg"
   xmlns:xlink="http://www.w3.org/1999/xlink"
   xmlns:sodipodi="http://sodipodi.sourceforge.net/DTD/sodipodi-0.dtd"
   xmlns:inkscape="http://www.inkscape.org/namespaces/inkscape"
   width="64"
   height="64"
   version="1.1"
   viewBox="0 0 16.933 16.933"
   id="svg56"
   sodipodi:docname="folder-publicshare.svg"
   inkscape:version="1.0.2 (e86c870879, 2021-01-15)">
  <sodipodi:namedview
     pagecolor="#ffffff"
     bordercolor="#666666"
     borderopacity="1"
     objecttolerance="10"
     gridtolerance="10"
     guidetolerance="10"
     inkscape:pageopacity="0"
     inkscape:pageshadow="2"
     inkscape:window-width="1502"
     inkscape:window-height="860"
     id="namedview58"
     showgrid="false"
     inkscape:zoom="12.890625"
     inkscape:cx="32"
     inkscape:cy="32"
     inkscape:window-x="222"
     inkscape:window-y="136"
     inkscape:window-maximized="0"
     inkscape:current-layer="svg56"
     inkscape:document-rotation="0" />
  <defs
     id="defs18">
    <linearGradient
       id="linearGradient1064"
       x1="-15.961"
       x2="-.30109"
       y1="-43.254"
       y2="-54.196"
       gradientTransform="matrix(1 0 0 1.1 16.669 62.435)"
       gradientUnits="userSpaceOnUse">
      <stop
         stop-color="#3c3c3c"
         offset="0"
         id="stop2" />
      <stop
         stop-color="#646464"
         offset="1"
         id="stop4" />
    </linearGradient>
    <linearGradient
       id="linearGradient992"
       x1="-16.14"
       x2="-1.0699"
       y1="-55.616"
       y2="-44.835"
       gradientTransform="matrix(1 0 0 1.1 16.669 62.435)"
       gradientUnits="userSpaceOnUse">
      <stop
         stop-color="#3c3c3c"
         offset="0"
         id="stop7" />
      <stop
         stop-color="#646464"
         offset="1"
         id="stop9" />
    </linearGradient>
    <linearGradient
       id="linearGradient1006"
       x1=".52939"
       x2="16.217"
       y1="2.7784"
       y2="14.872"
       gradientTransform="matrix(1,0,0,1.1,16.669,62.435)"
       gradientUnits="userSpaceOnUse">
      <stop
         stop-color="#3c3c3c"
         offset="0"
         id="stop12" />
      <stop
         stop-color="#646464"
         offset="1"
         id="stop14" />
    </linearGradient>
    <linearGradient
       id="linearGradient939"
       x1="-16.14"
       x2="-1.0699"
       y1="-55.616"
       y2="-44.835"
       gradientTransform="matrix(1,0,0,1.1,16.669,62.435)"
       gradientUnits="userSpaceOnUse"
       xlink:href="#linearGradient992" />
  </defs>
  <metadata
     id="metadata20">
    <rdf:RDF>
      <cc:Work
         rdf:about="">
        <dc:format>image/svg+xml</dc:format>
        <dc:type
           rdf:resource="http://purl.org/dc/dcmitype/StillImage" />
        <dc:title />
      </cc:Work>
    </rdf:RDF>
  </metadata>
  <g
     fill="#5e4aa6"
     stroke-width=".26458"
     id="g30">
    <circle
       cx="-330.35"
       cy="-328.38"
       r="0"
       id="circle22" />
    <circle
       cx="-312.11"
       cy="-326.25"
       r="0"
       id="circle24" />
    <circle
       cx="-306.02"
       cy="-333.07"
       r="0"
       id="circle26" />
    <circle
       cx="-308.84"
       cy="-326.01"
       r="0"
       id="circle28" />
  </g>
  <g
     transform="translate(.000295 -.00032978)"
     fill="#5e4aa6"
     stroke-width=".26458"
     id="g42">
    <circle
       cx="-330.35"
       cy="-328.38"
       r="0"
       id="circle32" />
    <circle
       cx="-312.11"
       cy="-326.25"
       r="0"
       id="circle34" />
    <circle
       cx="-306.02"
       cy="-333.07"
       r="0"
       id="circle36" />
    <circle
       cx="-308.84"
       cy="-326.01"
       r="0"
       id="circle38" />
    <circle
       cx="-328.8"
       cy="-330.45"
       r="0"
       id="circle40" />
  </g>
  <g
     transform="translate(.000295 -.00032978)"
     id="g52"
     style="fill:#123354">
    <g
       transform="matrix(1,0,0,1.1,16.669,63.956)"
       fill="url(#linearGradient939)"
       stroke-width=".66145"
       id="g46"
       style="fill:#29292a">
      <path
         d="m-8.2026-51.317h-7.9373v-3.6379c0-0.36531 0.29614-0.66144 0.66144-0.66144h5.6223l1.6536 1.3229z"
         fill="url(#linearGradient939)"
         id="path44"
         style="fill:#29292a" />
    </g>
    <rect
       x=".52939"
       y="4.2333"
       width="15.874"
       height="10.848"
       ry=".79373"
       fill="url(#linearGradient1006)"
       id="rect48"
       style="fill:#29292a" />
    <rect
       x=".97311"
       y="4.6963"
       width="14.987"
       height="9.9217"
       ry=".29919"
       fill="#fffffc"
       id="rect50"
       style="fill:#f2f2f2;opacity:0.85" />
  </g>
  <path
     d="m15.742 4.2329h-7.2759l-1.6536 1.4552h-5.6223c-0.36531 0-0.66144 0.32575-0.66144 0.72759v7.9373c0 0.40184 0.29614 0.72759 0.66144 0.72759h14.552c0.36531 0 0.66145-0.32575 0.66145-0.72759v-9.3926c0-0.40184-0.29614-0.72759-0.66145-0.72759z"
     fill="url(#linearGradient1064)"
     stroke-width=".69373"
     id="path54"
     style="fill:#586570" />
  <path
     style="fill:#ffffff;stroke-width:0.365863"
     d="m 10.133467,8.9969629 c -0.02433,0.00574 -0.04864,0.015184 -0.07156,0.026579 -0.2273753,0.115057 -0.2862453,0.473502 -0.1307869,0.8053706 0.1251509,0.2669395 0.3475839,0.4324935 0.5495769,0.4271775 0.151583,0.887389 0.756859,1.549987 1.475998,1.549987 h 0.0056 c 0.719139,0 1.324415,-0.662598 1.475997,-1.549987 0.201642,0.0049 0.424433,-0.160238 0.549579,-0.4271775 0.155459,-0.3318686 0.09658,-0.6903179 -0.130787,-0.8053706 -0.02292,-0.011338 -0.04723,-0.020882 -0.07156,-0.026579 -0.02921,-0.9705459 -0.834714,-1.7474383 -1.825999,-1.7474383 -0.991284,0 -1.796791,0.7768924 -1.82605,1.7474383 z m 2.931904,2.9735311 c -0.08743,0.130614 -0.202699,0.248332 -0.35816,0.336805 l -0.0015,0.0016 c -0.219619,0.162897 -0.473786,0.256686 -0.743463,0.256686 h -0.0056 c -0.411037,0 -0.781887,-0.220613 -1.054737,-0.571089 -1.1502708,0.183022 -2.3791526,0.448062 -2.4567066,0.750314 -0.00147,0.0042 0.00106,0.0095 0,0.01335 -0.00346,0.01557 -0.00386,0.02923 -0.00533,0.04481 -7.048e-4,0.0069 -0.0056,0.01177 -0.0056,0.01899 v 0.006 1.052944 c 0,0.112775 0.078611,0.203526 0.1762596,0.203526 H 15.3084 c 0.09765,0 0.17626,-0.09075 0.17626,-0.203526 V 12.82796 12.81461 C 15.48356,12.78992 15.4744,12.76904 15.4681,12.74475 15.38702,12.430347 14.194801,12.154296 13.06533,11.970515 Z"
     id="path14-5" />
</svg>
