<?xml version="1.0" encoding="UTF-8" standalone="no"?>
<svg
   xmlns:dc="http://purl.org/dc/elements/1.1/"
   xmlns:cc="http://creativecommons.org/ns#"
   xmlns:rdf="http://www.w3.org/1999/02/22-rdf-syntax-ns#"
   xmlns:svg="http://www.w3.org/2000/svg"
   xmlns="http://www.w3.org/2000/svg"
   xmlns:xlink="http://www.w3.org/1999/xlink"
   xmlns:sodipodi="http://sodipodi.sourceforge.net/DTD/sodipodi-0.dtd"
   xmlns:inkscape="http://www.inkscape.org/namespaces/inkscape"
   width="64"
   height="64"
   version="1.1"
   viewBox="0 0 16.933 16.933"
   id="svg56"
   sodipodi:docname="folder-arduino.svg"
   inkscape:version="1.0.2 (e86c870879, 2021-01-15)">
  <sodipodi:namedview
     pagecolor="#ffffff"
     bordercolor="#666666"
     borderopacity="1"
     objecttolerance="10"
     gridtolerance="10"
     guidetolerance="10"
     inkscape:pageopacity="0"
     inkscape:pageshadow="2"
     inkscape:window-width="1502"
     inkscape:window-height="856"
     id="namedview58"
     showgrid="false"
     inkscape:zoom="12.890625"
     inkscape:cx="32"
     inkscape:cy="35.10303"
     inkscape:window-x="153"
     inkscape:window-y="139"
     inkscape:window-maximized="0"
     inkscape:current-layer="svg56"
     inkscape:document-rotation="0" />
  <defs
     id="defs18">
    <linearGradient
       id="linearGradient1064"
       x1="-15.961"
       x2="-.30109"
       y1="-43.254"
       y2="-54.196"
       gradientTransform="matrix(1 0 0 1.1 16.669 62.435)"
       gradientUnits="userSpaceOnUse">
      <stop
         stop-color="#3c3c3c"
         offset="0"
         id="stop2" />
      <stop
         stop-color="#646464"
         offset="1"
         id="stop4" />
    </linearGradient>
    <linearGradient
       id="linearGradient992"
       x1="-16.14"
       x2="-1.0699"
       y1="-55.616"
       y2="-44.835"
       gradientTransform="matrix(1 0 0 1.1 16.669 62.435)"
       gradientUnits="userSpaceOnUse">
      <stop
         stop-color="#3c3c3c"
         offset="0"
         id="stop7" />
      <stop
         stop-color="#646464"
         offset="1"
         id="stop9" />
    </linearGradient>
    <linearGradient
       id="linearGradient1006"
       x1=".52939"
       x2="16.217"
       y1="2.7784"
       y2="14.872"
       gradientTransform="matrix(1,0,0,1.1,16.669,62.435)"
       gradientUnits="userSpaceOnUse">
      <stop
         stop-color="#3c3c3c"
         offset="0"
         id="stop12" />
      <stop
         stop-color="#646464"
         offset="1"
         id="stop14" />
    </linearGradient>
    <linearGradient
       id="linearGradient939"
       x1="-16.14"
       x2="-1.0699"
       y1="-55.616"
       y2="-44.835"
       gradientTransform="matrix(1,0,0,1.1,16.669,62.435)"
       gradientUnits="userSpaceOnUse"
       xlink:href="#linearGradient992" />
  </defs>
  <metadata
     id="metadata20">
    <rdf:RDF>
      <cc:Work
         rdf:about="">
        <dc:format>image/svg+xml</dc:format>
        <dc:type
           rdf:resource="http://purl.org/dc/dcmitype/StillImage" />
        <dc:title></dc:title>
      </cc:Work>
    </rdf:RDF>
  </metadata>
  <g
     fill="#5e4aa6"
     stroke-width=".26458"
     id="g30">
    <circle
       cx="-330.35"
       cy="-328.38"
       r="0"
       id="circle22" />
    <circle
       cx="-312.11"
       cy="-326.25"
       r="0"
       id="circle24" />
    <circle
       cx="-306.02"
       cy="-333.07"
       r="0"
       id="circle26" />
    <circle
       cx="-308.84"
       cy="-326.01"
       r="0"
       id="circle28" />
  </g>
  <g
     transform="translate(.000295 -.00032978)"
     fill="#5e4aa6"
     stroke-width=".26458"
     id="g42">
    <circle
       cx="-330.35"
       cy="-328.38"
       r="0"
       id="circle32" />
    <circle
       cx="-312.11"
       cy="-326.25"
       r="0"
       id="circle34" />
    <circle
       cx="-306.02"
       cy="-333.07"
       r="0"
       id="circle36" />
    <circle
       cx="-308.84"
       cy="-326.01"
       r="0"
       id="circle38" />
    <circle
       cx="-328.8"
       cy="-330.45"
       r="0"
       id="circle40" />
  </g>
  <g
     transform="translate(.000295 -.00032978)"
     id="g52"
     style="fill:#123354">
    <g
       transform="matrix(1,0,0,1.1,16.669,63.956)"
       fill="url(#linearGradient939)"
       stroke-width=".66145"
       id="g46"
       style="fill:#29292a">
      <path
         d="m-8.2026-51.317h-7.9373v-3.6379c0-0.36531 0.29614-0.66144 0.66144-0.66144h5.6223l1.6536 1.3229z"
         fill="url(#linearGradient939)"
         id="path44"
         style="fill:#29292a" />
    </g>
    <rect
       x=".52939"
       y="4.2333"
       width="15.874"
       height="10.848"
       ry=".79373"
       fill="url(#linearGradient1006)"
       id="rect48"
       style="fill:#29292a" />
    <rect
       x=".97311"
       y="4.6963"
       width="14.987"
       height="9.9217"
       ry=".29919"
       fill="#fffffc"
       id="rect50"
       style="fill:#f2f2f2;opacity:0.85" />
  </g>
  <path
     d="m15.742 4.2329h-7.2759l-1.6536 1.4552h-5.6223c-0.36531 0-0.66144 0.32575-0.66144 0.72759v7.9373c0 0.40184 0.29614 0.72759 0.66144 0.72759h14.552c0.36531 0 0.66145-0.32575 0.66145-0.72759v-9.3926c0-0.40184-0.29614-0.72759-0.66145-0.72759z"
     fill="url(#linearGradient1064)"
     stroke-width=".69373"
     id="path54"
     style="fill:#586570" />
  <path
     style="fill:#ffffff;stroke-width:0.297593"
     d="m 9.739489,9.6830173 c -0.2510214,0 -0.5009193,0.055746 -0.7334773,0.1646627 -0.2325612,0.1089206 -0.444941,0.269281 -0.6242059,0.471963 -0.1792423,0.202672 -0.3228126,0.445135 -0.420555,0.71191 -0.097488,0.266711 -0.1477861,0.554422 -0.1477861,0.844012 0,0.289691 0.05018,0.577331 0.1479106,0.844136 0.097736,0.266778 0.2413068,0.509229 0.4205548,0.711911 0.179248,0.202666 0.3916475,0.363023 0.6242059,0.471964 0.2272463,0.106433 0.4711644,0.161553 0.7163812,0.164051 0.00577,2.32e-4 0.011342,3.75e-4 0.01711,6.27e-4 0.5962588,0.03132 1.0766908,-0.231115 1.4283268,-0.612121 0.240371,-0.260453 0.429229,-0.568023 0.601571,-0.881465 0.17235,0.313442 0.361186,0.621022 0.601571,0.881465 0.351635,0.381012 0.832068,0.64343 1.428327,0.612121 0.0058,-2.33e-4 0.01132,-3.08e-4 0.01711,-6.27e-4 0.245209,-0.0024 0.48857,-0.05762 0.715816,-0.164051 0.232561,-0.108921 0.445506,-0.269283 0.624743,-0.471964 l 0.0011,-0.0025 c 0.178504,-0.202304 0.321992,-0.443475 0.419452,-0.709466 0.09749,-0.266712 0.147787,-0.554421 0.147787,-0.844012 0,-0.289694 -0.05019,-0.577362 -0.147911,-0.844137 l -0.0017,-0.0037 C 15.478088,10.762688 15.335104,10.521363 15.1568,10.319527 14.977648,10.117064 14.765152,9.9565982 14.532594,9.8475319 14.300036,9.7387771 14.050241,9.6829913 13.799314,9.6829913 c -0.628189,0 -1.124305,0.2865352 -1.49069,0.6849577 -0.211931,0.230042 -0.383736,0.493306 -0.539434,0.762524 C 11.613492,10.861255 11.441686,10.597991 11.230038,10.367949 10.86354,9.9692908 10.36734,9.6828349 9.7391782,9.6828349 Z m -0.00662,0.6268187 c 0.501146,0 0.821246,0.199188 1.114839,0.528879 0.232734,0.261336 0.436803,0.616852 0.639099,1.004509 -0.230875,0.452908 -0.454012,0.866578 -0.704769,1.147142 -0.27643,0.309279 -0.562887,0.47983 -1.0309422,0.4499 h -0.01821 c -0.1784999,0 -0.3584458,-0.04178 -0.5226493,-0.121203 -0.1620152,-0.07835 -0.3115138,-0.194768 -0.4349139,-0.337291 l -0.00497,-0.0054 C 8.6460209,12.831467 8.5459898,12.656584 8.4793022,12.469165 8.4128972,12.281433 8.3784237,12.07709 8.3784237,11.875255 c 0,-0.201927 0.034471,-0.406274 0.1009971,-0.593755 0.06652,-0.18751 0.1664982,-0.361675 0.2908533,-0.506846 l 0.00497,-0.0062 C 8.8986345,10.62598 9.0481359,10.509561 9.2101554,10.431202 9.3743312,10.351912 9.5540475,10.310226 9.732635,10.310226 Z m 4.073022,0 c 0.178502,0 0.358446,0.04178 0.522649,0.121202 0.162009,0.07836 0.31151,0.194769 0.43491,0.337292 l 0.005,0.0062 c 0.124355,0.14518 0.224332,0.319332 0.290853,0.506845 0.06641,0.187419 0.100875,0.391762 0.100875,0.593597 0,0.201934 -0.03448,0.406243 -0.100992,0.593756 -0.06652,0.187505 -0.166495,0.36227 -0.290854,0.507441 l -0.005,0.0054 c -0.123389,0.142513 -0.27289,0.25893 -0.434909,0.337291 -0.164216,0.07941 -0.344148,0.121202 -0.52265,0.121202 h -0.01821 c -0.467947,0.02977 -0.754477,-0.140722 -1.030835,-0.450058 -0.250643,-0.280501 -0.473876,-0.694203 -0.704739,-1.147079 0.202323,-0.387688 0.406342,-0.743407 0.639182,-1.004478 0.293595,-0.329707 0.613751,-0.529036 1.114755,-0.529036 z m -0.341066,0.626819 v 0.626819 h -0.565149 v 0.62682 h 0.565149 v 0.626819 h 0.565146 v -0.626819 h 0.565147 v -0.62682 h -0.565147 v -0.626819 z m -4.5211869,0.626819 v 0.62682 H 10.63908 v -0.62682 z"
     id="path14-6" />
</svg>
