<?xml version="1.0" encoding="UTF-8" standalone="no"?>
<svg
   xmlns:dc="http://purl.org/dc/elements/1.1/"
   xmlns:cc="http://creativecommons.org/ns#"
   xmlns:rdf="http://www.w3.org/1999/02/22-rdf-syntax-ns#"
   xmlns:svg="http://www.w3.org/2000/svg"
   xmlns="http://www.w3.org/2000/svg"
   xmlns:xlink="http://www.w3.org/1999/xlink"
   xmlns:sodipodi="http://sodipodi.sourceforge.net/DTD/sodipodi-0.dtd"
   xmlns:inkscape="http://www.inkscape.org/namespaces/inkscape"
   width="64"
   height="64"
   version="1.1"
   viewBox="0 0 16.933 16.933"
   id="svg56"
   sodipodi:docname="folder-games.svg"
   inkscape:version="1.0.2 (e86c870879, 2021-01-15)">
  <sodipodi:namedview
     pagecolor="#ffffff"
     bordercolor="#666666"
     borderopacity="1"
     objecttolerance="10"
     gridtolerance="10"
     guidetolerance="10"
     inkscape:pageopacity="0"
     inkscape:pageshadow="2"
     inkscape:window-width="1502"
     inkscape:window-height="856"
     id="namedview58"
     showgrid="false"
     inkscape:zoom="12.890625"
     inkscape:cx="32"
     inkscape:cy="41.309091"
     inkscape:window-x="89"
     inkscape:window-y="140"
     inkscape:window-maximized="0"
     inkscape:current-layer="svg56"
     inkscape:document-rotation="0" />
  <defs
     id="defs18">
    <linearGradient
       id="linearGradient1064"
       x1="-15.961"
       x2="-.30109"
       y1="-43.254"
       y2="-54.196"
       gradientTransform="matrix(1 0 0 1.1 16.669 62.435)"
       gradientUnits="userSpaceOnUse">
      <stop
         stop-color="#3c3c3c"
         offset="0"
         id="stop2" />
      <stop
         stop-color="#646464"
         offset="1"
         id="stop4" />
    </linearGradient>
    <linearGradient
       id="linearGradient992"
       x1="-16.14"
       x2="-1.0699"
       y1="-55.616"
       y2="-44.835"
       gradientTransform="matrix(1 0 0 1.1 16.669 62.435)"
       gradientUnits="userSpaceOnUse">
      <stop
         stop-color="#3c3c3c"
         offset="0"
         id="stop7" />
      <stop
         stop-color="#646464"
         offset="1"
         id="stop9" />
    </linearGradient>
    <linearGradient
       id="linearGradient1006"
       x1=".52939"
       x2="16.217"
       y1="2.7784"
       y2="14.872"
       gradientTransform="matrix(1,0,0,1.1,16.669,62.435)"
       gradientUnits="userSpaceOnUse">
      <stop
         stop-color="#3c3c3c"
         offset="0"
         id="stop12" />
      <stop
         stop-color="#646464"
         offset="1"
         id="stop14" />
    </linearGradient>
    <linearGradient
       id="linearGradient939"
       x1="-16.14"
       x2="-1.0699"
       y1="-55.616"
       y2="-44.835"
       gradientTransform="matrix(1,0,0,1.1,16.669,62.435)"
       gradientUnits="userSpaceOnUse"
       xlink:href="#linearGradient992" />
  </defs>
  <metadata
     id="metadata20">
    <rdf:RDF>
      <cc:Work
         rdf:about="">
        <dc:format>image/svg+xml</dc:format>
        <dc:type
           rdf:resource="http://purl.org/dc/dcmitype/StillImage" />
        <dc:title />
      </cc:Work>
    </rdf:RDF>
  </metadata>
  <g
     fill="#5e4aa6"
     stroke-width=".26458"
     id="g30">
    <circle
       cx="-330.35"
       cy="-328.38"
       r="0"
       id="circle22" />
    <circle
       cx="-312.11"
       cy="-326.25"
       r="0"
       id="circle24" />
    <circle
       cx="-306.02"
       cy="-333.07"
       r="0"
       id="circle26" />
    <circle
       cx="-308.84"
       cy="-326.01"
       r="0"
       id="circle28" />
  </g>
  <g
     transform="translate(.000295 -.00032978)"
     fill="#5e4aa6"
     stroke-width=".26458"
     id="g42">
    <circle
       cx="-330.35"
       cy="-328.38"
       r="0"
       id="circle32" />
    <circle
       cx="-312.11"
       cy="-326.25"
       r="0"
       id="circle34" />
    <circle
       cx="-306.02"
       cy="-333.07"
       r="0"
       id="circle36" />
    <circle
       cx="-308.84"
       cy="-326.01"
       r="0"
       id="circle38" />
    <circle
       cx="-328.8"
       cy="-330.45"
       r="0"
       id="circle40" />
  </g>
  <g
     transform="translate(.000295 -.00032978)"
     id="g52"
     style="fill:#123354">
    <g
       transform="matrix(1,0,0,1.1,16.669,63.956)"
       fill="url(#linearGradient939)"
       stroke-width=".66145"
       id="g46"
       style="fill:#29292a">
      <path
         d="m-8.2026-51.317h-7.9373v-3.6379c0-0.36531 0.29614-0.66144 0.66144-0.66144h5.6223l1.6536 1.3229z"
         fill="url(#linearGradient939)"
         id="path44"
         style="fill:#29292a" />
    </g>
    <rect
       x=".52939"
       y="4.2333"
       width="15.874"
       height="10.848"
       ry=".79373"
       fill="url(#linearGradient1006)"
       id="rect48"
       style="fill:#29292a" />
    <rect
       x=".97311"
       y="4.6963"
       width="14.987"
       height="9.9217"
       ry=".29919"
       fill="#fffffc"
       id="rect50"
       style="fill:#f2f2f2;opacity:0.85" />
  </g>
  <path
     d="m15.742 4.2329h-7.2759l-1.6536 1.4552h-5.6223c-0.36531 0-0.66144 0.32575-0.66144 0.72759v7.9373c0 0.40184 0.29614 0.72759 0.66144 0.72759h14.552c0.36531 0 0.66145-0.32575 0.66145-0.72759v-9.3926c0-0.40184-0.29614-0.72759-0.66145-0.72759z"
     fill="url(#linearGradient1064)"
     stroke-width=".69373"
     id="path54"
     style="fill:#586570" />
  <path
     style="fill:#ffffff;stroke-width:0.320065"
     d="m 10.723754,8.9490249 c -0.09513,3.252e-4 -0.20508,0.031543 -0.317229,0.097882 -0.408583,0.2373867 -0.784721,1.0152361 -0.9888549,2.0233191 -0.174208,0.856545 -0.2378428,2.026572 -0.1342006,2.497444 0.090407,0.404859 0.2463477,0.584363 0.5241978,0.584363 0.4120507,-0.0077 0.9302627,-0.514122 1.2582007,-1.195391 0.237527,-0.376893 0.787558,-0.548592 1.318055,-0.529732 0.530499,-0.02049 1.080528,0.152839 1.318055,0.529732 0.327939,0.681269 0.846152,1.187586 1.258201,1.195391 0.27785,0 0.433786,-0.179504 0.524198,-0.584363 0.103647,-0.470872 0.04001,-1.640899 -0.134199,-2.497444 -0.204136,-1.008083 -0.580272,-1.7859324 -0.988857,-2.0233191 -0.112148,-0.066339 -0.215161,-0.098207 -0.309983,-0.097882 -0.09482,6.504e-4 -0.181453,0.033495 -0.263358,0.097882 -0.2076,0.1635693 -0.640442,0.3385204 -1.404057,0.3391706 -0.763614,6.514e-4 -1.196455,-0.1756013 -1.404055,-0.3391706 -0.08191,-0.064387 -0.160662,-0.098532 -0.256114,-0.097882 z m 0.08506,0.9755644 h 0.630045 v 0.6503757 h 0.630045 v 0.650376 h -0.63005 v 0.650376 H 10.80881 v -0.650376 h -0.630046 v -0.650376 h 0.630046 z m 2.835203,0 c 0.173894,0 0.315024,0.1456847 0.315024,0.3251877 0,0.179504 -0.14113,0.325188 -0.315024,0.325188 -0.173892,0 -0.315022,-0.145684 -0.315022,-0.325188 0,-0.179503 0.14113,-0.3251877 0.315022,-0.3251877 z m -0.630045,0.6503757 c 0.173892,0 0.315023,0.145684 0.315023,0.325188 0,0.179504 -0.141131,0.325188 -0.315023,0.325188 -0.173892,0 -0.315022,-0.145684 -0.315022,-0.325188 0,-0.179504 0.14113,-0.325188 0.315022,-0.325188 z m 1.260092,0 c 0.173892,0 0.315022,0.145684 0.315022,0.325188 0,0.179504 -0.14113,0.325188 -0.315022,0.325188 -0.173893,0 -0.315023,-0.145684 -0.315023,-0.325188 0,-0.179504 0.14113,-0.325188 0.315023,-0.325188 z m -0.630047,0.650376 c 0.173894,0 0.315024,0.145684 0.315024,0.325188 0,0.179503 -0.14113,0.325188 -0.315024,0.325188 -0.173892,0 -0.315022,-0.145685 -0.315022,-0.325188 0,-0.179504 0.14113,-0.325188 0.315022,-0.325188 z"
     id="path14" />
</svg>
