<?xml version="1.0" encoding="UTF-8" standalone="no"?>
<svg
   xmlns:dc="http://purl.org/dc/elements/1.1/"
   xmlns:cc="http://creativecommons.org/ns#"
   xmlns:rdf="http://www.w3.org/1999/02/22-rdf-syntax-ns#"
   xmlns:svg="http://www.w3.org/2000/svg"
   xmlns="http://www.w3.org/2000/svg"
   xmlns:sodipodi="http://sodipodi.sourceforge.net/DTD/sodipodi-0.dtd"
   xmlns:inkscape="http://www.inkscape.org/namespaces/inkscape"
   width="16"
   height="16"
   version="1.1"
   id="svg9"
   sodipodi:docname="folder-open.svg"
   inkscape:version="1.0.2 (e86c870879, 2021-01-15)">
  <metadata
     id="metadata13">
    <rdf:RDF>
      <cc:Work
         rdf:about="">
        <dc:format>image/svg+xml</dc:format>
        <dc:type
           rdf:resource="http://purl.org/dc/dcmitype/StillImage" />
      </cc:Work>
    </rdf:RDF>
  </metadata>
  <sodipodi:namedview
     pagecolor="#ffffff"
     bordercolor="#666666"
     borderopacity="1"
     objecttolerance="10"
     gridtolerance="10"
     guidetolerance="10"
     inkscape:pageopacity="0"
     inkscape:pageshadow="2"
     inkscape:window-width="1511"
     inkscape:window-height="909"
     id="namedview11"
     showgrid="false"
     inkscape:zoom="52.5625"
     inkscape:cx="7.9714625"
     inkscape:cy="8"
     inkscape:window-x="0"
     inkscape:window-y="28"
     inkscape:window-maximized="0"
     inkscape:current-layer="svg9"
     inkscape:document-rotation="0" />
  <defs
     id="defs3">
    <style
       id="current-color-scheme"
       type="text/css">
   .ColorScheme-Text { color:#444444; } .ColorScheme-Highlight { color:#4285f4; }
  </style>
  </defs>
  <path
     style="fill:currentColor;opacity:0.3"
     class="ColorScheme-Text"
     d="M 2 1 C 2 1 1 1 1 2 L 1 5 C 1 4 2 4 2 4 L 7 4 L 9 6 L 14 6 C 14 6 15 6 15 7 L 15 4 C 15 3 14 3 14 3 L 9 3 L 7 1 L 2 1 z"
     id="path5" />
  <path
     style="fill:#586570;stroke-width:0.999999"
     class="ColorScheme-Text"
     d="M 2,5 C 2,5 1,5 1,6 v 7 c 0,0 0,1 1,1 h 12 c 0,0 1,0 1,-1 V 8 C 15,7 14,7 14,7 H 9 L 7,5 Z"
     id="path7" />
</svg>
