<?xml version="1.0" encoding="UTF-8" standalone="no"?>
<svg
   xmlns:dc="http://purl.org/dc/elements/1.1/"
   xmlns:cc="http://creativecommons.org/ns#"
   xmlns:rdf="http://www.w3.org/1999/02/22-rdf-syntax-ns#"
   xmlns:svg="http://www.w3.org/2000/svg"
   xmlns="http://www.w3.org/2000/svg"
   xmlns:sodipodi="http://sodipodi.sourceforge.net/DTD/sodipodi-0.dtd"
   xmlns:inkscape="http://www.inkscape.org/namespaces/inkscape"
   width="16"
   height="16"
   version="1.1"
   id="svg7"
   sodipodi:docname="folder-templates.svg"
   inkscape:version="1.0.2 (e86c870879, 2021-01-15)">
  <metadata
     id="metadata11">
    <rdf:RDF>
      <cc:Work
         rdf:about="">
        <dc:format>image/svg+xml</dc:format>
        <dc:type
           rdf:resource="http://purl.org/dc/dcmitype/StillImage" />
      </cc:Work>
    </rdf:RDF>
  </metadata>
  <sodipodi:namedview
     pagecolor="#ffffff"
     bordercolor="#666666"
     borderopacity="1"
     objecttolerance="10"
     gridtolerance="10"
     guidetolerance="10"
     inkscape:pageopacity="0"
     inkscape:pageshadow="2"
     inkscape:window-width="832"
     inkscape:window-height="520"
     id="namedview9"
     showgrid="false"
     inkscape:zoom="51.5625"
     inkscape:cx="8"
     inkscape:cy="8"
     inkscape:window-x="0"
     inkscape:window-y="0"
     inkscape:window-maximized="0"
     inkscape:current-layer="svg7"
     inkscape:document-rotation="0" />
  <defs
     id="defs3">
    <style
       id="current-color-scheme"
       type="text/css">
   .ColorScheme-Text { color:#444444; } .ColorScheme-Highlight { color:#4285f4; } .ColorScheme-NeutralText { color:#ff9800; } .ColorScheme-PositiveText { color:#4caf50; } .ColorScheme-NegativeText { color:#f44336; }
  </style>
  </defs>
  <path
     style="fill:#586570"
     class="ColorScheme-Text"
     d="M 3,1 C 2.446,1 2,1.446 2,2 V 11 H 3 V 10 H 4 V 3 H 9 V 6 H 12 V 14 15 H 13 V 14 H 14 V 5 L 10,1 Z M 13,15 V 16 H 14 V 15 Z M 12,15 H 11 V 16 H 12 Z M 11,15 V 14 H 10 V 15 Z M 10,15 H 9 V 16 H 10 Z M 9,15 V 14 H 8 V 15 Z M 8,15 H 7 V 16 H 8 Z M 7,15 V 14 H 6 V 15 Z M 6,15 H 5 V 16 H 6 Z M 5,15 V 14 H 4 V 15 Z M 4,15 H 3 V 16 H 4 Z M 3,15 V 14 H 2 V 15 Z M 3,14 H 4 V 13 H 3 Z M 3,13 V 12 H 2 V 13 Z M 3,12 H 4 V 11 H 3 Z"
     id="path5" />
</svg>
