<?xml version="1.0" encoding="UTF-8" standalone="no"?>
<svg
   xmlns:dc="http://purl.org/dc/elements/1.1/"
   xmlns:cc="http://creativecommons.org/ns#"
   xmlns:rdf="http://www.w3.org/1999/02/22-rdf-syntax-ns#"
   xmlns:svg="http://www.w3.org/2000/svg"
   xmlns="http://www.w3.org/2000/svg"
   xmlns:sodipodi="http://sodipodi.sourceforge.net/DTD/sodipodi-0.dtd"
   xmlns:inkscape="http://www.inkscape.org/namespaces/inkscape"
   width="64"
   height="64"
   version="1.1"
   id="svg73"
   sodipodi:docname="aeskulap.svg"
   inkscape:version="1.0.2 (e86c870879, 2021-01-15)">
  <metadata
     id="metadata77">
    <rdf:RDF>
      <cc:Work
         rdf:about="">
        <dc:format>image/svg+xml</dc:format>
        <dc:type
           rdf:resource="http://purl.org/dc/dcmitype/StillImage" />
        <dc:title></dc:title>
      </cc:Work>
    </rdf:RDF>
  </metadata>
  <sodipodi:namedview
     pagecolor="#ffffff"
     bordercolor="#666666"
     borderopacity="1"
     objecttolerance="10"
     gridtolerance="10"
     guidetolerance="10"
     inkscape:pageopacity="0"
     inkscape:pageshadow="2"
     inkscape:window-width="1920"
     inkscape:window-height="996"
     id="namedview75"
     showgrid="false"
     inkscape:zoom="12.578125"
     inkscape:cx="32"
     inkscape:cy="41.540373"
     inkscape:window-x="0"
     inkscape:window-y="0"
     inkscape:window-maximized="1"
     inkscape:current-layer="svg73"
     inkscape:document-rotation="0" />
  <defs
     id="defs29">
    <linearGradient
       id="b"
       x1="399.57"
       x2="399.57"
       y1="545.8"
       y2="517.8"
       gradientTransform="matrix(2.1429,0,0,2.1429,-826.36,-1107.5)"
       gradientUnits="userSpaceOnUse">
      <stop
         stop-color="#3889e9"
         offset="0"
         id="stop2" />
      <stop
         stop-color="#5ea5fb"
         offset="1"
         id="stop4" />
    </linearGradient>
    <linearGradient
       id="linearGradient862"
       x1="7.9373"
       x2="7.9373"
       y1="15.081"
       y2="1.852"
       gradientTransform="matrix(3.3743 0 0 3.3743 3.4312 3.4278)"
       gradientUnits="userSpaceOnUse">
      <stop
         stop-color="#f1efeb"
         offset="0"
         id="stop7" />
      <stop
         stop-color="#fff"
         offset="1"
         id="stop9" />
    </linearGradient>
    <linearGradient
       id="linearGradient910"
       x1="7.9373"
       x2="7.9373"
       y1="15.081"
       y2="1.852"
       gradientTransform="scale(3.7796)"
       gradientUnits="userSpaceOnUse">
      <stop
         stop-color="#613583"
         offset="0"
         id="stop12" />
      <stop
         stop-color="#a663c0"
         offset="1"
         id="stop14" />
    </linearGradient>
    <linearGradient
       id="linearGradient932"
       x1="379.24"
       x2="374.24"
       y1="546.85"
       y2="546.85"
       gradientTransform="matrix(2.1429 0 0 2.1429 -769.68 -1134.5)"
       gradientUnits="userSpaceOnUse">
      <stop
         stop-color="#f6f5f4"
         offset="0"
         id="stop17" />
      <stop
         stop-color="#fff"
         offset=".6"
         id="stop19" />
      <stop
         stop-color="#dddbd8"
         offset="1"
         id="stop21" />
    </linearGradient>
    <linearGradient
       id="linearGradient1146"
       x1="18"
       x2="18"
       y1="52"
       y2="12"
       gradientUnits="userSpaceOnUse">
      <stop
         stop-color="#5e337f"
         offset="0"
         id="stop24" />
      <stop
         stop-color="#ab60bf"
         offset="1"
         id="stop26" />
    </linearGradient>
  </defs>
  <circle
     cx="32.02"
     cy="32.044"
     r="30.001"
     fill-opacity="0"
     stroke-width="1.5715"
     id="circle39" />
  <circle
     cx="32.02"
     cy="32.044"
     r="0"
     fill="url(#b)"
     stroke-width="1.5715"
     id="circle41" />
  <path
     style="fill:#29292a;stroke-width:1.51315"
     d="M 30.097138,59.664052 C 27.687483,55.401944 27.592859,53.03651 29.697153,49.664927 l 1.194168,-1.913342 -2.595682,-2.010248 c -3.988324,-3.088789 -5.312276,-3.892713 -5.312276,-6.786995 0,-2.38016 1.400142,-5.441128 2.488861,-5.441128 0.26109,0 0.474685,-0.270743 0.474685,-0.601663 0,-0.330914 -1.278021,-0.820887 -2.840065,-1.088818 -3.577701,-0.613687 -5.517884,-1.967172 -5.549092,-3.871079 -0.02107,-1.270321 1.936868,-2.749202 5.770303,-4.359008 2.954266,-1.240607 4.031836,-1.962095 3.553037,-2.378947 -0.37797,-0.329073 -1.409577,-0.416309 -2.292477,-0.193849 -0.923861,0.232784 -1.605252,0.119969 -1.605252,-0.265717 0,-0.368585 -1.055758,-0.680218 -2.346145,-0.692516 -4.365424,-0.04159 -5.12288,-0.119644 -5.668588,-0.583973 -0.299471,-0.254808 -1.198364,-0.534102 -1.997555,-0.620661 -0.799193,-0.08657 -1.782303,-0.610636 -2.184691,-1.164622 -0.646198,-0.889658 -0.452654,-1.063566 1.657804,-1.489601 3.22382,-0.650795 6.329534,-3.792744 8.587195,-6.6008648 4.0243,-5.0054959 5.260036,-5.3481204 6.251116,-1.7331868 0.482925,1.7614585 2.486098,3.6999396 3.065622,2.9666246 C 30.459706,10.694167 30.142577,9.5346084 29.643442,8.2585562 28.785197,6.064467 28.781505,5.8426513 29.575472,4.1743936 30.58482,2.0535467 32.797818,1.7943937 34.020136,3.6539027 c 1.044088,1.5883666 1.04024,3.4105087 -0.0106,5.0090983 -1.268278,1.929443 -0.122794,3.156105 1.543526,1.652923 0.693096,-0.6252316 1.260179,-1.4357399 1.260179,-1.8011253 0,-0.3653869 0.449622,-1.2833677 0.999171,-2.0399579 1.200301,-1.6525328 2.023442,-1.2069532 5.421852,2.934959 2.626274,3.2008502 5.271408,6.0961632 8.585928,6.7428892 2.165344,0.422499 2.33459,0.576991 1.655848,1.511462 -0.415814,0.57247 -1.390025,1.110461 -2.164909,1.195534 -0.774883,0.08506 -1.798341,0.389846 -2.274355,0.677278 -0.476009,0.287418 -1.40702,0.335482 -2.068907,0.106752 -0.661896,-0.228733 -1.351004,-0.08712 -1.531362,0.314651 -0.19969,0.444844 -1.060857,0.560015 -2.202243,0.294513 -1.16286,-0.270477 -2.001923,-0.15172 -2.210485,0.312886 -0.201859,0.4496 -0.98902,0.580246 -1.969833,0.326921 -0.937819,-0.242215 -1.768772,-0.120945 -1.950884,0.284756 -0.190736,0.424907 1.116049,1.286369 3.27743,2.160553 4.324459,1.749045 5.81732,2.964185 5.81732,4.735092 0,1.849715 -1.762434,3.235665 -4.81577,3.787044 -1.426204,0.257528 -2.593101,0.61795 -2.593101,0.800899 0,0.182968 0.666794,1.378204 1.481771,2.656121 1.613831,2.530552 1.78273,3.624553 0.909473,5.890951 -0.663362,1.72162 -1.612149,1.555673 -5.232505,4.422316 l -2.625788,2.079117 1.018243,1.616363 c 0.560025,0.889004 1.141872,2.401455 1.292998,3.361012 0.151115,0.959551 0.362257,2.133992 0.469209,2.609868 0.262762,1.16925 -3.150776,6.284489 -4.162342,6.237317 -0.443797,-0.02069 -1.273092,-0.86221 -1.842889,-1.870042 z m 5.234353,-4.839797 c 0,-1.517666 -1.854496,-5.492823 -2.562511,-5.492823 -0.220569,0 -0.401039,2.611707 -0.401039,5.803795 v 5.8038 l 1.481775,-2.323487 c 0.814978,-1.277916 1.481775,-2.983996 1.481775,-3.791285 z m -3.4922,0.757194 c -0.01921,-2.128481 -0.209354,-4.481978 -0.422854,-5.229996 -0.35489,-1.243446 -0.479852,-1.156005 -1.457849,1.020027 -1.138815,2.533843 -1.072843,4.534018 0.24182,7.331838 1.091519,2.322895 1.677705,1.206275 1.638874,-3.121869 z M 31.380093,40.653385 c 0,-6.423428 -0.0071,-6.460155 -1.224824,-6.460155 -2.171627,0 -5.181899,2.064844 -5.492273,3.767328 -0.502745,2.757805 0.276796,3.116622 3.412578,5.563746 1.681654,1.312338 3.113123,2.390793 3.181031,2.396562 0.06791,0.0057 0.123512,-1.7144 0.123512,-5.267481 z m 4.742206,2.832448 c 3.270759,-2.386459 3.654516,-1.710692 3.654516,-3.640435 0,-2.672012 -0.871004,-4.183504 -2.845883,-4.938606 -4.019755,-1.536964 -4.069065,-1.471437 -4.069065,5.406586 0,3.366079 0.189126,4.937955 0.42036,4.937955 0.231196,0 1.509232,-0.794472 2.840072,-1.7655 z M 31.194866,29.348117 c -0.169794,-1.168779 -0.308702,-3.616835 -0.308702,-5.440128 0,-1.823294 -0.21964,-3.315082 -0.488111,-3.315082 -0.268463,0 -0.435157,0.660031 -0.370437,1.466733 0.105513,1.315391 -0.391983,1.64996 -4.821592,3.242524 -6.622827,2.381088 -6.622827,3.409623 0,4.909666 6.795314,1.539105 6.347274,1.603722 5.988836,-0.863713 z m 9.529289,0.536934 c 1.743508,-0.435566 3.257804,-1.155757 3.365097,-1.600414 0.192563,-0.797992 -4.478243,-3.016935 -8.387314,-3.984537 -1.933947,-0.4787 -2.40673,-1.416874 -1.06993,-2.123125 0.629872,-0.332767 0.653937,-0.525339 0.123481,-0.98827 -1.251407,-1.092132 -1.399706,-0.574444 -1.399706,4.885998 V 31.5565 l 2.099194,-0.439755 c 1.154546,-0.241861 3.525679,-0.796127 5.269187,-1.231694 z"
     id="path8" />
</svg>
