<?xml version="1.0" encoding="UTF-8" standalone="no"?>
<svg
   xmlns:dc="http://purl.org/dc/elements/1.1/"
   xmlns:cc="http://creativecommons.org/ns#"
   xmlns:rdf="http://www.w3.org/1999/02/22-rdf-syntax-ns#"
   xmlns:svg="http://www.w3.org/2000/svg"
   xmlns="http://www.w3.org/2000/svg"
   xmlns:sodipodi="http://sodipodi.sourceforge.net/DTD/sodipodi-0.dtd"
   xmlns:inkscape="http://www.inkscape.org/namespaces/inkscape"
   width="64"
   height="64"
   version="1.1"
   id="svg26"
   sodipodi:docname="alacarte.svg"
   inkscape:version="1.0.2 (e86c870879, 2021-01-15)">
  <metadata
     id="metadata32">
    <rdf:RDF>
      <cc:Work
         rdf:about="">
        <dc:format>image/svg+xml</dc:format>
        <dc:type
           rdf:resource="http://purl.org/dc/dcmitype/StillImage" />
        <dc:title />
      </cc:Work>
    </rdf:RDF>
  </metadata>
  <defs
     id="defs30" />
  <sodipodi:namedview
     pagecolor="#ffffff"
     bordercolor="#666666"
     borderopacity="1"
     objecttolerance="10"
     gridtolerance="10"
     guidetolerance="10"
     inkscape:pageopacity="0"
     inkscape:pageshadow="2"
     inkscape:window-width="1717"
     inkscape:window-height="825"
     id="namedview28"
     showgrid="false"
     inkscape:zoom="12.890625"
     inkscape:cx="32"
     inkscape:cy="25.793939"
     inkscape:window-x="60"
     inkscape:window-y="126"
     inkscape:window-maximized="0"
     inkscape:current-layer="svg26"
     inkscape:document-rotation="0" />
  <path
     style="fill:#29292a"
     d="M 9.5641024,4 H 54.435898 C 55.85641,4 57,5.1388714 57,6.5586286 V 51.688394 C 57,53.10829 55.85641,54 54.435898,54 H 25.055556 L 19.5,60.999604 13.944444,54 H 9.5641024 C 8.1435898,54 7,53.10829 7,51.688394 V 6.5586286 C 7,5.1388714 8.1435898,4 9.5641024,4 Z"
     id="path4" />
  <rect
     style="fill:#676767"
     width="50"
     height="14"
     x="7"
     y="22"
     id="rect8" />
  <path
     style="fill:#ffffff;opacity:0.85"
     d="M 14.095703,26.000002 C 13.501406,26.000002 13,26.504334 13,27.098634 v 3.805662 C 13,31.498598 13.501406,32 14.095703,32 h 3.808593 C 18.498593,32 19,31.498598 19,30.904296 v -3.805662 c 0,-0.5943 -0.501407,-1.098632 -1.095704,-1.098632 z"
     id="path12" />
  <path
     style="fill:#676767"
     d="M 14.095703,12 C 13.501406,12 13,12.504333 13,13.098633 v 3.805663 C 13,17.498596 13.501406,18 14.095703,18 h 3.808593 c 0.594297,0 1.095703,-0.501404 1.095703,-1.095704 V 13.098633 C 18.999999,12.504333 18.498593,12 17.904296,12 Z"
     id="path14" />
  <path
     style="fill:#ffffff;stroke:#ffffff;stroke-width:6;stroke-linecap:round;opacity:0.85"
     d="M 28,28.9997 H 48"
     id="path16" />
  <path
     style="fill:none;stroke:#676767;stroke-width:6;stroke-linecap:round"
     d="M 28,14.9997 H 48"
     id="path18" />
  <path
     style="fill:#676767"
     d="M 14.095703,40 C 13.501406,40 13,40.504332 13,41.098632 v 3.805664 C 13,45.498594 13.501406,46 14.095703,46 h 3.808593 C 18.498593,46 19,45.498594 19,44.904296 V 41.098632 C 19,40.504332 18.498593,40 17.904296,40 Z"
     id="path20" />
  <path
     style="fill:none;stroke:#676767;stroke-width:6;stroke-linecap:round"
     d="M 28,42.9997 H 48"
     id="path22" />
</svg>
