<?xml version="1.0" encoding="UTF-8" standalone="no"?>
<svg
   xmlns:dc="http://purl.org/dc/elements/1.1/"
   xmlns:cc="http://creativecommons.org/ns#"
   xmlns:rdf="http://www.w3.org/1999/02/22-rdf-syntax-ns#"
   xmlns:svg="http://www.w3.org/2000/svg"
   xmlns="http://www.w3.org/2000/svg"
   xmlns:sodipodi="http://sodipodi.sourceforge.net/DTD/sodipodi-0.dtd"
   xmlns:inkscape="http://www.inkscape.org/namespaces/inkscape"
   width="64"
   height="64"
   version="1.1"
   id="svg73"
   sodipodi:docname="android-studio-beta.svg"
   inkscape:version="1.0.2 (e86c870879, 2021-01-15)">
  <metadata
     id="metadata77">
    <rdf:RDF>
      <cc:Work
         rdf:about="">
        <dc:format>image/svg+xml</dc:format>
        <dc:type
           rdf:resource="http://purl.org/dc/dcmitype/StillImage" />
        <dc:title></dc:title>
      </cc:Work>
    </rdf:RDF>
  </metadata>
  <sodipodi:namedview
     pagecolor="#ffffff"
     bordercolor="#666666"
     borderopacity="1"
     objecttolerance="10"
     gridtolerance="10"
     guidetolerance="10"
     inkscape:pageopacity="0"
     inkscape:pageshadow="2"
     inkscape:window-width="1717"
     inkscape:window-height="798"
     id="namedview75"
     showgrid="false"
     inkscape:zoom="12.578125"
     inkscape:cx="32"
     inkscape:cy="32"
     inkscape:window-x="118"
     inkscape:window-y="664"
     inkscape:window-maximized="0"
     inkscape:current-layer="svg73"
     inkscape:document-rotation="0" />
  <defs
     id="defs29">
    <linearGradient
       id="b"
       x1="399.57"
       x2="399.57"
       y1="545.8"
       y2="517.8"
       gradientTransform="matrix(2.1429,0,0,2.1429,-826.36,-1107.5)"
       gradientUnits="userSpaceOnUse">
      <stop
         stop-color="#3889e9"
         offset="0"
         id="stop2" />
      <stop
         stop-color="#5ea5fb"
         offset="1"
         id="stop4" />
    </linearGradient>
    <linearGradient
       id="linearGradient862"
       x1="7.9373"
       x2="7.9373"
       y1="15.081"
       y2="1.852"
       gradientTransform="matrix(3.3743 0 0 3.3743 3.4312 3.4278)"
       gradientUnits="userSpaceOnUse">
      <stop
         stop-color="#f1efeb"
         offset="0"
         id="stop7" />
      <stop
         stop-color="#fff"
         offset="1"
         id="stop9" />
    </linearGradient>
    <linearGradient
       id="linearGradient910"
       x1="7.9373"
       x2="7.9373"
       y1="15.081"
       y2="1.852"
       gradientTransform="scale(3.7796)"
       gradientUnits="userSpaceOnUse">
      <stop
         stop-color="#613583"
         offset="0"
         id="stop12" />
      <stop
         stop-color="#a663c0"
         offset="1"
         id="stop14" />
    </linearGradient>
    <linearGradient
       id="linearGradient932"
       x1="379.24"
       x2="374.24"
       y1="546.85"
       y2="546.85"
       gradientTransform="matrix(2.1429 0 0 2.1429 -769.68 -1134.5)"
       gradientUnits="userSpaceOnUse">
      <stop
         stop-color="#f6f5f4"
         offset="0"
         id="stop17" />
      <stop
         stop-color="#fff"
         offset=".6"
         id="stop19" />
      <stop
         stop-color="#dddbd8"
         offset="1"
         id="stop21" />
    </linearGradient>
    <linearGradient
       id="linearGradient1146"
       x1="18"
       x2="18"
       y1="52"
       y2="12"
       gradientUnits="userSpaceOnUse">
      <stop
         stop-color="#5e337f"
         offset="0"
         id="stop24" />
      <stop
         stop-color="#ab60bf"
         offset="1"
         id="stop26" />
    </linearGradient>
  </defs>
  <circle
     cx="32.02"
     cy="32.044"
     r="30.001"
     fill-opacity="0"
     stroke-width="1.5715"
     id="circle39" />
  <circle
     cx="32.02"
     cy="32.044"
     r="0"
     fill="url(#b)"
     stroke-width="1.5715"
     id="circle41" />
  <path
     style="fill:#29292a;stroke-width:1.56087"
     d="m 24.349273,2.2144766 -2.616106,1.611094 3.620208,6.6837824 c -6.61739,3.406175 -6.644609,11.353057 -6.644609,11.353057 h 27.219611 c 0,0 -0.03025,-7.947525 -6.64461,-11.353057 l 3.620207,-6.6837824 -2.616802,-1.611094 -3.916297,7.224788 C 35.170188,9.1531344 33.8455,8.9736585 32.324226,8.9736585 c -1.524298,0 -2.855034,0.1788314 -4.058746,0.4656061 l -3.9166,-7.224788 z m 1.926543,13.2035574 c 0.83776,0 1.506154,0.718547 1.506154,1.60465 0,0.886102 -0.677467,1.617538 -1.506154,1.617538 -0.837758,0 -1.518249,-0.72177 -1.518249,-1.617538 0,-0.886103 0.680491,-1.60465 1.518249,-1.60465 z m 12.097606,0 c 0.83776,0 1.506152,0.718547 1.506152,1.60465 0,0.886102 -0.677466,1.617538 -1.506152,1.617538 -0.837759,0 -1.518249,-0.72177 -1.518249,-1.617538 0,-0.886103 0.68049,-1.60465 1.518249,-1.60465 z m 12.224631,8.051282 c -1.739031,0 -3.157477,1.70776 -3.157477,3.811847 v 14.920342 c 0,2.104087 1.418446,3.821514 3.157477,3.821514 1.739029,0 2.891326,-1.717427 2.891326,-3.821514 V 27.281163 c 0,-2.10731 -1.149272,-3.81507 -2.891326,-3.81507 m -31.889287,0.0032 -7.42e-4,27.388596 c -2.1e-5,0.759567 0.799622,1.611094 1.512564,1.611094 h 4.536602 v 6.041925 c 0,2.0042 1.197662,3.624961 3.024402,3.624961 1.815214,0 3.084586,-1.622662 3.0244,-3.624639 v -6.041602 h 3.024401 v 6.041924 c 0,2.004201 1.197663,3.624961 3.024401,3.624961 1.815215,0 3.024402,-1.648889 3.024402,-3.624639 v -6.041602 h 4.536602 c 0.713758,0 1.512199,-0.850657 1.512199,-1.611094 V 23.470604 Z m -4.403528,0 c -1.739939,0 -3.157476,1.70776 -3.157476,3.811848 v 14.920341 c 0,2.104088 1.417537,3.821514 3.157476,3.821514 1.739938,0 2.891327,-1.717426 2.891327,-3.821514 V 27.281163 c 0,-2.10731 -1.149274,-3.81507 -2.891327,-3.81507 m 23.944183,-7.153258 m -25.335106,5.671051"
     id="path10" />
  <ellipse
     style="fill:#676767;stroke-width:0.929205"
     cx="48.854321"
     cy="48.99688"
     id="circle12"
     rx="14.890004"
     ry="14.844596" />
  <path
     style="fill:#e6e6e6;stroke-width:1.25118"
     d="m 46.549204,38.834171 -0.222125,2.639739 a 7.8556881,7.8734544 0 0 0 -2.294491,1.330877 l -2.394569,-1.130267 -2.49953,4.340033 2.174885,1.511916 a 7.8556881,7.8734544 0 0 0 -0.122052,1.328432 7.8556881,7.8734544 0 0 0 0.114728,1.333324 l -2.167562,1.507024 2.499529,4.340033 2.389688,-1.125376 a 7.8556881,7.8734544 0 0 0 2.299372,1.321093 l 0.222127,2.644631 h 4.999059 l 0.217244,-2.639738 a 7.8556881,7.8734544 0 0 0 2.299372,-1.330878 l 2.392128,1.130268 2.499529,-4.340033 -2.172443,-1.511917 a 7.8556881,7.8734544 0 0 0 0.122053,-1.328431 7.8556881,7.8734544 0 0 0 -0.114729,-1.333325 l 2.167562,-1.507023 -2.499529,-4.340033 -2.389688,1.125375 a 7.8556881,7.8734544 0 0 0 -2.299374,-1.321092 l -0.222125,-2.644632 z m 2.409214,6.262956 a 3.7488565,3.7582904 0 0 1 0.09032,0 3.7488565,3.7582904 0 0 1 3.749295,3.757774 3.7488565,3.7582904 0 0 1 -3.749295,3.757773 3.7488565,3.7582904 0 0 1 -3.749294,-3.757773 3.7488565,3.7582904 0 0 1 3.658978,-3.757774 z"
     id="path16" />
</svg>
