<?xml version="1.0" encoding="UTF-8" standalone="no"?>
<svg
   xmlns:dc="http://purl.org/dc/elements/1.1/"
   xmlns:cc="http://creativecommons.org/ns#"
   xmlns:rdf="http://www.w3.org/1999/02/22-rdf-syntax-ns#"
   xmlns:svg="http://www.w3.org/2000/svg"
   xmlns="http://www.w3.org/2000/svg"
   xmlns:sodipodi="http://sodipodi.sourceforge.net/DTD/sodipodi-0.dtd"
   xmlns:inkscape="http://www.inkscape.org/namespaces/inkscape"
   width="64"
   height="64"
   version="1"
   id="svg22"
   sodipodi:docname="android-sdk.svg"
   inkscape:version="1.0.2 (e86c870879, 2021-01-15)">
  <metadata
     id="metadata28">
    <rdf:RDF>
      <cc:Work
         rdf:about="">
        <dc:format>image/svg+xml</dc:format>
        <dc:type
           rdf:resource="http://purl.org/dc/dcmitype/StillImage" />
        <dc:title></dc:title>
      </cc:Work>
    </rdf:RDF>
  </metadata>
  <defs
     id="defs26" />
  <sodipodi:namedview
     pagecolor="#ffffff"
     bordercolor="#666666"
     borderopacity="1"
     objecttolerance="10"
     gridtolerance="10"
     guidetolerance="10"
     inkscape:pageopacity="0"
     inkscape:pageshadow="2"
     inkscape:window-width="1355"
     inkscape:window-height="912"
     id="namedview24"
     showgrid="false"
     inkscape:zoom="12.890625"
     inkscape:cx="32"
     inkscape:cy="32.587598"
     inkscape:window-x="441"
     inkscape:window-y="313"
     inkscape:window-maximized="0"
     inkscape:current-layer="svg22" />
  <rect
     style="fill:#29292a;stroke-width:1.04509"
     width="58.203762"
     height="58.847145"
     x="3.0016749"
     y="2.7117038"
     rx="29.1024"
     ry="29.424097"
     id="rect4" />
  <path
     style="opacity:1;fill:#e6e6e6;stroke:#e6e6e6;stroke-width:3.90556;stroke-linecap:round"
     d="m 19.33468,26.112148 -4.394896,-8.32975"
     id="path10" />
  <path
     style="opacity:1;fill:#e6e6e6;stroke:#e6e6e6;stroke-width:3.90556;stroke-linecap:round"
     d="m 45.154763,26.112148 4.394896,-8.32975"
     id="path12" />
  <path
     style="opacity:1;fill:#e6e6e6;stroke-width:1.4646"
     d="m 32.251237,18.92715 c -11.476018,0 -20.905371,9.912749 -21.974528,22.585552 -0.100943,2.405128 2.129855,2.403753 2.129855,2.403753 h 39.624969 c 0,0 2.294828,-5.27e-4 2.183501,-2.525775 C 53.096618,28.775423 43.690971,18.92715 32.251237,18.92715 Z"
     id="path14" />
  <path
     style="fill:#29292a;stroke-width:1.4646"
     d="m 21.258607,31.421802 a 2.7468103,3.1236567 0 0 1 2.746816,3.123663 2.7468103,3.1236567 0 0 1 -2.746816,3.123665 2.7468103,3.1236567 0 0 1 -2.746815,-3.123665 2.7468103,3.1236567 0 0 1 2.746815,-3.123663 z"
     id="path18" />
  <path
     style="fill:#29292a;stroke-width:1.4646"
     d="m 43.233137,31.421802 a 2.7468103,3.1236567 0 0 1 2.746815,3.123663 2.7468103,3.1236567 0 0 1 -2.746815,3.123665 2.7468103,3.1236567 0 0 1 -2.746817,-3.123665 2.7468103,3.1236567 0 0 1 2.746817,-3.123663 z"
     id="path20" />
</svg>
