<?xml version="1.0" encoding="UTF-8" standalone="no"?>
<svg
   xmlns:dc="http://purl.org/dc/elements/1.1/"
   xmlns:cc="http://creativecommons.org/ns#"
   xmlns:rdf="http://www.w3.org/1999/02/22-rdf-syntax-ns#"
   xmlns:svg="http://www.w3.org/2000/svg"
   xmlns="http://www.w3.org/2000/svg"
   xmlns:sodipodi="http://sodipodi.sourceforge.net/DTD/sodipodi-0.dtd"
   xmlns:inkscape="http://www.inkscape.org/namespaces/inkscape"
   width="64"
   height="64"
   version="1.1"
   id="svg73"
   sodipodi:docname="boinc.svg"
   inkscape:version="1.0.2 (e86c870879, 2021-01-15)">
  <metadata
     id="metadata77">
    <rdf:RDF>
      <cc:Work
         rdf:about="">
        <dc:format>image/svg+xml</dc:format>
        <dc:type
           rdf:resource="http://purl.org/dc/dcmitype/StillImage" />
        <dc:title></dc:title>
      </cc:Work>
    </rdf:RDF>
  </metadata>
  <sodipodi:namedview
     pagecolor="#ffffff"
     bordercolor="#666666"
     borderopacity="1"
     objecttolerance="10"
     gridtolerance="10"
     guidetolerance="10"
     inkscape:pageopacity="0"
     inkscape:pageshadow="2"
     inkscape:window-width="1920"
     inkscape:window-height="996"
     id="namedview75"
     showgrid="false"
     inkscape:zoom="12.578125"
     inkscape:cx="32"
     inkscape:cy="28.819876"
     inkscape:window-x="0"
     inkscape:window-y="0"
     inkscape:window-maximized="1"
     inkscape:current-layer="svg73"
     inkscape:document-rotation="0" />
  <defs
     id="defs29">
    <linearGradient
       id="b"
       x1="399.57"
       x2="399.57"
       y1="545.8"
       y2="517.8"
       gradientTransform="matrix(2.1429,0,0,2.1429,-826.36,-1107.5)"
       gradientUnits="userSpaceOnUse">
      <stop
         stop-color="#3889e9"
         offset="0"
         id="stop2" />
      <stop
         stop-color="#5ea5fb"
         offset="1"
         id="stop4" />
    </linearGradient>
    <linearGradient
       id="linearGradient862"
       x1="7.9373"
       x2="7.9373"
       y1="15.081"
       y2="1.852"
       gradientTransform="matrix(3.3743 0 0 3.3743 3.4312 3.4278)"
       gradientUnits="userSpaceOnUse">
      <stop
         stop-color="#f1efeb"
         offset="0"
         id="stop7" />
      <stop
         stop-color="#fff"
         offset="1"
         id="stop9" />
    </linearGradient>
    <linearGradient
       id="linearGradient910"
       x1="7.9373"
       x2="7.9373"
       y1="15.081"
       y2="1.852"
       gradientTransform="scale(3.7796)"
       gradientUnits="userSpaceOnUse">
      <stop
         stop-color="#613583"
         offset="0"
         id="stop12" />
      <stop
         stop-color="#a663c0"
         offset="1"
         id="stop14" />
    </linearGradient>
    <linearGradient
       id="linearGradient932"
       x1="379.24"
       x2="374.24"
       y1="546.85"
       y2="546.85"
       gradientTransform="matrix(2.1429 0 0 2.1429 -769.68 -1134.5)"
       gradientUnits="userSpaceOnUse">
      <stop
         stop-color="#f6f5f4"
         offset="0"
         id="stop17" />
      <stop
         stop-color="#fff"
         offset=".6"
         id="stop19" />
      <stop
         stop-color="#dddbd8"
         offset="1"
         id="stop21" />
    </linearGradient>
    <linearGradient
       id="linearGradient1146"
       x1="18"
       x2="18"
       y1="52"
       y2="12"
       gradientUnits="userSpaceOnUse">
      <stop
         stop-color="#5e337f"
         offset="0"
         id="stop24" />
      <stop
         stop-color="#ab60bf"
         offset="1"
         id="stop26" />
    </linearGradient>
  </defs>
  <circle
     cx="32.02"
     cy="32.044"
     r="30.001"
     fill-opacity="0"
     stroke-width="1.5715"
     id="circle39" />
  <circle
     cx="32.02"
     cy="32.044"
     r="0"
     fill="url(#b)"
     stroke-width="1.5715"
     id="circle41" />
  <ellipse
     style="fill:#29292a;stroke-width:1.30734"
     cx="31.909988"
     cy="32.124115"
     id="circle8"
     rx="10.391958"
     ry="10.525903" />
  <path
     style="fill:#29292a;stroke-width:1.30734"
     d="m 53.363698,2.3812409 -5.236571,9.1844671 -3.973097,6.9693 a 18.185928,18.42033 0 0 1 5.941887,13.589103 18.185928,18.42033 0 0 1 -0.857541,5.576468 l 6.860316,4.014026 a 25.979897,26.314755 0 0 0 1.791192,-9.590494 25.979897,26.314755 0 0 0 -4.2674,-14.411438 L 59.254846,7.8343569 C 57.496012,5.8028061 55.522235,3.9782547 53.363698,2.3812409 Z M 7.9293225,4.4268023 C 5.9236222,6.2083068 4.1222904,8.2075222 2.5455998,10.393878 l 9.0675912,5.304069 6.880616,4.024307 a 18.185928,18.42033 0 0 1 13.416181,-6.018473 18.185928,18.42033 0 0 1 5.505506,0.868594 L 41.378441,7.6236336 A 25.979897,26.314755 0 0 0 31.909988,5.8093555 25.979897,26.314755 0 0 0 17.681936,10.131758 Z M 7.7212813,22.533617 a 25.979897,26.314755 0 0 0 -1.7911916,9.590494 25.979897,26.314755 0 0 0 4.2674013,14.411438 l -5.6323618,9.878316 c 1.7588346,2.03155 3.7326094,3.856101 5.8911448,5.453114 l 5.236574,-9.184465 3.973098,-6.969299 A 18.185928,18.42033 0 0 1 13.724059,32.124111 18.185928,18.42033 0 0 1 14.581597,26.547643 Z M 45.326169,44.525968 A 18.185928,18.42033 0 0 1 31.909988,50.54444 18.185928,18.42033 0 0 1 26.404482,49.675848 l -3.962948,6.94874 a 25.979897,26.314755 0 0 0 9.468454,1.814278 25.979897,26.314755 0 0 0 14.228051,-4.322403 l 9.752612,5.704956 c 2.005701,-1.781503 3.807032,-3.780719 5.383723,-5.967077 l -9.067591,-5.304066 z"
     id="path12" />
</svg>
