<?xml version="1.0" encoding="UTF-8" standalone="no"?>
<svg
   xmlns:dc="http://purl.org/dc/elements/1.1/"
   xmlns:cc="http://creativecommons.org/ns#"
   xmlns:rdf="http://www.w3.org/1999/02/22-rdf-syntax-ns#"
   xmlns:svg="http://www.w3.org/2000/svg"
   xmlns="http://www.w3.org/2000/svg"
   xmlns:sodipodi="http://sodipodi.sourceforge.net/DTD/sodipodi-0.dtd"
   xmlns:inkscape="http://www.inkscape.org/namespaces/inkscape"
   width="64"
   height="64"
   version="1.1"
   id="svg73"
   sodipodi:docname="brasero.svg"
   inkscape:version="1.0.2 (e86c870879, 2021-01-15)">
  <metadata
     id="metadata77">
    <rdf:RDF>
      <cc:Work
         rdf:about="">
        <dc:format>image/svg+xml</dc:format>
        <dc:type
           rdf:resource="http://purl.org/dc/dcmitype/StillImage" />
        <dc:title />
      </cc:Work>
    </rdf:RDF>
  </metadata>
  <sodipodi:namedview
     pagecolor="#ffffff"
     bordercolor="#666666"
     borderopacity="1"
     objecttolerance="10"
     gridtolerance="10"
     guidetolerance="10"
     inkscape:pageopacity="0"
     inkscape:pageshadow="2"
     inkscape:window-width="1920"
     inkscape:window-height="996"
     id="namedview75"
     showgrid="false"
     inkscape:zoom="12.578125"
     inkscape:cx="32"
     inkscape:cy="32"
     inkscape:window-x="0"
     inkscape:window-y="0"
     inkscape:window-maximized="1"
     inkscape:current-layer="svg73"
     inkscape:document-rotation="0" />
  <defs
     id="defs29">
    <linearGradient
       id="b"
       x1="399.57"
       x2="399.57"
       y1="545.8"
       y2="517.8"
       gradientTransform="matrix(2.1429,0,0,2.1429,-826.36,-1107.5)"
       gradientUnits="userSpaceOnUse">
      <stop
         stop-color="#3889e9"
         offset="0"
         id="stop2" />
      <stop
         stop-color="#5ea5fb"
         offset="1"
         id="stop4" />
    </linearGradient>
    <linearGradient
       id="linearGradient862"
       x1="7.9373"
       x2="7.9373"
       y1="15.081"
       y2="1.852"
       gradientTransform="matrix(3.3743 0 0 3.3743 3.4312 3.4278)"
       gradientUnits="userSpaceOnUse">
      <stop
         stop-color="#f1efeb"
         offset="0"
         id="stop7" />
      <stop
         stop-color="#fff"
         offset="1"
         id="stop9" />
    </linearGradient>
    <linearGradient
       id="linearGradient910"
       x1="7.9373"
       x2="7.9373"
       y1="15.081"
       y2="1.852"
       gradientTransform="scale(3.7796)"
       gradientUnits="userSpaceOnUse">
      <stop
         stop-color="#613583"
         offset="0"
         id="stop12" />
      <stop
         stop-color="#a663c0"
         offset="1"
         id="stop14" />
    </linearGradient>
    <linearGradient
       id="linearGradient932"
       x1="379.24"
       x2="374.24"
       y1="546.85"
       y2="546.85"
       gradientTransform="matrix(2.1429 0 0 2.1429 -769.68 -1134.5)"
       gradientUnits="userSpaceOnUse">
      <stop
         stop-color="#f6f5f4"
         offset="0"
         id="stop17" />
      <stop
         stop-color="#fff"
         offset=".6"
         id="stop19" />
      <stop
         stop-color="#dddbd8"
         offset="1"
         id="stop21" />
    </linearGradient>
    <linearGradient
       id="linearGradient1146"
       x1="18"
       x2="18"
       y1="52"
       y2="12"
       gradientUnits="userSpaceOnUse">
      <stop
         stop-color="#5e337f"
         offset="0"
         id="stop24" />
      <stop
         stop-color="#ab60bf"
         offset="1"
         id="stop26" />
    </linearGradient>
    <mask
       id="deepin-boot-maker-f-5"
       fill="#ffffff">
      <path
         id="use91-6"
         d="m 252,0 c 19.88225,0 36,16.117749 36,36 V 318 H 0 V 113.56854 C 0,102.95988 4.2142736,92.785726 11.715729,85.284271 L 85.284271,11.715729 C 92.785726,4.2142736 102.95988,0 113.56854,0 Z m 5,16 c -8.28427,0 -15,6.715729 -15,15 0,8.284271 6.71573,15 15,15 8.28427,0 15,-6.715729 15,-15 0,-8.284271 -6.71573,-15 -15,-15 z" />
    </mask>
    <linearGradient
       x1="88.308749"
       y1="36.458094"
       x2="88.308749"
       y2="149.02749"
       id="linearGradient-13"
       gradientTransform="matrix(0.47883332,0,0,0.4687706,51.537377,52.500287)"
       gradientUnits="userSpaceOnUse">
      <stop
         stop-color="#4B4B4B"
         offset="0%"
         id="stop94" />
      <stop
         stop-color="#070707"
         offset="100%"
         id="stop96" />
    </linearGradient>
    <linearGradient
       id="g"
       x1="500"
       x2="500"
       y1="4"
       y2="1024"
       gradientTransform="matrix(0.09457411,0,0,0.08931734,49.458633,53.518469)"
       gradientUnits="userSpaceOnUse">
      <stop
         stop-color="#fff"
         offset="0"
         id="stop7-3" />
      <stop
         stop-color="#e6e6e6"
         offset="1"
         id="stop9-5" />
    </linearGradient>
  </defs>
  <path
     style="fill:#e6e6e6;stroke-width:1.04142"
     d="M 32.193497,16.57647 A 15.599043,15.643463 0 0 0 16.594456,32.219933 15.599043,15.643463 0 0 0 32.193497,47.863396 15.599043,15.643463 0 0 0 47.79254,32.219933 15.599043,15.643463 0 0 0 32.193497,16.57647 Z m 0,9.386078 c 3.446141,0 6.239618,2.801432 6.239618,6.257385 0,3.455954 -2.793477,6.257386 -6.239618,6.257386 -3.44614,0 -6.239615,-2.801432 -6.239615,-6.257386 0,-3.455953 2.793475,-6.257385 6.239615,-6.257385 z"
     id="path4" />
  <circle
     cx="32.02"
     cy="32.044"
     r="30.001"
     fill-opacity="0"
     stroke-width="1.5715"
     id="circle39" />
  <circle
     cx="32.02"
     cy="32.044"
     r="0"
     fill="url(#b)"
     stroke-width="1.5715"
     id="circle41" />
  <path
     fill="#ffffff"
     d="m 32.166467,61.321017 c -16.082864,0 -29.120595,-13.049142 -29.120595,-29.146069 0,-16.096935 13.037731,-29.1460798 29.120595,-29.1460798 16.082845,0 29.120589,13.0491448 29.120589,29.1460798 0,16.096927 -13.037744,29.146069 -29.120589,29.146069 z m 0,-51.8152559 c -12.508894,0 -22.6493527,10.1493539 -22.6493527,22.6691869 0,0.89427 0.7243217,1.61922 1.6178107,1.61922 0.893494,0 1.617809,-0.724929 1.617809,-1.61922 0,-10.73129 8.691824,-19.430729 19.413733,-19.430729 0.89349,0 1.61781,-0.724954 1.61781,-1.619216 0,-0.894282 -0.724322,-1.6192419 -1.61781,-1.6192419 z m 0,35.6229949 c 7.147935,0 12.942483,-5.799629 12.942483,-12.953808 0,-7.154189 -5.794548,-12.953823 -12.942483,-12.953823 -7.14794,0 -12.942488,5.799634 -12.942488,12.953823 0,7.154179 5.794548,12.953808 12.942488,12.953808 z m 0,-3.238452 c -5.360956,0 -9.706866,-4.349712 -9.706866,-9.715356 0,-5.365649 4.34591,-9.715369 9.706866,-9.715369 5.360949,0 9.706864,4.34972 9.706864,9.715369 0,5.365644 -4.345915,9.715356 -9.706864,9.715356 z m 0,-3.238458 c 3.573963,0 6.471237,-2.899801 6.471237,-6.476898 0,-3.577106 -2.897274,-6.476913 -6.471237,-6.476913 -3.573975,0 -6.471243,2.899807 -6.471243,6.476913 0,3.577097 2.897268,6.476898 6.471243,6.476898 z"
     id="path42"
     style="fill:#29292a;stroke-width:0.303471" />
</svg>
