<?xml version="1.0" encoding="UTF-8" standalone="no"?>
<svg
   xmlns:dc="http://purl.org/dc/elements/1.1/"
   xmlns:cc="http://creativecommons.org/ns#"
   xmlns:rdf="http://www.w3.org/1999/02/22-rdf-syntax-ns#"
   xmlns:svg="http://www.w3.org/2000/svg"
   xmlns="http://www.w3.org/2000/svg"
   xmlns:sodipodi="http://sodipodi.sourceforge.net/DTD/sodipodi-0.dtd"
   xmlns:inkscape="http://www.inkscape.org/namespaces/inkscape"
   width="64"
   height="64"
   version="1.1"
   id="svg73"
   sodipodi:docname="celestia.svg"
   inkscape:version="1.0.2 (e86c870879, 2021-01-15)">
  <metadata
     id="metadata77">
    <rdf:RDF>
      <cc:Work
         rdf:about="">
        <dc:format>image/svg+xml</dc:format>
        <dc:type
           rdf:resource="http://purl.org/dc/dcmitype/StillImage" />
        <dc:title></dc:title>
      </cc:Work>
    </rdf:RDF>
  </metadata>
  <sodipodi:namedview
     pagecolor="#ffffff"
     bordercolor="#666666"
     borderopacity="1"
     objecttolerance="10"
     gridtolerance="10"
     guidetolerance="10"
     inkscape:pageopacity="0"
     inkscape:pageshadow="2"
     inkscape:window-width="1541"
     inkscape:window-height="738"
     id="namedview75"
     showgrid="false"
     inkscape:zoom="8.8940775"
     inkscape:cx="32"
     inkscape:cy="28.819876"
     inkscape:window-x="293"
     inkscape:window-y="145"
     inkscape:window-maximized="0"
     inkscape:current-layer="svg73"
     inkscape:document-rotation="0" />
  <defs
     id="defs29">
    <linearGradient
       id="b"
       x1="399.57"
       x2="399.57"
       y1="545.8"
       y2="517.8"
       gradientTransform="matrix(2.1429,0,0,2.1429,-826.36,-1107.5)"
       gradientUnits="userSpaceOnUse">
      <stop
         stop-color="#3889e9"
         offset="0"
         id="stop2" />
      <stop
         stop-color="#5ea5fb"
         offset="1"
         id="stop4" />
    </linearGradient>
    <linearGradient
       id="linearGradient862"
       x1="7.9373"
       x2="7.9373"
       y1="15.081"
       y2="1.852"
       gradientTransform="matrix(3.3743 0 0 3.3743 3.4312 3.4278)"
       gradientUnits="userSpaceOnUse">
      <stop
         stop-color="#f1efeb"
         offset="0"
         id="stop7" />
      <stop
         stop-color="#fff"
         offset="1"
         id="stop9" />
    </linearGradient>
    <linearGradient
       id="linearGradient910"
       x1="7.9373"
       x2="7.9373"
       y1="15.081"
       y2="1.852"
       gradientTransform="scale(3.7796)"
       gradientUnits="userSpaceOnUse">
      <stop
         stop-color="#613583"
         offset="0"
         id="stop12" />
      <stop
         stop-color="#a663c0"
         offset="1"
         id="stop14" />
    </linearGradient>
    <linearGradient
       id="linearGradient932"
       x1="379.24"
       x2="374.24"
       y1="546.85"
       y2="546.85"
       gradientTransform="matrix(2.1429 0 0 2.1429 -769.68 -1134.5)"
       gradientUnits="userSpaceOnUse">
      <stop
         stop-color="#f6f5f4"
         offset="0"
         id="stop17" />
      <stop
         stop-color="#fff"
         offset=".6"
         id="stop19" />
      <stop
         stop-color="#dddbd8"
         offset="1"
         id="stop21" />
    </linearGradient>
    <linearGradient
       id="linearGradient1146"
       x1="18"
       x2="18"
       y1="52"
       y2="12"
       gradientUnits="userSpaceOnUse">
      <stop
         stop-color="#5e337f"
         offset="0"
         id="stop24" />
      <stop
         stop-color="#ab60bf"
         offset="1"
         id="stop26" />
    </linearGradient>
  </defs>
  <circle
     cx="32.02"
     cy="32.044"
     r="30.001"
     fill-opacity="0"
     stroke-width="1.5715"
     id="circle39" />
  <circle
     cx="32.02"
     cy="32.044"
     r="0"
     fill="url(#b)"
     stroke-width="1.5715"
     id="circle41" />
  <g
     fill="#000000"
     id="g6"
     style="fill:#29292a"
     transform="matrix(0.6790088,0,0,0.77676535,-1.0251114,-6.8901821)">
    <path
       d="M 75.132,54.237 C 76.739,44.761 72.844,34.785 64.356,29.063 55.868,23.341 45.159,23.472 36.978,28.515 22.357,21.52 10.602,19.351 7.525,23.916 3.7,29.589 14.542,43.79 32.487,57.548 c 0.028,0.021 0.055,0.042 0.083,0.063 0.593,0.454 1.195,0.907 1.803,1.36 0.083,0.062 0.166,0.125 0.25,0.188 0.546,0.404 1.1,0.808 1.658,1.211 0.148,0.107 0.293,0.215 0.442,0.322 0.528,0.379 1.064,0.756 1.602,1.133 0.177,0.124 0.35,0.249 0.528,0.373 0.713,0.497 1.435,0.991 2.165,1.483 0.732,0.493 1.463,0.978 2.192,1.454 0.144,0.094 0.286,0.183 0.429,0.276 0.592,0.384 1.183,0.765 1.773,1.138 0.118,0.074 0.234,0.146 0.352,0.219 0.618,0.389 1.235,0.772 1.85,1.148 0.078,0.047 0.155,0.093 0.233,0.14 0.657,0.4 1.313,0.794 1.966,1.18 0.031,0.018 0.062,0.035 0.092,0.053 C 69.388,80.765 86.618,85.488 90.443,79.815 93.52,75.25 87.1,65.167 75.132,54.237 Z M 21.145,31.439 c 1.19,-1.766 5.329,-1.304 11.088,0.865 -1.063,1.085 -2.048,2.275 -2.928,3.581 -1.248,1.852 -2.209,3.81 -2.91,5.824 -4.374,-4.671 -6.468,-8.463 -5.25,-10.27 z m 57.214,38.573 c -1.218,1.807 -5.519,1.286 -11.488,-1.015 1.604,-1.405 3.059,-3.031 4.307,-4.883 0.88,-1.305 1.614,-2.664 2.221,-4.058 4.17,4.526 6.151,8.19 4.96,9.956 z"
       id="path2"
       style="fill:#29292a" />
    <path
       d="m 25.25,53.613 c 0.985,6.802 4.728,13.179 10.876,17.323 6.148,4.145 13.463,5.223 20.138,3.585 C 51.1,71.842 45.663,68.622 40.178,64.924 34.694,61.228 29.67,57.395 25.25,53.613 Z"
       id="path4"
       style="fill:#29292a" />
  </g>
  <ellipse
     style="fill:#29292a;stroke:none"
     id="path40"
     cx="23.865143"
     cy="6.3813419"
     rx="3.8542261"
     ry="3.8949358" />
  <ellipse
     style="fill:#29292a;stroke:none"
     id="path42"
     cx="25.517126"
     cy="56.059437"
     rx="2.0203118"
     ry="1.903314" />
</svg>
