<?xml version="1.0" encoding="UTF-8" standalone="no"?>
<svg
   xmlns:dc="http://purl.org/dc/elements/1.1/"
   xmlns:cc="http://creativecommons.org/ns#"
   xmlns:rdf="http://www.w3.org/1999/02/22-rdf-syntax-ns#"
   xmlns:svg="http://www.w3.org/2000/svg"
   xmlns="http://www.w3.org/2000/svg"
   xmlns:sodipodi="http://sodipodi.sourceforge.net/DTD/sodipodi-0.dtd"
   xmlns:inkscape="http://www.inkscape.org/namespaces/inkscape"
   width="64"
   height="64"
   version="1.1"
   id="svg24"
   sodipodi:docname="cockos-reaper.svg"
   inkscape:version="1.0.2 (e86c870879, 2021-01-15)">
  <metadata
     id="metadata30">
    <rdf:RDF>
      <cc:Work
         rdf:about="">
        <dc:format>image/svg+xml</dc:format>
        <dc:type
           rdf:resource="http://purl.org/dc/dcmitype/StillImage" />
        <dc:title />
      </cc:Work>
    </rdf:RDF>
  </metadata>
  <defs
     id="defs28" />
  <sodipodi:namedview
     pagecolor="#ffffff"
     bordercolor="#666666"
     borderopacity="1"
     objecttolerance="10"
     gridtolerance="10"
     guidetolerance="10"
     inkscape:pageopacity="0"
     inkscape:pageshadow="2"
     inkscape:window-width="1534"
     inkscape:window-height="970"
     id="namedview26"
     showgrid="false"
     inkscape:zoom="12.890625"
     inkscape:cx="32"
     inkscape:cy="32"
     inkscape:window-x="0"
     inkscape:window-y="1"
     inkscape:window-maximized="0"
     inkscape:current-layer="svg24"
     inkscape:document-rotation="0" />
  <path
     style="fill:#676767"
     d="m 33.842693,15.900021 c -1.591219,-0.0184 -3.190808,0.121044 -4.816139,0.418359 -8.91e-4,1.63e-4 -0.0018,-1.63e-4 -0.0028,0 -2.708064,0.495648 -5.485274,1.430068 -8.398276,2.80273 0.398846,0.655541 0.811238,1.275088 1.234,1.864841 0.422763,0.589768 0.856754,1.148087 1.293928,1.687109 3.060556,3.773843 6.356166,6.486228 8.259349,10.718736 3.37e-4,7.52e-4 -3.38e-4,0.002 0,0.0028 0.950866,2.115463 1.553741,4.610453 1.604471,7.806631 1.4e-5,9.38e-4 -1.5e-5,0.0018 0,0.0028 0.05077,3.197439 -0.450436,7.094446 -1.707986,12.017562 -0.507664,1.988216 -1.136315,4.14003 -1.904117,6.483194 0.434615,0.112742 0.864568,0.200161 1.293928,0.246095 0.268087,0.02858 0.536597,0.04909 0.800939,0.04909 4.721904,0 10.09112,-4.796314 12.871183,-7.65624 5.639483,-5.800758 11.220628,-14.371379 13.023729,-22.410908 -2.989225,-3.858994 -5.33822,-6.874103 -8.975777,-9.540223 -4.79756,-3.516335 -9.767432,-4.436971 -14.576443,-4.492572 z"
     id="path6" />
  <path
     style="fill:#29292a"
     d="M 57.988553,24.182391 C 57.451985,8.9338013 39.910779,4.0000502 31.499641,4.0000502 c -3.880002,0 -9.702371,1.0538767 -14.903035,3.682566 C 15.333752,8.3209972 14.110315,9.0533346 12.957823,9.88537 9.5833824,12.320927 6.8401058,15.617749 5.6466227,19.968449 9.0058229,18.484983 12.14903,17.25259 15.096212,16.28484 c 1.218184,-0.400359 2.402732,-0.75426 3.558376,-1.066404 12.532886,-3.38817 21.507921,-1.618137 29.764553,5.173861 3.041254,2.501848 5.986861,5.680705 8.976086,9.539699 0.20811,-0.928602 0.36577,-1.850417 0.467197,-2.759706 0.112986,-1.013684 0.160814,-2.013276 0.126124,-2.989899 z"
     id="path10" />
  <path
     style="fill:#29292a"
     d="m 17.442729,20.761796 c -3.720965,2.077807 -7.6892603,4.819656 -12.0318074,8.229332 1.5608298,8.305739 7.3586544,17.32363 13.2193864,23.351451 2.374879,2.442864 6.638495,6.289598 10.774431,7.361743 0.76766,-2.342794 1.397458,-4.493977 1.905053,-6.481921 8.4e-5,-3.33e-4 -8.3e-5,-5.21e-4 0,-10e-4 0,0 0,-10e-4 0,-10e-4 0.04646,-0.749666 0.08278,-1.473521 0.10982,-2.173554 0,0 0,-10e-4 0,-10e-4 0.02706,-0.699985 0.04504,-1.376075 0.05338,-2.028789 0,0 0,-10e-4 0,-10e-4 0.0084,-0.652662 0.0075,-1.282394 -0.0021,-1.890135 0,0 0,-10e-4 0,-10e-4 -0.01918,-1.215743 -0.07356,-2.343804 -0.160123,-3.393885 0,0 0,-10e-4 0,-10e-4 -0.04325,-0.524819 -0.09497,-1.030043 -0.153966,-1.517003 0,0 0,-10e-4 0,-10e-4 -0.118049,-0.97417 -0.266839,-1.87508 -0.443417,-2.711845 -0.794788,-3.766381 -2.153193,-6.236158 -3.804973,-8.267056 0,0 0,-0.001 0,-0.001 -0.183556,-0.225667 -0.371007,-0.445639 -0.561456,-0.66165 -0.380899,-0.432022 -0.774299,-0.846457 -1.178341,-1.253973 -0.808068,-0.815008 -1.656727,-1.600451 -2.521938,-2.430467 -0.432773,-0.415172 -0.869462,-0.841437 -1.30767,-1.288637 -0.218696,-0.223162 -0.437968,-0.451465 -0.656915,-0.686122 0,0 -0.0011,-0.001 -0.0011,-0.001 -0.657843,-0.705095 -1.314677,-1.467076 -1.961507,-2.318326 -0.431221,-0.567496 -0.857931,-1.173995 -1.276879,-1.829982 z"
     id="path12" />
</svg>
