<?xml version="1.0" encoding="UTF-8" standalone="no"?>
<svg
   xmlns:dc="http://purl.org/dc/elements/1.1/"
   xmlns:cc="http://creativecommons.org/ns#"
   xmlns:rdf="http://www.w3.org/1999/02/22-rdf-syntax-ns#"
   xmlns:svg="http://www.w3.org/2000/svg"
   xmlns="http://www.w3.org/2000/svg"
   xmlns:sodipodi="http://sodipodi.sourceforge.net/DTD/sodipodi-0.dtd"
   xmlns:inkscape="http://www.inkscape.org/namespaces/inkscape"
   width="64"
   height="64"
   version="1"
   id="svg20"
   sodipodi:docname="code-insiders.svg"
   inkscape:version="1.0.2 (e86c870879, 2021-01-15)">
  <metadata
     id="metadata26">
    <rdf:RDF>
      <cc:Work
         rdf:about="">
        <dc:format>image/svg+xml</dc:format>
        <dc:type
           rdf:resource="http://purl.org/dc/dcmitype/StillImage" />
        <dc:title />
      </cc:Work>
    </rdf:RDF>
  </metadata>
  <defs
     id="defs24" />
  <sodipodi:namedview
     pagecolor="#ffffff"
     bordercolor="#666666"
     borderopacity="1"
     objecttolerance="10"
     gridtolerance="10"
     guidetolerance="10"
     inkscape:pageopacity="0"
     inkscape:pageshadow="2"
     inkscape:window-width="1717"
     inkscape:window-height="738"
     id="namedview22"
     showgrid="false"
     inkscape:zoom="12.890625"
     inkscape:cx="32"
     inkscape:cy="51.086279"
     inkscape:window-x="55"
     inkscape:window-y="45"
     inkscape:window-maximized="0"
     inkscape:current-layer="svg20"
     inkscape:document-rotation="0" />
  <path
     style="fill:#29292a"
     d="M 58.019345,9.9324272 46.488043,4.3480828 C 45.153394,3.7016924 43.558159,3.9743549 42.510555,5.0279469 L 4.7610888,39.025482 c -1.0153655,0.931204 -1.0141981,2.538983 0.00252,3.468648 l 3.083497,2.819332 c 0.8312193,0.76014 2.0830327,0.815985 2.9779782,0.133279 L 56.284195,11.381139 c 1.52506,-1.163659 3.715585,-0.06958 3.715585,1.855774 v -0.13468 c 0,-1.35151 -0.769743,-2.583531 -1.980435,-3.1698198 z"
     id="path6" />
  <path
     style="fill:#29292a"
     d="m 58.019345,54.068061 -11.531302,5.584358 c -1.334649,0.646236 -2.929884,0.373574 -3.977488,-0.679878 L 4.7610888,22.912841 c -1.0153655,-0.931135 -1.0141981,-2.538984 0.00252,-3.46862 l 3.083497,-2.819445 C 8.678325,15.864748 9.9301384,15.808791 10.825084,16.491637 l 45.459111,36.127614 c 1.52506,1.163617 3.715585,0.06972 3.715585,-1.855802 v 0.13482 c 0,1.351398 -0.769743,2.583405 -1.980435,3.169834 z"
     id="path12" />
  <path
     style="fill:#29292a"
     d="m 46.488697,59.653301 c -1.335083,0.645788 -2.930318,0.372916 -3.977924,-0.68076 1.290705,1.298185 3.497844,0.378642 3.497844,-1.457378 V 6.4851707 c 0,-1.8360194 -2.207139,-2.7555204 -3.497844,-1.4572518 1.047606,-1.053676 2.642841,-1.3267305 3.977924,-0.6809139 L 58.018033,9.9236775 C 59.229599,10.509658 60,11.742127 60,13.094225 v 37.81215 c 0,1.352056 -0.770401,2.584497 -1.981967,3.170478 z"
     id="path16" />
  <ellipse
     style="fill:#676767;stroke-width:0.929205"
     cx="48.980888"
     cy="48.873863"
     id="circle12"
     rx="14.890004"
     ry="14.844596" />
  <g
     aria-label="i"
     id="text32"
     style="font-style:normal;font-weight:normal;font-size:40px;line-height:1.25;font-family:sans-serif;opacity:0.85;fill:#ffffff;fill-opacity:1;stroke:none"
     transform="matrix(1,0,0,0.71668452,0.12859849,15.193561)">
    <path
       d="m 47.363235,40.28582 h 3.59375 v 21.875 h -3.59375 z m 0,-8.515625 h 3.59375 v 4.550781 h -3.59375 z"
       id="path34" />
  </g>
</svg>
