<?xml version="1.0" encoding="UTF-8" standalone="no"?>
<svg
   xmlns:dc="http://purl.org/dc/elements/1.1/"
   xmlns:cc="http://creativecommons.org/ns#"
   xmlns:rdf="http://www.w3.org/1999/02/22-rdf-syntax-ns#"
   xmlns:svg="http://www.w3.org/2000/svg"
   xmlns="http://www.w3.org/2000/svg"
   xmlns:sodipodi="http://sodipodi.sourceforge.net/DTD/sodipodi-0.dtd"
   xmlns:inkscape="http://www.inkscape.org/namespaces/inkscape"
   width="64"
   height="64"
   version="1.1"
   id="svg14"
   sodipodi:docname="com.github.geigi.cozy.svg"
   inkscape:version="1.0.2 (e86c870879, 2021-01-15)">
  <metadata
     id="metadata20">
    <rdf:RDF>
      <cc:Work
         rdf:about="">
        <dc:format>image/svg+xml</dc:format>
        <dc:type
           rdf:resource="http://purl.org/dc/dcmitype/StillImage" />
        <dc:title></dc:title>
      </cc:Work>
    </rdf:RDF>
  </metadata>
  <defs
     id="defs18" />
  <sodipodi:namedview
     pagecolor="#ffffff"
     bordercolor="#666666"
     borderopacity="1"
     objecttolerance="10"
     gridtolerance="10"
     guidetolerance="10"
     inkscape:pageopacity="0"
     inkscape:pageshadow="2"
     inkscape:window-width="1336"
     inkscape:window-height="939"
     id="namedview16"
     showgrid="false"
     inkscape:zoom="12.890625"
     inkscape:cx="32"
     inkscape:cy="27.843755"
     inkscape:window-x="454"
     inkscape:window-y="57"
     inkscape:window-maximized="0"
     inkscape:current-layer="svg14"
     inkscape:document-rotation="0" />
  <path
     style="fill:#d8d8d8"
     d="m 36.761913,11.907853 v 28 l 4,-4 4,4 v -28 z"
     id="path8" />
  <path
     style="opacity:0.2"
     d="M 38,5 V 33 L 42,29 46,33 V 5 Z"
     id="path6" />
  <path
     style="opacity:0.2;fill:#ffffff"
     d="m 11.36982,8.9777285 c -1.6619999,0 -2.9999999,1.3379995 -2.9999999,2.9999995 v 1 c 0,-1.662 1.338,-2.9999995 2.9999999,-2.9999995 h 38 c 1.662,0 3,1.3379995 3,2.9999995 v -1 c 0,-1.662 -1.338,-2.9999995 -3,-2.9999995 z"
     id="path12" />
  <rect
     style="fill:#29292a"
     width="44"
     height="56"
     x="10"
     y="4"
     rx="3"
     ry="3"
     id="rect4" />
  <path
     style="opacity:1;fill:#676767"
     d="M 13 4 C 11.338 4 10 5.338 10 7 L 10 57 C 10 58.662 11.338 60 13 60 L 18 60 L 18 4 L 13 4 z"
     id="path10" />
  <g
     transform="matrix(2.961415,0,0,2.9682019,-49.508958,7.9781581)"
     id="g87"
     style="fill:#ffffff;opacity:0.85">
    <path
       d="m 30.085,3.6556 -2.4419,0.48227 c -0.39122,0.08363 -0.46709,0.30195 -0.45785,0.6471 l 0.0061,5.3874 c -0.01778,0.37865 -0.05888,0.58656 -0.49448,0.65625 -1.5416,0.22946 -1.8408,0.70696 -1.8314,1.3858 0.0093,0.67603 0.55728,1.2177 1.3125,1.1416 0.66234,-0.07367 1.1558,-0.26648 1.459,-0.87907 0.11739,-0.23073 0.15723,-0.71067 0.1282,-1.1965 l -0.0061,-4.2855 c 0.0013,-0.29999 -0.04958,-0.46698 0.34797,-0.54942 l 2.393,-0.48227 z"
       fill="url(#linearGradient909)"
       id="path77"
       style="fill:#ffffff" />
    <path
       d="m 32.264,5.9693 0.0061,3.2019 c -0.01778,0.37865 -0.05456,0.55203 -0.49016,0.62172 -1.5416,0.22946 -1.8451,0.7415 -1.8357,1.4203 0.0093,0.67603 0.56591,1.1832 1.3212,1.107 0.66234,-0.07367 1.1385,-0.24489 1.4418,-0.85749 0.11739,-0.23073 0.12701,-0.68908 0.13683,-1.1836 l -0.0041,-6.5559 C 32.83975,3.23161 32.72813,3.10482 32.16869,3.23127 l -2.3966,0.48637 0.42722,2.3056 1.7214,-0.3472 c 0.23106,-0.046603 0.33986,0.032458 0.34338,0.29311 z"
       fill="url(#linearGradient901)"
       id="path79"
       style="fill:#ffffff" />
    <path
       d="m 32.264,5.9693 0.0061,3.2019 c -0.01778,0.37865 -0.05456,0.55203 -0.49016,0.62172 -1.5416,0.22946 -1.8451,0.7415 -1.8357,1.4203 0.0093,0.67603 0.56591,1.1832 1.3212,1.107 0.66234,-0.07367 1.1385,-0.24489 1.4418,-0.85749 0.11739,-0.23073 0.12701,-0.68908 0.13683,-1.1836 l -0.0041,-6.5559 C 32.83975,3.23161 32.72813,3.10482 32.16869,3.23127 l -2.3966,0.48637 0.42722,2.3056 1.7214,-0.3472 c 0.23106,-0.046603 0.33986,0.032458 0.34338,0.29311 z"
       fill="url(#linearGradient921)"
       id="path81"
       style="fill:#ffffff" />
    <path
       d="m 32.264,5.9693 0.0061,3.2019 c -0.01778,0.37865 -0.05456,0.55203 -0.49016,0.62172 -1.5416,0.22946 -1.8451,0.7415 -1.8357,1.4203 0.0093,0.67603 0.56591,1.1832 1.3212,1.107 0.66234,-0.07367 1.1385,-0.24489 1.4418,-0.85749 0.11739,-0.23073 0.12701,-0.68908 0.13683,-1.1836 l -0.0041,-6.5559 C 32.83975,3.23161 32.72813,3.10482 32.16869,3.23127 l -2.3966,0.48637 0.42722,2.3056 1.7214,-0.3472 c 0.23106,-0.046603 0.33986,0.032458 0.34338,0.29311 z"
       fill="url(#linearGradient937)"
       id="path83"
       style="fill:#ffffff" />
    <path
       d="m 30.085,3.6556 -2.4419,0.48227 c -0.39122,0.08363 -0.46709,0.30195 -0.45785,0.6471 l 0.0061,5.3874 c -0.01778,0.37865 -0.05888,0.58656 -0.49448,0.65625 -1.5416,0.22946 -1.8408,0.70696 -1.8314,1.3858 0.0093,0.67603 0.55728,1.2177 1.3125,1.1416 0.66234,-0.07367 1.1558,-0.26648 1.459,-0.87907 0.11739,-0.23073 0.15723,-0.71067 0.1282,-1.1965 l -0.0061,-4.2855 c 0.0013,-0.29999 -0.04958,-0.46698 0.34797,-0.54942 l 2.393,-0.48227 z"
       fill="url(#linearGradient949)"
       id="path85"
       style="fill:#ffffff" />
  </g>
</svg>
