<?xml version="1.0" encoding="UTF-8" standalone="no"?>
<svg
   xmlns:dc="http://purl.org/dc/elements/1.1/"
   xmlns:cc="http://creativecommons.org/ns#"
   xmlns:rdf="http://www.w3.org/1999/02/22-rdf-syntax-ns#"
   xmlns:svg="http://www.w3.org/2000/svg"
   xmlns="http://www.w3.org/2000/svg"
   xmlns:sodipodi="http://sodipodi.sourceforge.net/DTD/sodipodi-0.dtd"
   xmlns:inkscape="http://www.inkscape.org/namespaces/inkscape"
   width="64"
   height="64"
   version="1"
   id="svg18"
   sodipodi:docname="com.github.xournalpp.xournalpp.svg"
   inkscape:version="1.0.2 (e86c870879, 2021-01-15)">
  <metadata
     id="metadata24">
    <rdf:RDF>
      <cc:Work
         rdf:about="">
        <dc:format>image/svg+xml</dc:format>
        <dc:type
           rdf:resource="http://purl.org/dc/dcmitype/StillImage" />
        <dc:title />
      </cc:Work>
    </rdf:RDF>
  </metadata>
  <defs
     id="defs22" />
  <sodipodi:namedview
     pagecolor="#ffffff"
     bordercolor="#666666"
     borderopacity="1"
     objecttolerance="10"
     gridtolerance="10"
     guidetolerance="10"
     inkscape:pageopacity="0"
     inkscape:pageshadow="2"
     inkscape:window-width="1516"
     inkscape:window-height="931"
     id="namedview20"
     showgrid="false"
     inkscape:zoom="12.890625"
     inkscape:cx="32"
     inkscape:cy="30.464391"
     inkscape:window-x="341"
     inkscape:window-y="65"
     inkscape:window-maximized="0"
     inkscape:current-layer="svg18"
     inkscape:document-rotation="0" />
  <path
     style="fill:#29292a;stroke-width:1.135"
     d="m 57.887292,56.940529 v -44.36235 c 0,-1.694948 -1.439768,-3.0594723 -3.228179,-3.0594723 H 9.464618 c -1.7884114,0 -3.2281786,1.3645243 -3.2281786,3.0594723 v 44.36235 C 6.2364394,58.635475 7.6762066,60 9.464618,60 h 45.194495 c 1.788411,0 3.228179,-1.364525 3.228179,-3.059471 z"
     id="path4" />
  <path
     style="fill:#29292a;stroke-width:1.135"
     d="m 11.361473,4.4661736 c -0.761816,0 -1.3756438,0.5967982 -1.3756438,1.3374797 v 6.1043957 c 0,0.740681 0.6138278,1.33748 1.3756438,1.33748 H 14.4796 c 0.761816,0 1.375644,-0.596799 1.375644,-1.33748 V 5.8036533 c 0,-0.7406815 -0.613828,-1.3374797 -1.375644,-1.3374797 z m 12.912713,0 c -0.761818,0 -1.375645,0.5967982 -1.375645,1.3374797 v 6.1043957 c 0,0.740681 0.613827,1.33748 1.375645,1.33748 h 3.118127 c 0.761817,0 1.375644,-0.596799 1.375644,-1.33748 V 5.8036533 c 0,-0.7406815 -0.613827,-1.3374797 -1.375644,-1.3374797 z m 12.912713,0 c -0.761818,0 -1.375645,0.5967982 -1.375645,1.3374797 v 6.1043957 c 0,0.740681 0.613827,1.33748 1.375645,1.33748 h 3.118127 c 0.761817,0 1.375644,-0.596799 1.375644,-1.33748 V 5.8036533 c 0,-0.7406815 -0.613827,-1.3374797 -1.375644,-1.3374797 z m 12.912714,0 c -0.76182,0 -1.375645,0.5967982 -1.375645,1.3374797 v 6.1043957 c 0,0.740681 0.613825,1.33748 1.375645,1.33748 h 3.118126 c 0.761817,0 1.375644,-0.596799 1.375644,-1.33748 V 5.8036533 c 0,-0.7406815 -0.613827,-1.3374797 -1.375644,-1.3374797 z"
     id="path10" />
  <path
     style="opacity:0.85;fill:#ffffff;stroke-width:1.135"
     d="m 35.241193,32.920834 c 0.11443,0.123085 0.41816,0.396312 0.911243,0.819697 6.921329,6.563367 10.248797,9.490432 9.981074,10.276933 -0.192423,0.578538 -0.747055,1.069111 -1.663909,1.471729 -0.915345,0.379195 -1.739985,0.55114 -2.473931,0.515838 -0.581097,-0.02794 -3.340835,-2.046028 -8.277888,-7.549999 -0.996198,-1.152925 -1.581294,-1.804111 -1.755289,-1.953564 -0.723361,0.717592 -1.804625,2.19383 -3.243801,4.428721 -1.852539,3.565867 -4.290101,6.856354 -5.686179,10.624069 -0.426415,1.319635 -1.511216,1.937544 -3.254402,1.853715 -0.917476,-0.04414 -1.481178,-0.329854 -1.691091,-0.857196 -0.209931,-0.527348 -0.124085,-1.346113 0.257533,-2.456313 0.732635,-2.221851 4.256033,-7.612842 10.570203,-16.172988 -0.03592,-0.377888 -0.940634,-1.749785 -2.714155,-4.115696 -1.773552,-2.365865 -3.18159,-4.157995 -4.224126,-5.078078 -1.129565,-0.994745 -1.599728,-1.757963 -1.410491,-2.289652 0.426394,-1.319611 1.771143,-1.925016 4.03425,-1.816215 1.100954,0.05298 3.063215,2.271451 5.886796,6.357113 1.206076,1.680307 1.996068,2.705776 2.369976,3.0764 0.651096,-0.556446 1.579249,-1.581579 2.78444,-3.075395 1.206733,-1.517202 2.041258,-2.746682 2.503593,-3.688444 0.457547,-0.871399 1.179302,-1.565539 2.165279,-2.082428 0.98592,-0.516825 1.922336,-0.753929 2.809256,-0.71131 1.376171,0.0662 1.874262,0.642682 1.494262,1.729408 -0.426436,1.319669 -2.907712,4.221551 -7.443836,8.705655 -1.183098,1.165716 -1.826027,1.828382 -1.928809,1.988"
     id="path16" />
</svg>
