<?xml version="1.0" encoding="UTF-8" standalone="no"?>
<svg
   xmlns:dc="http://purl.org/dc/elements/1.1/"
   xmlns:cc="http://creativecommons.org/ns#"
   xmlns:rdf="http://www.w3.org/1999/02/22-rdf-syntax-ns#"
   xmlns:svg="http://www.w3.org/2000/svg"
   xmlns="http://www.w3.org/2000/svg"
   xmlns:sodipodi="http://sodipodi.sourceforge.net/DTD/sodipodi-0.dtd"
   xmlns:inkscape="http://www.inkscape.org/namespaces/inkscape"
   width="64"
   height="64"
   version="1.1"
   id="svg73"
   sodipodi:docname="com.viewizard.astromenace.svg"
   inkscape:version="1.0.2 (e86c870879, 2021-01-15)">
  <metadata
     id="metadata77">
    <rdf:RDF>
      <cc:Work
         rdf:about="">
        <dc:format>image/svg+xml</dc:format>
        <dc:type
           rdf:resource="http://purl.org/dc/dcmitype/StillImage" />
        <dc:title />
      </cc:Work>
    </rdf:RDF>
  </metadata>
  <sodipodi:namedview
     pagecolor="#ffffff"
     bordercolor="#666666"
     borderopacity="1"
     objecttolerance="10"
     gridtolerance="10"
     guidetolerance="10"
     inkscape:pageopacity="0"
     inkscape:pageshadow="2"
     inkscape:window-width="1920"
     inkscape:window-height="996"
     id="namedview75"
     showgrid="false"
     inkscape:zoom="12.578125"
     inkscape:cx="32"
     inkscape:cy="35.180124"
     inkscape:window-x="0"
     inkscape:window-y="0"
     inkscape:window-maximized="1"
     inkscape:current-layer="svg73"
     inkscape:document-rotation="0" />
  <defs
     id="defs29">
    <linearGradient
       id="b"
       x1="399.57"
       x2="399.57"
       y1="545.8"
       y2="517.8"
       gradientTransform="matrix(2.1429,0,0,2.1429,-826.36,-1107.5)"
       gradientUnits="userSpaceOnUse">
      <stop
         stop-color="#3889e9"
         offset="0"
         id="stop2" />
      <stop
         stop-color="#5ea5fb"
         offset="1"
         id="stop4" />
    </linearGradient>
    <linearGradient
       id="linearGradient862"
       x1="7.9373"
       x2="7.9373"
       y1="15.081"
       y2="1.852"
       gradientTransform="matrix(3.3743 0 0 3.3743 3.4312 3.4278)"
       gradientUnits="userSpaceOnUse">
      <stop
         stop-color="#f1efeb"
         offset="0"
         id="stop7" />
      <stop
         stop-color="#fff"
         offset="1"
         id="stop9" />
    </linearGradient>
    <linearGradient
       id="linearGradient910"
       x1="7.9373"
       x2="7.9373"
       y1="15.081"
       y2="1.852"
       gradientTransform="scale(3.7796)"
       gradientUnits="userSpaceOnUse">
      <stop
         stop-color="#613583"
         offset="0"
         id="stop12" />
      <stop
         stop-color="#a663c0"
         offset="1"
         id="stop14" />
    </linearGradient>
    <linearGradient
       id="linearGradient932"
       x1="379.24"
       x2="374.24"
       y1="546.85"
       y2="546.85"
       gradientTransform="matrix(2.1429 0 0 2.1429 -769.68 -1134.5)"
       gradientUnits="userSpaceOnUse">
      <stop
         stop-color="#f6f5f4"
         offset="0"
         id="stop17" />
      <stop
         stop-color="#fff"
         offset=".6"
         id="stop19" />
      <stop
         stop-color="#dddbd8"
         offset="1"
         id="stop21" />
    </linearGradient>
    <linearGradient
       id="linearGradient1146"
       x1="18"
       x2="18"
       y1="52"
       y2="12"
       gradientUnits="userSpaceOnUse">
      <stop
         stop-color="#5e337f"
         offset="0"
         id="stop24" />
      <stop
         stop-color="#ab60bf"
         offset="1"
         id="stop26" />
    </linearGradient>
  </defs>
  <circle
     cx="32.02"
     cy="32.044"
     r="30.001"
     fill-opacity="0"
     stroke-width="1.5715"
     id="circle39" />
  <circle
     cx="32.02"
     cy="32.044"
     r="0"
     fill="url(#b)"
     stroke-width="1.5715"
     id="circle41" />
  <path
     style="fill:#29292a;stroke-width:1.3677"
     d="m 33.171175,9.0352052 c -0.205947,0.00636 -0.418797,0.025984 -0.648169,0.055031 -2.579743,0.3267025 -3.287846,0.9201648 -4.865142,4.0682198 -1.06388,2.123335 -1.596111,2.382626 -2.966926,2.662863 -6.408408,-4.438779 -6.408408,2.336744 -7.670026,4.214945 -1.729337,-1.442668 -3.975208,-4.562285 -6.196045,-6.306287 -1.9855619,-1.559246 -3.9511157,-2.503941 -5.5096212,-1.51984 -1.2350075,0.823396 -2.2843051,2.590033 -2.6659891,6.643408 -0.5214415,5.537523 0.00552,8.65504 3.7038363,13.241015 4.182115,5.185782 10.413042,10.373429 20.278497,16.885487 4.27314,2.82064 7.854122,5.128373 7.959389,5.128373 0.591714,0 -5.719114,-7.794412 -9.541233,-11.782794 -5.712189,-5.960655 -6.766249,-8.080246 -6.889689,-10.757122 -0.111473,-2.418469 0.977471,-4.020522 2.437369,-4.020522 0.530482,0 2.931434,1.713378 5.578904,4.568583 2.206281,2.266786 3.656901,5.454599 5.418649,7.7879 3.73074,4.429228 8.05724,4.994135 9.664693,1.26192 1.557149,-3.631634 0.540812,-10.00961 -3.01887,-14.453738 -0.400491,-1.625294 0.356562,-1.872575 2.106556,-1.870865 2.213525,0.0021 6.41734,1.43099 8.94322,3.511039 3.121421,2.570472 3.647425,2.558375 7.122167,9.110891 2.051105,3.867882 4.085476,7.475326 4.521768,8.015381 0.77699,0.961818 0.793317,0.956496 0.806355,-0.245767 C 61.085194,35.221901 57.430703,25.693492 49.529783,18.855429 48.193301,17.74466 44.271584,15.035191 40.814197,12.835635 35.77687,9.6309228 34.612767,8.9899508 33.171175,9.0352052 Z"
     id="path8" />
  <ellipse
     style="opacity:0.85;fill:#f2f2f2;stroke-width:1.35277"
     cx="2.6038473"
     cy="48.816235"
     rx="3.8058517"
     ry="5.6180396"
     transform="matrix(0.43983863,-0.89807682,0.69211333,0.72178884,0,0)"
     id="ellipse12" />
</svg>
