<?xml version="1.0" encoding="UTF-8" standalone="no"?>
<svg
   xmlns:dc="http://purl.org/dc/elements/1.1/"
   xmlns:cc="http://creativecommons.org/ns#"
   xmlns:rdf="http://www.w3.org/1999/02/22-rdf-syntax-ns#"
   xmlns:svg="http://www.w3.org/2000/svg"
   xmlns="http://www.w3.org/2000/svg"
   xmlns:sodipodi="http://sodipodi.sourceforge.net/DTD/sodipodi-0.dtd"
   xmlns:inkscape="http://www.inkscape.org/namespaces/inkscape"
   width="64"
   height="64"
   version="1.1"
   id="svg73"
   sodipodi:docname="com.skype.Client.svg"
   inkscape:version="1.0.2 (e86c870879, 2021-01-15)">
  <metadata
     id="metadata77">
    <rdf:RDF>
      <cc:Work
         rdf:about="">
        <dc:format>image/svg+xml</dc:format>
        <dc:type
           rdf:resource="http://purl.org/dc/dcmitype/StillImage" />
        <dc:title />
      </cc:Work>
    </rdf:RDF>
  </metadata>
  <sodipodi:namedview
     pagecolor="#ffffff"
     bordercolor="#666666"
     borderopacity="1"
     objecttolerance="10"
     gridtolerance="10"
     guidetolerance="10"
     inkscape:pageopacity="0"
     inkscape:pageshadow="2"
     inkscape:window-width="1717"
     inkscape:window-height="814"
     id="namedview75"
     showgrid="false"
     inkscape:zoom="12.578125"
     inkscape:cx="32"
     inkscape:cy="22.459627"
     inkscape:window-x="157"
     inkscape:window-y="182"
     inkscape:window-maximized="0"
     inkscape:current-layer="svg73"
     inkscape:document-rotation="0" />
  <defs
     id="defs29">
    <linearGradient
       id="b"
       x1="399.57"
       x2="399.57"
       y1="545.8"
       y2="517.8"
       gradientTransform="matrix(2.1429,0,0,2.1429,-826.36,-1107.5)"
       gradientUnits="userSpaceOnUse">
      <stop
         stop-color="#3889e9"
         offset="0"
         id="stop2" />
      <stop
         stop-color="#5ea5fb"
         offset="1"
         id="stop4" />
    </linearGradient>
    <linearGradient
       id="linearGradient862"
       x1="7.9373"
       x2="7.9373"
       y1="15.081"
       y2="1.852"
       gradientTransform="matrix(3.3743 0 0 3.3743 3.4312 3.4278)"
       gradientUnits="userSpaceOnUse">
      <stop
         stop-color="#f1efeb"
         offset="0"
         id="stop7" />
      <stop
         stop-color="#fff"
         offset="1"
         id="stop9" />
    </linearGradient>
    <linearGradient
       id="linearGradient910"
       x1="7.9373"
       x2="7.9373"
       y1="15.081"
       y2="1.852"
       gradientTransform="scale(3.7796)"
       gradientUnits="userSpaceOnUse">
      <stop
         stop-color="#613583"
         offset="0"
         id="stop12" />
      <stop
         stop-color="#a663c0"
         offset="1"
         id="stop14" />
    </linearGradient>
    <linearGradient
       id="linearGradient932"
       x1="379.24"
       x2="374.24"
       y1="546.85"
       y2="546.85"
       gradientTransform="matrix(2.1429 0 0 2.1429 -769.68 -1134.5)"
       gradientUnits="userSpaceOnUse">
      <stop
         stop-color="#f6f5f4"
         offset="0"
         id="stop17" />
      <stop
         stop-color="#fff"
         offset=".6"
         id="stop19" />
      <stop
         stop-color="#dddbd8"
         offset="1"
         id="stop21" />
    </linearGradient>
    <linearGradient
       id="linearGradient1146"
       x1="18"
       x2="18"
       y1="52"
       y2="12"
       gradientUnits="userSpaceOnUse">
      <stop
         stop-color="#5e337f"
         offset="0"
         id="stop24" />
      <stop
         stop-color="#ab60bf"
         offset="1"
         id="stop26" />
    </linearGradient>
    <linearGradient
       id="a"
       x1="13.784"
       x2="13.784"
       y1="0.40289"
       y2="23.336"
       gradientTransform="matrix(1.7082,0,0,1.7082,11.160391,10.724724)"
       gradientUnits="userSpaceOnUse">
      <stop
         stop-color="#fff"
         offset="0"
         id="stop2-3" />
      <stop
         stop-color="#afeeff"
         offset="1"
         id="stop4-6" />
    </linearGradient>
  </defs>
  <circle
     cx="32.02"
     cy="32.044"
     r="30.001"
     fill-opacity="0"
     stroke-width="1.5715"
     id="circle39" />
  <circle
     cx="32.02"
     cy="32.044"
     r="0"
     fill="url(#b)"
     stroke-width="1.5715"
     id="circle41" />
  <path
     d="m 58.564481,36.124457 c 0.822691,1.250391 1.44934,2.607462 1.887314,4.094268 0.435539,1.481767 0.655717,3.015457 0.655717,4.603919 0,2.274645 -0.428286,4.411412 -1.275143,6.413196 -0.849291,1.996457 -2.018054,3.756427 -3.508471,5.284927 -1.490561,1.512935 -3.225462,2.700903 -5.219296,3.564071 -1.993832,0.863047 -4.091636,1.286793 -6.322729,1.286793 -3.177019,0 -6.027396,-0.805872 -8.555807,-2.414955 -0.701695,0.103985 -1.40822,0.179378 -2.122026,0.236567 -0.716214,0.05198 -1.425119,0.07279 -2.134065,0.07279 -3.711738,0 -7.19613,-0.714884 -10.455586,-2.139508 C 18.262298,55.694172 15.414187,53.749639 12.96099,51.272444 10.514732,48.805443 8.586199,45.896663 7.1973417,42.566342 5.7963472,39.236327 5.0969899,35.67743 5.0969899,31.894828 c 0,-0.733054 0.033891,-1.429768 0.1064693,-2.074526 0.065333,-0.644713 0.1548559,-1.302376 0.246807,-1.960084 -1.7421248,-2.596965 -2.6084428,-5.386586 -2.6084428,-8.37861 0,-2.225184 0.4282858,-4.328319 1.2775909,-6.306516 0.8468842,-1.975609 2.0082833,-3.6940318 3.4988417,-5.1523791 1.4905597,-1.46095 3.235093,-2.6100491 5.216886,-3.4522176 1.986468,-0.8422734 4.094045,-1.2529782 6.325139,-1.2529782 1.60671,0 3.114125,0.2027645 4.546609,0.6160877 1.432483,0.418527 2.772897,1.0008455 4.009339,1.7625561 0.699287,-0.1065972 1.415502,-0.1819774 2.122026,-0.2417549 0.716214,-0.046818 1.432483,-0.075385 2.131656,-0.075385 3.72392,0 7.220211,0.6967136 10.489156,2.082287 3.261725,1.3751956 6.116776,3.280711 8.5704,5.698252 2.45348,2.428041 4.386829,5.238209 5.790133,8.435371 1.398573,3.202641 2.097803,6.63903 2.097803,10.299279 0.0025,1.349188 -0.113728,2.760708 -0.353268,4.229556 z m -13.782608,8.323671 c 1.146922,-1.622093 1.713087,-3.527547 1.713087,-5.716513 0,-1.723598 -0.319388,-3.171445 -0.948486,-4.34643 -0.655718,-1.169813 -1.580081,-2.149856 -2.772898,-2.932368 -1.096126,-0.759063 -2.52133,-1.432355 -4.265863,-2.035568 -1.754307,-0.473129 -3.614994,-0.935851 -5.582197,-1.408951 l -2.155878,-0.52773 c -0.578304,-0.132589 -1.038036,-0.244357 -1.384026,-0.34574 -0.384729,-0.101373 -0.740406,-0.213175 -1.079157,-0.345738 -0.319388,-0.122186 -0.658125,-0.265161 -0.996874,-0.42113 -0.658124,-0.296356 -1.209828,-0.699301 -1.647789,-1.1724 -0.33875,-0.408133 -0.508134,-0.956668 -0.508134,-1.637767 0,-0.995657 0.551704,-1.884758 1.64779,-2.672443 1.241301,-0.735703 2.758448,-1.089234 4.561057,-1.065828 2.083355,0 3.547143,0.330141 4.37224,0.993024 0.996876,0.785053 1.778388,1.752056 2.337329,2.89341 0.486349,0.837038 0.979963,1.46095 1.490561,1.871669 0.486346,0.400342 1.161439,0.616089 2.010689,0.644714 0.955769,0 1.746941,-0.340551 2.412402,-1.02684 0.650901,-0.639494 0.963035,-1.359596 0.94608,-2.170704 0,-0.938437 -0.246807,-1.86132 -0.730719,-2.750359 -0.479109,-0.834453 -1.284829,-1.723598 -2.395404,-2.667119 -0.561336,-0.405531 -1.178354,-0.777276 -1.843828,-1.117827 -0.667813,-0.343138 -1.417894,-0.644714 -2.233361,-0.899449 -0.854163,-0.249559 -1.7519,-0.441932 -2.697964,-0.571909 -0.948487,-0.12737 -1.984061,-0.187167 -3.130981,-0.187167 -2.889048,0 -5.325674,0.379537 -7.310016,1.138646 -2.131657,0.790288 -3.745593,1.876842 -4.839254,3.285882 -1.093662,1.341381 -1.640565,2.953067 -1.640565,4.835236 0,1.980936 0.52992,3.592529 1.575123,4.835235 1.052557,1.343969 2.477703,2.360472 4.280313,3.049395 1.713087,0.735703 3.902962,1.38037 6.588886,1.936651 1.004155,0.254765 1.882498,0.470527 2.659153,0.634303 0.7646,0.161174 1.459114,0.345739 2.066358,0.545918 1.144513,0.335346 2.07358,0.896861 2.78267,1.694836 0.757375,0.691478 1.137232,1.580547 1.137232,2.677617 0,1.515582 -0.692005,2.742599 -2.059132,3.678358 -1.292111,0.959255 -3.039052,1.432354 -5.238701,1.3986 -1.761531,0 -3.036645,-0.218365 -3.844886,-0.660296 -1.004155,-0.491315 -1.744535,-1.115226 -2.230952,-1.858734 -0.617018,-0.847448 -1.110633,-1.788579 -1.507415,-2.804994 -0.346018,-0.964429 -0.813002,-1.692249 -1.422711,-2.183638 -0.568616,-0.496521 -1.23402,-0.743463 -2.015647,-0.743463 -0.996873,0 -1.819607,0.298944 -2.470478,0.886452 -0.650899,0.668073 -0.963036,1.450586 -0.948487,2.329275 0,1.53109 0.527509,3.062331 1.572714,4.596007 1.038037,1.577961 2.371325,2.810169 3.994891,3.69662 2.37855,1.320608 5.366751,1.988697 8.957521,2.014719 2.930126,0 5.541117,-0.467926 7.812865,-1.401188 2.230951,-1.06324 3.895597,-2.38117 4.982033,-3.964304 z"
     fill="url(#a)"
     stroke-width="39.1804"
     id="path20"
     style="fill:#29292a" />
</svg>
