<?xml version="1.0" encoding="UTF-8" standalone="no"?>
<svg
   xmlns:dc="http://purl.org/dc/elements/1.1/"
   xmlns:cc="http://creativecommons.org/ns#"
   xmlns:rdf="http://www.w3.org/1999/02/22-rdf-syntax-ns#"
   xmlns:svg="http://www.w3.org/2000/svg"
   xmlns="http://www.w3.org/2000/svg"
   xmlns:sodipodi="http://sodipodi.sourceforge.net/DTD/sodipodi-0.dtd"
   xmlns:inkscape="http://www.inkscape.org/namespaces/inkscape"
   width="64"
   height="64"
   version="1"
   id="svg12"
   sodipodi:docname="com.valvesoftware.SteamLink.svg"
   inkscape:version="1.0.2 (e86c870879, 2021-01-15)">
  <metadata
     id="metadata18">
    <rdf:RDF>
      <cc:Work
         rdf:about="">
        <dc:format>image/svg+xml</dc:format>
        <dc:type
           rdf:resource="http://purl.org/dc/dcmitype/StillImage" />
        <dc:title></dc:title>
      </cc:Work>
    </rdf:RDF>
  </metadata>
  <defs
     id="defs16" />
  <sodipodi:namedview
     pagecolor="#ffffff"
     bordercolor="#666666"
     borderopacity="1"
     objecttolerance="10"
     gridtolerance="10"
     guidetolerance="10"
     inkscape:pageopacity="0"
     inkscape:pageshadow="2"
     inkscape:window-width="1439"
     inkscape:window-height="971"
     id="namedview14"
     showgrid="false"
     inkscape:zoom="12.890625"
     inkscape:cx="32"
     inkscape:cy="28.89697"
     inkscape:window-x="358"
     inkscape:window-y="471"
     inkscape:window-maximized="0"
     inkscape:current-layer="svg12" />
  <path
     style="fill:#29292a;stroke-width:1.48024"
     d="M 32.086635,2.3322479 A 29.476665,29.733498 0 0 0 2.6099692,32.065746 29.476665,29.733498 0 0 0 32.086635,61.799245 29.476665,29.733498 0 0 0 61.5633,32.065746 29.476665,29.733498 0 0 0 32.086635,2.3322479 Z m -0.06045,14.8667491 c 6.173125,-2.16e-4 12.342887,0.07264 13.166629,0.223582 1.960084,0.359288 2.547407,1.10884 4.104855,5.223687 1.582159,4.180136 2.91984,9.938725 3.32764,14.306343 0.236201,2.529762 0.03937,4.267595 -0.673588,5.940893 -1.072525,2.517203 -4.049143,4.412492 -6.249399,3.978017 -1.131979,-0.22353 -1.831684,-1.112802 -3.687462,-4.660378 -0.946087,-1.80858 -1.921168,-3.895366 -2.204993,-4.198695 H 24.256895 c -0.816161,1.311505 -1.387152,2.67752 -2.012127,3.893811 -0.799692,1.546164 -1.657944,3.136676 -1.905621,3.533757 -0.818634,1.312457 -2.555099,1.835206 -4.130763,1.242766 -1.953082,-0.734343 -3.553367,-2.308961 -4.243029,-4.172562 -1.346011,-3.637157 0.0454,-12.678176 3.209619,-20.813448 1.232276,-3.168232 1.907753,-3.952856 3.661554,-4.268383 0.839576,-0.151044 7.016535,-0.229173 13.189657,-0.22939 z m -9.519465,4.460024 a 5.1584166,5.2033623 0 0 0 -5.158417,5.203364 5.1584166,5.2033623 0 0 0 5.158417,5.203361 5.1584166,5.2033623 0 0 0 5.158417,-5.203361 5.1584166,5.2033623 0 0 0 -5.158417,-5.203364 z m 19.159832,0 a 5.1584166,5.2033623 0 0 0 -5.158416,5.203364 5.1584166,5.2033623 0 0 0 5.158416,5.203361 5.1584166,5.2033623 0 0 0 5.158417,-5.203361 5.1584166,5.2033623 0 0 0 -5.158417,-5.203364 z"
     id="path8" />
</svg>
