<?xml version="1.0" encoding="UTF-8" standalone="no"?>
<svg
   xmlns:dc="http://purl.org/dc/elements/1.1/"
   xmlns:cc="http://creativecommons.org/ns#"
   xmlns:rdf="http://www.w3.org/1999/02/22-rdf-syntax-ns#"
   xmlns:svg="http://www.w3.org/2000/svg"
   xmlns="http://www.w3.org/2000/svg"
   xmlns:sodipodi="http://sodipodi.sourceforge.net/DTD/sodipodi-0.dtd"
   xmlns:inkscape="http://www.inkscape.org/namespaces/inkscape"
   width="64"
   height="64"
   version="1"
   id="svg12"
   sodipodi:docname="com.alientrap.nexuiz-classic.svg"
   inkscape:version="1.0.2 (e86c870879, 2021-01-15)">
  <metadata
     id="metadata18">
    <rdf:RDF>
      <cc:Work
         rdf:about="">
        <dc:format>image/svg+xml</dc:format>
        <dc:type
           rdf:resource="http://purl.org/dc/dcmitype/StillImage" />
        <dc:title />
      </cc:Work>
    </rdf:RDF>
  </metadata>
  <defs
     id="defs16" />
  <sodipodi:namedview
     pagecolor="#ffffff"
     bordercolor="#666666"
     borderopacity="1"
     objecttolerance="10"
     gridtolerance="10"
     guidetolerance="10"
     inkscape:pageopacity="0"
     inkscape:pageshadow="2"
     inkscape:window-width="1920"
     inkscape:window-height="996"
     id="namedview14"
     showgrid="false"
     inkscape:zoom="12.890625"
     inkscape:cx="32"
     inkscape:cy="22.690909"
     inkscape:window-x="0"
     inkscape:window-y="0"
     inkscape:window-maximized="1"
     inkscape:current-layer="svg12"
     inkscape:document-rotation="0" />
  <path
     style="fill:#29292a;stroke-width:1.5202"
     d="m 23.250719,2.7890261 c -0.179919,0.0044 -0.372443,0.056509 -0.556049,0.178298 -0.183575,0.1217867 -0.334216,0.3447985 -0.37068,0.5348704 -0.07293,0.3801143 0.01607,0.5620318 0.185309,0.8914311 0.779711,1.3514167 1.550472,2.4057581 1.853456,3.2092223 0.520438,1.1140616 0.513063,2.1493959 0.370679,2.8526031 l -0.926728,4.278963 c -4.679024,1.042257 -9.195114,2.095659 -13.715617,3.565901 -0.8798651,0.270705 -1.5501559,0.54323 -2.224135,0.891461 -0.061361,-0.0097 -0.1239789,-0.0097 -0.1853294,0 -0.2368349,0.13566 -0.247913,0.33547 -0.3706795,0.53487 -0.061373,0.09969 -0.1683458,0.215883 -0.1853512,0.35659 -0.016991,0.140677 0.052344,0.370405 0.1853512,0.53487 0.3947568,0.523225 0.9254371,0.739461 1.6680861,1.06974 0.7426502,0.33025 1.5956968,0.670826 2.2241348,0.891432 3.143931,1.103678 7.186982,1.99593 10.379131,2.317762 -0.859634,3.730747 -1.690241,7.418375 -2.965493,11.053793 -0.310486,0.885066 -0.70625,1.806944 -1.112068,2.674323 -1.165548,2.491319 -2.643883,4.765875 -4.077718,6.953168 -1.514419,2.042568 -2.790553,4.033747 -4.4483339,5.883427 -0.3092392,0.314969 -0.8083577,0.584765 -1.1120675,0.891432 -0.1518379,0.153348 -0.260127,0.398857 -0.3706782,0.534869 -0.055281,0.06799 -0.1380511,0.09571 -0.1853295,0.178311 -0.047308,0.08254 -0.018095,0.125864 0,0.35656 -0.010073,0.05902 -0.010073,0.119236 0,0.178281 0.046579,0.07245 0.1100161,0.13349 0.1853295,0.17831 0.046579,0.07245 0.110016,0.13349 0.1853524,0.17828 0.061361,0.0097 0.123979,0.0097 0.1853294,0 0.3311271,0.04848 0.6051818,-0.08192 0.9267284,-0.17828 0.3215151,-0.09635 0.5427184,-0.183267 0.9267284,-0.356591 0.767987,-0.346617 1.75866,-0.739227 2.594813,-1.24802 1.201255,-0.730955 2.087519,-1.47423 2.780154,-1.961172 1.220668,-0.85814 3.969622,-3.319512 5.374873,-4.992027 1.614698,-1.767462 3.333965,-3.663869 4.633641,-6.061766 0.02489,-0.04596 -0.02489,-0.131906 0,-0.17831 0.08862,-0.147041 0.602093,-1.092034 0.741389,-1.426301 0.278592,-0.668538 0.464909,-1.33194 0.556049,-1.604612 l 4.077718,-11.945194 14.271539,-3.209222 c -0.354038,2.880586 -0.751157,5.671063 -1.112067,8.557926 -0.275062,2.379828 -0.46286,3.338283 -0.741388,5.883427 -0.0085,0.07605 0.0089,0.09923 0,0.17831 -0.15808,0.784487 -0.617819,2.988352 -0.741389,3.565901 -0.94734,4.428263 -1.965052,8.443825 -4.077718,11.945194 -0.505437,0.683027 -1.090134,1.401281 -1.668086,1.961172 -0.584539,-0.272788 -1.404621,-0.652785 -2.594814,-0.71315 -0.02049,-0.0025 -0.128172,0.0023 -0.185339,0 -0.06136,-0.0097 -0.123948,-0.0097 -0.18534,0 -0.0025,7.29e-4 -0.184078,0.177048 -0.185339,0.17831 -0.07532,0.04476 -0.13876,0.105832 -0.185339,0.178309 -0.07863,0.4049 0.063,0.717932 0.185339,1.069742 0.122342,0.351808 0.222117,0.746236 0.370679,1.06974 1.071601,2.333337 2.329079,4.344374 3.521479,6.418444 0.04654,0.07245 0.110016,0.133491 0.185339,0.178281 0.04654,0.07245 0.110052,0.13349 0.185339,0.178309 0.06136,0.0097 0.123949,0.0097 0.185372,0 0.06136,0.0097 0.123947,0.0097 0.185339,0 0.07532,-0.04509 0.13876,-0.105832 0.185339,-0.178309 1.780499,-1.623384 3.871294,-4.237019 5.374872,-6.418445 2.957584,-4.26723 5.458073,-9.037799 7.228582,-14.441355 0.264505,-0.840569 0.480068,-1.691374 0.741389,-2.674322 l 5.560181,-20.503121 c 0.23507,-0.906097 0.506885,-1.913156 0.556017,-2.674322 0.01044,-0.05903 0.01044,-0.11925 0,-0.178299 -0.115028,-0.263942 -0.366676,-0.401702 -0.556017,-0.534841 -0.189342,-0.133167 -0.316694,-0.241667 -0.55605,-0.35659 -0.472725,-0.237296 -1.106175,-0.518297 -1.663989,-0.720689 -2.666163,-0.864123 -5.565538,-1.641423 -8.710729,-2.31782 -0.33721,-0.140501 -0.564117,-0.196819 -0.926539,-0.178046 -0.360972,0.01886 -0.895025,0.105947 -1.297407,0.178298 -0.804765,0.144651 -1.633546,0.414404 -2.224135,0.53487 l -7.415465,1.604464 c 0.31515,-0.948012 0.828843,-2.345393 0.371876,-4.1006236 C 33.926795,6.4948289 32.294321,5.332692 30.482213,4.7431173 28.937981,4.2406587 27.431567,3.793638 25.849516,3.3166984 25.591095,3.2395551 24.428193,2.843572 23.252686,2.7819747 Z"
     id="path8" />
</svg>
