<?xml version="1.0" encoding="UTF-8" standalone="no"?>
<svg
   xmlns:dc="http://purl.org/dc/elements/1.1/"
   xmlns:cc="http://creativecommons.org/ns#"
   xmlns:rdf="http://www.w3.org/1999/02/22-rdf-syntax-ns#"
   xmlns:svg="http://www.w3.org/2000/svg"
   xmlns="http://www.w3.org/2000/svg"
   xmlns:sodipodi="http://sodipodi.sourceforge.net/DTD/sodipodi-0.dtd"
   xmlns:inkscape="http://www.inkscape.org/namespaces/inkscape"
   width="64"
   height="64"
   version="1.1"
   id="svg73"
   sodipodi:docname="deepin-image-viewer.svg"
   inkscape:version="1.0.2 (e86c870879, 2021-01-15)">
  <metadata
     id="metadata77">
    <rdf:RDF>
      <cc:Work
         rdf:about="">
        <dc:format>image/svg+xml</dc:format>
        <dc:type
           rdf:resource="http://purl.org/dc/dcmitype/StillImage" />
        <dc:title />
      </cc:Work>
    </rdf:RDF>
  </metadata>
  <sodipodi:namedview
     pagecolor="#ffffff"
     bordercolor="#666666"
     borderopacity="1"
     objecttolerance="10"
     gridtolerance="10"
     guidetolerance="10"
     inkscape:pageopacity="0"
     inkscape:pageshadow="2"
     inkscape:window-width="1920"
     inkscape:window-height="996"
     id="namedview75"
     showgrid="false"
     inkscape:zoom="12.578125"
     inkscape:cx="15.900621"
     inkscape:cy="22.459627"
     inkscape:window-x="0"
     inkscape:window-y="0"
     inkscape:window-maximized="1"
     inkscape:current-layer="svg73"
     inkscape:document-rotation="0" />
  <defs
     id="defs29">
    <linearGradient
       id="b"
       x1="399.57"
       x2="399.57"
       y1="545.8"
       y2="517.8"
       gradientTransform="matrix(2.1429,0,0,2.1429,-826.36,-1107.5)"
       gradientUnits="userSpaceOnUse">
      <stop
         stop-color="#3889e9"
         offset="0"
         id="stop2" />
      <stop
         stop-color="#5ea5fb"
         offset="1"
         id="stop4" />
    </linearGradient>
    <linearGradient
       id="linearGradient862"
       x1="7.9373"
       x2="7.9373"
       y1="15.081"
       y2="1.852"
       gradientTransform="matrix(3.3743 0 0 3.3743 3.4312 3.4278)"
       gradientUnits="userSpaceOnUse">
      <stop
         stop-color="#f1efeb"
         offset="0"
         id="stop7" />
      <stop
         stop-color="#fff"
         offset="1"
         id="stop9" />
    </linearGradient>
    <linearGradient
       id="linearGradient910"
       x1="7.9373"
       x2="7.9373"
       y1="15.081"
       y2="1.852"
       gradientTransform="scale(3.7796)"
       gradientUnits="userSpaceOnUse">
      <stop
         stop-color="#613583"
         offset="0"
         id="stop12" />
      <stop
         stop-color="#a663c0"
         offset="1"
         id="stop14" />
    </linearGradient>
    <linearGradient
       id="linearGradient932"
       x1="379.24"
       x2="374.24"
       y1="546.85"
       y2="546.85"
       gradientTransform="matrix(2.1429 0 0 2.1429 -769.68 -1134.5)"
       gradientUnits="userSpaceOnUse">
      <stop
         stop-color="#f6f5f4"
         offset="0"
         id="stop17" />
      <stop
         stop-color="#fff"
         offset=".6"
         id="stop19" />
      <stop
         stop-color="#dddbd8"
         offset="1"
         id="stop21" />
    </linearGradient>
    <linearGradient
       id="linearGradient1146"
       x1="18"
       x2="18"
       y1="52"
       y2="12"
       gradientUnits="userSpaceOnUse">
      <stop
         stop-color="#5e337f"
         offset="0"
         id="stop24" />
      <stop
         stop-color="#ab60bf"
         offset="1"
         id="stop26" />
    </linearGradient>
    <linearGradient
       id="l"
       x1="8.4666996"
       x2="8.4666996"
       y1="-2.9203"
       y2="19.84"
       gradientTransform="matrix(1.5911781,0,0,1.6527253,18.876293,17.874967)"
       gradientUnits="userSpaceOnUse">
      <stop
         stop-color="#ccc"
         offset="0"
         id="stop17-3" />
      <stop
         stop-color="#ebebeb"
         offset="1"
         id="stop19-6" />
    </linearGradient>
  </defs>
  <circle
     cx="32.02"
     cy="32.044"
     r="30.001"
     fill-opacity="0"
     stroke-width="1.5715"
     id="circle39" />
  <circle
     cx="32.02"
     cy="32.044"
     r="0"
     fill="url(#b)"
     stroke-width="1.5715"
     id="circle41" />
  <path
     style="fill:#29292a;fill-rule:evenodd;stroke-width:3.01119"
     d="m 32.080266,14.700985 v 0.0059 c -5.894538,0.05442 -11.826901,1.320112 -16.961442,4.0594 -2.046448,1.254834 -4.503238,2.874971 -6.3545973,4.507861 -2.9129873,2.684956 -5.4064624,5.815072 -7.0910144,9.324406 4.6178578,9.589696 14.7671707,16.620226 25.9350797,17.658723 7.325668,0.78065 14.993787,-0.414079 21.433404,-3.82645 2.046396,-1.254831 4.503223,-2.874965 6.354589,-4.507869 2.912999,-2.690811 5.40647,-5.820937 7.091025,-9.324546 C 57.871526,23.009237 47.717704,15.981678 36.552229,14.945482 35.068367,14.779437 33.5702,14.70087 32.080266,14.70087 Z m 0.01167,5.963893 c 6.506223,-0.14137 12.267449,5.56915 12.145023,11.916141 0.208958,7.014866 -6.916092,13.068842 -13.961882,11.758871 -7.115749,-0.819405 -12.115786,-8.650675 -9.775388,-15.282466 1.496347,-4.879032 6.384077,-8.443904 11.598627,-8.386718 z m -0.01167,5.963885 a 6.0814072,5.9604586 0 0 0 -6.081413,5.969721 6.0814072,5.9604586 0 0 0 6.081413,5.958071 6.0814072,5.9604586 0 0 0 6.081413,-5.958071 6.0814072,5.9604586 0 0 0 -6.081413,-5.952246 z"
     id="path24" />
</svg>
