<?xml version="1.0" encoding="UTF-8" standalone="no"?>
<svg
   xmlns:dc="http://purl.org/dc/elements/1.1/"
   xmlns:cc="http://creativecommons.org/ns#"
   xmlns:rdf="http://www.w3.org/1999/02/22-rdf-syntax-ns#"
   xmlns:svg="http://www.w3.org/2000/svg"
   xmlns="http://www.w3.org/2000/svg"
   xmlns:sodipodi="http://sodipodi.sourceforge.net/DTD/sodipodi-0.dtd"
   xmlns:inkscape="http://www.inkscape.org/namespaces/inkscape"
   width="64"
   height="64"
   version="1.1"
   id="svg16"
   sodipodi:docname="discord-bin.svg"
   inkscape:version="1.0.2 (e86c870879, 2021-01-15)">
  <metadata
     id="metadata22">
    <rdf:RDF>
      <cc:Work
         rdf:about="">
        <dc:format>image/svg+xml</dc:format>
        <dc:type
           rdf:resource="http://purl.org/dc/dcmitype/StillImage" />
        <dc:title />
      </cc:Work>
    </rdf:RDF>
  </metadata>
  <defs
     id="defs20" />
  <sodipodi:namedview
     pagecolor="#ffffff"
     bordercolor="#666666"
     borderopacity="1"
     objecttolerance="10"
     gridtolerance="10"
     guidetolerance="10"
     inkscape:pageopacity="0"
     inkscape:pageshadow="2"
     inkscape:window-width="1920"
     inkscape:window-height="996"
     id="namedview18"
     showgrid="false"
     inkscape:zoom="12.890625"
     inkscape:cx="32"
     inkscape:cy="35.10303"
     inkscape:window-x="0"
     inkscape:window-y="0"
     inkscape:window-maximized="1"
     inkscape:current-layer="svg16"
     inkscape:document-rotation="0" />
  <path
     style="fill:#29292a;stroke-width:1.62216"
     d="m 27.554936,13.275361 c 0,0 -6.64722,-0.135015 -13.68808,4.697704 -7.0408525,4.832711 -10.3971709,11.699582 -10.3971709,26.109912 0,0 5.7864081,6.506901 16.5922089,6.822998 0,0 1.810954,-1.988904 3.277797,-3.705488 -6.209459,-1.716583 -8.561606,-5.28568 -8.561606,-5.28568 5.721231,2.988103 9.610593,4.23536 15.543313,4.287341 5.93272,-0.05198 13.178545,-1.299238 18.899776,-4.287341 0,0 -2.352147,3.569097 -8.561606,5.28568 1.466843,1.716584 3.277798,3.705488 3.277798,3.705488 10.8058,-0.316097 16.592208,-6.822998 16.592208,-6.822998 0,-14.41033 -3.356318,-21.277201 -10.397171,-26.109912 -7.040855,-4.832719 -13.688082,-4.697704 -13.68808,-4.697704 l -0.491669,0.542043 c 8.800984,2.303935 12.809628,5.867535 12.809628,5.867535 -5.015028,-3.273693 -13.406189,-3.273693 -16.762652,-3.273693 -3.356464,0 -11.747625,6e-6 -16.762653,3.273693 0,0 4.008644,-3.5636 12.809629,-5.867535 z m -3.946467,15.679423 c 2.813254,0 5.083701,2.444631 5.034697,5.487798 0,3.043168 -2.221443,5.487797 -5.034697,5.487797 -2.76388,0 -5.034696,-2.444629 -5.034696,-5.487797 0,-3.043167 2.221509,-5.487798 5.034696,-5.487798 z m 16.78232,0 c 2.813188,0 5.034697,2.444631 5.034697,5.487798 0,3.043168 -2.270816,5.487797 -5.034697,5.487797 -2.813253,0 -5.034696,-2.444629 -5.034696,-5.487797 -0.049,-3.043167 2.221443,-5.487798 5.034696,-5.487798 z"
     id="path12" />
  <path
     style="opacity:0.2;fill:#ffffff"
     d="M 12 3 C 8.676 3 6 5.676 6 9 L 6 10 C 6 6.676 8.676 4 12 4 L 52 4 C 55.324 4 58 6.676 58 10 L 58 9 C 58 5.676 55.324 3 52 3 L 12 3 z"
     id="path14" />
</svg>
