<?xml version="1.0" encoding="UTF-8" standalone="no"?>
<svg
   xmlns:dc="http://purl.org/dc/elements/1.1/"
   xmlns:cc="http://creativecommons.org/ns#"
   xmlns:rdf="http://www.w3.org/1999/02/22-rdf-syntax-ns#"
   xmlns:svg="http://www.w3.org/2000/svg"
   xmlns="http://www.w3.org/2000/svg"
   xmlns:sodipodi="http://sodipodi.sourceforge.net/DTD/sodipodi-0.dtd"
   xmlns:inkscape="http://www.inkscape.org/namespaces/inkscape"
   width="64"
   height="64"
   version="1"
   id="svg18"
   sodipodi:docname="echonest.svg"
   inkscape:version="1.0.2 (e86c870879, 2021-01-15)">
  <metadata
     id="metadata24">
    <rdf:RDF>
      <cc:Work
         rdf:about="">
        <dc:format>image/svg+xml</dc:format>
        <dc:type
           rdf:resource="http://purl.org/dc/dcmitype/StillImage" />
        <dc:title></dc:title>
      </cc:Work>
    </rdf:RDF>
  </metadata>
  <defs
     id="defs22" />
  <sodipodi:namedview
     pagecolor="#ffffff"
     bordercolor="#666666"
     borderopacity="1"
     objecttolerance="10"
     gridtolerance="10"
     guidetolerance="10"
     inkscape:pageopacity="0"
     inkscape:pageshadow="2"
     inkscape:window-width="1393"
     inkscape:window-height="996"
     id="namedview20"
     showgrid="false"
     inkscape:zoom="12.890625"
     inkscape:cx="32"
     inkscape:cy="50.618182"
     inkscape:window-x="178"
     inkscape:window-y="19"
     inkscape:window-maximized="0"
     inkscape:current-layer="svg18" />
  <path
     style="fill:#29292a;stroke-width:1.47702"
     d="M 31.83845,2.604446 A 29.459234,29.622067 0 0 0 2.3792164,32.226513 29.459234,29.622067 0 0 0 31.83845,61.84858 V 52.96196 A 20.621464,20.735447 0 0 1 11.216987,32.226513 20.621464,20.735447 0 0 1 31.83845,11.491066 20.621464,20.735447 0 0 1 52.459914,32.226513 h 8.837771 A 29.459234,29.622067 0 0 0 31.83845,2.604446 Z"
     id="path14" />
  <path
     style="fill:#29292a;stroke-width:1.47702"
     d="M 31.83845,17.41548 A 14.729617,14.811033 0 0 0 17.108833,32.226513 h 8.837771 a 5.8918469,5.9244134 0 0 1 5.891846,-5.924413 5.8918469,5.9244134 0 0 1 5.891848,5.924413 h 8.837769 A 14.729617,14.811033 0 0 0 31.83845,17.41548 Z"
     id="path16" />
</svg>
