<?xml version="1.0" encoding="UTF-8" standalone="no"?>
<svg
   xmlns:dc="http://purl.org/dc/elements/1.1/"
   xmlns:cc="http://creativecommons.org/ns#"
   xmlns:rdf="http://www.w3.org/1999/02/22-rdf-syntax-ns#"
   xmlns:svg="http://www.w3.org/2000/svg"
   xmlns="http://www.w3.org/2000/svg"
   xmlns:sodipodi="http://sodipodi.sourceforge.net/DTD/sodipodi-0.dtd"
   xmlns:inkscape="http://www.inkscape.org/namespaces/inkscape"
   width="64"
   height="64"
   version="1.1"
   id="svg12"
   sodipodi:docname="echomixer.svg"
   inkscape:version="1.0.2 (e86c870879, 2021-01-15)">
  <metadata
     id="metadata18">
    <rdf:RDF>
      <cc:Work
         rdf:about="">
        <dc:format>image/svg+xml</dc:format>
        <dc:type
           rdf:resource="http://purl.org/dc/dcmitype/StillImage" />
        <dc:title></dc:title>
      </cc:Work>
    </rdf:RDF>
  </metadata>
  <defs
     id="defs16" />
  <sodipodi:namedview
     pagecolor="#ffffff"
     bordercolor="#666666"
     borderopacity="1"
     objecttolerance="10"
     gridtolerance="10"
     guidetolerance="10"
     inkscape:pageopacity="0"
     inkscape:pageshadow="2"
     inkscape:window-width="1345"
     inkscape:window-height="983"
     id="namedview14"
     showgrid="false"
     inkscape:zoom="12.890625"
     inkscape:cx="32"
     inkscape:cy="32"
     inkscape:window-x="111"
     inkscape:window-y="13"
     inkscape:window-maximized="0"
     inkscape:current-layer="svg12" />
  <rect
     style="fill:#29292a"
     width="56"
     height="56"
     x="4"
     y="4"
     rx="2.8"
     ry="2.8"
     id="rect4" />
  <path
     style="fill:#ffffff;stroke-width:1.24947;opacity:0.85"
     d="m 6.4432286,43.428751 9.3884854,13.672565 8.219867,-7.484781 -2.166574,-3.155208 -5.479911,4.989855 -1.444383,-2.103473 5.479912,-4.989853 -2.166573,-3.155207 -5.479912,4.989853 -1.444382,-2.103472 5.479911,-4.989853 -2.166574,-3.155207 z M 22.447709,28.855517 c -1.138299,1.036504 -1.887347,2.180255 -2.247717,3.435552 -0.350208,1.246041 -0.356922,2.544982 -0.02454,3.895064 0.332401,1.350078 0.966775,2.708332 1.903493,4.072487 0.945235,1.376556 1.953628,2.410686 3.026309,3.106841 1.07268,0.696156 2.176006,0.994214 3.309651,0.889102 1.14381,-0.114369 2.278876,-0.686238 3.407008,-1.713484 1.097645,-0.999485 1.82259,-2.121288 2.172797,-3.36733 0.124886,-0.444345 0.190944,-0.898965 0.230091,-1.35798 l -3.522542,-0.498272 c -0.0536,0.779429 -0.393672,1.473546 -1.050485,2.071622 -0.785441,0.715201 -1.585941,0.91429 -2.404918,0.597356 -0.824805,-0.325427 -1.630916,-1.062045 -2.418078,-2.208401 -0.787165,-1.146357 -1.21847,-2.211803 -1.291614,-3.194069 -0.07248,-0.996671 0.286318,-1.853206 1.071757,-2.568407 0.649402,-0.591325 1.306591,-0.807417 1.973847,-0.688926 l 0.391913,-4.069345 c -0.39602,-0.0607 -0.793666,-0.08898 -1.194893,-0.04708 -1.133645,0.105123 -2.244604,0.655032 -3.332087,1.645263 z m 5.915165,-5.386182 9.388485,13.672564 2.739956,-2.494926 -3.610957,-5.258679 3.653276,-3.326569 3.610955,5.258679 2.739956,-2.494926 -9.388487,-13.672566 -2.739955,2.494927 3.610956,5.258679 -3.653274,3.326569 -3.610956,-5.258679 z M 45.280673,8.0644594 c -1.138299,1.0365039 -1.887347,2.1802546 -2.247718,3.4355516 -0.350207,1.246042 -0.356924,2.544984 -0.02454,3.895064 0.332401,1.350078 0.966773,2.708332 1.903493,4.072488 0.945235,1.376556 1.953628,2.410685 3.026309,3.10684 1.072679,0.696156 2.176006,0.994214 3.30965,0.889103 1.143809,-0.114369 2.278876,-0.686238 3.407009,-1.713486 1.097644,-0.999484 1.822589,-2.121286 2.172797,-3.367329 0.350208,-1.246043 0.362819,-2.550348 0.04058,-3.909681 C 56.547668,13.092021 55.916345,11.714541 54.971111,10.337985 54.025876,8.9614264 53.010251,7.9404395 51.925762,7.2751915 50.842919,6.5882895 49.737882,6.3016814 48.612751,6.4191957 47.479106,6.5243019 46.368149,7.0742279 45.280665,8.0644594 Z m 2.161222,3.1600806 c 0.785441,-0.7152 1.581731,-0.910456 2.394214,-0.58761 0.806709,0.314302 1.60507,1.045519 2.392234,2.191872 0.787163,1.146356 1.226163,2.217257 1.317458,3.210599 0.08546,0.984848 -0.269123,1.837549 -1.061055,2.558661 -0.785441,0.715201 -1.585941,0.91429 -2.404916,0.597356 -0.824806,-0.325427 -1.630917,-1.062047 -2.418081,-2.208402 -0.787163,-1.146358 -1.21847,-2.211803 -1.291612,-3.194068 -0.07248,-0.996671 0.286316,-1.853206 1.071758,-2.568408 z"
     id="path8" />
</svg>
