<?xml version="1.0" encoding="UTF-8" standalone="no"?>
<svg
   xmlns:dc="http://purl.org/dc/elements/1.1/"
   xmlns:cc="http://creativecommons.org/ns#"
   xmlns:rdf="http://www.w3.org/1999/02/22-rdf-syntax-ns#"
   xmlns:svg="http://www.w3.org/2000/svg"
   xmlns="http://www.w3.org/2000/svg"
   xmlns:xlink="http://www.w3.org/1999/xlink"
   xmlns:sodipodi="http://sodipodi.sourceforge.net/DTD/sodipodi-0.dtd"
   xmlns:inkscape="http://www.inkscape.org/namespaces/inkscape"
   width="64"
   height="64"
   version="1.1"
   id="svg73"
   sodipodi:docname="firefox-esr.svg"
   inkscape:version="1.0.2 (e86c870879, 2021-01-15)">
  <metadata
     id="metadata77">
    <rdf:RDF>
      <cc:Work
         rdf:about="">
        <dc:format>image/svg+xml</dc:format>
        <dc:type
           rdf:resource="http://purl.org/dc/dcmitype/StillImage" />
        <dc:title />
      </cc:Work>
    </rdf:RDF>
  </metadata>
  <sodipodi:namedview
     pagecolor="#ffffff"
     bordercolor="#666666"
     borderopacity="1"
     objecttolerance="10"
     gridtolerance="10"
     guidetolerance="10"
     inkscape:pageopacity="0"
     inkscape:pageshadow="2"
     inkscape:window-width="1717"
     inkscape:window-height="798"
     id="namedview75"
     showgrid="false"
     inkscape:zoom="8.8940775"
     inkscape:cx="32"
     inkscape:cy="28.819876"
     inkscape:window-x="164"
     inkscape:window-y="198"
     inkscape:window-maximized="0"
     inkscape:current-layer="svg73"
     inkscape:document-rotation="0" />
  <defs
     id="defs29">
    <linearGradient
       id="b"
       x1="399.57"
       x2="399.57"
       y1="545.8"
       y2="517.8"
       gradientTransform="matrix(2.1429,0,0,2.1429,-826.36,-1107.5)"
       gradientUnits="userSpaceOnUse">
      <stop
         stop-color="#3889e9"
         offset="0"
         id="stop2" />
      <stop
         stop-color="#5ea5fb"
         offset="1"
         id="stop4" />
    </linearGradient>
    <linearGradient
       id="linearGradient862"
       x1="7.9373"
       x2="7.9373"
       y1="15.081"
       y2="1.852"
       gradientTransform="matrix(3.3743 0 0 3.3743 3.4312 3.4278)"
       gradientUnits="userSpaceOnUse">
      <stop
         stop-color="#f1efeb"
         offset="0"
         id="stop7" />
      <stop
         stop-color="#fff"
         offset="1"
         id="stop9" />
    </linearGradient>
    <linearGradient
       id="linearGradient910"
       x1="7.9373"
       x2="7.9373"
       y1="15.081"
       y2="1.852"
       gradientTransform="scale(3.7796)"
       gradientUnits="userSpaceOnUse">
      <stop
         stop-color="#613583"
         offset="0"
         id="stop12" />
      <stop
         stop-color="#a663c0"
         offset="1"
         id="stop14" />
    </linearGradient>
    <linearGradient
       id="linearGradient932"
       x1="379.24"
       x2="374.24"
       y1="546.85"
       y2="546.85"
       gradientTransform="matrix(2.1429 0 0 2.1429 -769.68 -1134.5)"
       gradientUnits="userSpaceOnUse">
      <stop
         stop-color="#f6f5f4"
         offset="0"
         id="stop17" />
      <stop
         stop-color="#fff"
         offset=".6"
         id="stop19" />
      <stop
         stop-color="#dddbd8"
         offset="1"
         id="stop21" />
    </linearGradient>
    <linearGradient
       id="linearGradient1146"
       x1="18"
       x2="18"
       y1="52"
       y2="12"
       gradientUnits="userSpaceOnUse">
      <stop
         stop-color="#5e337f"
         offset="0"
         id="stop24" />
      <stop
         stop-color="#ab60bf"
         offset="1"
         id="stop26" />
    </linearGradient>
    <linearGradient
       id="a"
       x1="70.786003"
       x2="6.447"
       y1="12.393"
       y2="74.468002"
       gradientTransform="matrix(0.21175,0,0,0.21175,-0.0054615,280.07)"
       gradientUnits="userSpaceOnUse">
      <stop
         stop-color="#fff44f"
         offset=".048"
         id="stop2-3" />
      <stop
         stop-color="#ffe847"
         offset=".111"
         id="stop4-6" />
      <stop
         stop-color="#ffc830"
         offset=".225"
         id="stop6" />
      <stop
         stop-color="#ff980e"
         offset=".368"
         id="stop8" />
      <stop
         stop-color="#ff8b16"
         offset=".401"
         id="stop10" />
      <stop
         stop-color="#ff672a"
         offset=".462"
         id="stop12-7" />
      <stop
         stop-color="#ff3647"
         offset=".534"
         id="stop14-5" />
      <stop
         stop-color="#e31587"
         offset=".705"
         id="stop16" />
    </linearGradient>
    <radialGradient
       id="b-3"
       cx="-7907.2002"
       cy="-8515.0996"
       r="80.796997"
       gradientTransform="matrix(0.21175,0,0,0.21175,1688.7,2085.1)"
       gradientUnits="userSpaceOnUse">
      <stop
         stop-color="#ffbd4f"
         offset=".129"
         id="stop19-5" />
      <stop
         stop-color="#ffac31"
         offset=".186"
         id="stop21-6" />
      <stop
         stop-color="#ff9d17"
         offset=".247"
         id="stop23" />
      <stop
         stop-color="#ff980e"
         offset=".283"
         id="stop25" />
      <stop
         stop-color="#ff563b"
         offset=".403"
         id="stop27" />
      <stop
         stop-color="#ff3750"
         offset=".467"
         id="stop29" />
      <stop
         stop-color="#f5156c"
         offset=".71"
         id="stop31" />
      <stop
         stop-color="#eb0878"
         offset=".782"
         id="stop33" />
      <stop
         stop-color="#e50080"
         offset=".86"
         id="stop35" />
    </radialGradient>
    <radialGradient
       id="c"
       cx="-7936.7002"
       cy="-8482.0996"
       r="80.796997"
       gradientTransform="matrix(0.21175,0,0,0.21175,1688.7,2085.1)"
       gradientUnits="userSpaceOnUse">
      <stop
         stop-color="#960e18"
         offset=".3"
         id="stop38" />
      <stop
         stop-color="#b11927"
         stop-opacity=".74"
         offset=".351"
         id="stop40" />
      <stop
         stop-color="#db293d"
         stop-opacity=".343"
         offset=".435"
         id="stop42" />
      <stop
         stop-color="#f5334b"
         stop-opacity=".094"
         offset=".497"
         id="stop44" />
      <stop
         stop-color="#ff3750"
         stop-opacity="0"
         offset=".53"
         id="stop46" />
    </radialGradient>
    <radialGradient
       id="d"
       cx="-7927"
       cy="-8533.5"
       r="58.534"
       gradientTransform="matrix(0.21175,0,0,0.21175,1688.7,2085.1)"
       gradientUnits="userSpaceOnUse">
      <stop
         stop-color="#fff44f"
         offset=".132"
         id="stop49" />
      <stop
         stop-color="#ffdc3e"
         offset=".252"
         id="stop51" />
      <stop
         stop-color="#ff9d12"
         offset=".506"
         id="stop53" />
      <stop
         stop-color="#ff980e"
         offset=".526"
         id="stop55" />
    </radialGradient>
    <radialGradient
       id="e"
       cx="8.4937"
       cy="287.34"
       r="3.6451001"
       gradientTransform="matrix(1,0,0,1.0962,0,-27.756)"
       gradientUnits="userSpaceOnUse">
      <stop
         stop-color="#62a0ea"
         offset="0"
         id="stop128" />
      <stop
         stop-color="#3584e4"
         offset=".55169"
         id="stop130" />
      <stop
         stop-color="#1a5fb4"
         offset="1"
         id="stop132" />
    </radialGradient>
    <radialGradient
       id="g"
       cx="-7937.7002"
       cy="-8518.4004"
       r="27.676001"
       gradientTransform="matrix(0.21175,0,0,0.21175,1688.7,2085.1)"
       gradientUnits="userSpaceOnUse">
      <stop
         stop-color="#ffe226"
         offset="0"
         id="stop58" />
      <stop
         stop-color="#ffdb27"
         offset=".121"
         id="stop60" />
      <stop
         stop-color="#ffc82a"
         offset=".295"
         id="stop62" />
      <stop
         stop-color="#ffa930"
         offset=".502"
         id="stop64" />
      <stop
         stop-color="#ff7e37"
         offset=".732"
         id="stop66" />
      <stop
         stop-color="#ff7139"
         offset=".792"
         id="stop68" />
    </radialGradient>
    <radialGradient
       id="h"
       cx="-7916"
       cy="-8536"
       r="118.08"
       gradientTransform="matrix(0.21175,0,0,0.21175,1688.7,2085.1)"
       gradientUnits="userSpaceOnUse">
      <stop
         stop-color="#fff44f"
         offset=".113"
         id="stop71" />
      <stop
         stop-color="#ff980e"
         offset=".456"
         id="stop73" />
      <stop
         stop-color="#ff5634"
         offset=".622"
         id="stop75" />
      <stop
         stop-color="#ff3647"
         offset=".716"
         id="stop77" />
      <stop
         stop-color="#e31587"
         offset=".904"
         id="stop79" />
    </radialGradient>
    <radialGradient
       id="i"
       cx="-7927.2002"
       cy="-8522.9004"
       r="86.499001"
       gradientTransform="matrix(0.022234,0.2107,-0.13828,0.014611,-991.86,2073.7)"
       gradientUnits="userSpaceOnUse">
      <stop
         stop-color="#fff44f"
         offset="0"
         id="stop82" />
      <stop
         stop-color="#ffe847"
         offset=".06"
         id="stop84" />
      <stop
         stop-color="#ffc830"
         offset=".168"
         id="stop86" />
      <stop
         stop-color="#ff980e"
         offset=".304"
         id="stop88" />
      <stop
         stop-color="#ff8b16"
         offset=".356"
         id="stop90" />
      <stop
         stop-color="#ff672a"
         offset=".455"
         id="stop92" />
      <stop
         stop-color="#ff3647"
         offset=".57"
         id="stop94" />
      <stop
         stop-color="#e31587"
         offset=".737"
         id="stop96" />
    </radialGradient>
    <radialGradient
       id="j"
       cx="-7938.3999"
       cy="-8508.2002"
       r="73.720001"
       gradientTransform="matrix(0.21175,0,0,0.21175,1688.7,2085.1)"
       gradientUnits="userSpaceOnUse">
      <stop
         stop-color="#fff44f"
         offset=".137"
         id="stop99" />
      <stop
         stop-color="#ff980e"
         offset=".48"
         id="stop101" />
      <stop
         stop-color="#ff5634"
         offset=".592"
         id="stop103" />
      <stop
         stop-color="#ff3647"
         offset=".655"
         id="stop105" />
      <stop
         stop-color="#e31587"
         offset=".904"
         id="stop107" />
    </radialGradient>
    <radialGradient
       id="k"
       cx="-7918.8999"
       cy="-8503.9004"
       r="80.685997"
       gradientTransform="matrix(0.21175,0,0,0.21175,1688.7,2085.1)"
       gradientUnits="userSpaceOnUse">
      <stop
         stop-color="#fff44f"
         offset=".094"
         id="stop110" />
      <stop
         stop-color="#ffe141"
         offset=".231"
         id="stop112" />
      <stop
         stop-color="#ffaf1e"
         offset=".509"
         id="stop114" />
      <stop
         stop-color="#ff980e"
         offset=".626"
         id="stop116" />
    </radialGradient>
    <linearGradient
       id="l"
       x1="70.013"
       x2="15.267"
       y1="12.061"
       y2="66.806"
       gradientTransform="matrix(0.21175,0,0,0.21175,-0.0054615,280.07)"
       gradientUnits="userSpaceOnUse">
      <stop
         stop-color="#fff44f"
         stop-opacity=".8"
         offset=".167"
         id="stop119" />
      <stop
         stop-color="#fff44f"
         stop-opacity=".634"
         offset=".266"
         id="stop121" />
      <stop
         stop-color="#fff44f"
         stop-opacity=".217"
         offset=".489"
         id="stop123" />
      <stop
         stop-color="#fff44f"
         stop-opacity="0"
         offset=".6"
         id="stop125" />
    </linearGradient>
    <clipPath
       clipPathUnits="userSpaceOnUse"
       id="clipPath68">
      <use
         x="0"
         y="0"
         xlink:href="#g64"
         id="use70"
         width="100%"
         height="100%" />
    </clipPath>
  </defs>
  <circle
     cx="32.02"
     cy="32.044"
     r="30.001"
     fill-opacity="0"
     stroke-width="1.5715"
     id="circle39" />
  <circle
     cx="32.02"
     cy="32.044"
     r="0"
     fill="url(#b)"
     stroke-width="1.5715"
     id="circle41" />
  <g
     transform="matrix(3.9534088,0,0,3.6295414,-2.7444801,-1015.5176)"
     id="g178"
     style="fill:#29292a">
    <g
       transform="matrix(0.96836,0,0,0.96836,0.26789,8.8678)"
       id="g176"
       style="fill:#29292a">
      <circle
         cx="339.13"
         cy="285.69"
         r="0"
         enable-background="new"
         fill="#d5d3cf"
         id="circle148"
         style="fill:#29292a" />
      <g
         stroke-width="0.21175"
         id="g172"
         style="fill:#29292a">
        <g
           id="g66"
           clip-path="url(#clipPath68)"
           transform="matrix(0.01683335,0,0,0.01551918,0.31376505,281.61942)"
           style="fill:#29292a">
          <g
             inkscape:label="Clip"
             id="g64"
             style="fill:#29292a">
            <g
               id="g38"
               style="fill:#29292a">
              <g
                 id="g6"
                 style="fill:#29292a">
                <path
                   d="m 988.6,329.8 -11.4,72.8 c 0,0 -16.2,-134.8 -36.1,-185.2 -30.5,-77.2 -44,-76.6 -44.1,-76.5 20.4,51.9 16.7,79.7 16.7,79.7 0,0 -36.2,-98.6 -131.8,-129.9 C 676,56 618.7,65.5 612.1,67.3 c -1,0 -2,0 -2.9,0 0.8,0.1 1.5,0.1 2.3,0.2 0,0 -0.1,0 -0.1,0.1 0.4,0.5 117,20.4 137.7,48.8 0,0 -49.5,0 -98.8,14.2 -2.2,0.6 181.4,22.9 218.9,206.4 0,0 -20.1,-42 -45,-49.1 16.4,49.8 12.2,144.3 -3.4,191.3 -2,6 -4.1,-26.1 -34.8,-40 9.8,70.5 -0.6,182.3 -49.5,213.1 -3.8,2.4 30.7,-110.4 6.9,-66.8 -136.6,209.4 -298,96.6 -370.6,47 37.2,8.1 107.8,-1.3 139.1,-24.5 0,0 0.1,-0.1 0.1,-0.1 33.9,-23.2 54,-40.2 72.1,-36.1 18.1,4 30.1,-14.1 16.1,-30.2 -14,-16.1 -48.1,-38.3 -94.3,-26.2 -32.5,8.5 -72.9,44.5 -134.4,8.1 -47.2,-28 -51.7,-51.2 -52.1,-67.4 1.2,-5.7 2.6,-11 4.4,-15.9 5.4,-15.2 21.9,-19.8 31.1,-23.4 15.6,2.7 29,7.5 43,14.7 0.2,-4.7 0.2,-10.9 0,-18 1.3,-2.7 0.5,-10.8 -1.6,-20.7 -1.2,-9.9 -3.3,-20.1 -6.5,-29.4 0,0 0,0 0,0 0.1,0 0.1,0 0.2,-0.1 0.1,0 0.1,-0.1 0.2,-0.2 0,0 0,0 0,0 0.1,-0.1 0.1,-0.3 0.2,-0.4 1,-4.4 11.5,-12.9 24.6,-22.1 11.7,-8.2 25.6,-16.9 36.4,-23.7 9.6,-6 17,-10.4 18.5,-11.6 0.6,-0.4 1.3,-1 2.1,-1.6 0.1,-0.1 0.3,-0.2 0.4,-0.3 0.1,-0.1 0.2,-0.1 0.3,-0.2 5.2,-4.1 12.9,-11.9 14.5,-28.3 0,0 0,-0.1 0,-0.1 0,-0.5 0.1,-1 0.1,-1.5 0,-0.3 0,-0.7 0.1,-1 0,-0.3 0,-0.5 0,-0.8 0,-0.6 0,-1.3 0.1,-2 0,0 0,-0.1 0,-0.1 0,-1.6 0,-3.2 -0.1,-5 -0.1,-1 -0.1,-1.8 -0.3,-2.6 0,0 0,-0.1 0,-0.1 0,-0.1 0,-0.2 -0.1,-0.2 0,-0.1 -0.1,-0.3 -0.1,-0.4 0,0 0,0 0,0 0,-0.2 -0.1,-0.3 -0.2,-0.4 0,0 0,0 0,0 -1.7,-3.9 -8,-5.4 -33.9,-5.9 0,0 0,0 -0.1,0 v 0 c -10.6,-0.2 -24.4,-0.2 -42.6,-0.1 -31.8,0.1 -49.4,-31.1 -55,-43.2 7.7,-42.5 29.9,-72.9 66.5,-93.4 0.7,-0.4 0.6,-0.7 -0.3,-0.9 7.1,-4.3 -86.4,-0.1 -129.4,54.6 -38.2,-9.5 -71.4,-8.8 -100.1,-2.1 -5.5,-0.2 -12.4,-0.8 -20.5,-2.5 -19.1,-17.3 -46.4,-49.2 -47.8,-87.3 0,0 -0.1,0.1 -0.2,0.2 0,-0.4 -0.1,-0.7 -0.1,-1.1 0,0 -58.1,44.7 -49.4,166.4 0,1.9 -0.1,3.8 -0.1,5.6 -15.7,21.1 -23.5,39 -24.1,43 -14,28.3 -28.1,71 -39.6,135.8 0,0 8,-25.5 24.2,-54.4 -11.9,36.4 -21.2,93 -15.7,177.9 0,0 1.4,-18.8 6.6,-45.9 4,52.6 21.6,117.6 65.9,194.1 85.1,146.7 216,220.8 360.6,232.2 25.7,2.1 51.7,2.2 77.9,0.2 2.4,-0.2 4.8,-0.3 7.2,-0.5 29.6,-2.1 59.5,-6.6 89.2,-13.7 406.9,-98.6 362.7,-589.9 362.7,-589.9 z"
                   id="path4"
                   style="fill:#29292a" />
              </g>
              <g
                 id="g8"
                 style="fill:#29292a" />
              <g
                 id="g10"
                 style="fill:#29292a" />
              <g
                 id="g12"
                 style="fill:#29292a" />
              <g
                 id="g14"
                 style="fill:#29292a" />
              <g
                 id="g16"
                 style="fill:#29292a" />
              <g
                 id="g18"
                 style="fill:#29292a" />
              <g
                 id="g20"
                 style="fill:#29292a" />
              <g
                 id="g22"
                 style="fill:#29292a" />
              <g
                 id="g24"
                 style="fill:#29292a" />
              <g
                 id="g26"
                 style="fill:#29292a" />
              <g
                 id="g28"
                 style="fill:#29292a" />
              <g
                 id="g30"
                 style="fill:#29292a" />
              <g
                 id="g32"
                 style="fill:#29292a" />
              <g
                 id="g34"
                 style="fill:#29292a" />
              <g
                 id="g36"
                 style="fill:#29292a" />
            </g>
          </g>
        </g>
      </g>
      <circle
         cx="-19.347"
         cy="294.53"
         r="0"
         enable-background="new"
         fill="#d5d3cf"
         id="circle174"
         style="fill:#29292a" />
    </g>
  </g>
</svg>
