<?xml version="1.0" encoding="UTF-8" standalone="no"?>
<svg
   xmlns:dc="http://purl.org/dc/elements/1.1/"
   xmlns:cc="http://creativecommons.org/ns#"
   xmlns:rdf="http://www.w3.org/1999/02/22-rdf-syntax-ns#"
   xmlns:svg="http://www.w3.org/2000/svg"
   xmlns="http://www.w3.org/2000/svg"
   xmlns:sodipodi="http://sodipodi.sourceforge.net/DTD/sodipodi-0.dtd"
   xmlns:inkscape="http://www.inkscape.org/namespaces/inkscape"
   width="64"
   height="64"
   version="1"
   id="svg14"
   sodipodi:docname="git-cola.svg"
   inkscape:version="1.0.2 (e86c870879, 2021-01-15)">
  <metadata
     id="metadata20">
    <rdf:RDF>
      <cc:Work
         rdf:about="">
        <dc:format>image/svg+xml</dc:format>
        <dc:type
           rdf:resource="http://purl.org/dc/dcmitype/StillImage" />
        <dc:title></dc:title>
      </cc:Work>
    </rdf:RDF>
  </metadata>
  <defs
     id="defs18" />
  <sodipodi:namedview
     pagecolor="#ffffff"
     bordercolor="#666666"
     borderopacity="1"
     objecttolerance="10"
     gridtolerance="10"
     guidetolerance="10"
     inkscape:pageopacity="0"
     inkscape:pageshadow="2"
     inkscape:window-width="1439"
     inkscape:window-height="957"
     id="namedview16"
     showgrid="false"
     inkscape:zoom="12.890625"
     inkscape:cx="32"
     inkscape:cy="32"
     inkscape:window-x="727"
     inkscape:window-y="39"
     inkscape:window-maximized="0"
     inkscape:current-layer="svg14" />
  <path
     style="fill:#29292a"
     d="m 31.999129,2.0000277 c -1.571499,0 -3.144048,0.5857443 -4.318781,1.7604495 L 3.7604235,27.683068 c -2.3494678,2.349408 -2.3461349,6.281166 0.00343,8.630576 L 27.683777,60.236235 c 2.349468,2.349411 6.28473,2.352743 8.634198,0.0034 l 23.919924,-23.92259 c 2.349467,-2.34941 2.349468,-6.284534 0,-8.633943 L 36.317912,3.7604772 C 35.143179,2.5857722 33.570629,2.0000277 31.999129,2.0000277 Z"
     id="path4" />
  <path
     style="fill:#676767;fill-rule:evenodd"
     d="M 20.134766 11.306641 L 17.306641 14.134766 L 26 22.828125 L 26 44 L 30 44 L 30 26.828125 L 37.585938 34.414062 L 40.414062 31.585938 L 20.134766 11.306641 z"
     id="path6" />
  <path
     style="fill:#e6e6e6;opacity:1"
     d="M 28 16 A 5.9999999 5.9999999 0 0 0 22 22 A 5.9999999 5.9999999 0 0 0 28 28 A 5.9999999 5.9999999 0 0 0 34 22 A 5.9999999 5.9999999 0 0 0 28 16 z M 39 27 A 5.9999999 5.9999999 0 0 0 33 33 A 5.9999999 5.9999999 0 0 0 39 39 A 5.9999999 5.9999999 0 0 0 45 33 A 5.9999999 5.9999999 0 0 0 39 27 z M 28 37 A 5.9999999 5.9999999 0 0 0 22 43 A 5.9999999 5.9999999 0 0 0 28 49 A 5.9999999 5.9999999 0 0 0 34 43 A 5.9999999 5.9999999 0 0 0 28 37 z"
     id="path10" />
</svg>
