<?xml version="1.0" encoding="UTF-8" standalone="no"?>
<svg
   xmlns:dc="http://purl.org/dc/elements/1.1/"
   xmlns:cc="http://creativecommons.org/ns#"
   xmlns:rdf="http://www.w3.org/1999/02/22-rdf-syntax-ns#"
   xmlns:svg="http://www.w3.org/2000/svg"
   xmlns="http://www.w3.org/2000/svg"
   xmlns:sodipodi="http://sodipodi.sourceforge.net/DTD/sodipodi-0.dtd"
   xmlns:inkscape="http://www.inkscape.org/namespaces/inkscape"
   width="64"
   height="64"
   version="1"
   id="svg12"
   sodipodi:docname="github-desktop.svg"
   inkscape:version="1.0.2 (e86c870879, 2021-01-15)">
  <metadata
     id="metadata18">
    <rdf:RDF>
      <cc:Work
         rdf:about="">
        <dc:format>image/svg+xml</dc:format>
        <dc:type
           rdf:resource="http://purl.org/dc/dcmitype/StillImage" />
        <dc:title></dc:title>
      </cc:Work>
    </rdf:RDF>
  </metadata>
  <defs
     id="defs16" />
  <sodipodi:namedview
     pagecolor="#ffffff"
     bordercolor="#666666"
     borderopacity="1"
     objecttolerance="10"
     gridtolerance="10"
     guidetolerance="10"
     inkscape:pageopacity="0"
     inkscape:pageshadow="2"
     inkscape:window-width="1230"
     inkscape:window-height="928"
     id="namedview14"
     showgrid="false"
     inkscape:zoom="12.890625"
     inkscape:cx="32"
     inkscape:cy="32"
     inkscape:window-x="0"
     inkscape:window-y="0"
     inkscape:window-maximized="0"
     inkscape:current-layer="svg12" />
  <path
     style="fill:#29292a"
     d="m 59.998401,32.000856 c 0,-15.511557 -12.487644,-27.9992001 -27.999201,-27.9992001 -15.511557,0 -27.9992006,12.4876431 -27.9992006,27.9992001 0,15.511558 12.4876436,27.999201 27.9992006,27.999201 15.511557,0 27.999201,-12.487643 27.999201,-27.999201 z"
     id="path4" />
  <path
     style="fill:#ffffff;opacity:0.85"
     d="M 46.820312 18.005859 C 45.968176 17.966059 43.567145 18.250663 39.814453 20.861328 C 37.715081 20.228289 35.318606 19.993959 32.820312 20 C 30.534864 20.0055 28.164894 20.192771 25.861328 20.861328 C 22.107435 18.250803 20.188913 17.967614 19.335938 18.007812 C 19.051547 18.021213 18.914062 18.064453 18.914062 18.064453 C 17.486964 21.766548 18.389863 24.505367 18.660156 25.185547 C 16.983684 27.064713 16 29.464475 16 32.400391 C 16 42.707697 22.678613 45.016532 28.498047 45.695312 C 27.749908 46.367393 27.27913 47.75699 27.041016 49.494141 C 25.547959 50.182721 21.542812 51.867955 19.205078 47.757812 C 19.205078 47.757812 17.822031 45.174169 15.191406 44.984375 C 15.191406 44.984375 12.63403 44.951349 15.013672 46.619141 C 15.013672 46.619141 16.731562 47.446895 17.923828 50.554688 C 17.923828 50.554688 19.694403 55.285109 26.984375 53.660156 C 26.991647 54.922208 26.997702 57.274724 27.003906 59.550781 C 28.6249 59.840571 30.293171 60 32 60 C 34.781923 60 37.46329 59.59248 39.996094 58.84375 C 40.003619 56.068734 40.011719 52.791592 40.011719 50.65625 C 40.011719 48.147921 38.974749 46.506357 38.035156 45.675781 C 43.872189 45.01032 50 42.734096 50 32.400391 C 50 29.464475 49.183518 27.06274 47.503906 25.183594 C 47.772598 24.503254 48.674441 21.766548 47.244141 18.064453 C 47.244141 18.064453 47.106317 18.019119 46.822266 18.005859 L 46.820312 18.005859 z"
     id="path10" />
</svg>
