<?xml version="1.0" encoding="UTF-8" standalone="no"?>
<svg
   xmlns:dc="http://purl.org/dc/elements/1.1/"
   xmlns:cc="http://creativecommons.org/ns#"
   xmlns:rdf="http://www.w3.org/1999/02/22-rdf-syntax-ns#"
   xmlns:svg="http://www.w3.org/2000/svg"
   xmlns="http://www.w3.org/2000/svg"
   xmlns:sodipodi="http://sodipodi.sourceforge.net/DTD/sodipodi-0.dtd"
   xmlns:inkscape="http://www.inkscape.org/namespaces/inkscape"
   width="64"
   height="64"
   version="1"
   id="svg12"
   sodipodi:docname="GitKraken.svg"
   inkscape:version="1.0.2 (e86c870879, 2021-01-15)">
  <metadata
     id="metadata18">
    <rdf:RDF>
      <cc:Work
         rdf:about="">
        <dc:format>image/svg+xml</dc:format>
        <dc:type
           rdf:resource="http://purl.org/dc/dcmitype/StillImage" />
        <dc:title></dc:title>
      </cc:Work>
    </rdf:RDF>
  </metadata>
  <defs
     id="defs16" />
  <sodipodi:namedview
     pagecolor="#ffffff"
     bordercolor="#666666"
     borderopacity="1"
     objecttolerance="10"
     gridtolerance="10"
     guidetolerance="10"
     inkscape:pageopacity="0"
     inkscape:pageshadow="2"
     inkscape:window-width="1531"
     inkscape:window-height="937"
     id="namedview14"
     showgrid="false"
     inkscape:zoom="12.890625"
     inkscape:cx="32"
     inkscape:cy="27.539907"
     inkscape:window-x="0"
     inkscape:window-y="0"
     inkscape:window-maximized="0"
     inkscape:current-layer="svg12" />
  <rect
     style="fill:#29292a"
     width="56.004"
     height="56"
     x="-60"
     y="-60"
     rx="28.002"
     ry="28"
     transform="matrix(0,-1,-1,0,0,0)"
     id="rect4" />
  <path
     style="fill:#ffffff;opacity:0.85"
     d="m 25.701172,23.130853 c -2.441774,3.20703 -3.703125,5.797529 -3.703125,7.597657 0,1.193385 0.105718,1.383983 1.138672,2.070312 1.765672,1.600994 1.448391,3.091286 1.863281,5.201172 -0.568552,0 -1,1 -1,2 0,1 0.457596,2 1,2 l -0.002,2.044922 c -4.4855,-2.587785 -7,-7.42079 -7,-12.992188 0,-5.965026 3.454698,-10.630555 8.472656,-13.051728 l -5.373047,0 0,-0.002 C 17.360542,21.293035 14.998,25.654343 14.998,31.050728 c 0,7.289721 3.797757,13.52688 10,16.363281 l 0.289062,0.140626 c 0.867142,0.377746 1.778932,0.667966 2.710938,0.908203 l 0,3.05664 C 18.380835,49.409513 12.019608,40.899554 11.996094,31.052728 c 0.0031,-2.032424 0.301073,-4.105943 0.884765,-6.052734 l -3.101562,0 C 9.2664879,26.959127 9.0027006,29.027592 8.9960939,31.052728 9.0008837,43.72358 18.35302,54.208067 30.998047,54.999994 l 0,-10.003906 c 5.01e-4,7.8e-5 0.0015,-7.9e-5 0.002,0 L 31,44.999994 c 0.250988,-0.0057 0.622957,0.01286 0.996094,0.02344 0.0029,-8.1e-5 0.0049,8.2e-5 0.0078,0 0.373149,-0.01057 0.745118,-0.02913 0.996106,-0.02344 l 0,-0.0039 c 5.02e-4,-7.9e-5 0.0015,7.8e-5 0.002,0 L 33.002,55 c 12.64498,-0.791933 21.997116,-11.27642 22.001906,-23.947272 -0.0066,-2.025136 -0.270394,-4.093601 -0.783203,-6.052734 l -3.101562,0 c 0.583692,1.946791 0.881665,4.02031 0.884765,6.052734 -0.02351,9.846826 -6.384788,18.356832 -16.001953,20.466797 l 0,-3.05664 c 0.932006,-0.240237 1.843796,-0.530457 2.710938,-0.908203 l 0.289062,-0.140626 c 6.202243,-2.836401 10,-9.07356 10,-16.363281 0,-5.396385 -2.362542,-9.75774 -6.099609,-13.051775 l 0,0.002 -5.373047,0 c 5.017958,2.421173 8.472656,7.086749 8.472656,13.051775 0,5.571398 -2.5145,10.404403 -7,12.992188 L 39,41.999994 c 0.542404,0 1,-1 1,-2 0,-1 -0.431448,-2 -1,-2 0.41489,-2.109886 0.09761,-3.600178 1.863281,-5.201172 1.032954,-0.686329 1.138672,-0.876927 1.138672,-2.070312 0,-1.800128 -1.261351,-4.390627 -3.703125,-7.597657 C 36.712368,21.047939 35,18 32,18 c -3,0 -4.950511,3.425951 -6.298828,5.130853 z M 27.5,38.999994 c 0.828432,0 1.499923,0.671491 1.5,1.5 -7.7e-5,0.82851 -0.671568,1.5 -1.5,1.5 -0.828432,0 -1.499923,-0.671491 -1.5,-1.5 7.7e-5,-0.828509 0.671568,-1.5 1.5,-1.5 z m 9,0 c 0.828432,0 1.499923,0.671491 1.5,1.5 -7.7e-5,0.828509 -0.671568,1.5 -1.5,1.5 -0.828432,0 -1.499923,-0.67149 -1.5,-1.5 7.7e-5,-0.828509 0.671568,-1.5 1.5,-1.5 z"
     id="path8" />
</svg>
