<?xml version="1.0" encoding="UTF-8" standalone="no"?>
<svg
   xmlns:dc="http://purl.org/dc/elements/1.1/"
   xmlns:cc="http://creativecommons.org/ns#"
   xmlns:rdf="http://www.w3.org/1999/02/22-rdf-syntax-ns#"
   xmlns:svg="http://www.w3.org/2000/svg"
   xmlns="http://www.w3.org/2000/svg"
   xmlns:sodipodi="http://sodipodi.sourceforge.net/DTD/sodipodi-0.dtd"
   xmlns:inkscape="http://www.inkscape.org/namespaces/inkscape"
   width="64"
   height="64"
   version="1"
   id="svg12"
   sodipodi:docname="gnome-emacs.svg"
   inkscape:version="1.0.2 (e86c870879, 2021-01-15)">
  <metadata
     id="metadata18">
    <rdf:RDF>
      <cc:Work
         rdf:about="">
        <dc:format>image/svg+xml</dc:format>
        <dc:type
           rdf:resource="http://purl.org/dc/dcmitype/StillImage" />
        <dc:title></dc:title>
      </cc:Work>
    </rdf:RDF>
  </metadata>
  <defs
     id="defs16" />
  <sodipodi:namedview
     pagecolor="#ffffff"
     bordercolor="#666666"
     borderopacity="1"
     objecttolerance="10"
     gridtolerance="10"
     guidetolerance="10"
     inkscape:pageopacity="0"
     inkscape:pageshadow="2"
     inkscape:window-width="1575"
     inkscape:window-height="876"
     id="namedview14"
     showgrid="false"
     inkscape:zoom="12.890625"
     inkscape:cx="32"
     inkscape:cy="35.10303"
     inkscape:window-x="0"
     inkscape:window-y="0"
     inkscape:window-maximized="0"
     inkscape:current-layer="svg12" />
  <path
     style="fill:#29292a;stroke-width:1.52546"
     d="m 16.70374,58.460252 c 0,0 3.016035,1.671405 7.030764,2.261179 1.625848,0.238844 7.811895,1.073653 12.554913,1.051799 0,0 5.776566,0.0062 8.965186,-0.525899 3.33647,-0.558317 5.226483,-1.270873 6.278581,-2.692841 0.02755,-0.339042 0.507751,-1.444219 -0.789172,-2.509991 -3.315672,-2.724795 -7.601927,-3.470563 -15.927645,-5.800055 -9.206638,-2.726815 -12.099133,-5.338131 -13.473916,-7.227553 -1.303165,-1.893924 0.385869,-5.827206 7.804444,-7.756695 3.75613,-1.076799 16.968227,-1.635327 16.968227,-1.635327 -4.013605,-3.75368 -10.77116,-10.113594 -12.311221,-11.542746 -1.35078,-1.253488 -3.527609,-3.177083 -3.761471,-4.896074 -0.315631,-1.673327 1.9202,-2.47903 3.104014,-2.571977 3.814033,-0.309871 9.022528,0.878622 13.651987,1.963168 2.327096,0.545171 2.735653,0.464839 2.735653,0.464839 3.314266,0.185929 6.550819,-2.520955 6.419272,-6.828313 C 55.926933,5.8445182 51.56014,2.3408417 47.456027,2.1878608 43.304198,2.1667176 33.465965,2.1667176 33.465965,2.1667176 44.566549,4.8626695 46.9824,6.2224034 47.561434,7.7965891 47.904356,8.7267305 46.990834,9.6509114 43.932635,9.4704459 40.601784,9.2737563 33.777057,8.3237467 33.777057,8.3237467 27.281197,7.1462532 23.317937,6.0306792 21.344724,9.0674621 c -1.288885,1.9839599 0.184167,4.4003739 0.762836,5.8255519 2.577824,5.299059 6.473344,8.934523 9.301895,11.496468 1.064326,0.964015 4.313803,3.098771 4.313803,3.098771 -10.100767,-3.253707 -18.711822,-1.425444 -23.814907,1.735314 -5.8659506,4.090437 -4.8624785,10.992821 4.44535,17.446194 5.497728,3.811625 8.796849,5.642437 17.798014,6.944436 5.261337,0.988288 6.32666,1.392662 6.286747,1.908562 -0.05642,0.726364 -6.508804,1.001599 -8.204867,1.139413 -4.315207,0.350567 -15.475381,-0.20192 -15.531035,-0.20192 z"
     id="path10" />
</svg>
