<?xml version="1.0" encoding="UTF-8" standalone="no"?>
<svg
   xmlns:dc="http://purl.org/dc/elements/1.1/"
   xmlns:cc="http://creativecommons.org/ns#"
   xmlns:rdf="http://www.w3.org/1999/02/22-rdf-syntax-ns#"
   xmlns:svg="http://www.w3.org/2000/svg"
   xmlns="http://www.w3.org/2000/svg"
   xmlns:sodipodi="http://sodipodi.sourceforge.net/DTD/sodipodi-0.dtd"
   xmlns:inkscape="http://www.inkscape.org/namespaces/inkscape"
   width="64"
   height="64"
   version="1"
   id="svg20"
   sodipodi:docname="google-chrome.svg"
   inkscape:version="1.0.2 (e86c870879, 2021-01-15)">
  <metadata
     id="metadata26">
    <rdf:RDF>
      <cc:Work
         rdf:about="">
        <dc:format>image/svg+xml</dc:format>
        <dc:type
           rdf:resource="http://purl.org/dc/dcmitype/StillImage" />
        <dc:title />
      </cc:Work>
    </rdf:RDF>
  </metadata>
  <defs
     id="defs24" />
  <sodipodi:namedview
     pagecolor="#ffffff"
     bordercolor="#666666"
     borderopacity="1"
     objecttolerance="10"
     gridtolerance="10"
     guidetolerance="10"
     inkscape:pageopacity="0"
     inkscape:pageshadow="2"
     inkscape:window-width="1360"
     inkscape:window-height="897"
     id="namedview22"
     showgrid="false"
     inkscape:zoom="12.890625"
     inkscape:cx="32"
     inkscape:cy="35.10303"
     inkscape:window-x="108"
     inkscape:window-y="77"
     inkscape:window-maximized="0"
     inkscape:current-layer="svg20"
     inkscape:document-rotation="0" />
  <path
     style="opacity:.1"
     d="m31.988333 59.969839c-15.503815 0-27.985666-12.481451-27.985666-27.985667 0-0.234677-0.006-0.466373 0-0.699631 0.3700156 15.176819 12.716048 27.285675 27.985666 27.285675 15.269019 0 27.615672-12.108656 27.985667-27.285675 0.006 0.233257 0 0.464954 0 0.699631 0 15.503816-12.481451 27.985667-27.985667 27.985667z"
     id="path4" />
  <path
     style="fill:#29292a"
     d="m8.6998295 16.504263c-0.4817493 0.731944-0.927343 1.516337-1.37889 2.292941a27.999667 27.999667 0 0 0 -3.3202729 13.202968 27.999667 27.999667 0 0 0 27.999666 27.999667 27.999667 27.999667 0 0 0 0.429683 -0.0156l13.257654-22.046637c-1.062027 1.729879-5.486734 3.944909-7.374912 5.035096-6.041928 3.488358-13.714563 1.233551-17.202919-4.808537l-12.41001-21.659898z"
     id="path6" />
  <path
     style="fill:#e6e6e6"
     d="m32.031583 18.000339c-0.03094 0 4.443979 1.995873 6.331957 3.085901 4.824814 2.785647 5.328398 12.734559 5.339778 16.76152l0.808584 0.468744-0.824208 1.425765c-0.000064 0.0014 0 0.0664 0 0.0664l-0.312496 0.472656-11.374865 19.702892c0.07422 0.0019 0.148519 0.0082 0.222654 0.0078a27.999667 27.999667 0 0 0 1.160142 -0.04296c0.224261-0.0104 0.448167-0.0116 0.671868-0.02734a27.999667 27.999667 0 0 0 2.632781 -0.32031c0.05748-0.0096 0.114458-0.0213 0.171878-0.03126a27.999667 27.999667 0 0 0 23.140344 -27.569974 27.999667 27.999667 0 0 0 -3.792923 -13.999834h-24.175494z"
     id="path8" />
  <path
     style="fill:#676767"
     d="m31.988615 4.0005059a27.999667 27.999667 0 0 0 -0.48437 0.01562 27.999667 27.999667 0 0 0 -1.484356 0.054687 27.999667 27.999667 0 0 0 -0.08204 0.01172 27.999667 27.999667 0 0 0 -2.53122 0.304684c-0.0857 0.01408-0.172278 0.024532-0.257809 0.039061-0.0052 0.000894-0.0104 0.00298-0.0156 0.0039a27.999667 27.999667 0 0 0 -2.62108 0.5898471 27.999667 27.999667 0 0 0 -5.210874 2.0273197 27.999667 27.999667 0 0 0 -0.621087 0.3554645 27.999667 27.999667 0 0 0 -10.913932 10.617061l11.378771 19.710702 0.238278 0.476558 0.05859 0.03516 0.53515 0.929677 4.910097 3.945265 1.363266-0.582025 1.562481 0.984364c-0.184895-0.340768-0.370224-0.849022-0.550772-1.417957l9.183484-3.925732-9.503792-16.464649c0.869413-2.005689 2.389615-3.412261 5.058533-3.710894h24.206744a27.999667 27.999667 0 0 0 -1.519514 -2.351534 27.999667 27.999667 0 0 0 -1.710917 -2.1406 27.999667 27.999667 0 0 0 -0.07422 -0.08594 27.999667 27.999667 0 0 0 -1.816382 -1.863255 27.999667 27.999667 0 0 0 -0.191404 -0.175779 27.999667 27.999667 0 0 0 -1.917947 -1.60545 27.999667 27.999667 0 0 0 -0.269526 -0.2031226 27.999667 27.999667 0 0 0 -1.980447 -1.3476404 27.999667 27.999667 0 0 0 -0.382807 -0.234372 27.999667 27.999667 0 0 0 -1.992165 -1.0859247 27.999667 27.999667 0 0 0 -0.566399 -0.269528 27.999667 27.999667 0 0 0 -1.914039 -0.8007716 27.999667 27.999667 0 0 0 -0.738273 -0.2734344 27.999667 27.999667 0 0 0 -1.843728 -0.5624933 27.999667 27.999667 0 0 0 -0.925769 -0.2382784 27.999667 27.999667 0 0 0 -1.722638 -0.3437459 27.999667 27.999667 0 0 0 -1.097643 -0.1640606 27.999667 27.999667 0 0 0 -1.570293 -0.1562482 27.999667 27.999667 0 0 0 -1.972633 -0.097655 27.999667 27.999667 0 0 0 -0.0118 0z"
     id="path10" />
  <rect
     style="fill:#e6e6e6"
     width="28"
     height="28"
     x="-46"
     y="-46"
     rx="14"
     ry="14"
     transform="matrix(0,-1,-1,0,0,0)"
     id="rect16" />
  <rect
     style="fill:#29292a"
     width="22"
     height="22"
     x="-43"
     y="-43"
     rx="11"
     ry="11"
     transform="matrix(0,-1,-1,0,0,0)"
     id="rect18" />
</svg>
