<?xml version="1.0" encoding="UTF-8" standalone="no"?>
<svg
   xmlns:dc="http://purl.org/dc/elements/1.1/"
   xmlns:cc="http://creativecommons.org/ns#"
   xmlns:rdf="http://www.w3.org/1999/02/22-rdf-syntax-ns#"
   xmlns:svg="http://www.w3.org/2000/svg"
   xmlns="http://www.w3.org/2000/svg"
   xmlns:sodipodi="http://sodipodi.sourceforge.net/DTD/sodipodi-0.dtd"
   xmlns:inkscape="http://www.inkscape.org/namespaces/inkscape"
   width="64"
   height="64"
   version="1.1"
   id="svg73"
   sodipodi:docname="gufw.svg"
   inkscape:version="1.0.2 (e86c870879, 2021-01-15)">
  <metadata
     id="metadata77">
    <rdf:RDF>
      <cc:Work
         rdf:about="">
        <dc:format>image/svg+xml</dc:format>
        <dc:type
           rdf:resource="http://purl.org/dc/dcmitype/StillImage" />
        <dc:title></dc:title>
      </cc:Work>
    </rdf:RDF>
  </metadata>
  <sodipodi:namedview
     pagecolor="#ffffff"
     bordercolor="#666666"
     borderopacity="1"
     objecttolerance="10"
     gridtolerance="10"
     guidetolerance="10"
     inkscape:pageopacity="0"
     inkscape:pageshadow="2"
     inkscape:window-width="1920"
     inkscape:window-height="996"
     id="namedview75"
     showgrid="false"
     inkscape:zoom="12.578125"
     inkscape:cx="32"
     inkscape:cy="32"
     inkscape:window-x="0"
     inkscape:window-y="0"
     inkscape:window-maximized="1"
     inkscape:current-layer="svg73"
     inkscape:document-rotation="0" />
  <defs
     id="defs29">
    <linearGradient
       id="b"
       x1="399.57"
       x2="399.57"
       y1="545.8"
       y2="517.8"
       gradientTransform="matrix(2.1429,0,0,2.1429,-826.36,-1107.5)"
       gradientUnits="userSpaceOnUse">
      <stop
         stop-color="#3889e9"
         offset="0"
         id="stop2" />
      <stop
         stop-color="#5ea5fb"
         offset="1"
         id="stop4" />
    </linearGradient>
    <linearGradient
       id="linearGradient862"
       x1="7.9373"
       x2="7.9373"
       y1="15.081"
       y2="1.852"
       gradientTransform="matrix(3.3743 0 0 3.3743 3.4312 3.4278)"
       gradientUnits="userSpaceOnUse">
      <stop
         stop-color="#f1efeb"
         offset="0"
         id="stop7" />
      <stop
         stop-color="#fff"
         offset="1"
         id="stop9" />
    </linearGradient>
    <linearGradient
       id="linearGradient910"
       x1="7.9373"
       x2="7.9373"
       y1="15.081"
       y2="1.852"
       gradientTransform="scale(3.7796)"
       gradientUnits="userSpaceOnUse">
      <stop
         stop-color="#613583"
         offset="0"
         id="stop12" />
      <stop
         stop-color="#a663c0"
         offset="1"
         id="stop14" />
    </linearGradient>
    <linearGradient
       id="linearGradient932"
       x1="379.24"
       x2="374.24"
       y1="546.85"
       y2="546.85"
       gradientTransform="matrix(2.1429 0 0 2.1429 -769.68 -1134.5)"
       gradientUnits="userSpaceOnUse">
      <stop
         stop-color="#f6f5f4"
         offset="0"
         id="stop17" />
      <stop
         stop-color="#fff"
         offset=".6"
         id="stop19" />
      <stop
         stop-color="#dddbd8"
         offset="1"
         id="stop21" />
    </linearGradient>
    <linearGradient
       id="linearGradient1146"
       x1="18"
       x2="18"
       y1="52"
       y2="12"
       gradientUnits="userSpaceOnUse">
      <stop
         stop-color="#5e337f"
         offset="0"
         id="stop24" />
      <stop
         stop-color="#ab60bf"
         offset="1"
         id="stop26" />
    </linearGradient>
    <linearGradient
       id="deepin-defender64-i"
       x1="18.447771"
       x2="19.112602"
       y1="8.5743881"
       y2="44.627934"
       gradientTransform="matrix(0.96263527,0,0,1.038815,14.527599,5.6058415)"
       gradientUnits="userSpaceOnUse">
      <stop
         offset="0%"
         stop-color="#FFF"
         id="stop44" />
      <stop
         offset="100%"
         stop-color="#9CD8F8"
         id="stop46" />
    </linearGradient>
  </defs>
  <circle
     cx="32.02"
     cy="32.044"
     r="30.001"
     fill-opacity="0"
     stroke-width="1.5715"
     id="circle39" />
  <circle
     cx="32.02"
     cy="32.044"
     r="0"
     fill="url(#b)"
     stroke-width="1.5715"
     id="circle41" />
  <path
     id="use85"
     d="M 56.689271,11.54965 C 56.591333,10.760889 56.091883,10.096505 55.394379,9.826848 L 33.370553,2.939281 c -0.9499,-0.362896 -1.854593,-0.3157993 -2.594715,0 L 8.7519317,9.826848 c -0.6978275,0.269657 -1.1969585,0.934128 -1.2948921,1.722802 -0.049257,0.396723 -1.1792462,9.842951 1.1309683,20.638675 1.37285,6.41495 3.6827411,11.969324 6.8660301,16.508994 3.94023,5.61908 9.207458,9.662023 15.659432,12.024229 0.534794,0.232449 1.119484,0.338784 1.918965,0 6.451974,-2.362119 11.719607,-6.405149 15.659838,-12.024229 3.182965,-4.53967 5.49318,-10.094044 6.86603,-16.508994 2.310296,-10.795724 1.179974,-20.241952 1.130968,-20.638675 z"
     style="fill:#29292a;stroke-width:1.46821" />
  <path
     id="use89"
     d="m 27.322114,17.187734 c 0.405719,-1.613556 2.028599,-2.787919 3.516238,-2.787919 h 4.057197 c 1.48764,0 2.16384,1.174363 1.622879,2.641522 L 33.313869,25.0925 h 5.815317 c 2.975279,0 3.786718,2.055929 1.893358,4.404656 l -12.990415,16.49477 c -0.946681,1.174363 -1.487641,1.027965 -1.081921,-0.585589 l 2.300494,-12.676206 h -4.733399 c -1.487639,0 -2.299078,-1.174364 -1.893359,-2.787919 z"
     style="fill:#e6e6e6;stroke-width:1.46821" />
</svg>
