<?xml version="1.0" encoding="UTF-8" standalone="no"?>
<svg
   xmlns:dc="http://purl.org/dc/elements/1.1/"
   xmlns:cc="http://creativecommons.org/ns#"
   xmlns:rdf="http://www.w3.org/1999/02/22-rdf-syntax-ns#"
   xmlns:svg="http://www.w3.org/2000/svg"
   xmlns="http://www.w3.org/2000/svg"
   xmlns:sodipodi="http://sodipodi.sourceforge.net/DTD/sodipodi-0.dtd"
   xmlns:inkscape="http://www.inkscape.org/namespaces/inkscape"
   width="64"
   height="64"
   version="1.1"
   id="svg73"
   sodipodi:docname="internet-chat.svg"
   inkscape:version="1.0.2 (e86c870879, 2021-01-15)">
  <metadata
     id="metadata77">
    <rdf:RDF>
      <cc:Work
         rdf:about="">
        <dc:format>image/svg+xml</dc:format>
        <dc:type
           rdf:resource="http://purl.org/dc/dcmitype/StillImage" />
        <dc:title />
      </cc:Work>
    </rdf:RDF>
  </metadata>
  <sodipodi:namedview
     pagecolor="#ffffff"
     bordercolor="#666666"
     borderopacity="1"
     objecttolerance="10"
     gridtolerance="10"
     guidetolerance="10"
     inkscape:pageopacity="0"
     inkscape:pageshadow="2"
     inkscape:window-width="1541"
     inkscape:window-height="738"
     id="namedview75"
     showgrid="false"
     inkscape:zoom="12.578125"
     inkscape:cx="32"
     inkscape:cy="25.639752"
     inkscape:window-x="202"
     inkscape:window-y="197"
     inkscape:window-maximized="0"
     inkscape:current-layer="svg73"
     inkscape:document-rotation="0" />
  <defs
     id="defs29">
    <linearGradient
       id="b"
       x1="399.57"
       x2="399.57"
       y1="545.8"
       y2="517.8"
       gradientTransform="matrix(2.1429,0,0,2.1429,-826.36,-1107.5)"
       gradientUnits="userSpaceOnUse">
      <stop
         stop-color="#3889e9"
         offset="0"
         id="stop2" />
      <stop
         stop-color="#5ea5fb"
         offset="1"
         id="stop4" />
    </linearGradient>
    <linearGradient
       id="linearGradient862"
       x1="7.9373"
       x2="7.9373"
       y1="15.081"
       y2="1.852"
       gradientTransform="matrix(3.3743 0 0 3.3743 3.4312 3.4278)"
       gradientUnits="userSpaceOnUse">
      <stop
         stop-color="#f1efeb"
         offset="0"
         id="stop7" />
      <stop
         stop-color="#fff"
         offset="1"
         id="stop9" />
    </linearGradient>
    <linearGradient
       id="linearGradient910"
       x1="7.9373"
       x2="7.9373"
       y1="15.081"
       y2="1.852"
       gradientTransform="scale(3.7796)"
       gradientUnits="userSpaceOnUse">
      <stop
         stop-color="#613583"
         offset="0"
         id="stop12" />
      <stop
         stop-color="#a663c0"
         offset="1"
         id="stop14" />
    </linearGradient>
    <linearGradient
       id="linearGradient932"
       x1="379.24"
       x2="374.24"
       y1="546.85"
       y2="546.85"
       gradientTransform="matrix(2.1429 0 0 2.1429 -769.68 -1134.5)"
       gradientUnits="userSpaceOnUse">
      <stop
         stop-color="#f6f5f4"
         offset="0"
         id="stop17" />
      <stop
         stop-color="#fff"
         offset=".6"
         id="stop19" />
      <stop
         stop-color="#dddbd8"
         offset="1"
         id="stop21" />
    </linearGradient>
    <linearGradient
       id="linearGradient1146"
       x1="18"
       x2="18"
       y1="52"
       y2="12"
       gradientUnits="userSpaceOnUse">
      <stop
         stop-color="#5e337f"
         offset="0"
         id="stop24" />
      <stop
         stop-color="#ab60bf"
         offset="1"
         id="stop26" />
    </linearGradient>
    <linearGradient
       id="c-6"
       x1="368.29999"
       x2="368.29999"
       y1="509.85999"
       y2="546.94"
       gradientTransform="matrix(0.96836,0,0,0.96836,-329.43378,-479.09675)"
       gradientUnits="userSpaceOnUse">
      <stop
         stop-color="#31cbff"
         offset="0"
         id="stop7-3" />
      <stop
         stop-color="#8439ff"
         offset="1"
         id="stop9-6" />
    </linearGradient>
    <linearGradient
       id="deepin-feedback-c"
       x1="152.56342"
       x2="97.146278"
       y1="301.22742"
       y2="247.05351"
       gradientTransform="matrix(-0.15818393,0,0,0.09468396,58.346449,3.2574025)"
       gradientUnits="userSpaceOnUse">
      <stop
         offset="0%"
         stop-color="#FFF"
         stop-opacity=".494"
         id="stop22" />
      <stop
         offset="100%"
         stop-color="#FFF"
         id="stop24-3" />
    </linearGradient>
  </defs>
  <circle
     cx="32.02"
     cy="32.044"
     r="30.001"
     fill-opacity="0"
     stroke-width="1.5715"
     id="circle39" />
  <circle
     cx="32.02"
     cy="32.044"
     r="0"
     fill="url(#b)"
     stroke-width="1.5715"
     id="circle41" />
  <path
     d="M 52.11986,14.647856 C 46.76117,10.539414 39.646065,8.2768884 32.084819,8.2768884 c -7.560974,0 -14.676484,2.2626526 -20.03504,6.3709676 -5.4052382,4.144139 -8.3820773,9.667232 -8.3820773,15.551353 0,5.616539 2.7135125,10.902774 7.6600263,14.975141 -0.0892,0.18899 -0.159985,0.387835 -0.205168,0.596865 l -1.6252924,7.531933 c -0.1932599,0.895131 0.066467,1.42893 0.318103,1.719203 0.2909594,0.335337 0.7222144,0.520146 1.2144304,0.520146 0.371647,0 0.771077,-0.103287 1.187285,-0.307127 l 9.453789,-4.626906 c 3.273049,0.992513 6.791833,1.51294 10.413457,1.51294 7.560975,0 14.676485,-2.262653 20.035041,-6.370968 5.405103,-4.144011 8.381942,-9.667106 8.381942,-15.551354 0,-5.884885 -2.976704,-11.407853 -8.381808,-15.552628 z"
     fill="url(#c-6)"
     stroke-width="1.28005"
     id="path25"
     style="fill:#29292a" />
  <path
     fill="url(#deepin-feedback-c)"
     fill-rule="nonzero"
     d="m 17.266954,37.715754 c -0.854456,0 -1.547131,0.868034 -1.547131,1.938785 0,1.070753 0.692675,1.938786 1.547131,1.938786 h 30.169037 c 0.854455,0 1.547133,-0.868033 1.547133,-1.938786 0,-1.070751 -0.692678,-1.938785 -1.547133,-1.938785 z m 0,-9.693925 c -0.854456,0 -1.547131,0.867993 -1.547131,1.938784 0,1.070753 0.692675,1.938786 1.547131,1.938786 h 30.169037 c 0.854455,0 1.547133,-0.868033 1.547133,-1.938786 0,-1.070791 -0.692678,-1.938784 -1.547133,-1.938784 z m 0,-9.693965 c -0.854456,0 -1.547131,0.868033 -1.547131,1.938784 0,1.070793 0.692675,1.938825 1.547131,1.938825 h 30.169037 c 0.854455,0 1.547133,-0.868032 1.547133,-1.938825 0,-1.070751 -0.692678,-1.938784 -1.547133,-1.938784 z"
     id="path64"
     style="fill:#f9f9f9;stroke-width:0.144327;opacity:0.85" />
</svg>
