<?xml version="1.0" encoding="UTF-8" standalone="no"?>
<svg
   xmlns:dc="http://purl.org/dc/elements/1.1/"
   xmlns:cc="http://creativecommons.org/ns#"
   xmlns:rdf="http://www.w3.org/1999/02/22-rdf-syntax-ns#"
   xmlns:svg="http://www.w3.org/2000/svg"
   xmlns="http://www.w3.org/2000/svg"
   xmlns:sodipodi="http://sodipodi.sourceforge.net/DTD/sodipodi-0.dtd"
   xmlns:inkscape="http://www.inkscape.org/namespaces/inkscape"
   width="64"
   height="64"
   version="1.1"
   id="svg73"
   sodipodi:docname="io.github.seadve.Kooha.svg"
   inkscape:version="1.0.2 (e86c870879, 2021-01-15)">
  <metadata
     id="metadata77">
    <rdf:RDF>
      <cc:Work
         rdf:about="">
        <dc:format>image/svg+xml</dc:format>
        <dc:type
           rdf:resource="http://purl.org/dc/dcmitype/StillImage" />
        <dc:title />
      </cc:Work>
    </rdf:RDF>
  </metadata>
  <sodipodi:namedview
     pagecolor="#ffffff"
     bordercolor="#666666"
     borderopacity="1"
     objecttolerance="10"
     gridtolerance="10"
     guidetolerance="10"
     inkscape:pageopacity="0"
     inkscape:pageshadow="2"
     inkscape:window-width="1541"
     inkscape:window-height="738"
     id="namedview75"
     showgrid="false"
     inkscape:zoom="12.578125"
     inkscape:cx="32"
     inkscape:cy="32"
     inkscape:window-x="335"
     inkscape:window-y="258"
     inkscape:window-maximized="0"
     inkscape:current-layer="g33"
     inkscape:document-rotation="0" />
  <defs
     id="defs29">
    <linearGradient
       id="b"
       x1="399.57"
       x2="399.57"
       y1="545.8"
       y2="517.8"
       gradientTransform="matrix(2.1429,0,0,2.1429,-826.36,-1107.5)"
       gradientUnits="userSpaceOnUse">
      <stop
         stop-color="#3889e9"
         offset="0"
         id="stop2" />
      <stop
         stop-color="#5ea5fb"
         offset="1"
         id="stop4" />
    </linearGradient>
    <linearGradient
       id="linearGradient862"
       x1="7.9373"
       x2="7.9373"
       y1="15.081"
       y2="1.852"
       gradientTransform="matrix(3.3743 0 0 3.3743 3.4312 3.4278)"
       gradientUnits="userSpaceOnUse">
      <stop
         stop-color="#f1efeb"
         offset="0"
         id="stop7" />
      <stop
         stop-color="#fff"
         offset="1"
         id="stop9" />
    </linearGradient>
    <linearGradient
       id="linearGradient910"
       x1="7.9373"
       x2="7.9373"
       y1="15.081"
       y2="1.852"
       gradientTransform="scale(3.7796)"
       gradientUnits="userSpaceOnUse">
      <stop
         stop-color="#613583"
         offset="0"
         id="stop12" />
      <stop
         stop-color="#a663c0"
         offset="1"
         id="stop14" />
    </linearGradient>
    <linearGradient
       id="linearGradient932"
       x1="379.24"
       x2="374.24"
       y1="546.85"
       y2="546.85"
       gradientTransform="matrix(2.1429 0 0 2.1429 -769.68 -1134.5)"
       gradientUnits="userSpaceOnUse">
      <stop
         stop-color="#f6f5f4"
         offset="0"
         id="stop17" />
      <stop
         stop-color="#fff"
         offset=".6"
         id="stop19" />
      <stop
         stop-color="#dddbd8"
         offset="1"
         id="stop21" />
    </linearGradient>
    <linearGradient
       id="linearGradient1146"
       x1="18"
       x2="18"
       y1="52"
       y2="12"
       gradientUnits="userSpaceOnUse">
      <stop
         stop-color="#5e337f"
         offset="0"
         id="stop24" />
      <stop
         stop-color="#ab60bf"
         offset="1"
         id="stop26" />
    </linearGradient>
    <filter
       id="filter959"
       x="-0.086140998"
       y="-0.14473"
       width="1.1723"
       height="1.2895"
       color-interpolation-filters="sRGB">
      <feGaussianBlur
         stdDeviation="1.3860344"
         id="feGaussianBlur2" />
    </filter>
  </defs>
  <circle
     cx="32.02"
     cy="32.044"
     r="30.001"
     fill-opacity="0"
     stroke-width="1.5715"
     id="circle39" />
  <circle
     cx="32.02"
     cy="32.044"
     r="0"
     fill="url(#b)"
     stroke-width="1.5715"
     id="circle41" />
  <g
     fill-rule="evenodd"
     id="g33"
     transform="translate(-1.4857412,0.26970579)"
     style="fill:#123354">
    <path
       d="m 45.042344,23.839045 14.03688,-6.656383 c 1.149593,-0.545146 2.095478,0.01262 2.112555,1.243572 l 0.34234,24.580329 c 0.01716,1.231961 -0.913947,1.803946 -2.077383,1.278376 l -14.264333,-6.441818 0.03162,2.952442 c 0.02647,2.471027 -2.037583,4.478308 -4.607602,4.483449 l -30.258241,0.06037 c -2.5710755,0.0051 -4.6769124,-1.986957 -4.7034358,-4.46494 L 5.439416,20.781118 c -0.026456,-2.471025 2.0375814,-4.478307 4.6076,-4.483448 l 30.258242,-0.06037 c 2.571076,-0.0051 4.676912,1.986955 4.703435,4.464941 z m 0,0 -12.971788,6.151331 c -1.148612,0.544692 -1.137501,1.413362 0.027,1.939328 l 13.094801,5.913761 z"
       fill="#ffffff"
       id="path27"
       style="fill:#29292a;stroke-width:1.47202" />
    <path
       d="m 58.997427,18.016893 c 1.149593,-0.545146 2.095479,0.01262 2.112555,1.243572 l 0.424664,23.746874 c 0.01716,1.231961 -0.913947,1.803947 -2.077383,1.278375 l -14.259428,-6.433364 0.10901,2.110532 c 0.02647,2.471027 -2.037582,4.478306 -4.6076,4.483448 l -30.258243,0.06037 C 7.8699269,44.511841 5.7640899,42.519747 5.7375668,40.041761 L 5.3575889,21.615346 C 5.3311329,19.144321 7.3951702,17.13704 9.9651886,17.131898 l 30.2582424,-0.06037 c 2.571076,-0.0051 4.803167,1.999427 4.82969,4.477411 0,0 -0.03011,3.082652 5.55e-4,3.068152 4.647909,-2.200086 13.943564,-6.600127 13.943564,-6.600127 z M 32.071191,29.991597 c -1.148613,0.544692 -1.219825,2.246817 -0.05531,2.77264 l 13.230927,5.927206 -0.203663,-14.851451 z"
       fill="#fff3f3"
       id="path31"
       style="fill:#29292a;stroke-width:1.47202" />
  </g>
</svg>
