<?xml version="1.0" encoding="UTF-8" standalone="no"?>
<svg
   xmlns:dc="http://purl.org/dc/elements/1.1/"
   xmlns:cc="http://creativecommons.org/ns#"
   xmlns:rdf="http://www.w3.org/1999/02/22-rdf-syntax-ns#"
   xmlns:svg="http://www.w3.org/2000/svg"
   xmlns="http://www.w3.org/2000/svg"
   xmlns:sodipodi="http://sodipodi.sourceforge.net/DTD/sodipodi-0.dtd"
   xmlns:inkscape="http://www.inkscape.org/namespaces/inkscape"
   width="64"
   height="64"
   version="1"
   id="svg54"
   sodipodi:docname="jockey.svg"
   inkscape:version="1.0.2 (e86c870879, 2021-01-15)">
  <metadata
     id="metadata60">
    <rdf:RDF>
      <cc:Work
         rdf:about="">
        <dc:format>image/svg+xml</dc:format>
        <dc:type
           rdf:resource="http://purl.org/dc/dcmitype/StillImage" />
        <dc:title />
      </cc:Work>
    </rdf:RDF>
  </metadata>
  <defs
     id="defs58" />
  <sodipodi:namedview
     pagecolor="#ffffff"
     bordercolor="#666666"
     borderopacity="1"
     objecttolerance="10"
     gridtolerance="10"
     guidetolerance="10"
     inkscape:pageopacity="0"
     inkscape:pageshadow="2"
     inkscape:window-width="1553"
     inkscape:window-height="902"
     id="namedview56"
     showgrid="false"
     inkscape:zoom="12.890625"
     inkscape:cx="32"
     inkscape:cy="32"
     inkscape:window-x="222"
     inkscape:window-y="78"
     inkscape:window-maximized="0"
     inkscape:current-layer="svg54"
     inkscape:document-rotation="0" />
  <path
     style="fill:#29292a"
     d="M 14.667,14.001 C 13.189,14.001 12,15.236 12,16.77 V 47.23 C 12,48.764 13.189,50 14.667,50 H 20 V 44 H 32 V 50 H 57.334 C 58.81,50 60,48.764 60,47.23 V 16.77 C 60,15.235 58.81,14 57.334,14 Z"
     id="path4" />
  <rect
     style="fill:#676767"
     width="12"
     height="12"
     x="30"
     y="24"
     rx="2.4"
     ry="2.4"
     id="rect6" />
  <path
     style="fill:none;stroke:#676767;stroke-width:4;stroke-linecap:round;stroke-linejoin:round"
     d="M 6.0233,10.024 H 10.005 V 52.005"
     id="path10" />
  <g
     id="g30"
     style="fill:#676767">
    <rect
       style="fill:#676767"
       width="4"
       height="8"
       x="34"
       y="44"
       id="rect22" />
    <rect
       style="fill:#676767"
       width="4"
       height="8"
       x="40"
       y="44"
       id="rect24" />
    <rect
       style="fill:#676767"
       width="4"
       height="8"
       x="46"
       y="44"
       id="rect26" />
    <rect
       style="fill:#676767"
       width="4"
       height="8"
       x="52"
       y="44"
       id="rect28" />
  </g>
  <g
     id="g48"
     style="fill:#f2f2f2;opacity:0.85">
    <rect
       style="fill:#f2f2f2"
       width="2"
       height="4"
       x="32"
       y="21"
       id="rect32" />
    <rect
       style="fill:#f2f2f2"
       width="2"
       height="4"
       x="38"
       y="21"
       id="rect34" />
    <rect
       style="fill:#f2f2f2"
       width="2"
       height="4"
       x="32"
       y="35"
       id="rect36" />
    <rect
       style="fill:#f2f2f2"
       width="2"
       height="4"
       x="38"
       y="35"
       id="rect38" />
    <rect
       style="fill:#f2f2f2"
       width="2"
       height="4"
       x="26"
       y="-45"
       transform="rotate(90)"
       id="rect40" />
    <rect
       style="fill:#f2f2f2"
       width="2"
       height="4"
       x="32"
       y="-45"
       transform="rotate(90)"
       id="rect42" />
    <rect
       style="fill:#f2f2f2"
       width="2"
       height="4"
       x="26"
       y="-31"
       transform="rotate(90)"
       id="rect44" />
    <rect
       style="fill:#f2f2f2"
       width="2"
       height="4"
       x="32"
       y="-31"
       transform="rotate(90)"
       id="rect46" />
  </g>
</svg>
