<?xml version="1.0" encoding="UTF-8" standalone="no"?>
<svg
   xmlns:dc="http://purl.org/dc/elements/1.1/"
   xmlns:cc="http://creativecommons.org/ns#"
   xmlns:rdf="http://www.w3.org/1999/02/22-rdf-syntax-ns#"
   xmlns:svg="http://www.w3.org/2000/svg"
   xmlns="http://www.w3.org/2000/svg"
   xmlns:xlink="http://www.w3.org/1999/xlink"
   xmlns:sodipodi="http://sodipodi.sourceforge.net/DTD/sodipodi-0.dtd"
   xmlns:inkscape="http://www.inkscape.org/namespaces/inkscape"
   width="64"
   height="64"
   version="1.1"
   id="svg58"
   sodipodi:docname="libreoffice-base.svg"
   inkscape:version="1.0.2 (e86c870879, 2021-01-15)">
  <metadata
     id="metadata62">
    <rdf:RDF>
      <cc:Work
         rdf:about="">
        <dc:format>image/svg+xml</dc:format>
        <dc:type
           rdf:resource="http://purl.org/dc/dcmitype/StillImage" />
        <dc:title />
      </cc:Work>
    </rdf:RDF>
  </metadata>
  <sodipodi:namedview
     pagecolor="#ffffff"
     bordercolor="#666666"
     borderopacity="1"
     objecttolerance="10"
     gridtolerance="10"
     guidetolerance="10"
     inkscape:pageopacity="0"
     inkscape:pageshadow="2"
     inkscape:window-width="1920"
     inkscape:window-height="996"
     id="namedview60"
     showgrid="false"
     inkscape:zoom="12.578125"
     inkscape:cx="32"
     inkscape:cy="28.819876"
     inkscape:window-x="0"
     inkscape:window-y="0"
     inkscape:window-maximized="1"
     inkscape:current-layer="svg58"
     inkscape:document-rotation="0" />
  <defs
     id="defs26">
    <linearGradient
       id="l"
       x1="525.44"
       x2="516.66"
       y1="836.19"
       y2="828.5"
       gradientTransform="matrix(.97893 0 0 1.0007 -171.41 -740)"
       gradientUnits="userSpaceOnUse"
       xlink:href="#a" />
    <linearGradient
       id="a">
      <stop
         stop-color="#dc85e9"
         offset="0"
         id="stop3" />
      <stop
         stop-color="#f2cbf8"
         offset="1"
         id="stop5" />
    </linearGradient>
    <linearGradient
       id="j"
       x1="525.44"
       x2="516.66"
       y1="836.19"
       y2="828.5"
       gradientTransform="matrix(.97893 0 0 1.0007 755.6 -1698.7)"
       gradientUnits="userSpaceOnUse"
       xlink:href="#a" />
    <linearGradient
       id="i"
       x1="525.44"
       x2="516.66"
       y1="836.19"
       y2="828.5"
       gradientTransform="translate(-125.5,-1702.5)"
       gradientUnits="userSpaceOnUse"
       xlink:href="#a" />
    <linearGradient
       id="h"
       x1="520.59"
       x2="516.15"
       y1="735.05"
       y2="720.86"
       gradientUnits="userSpaceOnUse"
       xlink:href="#a" />
    <linearGradient
       id="linearGradient865"
       x1="7.9373"
       x2="7.9373"
       y1="15.417"
       y2="1.0583"
       gradientTransform="scale(3.7796)"
       gradientUnits="userSpaceOnUse">
      <stop
         stop-color="#950ba8"
         offset="0"
         id="stop11" />
      <stop
         stop-color="#c455bb"
         offset="1"
         id="stop13" />
    </linearGradient>
    <linearGradient
       id="linearGradient940"
       x1="30"
       x2="30"
       y1="54"
       y2="9"
       gradientUnits="userSpaceOnUse">
      <stop
         stop-color="#fff"
         offset="0"
         id="stop16" />
      <stop
         stop-color="#f5f5f5"
         offset="1"
         id="stop18" />
    </linearGradient>
    <linearGradient
       id="linearGradient910"
       x1="45"
       x2="60.076"
       y1="19"
       y2="3.9236"
       gradientTransform="matrix(.89283 0 0 .89283 3.4286 3.4564)"
       gradientUnits="userSpaceOnUse">
      <stop
         stop-color="#fff"
         offset="0"
         id="stop21" />
      <stop
         stop-color="#ffccf7"
         offset="1"
         id="stop23" />
    </linearGradient>
  </defs>
  <path
     style="opacity:1;fill:#29292a;stroke-width:2.24032"
     d="m 32.540752,5.0514845 -0.0083,0.00914 c -8.972212,0 -16.638145,3.3368615 -19.813967,8.0616485 -0.266591,0.396664 -0.500639,0.799374 -0.701823,1.214518 -0.191216,0.394533 -0.355872,0.796156 -0.48459,1.205351 a 21.388889,12.90135 0 0 0 -0.08774,0.375813 c -0.07331,0.277311 -0.152804,0.555779 -0.196349,0.838705 a 21.388889,12.90135 0 0 0 -0.104422,1.205351 c 0.0012,0.419208 0.04008,0.840089 0.108605,1.255765 a 21.388889,12.90135 0 0 0 0.292428,1.205351 21.388889,12.90135 0 0 0 0.492947,1.205353 21.388889,12.90135 0 0 0 0.680935,1.17327 21.388889,12.90135 0 0 0 19.813968,8.061648 21.388889,12.90135 0 0 0 19.813966,-8.061648 21.388889,12.90135 0 0 0 0.0043,-0.01389 21.388889,12.90135 0 0 0 0.580672,-0.994528 c 0.03381,-0.06541 0.07641,-0.13141 0.108607,-0.197063 a 21.388889,12.90135 0 0 0 0.35091,-0.857035 c 0.04986,-0.134979 0.111934,-0.267462 0.154578,-0.403312 a 21.388889,12.90135 0 0 0 0.175451,-0.714962 c 0.04107,-0.189155 0.08549,-0.378025 0.112779,-0.568302 a 21.388889,12.90135 0 0 0 0.08762,-1.09069 21.388889,12.90135 0 0 0 -0.112778,-1.283265 C 53.611737,15.420894 53.103348,14.230428 52.354737,13.1177 49.176347,8.391029 41.511272,5.0514704 32.540771,5.0514704 Z M 12.718431,28.516885 a 21.388889,11.945085 0 0 0 -1.574924,4.482257 21.388889,11.945085 0 0 0 21.38889,11.943521 21.388889,11.945085 0 0 0 21.38889,-11.948104 21.388889,11.945085 0 0 0 -1.574922,-4.477674 21.388889,11.945085 0 0 1 -19.813968,7.465846 21.388889,11.945085 0 0 1 -19.813966,-7.465846 z m 0,14.079239 a 21.388889,11.945085 0 0 0 -1.574924,4.477674 21.388889,11.945085 0 0 0 21.38889,11.948107 21.388889,11.945085 0 0 0 21.38889,-11.943523 21.388889,11.945085 0 0 0 -1.574922,-4.482258 21.388889,11.945085 0 0 1 -19.813968,7.47043 21.388889,11.945085 0 0 1 -19.813966,-7.47043 z"
     id="path12" />
</svg>
