<?xml version="1.0" encoding="UTF-8" standalone="no"?>
<svg
   xmlns:dc="http://purl.org/dc/elements/1.1/"
   xmlns:cc="http://creativecommons.org/ns#"
   xmlns:rdf="http://www.w3.org/1999/02/22-rdf-syntax-ns#"
   xmlns:svg="http://www.w3.org/2000/svg"
   xmlns="http://www.w3.org/2000/svg"
   xmlns:sodipodi="http://sodipodi.sourceforge.net/DTD/sodipodi-0.dtd"
   xmlns:inkscape="http://www.inkscape.org/namespaces/inkscape"
   width="64"
   height="64"
   version="1"
   id="svg44"
   sodipodi:docname="lightworks.svg"
   inkscape:version="1.0.2 (e86c870879, 2021-01-15)">
  <metadata
     id="metadata50">
    <rdf:RDF>
      <cc:Work
         rdf:about="">
        <dc:format>image/svg+xml</dc:format>
        <dc:type
           rdf:resource="http://purl.org/dc/dcmitype/StillImage" />
        <dc:title />
      </cc:Work>
    </rdf:RDF>
  </metadata>
  <defs
     id="defs48" />
  <sodipodi:namedview
     pagecolor="#ffffff"
     bordercolor="#666666"
     borderopacity="1"
     objecttolerance="10"
     gridtolerance="10"
     guidetolerance="10"
     inkscape:pageopacity="0"
     inkscape:pageshadow="2"
     inkscape:window-width="1421"
     inkscape:window-height="987"
     id="namedview46"
     showgrid="false"
     inkscape:zoom="12.890625"
     inkscape:cx="32"
     inkscape:cy="32"
     inkscape:window-x="344"
     inkscape:window-y="9"
     inkscape:window-maximized="0"
     inkscape:current-layer="svg44"
     inkscape:document-rotation="0" />
  <path
     style="fill-rule:evenodd;stroke-width:1.08318"
     d="m 59.998172,35.577351 c -6.190751,3.295173 -12.34349,5.39333 -17.66387,6.739402 -0.220547,0.06565 -0.467221,0.150382 -0.680034,0.210595 -6.982812,1.976465 -11.913335,8.790708 -11.913338,8.790708 l -0.386766,3.424459 c 0.626598,0.27005 6.494642,2.653718 14.282827,0.0084 7.81451,-2.65425 15.575622,-13.098105 16.361181,-14.173805 z"
     id="path18" />
  <path
     style="fill-rule:evenodd;stroke-width:1.08318"
     d="m 50.560583,45.065166 -0.631156,4.14473 -3.096278,-2.169242 -0.146628,4.818671 -4.065324,-2.843185 -0.582279,5.349399 -4.403215,-3.759322 -1.260187,4.38693 -3.485173,-4.001519 -2.080477,3.422352 -1.791465,-4.096293 -1.53645,3.079065 c 0.190739,0.201775 0.388343,0.374688 0.58228,0.564425 0.484194,0.371944 1.051926,0.692895 1.051926,0.692895 0,0 6.291496,2.892015 14.520841,0.09688 4.174533,-1.417907 8.297451,-5.043395 11.38631,-8.29157 -0.118751,-0.04617 -0.219448,-0.09957 -0.348517,-0.141109 z"
     id="path20" />
  <ellipse
     style="opacity:0.2;stroke-width:1.08318"
     cx="49.251038"
     cy="26.442648"
     rx="4.1760044"
     ry="4.1569176"
     id="ellipse22" />
  <ellipse
     style="opacity:0.2;stroke-width:1.08318"
     cx="47.333862"
     cy="24.534025"
     rx="1.0271361"
     ry="1.0222459"
     id="ellipse24" />
  <path
     style="opacity:1;fill:#e6e6e6;fill-rule:evenodd;stroke-width:1.08318"
     d="m 59.998971,34.197899 c -6.190752,3.295173 -12.344289,5.393328 -17.664669,6.739402 -0.220547,0.06565 -0.467221,0.150382 -0.680034,0.210595 -6.982812,1.976465 -11.913335,9.092131 -11.913338,9.092131 l -0.386766,3.424459 c 0.626598,0.270052 6.494642,2.653718 14.282827,0.0084 7.81451,-2.654195 15.576419,-12.114843 16.36198,-13.190543 z"
     id="path26" />
  <path
     style="fill:#676767;fill-rule:evenodd;stroke-width:1.08318"
     d="m 52.360547,37.569831 c 0,0 -0.08459,0.01251 -0.08502,0.01272 -15.125981,2.748834 -25.822143,3.932593 -25.822143,3.932593 0,0 -4.859892,1.552783 -9.195329,0.639894 l 4.335213,6.246446 1.36857,-3.885686 3.013397,4.294263 2.120855,-4.431158 4.792113,4.70284 1.712834,-5.383099 4.517971,4.294263 2.190984,-5.861172 3.423542,3.679291 2.120858,-5.383097 3.765685,2.588353 1.642704,-5.155773 z"
     id="path32" />
  <path
     style="fill:#676767;fill-rule:evenodd;stroke-width:1.08318"
     d="m 50.560583,43.987135 -0.631156,4.144732 -3.096278,-2.169244 -0.146628,4.818672 -4.065324,-2.843184 -0.582279,5.349399 -4.403215,-3.759322 -1.260187,4.386931 -3.485173,-4.001523 -2.080477,3.422354 -1.791465,-4.096292 -1.53645,3.079065 c 0.190739,0.201775 -0.489998,1.24516 -0.296063,1.434894 0.484195,0.371947 0.17359,1.31466 0.17359,1.31466 0,0 8.92652,3.265077 17.155865,0.469934 4.174533,-1.417907 8.297451,-6.784338 11.38631,-10.032513 -0.118751,-0.04617 -1.097788,-0.22393 -1.226857,-0.26546 z"
     id="path34" />
  <path
     style="fill:#29292a;stroke-width:1.08318"
     d="M 55.875021,2.7245478 C 53.491519,3.4907355 23.542353,13.745774 13.449216,19.0961 2.9065297,24.684724 2.7420933,26.726762 3.9743556,29.725537 c 1.232263,2.998776 4.9547173,4.615093 6.8715744,9.113257 1.916846,4.498158 15.607823,4.080762 15.607823,4.080762 0,0 16.660961,0.56667 33.545218,-8.420353 V 7.1191829 c 0,-1.6726875 0.203606,-2.2895452 -1.018766,-3.0106719 z m 4.12395,37.6068412 c 0,0 -13.178511,15.142108 -25.994196,15.527785 -2.72568,0.04648 -5.131392,-1.238334 -6.524582,-3.539075 0,0 -1.09496,0.169468 -0.889583,1.668866 1.050058,5.316345 10.095427,6.154105 12.308346,6.183483 5.00029,-0.01445 11.861572,-1.387332 21.100015,-5.599673 z"
     id="path36"
     sodipodi:nodetypes="csssccsccccccccc" />
  <ellipse
     style="opacity:1;fill:#e6e6e6;stroke-width:1.08318"
     cx="49.118294"
     cy="25.66626"
     id="circle38"
     rx="4.3522716"
     ry="4.3132734" />
  <ellipse
     style="fill:#29292a;stroke-width:1.08318"
     cx="47.486191"
     cy="24.048782"
     id="circle40"
     rx="1.6321018"
     ry="1.6174775" />
</svg>
