<?xml version="1.0" encoding="UTF-8" standalone="no"?>
<svg
   xmlns:dc="http://purl.org/dc/elements/1.1/"
   xmlns:cc="http://creativecommons.org/ns#"
   xmlns:rdf="http://www.w3.org/1999/02/22-rdf-syntax-ns#"
   xmlns:svg="http://www.w3.org/2000/svg"
   xmlns="http://www.w3.org/2000/svg"
   xmlns:sodipodi="http://sodipodi.sourceforge.net/DTD/sodipodi-0.dtd"
   xmlns:inkscape="http://www.inkscape.org/namespaces/inkscape"
   width="64"
   height="64"
   version="1"
   id="svg20"
   sodipodi:docname="lollypop.svg"
   inkscape:version="1.0.2 (e86c870879, 2021-01-15)">
  <metadata
     id="metadata26">
    <rdf:RDF>
      <cc:Work
         rdf:about="">
        <dc:format>image/svg+xml</dc:format>
        <dc:type
           rdf:resource="http://purl.org/dc/dcmitype/StillImage" />
        <dc:title></dc:title>
      </cc:Work>
    </rdf:RDF>
  </metadata>
  <defs
     id="defs24" />
  <sodipodi:namedview
     pagecolor="#ffffff"
     bordercolor="#666666"
     borderopacity="1"
     objecttolerance="10"
     gridtolerance="10"
     guidetolerance="10"
     inkscape:pageopacity="0"
     inkscape:pageshadow="2"
     inkscape:window-width="1541"
     inkscape:window-height="738"
     id="namedview22"
     showgrid="false"
     inkscape:zoom="12.890625"
     inkscape:cx="32"
     inkscape:cy="25.793939"
     inkscape:window-x="317"
     inkscape:window-y="42"
     inkscape:window-maximized="0"
     inkscape:current-layer="svg20"
     inkscape:document-rotation="0" />
  <path
     fill="#1ed760"
     d="M 60,32 V 32 C 60,16.5 47.5,4 32,4 V 4 C 16.5,4 4,16.5 4,32 V 32 C 4,47.5 16.5,60 32,60 V 60 C 47.5,60 60,47.5 60,32 Z"
     id="path4"
     style="fill:#29292a" />
  <path
     style="fill:#ffffff;stroke-width:1.00584;opacity:0.85"
     d="m 26.67081,4.1295963 c -0.718533,0.1334686 -1.431824,0.2999099 -2.137912,0.4898048 -0.898744,0.2519797 -1.788266,0.5472375 -2.657578,0.8886041 -0.869231,0.3415678 -1.717051,0.7260084 -2.548123,1.1535255 -0.831052,0.4277186 -1.642372,0.8970977 -2.427059,1.406112 -0.784868,0.5096224 -1.544,1.0570628 -2.274581,1.6431279 -0.730557,0.5856624 -1.429703,1.2075234 -2.098686,1.8641664 -0.08599,0.091 -0.173194,0.184031 -0.257958,0.276652 0.533597,3.701235 3.168444,8.150923 6.018725,11.703316 a 16.00831,16.178488 0 0 0 -2.302396,8.493707 16.00831,16.178488 0 0 0 0.03517,1.003269 C 11.829442,30.739974 7.5610263,27.123475 5.5892023,22.853366 5.4860129,23.125974 5.383056,23.39939 5.2882661,23.67503 c -0.2755625,0.900334 -0.5026206,1.81341 -0.6878576,2.737201 -0.185346,0.923586 -0.325008,1.855064 -0.4181771,2.792608 -0.093045,0.937947 -0.1407816,1.877511 -0.1406961,2.820112 -1.04e-4,0.667161 0.023748,1.33695 0.070351,2.002492 0.066098,0.940173 0.1774601,1.875492 0.3361142,2.804341 0.1464949,0.832583 0.3313524,1.656677 0.5510667,2.472678 3.4343837,1.382655 8.5514418,1.308232 13.0185578,0.592538 A 16.00831,16.178488 0 0 0 24.904,46.532606 c -4.075516,2.513127 -9.314636,4.444637 -13.960444,4.036735 0.324086,0.393946 0.659622,0.777579 1.004419,1.153325 0.64978,0.676058 1.334616,1.320366 2.047864,1.927466 0.713268,0.607297 1.454131,1.177993 2.223752,1.710265 0.76972,0.532273 1.565593,1.025516 2.384039,1.4773 0.818463,0.451784 1.65792,0.861302 2.516906,1.228351 0.859104,0.367051 1.735302,0.693249 2.626363,0.971723 0.336856,0.09303 0.67607,0.175938 1.016146,0.256832 2.892903,-2.312714 5.379198,-6.821458 6.995833,-11.079434 a 16.00831,16.178488 0 0 0 0.234502,0.02024 16.00831,16.178488 0 0 0 8.891415,-2.741244 c 0.118034,4.831099 -0.844617,10.39751 -3.525229,14.266798 0.718535,-0.133468 1.431823,-0.295865 2.137912,-0.485759 0.898747,-0.252182 1.784365,-0.55128 2.653777,-0.892647 0.86923,-0.341569 1.720952,-0.725807 2.552124,-1.153324 0.831052,-0.427517 1.638451,-0.896895 2.423058,-1.406114 0.784869,-0.509219 1.544005,-1.057061 2.274581,-1.643128 0.73056,-0.58566 1.433607,-1.207925 2.102693,-1.864368 0.08598,-0.091 0.173193,-0.184031 0.257955,-0.276451 -0.53418,-3.705479 -3.176649,-8.157194 -6.030533,-11.711404 a 16.00831,16.178488 0 0 0 2.269178,-8.291475 16.00831,16.178488 0 0 0 -0.03518,-1.07041 c 4.204784,2.310287 8.49541,5.941347 10.474237,10.226018 0.103177,-0.272607 0.202244,-0.545822 0.297033,-0.821462 0.275545,-0.900535 0.506545,-1.813609 0.69176,-2.737199 0.185338,-0.923588 0.32501,-1.858907 0.418179,-2.796453 0.09302,-0.938149 0.136874,-1.881556 0.13679,-2.824155 1.04e-4,-0.667163 -0.01982,-1.333107 -0.06643,-1.998651 C 59.85061,29.073606 59.739227,28.13849 59.580587,27.209641 59.433598,26.373217 59.2465,25.54488 59.025624,24.725237 54.868463,23.227715 49.919693,23.489402 45.944632,24.144632 A 16.00831,16.178488 0 0 0 39.06986,17.544414 C 43.152781,15.014498 48.414312,13.062158 53.081136,13.47208 52.757048,13.077932 52.421513,12.694502 52.076714,12.318757 51.42694,11.642693 50.749907,10.998386 50.036657,10.391287 49.323381,9.7839779 48.578611,9.2171254 47.808895,8.6848534 47.039173,8.1527827 46.243301,7.6554965 45.424855,7.2037122 44.60639,6.7517269 43.763032,6.3424099 42.903945,5.9753603 42.044839,5.6081093 41.168666,5.2861578 40.277582,5.0076843 39.943531,4.9146562 39.610395,4.827699 39.273161,4.7470097 36.368453,7.0676103 33.871557,11.598801 32.253917,15.869718 a 16.00831,16.178488 0 0 0 -0.260137,0 16.00831,16.178488 0 0 0 -8.852194,2.709494 C 23.021653,13.745281 23.987847,8.1734109 26.670819,4.3006842 Z"
     id="path8" />
  <path
     style="fill:#29292a;stroke-width:1.11431"
     d="m 27.557937,22.72193 c -0.541462,-0.02235 -0.987276,0.427211 -0.987452,0.97457 v 15.913132 c -8e-6,0.750581 0.803955,1.219552 1.447253,0.844596 l 6.818845,-3.978448 6.819287,-3.978227 c 0.642965,-0.375404 0.642965,-1.313124 0,-1.688526 l -6.819287,-3.978452 -6.818844,-3.978226 c -0.140046,-0.08263 -0.298141,-0.127294 -0.459801,-0.131756 z"
     id="path10" />
</svg>
