<?xml version="1.0" encoding="UTF-8" standalone="no"?>
<svg
   xmlns:dc="http://purl.org/dc/elements/1.1/"
   xmlns:cc="http://creativecommons.org/ns#"
   xmlns:rdf="http://www.w3.org/1999/02/22-rdf-syntax-ns#"
   xmlns:svg="http://www.w3.org/2000/svg"
   xmlns="http://www.w3.org/2000/svg"
   xmlns:sodipodi="http://sodipodi.sourceforge.net/DTD/sodipodi-0.dtd"
   xmlns:inkscape="http://www.inkscape.org/namespaces/inkscape"
   width="64"
   height="64"
   version="1.1"
   id="svg73"
   sodipodi:docname="musescore.svg"
   inkscape:version="1.0.2 (e86c870879, 2021-01-15)">
  <metadata
     id="metadata77">
    <rdf:RDF>
      <cc:Work
         rdf:about="">
        <dc:format>image/svg+xml</dc:format>
        <dc:type
           rdf:resource="http://purl.org/dc/dcmitype/StillImage" />
        <dc:title />
      </cc:Work>
    </rdf:RDF>
  </metadata>
  <sodipodi:namedview
     pagecolor="#ffffff"
     bordercolor="#666666"
     borderopacity="1"
     objecttolerance="10"
     gridtolerance="10"
     guidetolerance="10"
     inkscape:pageopacity="0"
     inkscape:pageshadow="2"
     inkscape:window-width="1920"
     inkscape:window-height="996"
     id="namedview75"
     showgrid="false"
     inkscape:zoom="12.578125"
     inkscape:cx="32"
     inkscape:cy="32"
     inkscape:window-x="0"
     inkscape:window-y="0"
     inkscape:window-maximized="1"
     inkscape:current-layer="svg73"
     inkscape:document-rotation="0" />
  <defs
     id="defs29">
    <linearGradient
       id="b"
       x1="399.57"
       x2="399.57"
       y1="545.8"
       y2="517.8"
       gradientTransform="matrix(2.1429,0,0,2.1429,-826.36,-1107.5)"
       gradientUnits="userSpaceOnUse">
      <stop
         stop-color="#3889e9"
         offset="0"
         id="stop2" />
      <stop
         stop-color="#5ea5fb"
         offset="1"
         id="stop4" />
    </linearGradient>
    <linearGradient
       id="linearGradient862"
       x1="7.9373"
       x2="7.9373"
       y1="15.081"
       y2="1.852"
       gradientTransform="matrix(3.3743 0 0 3.3743 3.4312 3.4278)"
       gradientUnits="userSpaceOnUse">
      <stop
         stop-color="#f1efeb"
         offset="0"
         id="stop7" />
      <stop
         stop-color="#fff"
         offset="1"
         id="stop9" />
    </linearGradient>
    <linearGradient
       id="linearGradient910"
       x1="7.9373"
       x2="7.9373"
       y1="15.081"
       y2="1.852"
       gradientTransform="scale(3.7796)"
       gradientUnits="userSpaceOnUse">
      <stop
         stop-color="#613583"
         offset="0"
         id="stop12" />
      <stop
         stop-color="#a663c0"
         offset="1"
         id="stop14" />
    </linearGradient>
    <linearGradient
       id="linearGradient932"
       x1="379.24"
       x2="374.24"
       y1="546.85"
       y2="546.85"
       gradientTransform="matrix(2.1429 0 0 2.1429 -769.68 -1134.5)"
       gradientUnits="userSpaceOnUse">
      <stop
         stop-color="#f6f5f4"
         offset="0"
         id="stop17" />
      <stop
         stop-color="#fff"
         offset=".6"
         id="stop19" />
      <stop
         stop-color="#dddbd8"
         offset="1"
         id="stop21" />
    </linearGradient>
    <linearGradient
       id="linearGradient1146"
       x1="18"
       x2="18"
       y1="52"
       y2="12"
       gradientUnits="userSpaceOnUse">
      <stop
         stop-color="#5e337f"
         offset="0"
         id="stop24" />
      <stop
         stop-color="#ab60bf"
         offset="1"
         id="stop26" />
    </linearGradient>
  </defs>
  <circle
     cx="32.02"
     cy="32.044"
     r="30.001"
     fill-opacity="0"
     stroke-width="1.5715"
     id="circle39" />
  <circle
     cx="32.02"
     cy="32.044"
     r="0"
     fill="url(#b)"
     stroke-width="1.5715"
     id="circle41" />
  <path
     style="fill:#29292a;stroke-width:1.50919"
     d="m 49.746462,11.341069 c -6.331465,0 -11.274422,4.137216 -11.274422,9.567655 5.98e-4,2.327342 4.831896,2.327342 4.831896,0 0,-3.103098 1.671912,-5.325185 6.442526,-5.325185 4.770614,0 6.442526,2.222087 6.442526,5.325185 0,2.327342 4.831895,2.327342 4.831895,0 0,-5.430439 -4.94287,-9.567655 -11.274421,-9.567655 z m 0,7.070785 c -1.779821,0 -3.221264,1.261356 -3.221264,2.820028 0,1.558573 1.441443,2.822788 3.221264,2.822788 1.77982,0 3.221263,-1.264215 3.221263,-2.822788 0,-1.558672 -1.441443,-2.820028 -3.221263,-2.820028 z m -17.716949,7.070783 c -3.346629,0 -7.291257,1.774573 -9.11328,3.988365 -1.82193,-2.213793 -5.257042,-3.706638 -8.603667,-3.706638 -5.5297414,0 -11.2744212,2.981431 -11.2744212,11.172391 v 13.495256 c 0,0 2.434e-4,1.919607 2.2303481,1.919607 2.2301059,0 2.6015473,-1.919607 2.6015473,-1.919607 V 36.936755 c -0.00196,-6.225005 3.0249398,-7.211646 6.4425258,-7.211646 3.417582,0 6.442527,1.90239 6.442527,6.115123 v 14.591779 c 0,0 0.122923,1.919607 2.353033,1.919607 2.230105,0 2.478862,-1.919607 2.478862,-1.919607 V 35.840232 c 0,-4.212733 3.024946,-6.115123 6.442525,-6.115123 2.169693,0 6.385904,0.252933 6.385904,6.115123 l 0.128979,4.979932 c 0,9.205339 6.72709,11.531454 11.202069,11.531454 4.474976,0 11.137687,-2.715636 11.274422,-10.860283 V 28.60925 c 0,-2.24192 -4.831895,-2.24192 -4.831895,0 v 12.688744 c 0,6.178687 -4.205039,6.811154 -6.442527,6.811154 -2.237491,0 -6.436235,-0.240177 -6.436235,-7.479564 l -0.12898,-4.521435 c 2e-6,-6.9823 -5.465966,-10.625512 -11.151737,-10.625512 z"
     id="path8" />
</svg>
