<?xml version="1.0" encoding="UTF-8" standalone="no"?>
<svg
   xmlns:dc="http://purl.org/dc/elements/1.1/"
   xmlns:cc="http://creativecommons.org/ns#"
   xmlns:rdf="http://www.w3.org/1999/02/22-rdf-syntax-ns#"
   xmlns:svg="http://www.w3.org/2000/svg"
   xmlns="http://www.w3.org/2000/svg"
   xmlns:sodipodi="http://sodipodi.sourceforge.net/DTD/sodipodi-0.dtd"
   xmlns:inkscape="http://www.inkscape.org/namespaces/inkscape"
   width="64"
   height="64"
   version="1.1"
   id="svg73"
   sodipodi:docname="net.sf.nootka.svg"
   inkscape:version="1.0.2 (e86c870879, 2021-01-15)">
  <metadata
     id="metadata77">
    <rdf:RDF>
      <cc:Work
         rdf:about="">
        <dc:format>image/svg+xml</dc:format>
        <dc:type
           rdf:resource="http://purl.org/dc/dcmitype/StillImage" />
        <dc:title />
      </cc:Work>
    </rdf:RDF>
  </metadata>
  <sodipodi:namedview
     pagecolor="#ffffff"
     bordercolor="#666666"
     borderopacity="1"
     objecttolerance="10"
     gridtolerance="10"
     guidetolerance="10"
     inkscape:pageopacity="0"
     inkscape:pageshadow="2"
     inkscape:window-width="1717"
     inkscape:window-height="798"
     id="namedview75"
     showgrid="false"
     inkscape:zoom="12.578125"
     inkscape:cx="15.900621"
     inkscape:cy="35.180124"
     inkscape:window-x="203"
     inkscape:window-y="198"
     inkscape:window-maximized="0"
     inkscape:current-layer="svg73"
     inkscape:document-rotation="0" />
  <defs
     id="defs29">
    <linearGradient
       id="b"
       x1="399.57"
       x2="399.57"
       y1="545.8"
       y2="517.8"
       gradientTransform="matrix(2.1429,0,0,2.1429,-826.36,-1107.5)"
       gradientUnits="userSpaceOnUse">
      <stop
         stop-color="#3889e9"
         offset="0"
         id="stop2" />
      <stop
         stop-color="#5ea5fb"
         offset="1"
         id="stop4" />
    </linearGradient>
    <linearGradient
       id="linearGradient862"
       x1="7.9373"
       x2="7.9373"
       y1="15.081"
       y2="1.852"
       gradientTransform="matrix(3.3743 0 0 3.3743 3.4312 3.4278)"
       gradientUnits="userSpaceOnUse">
      <stop
         stop-color="#f1efeb"
         offset="0"
         id="stop7" />
      <stop
         stop-color="#fff"
         offset="1"
         id="stop9" />
    </linearGradient>
    <linearGradient
       id="linearGradient910"
       x1="7.9373"
       x2="7.9373"
       y1="15.081"
       y2="1.852"
       gradientTransform="scale(3.7796)"
       gradientUnits="userSpaceOnUse">
      <stop
         stop-color="#613583"
         offset="0"
         id="stop12" />
      <stop
         stop-color="#a663c0"
         offset="1"
         id="stop14" />
    </linearGradient>
    <linearGradient
       id="linearGradient932"
       x1="379.24"
       x2="374.24"
       y1="546.85"
       y2="546.85"
       gradientTransform="matrix(2.1429 0 0 2.1429 -769.68 -1134.5)"
       gradientUnits="userSpaceOnUse">
      <stop
         stop-color="#f6f5f4"
         offset="0"
         id="stop17" />
      <stop
         stop-color="#fff"
         offset=".6"
         id="stop19" />
      <stop
         stop-color="#dddbd8"
         offset="1"
         id="stop21" />
    </linearGradient>
    <linearGradient
       id="linearGradient1146"
       x1="18"
       x2="18"
       y1="52"
       y2="12"
       gradientUnits="userSpaceOnUse">
      <stop
         stop-color="#5e337f"
         offset="0"
         id="stop24" />
      <stop
         stop-color="#ab60bf"
         offset="1"
         id="stop26" />
    </linearGradient>
  </defs>
  <circle
     cx="32.02"
     cy="32.044"
     r="30.001"
     fill-opacity="0"
     stroke-width="1.5715"
     id="circle39" />
  <circle
     cx="32.02"
     cy="32.044"
     r="0"
     fill="url(#b)"
     stroke-width="1.5715"
     id="circle41" />
  <path
     style="opacity:0.5;fill:#676767;fill-rule:evenodd;stroke-width:1.37552"
     d="m 3.245507,14.784118 v 2.893354 h 57.546797 v -2.893354 z m 0,8.680062 v 2.893354 H 60.792304 V 23.46418 Z m 0,8.680062 v 2.893354 h 57.546797 v -2.893354 z m 0,8.680061 v 2.893354 h 57.546797 v -2.893354 z m 0,8.680062 v 2.893355 h 57.546797 v -2.893355 z"
     id="path6" />
  <g
     style="fill:#29292a"
     transform="matrix(2.2110525,0,0,2.242899,-9.5832233,3.2107027)"
     id="g14">
    <g
       id="g12"
       style="fill:#29292a">
      <path
         d="m 16.681,13.4 c -0.7,-0.8 -1.7,-1.3 -2.9,-1.2 -0.1,-0.2 -0.5,-2.2 -0.5,-2.2 0,0 1.4,-2.1 1.7,-2.5 1.5,-2.4 1.6,-4.3 0.7,-6.2 -0.3,-0.7 -1.1,-1.3 -1.9,-1.3 -0.6,0 -1.1,0.5 -1.4,1.1 -1,1.7 -1,4.9 -0.5,7.1 0,0 -0.5,0.5 -1,1.1 -1,1.1 -2.1,2.3 -2.5,3.9 -0.5,1.8 -0.1,3.5 1,4.8 1.2,1.5 3,2.2 5.2,2 0.4,1.9 0.7,3.1 0.1,4.2 -0.2,0.4 -0.6,0.8 -1.3,0.8 -0.2,0 -0.3,0 -0.5,-0.1 0.6,-0.3 1.1,-0.9 1.1,-1.6 0,-1 -0.8,-1.8 -1.8,-1.8 -1.7,0.1 -1.8,1.8 -1.8,1.8 0,0.6 0.2,1.2 0.6,1.6 0.5,0.5 1.3,0.9 2.2,0.9 1.1,0 2.2,-0.4 2.6,-2 0.4,-1.3 -0.3,-3.4 -0.4,-4.1 1.1,-0.5 2.1,-2 2.2,-3 0.2,-1.1 -0.2,-2.4 -0.9,-3.3 z m -3.2,-11.1 c 0.1,-0.2 0.3,-0.3 0.5,-0.3 0.1,0 0.3,0.1 0.4,0.2 0.4,0.2 0.5,0.6 0.5,1.2 -0.1,1.5 -1.4,3.3 -2.1,3.9 -0.3,-1.4 -0.1,-4 0.7,-5 z m -2.9,15.7 c -0.7,-0.7 -1,-1.7 -0.9,-2.7 0.2,-1.6 1.3,-2.9 2.2,-3.9 0.2,-0.2 0.4,-0.4 0.5,-0.6 0.1,0.5 0.4,1.3 0.5,1.7 -1.2,0.5 -1.9,2.1 -1.8,3.4 0,0.6 0.2,1 0.5,1.4 0.1,0.1 0.2,0.2 0.3,0.2 0.1,0 0.3,-0.1 0.3,-0.2 0.1,-0.1 0.1,-0.3 0,-0.4 -0.1,-0.1 -0.1,-0.2 -0.1,-0.4 -0.1,-0.9 0.5,-1.6 1.2,-1.9 0.1,0.6 0.8,3.7 0.9,4.4 -1.3,0.4 -2.7,0 -3.6,-1 z m 4.5,0.6 c -0.2,-0.7 -0.3,-1.5 -0.5,-2.4 -0.1,-0.6 -0.2,-1.3 -0.4,-1.9 1.3,0 1.7,1.1 1.8,1.5 0.3,1.1 0,2.2 -0.9,2.8 z"
         id="path10-3"
         style="fill:#29292a" />
    </g>
  </g>
</svg>
