<?xml version="1.0" encoding="UTF-8" standalone="no"?>
<svg
   xmlns:dc="http://purl.org/dc/elements/1.1/"
   xmlns:cc="http://creativecommons.org/ns#"
   xmlns:rdf="http://www.w3.org/1999/02/22-rdf-syntax-ns#"
   xmlns:svg="http://www.w3.org/2000/svg"
   xmlns="http://www.w3.org/2000/svg"
   xmlns:sodipodi="http://sodipodi.sourceforge.net/DTD/sodipodi-0.dtd"
   xmlns:inkscape="http://www.inkscape.org/namespaces/inkscape"
   width="64"
   height="64"
   version="1.1"
   id="svg18"
   sodipodi:docname="net.redeclipse.RedEclipse.svg"
   inkscape:version="1.0.2 (e86c870879, 2021-01-15)">
  <metadata
     id="metadata24">
    <rdf:RDF>
      <cc:Work
         rdf:about="">
        <dc:format>image/svg+xml</dc:format>
        <dc:type
           rdf:resource="http://purl.org/dc/dcmitype/StillImage" />
        <dc:title />
      </cc:Work>
    </rdf:RDF>
  </metadata>
  <defs
     id="defs22" />
  <sodipodi:namedview
     pagecolor="#ffffff"
     bordercolor="#666666"
     borderopacity="1"
     objecttolerance="10"
     gridtolerance="10"
     guidetolerance="10"
     inkscape:pageopacity="0"
     inkscape:pageshadow="2"
     inkscape:window-width="1920"
     inkscape:window-height="996"
     id="namedview20"
     showgrid="false"
     inkscape:zoom="12.890625"
     inkscape:cx="32"
     inkscape:cy="38.206061"
     inkscape:window-x="0"
     inkscape:window-y="0"
     inkscape:window-maximized="1"
     inkscape:current-layer="svg18"
     inkscape:document-rotation="0" />
  <path
     style="fill:#676767"
     d="m 4.000432,22.491872 c 1.7735797,-4.006295 5.9769389,-1.825995 7.495212,-4.279429 1.437047,-2.322176 -3.3381684,-5.932717 -6.2864213,-5.771878 1.0453384,-0.997202 7.7809593,0.222274 9.8743483,0.283779 2.540916,0.07465 -1.414803,-4.9379143 -1.414803,-4.9379143 0.929551,-1.8298319 5.793533,-0.6551406 7.721793,1.8944034 2.19231,2.8986729 5.506135,-4.847918 3.519583,-6.172286 4.126797,0.1945935 4.731971,6.2837556 6.855644,6.4853448 3.483417,0.3306621 4.185226,-1.3754932 4.817412,-3.5149324 2.457037,2.4299881 0.506926,5.5959625 1.765376,5.7740025 4.119245,2.301291 7.140136,-3.9763455 9.406905,-1.904217 -3.371605,2.290396 -6.419424,8.91354 -1.488579,8.93426 2.405657,0.145554 3.003028,0.513585 5.817472,2.848937 -6.40532,-2.209605 -6.517917,3.160234 -3.578852,2.547948 6.129317,-1.276904 7.638872,3.789787 6.96161,3.925239 C 53.654496,27.698811 43.704641,27.313982 44.606696,28.87563 49.241978,36.900299 40.256819,40.272842 32.73068,42.168422 L 17.066722,42.27746 C 14.201381,40.551191 4.421238,35.508893 4.000432,28.166383 3.94223,27.150834 7.449032,28.394722 8.1860656,27.240711 10.187632,24.106757 7.9214748,22.448702 4.000432,22.491872 Z"
     id="path4" />
  <circle
     style="fill:#e6e6e6"
     cx="29.999"
     cy="30"
     r="18"
     id="circle10" />
  <circle
     style="fill:#29292a"
     cx="37.999"
     cy="38"
     r="22"
     id="circle14" />
</svg>
