<?xml version="1.0" encoding="UTF-8" standalone="no"?>
<svg
   xmlns:dc="http://purl.org/dc/elements/1.1/"
   xmlns:cc="http://creativecommons.org/ns#"
   xmlns:rdf="http://www.w3.org/1999/02/22-rdf-syntax-ns#"
   xmlns:svg="http://www.w3.org/2000/svg"
   xmlns="http://www.w3.org/2000/svg"
   xmlns:sodipodi="http://sodipodi.sourceforge.net/DTD/sodipodi-0.dtd"
   xmlns:inkscape="http://www.inkscape.org/namespaces/inkscape"
   width="64"
   height="64"
   version="1"
   id="svg12"
   sodipodi:docname="nl.openoffice.bluefish.svg"
   inkscape:version="1.0.2 (e86c870879, 2021-01-15)">
  <metadata
     id="metadata18">
    <rdf:RDF>
      <cc:Work
         rdf:about="">
        <dc:format>image/svg+xml</dc:format>
        <dc:type
           rdf:resource="http://purl.org/dc/dcmitype/StillImage" />
        <dc:title></dc:title>
      </cc:Work>
    </rdf:RDF>
  </metadata>
  <defs
     id="defs16" />
  <sodipodi:namedview
     pagecolor="#ffffff"
     bordercolor="#666666"
     borderopacity="1"
     objecttolerance="10"
     gridtolerance="10"
     guidetolerance="10"
     inkscape:pageopacity="0"
     inkscape:pageshadow="2"
     inkscape:window-width="1339"
     inkscape:window-height="984"
     id="namedview14"
     showgrid="false"
     inkscape:zoom="12.890625"
     inkscape:cx="32"
     inkscape:cy="32"
     inkscape:window-x="536"
     inkscape:window-y="191"
     inkscape:window-maximized="0"
     inkscape:current-layer="svg12" />
  <path
     style="fill:#29292a;stroke-width:1.05928"
     d="m 22.789575,12.451966 c -5.835344,0.221482 -12.01302,3.406751 -17.3299502,12.087711 -1.0184038,1.664529 -2.8205346,4.665852 -2.809242,7.311541 0.011132,2.587848 1.7902944,5.457606 2.809242,7.122886 13.0879082,21.368121 31.3902752,9.428394 36.9738362,1.984321 1.157177,-1.543051 3.231146,-2.187786 4.737244,-1.312865 l 12.300563,7.134262 c 1.505784,0.873214 2.153225,-0.0084 1.447543,-1.969298 L 55.388577,31.851433 60.918811,18.703471 c 0.705714,-1.960819 0.05838,-2.842608 -1.447543,-1.969296 l -12.300563,7.13426 C 45.664711,24.743378 43.590638,24.098643 42.433461,22.55557 39.11783,18.135357 31.317575,12.127988 22.789575,12.452073 Z"
     id="path2" />
  <ellipse
     style="fill:#ffffff;stroke-width:1.05928;opacity:0.85"
     cx="14.151786"
     cy="24.24242"
     id="circle6"
     rx="3.1368318"
     ry="3.2193835" />
</svg>
