<?xml version="1.0" encoding="UTF-8" standalone="no"?>
<svg
   xmlns:dc="http://purl.org/dc/elements/1.1/"
   xmlns:cc="http://creativecommons.org/ns#"
   xmlns:rdf="http://www.w3.org/1999/02/22-rdf-syntax-ns#"
   xmlns:svg="http://www.w3.org/2000/svg"
   xmlns="http://www.w3.org/2000/svg"
   xmlns:sodipodi="http://sodipodi.sourceforge.net/DTD/sodipodi-0.dtd"
   xmlns:inkscape="http://www.inkscape.org/namespaces/inkscape"
   width="64"
   height="64"
   version="1.1"
   id="svg73"
   sodipodi:docname="nvidia-settings.svg"
   inkscape:version="1.0.2 (e86c870879, 2021-01-15)">
  <metadata
     id="metadata77">
    <rdf:RDF>
      <cc:Work
         rdf:about="">
        <dc:format>image/svg+xml</dc:format>
        <dc:type
           rdf:resource="http://purl.org/dc/dcmitype/StillImage" />
        <dc:title />
      </cc:Work>
    </rdf:RDF>
  </metadata>
  <sodipodi:namedview
     pagecolor="#ffffff"
     bordercolor="#666666"
     borderopacity="1"
     objecttolerance="10"
     gridtolerance="10"
     guidetolerance="10"
     inkscape:pageopacity="0"
     inkscape:pageshadow="2"
     inkscape:window-width="1920"
     inkscape:window-height="996"
     id="namedview75"
     showgrid="false"
     inkscape:zoom="12.578125"
     inkscape:cx="15.860869"
     inkscape:cy="28.819876"
     inkscape:window-x="0"
     inkscape:window-y="0"
     inkscape:window-maximized="1"
     inkscape:current-layer="svg73"
     inkscape:document-rotation="0" />
  <defs
     id="defs29">
    <linearGradient
       id="b"
       x1="399.57"
       x2="399.57"
       y1="545.8"
       y2="517.8"
       gradientTransform="matrix(2.1429,0,0,2.1429,-826.36,-1107.5)"
       gradientUnits="userSpaceOnUse">
      <stop
         stop-color="#3889e9"
         offset="0"
         id="stop2" />
      <stop
         stop-color="#5ea5fb"
         offset="1"
         id="stop4" />
    </linearGradient>
    <linearGradient
       id="linearGradient862"
       x1="7.9373"
       x2="7.9373"
       y1="15.081"
       y2="1.852"
       gradientTransform="matrix(3.3743 0 0 3.3743 3.4312 3.4278)"
       gradientUnits="userSpaceOnUse">
      <stop
         stop-color="#f1efeb"
         offset="0"
         id="stop7" />
      <stop
         stop-color="#fff"
         offset="1"
         id="stop9" />
    </linearGradient>
    <linearGradient
       id="linearGradient910"
       x1="7.9373"
       x2="7.9373"
       y1="15.081"
       y2="1.852"
       gradientTransform="scale(3.7796)"
       gradientUnits="userSpaceOnUse">
      <stop
         stop-color="#613583"
         offset="0"
         id="stop12" />
      <stop
         stop-color="#a663c0"
         offset="1"
         id="stop14" />
    </linearGradient>
    <linearGradient
       id="linearGradient932"
       x1="379.24"
       x2="374.24"
       y1="546.85"
       y2="546.85"
       gradientTransform="matrix(2.1429 0 0 2.1429 -769.68 -1134.5)"
       gradientUnits="userSpaceOnUse">
      <stop
         stop-color="#f6f5f4"
         offset="0"
         id="stop17" />
      <stop
         stop-color="#fff"
         offset=".6"
         id="stop19" />
      <stop
         stop-color="#dddbd8"
         offset="1"
         id="stop21" />
    </linearGradient>
    <linearGradient
       id="linearGradient1146"
       x1="18"
       x2="18"
       y1="52"
       y2="12"
       gradientUnits="userSpaceOnUse">
      <stop
         stop-color="#5e337f"
         offset="0"
         id="stop24" />
      <stop
         stop-color="#ab60bf"
         offset="1"
         id="stop26" />
    </linearGradient>
  </defs>
  <circle
     cx="32.02"
     cy="32.044"
     r="30.001"
     fill-opacity="0"
     stroke-width="1.5715"
     id="circle39" />
  <circle
     cx="32.02"
     cy="32.044"
     r="0"
     fill="url(#b)"
     stroke-width="1.5715"
     id="circle41" />
  <path
     style="fill:#29292a;stroke-width:1.49875"
     d="m 8.0067737,30.012832 c 0,0 5.5613133,-8.425432 16.4276333,-9.297142 v -3.056655 c -12.0359,1.014288 -22.5774097,11.710762 -22.5774097,11.710762 0,0 6.0224043,17.906469 22.5774097,19.546 V 45.666589 C 12.285341,44.060494 8.0064725,30.011638 8.0064725,30.011638 Z m 16.4276333,9.19176 v 2.975576 C 15.25233,40.462481 12.584568,30.447016 12.584568,30.447016 c 0,0 4.527774,-5.124578 11.849839,-5.955688 v 3.265029 c -0.0045,0 -0.0075,-0.0017 -0.01178,-0.0017 -3.84282,-0.483919 -6.964148,3.283241 -6.964148,3.283241 0,0 1.801803,6.341688 6.978294,8.166607 m 0,-27.183909 v 5.638051 c 0.353312,-0.02836 0.587528,-0.05224 0.942766,-0.06496 13.683425,-0.483919 22.599141,11.775842 22.599141,11.775842 0,0 -10.239996,13.065495 -20.908275,13.065495 -0.977741,0 -1.773934,-0.0952 -2.633693,-0.254975 v 3.48654 c 0.735186,0.0978 1.378305,0.155565 2.173716,0.155565 9.927586,0 17.106688,-5.320116 24.058556,-11.616427 1.152606,0.968613 5.871376,3.325034 6.841411,4.356458 -6.609661,5.806721 -22.014349,10.487683 -30.747374,10.487683 -0.841821,0 -1.531139,-0.05344 -2.325827,-0.133862 v 4.899188 H 62.051063 V 12.020953 H 24.437236 Z m 0,12.470822 V 20.7159 c 0.349699,-0.0215 0.582923,-0.04525 0.942766,-0.05732 9.839702,-0.324324 16.295266,8.87263 16.295266,8.87263 0,0 -6.972635,10.161389 -14.448497,10.161389 -1.075917,0 -1.92147,-0.181387 -2.789656,-0.487739 V 27.756811 c 3.830781,0.48571 4.482447,2.261251 6.785491,6.289743 l 5.121953,-4.531994 c 0,0 -3.738984,-5.145476 -10.041955,-5.145476 -0.685134,-2.44e-4 -1.221588,0.05036 -1.865368,0.122279"
     id="path6" />
</svg>
