<?xml version="1.0" encoding="UTF-8" standalone="no"?>
<svg
   xmlns:dc="http://purl.org/dc/elements/1.1/"
   xmlns:cc="http://creativecommons.org/ns#"
   xmlns:rdf="http://www.w3.org/1999/02/22-rdf-syntax-ns#"
   xmlns:svg="http://www.w3.org/2000/svg"
   xmlns="http://www.w3.org/2000/svg"
   xmlns:sodipodi="http://sodipodi.sourceforge.net/DTD/sodipodi-0.dtd"
   xmlns:inkscape="http://www.inkscape.org/namespaces/inkscape"
   width="64"
   height="64"
   version="1.1"
   id="svg73"
   sodipodi:docname="olive.svg"
   inkscape:version="1.0.2 (e86c870879, 2021-01-15)">
  <metadata
     id="metadata77">
    <rdf:RDF>
      <cc:Work
         rdf:about="">
        <dc:format>image/svg+xml</dc:format>
        <dc:type
           rdf:resource="http://purl.org/dc/dcmitype/StillImage" />
        <dc:title />
      </cc:Work>
    </rdf:RDF>
  </metadata>
  <sodipodi:namedview
     pagecolor="#ffffff"
     bordercolor="#666666"
     borderopacity="1"
     objecttolerance="10"
     gridtolerance="10"
     guidetolerance="10"
     inkscape:pageopacity="0"
     inkscape:pageshadow="2"
     inkscape:window-width="1920"
     inkscape:window-height="996"
     id="namedview75"
     showgrid="false"
     inkscape:zoom="12.578125"
     inkscape:cx="32"
     inkscape:cy="22.459627"
     inkscape:window-x="0"
     inkscape:window-y="0"
     inkscape:window-maximized="1"
     inkscape:current-layer="svg73"
     inkscape:document-rotation="0" />
  <defs
     id="defs29">
    <linearGradient
       id="b"
       x1="399.57"
       x2="399.57"
       y1="545.8"
       y2="517.8"
       gradientTransform="matrix(2.1429,0,0,2.1429,-826.36,-1107.5)"
       gradientUnits="userSpaceOnUse">
      <stop
         stop-color="#3889e9"
         offset="0"
         id="stop2" />
      <stop
         stop-color="#5ea5fb"
         offset="1"
         id="stop4" />
    </linearGradient>
    <linearGradient
       id="linearGradient862"
       x1="7.9373"
       x2="7.9373"
       y1="15.081"
       y2="1.852"
       gradientTransform="matrix(3.3743 0 0 3.3743 3.4312 3.4278)"
       gradientUnits="userSpaceOnUse">
      <stop
         stop-color="#f1efeb"
         offset="0"
         id="stop7" />
      <stop
         stop-color="#fff"
         offset="1"
         id="stop9" />
    </linearGradient>
    <linearGradient
       id="linearGradient910"
       x1="7.9373"
       x2="7.9373"
       y1="15.081"
       y2="1.852"
       gradientTransform="scale(3.7796)"
       gradientUnits="userSpaceOnUse">
      <stop
         stop-color="#613583"
         offset="0"
         id="stop12" />
      <stop
         stop-color="#a663c0"
         offset="1"
         id="stop14" />
    </linearGradient>
    <linearGradient
       id="linearGradient932"
       x1="379.24"
       x2="374.24"
       y1="546.85"
       y2="546.85"
       gradientTransform="matrix(2.1429 0 0 2.1429 -769.68 -1134.5)"
       gradientUnits="userSpaceOnUse">
      <stop
         stop-color="#f6f5f4"
         offset="0"
         id="stop17" />
      <stop
         stop-color="#fff"
         offset=".6"
         id="stop19" />
      <stop
         stop-color="#dddbd8"
         offset="1"
         id="stop21" />
    </linearGradient>
    <linearGradient
       id="linearGradient1146"
       x1="18"
       x2="18"
       y1="52"
       y2="12"
       gradientUnits="userSpaceOnUse">
      <stop
         stop-color="#5e337f"
         offset="0"
         id="stop24" />
      <stop
         stop-color="#ab60bf"
         offset="1"
         id="stop26" />
    </linearGradient>
  </defs>
  <circle
     cx="32.02"
     cy="32.044"
     r="30.001"
     fill-opacity="0"
     stroke-width="1.5715"
     id="circle39" />
  <circle
     cx="32.02"
     cy="32.044"
     r="0"
     fill="url(#b)"
     stroke-width="1.5715"
     id="circle41" />
  <path
     style="fill:#29292a;stroke-width:5.22374"
     d="M 4.870274,3.0704592 6.8347289,4.5875785 C 0.60367775,7.542819 16.606179,21.03556 16.606179,21.03556 c 0,0 3.114348,-2.88398 7.67724,-3.187573 4.525891,-4.771344 23.362148,-1.139879 22.656426,2.775945 -6.331779,0.101733 -8.337099,-0.73053 -8.337099,-0.73053 0,0 0.312564,0.370881 0.441627,1.643642 -0.462743,0.392076 -7.010284,-1.117202 -8.379115,-1.009699 -3.894876,0.306242 -6.523577,0.40744 -9.317831,0.725551 1.922327,0.652169 17.240579,3.458633 22.138569,8.329692 -1.306543,0.518175 -1.877942,0.305183 -2.314198,0.470491 -0.383639,0.145173 -0.771753,0.949564 -1.61362,0.953431 -0.603205,0.0021 -0.397029,-0.549435 -1.642779,-1.155297 -7.751131,0.316838 -10.264163,-4.548179 -11.02907,-5.144769 -3.421785,-0.840154 -9.186358,-2.739918 -9.186358,-2.739918 0,0 4.880842,4.006849 7.556908,6.230764 0.22254,0.184911 3.891293,0.886461 8.5552,3.226726 2.506982,-2.111272 9.265527,1.471289 8.009708,4.7519 -1.118623,2.922179 -8.623775,-0.08902 -8.347854,-4.064125 -1.71334,-0.548905 -4.878358,-2.123035 -6.903285,-2.874017 1.941345,1.557545 9.568423,8.095188 11.100946,9.944352 6.713841,-0.84826 16.849426,0.875494 23.136635,5.020895 -1.433845,0.389426 -8.256462,1.722481 -9.623062,1.347308 -2.539345,-0.988029 -6.324017,-4.188742 -6.727273,-4.547437 -1.458654,-0.253259 -4.732525,-0.736995 -5.990114,-0.88413 1.275538,1.331519 5.488021,6.33832 6.810684,8.444453 0.547919,-0.119214 3.342065,0.571795 4.116423,1.113176 2.868721,-3.011245 7.520259,2.272553 10.37962,4.824433 -0.751165,1.568937 -12.549223,-0.845769 -10.972439,-4.361572 -0.843118,-0.115494 -2.530522,-1.068723 -3.152743,-1.119322 0.636038,0.85695 2.023167,2.020088 3.85129,3.99281 1.758447,-0.514467 8.386516,6.864813 8.564368,8.479687 -4.959967,-1.243198 -7.409633,-2.324901 -8.177537,-3.247603 -1.515686,-1.821294 -0.941851,-4.436437 -0.797445,-4.911801 -1.950462,-1.793162 -2.313849,-2.326385 -2.951789,-2.682272 -0.01647,0.02119 0.0021,0.552402 0.03193,0.811808 3.204032,2.430019 1.655879,9.155646 -0.18618,9.394123 -0.801701,0.103847 -2.649591,-9.488805 -0.342128,-9.846229 0.05311,-0.190209 0.08358,-0.756545 0.08648,-0.778904 -1.217717,-1.363787 -7.970998,-8.750485 -8.410151,-9.0616 0.21873,0.582919 0.577343,1.541489 0.906481,2.724816 3.987874,2.681211 4.647686,6.971363 4.347125,12.010325 -0.956303,-1.722166 -10.325152,-9.568438 -6.227621,-13.046676 0.02885,-0.536401 -0.126496,-1.753901 0.218575,-2.438283 -1.299426,-1.335971 -5.345501,-5.444973 -5.708564,-5.441635 0.451878,0.952956 0.732485,1.496987 0.956607,2.527456 3.084102,1.583507 2.188199,5.673859 0.783438,5.760697 -1.479935,0.09166 -4.759776,-4.602751 -1.67487,-5.598251 -0.249217,-1.181896 -0.702482,-2.788238 -0.885226,-3.48608 -1.334776,-1.050178 -5.755354,-4.68498 -6.775468,-5.532286 1.254319,2.147194 2.479566,5.48937 3.092275,7.405666 3.695399,4.306892 2.673163,10.968939 2.299512,17.840642 -4.335641,-3.311394 -7.027432,-14.612699 -4.269565,-17.425838 -0.920651,-3.267787 -2.312208,-8.797161 -2.312208,-8.797161 -5.96113,-4.7599 -9.259134,-8.327466 -9.259134,-8.327466 0,0 3.971806,5.298366 4.424187,8.138581 3.47851,0.693813 6.384523,6.927652 3.618635,7.9915 -4.04281,1.554949 -8.382441,-5.04336 -4.933567,-7.50093 0,0 -3.053839,-5.786926 -5.417696,-10.862445 C 1.1770283,6.5836651 2.0732959,3.4225846 4.8699867,3.0706176 Z"
     id="path8" />
</svg>
