<?xml version="1.0" encoding="UTF-8" standalone="no"?>
<svg
   xmlns:dc="http://purl.org/dc/elements/1.1/"
   xmlns:cc="http://creativecommons.org/ns#"
   xmlns:rdf="http://www.w3.org/1999/02/22-rdf-syntax-ns#"
   xmlns:svg="http://www.w3.org/2000/svg"
   xmlns="http://www.w3.org/2000/svg"
   xmlns:sodipodi="http://sodipodi.sourceforge.net/DTD/sodipodi-0.dtd"
   xmlns:inkscape="http://www.inkscape.org/namespaces/inkscape"
   width="64"
   height="64"
   version="1.1"
   id="svg18"
   sodipodi:docname="openmw-cs.svg"
   inkscape:version="1.0.2 (e86c870879, 2021-01-15)">
  <metadata
     id="metadata24">
    <rdf:RDF>
      <cc:Work
         rdf:about="">
        <dc:format>image/svg+xml</dc:format>
        <dc:type
           rdf:resource="http://purl.org/dc/dcmitype/StillImage" />
        <dc:title></dc:title>
      </cc:Work>
    </rdf:RDF>
  </metadata>
  <defs
     id="defs22" />
  <sodipodi:namedview
     pagecolor="#ffffff"
     bordercolor="#666666"
     borderopacity="1"
     objecttolerance="10"
     gridtolerance="10"
     guidetolerance="10"
     inkscape:pageopacity="0"
     inkscape:pageshadow="2"
     inkscape:window-width="1719"
     inkscape:window-height="996"
     id="namedview20"
     showgrid="false"
     inkscape:zoom="12.890625"
     inkscape:cx="32"
     inkscape:cy="32"
     inkscape:window-x="17"
     inkscape:window-y="3"
     inkscape:window-maximized="0"
     inkscape:current-layer="svg18" />
  <path
     style="fill:#29292a"
     d="M 32,4 A 28,28 0 0 0 4,32 28,28 0 0 0 32,60 28,28 0 0 0 38,59.316406 28,28 0 0 1 16,32 28,28 0 0 1 37.949218,4.6835938 28,28 0 0 0 32,4 Z"
     id="path4" />
  <path
     style="fill:#29292a"
     d="M 36.77 12.002 C 35.788 12.002 35 13.095 35 14.457 L 35 16.52 A 16 16 0 0 0 30.887 18.23 L 29.422 16.766 C 28.46 15.804 27.129 15.587 26.434 16.281 L 23.281 19.434 C 22.588 20.129 22.804 21.462 23.766 22.424 L 25.23 23.887 A 16 16 0 0 0 23.531 28 L 21.457 28 C 20.096 28 19 28.788 19 29.77 L 19 34.23 C 19 35.212 20.096 36 21.457 36 L 23.52 36 A 16 16 0 0 0 25.23 40.113 L 23.766 41.578 C 22.804 42.54 22.588 43.872 23.281 44.566 L 26.434 47.719 C 27.129 48.413 28.46 48.196 29.422 47.234 L 30.887 45.77 A 16 16 0 0 0 35 47.469 L 35 49.543 C 35 50.905 35.788 52 36.77 52 L 41.23 52 C 42.212 52 43 50.905 43 49.543 L 43 47.48 A 16 16 0 0 0 47.113 45.77 L 48.576 47.234 C 49.538 48.196 50.87 48.413 51.564 47.719 L 54.717 44.566 C 55.411 43.872 55.194 42.54 54.232 41.578 L 52.77 40.113 A 16 16 0 0 0 54.467 36 L 56.541 36 C 57.903 36 58.998 35.212 58.998 34.23 L 58.998 29.77 C 58.998 28.788 57.903 28 56.541 28 L 54.479 28 A 16 16 0 0 0 52.77 23.887 L 54.232 22.424 C 55.194 21.462 55.411 20.129 54.717 19.434 L 51.564 16.281 C 50.87 15.587 49.538 15.804 48.576 16.766 L 47.113 18.23 A 16 16 0 0 0 43 16.531 L 43 14.457 C 43 13.095 42.212 12.002 41.23 12.002 L 36.77 12.002 z M 38.99 23 A 9 9 0 0 1 39 23 A 9 9 0 0 1 48 32 A 9 9 0 0 1 39 41 A 9 9 0 0 1 30 32 A 9 9 0 0 1 38.99 23 z"
     id="path12" />
</svg>
