<?xml version="1.0" encoding="UTF-8" standalone="no"?>
<svg
   xmlns:dc="http://purl.org/dc/elements/1.1/"
   xmlns:cc="http://creativecommons.org/ns#"
   xmlns:rdf="http://www.w3.org/1999/02/22-rdf-syntax-ns#"
   xmlns:svg="http://www.w3.org/2000/svg"
   xmlns="http://www.w3.org/2000/svg"
   xmlns:sodipodi="http://sodipodi.sourceforge.net/DTD/sodipodi-0.dtd"
   xmlns:inkscape="http://www.inkscape.org/namespaces/inkscape"
   width="64"
   height="64"
   version="1.1"
   id="svg32"
   sodipodi:docname="openmw.svg"
   inkscape:version="1.0.2 (e86c870879, 2021-01-15)">
  <metadata
     id="metadata38">
    <rdf:RDF>
      <cc:Work
         rdf:about="">
        <dc:format>image/svg+xml</dc:format>
        <dc:type
           rdf:resource="http://purl.org/dc/dcmitype/StillImage" />
        <dc:title></dc:title>
      </cc:Work>
    </rdf:RDF>
  </metadata>
  <defs
     id="defs36" />
  <sodipodi:namedview
     pagecolor="#ffffff"
     bordercolor="#666666"
     borderopacity="1"
     objecttolerance="10"
     gridtolerance="10"
     guidetolerance="10"
     inkscape:pageopacity="0"
     inkscape:pageshadow="2"
     inkscape:window-width="1421"
     inkscape:window-height="914"
     id="namedview34"
     showgrid="false"
     inkscape:zoom="12.890625"
     inkscape:cx="32"
     inkscape:cy="28.710001"
     inkscape:window-x="0"
     inkscape:window-y="0"
     inkscape:window-maximized="0"
     inkscape:current-layer="svg32" />
  <path
     style="fill:#29292a"
     d="m 53.686534,15.437822 c -3.998772,7.009214 -10.847686,9.236774 -17.189854,12.2263 v 0 c -3.352704,1.417622 -6.558746,2.996664 -9.445064,6.144576 -7.050672,7.689696 -2.335418,10.1298 -2.73815,14.75348 3.998772,-7.009216 10.847686,-9.236774 17.189854,-12.2263 v 0 c 3.352704,-1.417622 6.558746,-2.996664 9.445064,-6.144576 7.050672,-7.689696 2.335418,-10.1298 2.73815,-14.75348 z"
     id="path6" />
  <path
     style="fill:#29292a"
     d="M 32,4 A 28,28 0 0 0 4,32 28,28 0 0 0 32,60 28,28 0 0 0 38,59.316406 28,28 0 0 1 16,32 28,28 0 0 1 37.949218,4.6835938 28,28 0 0 0 32,4 Z"
     id="path8" />
  <path
     style="fill:#29292a"
     d="M 60.686534,36.437822 C 52.61699,36.479382 47.26341,31.661836 41.50332,27.664122 v 0 c -2.90405,-2.194714 -5.87456,-4.181708 -10.04389,-5.107376 -10.18481,-2.261216 -9.940374,3.042368 -14.145963,5.005432 8.069543,-0.04156 13.423123,4.775984 19.183213,8.7737 v 0 c 2.904048,2.194714 5.87456,4.181708 10.04389,5.107376 10.184808,2.261214 9.940374,-3.042368 14.145964,-5.005432 z"
     id="path10" />
  <path
     style="fill:#29292a"
     d="m 32,11 c 4.070772,6.967645 2.575438,14.012758 1.99336,21 v 0 c -0.448654,3.612338 -0.684186,7.178372 0.598826,11.251952 C 37.726322,53.202862 42.197142,50.339386 46,53 41.929226,46.032356 43.424562,38.987242 44.00664,32 v 0 C 44.455294,28.387662 44.690824,24.821628 43.407814,20.748048 40.273678,10.797137 35.802858,13.660615 32,11 Z"
     id="path12" />
</svg>
