<?xml version="1.0" encoding="UTF-8" standalone="no"?>
<svg
   xmlns:dc="http://purl.org/dc/elements/1.1/"
   xmlns:cc="http://creativecommons.org/ns#"
   xmlns:rdf="http://www.w3.org/1999/02/22-rdf-syntax-ns#"
   xmlns:svg="http://www.w3.org/2000/svg"
   xmlns="http://www.w3.org/2000/svg"
   xmlns:sodipodi="http://sodipodi.sourceforge.net/DTD/sodipodi-0.dtd"
   xmlns:inkscape="http://www.inkscape.org/namespaces/inkscape"
   width="64"
   height="64"
   version="1.1"
   id="svg12"
   sodipodi:docname="org.gnome.FontViewer.svg"
   inkscape:version="1.0.2 (e86c870879, 2021-01-15)">
  <metadata
     id="metadata18">
    <rdf:RDF>
      <cc:Work
         rdf:about="">
        <dc:format>image/svg+xml</dc:format>
        <dc:type
           rdf:resource="http://purl.org/dc/dcmitype/StillImage" />
        <dc:title />
      </cc:Work>
    </rdf:RDF>
  </metadata>
  <defs
     id="defs16" />
  <sodipodi:namedview
     pagecolor="#ffffff"
     bordercolor="#666666"
     borderopacity="1"
     objecttolerance="10"
     gridtolerance="10"
     guidetolerance="10"
     inkscape:pageopacity="0"
     inkscape:pageshadow="2"
     inkscape:window-width="1920"
     inkscape:window-height="996"
     id="namedview14"
     showgrid="false"
     inkscape:zoom="12.890625"
     inkscape:cx="32"
     inkscape:cy="22.179005"
     inkscape:window-x="0"
     inkscape:window-y="0"
     inkscape:window-maximized="1"
     inkscape:current-layer="svg12"
     inkscape:document-rotation="0" />
  <path
     style="fill:#29292a;stroke-width:1.4246"
     d="m 21.534914,2.5207031 c -1.399737,2.36e-5 -2.843715,0.1354231 -4.32118,0.4023231 -1.477465,0.2535784 -2.998245,0.6405451 -4.569026,1.1609867 v 3.402498 c 1.306408,-0.6138695 2.668829,-1.0781762 4.084107,-1.3851382 1.415281,-0.3069296 2.871234,-0.4597779 4.364281,-0.459797 2.348398,1.91e-5 4.167185,0.4682263 5.458047,1.4023809 1.30639,0.920849 1.955827,2.4260833 1.955844,4.1209304 v 0.379331 h -6.01301 c -3.903651,1.5e-5 -6.8504,0.621275 -8.825548,1.902413 -1.959607,1.281169 -2.936482,2.983804 -2.936461,5.506067 -2.1e-5,2.161949 0.783759,3.895462 2.354556,5.189958 1.586343,1.281158 3.720526,1.919654 6.39556,1.919654 2.11511,0 3.904501,-0.319247 5.366451,-0.959826 1.461901,-0.653924 2.678632,-1.661938 3.658452,-3.023167 v 3.982993 h 4.29424 V 13.871943 C 32.801188,10.455549 31.871128,6.7253665 30.004853,5.0438396 28.138558,3.3623465 25.314129,2.5207267 21.534914,2.5207031 Z M 38.318541,8.4061049 V 40.775814 h 8.275972 v -3.902527 c 1.181737,3.039575 2.782641,3.443828 5.479599,3.902527 2.4263,0 5.795174,-1.112196 7.354149,-3.345024 1.558907,-2.246436 2.338357,-5.336343 2.338393,-8.862587 -3.6e-5,-3.526216 -0.779486,-5.819347 -2.338393,-8.052196 -1.558975,-2.246425 -4.927849,-3.367989 -7.354149,-3.368012 -3.098328,0.04799 -4.399477,1.660523 -5.479599,3.896781 V 8.4061049 Z M 24.465987,13.509852 h 4.655234 v 1.097766 c -2.2e-5,3.22572 -0.787133,4.638996 -2.365333,6.592339 -1.561265,1.935422 -3.637527,2.902471 -6.23392,2.902467 -1.883694,4e-6 -3.379767,-0.513095 -4.482819,-1.534571 -1.086091,-1.039389 -1.627176,-2.433675 -1.627176,-4.189901 0,-2.20422 0.728083,-2.586239 2.187529,-3.500204 1.459402,-0.913935 4.082137,-1.367878 7.866485,-1.367896 z m 26.282675,9.609757 c 1.338484,2.4e-5 2.356642,0.500916 3.054998,1.505836 0.709974,1.004944 1.066808,2.465418 1.066825,4.379566 -1.7e-5,1.914165 -0.356851,3.374642 -1.066825,4.379566 -0.698356,1.004938 -1.716509,1.505839 -3.054998,1.505835 -1.338517,4e-6 -2.365706,-0.500897 -3.087323,-1.505835 -0.710005,-1.016886 -1.066845,-2.477366 -1.066826,-4.379566 -1.9e-5,-1.902186 0.356821,-3.357378 1.066826,-4.362324 0.721617,-1.016877 1.748806,-1.523054 3.087323,-1.523078 z M 19.73532,31.947712 c -4.164435,2.3e-5 -7.796372,1.34005 -10.8837652,4.017475 -3.0694932,2.659981 -5.059847,6.222118 -5.9752947,10.684535 -0.8975093,4.444935 -0.358111,8.012578 1.6163995,10.707524 1.9745117,2.67746 5.0436613,4.017475 9.2080974,4.017475 3.15919,0 5.895714,-0.775999 8.211315,-2.333471 2.31552,-1.557471 4.131489,-3.830034 5.441884,-6.804996 h -3.987122 c -0.915486,2.187474 -2.123729,3.829108 -3.631514,4.914081 -1.489871,1.084989 -3.305837,1.626537 -5.441883,1.626534 -2.692526,3e-6 -4.5174967,-1.016188 -5.4688218,-3.046158 C 7.891207,53.700748 7.8426933,50.67466 8.6683615,46.649722 c 0.825691,-4.024921 2.1238565,-7.045514 3.9009145,-9.058001 1.794996,-2.029943 4.033476,-3.046136 6.708063,-3.046157 2.351436,2.3e-5 4.036153,0.56405 5.059336,1.684007 1.041087,1.12001 1.499557,2.906698 1.373941,5.356637 h 2.877191 l 1.454762,-7.144098 c -1.63344,-0.839959 -3.309213,-1.459654 -5.032395,-1.862177 -1.705261,-0.419961 -3.461917,-0.632198 -5.274854,-0.632221 z"
     id="path8" />
</svg>
