<?xml version="1.0" encoding="UTF-8" standalone="no"?>
<svg
   xmlns:dc="http://purl.org/dc/elements/1.1/"
   xmlns:cc="http://creativecommons.org/ns#"
   xmlns:rdf="http://www.w3.org/1999/02/22-rdf-syntax-ns#"
   xmlns:svg="http://www.w3.org/2000/svg"
   xmlns="http://www.w3.org/2000/svg"
   xmlns:sodipodi="http://sodipodi.sourceforge.net/DTD/sodipodi-0.dtd"
   xmlns:inkscape="http://www.inkscape.org/namespaces/inkscape"
   width="64"
   height="64"
   version="1"
   id="svg30"
   sodipodi:docname="org.avidemux.Avidemux.svg"
   inkscape:version="1.0.2 (e86c870879, 2021-01-15)">
  <metadata
     id="metadata36">
    <rdf:RDF>
      <cc:Work
         rdf:about="">
        <dc:format>image/svg+xml</dc:format>
        <dc:type
           rdf:resource="http://purl.org/dc/dcmitype/StillImage" />
        <dc:title></dc:title>
      </cc:Work>
    </rdf:RDF>
  </metadata>
  <defs
     id="defs34" />
  <sodipodi:namedview
     pagecolor="#ffffff"
     bordercolor="#666666"
     borderopacity="1"
     objecttolerance="10"
     gridtolerance="10"
     guidetolerance="10"
     inkscape:pageopacity="0"
     inkscape:pageshadow="2"
     inkscape:window-width="1571"
     inkscape:window-height="847"
     id="namedview32"
     showgrid="false"
     inkscape:zoom="12.890625"
     inkscape:cx="32"
     inkscape:cy="26.883635"
     inkscape:window-x="0"
     inkscape:window-y="0"
     inkscape:window-maximized="0"
     inkscape:current-layer="svg30" />
  <path
     style="opacity:1;fill:#29292a;fill-rule:evenodd;stroke-width:1.36829"
     d="M 11.918194,14.306871 3.6383596,6.1665838 H 14.67814 l 8.279833,8.1402872 z"
     id="path14" />
  <path
     style="opacity:1;fill:#29292a;fill-rule:evenodd;stroke-width:1.36829"
     d="M 11.918194,14.306871 3.6383596,22.447159 H 14.67814 l 8.279833,-8.140288 z"
     id="path16" />
  <path
     style="opacity:1;fill:#29292a;fill-rule:evenodd;stroke-width:1.36829"
     d="M 31.237808,14.306871 22.957974,6.1665838 h 11.039778 l 8.279836,8.1402872 z"
     id="path18" />
  <path
     style="opacity:1;fill:#29292a;fill-rule:evenodd;stroke-width:1.36829"
     d="m 31.237808,14.306871 -8.279835,8.140288 h 11.039779 l 8.279835,-8.140288 z"
     id="path20" />
  <path
     style="opacity:1;fill:#29292a;fill-rule:evenodd;stroke-width:1.36829"
     d="M 50.557422,14.306871 42.277588,6.1665838 h 11.039778 l 8.279835,8.1402872 z"
     id="path22" />
  <path
     style="opacity:1;fill:#29292a;fill-rule:evenodd;stroke-width:1.36829"
     d="m 50.557422,14.306871 -8.279834,8.140288 h 11.039778 l 8.279836,-8.140288 z"
     id="path24" />
  <path
     style="fill:#29292a;stroke-width:1.36829"
     d="m 15.906308,30.594035 c -1.529009,0 -2.759944,1.210189 -2.759944,2.71343 v 21.707434 c 0,1.503239 1.230935,2.71343 2.759944,2.71343 H 40.74581 c 1.52901,0 2.759946,-1.210191 2.759946,-2.71343 V 33.307465 c 0,-1.503241 -1.230936,-2.71343 -2.759946,-2.71343 z M 43.505756,44.161182 54.545537,52.30147 V 36.020893 Z"
     id="path28" />
</svg>
