<?xml version="1.0" encoding="UTF-8" standalone="no"?>
<svg
   xmlns:dc="http://purl.org/dc/elements/1.1/"
   xmlns:cc="http://creativecommons.org/ns#"
   xmlns:rdf="http://www.w3.org/1999/02/22-rdf-syntax-ns#"
   xmlns:svg="http://www.w3.org/2000/svg"
   xmlns="http://www.w3.org/2000/svg"
   xmlns:sodipodi="http://sodipodi.sourceforge.net/DTD/sodipodi-0.dtd"
   xmlns:inkscape="http://www.inkscape.org/namespaces/inkscape"
   width="64"
   height="64"
   version="1"
   id="svg30"
   sodipodi:docname="org.gnome.Calculator.svg"
   inkscape:version="1.0.2 (e86c870879, 2021-01-15)">
  <metadata
     id="metadata36">
    <rdf:RDF>
      <cc:Work
         rdf:about="">
        <dc:format>image/svg+xml</dc:format>
        <dc:type
           rdf:resource="http://purl.org/dc/dcmitype/StillImage" />
        <dc:title />
      </cc:Work>
    </rdf:RDF>
  </metadata>
  <defs
     id="defs34" />
  <sodipodi:namedview
     pagecolor="#ffffff"
     bordercolor="#666666"
     borderopacity="1"
     objecttolerance="10"
     gridtolerance="10"
     guidetolerance="10"
     inkscape:pageopacity="0"
     inkscape:pageshadow="2"
     inkscape:window-width="1920"
     inkscape:window-height="996"
     id="namedview32"
     showgrid="false"
     inkscape:zoom="12.890625"
     inkscape:cx="32"
     inkscape:cy="32"
     inkscape:window-x="0"
     inkscape:window-y="0"
     inkscape:window-maximized="1"
     inkscape:current-layer="svg30"
     inkscape:document-rotation="0" />
  <path
     style="fill:#29292a"
     d="M 15.2,4 H 48.8 C 51.119434,4 53,5.8923937 53,8.2264151 V 55.773585 C 53,58.107607 51.119434,60 48.8,60 H 15.2 C 12.880567,60 11,58.107607 11,55.773585 V 8.2264151 C 11,5.8923937 12.880567,4 15.2,4 Z m 0,0"
     id="path4" />
  <path
     style="fill:#676767"
     d="M 18.998698,18 H 45.001302 C 46.106051,18 47,17.10547 47,16 v -4 c 0,-1.10547 -0.893949,-2 -1.998698,-2 H 18.998698 C 17.893949,10 17,10.89453 17,12 v 4 c 0,1.10547 0.893949,2 1.998698,2 z m 0,0"
     id="path8" />
  <circle
     style="fill:#f2f2f2;opacity:0.85"
     cx="32"
     cy="50"
     r="4"
     id="circle10" />
  <path
     style="fill:#676767"
     d="m 43,35 c 2.209821,0 4.000001,1.65343 4.000001,3.694445 V 50.305556 C 47.000001,52.346572 45.209821,54 43,54 40.790178,54 39.000001,52.346572 39.000001,50.305556 V 38.694445 C 39.000001,36.65343 40.790178,35 43,35 Z m 0,0"
     id="path12" />
  <circle
     style="fill:#f2f2f2;opacity:0.85"
     cx="21"
     cy="28"
     r="4"
     id="circle18" />
  <circle
     style="fill:#f2f2f2;opacity:0.85"
     cx="32"
     cy="28"
     r="4"
     id="circle20" />
  <circle
     style="fill:#f2f2f2;opacity:0.85"
     cx="43"
     cy="28"
     r="4"
     id="circle22" />
  <circle
     style="fill:#f2f2f2;opacity:0.85"
     cx="21"
     cy="39"
     r="4"
     id="circle24" />
  <circle
     style="fill:#f2f2f2;opacity:0.85"
     cx="32"
     cy="39"
     r="4"
     id="circle26" />
  <circle
     style="fill:#f2f2f2;opacity:0.85"
     cx="21"
     cy="50"
     r="4"
     id="circle28" />
</svg>
