<?xml version="1.0" encoding="UTF-8" standalone="no"?>
<svg
   xmlns:dc="http://purl.org/dc/elements/1.1/"
   xmlns:cc="http://creativecommons.org/ns#"
   xmlns:rdf="http://www.w3.org/1999/02/22-rdf-syntax-ns#"
   xmlns:svg="http://www.w3.org/2000/svg"
   xmlns="http://www.w3.org/2000/svg"
   xmlns:sodipodi="http://sodipodi.sourceforge.net/DTD/sodipodi-0.dtd"
   xmlns:inkscape="http://www.inkscape.org/namespaces/inkscape"
   width="64"
   height="64"
   version="1.1"
   id="svg73"
   sodipodi:docname="org.audacityteam.Audacity.svg"
   inkscape:version="1.0.2 (e86c870879, 2021-01-15)">
  <metadata
     id="metadata77">
    <rdf:RDF>
      <cc:Work
         rdf:about="">
        <dc:format>image/svg+xml</dc:format>
        <dc:type
           rdf:resource="http://purl.org/dc/dcmitype/StillImage" />
        <dc:title />
      </cc:Work>
    </rdf:RDF>
  </metadata>
  <sodipodi:namedview
     pagecolor="#ffffff"
     bordercolor="#666666"
     borderopacity="1"
     objecttolerance="10"
     gridtolerance="10"
     guidetolerance="10"
     inkscape:pageopacity="0"
     inkscape:pageshadow="2"
     inkscape:window-width="1920"
     inkscape:window-height="996"
     id="namedview75"
     showgrid="false"
     inkscape:zoom="12.578125"
     inkscape:cx="32"
     inkscape:cy="25.639752"
     inkscape:window-x="0"
     inkscape:window-y="0"
     inkscape:window-maximized="1"
     inkscape:current-layer="svg73"
     inkscape:document-rotation="0" />
  <defs
     id="defs29">
    <linearGradient
       id="b"
       x1="399.57"
       x2="399.57"
       y1="545.8"
       y2="517.8"
       gradientTransform="matrix(2.1429,0,0,2.1429,-826.36,-1107.5)"
       gradientUnits="userSpaceOnUse">
      <stop
         stop-color="#3889e9"
         offset="0"
         id="stop2" />
      <stop
         stop-color="#5ea5fb"
         offset="1"
         id="stop4" />
    </linearGradient>
    <linearGradient
       id="linearGradient862"
       x1="7.9373"
       x2="7.9373"
       y1="15.081"
       y2="1.852"
       gradientTransform="matrix(3.3743 0 0 3.3743 3.4312 3.4278)"
       gradientUnits="userSpaceOnUse">
      <stop
         stop-color="#f1efeb"
         offset="0"
         id="stop7" />
      <stop
         stop-color="#fff"
         offset="1"
         id="stop9" />
    </linearGradient>
    <linearGradient
       id="linearGradient910"
       x1="7.9373"
       x2="7.9373"
       y1="15.081"
       y2="1.852"
       gradientTransform="scale(3.7796)"
       gradientUnits="userSpaceOnUse">
      <stop
         stop-color="#613583"
         offset="0"
         id="stop12" />
      <stop
         stop-color="#a663c0"
         offset="1"
         id="stop14" />
    </linearGradient>
    <linearGradient
       id="linearGradient932"
       x1="379.24"
       x2="374.24"
       y1="546.85"
       y2="546.85"
       gradientTransform="matrix(2.1429 0 0 2.1429 -769.68 -1134.5)"
       gradientUnits="userSpaceOnUse">
      <stop
         stop-color="#f6f5f4"
         offset="0"
         id="stop17" />
      <stop
         stop-color="#fff"
         offset=".6"
         id="stop19" />
      <stop
         stop-color="#dddbd8"
         offset="1"
         id="stop21" />
    </linearGradient>
    <linearGradient
       id="linearGradient1146"
       x1="18"
       x2="18"
       y1="52"
       y2="12"
       gradientUnits="userSpaceOnUse">
      <stop
         stop-color="#5e337f"
         offset="0"
         id="stop24" />
      <stop
         stop-color="#ab60bf"
         offset="1"
         id="stop26" />
    </linearGradient>
  </defs>
  <circle
     cx="32.02"
     cy="32.044"
     r="30.001"
     fill-opacity="0"
     stroke-width="1.5715"
     id="circle39" />
  <circle
     cx="32.02"
     cy="32.044"
     r="0"
     fill="url(#b)"
     stroke-width="1.5715"
     id="circle41" />
  <path
     style="fill:#676767;stroke-width:0.972215"
     d="m 19.062749,21.520056 a 1.0686099,1.1474215 0 0 0 -1.053893,0.943394 l -3.846194,22.946132 a 1.0686099,1.1474215 0 1 0 2.101529,0.405591 l 2.308132,-13.7632 1.558933,25.108539 a 1.0686099,1.1474215 0 0 0 2.130741,0.007 l 1.110242,-16.698733 1.033026,14.408559 a 1.0686099,1.1474215 0 0 0 2.128659,0.01568 l 1.3085,-15.463989 0.845201,6.346041 a 1.0686099,1.1474215 0 0 0 2.099441,0.08515 L 32.949115,35.415706 V 52.49534 a 1.0686099,1.1474215 0 0 0 2.124484,0.174785 l 3.142903,-21.935517 3.291073,26.502333 a 1.0686099,1.1474215 0 0 0 2.122398,-0.04932 l 1.682055,-19.85826 2.011793,6.357242 a 1.0691426,1.1479932 0 1 0 2.024313,-0.739576 l -3.633328,-11.47085 a 1.0686099,1.1474215 0 0 0 -2.076487,0.264418 L 42.365301,46.778728 39.351785,22.514981 a 1.0686099,1.1474215 0 0 0 -2.116136,-0.02241 L 35.086124,37.49272 V 24.961982 a 1.0686099,1.1474215 0 0 0 -2.109876,-0.25097 l -3.003079,14.511635 -1.3085,-9.835018 a 1.0686099,1.1474215 0 0 0 -2.12031,0.05826 L 25.559332,41.07581 24.399005,24.872343 a 1.0686099,1.1474215 0 0 0 -2.130744,0.0071 L 21.235233,40.423817 20.12708,22.591261 a 1.0686099,1.1474215 0 0 0 -1.064331,-1.071163 z"
     id="path8" />
  <path
     style="fill:#29292a;stroke-width:0.972215"
     d="m 31.880614,5.4667259 c -6.199876,0 -12.387005,2.0784894 -16.557864,5.5684711 -4.170862,3.489983 -6.8805758,8.483761 -6.8805758,14.038821 v 2.007788 c -4.1411568,2.252883 -6.4775581,8.160799 -6.4775581,15.08753 0,8.86607 4.6981042,16.062291 10.7518129,16.062291 V 25.074018 c 0,-4.159986 2.005498,-7.989037 5.448946,-10.870285 3.443019,-2.8817 8.306617,-4.158984 13.717325,-4.158984 5.410917,0 10.273876,1.277789 13.717327,4.158984 3.443448,2.8812 5.448945,6.710299 5.448945,10.870285 v 33.157609 c 6.053921,0 10.749726,-7.196221 10.749726,-16.062291 0,-6.92719 -2.229364,-12.8343 -6.370734,-15.08753 v -2.007788 c 0,-5.55506 -2.707626,-10.548838 -6.878488,-14.038821 C 44.378191,7.5449844 38.081933,5.4667259 31.8827,5.4667259 Z M 13.71815,26.107043 v 0.0023 32.122291 c 0.854763,0 1.709525,-0.510696 2.137004,-1.530486 V 27.12674 C 15.427772,26.616829 14.57301,26.107144 13.71815,26.107144 Z m 36.329102,0 c -0.85486,0 -1.709627,0.509683 -2.137007,1.019577 v 29.57452 c 0.427479,1.019791 1.282244,1.530487 2.137007,1.530487 V 26.109282 Z"
     id="path12" />
</svg>
