<?xml version="1.0" encoding="UTF-8" standalone="no"?>
<svg
   xmlns:dc="http://purl.org/dc/elements/1.1/"
   xmlns:cc="http://creativecommons.org/ns#"
   xmlns:rdf="http://www.w3.org/1999/02/22-rdf-syntax-ns#"
   xmlns:svg="http://www.w3.org/2000/svg"
   xmlns="http://www.w3.org/2000/svg"
   xmlns:xlink="http://www.w3.org/1999/xlink"
   xmlns:sodipodi="http://sodipodi.sourceforge.net/DTD/sodipodi-0.dtd"
   xmlns:inkscape="http://www.inkscape.org/namespaces/inkscape"
   width="64"
   height="64"
   version="1.1"
   id="svg73"
   sodipodi:docname="org.gnome.Extensions.svg"
   inkscape:version="1.0.2 (e86c870879, 2021-01-15)">
  <metadata
     id="metadata77">
    <rdf:RDF>
      <cc:Work
         rdf:about="">
        <dc:format>image/svg+xml</dc:format>
        <dc:type
           rdf:resource="http://purl.org/dc/dcmitype/StillImage" />
        <dc:title />
      </cc:Work>
    </rdf:RDF>
  </metadata>
  <sodipodi:namedview
     pagecolor="#ffffff"
     bordercolor="#666666"
     borderopacity="1"
     objecttolerance="10"
     gridtolerance="10"
     guidetolerance="10"
     inkscape:pageopacity="0"
     inkscape:pageshadow="2"
     inkscape:window-width="1541"
     inkscape:window-height="751"
     id="namedview75"
     showgrid="false"
     inkscape:zoom="12.578125"
     inkscape:cx="15.900621"
     inkscape:cy="35.180124"
     inkscape:window-x="178"
     inkscape:window-y="176"
     inkscape:window-maximized="0"
     inkscape:current-layer="svg73"
     inkscape:document-rotation="0" />
  <defs
     id="defs29">
    <linearGradient
       id="b"
       x1="399.57"
       x2="399.57"
       y1="545.8"
       y2="517.8"
       gradientTransform="matrix(2.1429,0,0,2.1429,-826.36,-1107.5)"
       gradientUnits="userSpaceOnUse">
      <stop
         stop-color="#3889e9"
         offset="0"
         id="stop2" />
      <stop
         stop-color="#5ea5fb"
         offset="1"
         id="stop4" />
    </linearGradient>
    <linearGradient
       id="linearGradient862"
       x1="7.9373"
       x2="7.9373"
       y1="15.081"
       y2="1.852"
       gradientTransform="matrix(3.3743 0 0 3.3743 3.4312 3.4278)"
       gradientUnits="userSpaceOnUse">
      <stop
         stop-color="#f1efeb"
         offset="0"
         id="stop7" />
      <stop
         stop-color="#fff"
         offset="1"
         id="stop9" />
    </linearGradient>
    <linearGradient
       id="linearGradient910"
       x1="7.9373"
       x2="7.9373"
       y1="15.081"
       y2="1.852"
       gradientTransform="scale(3.7796)"
       gradientUnits="userSpaceOnUse">
      <stop
         stop-color="#613583"
         offset="0"
         id="stop12" />
      <stop
         stop-color="#a663c0"
         offset="1"
         id="stop14" />
    </linearGradient>
    <linearGradient
       id="linearGradient932"
       x1="379.24"
       x2="374.24"
       y1="546.85"
       y2="546.85"
       gradientTransform="matrix(2.1429 0 0 2.1429 -769.68 -1134.5)"
       gradientUnits="userSpaceOnUse">
      <stop
         stop-color="#f6f5f4"
         offset="0"
         id="stop17" />
      <stop
         stop-color="#fff"
         offset=".6"
         id="stop19" />
      <stop
         stop-color="#dddbd8"
         offset="1"
         id="stop21" />
    </linearGradient>
    <linearGradient
       id="linearGradient1146"
       x1="18"
       x2="18"
       y1="52"
       y2="12"
       gradientUnits="userSpaceOnUse">
      <stop
         stop-color="#5e337f"
         offset="0"
         id="stop24" />
      <stop
         stop-color="#ab60bf"
         offset="1"
         id="stop26" />
    </linearGradient>
    <linearGradient
       id="linearGradient921"
       x1="1643.1"
       x2="1643.1"
       y1="1003"
       y2="2366.7"
       gradientTransform="matrix(0.02123815,0,0,0.02123815,-2.6748924,-2.2793378)"
       gradientUnits="userSpaceOnUse">
      <stop
         stop-color="#fff"
         offset="0"
         id="stop7-3" />
      <stop
         stop-color="#bddcff"
         offset="1"
         id="stop9-6" />
    </linearGradient>
    <radialGradient
       id="radialGradient1105"
       cx="2.1166"
       cy="6.0853"
       r="0.52916002"
       gradientUnits="userSpaceOnUse"
       xlink:href="#linearGradient1103"
       gradientTransform="matrix(3.779602,0,0,3.779602,3.4962073,-3.5513369)" />
    <linearGradient
       id="linearGradient1103">
      <stop
         stop-opacity=".75"
         offset="0"
         id="stop15" />
      <stop
         stop-opacity=".8"
         offset=".7"
         id="stop17-3" />
      <stop
         stop-opacity=".5"
         offset="1"
         id="stop19-6" />
    </linearGradient>
    <radialGradient
       id="radialGradient1111"
       cx="2.1166"
       cy="6.0853"
       r="0.52916002"
       gradientTransform="matrix(3.779602,0,0,3.779602,3.4962073,9.4486042)"
       gradientUnits="userSpaceOnUse"
       xlink:href="#linearGradient1103" />
    <radialGradient
       id="radialGradient1115"
       cx="2.1166"
       cy="6.0853"
       r="0.52916002"
       gradientTransform="matrix(3.779602,0,0,3.779602,3.4962073,22.448545)"
       gradientUnits="userSpaceOnUse"
       xlink:href="#linearGradient1103" />
  </defs>
  <circle
     cx="32.02"
     cy="32.044"
     r="30.001"
     fill-opacity="0"
     stroke-width="1.5715"
     id="circle39" />
  <circle
     cx="32.02"
     cy="32.044"
     r="0"
     fill="url(#b)"
     stroke-width="1.5715"
     id="circle41" />
  <path
     fill="#ffffff"
     d="m 26.421204,3.56673 c -3.984158,0 -7.213953,2.2585337 -7.213953,5.0445662 0.115899,1.0393935 0.76644,2.3519148 1.109839,2.8025248 1.664759,2.242026 1.664759,3.643302 1.248569,4.484052 h -13.4568 c -2.4594031,0 -4.4393561,1.999897 -4.4393561,4.484066 v 11.35027 c 0.8323797,0.420376 2.2196793,0.420376 4.4393561,-1.261153 0.4461208,-0.346845 1.7455581,-1.003944 2.774598,-1.121012 2.758263,0 4.994277,3.262315 4.994277,7.286595 0,4.024264 -2.236014,7.286576 -4.994277,7.286576 C 10.036911,43.908687 8.7499353,43.144004 8.108859,42.802204 5.8891822,41.120703 4.5018826,41.120703 3.6695029,41.541075 v 14.713304 c 0,2.484165 1.979953,4.484049 4.4393561,4.484049 h 17.896157 c 0.416185,-0.840761 0.416185,-2.24202 -1.248567,-4.484049 -0.343395,-0.450589 -0.99394,-1.763128 -1.109842,-2.802537 0,-2.78604 3.229799,-5.044573 7.213953,-5.044573 3.98416,0 7.213956,2.258533 7.213956,5.044573 -0.01444,0.855066 -0.77146,2.154998 -1.109841,2.802537 -1.664757,2.242029 -1.664757,3.643288 -1.248566,4.484049 h 7.907601 c 2.459407,0 4.439354,-1.999884 4.439354,-4.484049 V 43.783103 c 0.832383,-0.420387 2.219667,-0.420387 4.439355,1.261127 0.641062,0.341749 1.928052,1.106547 2.774597,1.121011 2.758265,0 4.994266,-3.262302 4.994266,-7.286583 0,-4.024259 -2.236001,-7.286574 -4.994266,-7.286574 -1.029046,0.11704 -2.328477,0.774149 -2.774597,1.121012 -2.219688,1.681518 -3.606972,1.681518 -4.439355,1.261141 V 20.381939 c 0,-2.484169 -1.979947,-4.484066 -4.439354,-4.484066 H 31.276749 c -0.416184,-0.84075 -0.416184,-2.242026 1.24857,-4.484052 0.338384,-0.647523 1.095502,-1.9474582 1.109841,-2.8025248 0,-2.7860325 -3.2298,-5.0445662 -7.213956,-5.0445662 z"
     id="path42"
     style="fill:#29292a;stroke-width:0.309164" />
</svg>
