<?xml version="1.0" encoding="UTF-8" standalone="no"?>
<svg
   xmlns:dc="http://purl.org/dc/elements/1.1/"
   xmlns:cc="http://creativecommons.org/ns#"
   xmlns:rdf="http://www.w3.org/1999/02/22-rdf-syntax-ns#"
   xmlns:svg="http://www.w3.org/2000/svg"
   xmlns="http://www.w3.org/2000/svg"
   xmlns:sodipodi="http://sodipodi.sourceforge.net/DTD/sodipodi-0.dtd"
   xmlns:inkscape="http://www.inkscape.org/namespaces/inkscape"
   width="64"
   height="64"
   version="1.1"
   id="svg18"
   sodipodi:docname="org.gnome.baobab.svg"
   inkscape:version="1.0.2 (e86c870879, 2021-01-15)">
  <metadata
     id="metadata24">
    <rdf:RDF>
      <cc:Work
         rdf:about="">
        <dc:format>image/svg+xml</dc:format>
        <dc:type
           rdf:resource="http://purl.org/dc/dcmitype/StillImage" />
        <dc:title />
      </cc:Work>
    </rdf:RDF>
  </metadata>
  <defs
     id="defs22" />
  <sodipodi:namedview
     pagecolor="#ffffff"
     bordercolor="#666666"
     borderopacity="1"
     objecttolerance="10"
     gridtolerance="10"
     guidetolerance="10"
     inkscape:pageopacity="0"
     inkscape:pageshadow="2"
     inkscape:window-width="1920"
     inkscape:window-height="996"
     id="namedview20"
     showgrid="false"
     inkscape:zoom="12.890625"
     inkscape:cx="32"
     inkscape:cy="25.793939"
     inkscape:window-x="0"
     inkscape:window-y="0"
     inkscape:window-maximized="1"
     inkscape:current-layer="svg18"
     inkscape:document-rotation="0" />
  <path
     style="fill:#29292a"
     d="M 60,32 C 60,47.463972 47.463972,60 32,60 24.04778,60 16.86984,56.684916 11.772766,51.361336 6.958015,46.332624 7.7275542,41.332188 7.7275542,33.820434 7.7275542,18.356461 16.362652,8.3343652 31.826626,8.3343652 47.290598,8.3343652 60,16.536027 60,32 Z"
     id="path4" />
  <path
     style="fill:#e6e6e6"
     d="M 60,32 H 32 V 4 c 15.463972,0 28,12.536027 28,28 z"
     id="path8" />
  <path
     style="fill:#676767"
     d="M 32,4 C 16.536027,4 4,16.536027 4,32 4.00692,39.423412 6.9614544,46.540252 12.214062,51.785936 L 32,32 Z"
     id="path10" />
</svg>
