<?xml version="1.0" encoding="UTF-8" standalone="no"?>
<svg
   xmlns:dc="http://purl.org/dc/elements/1.1/"
   xmlns:cc="http://creativecommons.org/ns#"
   xmlns:rdf="http://www.w3.org/1999/02/22-rdf-syntax-ns#"
   xmlns:svg="http://www.w3.org/2000/svg"
   xmlns="http://www.w3.org/2000/svg"
   xmlns:xlink="http://www.w3.org/1999/xlink"
   xmlns:sodipodi="http://sodipodi.sourceforge.net/DTD/sodipodi-0.dtd"
   xmlns:inkscape="http://www.inkscape.org/namespaces/inkscape"
   width="64"
   height="64"
   version="1.1"
   id="svg73"
   sodipodi:docname="org.gnome.Calendar.svg"
   inkscape:version="1.0.2 (e86c870879, 2021-01-15)">
  <metadata
     id="metadata77">
    <rdf:RDF>
      <cc:Work
         rdf:about="">
        <dc:format>image/svg+xml</dc:format>
        <dc:type
           rdf:resource="http://purl.org/dc/dcmitype/StillImage" />
        <dc:title />
      </cc:Work>
    </rdf:RDF>
  </metadata>
  <sodipodi:namedview
     pagecolor="#ffffff"
     bordercolor="#666666"
     borderopacity="1"
     objecttolerance="10"
     gridtolerance="10"
     guidetolerance="10"
     inkscape:pageopacity="0"
     inkscape:pageshadow="2"
     inkscape:window-width="1920"
     inkscape:window-height="996"
     id="namedview75"
     showgrid="false"
     inkscape:zoom="12.578125"
     inkscape:cx="32"
     inkscape:cy="32"
     inkscape:window-x="0"
     inkscape:window-y="0"
     inkscape:window-maximized="1"
     inkscape:current-layer="svg73"
     inkscape:document-rotation="0" />
  <defs
     id="defs29">
    <linearGradient
       id="b"
       x1="399.57"
       x2="399.57"
       y1="545.8"
       y2="517.8"
       gradientTransform="matrix(2.1429,0,0,2.1429,-826.36,-1107.5)"
       gradientUnits="userSpaceOnUse">
      <stop
         stop-color="#3889e9"
         offset="0"
         id="stop2" />
      <stop
         stop-color="#5ea5fb"
         offset="1"
         id="stop4" />
    </linearGradient>
    <linearGradient
       id="linearGradient862"
       x1="7.9373"
       x2="7.9373"
       y1="15.081"
       y2="1.852"
       gradientTransform="matrix(3.3743 0 0 3.3743 3.4312 3.4278)"
       gradientUnits="userSpaceOnUse">
      <stop
         stop-color="#f1efeb"
         offset="0"
         id="stop7" />
      <stop
         stop-color="#fff"
         offset="1"
         id="stop9" />
    </linearGradient>
    <linearGradient
       id="linearGradient910"
       x1="7.9373"
       x2="7.9373"
       y1="15.081"
       y2="1.852"
       gradientTransform="scale(3.7796)"
       gradientUnits="userSpaceOnUse">
      <stop
         stop-color="#613583"
         offset="0"
         id="stop12" />
      <stop
         stop-color="#a663c0"
         offset="1"
         id="stop14" />
    </linearGradient>
    <linearGradient
       id="linearGradient932"
       x1="379.24"
       x2="374.24"
       y1="546.85"
       y2="546.85"
       gradientTransform="matrix(2.1429 0 0 2.1429 -769.68 -1134.5)"
       gradientUnits="userSpaceOnUse">
      <stop
         stop-color="#f6f5f4"
         offset="0"
         id="stop17" />
      <stop
         stop-color="#fff"
         offset=".6"
         id="stop19" />
      <stop
         stop-color="#dddbd8"
         offset="1"
         id="stop21" />
    </linearGradient>
    <linearGradient
       id="linearGradient1146"
       x1="18"
       x2="18"
       y1="52"
       y2="12"
       gradientUnits="userSpaceOnUse">
      <stop
         stop-color="#5e337f"
         offset="0"
         id="stop24" />
      <stop
         stop-color="#ab60bf"
         offset="1"
         id="stop26" />
    </linearGradient>
    <linearGradient
       id="linearGradient978"
       x1="8.2018995"
       x2="8.2018995"
       y1="10.848"
       y2="6.3498998"
       gradientTransform="scale(0.26458)"
       gradientUnits="userSpaceOnUse">
      <stop
         stop-color="#f24236"
         offset="0"
         id="stop26-3" />
      <stop
         stop-color="#fe6b62"
         offset="1"
         id="stop28" />
    </linearGradient>
    <radialGradient
       id="radialGradient988"
       cx="2.5158999"
       cy="8.4665003"
       r="1.0583"
       gradientTransform="matrix(6.3810342,0,0,6.2620721,-8.9484534,-20.026541)"
       gradientUnits="userSpaceOnUse"
       xlink:href="#linearGradient986" />
    <linearGradient
       id="linearGradient986">
      <stop
         offset="0"
         id="stop2-6" />
      <stop
         stop-opacity="0"
         offset="1"
         id="stop4-7" />
    </linearGradient>
    <linearGradient
       id="linearGradient929"
       x1="2.5239999"
       x2="2.5239999"
       y1="7.1436"
       y2="9.7894001"
       gradientUnits="userSpaceOnUse">
      <stop
         offset="0"
         id="stop9-5" />
      <stop
         stop-color="#ececec"
         offset=".2"
         id="stop11" />
      <stop
         stop-color="#fff"
         offset=".37829"
         id="stop13" />
      <stop
         stop-color="#c2c2c2"
         offset=".52602"
         id="stop15" />
      <stop
         stop-color="#1a1a1a"
         offset=".58468"
         id="stop17-3" />
      <stop
         stop-color="#fff"
         offset=".66476"
         id="stop19-5" />
      <stop
         stop-color="#999"
         offset=".88282"
         id="stop21-6" />
      <stop
         offset="1"
         id="stop23" />
    </linearGradient>
    <radialGradient
       id="radialGradient992"
       cx="2.5158999"
       cy="8.4665003"
       r="1.0583"
       gradientTransform="matrix(6.3810342,0,0,6.2620721,41.12565,-20.026541)"
       gradientUnits="userSpaceOnUse"
       xlink:href="#linearGradient986" />
    <linearGradient
       id="linearGradient912"
       x1="30"
       x2="30"
       y1="32"
       y2="14"
       gradientTransform="matrix(0.89430625,0,0,1.0000071,3.4604074,3.0836702)"
       gradientUnits="userSpaceOnUse"
       xlink:href="#linearGradient986" />
  </defs>
  <rect
     x="4.4794178"
     y="4.4330177"
     width="56.273819"
     height="55.224705"
     rx="11.255214"
     ry="11.045382"
     fill="url(#linearGradient862)"
     stroke-width="3.76228"
     id="rect35"
     style="fill:#29292a;fill-opacity:1" />
  <circle
     cx="32.02"
     cy="32.044"
     r="30.001"
     fill-opacity="0"
     stroke-width="1.5715"
     id="circle39" />
  <circle
     cx="32.02"
     cy="32.044"
     r="0"
     fill="url(#b)"
     stroke-width="1.5715"
     id="circle41" />
  <g
     fill="url(#linearGradient978)"
     stroke-width="0.18023"
     aria-label="26"
     id="g55"
     transform="matrix(4.2540229,0,0,4.1747148,-3.5968928,-2.3537215)"
     style="opacity:0.85;fill:#f2f2f2">
    <path
       d="M 8.1241,11.04 H 4.6637 V 10.44884 L 5.9902,9.10074 Q 6.3795,8.70423 6.63903,8.41586 6.89856,8.12028 7.02833,7.85354 7.1581,7.57959 7.1581,7.26238 7.1581,6.87308 6.92741,6.67122 6.69672,6.46936 6.32905,6.46936 5.9758,6.46936 5.69464,6.59913 5.41348,6.7289 5.11069,6.97401 L 4.69977,6.46216 q 0.31,-0.25953 0.7065,-0.44697 0.39651,-0.19465 0.94441,-0.19465 0.73534,0 1.1535,0.37488 0.42534,0.37488 0.42534,1.0021 0,0.41092 -0.16581,0.76418 Q 7.5979,8.30774 7.29511,8.65378 6.99232,8.99982 6.5814,9.39633 l -0.95882,0.92999 v 0.03605 h 2.5016 z"
       id="path51"
       style="fill:#f2f2f2" />
    <path
       d="m 8.8089,8.8486 q 0,-0.44697 0.057674,-0.87952 0.064883,-0.43976 0.21628,-0.82185 0.1586,-0.3893 0.43255,-0.68488 0.27395,-0.29558 0.69208,-0.46139 0.42534,-0.17302 1.0237,-0.17302 0.15139,0 0.33883,0.014418 0.18744,0.014418 0.3172,0.043255 v 0.64162 q -0.27395,-0.086511 -0.61999,-0.086511 -0.49744,0 -0.82185,0.15139 -0.32441,0.15139 -0.51185,0.41813 -0.18744,0.26674 -0.27395,0.61999 -0.086511,0.35325 -0.10814,0.75697 h 0.043255 q 0.1586,-0.25953 0.44697,-0.43255 0.28837,-0.17302 0.74255,-0.17302 0.67046,0 1.0742,0.41813 0.41092,0.41092 0.41092,1.1679 0,0.81464 -0.45418,1.2832 -0.44697,0.46139 -1.2184,0.46139 -0.49744,0 -0.90836,-0.24511 -0.40372,-0.24511 -0.64162,-0.74255 -0.2379,-0.50464 -0.2379,-1.276 z m 1.7807,1.6293 q 0.41092,0 0.67046,-0.26674 0.25953,-0.27395 0.25953,-0.84348 0,-0.45418 -0.2307,-0.72092 -0.22349,-0.26674 -0.67767,-0.26674 -0.31,0 -0.54069,0.12977 Q 9.83984,8.63956 9.71007,8.84141 9.5803,9.04327 9.5803,9.25233 q 0,0.29558 0.11535,0.57674 0.11535,0.28116 0.33883,0.4686 0.22349,0.18023 0.55511,0.18023 z"
       id="path53"
       style="fill:#f2f2f2" />
  </g>
  <ellipse
     cx="7.105803"
     cy="32.991501"
     fill="url(#radialGradient988)"
     opacity="0.15"
     id="circle59"
     style="fill:url(#radialGradient988);stroke-width:4.21419"
     rx="6.7532616"
     ry="6.6273599" />
  <path
     d="m 7.0955935,27.468772 c 0.9352891,0 1.6882939,0.738925 1.6882939,1.65682 v 7.731988 c 0,0.917894 -0.7529617,1.656821 -1.6882939,1.656821 -0.9352894,0 -1.6882514,-0.738927 -1.6882514,-1.656821 v -7.731988 c 0,-0.917895 0.752962,-1.65682 1.6882514,-1.65682 z"
     fill="url(#linearGradient929)"
     id="path61"
     style="opacity:0.85;fill:#f2f2f2;stroke-width:4.21419" />
  <path
     d="m 7.0956362,27.469022 c -0.9353149,0 -1.6882941,0.738942 -1.6882941,1.656819 v 7.731823 c 0,0.917878 0.7529792,1.656819 1.6882941,1.656819 0.9353146,0 1.6882943,-0.738941 1.6882943,-1.656819 v -7.731823 c 0,-0.917877 -0.7529797,-1.656819 -1.6882943,-1.656819 z m 0,0.170433 c 0.8633365,0 1.5586338,0.715457 1.5586338,1.605015 v 7.494567 c 0,0.889579 -0.6952637,1.605015 -1.5586338,1.605015 -0.8633374,0 -1.5586332,-0.715459 -1.5586332,-1.605015 V 29.24447 c 0,-0.88958 0.6952621,-1.605015 1.5586332,-1.605015 z"
     opacity="0.25"
     id="path63"
     style="stroke-width:1.11499" />
  <ellipse
     cx="57.180332"
     cy="32.991501"
     fill="url(#radialGradient992)"
     opacity="0.15"
     id="circle65"
     style="fill:url(#radialGradient992);stroke-width:4.21419"
     rx="6.7532616"
     ry="6.6273599" />
  <g
     transform="matrix(4.2540229,0,0,4.1747148,47.051503,-2.3537215)"
     id="g71"
     style="opacity:0.85;fill:#f2f2f2">
    <path
       d="m 2.5135,7.1436 c 0.21986,0 0.39687,0.177 0.39687,0.39687 v 1.8521 c 0,0.21987 -0.177,0.39687 -0.39687,0.39687 -0.21986,0 -0.39686,-0.177 -0.39686,-0.39687 v -1.8521 c 0,-0.21987 0.177,-0.39687 0.39686,-0.39687 z"
       fill="url(#linearGradient929)"
       id="path67"
       style="fill:#f2f2f2" />
    <path
       transform="scale(0.26458)"
       d="M 9.5,27 C 8.669,27 8,27.669 8,28.5 v 7 C 8,36.331 8.669,37 9.5,37 10.331,37 11,36.331 11,35.5 v -7 C 11,27.669 10.331,27 9.5,27 Z m 0,0.1543 c 0.76705,0 1.3848,0.64774 1.3848,1.4531 v 6.7852 c 0,0.80538 -0.61772,1.4531 -1.3848,1.4531 -0.76705,0 -1.3848,-0.64774 -1.3848,-1.4531 v -6.7852 c 0,-0.80538 0.61772,-1.4531 1.3848,-1.4531 z"
       opacity="0.25"
       id="path69"
       style="fill:#f2f2f2" />
  </g>
</svg>
