<?xml version="1.0" encoding="UTF-8" standalone="no"?>
<svg
   xmlns:dc="http://purl.org/dc/elements/1.1/"
   xmlns:cc="http://creativecommons.org/ns#"
   xmlns:rdf="http://www.w3.org/1999/02/22-rdf-syntax-ns#"
   xmlns:svg="http://www.w3.org/2000/svg"
   xmlns="http://www.w3.org/2000/svg"
   xmlns:xlink="http://www.w3.org/1999/xlink"
   xmlns:sodipodi="http://sodipodi.sourceforge.net/DTD/sodipodi-0.dtd"
   xmlns:inkscape="http://www.inkscape.org/namespaces/inkscape"
   width="64"
   height="64"
   version="1.1"
   id="svg73"
   sodipodi:docname="org.develz.Crawl.svg"
   inkscape:version="1.0.2 (e86c870879, 2021-01-15)">
  <metadata
     id="metadata77">
    <rdf:RDF>
      <cc:Work
         rdf:about="">
        <dc:format>image/svg+xml</dc:format>
        <dc:type
           rdf:resource="http://purl.org/dc/dcmitype/StillImage" />
        <dc:title></dc:title>
      </cc:Work>
    </rdf:RDF>
  </metadata>
  <sodipodi:namedview
     pagecolor="#ffffff"
     bordercolor="#666666"
     borderopacity="1"
     objecttolerance="10"
     gridtolerance="10"
     guidetolerance="10"
     inkscape:pageopacity="0"
     inkscape:pageshadow="2"
     inkscape:window-width="1280"
     inkscape:window-height="737"
     id="namedview75"
     showgrid="false"
     inkscape:zoom="8.8940775"
     inkscape:cx="17.640044"
     inkscape:cy="24.868123"
     inkscape:window-x="640"
     inkscape:window-y="175"
     inkscape:window-maximized="0"
     inkscape:current-layer="svg73"
     inkscape:document-rotation="0" />
  <defs
     id="defs29">
    <linearGradient
       id="b"
       x1="399.57"
       x2="399.57"
       y1="545.8"
       y2="517.8"
       gradientTransform="matrix(2.1429,0,0,2.1429,-826.36,-1107.5)"
       gradientUnits="userSpaceOnUse">
      <stop
         stop-color="#3889e9"
         offset="0"
         id="stop2" />
      <stop
         stop-color="#5ea5fb"
         offset="1"
         id="stop4" />
    </linearGradient>
    <linearGradient
       id="linearGradient862"
       x1="7.9373"
       x2="7.9373"
       y1="15.081"
       y2="1.852"
       gradientTransform="matrix(3.3743 0 0 3.3743 3.4312 3.4278)"
       gradientUnits="userSpaceOnUse">
      <stop
         stop-color="#f1efeb"
         offset="0"
         id="stop7" />
      <stop
         stop-color="#fff"
         offset="1"
         id="stop9" />
    </linearGradient>
    <linearGradient
       id="linearGradient910"
       x1="7.9373"
       x2="7.9373"
       y1="15.081"
       y2="1.852"
       gradientTransform="scale(3.7796)"
       gradientUnits="userSpaceOnUse">
      <stop
         stop-color="#613583"
         offset="0"
         id="stop12" />
      <stop
         stop-color="#a663c0"
         offset="1"
         id="stop14" />
    </linearGradient>
    <linearGradient
       id="linearGradient932"
       x1="379.24"
       x2="374.24"
       y1="546.85"
       y2="546.85"
       gradientTransform="matrix(2.1429 0 0 2.1429 -769.68 -1134.5)"
       gradientUnits="userSpaceOnUse">
      <stop
         stop-color="#f6f5f4"
         offset="0"
         id="stop17" />
      <stop
         stop-color="#fff"
         offset=".6"
         id="stop19" />
      <stop
         stop-color="#dddbd8"
         offset="1"
         id="stop21" />
    </linearGradient>
    <linearGradient
       id="linearGradient1146"
       x1="18"
       x2="18"
       y1="52"
       y2="12"
       gradientUnits="userSpaceOnUse">
      <stop
         stop-color="#5e337f"
         offset="0"
         id="stop24" />
      <stop
         stop-color="#ab60bf"
         offset="1"
         id="stop26" />
    </linearGradient>
    <linearGradient
       id="linearGradient910-3"
       x1="14.503"
       x2="12.163"
       y1="23.921"
       y2="27.101999"
       gradientTransform="matrix(-1.0000071,0,0,1.0000071,63.900759,1.6320166)"
       gradientUnits="userSpaceOnUse"
       xlink:href="#linearGradient984" />
    <linearGradient
       id="linearGradient984">
      <stop
         offset="0"
         id="stop2-6" />
      <stop
         stop-opacity="0"
         offset="1"
         id="stop4-7" />
    </linearGradient>
    <linearGradient
       id="linearGradient908"
       x1="14.503"
       x2="12.722"
       y1="23.921"
       y2="26.438999"
       gradientTransform="matrix(-1.0000071,0,0,-1.0000071,63.900759,65.632018)"
       gradientUnits="userSpaceOnUse"
       xlink:href="#linearGradient984" />
    <linearGradient
       id="linearGradient986"
       x1="14.503"
       x2="12.163"
       y1="23.921"
       y2="27.101999"
       gradientTransform="matrix(1.0000071,0,0,1.0000071,-0.09924254,1.6320166)"
       gradientUnits="userSpaceOnUse"
       xlink:href="#linearGradient984" />
    <linearGradient
       id="linearGradient1072"
       x1="14.503"
       x2="12.722"
       y1="23.921"
       y2="26.438999"
       gradientTransform="matrix(1.0000071,0,0,-1.0000071,-0.09924254,65.632018)"
       gradientUnits="userSpaceOnUse"
       xlink:href="#linearGradient984" />
    <linearGradient
       id="linearGradient1068"
       x1="8.4665003"
       x2="8.4665003"
       y1="11.641"
       y2="5.2916002"
       gradientTransform="matrix(3.779602,0,0,3.779602,65.760323,-2.2273354)"
       gradientUnits="userSpaceOnUse">
      <stop
         stop-color="#0a62ff"
         offset="0"
         id="stop15" />
      <stop
         stop-color="#70beff"
         offset="1"
         id="stop17-5" />
    </linearGradient>
    <linearGradient
       id="linearGradient904"
       x1="105.41"
       x2="105.41"
       y1="-101.99"
       y2="308.39999"
       gradientUnits="userSpaceOnUse"
       xlink:href="#e" />
    <linearGradient
       id="e"
       x1="105.41"
       x2="105.41"
       y1="-101.99"
       y2="308.39999"
       gradientUnits="userSpaceOnUse">
      <stop
         stop-color="#fff"
         offset="0"
         id="stop8" />
      <stop
         stop-color="#d7d7d7"
         offset="1"
         id="stop10" />
    </linearGradient>
    <linearGradient
       id="linearGradient1058"
       x1="105.41"
       x2="105.41"
       y1="-101.99"
       y2="308.39999"
       gradientTransform="matrix(0.15595,0,0,0.15595,83.937,15.43)"
       gradientUnits="userSpaceOnUse"
       xlink:href="#e" />
  </defs>
  <circle
     cx="32.02"
     cy="32.044"
     r="30.001"
     fill-opacity="0"
     stroke-width="1.5715"
     id="circle39" />
  <circle
     cx="32.02"
     cy="32.044"
     r="0"
     fill="url(#b)"
     stroke-width="1.5715"
     id="circle41" />
  <g
     id="g10"
     transform="matrix(0.22494908,0,0,0.19277208,-1.4931337,3.60931)"
     style="fill:#29292a">
    <path
       d="m 261.793,44.649 c 7.277,-0.455 12.809,-6.723 12.353,-14 -0.454,-7.276 -6.719,-12.803 -14,-12.354 l -7.647,0.479 -0.402,-6.394 C 251.644,5.103 245.363,-0.432 238.098,0.025 230.821,0.481 225.289,6.747 225.744,14.024 l 0.892,14.85 L 170.153,86.5 H 43.125 c -7.292,0 -13.204,5.708 -13.204,13 0,7.292 5.912,13 13.204,13 h 2.947 c -15.652,20 -23.245,42.795 -23.245,68.402 0,26.209 9.454,50.327 24.454,70.218 v 32.225 c 0,7.291 5.707,13.201 12.999,13.201 7.292,0 13.001,-5.91 13.001,-13.201 v -7.605 c 20,13.802 43.927,21.261 69.999,21.261 26.07,0 50.001,-7.463 70.001,-21.275 v 7.62 c 0,7.291 5.709,13.201 13.001,13.201 7.291,0 12.999,-5.91 12.999,-13.201 v -32.249 c 15,-19.898 24.839,-44.02 24.839,-70.232 0,-25.586 -7.205,-48.363 -22.855,-68.363 h 3.96 c 7.292,0 13.202,-5.708 13.202,-13 0,-7.292 -5.91,-13 -13.202,-13 h -37.912 l 39.329,-40.309 z m -23.136,136.214 c 0,51.381 -40.838,89.928 -94.989,89.928 -54.151,0 -94.565,-38.824 -94.565,-90.185 0,-17.772 5.179,-33.912 15.179,-48.064 v 0.498 c 0,7.291 5.786,13.201 13.079,13.201 1.049,0 1.921,-0.135 2.921,-0.366 v 36.927 c 0,7.292 5.709,13.204 13.001,13.204 7.291,0 12.999,-5.912 12.999,-13.204 v -20.954 c 1,0.413 2.513,0.642 3.929,0.642 7.295,0 13.071,-5.91 13.071,-13.2 v -3.692 c 1,0.413 2.513,0.643 3.929,0.643 7.293,0 13.071,-5.91 13.071,-13.201 V 112.5 h 63.996 c 22.811,18 34.379,41.221 34.379,68.363 z"
       id="path2"
       style="fill:#29292a" />
    <path
       d="m 76.635,45.7 c 3.483,0 6.886,-1.412 9.333,-3.87 2.459,-2.458 3.871,-5.859 3.871,-9.333 0,-3.474 -1.412,-6.876 -3.871,-9.333 -2.447,-2.459 -5.85,-3.869 -9.333,-3.869 -3.474,0 -6.876,1.41 -9.333,3.869 -2.458,2.457 -3.868,5.859 -3.868,9.333 0,3.474 1.41,6.875 3.868,9.333 2.457,2.458 5.859,3.87 9.333,3.87 z"
       id="path4"
       style="fill:#29292a" />
    <path
       d="m 110.151,78.198 c 3.473,0 6.874,-1.412 9.332,-3.87 2.469,-2.458 3.869,-5.858 3.869,-9.332 0,-3.473 -1.4,-6.877 -3.869,-9.335 -2.448,-2.457 -5.85,-3.867 -9.332,-3.867 -3.474,0 -6.877,1.41 -9.334,3.867 -2.458,2.458 -3.87,5.862 -3.87,9.335 0,3.474 1.412,6.874 3.87,9.332 2.457,2.458 5.86,3.87 9.334,3.87 z"
       id="path6"
       style="fill:#29292a" />
    <path
       d="m 143.663,28.435 c 3.475,0 6.886,-1.412 9.333,-3.869 2.469,-2.459 3.871,-5.86 3.871,-9.333 0,-3.474 -1.413,-6.875 -3.871,-9.335 -2.447,-2.456 -5.849,-3.867 -9.333,-3.867 -3.472,0 -6.875,1.411 -9.333,3.867 -2.457,2.46 -3.869,5.861 -3.869,9.335 0,3.473 1.412,6.874 3.869,9.333 2.458,2.456 5.862,3.869 9.333,3.869 z"
       id="path8"
       style="fill:#29292a" />
  </g>
</svg>
