<?xml version="1.0" encoding="UTF-8" standalone="no"?>
<svg
   xmlns:dc="http://purl.org/dc/elements/1.1/"
   xmlns:cc="http://creativecommons.org/ns#"
   xmlns:rdf="http://www.w3.org/1999/02/22-rdf-syntax-ns#"
   xmlns:svg="http://www.w3.org/2000/svg"
   xmlns="http://www.w3.org/2000/svg"
   xmlns:sodipodi="http://sodipodi.sourceforge.net/DTD/sodipodi-0.dtd"
   xmlns:inkscape="http://www.inkscape.org/namespaces/inkscape"
   width="64"
   height="64"
   version="1.1"
   id="svg73"
   sodipodi:docname="org.xonotic.Xonotic.svg"
   inkscape:version="1.0.2 (e86c870879, 2021-01-15)">
  <metadata
     id="metadata77">
    <rdf:RDF>
      <cc:Work
         rdf:about="">
        <dc:format>image/svg+xml</dc:format>
        <dc:type
           rdf:resource="http://purl.org/dc/dcmitype/StillImage" />
        <dc:title />
      </cc:Work>
    </rdf:RDF>
  </metadata>
  <sodipodi:namedview
     pagecolor="#ffffff"
     bordercolor="#666666"
     borderopacity="1"
     objecttolerance="10"
     gridtolerance="10"
     guidetolerance="10"
     inkscape:pageopacity="0"
     inkscape:pageshadow="2"
     inkscape:window-width="1920"
     inkscape:window-height="996"
     id="namedview75"
     showgrid="false"
     inkscape:zoom="12.578125"
     inkscape:cx="32"
     inkscape:cy="25.639752"
     inkscape:window-x="0"
     inkscape:window-y="0"
     inkscape:window-maximized="1"
     inkscape:current-layer="svg73"
     inkscape:document-rotation="0" />
  <defs
     id="defs29">
    <linearGradient
       id="b"
       x1="399.57"
       x2="399.57"
       y1="545.8"
       y2="517.8"
       gradientTransform="matrix(2.1429,0,0,2.1429,-826.36,-1107.5)"
       gradientUnits="userSpaceOnUse">
      <stop
         stop-color="#3889e9"
         offset="0"
         id="stop2" />
      <stop
         stop-color="#5ea5fb"
         offset="1"
         id="stop4" />
    </linearGradient>
    <linearGradient
       id="linearGradient862"
       x1="7.9373"
       x2="7.9373"
       y1="15.081"
       y2="1.852"
       gradientTransform="matrix(3.3743 0 0 3.3743 3.4312 3.4278)"
       gradientUnits="userSpaceOnUse">
      <stop
         stop-color="#f1efeb"
         offset="0"
         id="stop7" />
      <stop
         stop-color="#fff"
         offset="1"
         id="stop9" />
    </linearGradient>
    <linearGradient
       id="linearGradient910"
       x1="7.9373"
       x2="7.9373"
       y1="15.081"
       y2="1.852"
       gradientTransform="scale(3.7796)"
       gradientUnits="userSpaceOnUse">
      <stop
         stop-color="#613583"
         offset="0"
         id="stop12" />
      <stop
         stop-color="#a663c0"
         offset="1"
         id="stop14" />
    </linearGradient>
    <linearGradient
       id="linearGradient932"
       x1="379.24"
       x2="374.24"
       y1="546.85"
       y2="546.85"
       gradientTransform="matrix(2.1429 0 0 2.1429 -769.68 -1134.5)"
       gradientUnits="userSpaceOnUse">
      <stop
         stop-color="#f6f5f4"
         offset="0"
         id="stop17" />
      <stop
         stop-color="#fff"
         offset=".6"
         id="stop19" />
      <stop
         stop-color="#dddbd8"
         offset="1"
         id="stop21" />
    </linearGradient>
    <linearGradient
       id="linearGradient1146"
       x1="18"
       x2="18"
       y1="52"
       y2="12"
       gradientUnits="userSpaceOnUse">
      <stop
         stop-color="#5e337f"
         offset="0"
         id="stop24" />
      <stop
         stop-color="#ab60bf"
         offset="1"
         id="stop26" />
    </linearGradient>
  </defs>
  <circle
     cx="32.02"
     cy="32.044"
     r="30.001"
     fill-opacity="0"
     stroke-width="1.5715"
     id="circle39" />
  <circle
     cx="32.02"
     cy="32.044"
     r="0"
     fill="url(#b)"
     stroke-width="1.5715"
     id="circle41" />
  <path
     style="fill:#29292a;stroke-width:1.17857"
     d="m 43.82986,14.755277 c -1.09401,0.06207 -2.307504,0.338499 -3.670623,0.774795 l -1.179923,-0.78847 -22.560678,14.78381 c 3.440729,-1.441051 6.317215,-2.122904 8.081236,-2.281093 l -5.825169,7.209575 4.525673,-2.710367 c -1.854488,5.642488 -4.036107,10.932629 -9.037808,13.344853 -0.02823,0.07086 -0.02908,0.153261 -0.05287,0.226193 3.808243,4.657887 8.968097,7.956156 14.840643,8.850083 l 3.2167,4.855743 0.123377,-0.03851 3.178802,-4.81706 C 41.661001,53.222332 47.07534,49.623978 50.931186,44.55929 50.732651,44.51494 50.529607,44.473055 50.258877,44.480441 43.134213,44.546961 37.41057,43.282952 36.72247,34.784724 36.537472,33.707969 36.379548,26.78422 46.874775,23.36423 c -1.058095,-0.744118 -4.579817,-0.795861 -7.08631,-0.803252 -0.108294,-1.012692 0.117311,-4.866341 8.214343,-5.356669 -1.270164,-1.335471 -2.348565,-2.552918 -4.173724,-2.449186 z m -6.763691,2.993228 c 0.518694,0.229026 0.585541,0.575115 0.678581,0.948062 -0.90473,0.190514 -2.179341,0.63664 -2.533564,0.129924 -0.162347,-0.174302 0.945225,-0.818309 1.863895,-1.063548 z"
     id="path6" />
  <path
     style="fill:#676767;stroke-width:1.17857"
     d="M 19.818405,2.3720438 C 9.7894288,7.2907998 2.8320284,18.016093 2.8320284,30.478516 c 0,17.122532 13.1282986,31.005801 29.3241136,31.005801 16.192434,0 29.319606,-13.885731 29.319606,-31.005801 0,-12.309205 -6.789139,-22.9295612 -16.616473,-27.9118699 L 44.55302,2.8883313 c 7.759016,4.6051754 12.412168,13.3669547 12.412168,23.4468577 0,13.53594 -9.249919,25.887024 -21.553822,27.759146 l -3.254727,4.926638 -3.259236,-4.926638 C 16.594175,52.222213 7.3435802,39.871129 7.3435802,26.335189 7.3435802,16.15035 12.111539,7.3159015 20.000248,2.7530944 19.947464,2.6311155 19.871201,2.4946427 19.816465,2.3643834"
     id="path10" />
</svg>
