<?xml version="1.0" encoding="UTF-8" standalone="no"?>
<svg
   xmlns:dc="http://purl.org/dc/elements/1.1/"
   xmlns:cc="http://creativecommons.org/ns#"
   xmlns:rdf="http://www.w3.org/1999/02/22-rdf-syntax-ns#"
   xmlns:svg="http://www.w3.org/2000/svg"
   xmlns="http://www.w3.org/2000/svg"
   xmlns:sodipodi="http://sodipodi.sourceforge.net/DTD/sodipodi-0.dtd"
   xmlns:inkscape="http://www.inkscape.org/namespaces/inkscape"
   width="64"
   height="64"
   version="1"
   id="svg26"
   sodipodi:docname="org.kde.kdenlive.svg"
   inkscape:version="1.0.2 (e86c870879, 2021-01-15)">
  <metadata
     id="metadata32">
    <rdf:RDF>
      <cc:Work
         rdf:about="">
        <dc:format>image/svg+xml</dc:format>
        <dc:type
           rdf:resource="http://purl.org/dc/dcmitype/StillImage" />
        <dc:title></dc:title>
      </cc:Work>
    </rdf:RDF>
  </metadata>
  <defs
     id="defs30" />
  <sodipodi:namedview
     pagecolor="#ffffff"
     bordercolor="#666666"
     borderopacity="1"
     objecttolerance="10"
     gridtolerance="10"
     guidetolerance="10"
     inkscape:pageopacity="0"
     inkscape:pageshadow="2"
     inkscape:window-width="1454"
     inkscape:window-height="942"
     id="namedview28"
     showgrid="false"
     inkscape:zoom="12.890625"
     inkscape:cx="32"
     inkscape:cy="13.381818"
     inkscape:window-x="0"
     inkscape:window-y="0"
     inkscape:window-maximized="0"
     inkscape:current-layer="svg26" />
  <path
     style="fill:#29292a;stroke-width:1.10612"
     d="m 31.248734,5.150443 0.08571,55.759685 h 4.302852 V 5.150443 Z"
     id="path8" />
  <path
     style="fill:#29292a;fill-rule:evenodd;stroke-width:1.10612"
     d="m 22.471614,14.071992 v 3.345582 h 4.38856 v -3.345582 z m -4.38856,6.691162 v 3.345582 h 8.77712 v -3.345582 z m -8.7771218,6.691163 v 3.34558 H 26.860174 v -3.34558 z M 4.9173721,34.145479 V 37.49106 H 26.860174 v -3.345581 z m 4.3885601,6.691163 v 3.34558 H 26.860174 v -3.34558 z m 8.7771218,6.691161 v 3.345582 h 8.77712 v -3.345582 z"
     id="path12" />
  <path
     style="fill:#29292a;stroke-width:1.10612"
     d="m 42.220137,2.9200556 h -8.777124 -8.777119 l 4.388561,6.6911622 4.388558,6.6911622 4.38856,-6.6911622 z"
     id="path16" />
  <path
     style="fill:#29292a;stroke-width:1.10612"
     d="m 41.732231,20.096094 c -0.808075,0.04429 -1.678194,0.7665 -1.676161,1.566752 L 40.02585,45.29017 c 0,1.067086 1.545123,1.995614 2.429022,1.36169 L 59.107883,34.79781 c 0.889671,-0.626089 0.887642,-2.094749 0,-2.723614 L 42.485767,20.301145 c -0.221875,-0.157086 -0.483514,-0.219671 -0.75299,-0.205039 z"
     id="path20" />
</svg>
