<?xml version="1.0" encoding="UTF-8" standalone="no"?>
<svg
   xmlns:dc="http://purl.org/dc/elements/1.1/"
   xmlns:cc="http://creativecommons.org/ns#"
   xmlns:rdf="http://www.w3.org/1999/02/22-rdf-syntax-ns#"
   xmlns:svg="http://www.w3.org/2000/svg"
   xmlns="http://www.w3.org/2000/svg"
   xmlns:sodipodi="http://sodipodi.sourceforge.net/DTD/sodipodi-0.dtd"
   xmlns:inkscape="http://www.inkscape.org/namespaces/inkscape"
   height="64"
   width="64"
   version="1.1"
   id="svg12"
   sodipodi:docname="org.dust3d.dust3d.svg"
   inkscape:version="1.0.2 (e86c870879, 2021-01-15)">
  <metadata
     id="metadata18">
    <rdf:RDF>
      <cc:Work
         rdf:about="">
        <dc:format>image/svg+xml</dc:format>
        <dc:type
           rdf:resource="http://purl.org/dc/dcmitype/StillImage" />
        <dc:title></dc:title>
      </cc:Work>
    </rdf:RDF>
  </metadata>
  <defs
     id="defs16" />
  <sodipodi:namedview
     pagecolor="#ffffff"
     bordercolor="#666666"
     borderopacity="1"
     objecttolerance="10"
     gridtolerance="10"
     guidetolerance="10"
     inkscape:pageopacity="0"
     inkscape:pageshadow="2"
     inkscape:window-width="1332"
     inkscape:window-height="922"
     id="namedview14"
     showgrid="false"
     inkscape:zoom="12.890625"
     inkscape:cx="32"
     inkscape:cy="32"
     inkscape:window-x="139"
     inkscape:window-y="176"
     inkscape:window-maximized="0"
     inkscape:current-layer="svg12" />
  <circle
     cx="32"
     cy="32"
     r="28"
     style="fill:#29292a"
     id="circle4" />
  <path
     style="fill:#ffffff;opacity:0.85"
     d="m46.923828 19.841797c-2.392578 0.095703-3.923828 3.158203-3.923828 3.158203s-0.830695-2.542326-3-2c-4 1-6.519898 3-10 3-13 0-15 6-15 6s-2 1-2 3 2 2 2 2 0 2 1 2c3 0 3.39746-0.457869 5 0 7 2 9 3 12 3s4-1 4-1l9.722656 16.792969a28 28 0 0 0 11.884766 -15.126953l-9.607422-11.666016-1-1s2.529822-7.156726 0-8c-0.375-0.125-0.734375-0.171875-1.076172-0.158203z"
     id="path10" />
</svg>
