<?xml version="1.0" encoding="UTF-8" standalone="no"?>
<svg
   xmlns:dc="http://purl.org/dc/elements/1.1/"
   xmlns:cc="http://creativecommons.org/ns#"
   xmlns:rdf="http://www.w3.org/1999/02/22-rdf-syntax-ns#"
   xmlns:svg="http://www.w3.org/2000/svg"
   xmlns="http://www.w3.org/2000/svg"
   xmlns:xlink="http://www.w3.org/1999/xlink"
   xmlns:sodipodi="http://sodipodi.sourceforge.net/DTD/sodipodi-0.dtd"
   xmlns:inkscape="http://www.inkscape.org/namespaces/inkscape"
   width="64"
   height="64"
   version="1.1"
   id="svg73"
   sodipodi:docname="org.gnome.Sudoku.svg"
   inkscape:version="1.0.2 (e86c870879, 2021-01-15)">
  <metadata
     id="metadata77">
    <rdf:RDF>
      <cc:Work
         rdf:about="">
        <dc:format>image/svg+xml</dc:format>
        <dc:type
           rdf:resource="http://purl.org/dc/dcmitype/StillImage" />
        <dc:title />
      </cc:Work>
    </rdf:RDF>
  </metadata>
  <sodipodi:namedview
     pagecolor="#ffffff"
     bordercolor="#666666"
     borderopacity="1"
     objecttolerance="10"
     gridtolerance="10"
     guidetolerance="10"
     inkscape:pageopacity="0"
     inkscape:pageshadow="2"
     inkscape:window-width="1920"
     inkscape:window-height="996"
     id="namedview75"
     showgrid="false"
     inkscape:zoom="12.578125"
     inkscape:cx="32"
     inkscape:cy="28.819876"
     inkscape:window-x="0"
     inkscape:window-y="0"
     inkscape:window-maximized="1"
     inkscape:current-layer="svg73"
     inkscape:document-rotation="0"
     showguides="false" />
  <defs
     id="defs29">
    <linearGradient
       id="b"
       x1="399.57"
       x2="399.57"
       y1="545.8"
       y2="517.8"
       gradientTransform="matrix(2.1429,0,0,2.1429,-826.36,-1107.5)"
       gradientUnits="userSpaceOnUse">
      <stop
         stop-color="#3889e9"
         offset="0"
         id="stop2" />
      <stop
         stop-color="#5ea5fb"
         offset="1"
         id="stop4" />
    </linearGradient>
    <linearGradient
       id="linearGradient862"
       x1="7.9373"
       x2="7.9373"
       y1="15.081"
       y2="1.852"
       gradientTransform="matrix(3.3743 0 0 3.3743 3.4312 3.4278)"
       gradientUnits="userSpaceOnUse">
      <stop
         stop-color="#f1efeb"
         offset="0"
         id="stop7" />
      <stop
         stop-color="#fff"
         offset="1"
         id="stop9" />
    </linearGradient>
    <linearGradient
       id="linearGradient910"
       x1="7.9373"
       x2="7.9373"
       y1="15.081"
       y2="1.852"
       gradientTransform="scale(3.7796)"
       gradientUnits="userSpaceOnUse">
      <stop
         stop-color="#613583"
         offset="0"
         id="stop12" />
      <stop
         stop-color="#a663c0"
         offset="1"
         id="stop14" />
    </linearGradient>
    <linearGradient
       id="linearGradient932"
       x1="379.24"
       x2="374.24"
       y1="546.85"
       y2="546.85"
       gradientTransform="matrix(2.1429 0 0 2.1429 -769.68 -1134.5)"
       gradientUnits="userSpaceOnUse">
      <stop
         stop-color="#f6f5f4"
         offset="0"
         id="stop17" />
      <stop
         stop-color="#fff"
         offset=".6"
         id="stop19" />
      <stop
         stop-color="#dddbd8"
         offset="1"
         id="stop21" />
    </linearGradient>
    <linearGradient
       id="linearGradient1146"
       x1="18"
       x2="18"
       y1="52"
       y2="12"
       gradientUnits="userSpaceOnUse">
      <stop
         stop-color="#5e337f"
         offset="0"
         id="stop24" />
      <stop
         stop-color="#ab60bf"
         offset="1"
         id="stop26" />
    </linearGradient>
    <linearGradient
       id="a"
       x1="409.57001"
       x2="409.94"
       y1="542.79999"
       y2="504.19"
       gradientTransform="matrix(0.54543,0,0,0.5294,-200.85,-251.83)"
       gradientUnits="userSpaceOnUse"
       xlink:href="#f" />
    <linearGradient
       id="f"
       x1="409.57001"
       x2="409.94"
       y1="542.79999"
       y2="504.19"
       gradientTransform="matrix(0.54543,0,0,0.5294,-200.12,-253.45)"
       gradientUnits="userSpaceOnUse">
      <stop
         stop-color="#86d0fb"
         offset="0"
         id="stop7-3" />
      <stop
         stop-color="#2794f5"
         offset="1"
         id="stop9-6" />
    </linearGradient>
    <linearGradient
       id="g"
       x1="409.57001"
       x2="409.94"
       y1="542.79999"
       y2="504.19"
       gradientTransform="matrix(0.54543,0,0,0.35293,-190.78,-141.22)"
       gradientUnits="userSpaceOnUse"
       xlink:href="#f" />
    <linearGradient
       id="d"
       x1="409.57001"
       x2="409.94"
       y1="542.79999"
       y2="504.19"
       gradientTransform="matrix(0.40907,0,0,0.5294,-121.14,-251.83)"
       gradientUnits="userSpaceOnUse"
       xlink:href="#f" />
  </defs>
  <circle
     cx="32.02"
     cy="32.044"
     r="30.001"
     fill-opacity="0"
     stroke-width="1.5715"
     id="circle39" />
  <circle
     cx="32.02"
     cy="32.044"
     r="0"
     fill="url(#b)"
     stroke-width="1.5715"
     id="circle41" />
  <path
     style="fill:#29292a;stroke-width:1.04323"
     d="M 20.522388,4.0211117 V 20.697075 H 3.8149598 V 22.78157 H 20.522388 V 41.542031 H 3.8149598 v 2.084495 H 20.522388 V 60.30249 h 2.088427 V 43.626526 H 41.406672 V 60.30249 H 43.4951 V 43.626526 H 60.202527 V 41.542031 H 43.4951 V 22.78157 H 60.202527 V 20.697075 H 43.4951 V 4.0211117 H 41.406672 V 20.697075 H 22.610815 V 4.0211117 Z"
     id="path6" />
  <path
     style="fill:#29292a;stroke-width:1.04323"
     d="m 52.354605,6.1056064 c -0.399097,0 -0.916606,0.036199 -1.415982,0.1081732 -0.499355,0.071905 -0.981304,0.1805821 -1.304103,0.3245404 -0.633862,0.2763964 -1.195689,0.615904 -1.688691,1.0189825 l 0.828612,1.018984 c 0.481268,-0.3685291 0.951203,-0.6581396 1.408991,-0.8654384 0.457789,-0.2072972 1.549051,-0.3105807 2.171173,-0.3105807 0.328667,0 0.627996,0.046839 0.895039,0.1360951 0.267576,0.089724 0.504325,0.2228067 0.709742,0.4013119 0.410833,0.3454969 0.61534,0.8559786 0.61534,1.5354549 0,0.5643107 -0.112601,1.0782817 -0.335641,1.5389437 -0.223026,0.460661 -0.557377,0.929621 -1.003424,1.413315 -0.434313,0.483694 -0.961682,1.039187 -1.583805,1.661083 l -3.845876,3.262842 v 1.263259 h 8.310594 v -1.381908 h -6.356189 v -0.0698 l 3.178094,-2.536982 c 0.645599,-0.610376 1.207425,-1.19204 1.68869,-1.744833 0.481265,-0.552795 0.855816,-1.110729 1.125793,-1.675041 0.269972,-0.564314 0.405564,-1.173191 0.405564,-1.8181166 0,-0.5067286 -0.08501,-0.9572812 -0.255224,-1.3574811 C 55.733103,7.6282137 55.478028,7.282165 55.137624,6.9884924 54.966818,6.8411378 54.780059,6.7115262 54.578221,6.6011401 54.37792,6.4913059 54.162304,6.3988795 53.931415,6.3254562 h -0.0036 C 53.696163,6.2519041 53.452794,6.1982565 53.190161,6.1614419 52.927649,6.124735 52.648009,6.1056121 52.354557,6.1056121 Z"
     id="path10" />
  <path
     style="fill:#29292a;stroke-width:1.04323"
     d="m 11.99526,45.711022 c -0.817638,0 -1.537501,0.166093 -2.1536923,0.495532 -0.6043407,0.329447 -1.0702025,0.799864 -1.4019976,1.413316 -0.331795,0.613452 -0.4999625,1.342986 -0.4999625,2.195002 0,1.170099 0.3363419,2.077894 0.9999274,2.725433 0.6754386,0.636171 1.556478,0.956167 2.646663,0.956167 0.770236,0 1.398638,-0.135641 1.88448,-0.408291 0.485843,-0.284006 0.863738,-0.61878 1.136284,-1.005025 h 0.104884 c -0.0237,0.65889 -0.106045,1.289314 -0.248235,1.891402 -0.142197,0.590731 -0.368817,1.112452 -0.688762,1.566861 -0.319944,0.443046 -0.755514,0.796078 -1.300607,1.057368 -0.53324,0.261281 -1.212325,0.390843 -2.04181,0.390844 -0.5806404,-1e-6 -1.1041793,-0.07565 -1.5663217,-0.22334 v 1.280712 c 0.1895968,0.05678 0.4422379,0.09593 0.7621833,0.118647 0.3199501,0.03406 0.6021054,0.05234 0.8391014,0.05234 1.196831,0 2.174967,-0.201718 2.933356,-0.610693 0.770237,-0.408968 1.361358,-0.958531 1.776097,-1.640143 0.426593,-0.692975 0.713025,-1.455547 0.86707,-2.296204 0.165904,-0.852014 0.25173,-1.71809 0.25173,-2.592823 0,-1.215542 -0.190695,-2.213771 -0.56989,-2.997625 -0.379192,-0.795235 -0.890108,-1.386506 -1.541847,-1.772752 -0.65174,-0.397609 -1.382866,-0.596734 -2.188653,-0.596734 z m 0,1.26326 c 0.604341,0 1.107487,0.156505 1.510381,0.474594 0.402892,0.318086 0.704084,0.716336 0.905529,1.193467 0.201448,0.477129 0.300678,0.959725 0.300678,1.448214 0,0.363526 -0.116115,0.716563 -0.353122,1.057368 -0.225147,0.340808 -0.543229,0.624276 -0.957973,0.85148 -0.414744,0.215845 -0.906628,0.321054 -1.475419,0.321051 -0.829487,0 -1.45012,-0.219991 -1.853013,-0.663038 -0.3910434,-0.454409 -0.5838756,-1.072648 -0.5838756,-1.856505 0,-0.954255 0.2336127,-1.662929 0.6957556,-2.128697 0.473993,-0.465767 1.076371,-0.697934 1.811059,-0.697934 z"
     id="path12" />
  <path
     style="opacity:0.85;fill:#ffffff;stroke-width:1.04323"
     d="m 32.800062,24.866067 c -0.995337,0 -2.21006,0.144059 -2.998038,0.435627 -0.774151,0.291562 -1.428501,0.64059 -1.953822,1.038176 l 0.913687,1.188814 c 0.552966,-0.344575 1.113747,-0.62967 1.680533,-0.854968 0.566791,-0.22531 1.576236,-0.333846 2.378036,-0.333846 0.829447,0 1.486295,0.18973 1.970137,0.574051 0.483843,0.371084 0.726056,0.902715 0.726056,1.591871 0,0.808425 -0.318571,1.455718 -0.954478,1.946072 -0.622083,0.49036 -1.867174,0.895682 -3.083694,0.895682 h -0.51395 v 1.331307 h 0.493555 c 1.313289,0 2.328131,0.200884 3.046984,0.598479 0.732677,0.384331 1.10132,1.017415 1.10132,1.905359 0,0.874695 -0.298854,1.564598 -0.893292,2.06821 -0.58061,0.490359 -1.532241,0.732831 -2.859354,0.732831 -0.663555,0 -1.357335,-0.0771 -2.076189,-0.236134 -0.718854,-0.159025 -1.388845,-0.391373 -2.01093,-0.696189 v 1.628511 c 0.608261,0.291567 1.245398,0.492457 1.908953,0.598477 0.663561,0.11928 1.37954,0.179143 2.153693,0.179143 1.31329,0 2.384776,-0.179579 3.214222,-0.537409 0.843272,-0.35783 1.467264,-0.853949 1.868165,-1.490088 0.400896,-0.636141 0.599608,-1.3717 0.599608,-2.206635 0,-0.940959 -0.294779,-1.70086 -0.889215,-2.283988 -0.580612,-0.583132 -1.459959,-0.942295 -2.635007,-1.074822 v -0.08142 c 0.926214,-0.185541 1.992308,-0.554839 2.545272,-1.11146 0.566788,-0.569875 0.852502,-1.333848 0.852502,-2.288059 0,-1.020475 -0.381784,-1.861549 -1.142109,-2.524195 -0.7465,-0.66264 -1.894348,-0.993397 -3.442645,-0.993397 z"
     id="path14" />
</svg>
