<?xml version="1.0" encoding="UTF-8" standalone="no"?>
<svg
   xmlns:dc="http://purl.org/dc/elements/1.1/"
   xmlns:cc="http://creativecommons.org/ns#"
   xmlns:rdf="http://www.w3.org/1999/02/22-rdf-syntax-ns#"
   xmlns:svg="http://www.w3.org/2000/svg"
   xmlns="http://www.w3.org/2000/svg"
   xmlns:sodipodi="http://sodipodi.sourceforge.net/DTD/sodipodi-0.dtd"
   xmlns:inkscape="http://www.inkscape.org/namespaces/inkscape"
   width="64"
   height="64"
   version="1"
   id="svg34"
   sodipodi:docname="org.gnome.ArchiveManager.svg"
   inkscape:version="1.0.2 (e86c870879, 2021-01-15)">
  <metadata
     id="metadata40">
    <rdf:RDF>
      <cc:Work
         rdf:about="">
        <dc:format>image/svg+xml</dc:format>
        <dc:type
           rdf:resource="http://purl.org/dc/dcmitype/StillImage" />
        <dc:title />
      </cc:Work>
    </rdf:RDF>
  </metadata>
  <defs
     id="defs38" />
  <sodipodi:namedview
     pagecolor="#ffffff"
     bordercolor="#666666"
     borderopacity="1"
     objecttolerance="10"
     gridtolerance="10"
     guidetolerance="10"
     inkscape:pageopacity="0"
     inkscape:pageshadow="2"
     inkscape:window-width="1487"
     inkscape:window-height="840"
     id="namedview36"
     showgrid="false"
     inkscape:zoom="12.890625"
     inkscape:cx="32"
     inkscape:cy="25.793939"
     inkscape:window-x="433"
     inkscape:window-y="156"
     inkscape:window-maximized="0"
     inkscape:current-layer="svg34"
     inkscape:document-rotation="0" />
  <rect
     style="opacity:0.2"
     width="56"
     height="56"
     x="4"
     y="5"
     rx="5.6"
     ry="5.6"
     id="rect2" />
  <rect
     style="fill:#29292a"
     width="56"
     height="56"
     x="4"
     y="4"
     rx="5.6"
     ry="5.6"
     id="rect4" />
  <rect
     style="fill:#ffffff;opacity:0.85"
     width="3"
     height="3"
     x="31"
     y="4"
     id="rect8" />
  <rect
     style="fill:#ffffff;opacity:0.85"
     width="3"
     height="3"
     x="28"
     y="25"
     id="rect10" />
  <path
     style="fill:#676767"
     d="m 31,25 c 3.75,0 3.75,5.6 5,5.6 v 7 c 0,0.7756 -0.5575,1.4 -1.25,1.4 h -7.5 C 26.5575,39 26,38.3756 26,37.6 v -7 c 1.25,0 1.25,-5.6 5,-5.6 z"
     id="path12" />
  <path
     style="fill:#e6e6e6;opacity:1"
     d="M 30.667969,31 C 28.082636,31 26,33.102725 26,35.710938 v 9.578124 C 26,47.897276 28.082636,50 30.667969,50 h 0.664062 C 33.917364,50 36,47.897277 36,45.289062 V 35.710938 C 36,33.102725 33.917364,31 31.332031,31 Z M 31,41 c 2.209139,4e-6 4,1.792881 4,4.001953 C 35,47.211026 33.209139,49 31,49 28.790861,49 27,47.211026 27,45.001953 27,42.792881 28.790861,41.000004 31,41 Z"
     id="path16" />
  <path
     style="fill:#909090"
     d="M 30.984375,27.000122 A 1.0001,0.99660733 0 0 0 30,28.010254 V 33.9893 a 1.0001,0.99660733 0 1 0 2,0 v -5.979046 a 1.0001,0.99660733 0 0 0 -1.015625,-1.010132 z"
     id="path18" />
  <rect
     style="fill:#ffffff;opacity:0.85"
     width="3"
     height="3"
     x="28"
     y="7"
     id="rect20" />
  <rect
     style="fill:#ffffff;opacity:0.85"
     width="3"
     height="3"
     x="31"
     y="10"
     id="rect22" />
  <rect
     style="fill:#ffffff;opacity:0.85"
     width="3"
     height="3"
     x="28"
     y="13"
     id="rect24" />
  <rect
     style="fill:#ffffff;opacity:0.85"
     width="3"
     height="3"
     x="31"
     y="16"
     id="rect26" />
  <rect
     style="fill:#ffffff;opacity:0.85"
     width="3"
     height="3"
     x="28"
     y="19"
     id="rect28" />
  <rect
     style="fill:#ffffff;opacity:0.85"
     width="3"
     height="3"
     x="31"
     y="22"
     id="rect30" />
</svg>
