<?xml version="1.0" encoding="UTF-8" standalone="no"?>
<svg
   xmlns:dc="http://purl.org/dc/elements/1.1/"
   xmlns:cc="http://creativecommons.org/ns#"
   xmlns:rdf="http://www.w3.org/1999/02/22-rdf-syntax-ns#"
   xmlns:svg="http://www.w3.org/2000/svg"
   xmlns="http://www.w3.org/2000/svg"
   xmlns:sodipodi="http://sodipodi.sourceforge.net/DTD/sodipodi-0.dtd"
   xmlns:inkscape="http://www.inkscape.org/namespaces/inkscape"
   width="64"
   height="64"
   version="1.1"
   id="svg36"
   sodipodi:docname="org.gimp.GIMP.svg"
   inkscape:version="1.0.2 (e86c870879, 2021-01-15)">
  <metadata
     id="metadata42">
    <rdf:RDF>
      <cc:Work
         rdf:about="">
        <dc:format>image/svg+xml</dc:format>
        <dc:type
           rdf:resource="http://purl.org/dc/dcmitype/StillImage" />
        <dc:title />
      </cc:Work>
    </rdf:RDF>
  </metadata>
  <defs
     id="defs40" />
  <sodipodi:namedview
     pagecolor="#ffffff"
     bordercolor="#666666"
     borderopacity="1"
     objecttolerance="10"
     gridtolerance="10"
     guidetolerance="10"
     inkscape:pageopacity="0"
     inkscape:pageshadow="2"
     inkscape:window-width="1920"
     inkscape:window-height="996"
     id="namedview38"
     showgrid="false"
     inkscape:zoom="12.890625"
     inkscape:cx="32"
     inkscape:cy="32"
     inkscape:window-x="0"
     inkscape:window-y="0"
     inkscape:window-maximized="1"
     inkscape:current-layer="svg36"
     inkscape:document-rotation="0" />
  <path
     style="fill:#29292a;fill-rule:evenodd"
     d="M 54.197711,6.0122063 C 53.74834,5.9406823 53.344625,6.1945944 53.101923,6.4836971 52.859224,6.7729431 52.690825,7.1312821 52.544173,7.5828893 52.29055,8.3643687 51.359126,11.265127 48.000462,14.132122 44.641797,16.999265 38.849904,21.741367 28.811529,22 c -6.104,0.07152 -9.813821,-3.546121 -12.24783,-8.369033 -0.607444,-1.20362 -1.563684,-3.446634 -1.563684,-2.01943 v 2.206682 l -0.031,11.42064 0.06197,0.150345 c 0,0 0.546833,1.21635 -0.03099,2.855126 -0.577822,1.638916 -3.285157,4.030541 -8.3774517,5.561026 L 6,33.990606 6.1183106,34.64706 c 0.282455,1.590281 1.4083374,3.220187 3.0704548,4.888858 1.6621176,1.66853 3.8875446,3.356657 6.4789406,4.882852 5.182794,3.05239 11.820986,5.464489 18.270616,5.577212 6.449628,0.113015 12.760001,-2.145456 16.935389,-8.400579 4.17539,-6.254983 6.211706,-18.192671 4.543709,-33.7405766 h -0.0029 C 55.361571,7.4279668 55.267549,7.0634769 55.099129,6.7440473 54.930708,6.4247608 54.647082,6.0950317 54.197711,6.0237932 Z"
     id="path4" />
  <path
     style="fill:#ffffff;fill-rule:evenodd;opacity:1"
     d="M 20.998703,21 C 19.266976,21 17.526547,21.57246 16.20152,22.750281 14.876491,23.928099 14,25.723039 14,28.001261 14,30.27948 14.876491,32.0719 16.20152,33.24972 17.526547,34.427541 19.266976,35 20.998703,35 22.730432,35 24.470861,34.427541 25.795889,33.24972 27.120919,32.0719 28,30.27948 28,28.001261 28,25.723039 27.120919,23.928099 25.795889,22.750281 24.470861,21.57246 22.730432,21 20.998703,21 Z"
     id="path12" />
  <path
     style="fill:#29292a;fill-rule:evenodd"
     d="m 21.999999,26.000001 c -0.735109,0 -1.478265,0.243 -2.050782,0.751919 C 19.376704,27.260841 19,28.044681 19,29 c 0,0.955321 0.376704,1.739161 0.949217,2.248082 C 20.521734,31.757 21.26489,32 21.999999,32 22.735109,32 23.478265,31.757 24.05078,31.248082 24.623296,30.739161 25,29.955321 25,29 25,28.044681 24.623296,27.260841 24.05078,26.75192 23.478265,26.243001 22.735109,26.000001 21.999999,26.000001 Z"
     id="path14" />
  <path
     style="opacity:0.85;fill-rule:evenodd;fill:#f9f9f9"
     d="m 20,41.389583 c 2.743077,0 5.243866,0.140026 7.512178,0 3.768146,-0.236895 7.080382,-0.654103 8.754968,-1.96557 -0.708335,-0.927896 -0.9059,-1.945753 -0.9059,-1.945753 0,0 2.130702,0.885916 3.237509,2.33493 1.103637,1.444972 -0.388469,2.33519 -0.6773,4.183942 -0.642997,-1.623721 -1.044918,-2.232713 -1.207403,-2.877952 -1.168626,1.638584 -3.181511,2.813806 -5.888856,2.877952 -2.881782,0.06779 -6.550399,-1.074049 -10.825195,-2.604941 z"
     id="path16" />
  <path
     style="fill:#29292a;fill-rule:evenodd"
     d="m 7.9652917,23.999998 c -0.3549789,0 -0.7030886,0.02125 -1.0414678,0.07366 -0.902344,0.138834 -1.7378042,0.471467 -2.4580876,0.976084 -2.8811334,2.01861 -3.63990819,6.593456 -0.081191,11.384059 3.5587193,4.790745 8.2670507,5.534213 11.1481837,3.515604 2.881134,-2.018611 3.64271,-6.593457 0.08399,-11.384061 -2.335406,-3.143869 -5.166573,-4.543961 -7.6514243,-4.565069 z"
     id="path20" />
  <path
     style="fill:#ffffff;fill-rule:evenodd;opacity:1"
     d="m 32.998703,20.999999 c -1.731727,0 -3.472157,0.57246 -4.797184,1.750281 C 26.87649,23.928098 26,25.723039 26,28.00126 c 0,2.27822 0.87649,4.07064 2.201519,5.24846 C 29.526546,34.427541 31.266976,35 32.998703,35 34.730432,35 36.470861,34.427541 37.79589,33.24972 39.120918,32.0719 40,30.27948 40,28.00126 40,25.723039 39.120918,23.928098 37.79589,22.75028 36.470861,21.572459 34.730432,20.999999 32.998703,20.999999 Z"
     id="path22" />
  <path
     style="fill:#29292a;fill-rule:evenodd"
     d="m 34,26.000001 c -0.735109,0 -1.478265,0.243 -2.050781,0.75192 C 31.376704,27.260841 31,28.044681 31,29 c 0,0.955321 0.376704,1.739161 0.949219,2.248081 C 32.521735,31.757 33.264891,32 34,32 34.735109,32 35.478265,31.757 36.050781,31.248081 36.623296,30.739161 37,29.955321 37,29 37,28.044681 36.623296,27.260841 36.050781,26.751921 35.478265,26.243001 34.735109,26.000001 34,26.000001 Z"
     id="path24" />
  <path
     style="fill:#29292a"
     d="m 48.914487,49.391875 1.20834,-2.406359 C 45.627615,43.696818 37.235631,40.359634 37.235631,40.359634 l -1.322293,0.726895 c 0,0 7.619357,6.757871 13.001149,8.305346 z"
     id="path28" />
  <path
     style="fill:#29292a"
     d="m 48.956523,44.956566 -0.630097,0.414375 c -0.583609,0.319446 -1.057092,0.862398 -1.441141,1.490336 -0.439456,1.032279 -0.612994,1.677807 -0.537458,2.686371 l 0.913044,-0.156343 c 0,0 4.76729,1.367658 7.024072,2.086956 l 0.263985,-0.508551 0.929334,-1.798762 -6.521739,-3.341006 z"
     id="path30" />
  <path
     style="fill:#29292a"
     d="m 62,58 c -1.603267,-5.209178 -2.171913,-9.345252 -6.361777,-8.977205 -3.37645,0.296597 -3.612833,4.927287 -0.123777,6.205111 C 58.875515,56.458855 61.999996,58 61.999996,58 Z"
     id="path32" />
</svg>
