<?xml version="1.0" encoding="UTF-8" standalone="no"?>
<svg
   xmlns:dc="http://purl.org/dc/elements/1.1/"
   xmlns:cc="http://creativecommons.org/ns#"
   xmlns:rdf="http://www.w3.org/1999/02/22-rdf-syntax-ns#"
   xmlns:svg="http://www.w3.org/2000/svg"
   xmlns="http://www.w3.org/2000/svg"
   xmlns:sodipodi="http://sodipodi.sourceforge.net/DTD/sodipodi-0.dtd"
   xmlns:inkscape="http://www.inkscape.org/namespaces/inkscape"
   width="64"
   height="64"
   version="1.1"
   id="svg73"
   sodipodi:docname="org.atheme.audacious.svg"
   inkscape:version="1.0.2 (e86c870879, 2021-01-15)">
  <metadata
     id="metadata77">
    <rdf:RDF>
      <cc:Work
         rdf:about="">
        <dc:format>image/svg+xml</dc:format>
        <dc:type
           rdf:resource="http://purl.org/dc/dcmitype/StillImage" />
        <dc:title></dc:title>
      </cc:Work>
    </rdf:RDF>
  </metadata>
  <sodipodi:namedview
     pagecolor="#ffffff"
     bordercolor="#666666"
     borderopacity="1"
     objecttolerance="10"
     gridtolerance="10"
     guidetolerance="10"
     inkscape:pageopacity="0"
     inkscape:pageshadow="2"
     inkscape:window-width="1920"
     inkscape:window-height="996"
     id="namedview75"
     showgrid="false"
     inkscape:zoom="12.578125"
     inkscape:cx="32"
     inkscape:cy="28.819876"
     inkscape:window-x="0"
     inkscape:window-y="0"
     inkscape:window-maximized="1"
     inkscape:current-layer="svg73"
     inkscape:document-rotation="0" />
  <defs
     id="defs29">
    <linearGradient
       id="b"
       x1="399.57"
       x2="399.57"
       y1="545.8"
       y2="517.8"
       gradientTransform="matrix(2.1429,0,0,2.1429,-826.36,-1107.5)"
       gradientUnits="userSpaceOnUse">
      <stop
         stop-color="#3889e9"
         offset="0"
         id="stop2" />
      <stop
         stop-color="#5ea5fb"
         offset="1"
         id="stop4" />
    </linearGradient>
    <linearGradient
       id="linearGradient862"
       x1="7.9373"
       x2="7.9373"
       y1="15.081"
       y2="1.852"
       gradientTransform="matrix(3.3743 0 0 3.3743 3.4312 3.4278)"
       gradientUnits="userSpaceOnUse">
      <stop
         stop-color="#f1efeb"
         offset="0"
         id="stop7" />
      <stop
         stop-color="#fff"
         offset="1"
         id="stop9" />
    </linearGradient>
    <linearGradient
       id="linearGradient910"
       x1="7.9373"
       x2="7.9373"
       y1="15.081"
       y2="1.852"
       gradientTransform="scale(3.7796)"
       gradientUnits="userSpaceOnUse">
      <stop
         stop-color="#613583"
         offset="0"
         id="stop12" />
      <stop
         stop-color="#a663c0"
         offset="1"
         id="stop14" />
    </linearGradient>
    <linearGradient
       id="linearGradient932"
       x1="379.24"
       x2="374.24"
       y1="546.85"
       y2="546.85"
       gradientTransform="matrix(2.1429 0 0 2.1429 -769.68 -1134.5)"
       gradientUnits="userSpaceOnUse">
      <stop
         stop-color="#f6f5f4"
         offset="0"
         id="stop17" />
      <stop
         stop-color="#fff"
         offset=".6"
         id="stop19" />
      <stop
         stop-color="#dddbd8"
         offset="1"
         id="stop21" />
    </linearGradient>
    <linearGradient
       id="linearGradient1146"
       x1="18"
       x2="18"
       y1="52"
       y2="12"
       gradientUnits="userSpaceOnUse">
      <stop
         stop-color="#5e337f"
         offset="0"
         id="stop24" />
      <stop
         stop-color="#ab60bf"
         offset="1"
         id="stop26" />
    </linearGradient>
    <linearGradient
       id="linearGradient909"
       x1="318.56"
       x2="338.95001"
       y1="43.832001"
       y2="38.408001"
       gradientTransform="matrix(0.12734,0,0,0.12734,-12.938,-0.11116)"
       gradientUnits="userSpaceOnUse">
      <stop
         stop-color="#f4587a"
         offset="0"
         id="stop2-3" />
      <stop
         stop-color="#f15c7c"
         offset="1"
         id="stop4-6" />
    </linearGradient>
    <linearGradient
       id="linearGradient901"
       x1="338.66"
       x2="361.42001"
       y1="39.82"
       y2="35.209999"
       gradientTransform="matrix(0.12734,0,0,0.12734,-12.938,-0.11116)"
       gradientUnits="userSpaceOnUse">
      <stop
         stop-color="#f05c7c"
         offset="0"
         id="stop7-7" />
      <stop
         stop-color="#e4618a"
         offset="1"
         id="stop9-5" />
    </linearGradient>
    <linearGradient
       id="linearGradient921"
       x1="353.23999"
       x2="349.17001"
       y1="92.658997"
       y2="47.787998"
       gradientTransform="matrix(0.12734,0,0,0.12734,-12.938,-0.11116)"
       gradientUnits="userSpaceOnUse">
      <stop
         stop-color="#49abf5"
         offset="0"
         id="stop12-3" />
      <stop
         stop-color="#4daaf6"
         offset=".30243"
         id="stop14-5" />
      <stop
         stop-color="#7f85e1"
         offset=".56559"
         id="stop16" />
      <stop
         stop-color="#ba6ab8"
         offset=".797"
         id="stop18" />
      <stop
         stop-color="#d4629f"
         stop-opacity="0"
         offset="1"
         id="stop20" />
    </linearGradient>
    <linearGradient
       id="linearGradient937"
       x1="337.89001"
       x2="346.87"
       y1="97.453003"
       y2="90.166"
       gradientTransform="matrix(0.12734,0,0,0.12734,-12.938,-0.11116)"
       gradientUnits="userSpaceOnUse">
      <stop
         stop-color="#5793fa"
         offset="0"
         id="stop23" />
      <stop
         stop-color="#5793fa"
         stop-opacity="0"
         offset="1"
         id="stop25" />
    </linearGradient>
    <linearGradient
       id="linearGradient949"
       x1="311.51001"
       x2="324.03"
       y1="107.02"
       y2="54.408001"
       gradientTransform="matrix(0.12734,0,0,0.12734,-12.938,-0.11116)"
       gradientUnits="userSpaceOnUse">
      <stop
         stop-color="#8763fe"
         offset="0"
         id="stop28" />
      <stop
         stop-color="#7e68fe"
         offset=".18737"
         id="stop30" />
      <stop
         stop-color="#7d69fd"
         offset=".3063"
         id="stop32" />
      <stop
         stop-color="#8b61f4"
         offset=".55285"
         id="stop34" />
      <stop
         stop-color="#a359df"
         offset=".7102"
         id="stop36" />
      <stop
         stop-color="#c754c0"
         offset=".87118"
         id="stop38" />
      <stop
         stop-color="#de549e"
         stop-opacity="0"
         offset="1"
         id="stop40" />
    </linearGradient>
  </defs>
  <circle
     cx="32.02"
     cy="32.044"
     r="30.001"
     fill-opacity="0"
     stroke-width="1.5715"
     id="circle39" />
  <circle
     cx="32.02"
     cy="32.044"
     r="0"
     fill="url(#b)"
     stroke-width="1.5715"
     id="circle41" />
  <g
     transform="matrix(5.8322275,0,0,5.7870816,-136.80383,-15.747834)"
     id="g87"
     style="fill:#29292a">
    <path
       d="m 30.085,3.6556 -2.4419,0.48227 c -0.39122,0.08363 -0.46709,0.30195 -0.45785,0.6471 l 0.0061,5.3874 c -0.01778,0.37865 -0.05888,0.58656 -0.49448,0.65625 -1.5416,0.22946 -1.8408,0.70696 -1.8314,1.3858 0.0093,0.67603 0.55728,1.2177 1.3125,1.1416 0.66234,-0.07367 1.1558,-0.26648 1.459,-0.87907 0.11739,-0.23073 0.15723,-0.71067 0.1282,-1.1965 l -0.0061,-4.2855 c 0.0013,-0.29999 -0.04958,-0.46698 0.34797,-0.54942 l 2.393,-0.48227 z"
       fill="url(#linearGradient909)"
       id="path77"
       style="fill:#29292a" />
    <path
       d="m 32.264,5.9693 0.0061,3.2019 c -0.01778,0.37865 -0.05456,0.55203 -0.49016,0.62172 -1.5416,0.22946 -1.8451,0.7415 -1.8357,1.4203 0.0093,0.67603 0.56591,1.1832 1.3212,1.107 0.66234,-0.07367 1.1385,-0.24489 1.4418,-0.85749 0.11739,-0.23073 0.12701,-0.68908 0.13683,-1.1836 l -0.0041,-6.5559 C 32.83975,3.23161 32.72813,3.10482 32.16869,3.23127 l -2.3966,0.48637 0.42722,2.3056 1.7214,-0.3472 c 0.23106,-0.046603 0.33986,0.032458 0.34338,0.29311 z"
       fill="url(#linearGradient901)"
       id="path79"
       style="fill:#29292a" />
    <path
       d="m 32.264,5.9693 0.0061,3.2019 c -0.01778,0.37865 -0.05456,0.55203 -0.49016,0.62172 -1.5416,0.22946 -1.8451,0.7415 -1.8357,1.4203 0.0093,0.67603 0.56591,1.1832 1.3212,1.107 0.66234,-0.07367 1.1385,-0.24489 1.4418,-0.85749 0.11739,-0.23073 0.12701,-0.68908 0.13683,-1.1836 l -0.0041,-6.5559 C 32.83975,3.23161 32.72813,3.10482 32.16869,3.23127 l -2.3966,0.48637 0.42722,2.3056 1.7214,-0.3472 c 0.23106,-0.046603 0.33986,0.032458 0.34338,0.29311 z"
       fill="url(#linearGradient921)"
       id="path81"
       style="fill:#29292a" />
    <path
       d="m 32.264,5.9693 0.0061,3.2019 c -0.01778,0.37865 -0.05456,0.55203 -0.49016,0.62172 -1.5416,0.22946 -1.8451,0.7415 -1.8357,1.4203 0.0093,0.67603 0.56591,1.1832 1.3212,1.107 0.66234,-0.07367 1.1385,-0.24489 1.4418,-0.85749 0.11739,-0.23073 0.12701,-0.68908 0.13683,-1.1836 l -0.0041,-6.5559 C 32.83975,3.23161 32.72813,3.10482 32.16869,3.23127 l -2.3966,0.48637 0.42722,2.3056 1.7214,-0.3472 c 0.23106,-0.046603 0.33986,0.032458 0.34338,0.29311 z"
       fill="url(#linearGradient937)"
       id="path83"
       style="fill:#29292a" />
    <path
       d="m 30.085,3.6556 -2.4419,0.48227 c -0.39122,0.08363 -0.46709,0.30195 -0.45785,0.6471 l 0.0061,5.3874 c -0.01778,0.37865 -0.05888,0.58656 -0.49448,0.65625 -1.5416,0.22946 -1.8408,0.70696 -1.8314,1.3858 0.0093,0.67603 0.55728,1.2177 1.3125,1.1416 0.66234,-0.07367 1.1558,-0.26648 1.459,-0.87907 0.11739,-0.23073 0.15723,-0.71067 0.1282,-1.1965 l -0.0061,-4.2855 c 0.0013,-0.29999 -0.04958,-0.46698 0.34797,-0.54942 l 2.393,-0.48227 z"
       fill="url(#linearGradient949)"
       id="path85"
       style="fill:#29292a" />
  </g>
</svg>
