<?xml version="1.0" encoding="UTF-8" standalone="no"?>
<svg
   xmlns:dc="http://purl.org/dc/elements/1.1/"
   xmlns:cc="http://creativecommons.org/ns#"
   xmlns:rdf="http://www.w3.org/1999/02/22-rdf-syntax-ns#"
   xmlns:svg="http://www.w3.org/2000/svg"
   xmlns="http://www.w3.org/2000/svg"
   xmlns:sodipodi="http://sodipodi.sourceforge.net/DTD/sodipodi-0.dtd"
   xmlns:inkscape="http://www.inkscape.org/namespaces/inkscape"
   width="64"
   height="64"
   version="1.1"
   id="svg16"
   sodipodi:docname="org.gnome.DiskUtility.svg"
   inkscape:version="1.0.2 (e86c870879, 2021-01-15)">
  <metadata
     id="metadata22">
    <rdf:RDF>
      <cc:Work
         rdf:about="">
        <dc:format>image/svg+xml</dc:format>
        <dc:type
           rdf:resource="http://purl.org/dc/dcmitype/StillImage" />
        <dc:title />
      </cc:Work>
    </rdf:RDF>
  </metadata>
  <defs
     id="defs20" />
  <sodipodi:namedview
     pagecolor="#ffffff"
     bordercolor="#666666"
     borderopacity="1"
     objecttolerance="10"
     gridtolerance="10"
     guidetolerance="10"
     inkscape:pageopacity="0"
     inkscape:pageshadow="2"
     inkscape:window-width="1920"
     inkscape:window-height="996"
     id="namedview18"
     showgrid="false"
     inkscape:zoom="12.890625"
     inkscape:cx="32"
     inkscape:cy="32"
     inkscape:window-x="0"
     inkscape:window-y="0"
     inkscape:window-maximized="1"
     inkscape:current-layer="svg16"
     inkscape:document-rotation="0" />
  <rect
     style="fill:#676767;opacity:1"
     width="42"
     height="56"
     x="10"
     y="4"
     rx="4.2"
     ry="4.554"
     id="rect4" />
  <path
     style="fill:#29292a;opacity:1"
     d="m 19.386719,6 c -1.169555,0 -2.109375,0.9676356 -2.109375,2.1679688 0,1.7949262 -1.415154,3.2500002 -3.164063,3.2500002 C 12.94373,11.417969 12,12.381698 12,13.582031 v 4.335938 c 0,1.200334 0.943727,2.164063 2.113281,2.164063 1.748909,0 3.164063,1.455072 3.164063,3.25 -0.0018,0.800124 -0.28744,1.572886 -0.808594,2.167968 -3.125589,3.571008 -4.461265,8.199758 -4.46875,13 0,0.06444 0.0071,0.1088 0.0078,0.17188 A 18.999999,18.777778 0 0 0 12,39.222656 18.999999,18.777778 0 0 0 31,58 18.999999,18.777778 0 0 0 50,39.222656 18.999999,18.777778 0 0 0 49.992188,38.648438 C 49.992642,38.593478 50,38.556 50,38.5 c -0.0084,-4.800694 -1.341942,-9.429502 -4.46875,-13 -0.520964,-0.595158 -0.80732,-1.367914 -0.808594,-2.167968 0,-1.794928 1.415156,-3.25 3.164062,-3.25 C 49.05627,20.082032 50,19.118304 50,17.917969 v -4.335938 c 0,-1.200333 -0.94373,-2.164062 -2.113282,-2.164062 -1.748906,0 -3.164062,-1.455074 -3.164062,-3.2500002 C 44.722656,6.9676356 43.782838,6 42.613282,6 Z M 14.5,7 A 1.5000004,1.5 0 0 0 13,8.5 1.5000004,1.5 0 0 0 14.5,10 1.5000004,1.5 0 0 0 16,8.5 1.5000004,1.5 0 0 0 14.5,7 Z m 33,0 A 1.5000004,1.5 0 0 0 46,8.5 1.5000004,1.5 0 0 0 47.5,10 1.5000004,1.5 0 0 0 49,8.5 1.5000004,1.5 0 0 0 47.5,7 Z m -33,15 A 1.5000004,1.5 0 0 0 13,23.5 1.5000004,1.5 0 0 0 14.5,25 1.5000004,1.5 0 0 0 16,23.5 1.5000004,1.5 0 0 0 14.5,22 Z m 33,0 A 1.5000004,1.5 0 0 0 46,23.5 1.5000004,1.5 0 0 0 47.5,25 1.5000004,1.5 0 0 0 49,23.5 1.5000004,1.5 0 0 0 47.5,22 Z m -33,32 A 1.5000004,1.5 0 0 0 13,55.5 1.5000004,1.5 0 0 0 14.5,57 1.5000004,1.5 0 0 0 16,55.5 1.5000004,1.5 0 0 0 14.5,54 Z m 33,0 A 1.5000004,1.5 0 0 0 46,55.5 1.5000004,1.5 0 0 0 47.5,57 1.5000004,1.5 0 0 0 49,55.5 1.5000004,1.5 0 0 0 47.5,54 Z"
     id="path6" />
  <path
     style="fill:#676767"
     d="m 30.572878,21.999998 c -1.21998,0 -2.402446,0.280482 -3.49282,0.660312 l 5.758446,5.753686 c 1.183362,1.18236 1.183362,3.062082 0,4.244508 l -2.171218,2.169418 c -1.18337,1.182362 -3.064668,1.182362 -4.248038,0 l -5.75844,-5.753678 C 20.280638,30.16367 20,31.345178 20,32.564162 c 0,5.834414 4.733642,10.564104 10.572878,10.564104 1.219988,0 2.402454,-0.280486 3.492834,-0.660248 l 15.68442,15.704698 c 5.041486,5.051178 11.360732,-1.463176 6.513632,-6.31959 L 40.484952,36.054086 c 0.380164,-1.089428 0.660798,-2.270936 0.660798,-3.489918 0,-5.834414 -4.733636,-10.56417 -10.572882,-10.56417 z"
     id="path10" />
</svg>
