<?xml version="1.0" encoding="UTF-8" standalone="no"?>
<svg
   xmlns:dc="http://purl.org/dc/elements/1.1/"
   xmlns:cc="http://creativecommons.org/ns#"
   xmlns:rdf="http://www.w3.org/1999/02/22-rdf-syntax-ns#"
   xmlns:svg="http://www.w3.org/2000/svg"
   xmlns="http://www.w3.org/2000/svg"
   xmlns:sodipodi="http://sodipodi.sourceforge.net/DTD/sodipodi-0.dtd"
   xmlns:inkscape="http://www.inkscape.org/namespaces/inkscape"
   width="64"
   height="64"
   version="1.1"
   id="svg73"
   sodipodi:docname="org.gnome.Totem.svg"
   inkscape:version="1.0.2 (e86c870879, 2021-01-15)">
  <metadata
     id="metadata77">
    <rdf:RDF>
      <cc:Work
         rdf:about="">
        <dc:format>image/svg+xml</dc:format>
        <dc:type
           rdf:resource="http://purl.org/dc/dcmitype/StillImage" />
        <dc:title />
      </cc:Work>
    </rdf:RDF>
  </metadata>
  <sodipodi:namedview
     pagecolor="#ffffff"
     bordercolor="#666666"
     borderopacity="1"
     objecttolerance="10"
     gridtolerance="10"
     guidetolerance="10"
     inkscape:pageopacity="0"
     inkscape:pageshadow="2"
     inkscape:window-width="1920"
     inkscape:window-height="996"
     id="namedview75"
     showgrid="false"
     inkscape:zoom="12.578125"
     inkscape:cx="32"
     inkscape:cy="25.639752"
     inkscape:window-x="0"
     inkscape:window-y="0"
     inkscape:window-maximized="1"
     inkscape:current-layer="svg73"
     inkscape:document-rotation="0" />
  <defs
     id="defs29">
    <linearGradient
       id="b"
       x1="399.57"
       x2="399.57"
       y1="545.8"
       y2="517.8"
       gradientTransform="matrix(2.1429,0,0,2.1429,-826.36,-1107.5)"
       gradientUnits="userSpaceOnUse">
      <stop
         stop-color="#3889e9"
         offset="0"
         id="stop2" />
      <stop
         stop-color="#5ea5fb"
         offset="1"
         id="stop4" />
    </linearGradient>
    <linearGradient
       id="linearGradient862"
       x1="7.9373"
       x2="7.9373"
       y1="15.081"
       y2="1.852"
       gradientTransform="matrix(3.3743 0 0 3.3743 3.4312 3.4278)"
       gradientUnits="userSpaceOnUse">
      <stop
         stop-color="#f1efeb"
         offset="0"
         id="stop7" />
      <stop
         stop-color="#fff"
         offset="1"
         id="stop9" />
    </linearGradient>
    <linearGradient
       id="linearGradient910"
       x1="7.9373"
       x2="7.9373"
       y1="15.081"
       y2="1.852"
       gradientTransform="scale(3.7796)"
       gradientUnits="userSpaceOnUse">
      <stop
         stop-color="#613583"
         offset="0"
         id="stop12" />
      <stop
         stop-color="#a663c0"
         offset="1"
         id="stop14" />
    </linearGradient>
    <linearGradient
       id="linearGradient932"
       x1="379.24"
       x2="374.24"
       y1="546.85"
       y2="546.85"
       gradientTransform="matrix(2.1429 0 0 2.1429 -769.68 -1134.5)"
       gradientUnits="userSpaceOnUse">
      <stop
         stop-color="#f6f5f4"
         offset="0"
         id="stop17" />
      <stop
         stop-color="#fff"
         offset=".6"
         id="stop19" />
      <stop
         stop-color="#dddbd8"
         offset="1"
         id="stop21" />
    </linearGradient>
    <linearGradient
       id="linearGradient1146"
       x1="18"
       x2="18"
       y1="52"
       y2="12"
       gradientUnits="userSpaceOnUse">
      <stop
         stop-color="#5e337f"
         offset="0"
         id="stop24" />
      <stop
         stop-color="#ab60bf"
         offset="1"
         id="stop26" />
    </linearGradient>
    <linearGradient
       id="linearGradient921"
       x1="1643.1"
       x2="1643.1"
       y1="1003"
       y2="2366.7"
       gradientTransform="matrix(0.02123815,0,0,0.02123815,-2.6748924,-2.2793378)"
       gradientUnits="userSpaceOnUse">
      <stop
         stop-color="#fff"
         offset="0"
         id="stop7-3" />
      <stop
         stop-color="#bddcff"
         offset="1"
         id="stop9-6" />
    </linearGradient>
  </defs>
  <circle
     cx="32.02"
     cy="32.044"
     r="30.001"
     fill-opacity="0"
     stroke-width="1.5715"
     id="circle39" />
  <circle
     cx="32.02"
     cy="32.044"
     r="0"
     fill="url(#b)"
     stroke-width="1.5715"
     id="circle41" />
  <path
     d="M 31.739621,2.9629517 A 29.073514,29.125151 0 0 0 2.8114745,32.088104 29.073514,29.125151 0 0 0 31.884989,61.213255 29.073514,29.125151 0 0 0 60.958504,32.088104 29.073514,29.125151 0 0 0 31.884989,2.9629517 a 29.073514,29.125151 0 0 0 -0.145108,0 z M 25.004419,16.975708 c 0.562346,0.02923 1.087914,0.215284 1.577334,0.556211 l 18.111185,12.502133 c 0.570488,0.402575 0.965773,0.933737 1.18615,1.589619 0.220378,0.655963 0.220378,1.31911 0,1.981481 -0.220345,0.655882 -0.615566,1.187173 -1.192465,1.583307 L 26.581899,47.690592 c -0.654702,0.448091 -1.367118,0.628343 -2.15144,0.53092 -0.784355,-0.09742 -1.433987,-0.442459 -1.959071,-1.033409 -0.525067,-0.590965 -0.791816,-1.284048 -0.791816,-2.0763 V 20.111096 c 0,-0.792252 0.266749,-1.488521 0.791816,-2.079535 0.525134,-0.59095 1.174684,-0.936002 1.959071,-1.03341 0.195552,-0.02491 0.38671,-0.03185 0.574154,-0.02212 z"
     fill="url(#linearGradient921)"
     stroke-linecap="round"
     stroke-linejoin="round"
     stroke-width="6.39264"
     id="path33-7"
     style="fill:#29292a" />
</svg>
