<?xml version="1.0" encoding="UTF-8" standalone="no"?>
<svg
   xmlns:dc="http://purl.org/dc/elements/1.1/"
   xmlns:cc="http://creativecommons.org/ns#"
   xmlns:rdf="http://www.w3.org/1999/02/22-rdf-syntax-ns#"
   xmlns:svg="http://www.w3.org/2000/svg"
   xmlns="http://www.w3.org/2000/svg"
   xmlns:sodipodi="http://sodipodi.sourceforge.net/DTD/sodipodi-0.dtd"
   xmlns:inkscape="http://www.inkscape.org/namespaces/inkscape"
   width="64"
   height="64"
   version="1.1"
   id="svg73"
   sodipodi:docname="org.gnome.Mahjongg.svg"
   inkscape:version="1.0.2 (e86c870879, 2021-01-15)">
  <metadata
     id="metadata77">
    <rdf:RDF>
      <cc:Work
         rdf:about="">
        <dc:format>image/svg+xml</dc:format>
        <dc:type
           rdf:resource="http://purl.org/dc/dcmitype/StillImage" />
        <dc:title />
      </cc:Work>
    </rdf:RDF>
  </metadata>
  <sodipodi:namedview
     pagecolor="#ffffff"
     bordercolor="#666666"
     borderopacity="1"
     objecttolerance="10"
     gridtolerance="10"
     guidetolerance="10"
     inkscape:pageopacity="0"
     inkscape:pageshadow="2"
     inkscape:window-width="1920"
     inkscape:window-height="996"
     id="namedview75"
     showgrid="false"
     inkscape:zoom="12.578125"
     inkscape:cx="15.900621"
     inkscape:cy="28.819876"
     inkscape:window-x="0"
     inkscape:window-y="0"
     inkscape:window-maximized="1"
     inkscape:current-layer="svg73"
     inkscape:document-rotation="0" />
  <defs
     id="defs29">
    <linearGradient
       id="b"
       x1="399.57"
       x2="399.57"
       y1="545.8"
       y2="517.8"
       gradientTransform="matrix(2.1429,0,0,2.1429,-826.36,-1107.5)"
       gradientUnits="userSpaceOnUse">
      <stop
         stop-color="#3889e9"
         offset="0"
         id="stop2" />
      <stop
         stop-color="#5ea5fb"
         offset="1"
         id="stop4" />
    </linearGradient>
    <linearGradient
       id="linearGradient862"
       x1="7.9373"
       x2="7.9373"
       y1="15.081"
       y2="1.852"
       gradientTransform="matrix(3.3743 0 0 3.3743 3.4312 3.4278)"
       gradientUnits="userSpaceOnUse">
      <stop
         stop-color="#f1efeb"
         offset="0"
         id="stop7" />
      <stop
         stop-color="#fff"
         offset="1"
         id="stop9" />
    </linearGradient>
    <linearGradient
       id="linearGradient910"
       x1="7.9373"
       x2="7.9373"
       y1="15.081"
       y2="1.852"
       gradientTransform="scale(3.7796)"
       gradientUnits="userSpaceOnUse">
      <stop
         stop-color="#613583"
         offset="0"
         id="stop12" />
      <stop
         stop-color="#a663c0"
         offset="1"
         id="stop14" />
    </linearGradient>
    <linearGradient
       id="linearGradient932"
       x1="379.24"
       x2="374.24"
       y1="546.85"
       y2="546.85"
       gradientTransform="matrix(2.1429 0 0 2.1429 -769.68 -1134.5)"
       gradientUnits="userSpaceOnUse">
      <stop
         stop-color="#f6f5f4"
         offset="0"
         id="stop17" />
      <stop
         stop-color="#fff"
         offset=".6"
         id="stop19" />
      <stop
         stop-color="#dddbd8"
         offset="1"
         id="stop21" />
    </linearGradient>
    <linearGradient
       id="linearGradient1146"
       x1="18"
       x2="18"
       y1="52"
       y2="12"
       gradientUnits="userSpaceOnUse">
      <stop
         stop-color="#5e337f"
         offset="0"
         id="stop24" />
      <stop
         stop-color="#ab60bf"
         offset="1"
         id="stop26" />
    </linearGradient>
    <linearGradient
       id="linearGradient921"
       x1="1643.1"
       x2="1643.1"
       y1="1003"
       y2="2366.7"
       gradientTransform="matrix(0.02123815,0,0,0.02123815,-2.6748924,-2.2793378)"
       gradientUnits="userSpaceOnUse">
      <stop
         stop-color="#fff"
         offset="0"
         id="stop7-3" />
      <stop
         stop-color="#bddcff"
         offset="1"
         id="stop9-6" />
    </linearGradient>
  </defs>
  <circle
     cx="32.02"
     cy="32.044"
     r="30.001"
     fill-opacity="0"
     stroke-width="1.5715"
     id="circle39" />
  <circle
     cx="32.02"
     cy="32.044"
     r="0"
     fill="url(#b)"
     stroke-width="1.5715"
     id="circle41" />
  <path
     style="fill:#29292a;stroke-width:1.63581"
     d="m 20.905771,3.9044611 c -0.67275,0.3778912 -0.840916,0.9447017 -0.840916,1.6059995 0,1.2281352 0.672708,2.7395448 1.009083,3.3063568 0,0 1.324405,6.3516946 1.492571,7.1075296 -1.513664,0.09446 -3.384098,0.188945 -4.393017,0.377864 h -1.345455 c -2.85912,0.09448 -5.550075,0.188946 -6.727486,0.850245 l -0.5045417,0.283405 0.5045417,0.377891 c 0.840915,0.566811 1.177289,2.172838 1.513663,3.873429 0.840916,3.49538 1.849957,8.102386 6.895571,9.802821 l 1.009081,0.283405 v -0.661298 c 0,0 0.168496,-0.283406 0.168496,-0.661297 0,-0.283405 -0.168496,-0.755783 -0.336169,-1.417053 1.345456,0.09445 3.384098,0.283405 4.393015,0.283405 0.168044,0.755756 5.361225,31.554499 5.361225,31.554499 h 1.68183 c 0,0 2.464983,-30.418788 2.464983,-31.363909 1.177249,0 5.775962,0.09446 7.289545,0.188945 -0.33617,0.566838 -1.681789,2.928569 -1.681789,2.928569 L 41.21454,31.397135 C 41.887288,31.113727 56.519263,23.38926 54.501017,18.47672 53.828269,16.870721 51.47373,15.737175 47.605446,15.170365 h -0.336989 c -2.186372,0 -8.298872,0.09445 -13.344284,0.283405 0.168496,-2.456244 0.168496,-3.517638 0.168496,-4.17896 v -0.850218 c 0,-0.4723504 0.225971,-1.1336483 0.898719,-1.6059998 0.67275,-0.5668121 1.513665,-1.0391889 1.513665,-1.606001 0,-0.1889447 -0.168495,-0.377891 -0.33617,-0.5668105 C 35.159802,5.795538 26.119428,3.6226998 22.924181,3.4336761 21.915099,3.5281309 21.24235,3.622621 20.905975,3.9060276 Z m 0.988317,15.2319119 h 0.840915 c 0,0.850243 0.504542,7.063276 0.672707,7.913363 -1.345455,-0.09448 -3.720266,-0.283407 -4.729594,-0.283407 -0.504542,-1.228134 -0.67275,-2.550728 -0.840915,-3.873428 -0.168084,-1.133648 -0.33617,-2.528576 -0.67275,-3.567634 1.513665,0 4.729597,-0.188946 4.729597,-0.188946 z m 11.694737,3.189848 c 0,0 0.168084,-2.528577 0.168084,-3.284359 2.186331,0.188945 4.430467,0.283405 7.121462,0.283405 h 3.027286 c 0,0.377891 -0.168494,0.850242 -0.168494,0.850242 -0.33617,2.078353 -0.840916,4.795771 -2.35458,7.25204 -1.009042,0 -6.616797,-0.188946 -7.962293,-0.283405 0,-0.661299 0.168494,-4.818027 0.168494,-4.818027 z"
     id="path10" />
</svg>
