<?xml version="1.0" encoding="UTF-8" standalone="no"?>
<svg
   xmlns:dc="http://purl.org/dc/elements/1.1/"
   xmlns:cc="http://creativecommons.org/ns#"
   xmlns:rdf="http://www.w3.org/1999/02/22-rdf-syntax-ns#"
   xmlns:svg="http://www.w3.org/2000/svg"
   xmlns="http://www.w3.org/2000/svg"
   xmlns:sodipodi="http://sodipodi.sourceforge.net/DTD/sodipodi-0.dtd"
   xmlns:inkscape="http://www.inkscape.org/namespaces/inkscape"
   width="64"
   height="64"
   version="1.1"
   id="svg73"
   sodipodi:docname="org.gnome.Yelp.svg"
   inkscape:version="1.0.2 (e86c870879, 2021-01-15)">
  <metadata
     id="metadata77">
    <rdf:RDF>
      <cc:Work
         rdf:about="">
        <dc:format>image/svg+xml</dc:format>
        <dc:type
           rdf:resource="http://purl.org/dc/dcmitype/StillImage" />
        <dc:title />
      </cc:Work>
    </rdf:RDF>
  </metadata>
  <sodipodi:namedview
     pagecolor="#ffffff"
     bordercolor="#666666"
     borderopacity="1"
     objecttolerance="10"
     gridtolerance="10"
     guidetolerance="10"
     inkscape:pageopacity="0"
     inkscape:pageshadow="2"
     inkscape:window-width="1920"
     inkscape:window-height="996"
     id="namedview75"
     showgrid="false"
     inkscape:zoom="12.578125"
     inkscape:cx="32"
     inkscape:cy="41.540373"
     inkscape:window-x="0"
     inkscape:window-y="0"
     inkscape:window-maximized="1"
     inkscape:current-layer="svg73"
     inkscape:document-rotation="0" />
  <defs
     id="defs29">
    <linearGradient
       id="b"
       x1="399.57"
       x2="399.57"
       y1="545.8"
       y2="517.8"
       gradientTransform="matrix(2.1429,0,0,2.1429,-826.36,-1107.5)"
       gradientUnits="userSpaceOnUse">
      <stop
         stop-color="#3889e9"
         offset="0"
         id="stop2" />
      <stop
         stop-color="#5ea5fb"
         offset="1"
         id="stop4" />
    </linearGradient>
    <linearGradient
       id="linearGradient862"
       x1="7.9373"
       x2="7.9373"
       y1="15.081"
       y2="1.852"
       gradientTransform="matrix(3.3743 0 0 3.3743 3.4312 3.4278)"
       gradientUnits="userSpaceOnUse">
      <stop
         stop-color="#f1efeb"
         offset="0"
         id="stop7" />
      <stop
         stop-color="#fff"
         offset="1"
         id="stop9" />
    </linearGradient>
    <linearGradient
       id="linearGradient910"
       x1="7.9373"
       x2="7.9373"
       y1="15.081"
       y2="1.852"
       gradientTransform="scale(3.7796)"
       gradientUnits="userSpaceOnUse">
      <stop
         stop-color="#613583"
         offset="0"
         id="stop12" />
      <stop
         stop-color="#a663c0"
         offset="1"
         id="stop14" />
    </linearGradient>
    <linearGradient
       id="linearGradient932"
       x1="379.24"
       x2="374.24"
       y1="546.85"
       y2="546.85"
       gradientTransform="matrix(2.1429 0 0 2.1429 -769.68 -1134.5)"
       gradientUnits="userSpaceOnUse">
      <stop
         stop-color="#f6f5f4"
         offset="0"
         id="stop17" />
      <stop
         stop-color="#fff"
         offset=".6"
         id="stop19" />
      <stop
         stop-color="#dddbd8"
         offset="1"
         id="stop21" />
    </linearGradient>
    <linearGradient
       id="linearGradient1146"
       x1="18"
       x2="18"
       y1="52"
       y2="12"
       gradientUnits="userSpaceOnUse">
      <stop
         stop-color="#5e337f"
         offset="0"
         id="stop24" />
      <stop
         stop-color="#ab60bf"
         offset="1"
         id="stop26" />
    </linearGradient>
    <linearGradient
       id="linearGradient898"
       x1="200"
       x2="400"
       y1="952.35999"
       y2="952.35999"
       gradientTransform="matrix(0.16259,0,0,0.16259,-16.127121,15.061953)"
       gradientUnits="userSpaceOnUse">
      <stop
         stop-color="#f4fbfc"
         offset="0"
         id="stop7-3" />
      <stop
         stop-color="#d6d6d6"
         offset="1"
         id="stop9-6" />
    </linearGradient>
  </defs>
  <circle
     cx="32.02"
     cy="32.044"
     r="30.001"
     fill-opacity="0"
     stroke-width="1.5715"
     id="circle39" />
  <circle
     cx="32.02"
     cy="32.044"
     r="0"
     fill="url(#b)"
     stroke-width="1.5715"
     id="circle41" />
  <path
     d="M 31.809233,2.9774061 A 29.088357,29.254614 0 0 0 2.7190865,32.230222 29.088357,29.254614 0 0 0 31.809233,61.486635 29.088357,29.254614 0 0 0 60.899379,32.230222 29.088357,29.254614 0 0 0 31.809233,2.9774061 Z m 0,3.7216463 A 25.388577,25.533687 0 0 1 43.473022,9.5771925 L 39.636378,16.173381 A 17.795977,17.897692 0 0 0 31.809233,14.33199 17.795977,17.897692 0 0 0 24.090325,16.127768 L 20.099822,9.5877183 A 25.388577,25.533687 0 0 1 31.809054,6.6989624 Z m 0,11.1647576 A 14.284943,14.366591 0 0 1 46.093818,32.230042 14.284943,14.366591 0 0 1 31.809233,46.596272 14.284943,14.366591 0 0 1 17.524646,32.230042 14.284943,14.366591 0 0 1 31.809233,17.86381 Z m 22.499242,2.565425 a 25.388577,25.533687 0 0 1 2.886293,11.800807 25.388577,25.533687 0 0 1 -2.879316,11.769139 l -6.548324,-3.872607 a 17.795977,17.897692 0 0 0 1.837903,-7.896532 17.795977,17.897692 0 0 0 -1.890323,-7.977321 l 6.593588,-3.823486 z m -45.0825708,0.19328 6.6146988,3.728663 a 17.795977,17.897692 0 0 0 -1.827527,7.878899 17.795977,17.897692 0 0 0 1.879947,7.963286 L 9.2853008,43.992199 A 25.388577,25.533687 0 0 1 6.4199406,32.230077 25.388577,25.533687 0 0 1 9.2259042,20.622515 Z M 23.971711,48.286559 a 17.795977,17.897692 0 0 0 7.837701,1.84139 17.795977,17.897692 0 0 0 7.701375,-1.788743 l 4.053297,6.508382 A 25.388577,25.533687 0 0 1 31.809412,57.764413 25.388577,25.533687 0 0 1 19.97441,54.805485 l 3.99748,-6.518819 z"
     fill="url(#linearGradient898)"
     stroke-width="4.57494"
     id="path27"
     style="fill:#29292a" />
</svg>
