<?xml version="1.0" encoding="UTF-8" standalone="no"?>
<svg
   xmlns:dc="http://purl.org/dc/elements/1.1/"
   xmlns:cc="http://creativecommons.org/ns#"
   xmlns:rdf="http://www.w3.org/1999/02/22-rdf-syntax-ns#"
   xmlns:svg="http://www.w3.org/2000/svg"
   xmlns="http://www.w3.org/2000/svg"
   xmlns:sodipodi="http://sodipodi.sourceforge.net/DTD/sodipodi-0.dtd"
   xmlns:inkscape="http://www.inkscape.org/namespaces/inkscape"
   width="64"
   height="64"
   version="1.1"
   id="svg73"
   sodipodi:docname="org.gnome.Rhythmbox.svg"
   inkscape:version="1.0.2 (e86c870879, 2021-01-15)">
  <metadata
     id="metadata77">
    <rdf:RDF>
      <cc:Work
         rdf:about="">
        <dc:format>image/svg+xml</dc:format>
        <dc:type
           rdf:resource="http://purl.org/dc/dcmitype/StillImage" />
        <dc:title />
      </cc:Work>
    </rdf:RDF>
  </metadata>
  <sodipodi:namedview
     pagecolor="#ffffff"
     bordercolor="#666666"
     borderopacity="1"
     objecttolerance="10"
     gridtolerance="10"
     guidetolerance="10"
     inkscape:pageopacity="0"
     inkscape:pageshadow="2"
     inkscape:window-width="1550"
     inkscape:window-height="934"
     id="namedview75"
     showgrid="false"
     inkscape:zoom="8.8940775"
     inkscape:cx="32"
     inkscape:cy="32"
     inkscape:window-x="0"
     inkscape:window-y="30"
     inkscape:window-maximized="0"
     inkscape:current-layer="svg73"
     inkscape:document-rotation="0" />
  <defs
     id="defs29">
    <linearGradient
       id="b"
       x1="399.57"
       x2="399.57"
       y1="545.8"
       y2="517.8"
       gradientTransform="matrix(2.1429,0,0,2.1429,-826.36,-1107.5)"
       gradientUnits="userSpaceOnUse">
      <stop
         stop-color="#3889e9"
         offset="0"
         id="stop2" />
      <stop
         stop-color="#5ea5fb"
         offset="1"
         id="stop4" />
    </linearGradient>
    <linearGradient
       id="linearGradient862"
       x1="7.9373"
       x2="7.9373"
       y1="15.081"
       y2="1.852"
       gradientTransform="matrix(3.3743 0 0 3.3743 3.4312 3.4278)"
       gradientUnits="userSpaceOnUse">
      <stop
         stop-color="#f1efeb"
         offset="0"
         id="stop7" />
      <stop
         stop-color="#fff"
         offset="1"
         id="stop9" />
    </linearGradient>
    <linearGradient
       id="linearGradient910"
       x1="7.9373"
       x2="7.9373"
       y1="15.081"
       y2="1.852"
       gradientTransform="scale(3.7796)"
       gradientUnits="userSpaceOnUse">
      <stop
         stop-color="#613583"
         offset="0"
         id="stop12" />
      <stop
         stop-color="#a663c0"
         offset="1"
         id="stop14" />
    </linearGradient>
    <linearGradient
       id="linearGradient932"
       x1="379.24"
       x2="374.24"
       y1="546.85"
       y2="546.85"
       gradientTransform="matrix(2.1429 0 0 2.1429 -769.68 -1134.5)"
       gradientUnits="userSpaceOnUse">
      <stop
         stop-color="#f6f5f4"
         offset="0"
         id="stop17" />
      <stop
         stop-color="#fff"
         offset=".6"
         id="stop19" />
      <stop
         stop-color="#dddbd8"
         offset="1"
         id="stop21" />
    </linearGradient>
    <linearGradient
       id="linearGradient1146"
       x1="18"
       x2="18"
       y1="52"
       y2="12"
       gradientUnits="userSpaceOnUse">
      <stop
         stop-color="#5e337f"
         offset="0"
         id="stop24" />
      <stop
         stop-color="#ab60bf"
         offset="1"
         id="stop26" />
    </linearGradient>
    <mask
       id="deepin-boot-maker-f-5"
       fill="#ffffff">
      <path
         id="use91-6"
         d="m 252,0 c 19.88225,0 36,16.117749 36,36 V 318 H 0 V 113.56854 C 0,102.95988 4.2142736,92.785726 11.715729,85.284271 L 85.284271,11.715729 C 92.785726,4.2142736 102.95988,0 113.56854,0 Z m 5,16 c -8.28427,0 -15,6.715729 -15,15 0,8.284271 6.71573,15 15,15 8.28427,0 15,-6.715729 15,-15 0,-8.284271 -6.71573,-15 -15,-15 z" />
    </mask>
    <linearGradient
       x1="88.308749"
       y1="36.458094"
       x2="88.308749"
       y2="149.02749"
       id="linearGradient-13"
       gradientTransform="matrix(0.47883332,0,0,0.4687706,51.537377,52.500287)"
       gradientUnits="userSpaceOnUse">
      <stop
         stop-color="#4B4B4B"
         offset="0%"
         id="stop94" />
      <stop
         stop-color="#070707"
         offset="100%"
         id="stop96" />
    </linearGradient>
  </defs>
  <circle
     cx="32.02"
     cy="32.044"
     r="30.001"
     fill-opacity="0"
     stroke-width="1.5715"
     id="circle39" />
  <circle
     cx="32.02"
     cy="32.044"
     r="0"
     fill="url(#b)"
     stroke-width="1.5715"
     id="circle41" />
  <path
     style="color:#6e6e6e;fill:#29292a;stroke-width:3.80914"
     class="ColorScheme-Text"
     d="m 17.236627,3.0646816 c -7.5081911,0 -7.5081911,7.7299324 -7.5081911,7.7299324 v 42.514625 c 0,7.729933 7.1076301,7.716019 7.5081911,7.729933 h 30.032766 c 0,0 7.508191,-0.01548 7.508191,-7.729933 V 10.794614 c 0,-7.7299324 -7.508191,-7.7299324 -7.508191,-7.7299324 z M 32.25301,10.794614 c 2.080032,0 3.754095,1.737109 3.754095,3.864967 0,2.128204 -1.674063,3.864966 -3.754095,3.864966 -2.080669,0 -3.754097,-1.736762 -3.754097,-3.864966 0,-2.127858 1.673428,-3.864967 3.754097,-3.864967 z m 0,11.594896 c 8.293173,0 15.016383,6.92177 15.016383,15.459866 0,8.538097 -6.72321,15.459863 -15.016383,15.459863 -8.293174,0 -15.016383,-6.921766 -15.016383,-15.459863 0,-8.538096 6.723209,-15.459866 15.016383,-15.459866 z m 0,7.729933 c -4.146775,0 -7.508192,3.460807 -7.508192,7.729933 0,4.269125 3.36153,7.729932 7.508192,7.729932 4.146661,0 7.508192,-3.460807 7.508192,-7.729932 0,-4.269126 -3.361531,-7.729933 -7.508192,-7.729933 z"
     id="path5" />
</svg>
