<?xml version="1.0" encoding="UTF-8" standalone="no"?>
<svg
   xmlns:dc="http://purl.org/dc/elements/1.1/"
   xmlns:cc="http://creativecommons.org/ns#"
   xmlns:rdf="http://www.w3.org/1999/02/22-rdf-syntax-ns#"
   xmlns:svg="http://www.w3.org/2000/svg"
   xmlns="http://www.w3.org/2000/svg"
   xmlns:sodipodi="http://sodipodi.sourceforge.net/DTD/sodipodi-0.dtd"
   xmlns:inkscape="http://www.inkscape.org/namespaces/inkscape"
   width="64"
   height="64"
   version="1.1"
   id="svg73"
   sodipodi:docname="org.eclipse.Java.svg"
   inkscape:version="1.0.2 (e86c870879, 2021-01-15)">
  <metadata
     id="metadata77">
    <rdf:RDF>
      <cc:Work
         rdf:about="">
        <dc:format>image/svg+xml</dc:format>
        <dc:type
           rdf:resource="http://purl.org/dc/dcmitype/StillImage" />
        <dc:title></dc:title>
      </cc:Work>
    </rdf:RDF>
  </metadata>
  <sodipodi:namedview
     pagecolor="#ffffff"
     bordercolor="#666666"
     borderopacity="1"
     objecttolerance="10"
     gridtolerance="10"
     guidetolerance="10"
     inkscape:pageopacity="0"
     inkscape:pageshadow="2"
     inkscape:window-width="1717"
     inkscape:window-height="798"
     id="namedview75"
     showgrid="false"
     inkscape:zoom="12.578125"
     inkscape:cx="32"
     inkscape:cy="32"
     inkscape:window-x="571"
     inkscape:window-y="747"
     inkscape:window-maximized="0"
     inkscape:current-layer="svg73"
     inkscape:document-rotation="0" />
  <defs
     id="defs29">
    <linearGradient
       id="b"
       x1="399.57"
       x2="399.57"
       y1="545.8"
       y2="517.8"
       gradientTransform="matrix(2.1429,0,0,2.1429,-826.36,-1107.5)"
       gradientUnits="userSpaceOnUse">
      <stop
         stop-color="#3889e9"
         offset="0"
         id="stop2" />
      <stop
         stop-color="#5ea5fb"
         offset="1"
         id="stop4" />
    </linearGradient>
    <linearGradient
       id="linearGradient862"
       x1="7.9373"
       x2="7.9373"
       y1="15.081"
       y2="1.852"
       gradientTransform="matrix(3.3743 0 0 3.3743 3.4312 3.4278)"
       gradientUnits="userSpaceOnUse">
      <stop
         stop-color="#f1efeb"
         offset="0"
         id="stop7" />
      <stop
         stop-color="#fff"
         offset="1"
         id="stop9" />
    </linearGradient>
    <linearGradient
       id="linearGradient910"
       x1="7.9373"
       x2="7.9373"
       y1="15.081"
       y2="1.852"
       gradientTransform="scale(3.7796)"
       gradientUnits="userSpaceOnUse">
      <stop
         stop-color="#613583"
         offset="0"
         id="stop12" />
      <stop
         stop-color="#a663c0"
         offset="1"
         id="stop14" />
    </linearGradient>
    <linearGradient
       id="linearGradient932"
       x1="379.24"
       x2="374.24"
       y1="546.85"
       y2="546.85"
       gradientTransform="matrix(2.1429 0 0 2.1429 -769.68 -1134.5)"
       gradientUnits="userSpaceOnUse">
      <stop
         stop-color="#f6f5f4"
         offset="0"
         id="stop17" />
      <stop
         stop-color="#fff"
         offset=".6"
         id="stop19" />
      <stop
         stop-color="#dddbd8"
         offset="1"
         id="stop21" />
    </linearGradient>
    <linearGradient
       id="linearGradient1146"
       x1="18"
       x2="18"
       y1="52"
       y2="12"
       gradientUnits="userSpaceOnUse">
      <stop
         stop-color="#5e337f"
         offset="0"
         id="stop24" />
      <stop
         stop-color="#ab60bf"
         offset="1"
         id="stop26" />
    </linearGradient>
    <linearGradient
       id="e"
       x1="34.780998"
       x2="34.780998"
       y1="15.304"
       y2="48.695999"
       gradientUnits="userSpaceOnUse">
      <stop
         stop-color="#2c2054"
         offset="0"
         id="stop2-3" />
      <stop
         stop-color="#3f2e76"
         offset="1"
         id="stop4-6" />
    </linearGradient>
    <linearGradient
       id="a"
       x1="20.174"
       x2="20.174"
       y1="15.297"
       y2="48.695999"
       gradientUnits="userSpaceOnUse">
      <stop
         stop-color="#f4941e"
         offset="0"
         id="stop7-7" />
      <stop
         stop-color="#f4a138"
         offset="1"
         id="stop9-5" />
    </linearGradient>
  </defs>
  <circle
     cx="32.02"
     cy="32.044"
     r="30.001"
     fill-opacity="0"
     stroke-width="1.5715"
     id="circle39" />
  <circle
     cx="32.02"
     cy="32.044"
     r="0"
     fill="url(#b)"
     stroke-width="1.5715"
     id="circle41" />
  <g
     fill-rule="evenodd"
     stroke-width="1.3913"
     id="g39"
     transform="matrix(1.4714275,0,0,1.4603107,-14.212947,-14.111864)"
     style="fill:#29292a">
    <path
       d="m 34.777,15.304 c -6.7565,0 -12.538,3.9866 -15.168,9.7391 H 49.957 C 47.3266,19.2906 41.5433,15.304 34.783,15.304 H 34.7776 Z M 18.635,27.826 c -0.23144,0.90166 -0.39993,1.8272 -0.47826,2.7826 h 33.247 c -0.07823,-0.95456 -0.2391,-1.8813 -0.47011,-2.7826 h -32.299 z m -0.47826,5.5652 c 0.07804,0.95541 0.24692,1.8809 0.47826,2.7826 h 32.296 c 0.2311,-0.90152 0.39477,-1.8276 0.47282,-2.7826 h -33.247 z m 1.4483,5.5652 c 2.629,5.7522 8.4127,9.7391 15.171,9.7391 h 0.0054 c 6.7617,0 12.547,-3.9869 15.176,-9.7391 h -30.354 z"
       fill="url(#e)"
       id="path35"
       style="fill:#29292a" />
    <path
       d="m 27.826,15.304 c -9.2494,0 -16.696,7.4463 -16.696,16.696 0,9.2497 7.4463,16.696 16.696,16.696 0.47304,0 0.92383,-0.0487 1.3913,-0.08765 -8.5871,-0.71235 -15.304,-7.8372 -15.304,-16.609 0,-8.7777 6.7172,-15.903 15.304,-16.609 -0.46748,-0.04313 -0.91826,-0.09183 -1.3913,-0.09183"
       fill="url(#a)"
       id="path37"
       style="fill:#29292a" />
  </g>
</svg>
