<?xml version="1.0" encoding="UTF-8" standalone="no"?>
<svg
   xmlns:dc="http://purl.org/dc/elements/1.1/"
   xmlns:cc="http://creativecommons.org/ns#"
   xmlns:rdf="http://www.w3.org/1999/02/22-rdf-syntax-ns#"
   xmlns:svg="http://www.w3.org/2000/svg"
   xmlns="http://www.w3.org/2000/svg"
   xmlns:sodipodi="http://sodipodi.sourceforge.net/DTD/sodipodi-0.dtd"
   xmlns:inkscape="http://www.inkscape.org/namespaces/inkscape"
   width="64"
   height="64"
   version="1.1"
   id="svg32"
   sodipodi:docname="org.gnome.Photos.svg"
   inkscape:version="1.0.2 (e86c870879, 2021-01-15)">
  <metadata
     id="metadata38">
    <rdf:RDF>
      <cc:Work
         rdf:about="">
        <dc:format>image/svg+xml</dc:format>
        <dc:type
           rdf:resource="http://purl.org/dc/dcmitype/StillImage" />
        <dc:title />
      </cc:Work>
    </rdf:RDF>
  </metadata>
  <defs
     id="defs36" />
  <sodipodi:namedview
     pagecolor="#ffffff"
     bordercolor="#666666"
     borderopacity="1"
     objecttolerance="10"
     gridtolerance="10"
     guidetolerance="10"
     inkscape:pageopacity="0"
     inkscape:pageshadow="2"
     inkscape:window-width="1920"
     inkscape:window-height="996"
     id="namedview34"
     showgrid="false"
     inkscape:zoom="12.890625"
     inkscape:cx="32"
     inkscape:cy="32"
     inkscape:window-x="0"
     inkscape:window-y="0"
     inkscape:window-maximized="1"
     inkscape:current-layer="svg32"
     inkscape:document-rotation="0" />
  <path
     style="fill:#29292a"
     d="m 7,21.555615 v 19.88877 h 17.040533 v -19.88877 z"
     id="path4" />
  <path
     style="fill:#676767"
     d="m 19.80389,34.027149 -8.567247,14.834472 16.979733,9.944384 8.567249,-14.834472 z"
     id="path6" />
  <path
     style="fill:#29292a"
     d="m 45.196109,34.024365 -16.979733,9.947168 8.567249,14.834472 16.979734,-9.947167 z"
     id="path8" />
  <path
     style="fill:#676767"
     d="M 40.959469,21.555615 V 41.441601 H 58.000001 V 21.555615 Z"
     id="path10" />
  <path
     style="fill:#29292a"
     d="m 36.783625,4.1939941 -8.567249,14.8344729 16.979733,9.944384 8.56725,-14.834472 z"
     id="path12" />
  <path
     style="fill:#676767"
     d="M 28.216376,4.1939941 11.236643,14.138379 19.80389,28.972851 36.783625,19.028467 Z"
     id="path14" />
  <path
     style="fill:#29292a"
     d="m 32.500148,60 c 4.688552,0 8.489481,-3.856201 8.489481,-8.611862 -0.0041,-2.819374 -1.368325,-5.458182 -3.652363,-7.064597 l -4.366423,-2.603653 -0.470695,-0.27558 c -1.35078,-0.774973 -2.692527,-1.566043 -4.024957,-2.373046 -2.746444,-1.500216 -4.460647,-4.407467 -4.464525,-7.571741 v 19.887661 c 0,4.75614 3.80093,8.61186 8.489482,8.61186 z m -8.458353,-9.306552 c 0.01133,-0.135404 0.03066,-0.268882 0.04811,-0.402844 -0.01886,0.133965 -0.03491,0.267925 -0.04811,0.402844 z"
     id="path16" />
  <path
     style="fill:#676767"
     d="m 32.500148,3.0000003 c -4.688552,0 -8.489482,3.8557218 -8.489482,8.6118617 0.0042,2.819204 1.368464,5.4578 3.652364,7.064118 l 4.366423,2.603654 0.470695,0.275579 c 1.350782,0.774973 2.692527,1.566043 4.024958,2.373047 2.746295,1.500134 4.460473,4.40716 4.464523,7.571261 V 11.611862 c 0,-4.7561399 -3.800929,-8.6118617 -8.489481,-8.6118617 z m 8.458353,9.3055947 c -0.01133,0.135874 -0.03066,0.26936 -0.04811,0.403322 0.01886,-0.133964 0.03489,-0.267924 0.04811,-0.402843 z"
     id="path18" />
  <path
     style="fill:#676767"
     d="m 8.1692946,45.749761 c 2.3440404,4.11934 7.5367724,5.530251 11.5966304,3.151941 2.405028,-1.413283 3.975763,-3.931305 4.205124,-6.741174 l 0.03916,-5.136976 v -0.551637 c -0.01417,-1.523821 -0.0081,-3.28399 0.01417,-4.722171 -0.09258,-3.162478 1.531745,-6.121801 4.23059,-7.707617 L 24.010196,26.527606 15.520713,31.5 13.602092,32.623848 11.276916,33.985479 C 7.2161145,36.36331 5.8247827,41.630899 8.1692946,45.749761 Z M 11.884858,33.665883 c 0.121211,-0.05741 0.245251,-0.107174 0.367877,-0.159319 -0.123778,0.05033 -0.246434,0.103441 -0.367877,0.159319 z"
     id="path20" />
  <path
     style="fill:#29292a"
     d="m 56.831003,17.249761 c -2.344042,-4.119341 -7.536774,-5.53025 -11.596632,-3.151941 -2.404898,1.413188 -3.975615,3.931001 -4.205123,6.740695 l -0.03916,5.137454 v 0.551637 c 0.01417,1.523821 0.0081,3.283991 -0.01417,4.722171 0.09258,3.16248 -1.531747,6.121802 -4.230592,7.707617 l 4.24474,-2.485958 8.489011,-4.971915 1.918621,-1.123847 2.325175,-1.361631 c 4.060803,-2.378309 5.452134,-7.64542 3.107622,-11.764282 z m -3.715564,12.083877 c -0.12121,0.05741 -0.24525,0.107174 -0.367877,0.159319 0.123576,-0.05023 0.246194,-0.103341 0.367877,-0.159319 z"
     id="path22" />
  <path
     style="fill:#29292a"
     d="m 8.1692946,17.249761 c -2.3440402,4.119341 -0.9527085,9.385973 3.1071504,11.763804 2.408982,1.406227 5.343969,1.527213 7.857487,0.323901 l 4.405098,-2.53428 0.470693,-0.27558 c 1.337081,-0.799083 2.683386,-1.582179 4.038635,-2.349123 2.653912,-1.662903 5.993055,-1.715443 8.69653,-0.136829 l -4.24474,-2.486437 -8.489952,-4.971915 -1.918624,-1.123847 -2.325175,-1.361631 C 15.705595,11.719511 10.513335,13.130899 8.168823,17.249761 Z M 20.343211,14.472436 c 0.109891,0.07751 0.214124,0.161233 0.31977,0.243524 -0.104677,-0.08388 -0.211306,-0.165228 -0.31977,-0.244003 z"
     id="path24" />
  <path
     style="fill:#676767"
     d="m 56.831003,45.749761 c 2.34404,-4.119341 0.952709,-9.385972 -3.107152,-11.764282 -2.409059,-1.406074 -5.344044,-1.526882 -7.857487,-0.323423 l -4.405097,2.534279 -0.470694,0.27558 c -1.337081,0.799084 -2.683386,1.58218 -4.038635,2.349125 -2.653825,1.663051 -5.992969,1.715773 -8.69653,0.137313 l 4.24474,2.485958 8.489953,4.972394 1.918623,1.123847 2.325175,1.361632 c 4.060801,2.377831 9.253062,0.96692 11.597575,-3.151942 z m -12.173918,2.777325 c -0.109891,-0.07751 -0.214122,-0.161233 -0.319769,-0.243524 0.104706,0.08373 0.211293,0.16506 0.319769,0.244002 z"
     id="path26" />
  <path
     style="fill:#e6e6e6"
     d="m 24.010519,26.528085 v 9.94383 l 8.489482,4.972393 8.489481,-4.972393 v -9.94383 l -8.489481,-4.972393 z"
     id="path28" />
</svg>
