<?xml version="1.0" encoding="UTF-8" standalone="no"?>
<svg
   xmlns:dc="http://purl.org/dc/elements/1.1/"
   xmlns:cc="http://creativecommons.org/ns#"
   xmlns:rdf="http://www.w3.org/1999/02/22-rdf-syntax-ns#"
   xmlns:svg="http://www.w3.org/2000/svg"
   xmlns="http://www.w3.org/2000/svg"
   xmlns:sodipodi="http://sodipodi.sourceforge.net/DTD/sodipodi-0.dtd"
   xmlns:inkscape="http://www.inkscape.org/namespaces/inkscape"
   width="64"
   height="64"
   version="1.1"
   id="svg73"
   sodipodi:docname="org.gna.Warmux.svg"
   inkscape:version="1.0.2 (e86c870879, 2021-01-15)">
  <metadata
     id="metadata77">
    <rdf:RDF>
      <cc:Work
         rdf:about="">
        <dc:format>image/svg+xml</dc:format>
        <dc:type
           rdf:resource="http://purl.org/dc/dcmitype/StillImage" />
        <dc:title />
      </cc:Work>
    </rdf:RDF>
  </metadata>
  <sodipodi:namedview
     pagecolor="#ffffff"
     bordercolor="#666666"
     borderopacity="1"
     objecttolerance="10"
     gridtolerance="10"
     guidetolerance="10"
     inkscape:pageopacity="0"
     inkscape:pageshadow="2"
     inkscape:window-width="1920"
     inkscape:window-height="996"
     id="namedview75"
     showgrid="false"
     inkscape:zoom="12.578125"
     inkscape:cx="32"
     inkscape:cy="22.459627"
     inkscape:window-x="0"
     inkscape:window-y="0"
     inkscape:window-maximized="1"
     inkscape:current-layer="svg73"
     inkscape:document-rotation="0" />
  <defs
     id="defs29">
    <linearGradient
       id="b"
       x1="399.57"
       x2="399.57"
       y1="545.8"
       y2="517.8"
       gradientTransform="matrix(2.1429,0,0,2.1429,-826.36,-1107.5)"
       gradientUnits="userSpaceOnUse">
      <stop
         stop-color="#3889e9"
         offset="0"
         id="stop2" />
      <stop
         stop-color="#5ea5fb"
         offset="1"
         id="stop4" />
    </linearGradient>
    <linearGradient
       id="linearGradient862"
       x1="7.9373"
       x2="7.9373"
       y1="15.081"
       y2="1.852"
       gradientTransform="matrix(3.3743 0 0 3.3743 3.4312 3.4278)"
       gradientUnits="userSpaceOnUse">
      <stop
         stop-color="#f1efeb"
         offset="0"
         id="stop7" />
      <stop
         stop-color="#fff"
         offset="1"
         id="stop9" />
    </linearGradient>
    <linearGradient
       id="linearGradient910"
       x1="7.9373"
       x2="7.9373"
       y1="15.081"
       y2="1.852"
       gradientTransform="scale(3.7796)"
       gradientUnits="userSpaceOnUse">
      <stop
         stop-color="#613583"
         offset="0"
         id="stop12" />
      <stop
         stop-color="#a663c0"
         offset="1"
         id="stop14" />
    </linearGradient>
    <linearGradient
       id="linearGradient932"
       x1="379.24"
       x2="374.24"
       y1="546.85"
       y2="546.85"
       gradientTransform="matrix(2.1429 0 0 2.1429 -769.68 -1134.5)"
       gradientUnits="userSpaceOnUse">
      <stop
         stop-color="#f6f5f4"
         offset="0"
         id="stop17" />
      <stop
         stop-color="#fff"
         offset=".6"
         id="stop19" />
      <stop
         stop-color="#dddbd8"
         offset="1"
         id="stop21" />
    </linearGradient>
    <linearGradient
       id="linearGradient1146"
       x1="18"
       x2="18"
       y1="52"
       y2="12"
       gradientUnits="userSpaceOnUse">
      <stop
         stop-color="#5e337f"
         offset="0"
         id="stop24" />
      <stop
         stop-color="#ab60bf"
         offset="1"
         id="stop26" />
    </linearGradient>
  </defs>
  <circle
     cx="32.02"
     cy="32.044"
     r="30.001"
     fill-opacity="0"
     stroke-width="1.5715"
     id="circle39" />
  <circle
     cx="32.02"
     cy="32.044"
     r="0"
     fill="url(#b)"
     stroke-width="1.5715"
     id="circle41" />
  <rect
     style="fill:#29292a;stroke-width:1.12694"
     width="4.6548729"
     height="13.095815"
     x="45.07103"
     y="-20.913651"
     rx="0.61095202"
     ry="0.58276373"
     transform="matrix(0.89174519,0.45253787,-0.54900551,0.83581873,0,0)"
     id="rect4" />
  <path
     style="fill:#29292a;stroke-width:1.12343"
     d="M 44.096238,7.4247671 C 43.329343,7.0356955 42.356344,7.2650778 41.912984,7.9387505 L 39.741113,11.24532 A 28.758569,25.277961 0 0 0 7.9485138,23.134385 28.758569,25.277961 0 0 0 18.474153,57.664081 28.758569,25.277961 0 0 0 57.758356,48.412346 28.758569,25.277961 0 0 0 53.573985,18.272593 l 2.174985,-3.311204 c 0.442571,-0.673761 0.18174,-1.529359 -0.584804,-1.918343 L 44.094993,7.4256518 Z"
     id="path6" />
  <path
     style="opacity:0.85;fill:#f2f2f2;stroke-width:1.12343"
     d="m 30.42493,16.814253 c -0.423623,-0.0026 -0.809329,0.01076 -1.146756,0.03703 -3.175298,0.248279 -7.315774,2.734045 -10.826313,6.504663 -3.393429,3.64485 -4.372996,6.557224 -2.925403,8.701679 1.630222,2.415008 3.518084,3.788363 6.150359,4.480439 2.251904,0.592079 2.924882,0.95125 4.853824,2.591992 3.113607,2.648442 4.186318,2.946389 10.732704,2.962274 2.765198,0.0073 6.094712,-0.09237 7.400087,-0.218058 1.930038,-0.185731 2.744828,-0.402528 4.338951,-1.168452 4.22871,-2.031762 4.910418,-3.412786 3.664943,-7.393344 -0.388461,-1.24144 -1.023002,-3.864593 -1.408873,-5.829915 -0.385839,-1.965323 -0.870927,-3.878187 -1.081227,-4.25004 C 49.241229,21.57759 46.229586,19.984679 41.04062,18.398259 38.196873,17.528826 33.390372,16.83278 30.42493,16.814265 Z m -1.839487,8.426028 c 2.515484,0.09298 3.083657,2.031715 3.070496,3.690498 0,2.342327 -0.383681,3.247561 -1.75992,4.14307 -1.027918,0.668814 -3.540475,0.806595 -4.292147,0.234515 -0.785416,-0.597782 -1.137391,-1.717067 -1.137391,-3.616444 0,-2.860418 1.470024,-4.450807 4.118962,-4.451639 z m 12.764099,0 h 0.0046 c 0.620717,-0.0094 1.284099,0.164005 2.078203,0.514281 0.821631,0.362449 1.743453,0.948579 2.05012,1.30011 0.731402,0.838402 0.735162,2.724992 0.0142,4.826038 -1.0903,3.170879 -3.259996,4.449375 -6.24397,3.669929 -1.148258,-0.299941 -2.503486,-1.722182 -2.747535,-2.888215 -0.394352,-1.884109 1.361825,-5.873954 3.014331,-6.850263 0.629543,-0.372046 1.209642,-0.561495 1.829923,-0.57188 z M 20.333475,37.879316 c -1.007692,-0.0054 -2.079051,0.289137 -3.107942,0.888682 -1.261029,0.734837 -3.722737,3.289301 -4.376398,4.546268 -1.236947,2.378671 0.81646,6.054909 3.89897,6.973689 1.084292,0.323198 1.101333,0.32128 2.082886,-0.09462 1.166926,-0.494456 1.739672,-1.159358 3.763231,-4.377585 1.366974,-2.173985 1.731407,-2.98728 1.830131,-4.093696 0.111775,-1.251779 0.03827,-1.472858 -0.753582,-2.369821 -0.855303,-0.968695 -2.041685,-1.466624 -3.337296,-1.472913 z m 9.969759,6.319518 c -2.32605,0 -3.978727,1.284636 -5.055087,3.920899 -0.932887,2.284953 -1.038578,4.224853 -0.266798,4.904211 1.344316,1.18328 6.325601,2.139978 7.84475,1.505822 0.634181,-0.264726 0.83144,-0.658188 1.132717,-2.262848 0.288404,-1.536033 -0.112837,-4.966678 -0.734863,-6.290718 -0.554751,-1.180679 -1.53659,-1.777366 -2.920719,-1.777366 z m 10.915249,0 c -0.208694,-0.0014 -0.450645,0.0099 -0.73954,0.0288 -1.723557,0.115729 -2.655318,0.630799 -3.487077,1.929594 -0.554508,0.865836 -0.605743,1.183066 -0.491468,2.937588 0.142658,2.188582 0.525925,3.309744 1.198245,3.472443 0.722156,0.174707 3.967469,-0.08181 5.392094,-0.427884 1.751939,-0.42554 2.944122,-1.262506 2.944122,-2.061248 0,-0.85277 -2.521997,-4.901312 -3.412185,-5.476095 -0.446345,-0.288215 -0.778401,-0.398555 -1.404191,-0.403195 z"
     id="path10" />
</svg>
