<?xml version="1.0" encoding="UTF-8" standalone="no"?>
<svg
   xmlns:dc="http://purl.org/dc/elements/1.1/"
   xmlns:cc="http://creativecommons.org/ns#"
   xmlns:rdf="http://www.w3.org/1999/02/22-rdf-syntax-ns#"
   xmlns:svg="http://www.w3.org/2000/svg"
   xmlns="http://www.w3.org/2000/svg"
   xmlns:sodipodi="http://sodipodi.sourceforge.net/DTD/sodipodi-0.dtd"
   xmlns:inkscape="http://www.inkscape.org/namespaces/inkscape"
   width="64"
   height="64"
   version="1.1"
   id="svg73"
   sodipodi:docname="org.gnome.Aisleriot.svg"
   inkscape:version="1.0.2 (e86c870879, 2021-01-15)">
  <metadata
     id="metadata77">
    <rdf:RDF>
      <cc:Work
         rdf:about="">
        <dc:format>image/svg+xml</dc:format>
        <dc:type
           rdf:resource="http://purl.org/dc/dcmitype/StillImage" />
        <dc:title />
      </cc:Work>
    </rdf:RDF>
  </metadata>
  <sodipodi:namedview
     pagecolor="#ffffff"
     bordercolor="#666666"
     borderopacity="1"
     objecttolerance="10"
     gridtolerance="10"
     guidetolerance="10"
     inkscape:pageopacity="0"
     inkscape:pageshadow="2"
     inkscape:window-width="1920"
     inkscape:window-height="996"
     id="namedview75"
     showgrid="false"
     inkscape:zoom="12.578125"
     inkscape:cx="32"
     inkscape:cy="27.368009"
     inkscape:window-x="0"
     inkscape:window-y="0"
     inkscape:window-maximized="1"
     inkscape:current-layer="svg73"
     inkscape:document-rotation="0" />
  <defs
     id="defs29">
    <linearGradient
       id="b"
       x1="399.57"
       x2="399.57"
       y1="545.8"
       y2="517.8"
       gradientTransform="matrix(2.1429,0,0,2.1429,-826.36,-1107.5)"
       gradientUnits="userSpaceOnUse">
      <stop
         stop-color="#3889e9"
         offset="0"
         id="stop2" />
      <stop
         stop-color="#5ea5fb"
         offset="1"
         id="stop4" />
    </linearGradient>
    <linearGradient
       id="linearGradient862"
       x1="7.9373"
       x2="7.9373"
       y1="15.081"
       y2="1.852"
       gradientTransform="matrix(3.3743 0 0 3.3743 3.4312 3.4278)"
       gradientUnits="userSpaceOnUse">
      <stop
         stop-color="#f1efeb"
         offset="0"
         id="stop7" />
      <stop
         stop-color="#fff"
         offset="1"
         id="stop9" />
    </linearGradient>
    <linearGradient
       id="linearGradient910"
       x1="7.9373"
       x2="7.9373"
       y1="15.081"
       y2="1.852"
       gradientTransform="scale(3.7796)"
       gradientUnits="userSpaceOnUse">
      <stop
         stop-color="#613583"
         offset="0"
         id="stop12" />
      <stop
         stop-color="#a663c0"
         offset="1"
         id="stop14" />
    </linearGradient>
    <linearGradient
       id="linearGradient932"
       x1="379.24"
       x2="374.24"
       y1="546.85"
       y2="546.85"
       gradientTransform="matrix(2.1429 0 0 2.1429 -769.68 -1134.5)"
       gradientUnits="userSpaceOnUse">
      <stop
         stop-color="#f6f5f4"
         offset="0"
         id="stop17" />
      <stop
         stop-color="#fff"
         offset=".6"
         id="stop19" />
      <stop
         stop-color="#dddbd8"
         offset="1"
         id="stop21" />
    </linearGradient>
    <linearGradient
       id="linearGradient1146"
       x1="18"
       x2="18"
       y1="52"
       y2="12"
       gradientUnits="userSpaceOnUse">
      <stop
         stop-color="#5e337f"
         offset="0"
         id="stop24" />
      <stop
         stop-color="#ab60bf"
         offset="1"
         id="stop26" />
    </linearGradient>
  </defs>
  <circle
     cx="32.02"
     cy="32.044"
     r="30.001"
     fill-opacity="0"
     stroke-width="1.5715"
     id="circle39" />
  <circle
     cx="32.02"
     cy="32.044"
     r="0"
     fill="url(#b)"
     stroke-width="1.5715"
     id="circle41" />
  <rect
     style="fill:#29292a;stroke-width:1.08095"
     width="57.109497"
     height="42.557007"
     x="-60.390366"
     y="-53.249252"
     rx="2.8554749"
     ry="2.8364244"
     transform="matrix(0,-1,-1,0,0,0)"
     id="rect4" />
  <path
     style="opacity:0.85;fill:#f2f2f2;stroke-width:1.08095"
     d="m 27.078823,23.049536 c -3.164114,0 -5.747323,2.453512 -5.747323,5.491298 0,1.581034 0.692678,3.02351 1.804883,4.026879 l 8.69227,8.054638 8.977402,-8.054638 c 1.112866,-1.001611 1.804416,-2.444725 1.804416,-4.02622 0,-3.037786 -2.583209,-5.491298 -5.747323,-5.491298 -2.083166,0 -3.88971,1.056526 -4.891928,2.653396 -1.002218,-1.59687 -2.808763,-2.653396 -4.891928,-2.653396 z"
     id="path6" />
  <path
     style="opacity:0.85;fill:#f2f2f2;stroke-width:1.08095"
     d="m 15.119027,18.656499 c -1.265858,0 -2.29893,0.920342 -2.29893,2.060334 0,0.590864 0.277046,1.133405 0.72198,1.509008 l 3.476695,3.020214 3.591386,-3.020214 c 0.444721,-0.375603 0.721342,-0.918144 0.721342,-1.509008 0,-1.139992 -1.034135,-2.060334 -2.298931,-2.060334 -0.833692,0 -1.555884,0.395374 -1.95677,0.995024 -0.400887,-0.59965 -1.12308,-0.995024 -1.956772,-0.995024 z"
     id="path8" />
  <path
     style="opacity:0.85;fill:#f2f2f2;stroke-width:1.08095"
     d="m 18.671687,15.36172 h -3.191776 l -0.531963,1.098259 H 12.820097 L 15.97272,7.6739022 h 2.167003 l 3.282954,8.7860768 h -2.219029 z m -2.556613,-2.196411 h 2.012201 L 17.075799,9.8704214 16.115287,13.165091 Z"
     id="path10" />
  <path
     style="opacity:0.85;fill:#f2f2f2;stroke-width:1.08095"
     d="m 48.823327,45.01473 c 1.263944,0 2.298078,-0.920343 2.298078,-2.060336 0,-0.590863 -0.276621,-1.133404 -0.721342,-1.509008 l -3.476906,-3.020213 -3.591812,3.020213 c -0.44472,0.375604 -0.721341,0.918145 -0.721341,1.509008 0,1.139993 1.034135,2.060336 2.298078,2.060336 0.834117,0 1.557585,-0.395374 1.957623,-0.995025 0.400035,0.599651 1.123505,0.995025 1.957622,0.995025 z"
     id="path12" />
  <path
     style="opacity:0.85;fill:#f2f2f2;stroke-width:1.08095"
     d="M 48.461592,48.309509 H 45.269818 L 44.737854,47.21125 h -2.12785 l 3.152624,8.786076 h 2.167002 l 3.282954,-8.786076 h -2.219028 z m -2.556612,2.19641 h 2.012203 l -1.051478,3.294888 -0.960513,-3.294669 z"
     id="path14" />
</svg>
