<?xml version="1.0" encoding="UTF-8" standalone="no"?>
<svg
   xmlns:dc="http://purl.org/dc/elements/1.1/"
   xmlns:cc="http://creativecommons.org/ns#"
   xmlns:rdf="http://www.w3.org/1999/02/22-rdf-syntax-ns#"
   xmlns:svg="http://www.w3.org/2000/svg"
   xmlns="http://www.w3.org/2000/svg"
   xmlns:sodipodi="http://sodipodi.sourceforge.net/DTD/sodipodi-0.dtd"
   xmlns:inkscape="http://www.inkscape.org/namespaces/inkscape"
   width="64"
   height="64"
   version="1.1"
   id="svg73"
   sodipodi:docname="plank.svg"
   inkscape:version="1.0.2 (e86c870879, 2021-01-15)">
  <metadata
     id="metadata77">
    <rdf:RDF>
      <cc:Work
         rdf:about="">
        <dc:format>image/svg+xml</dc:format>
        <dc:type
           rdf:resource="http://purl.org/dc/dcmitype/StillImage" />
        <dc:title></dc:title>
      </cc:Work>
    </rdf:RDF>
  </metadata>
  <sodipodi:namedview
     pagecolor="#ffffff"
     bordercolor="#666666"
     borderopacity="1"
     objecttolerance="10"
     gridtolerance="10"
     guidetolerance="10"
     inkscape:pageopacity="0"
     inkscape:pageshadow="2"
     inkscape:window-width="1920"
     inkscape:window-height="996"
     id="namedview75"
     showgrid="false"
     inkscape:zoom="12.578125"
     inkscape:cx="32"
     inkscape:cy="28.819876"
     inkscape:window-x="0"
     inkscape:window-y="0"
     inkscape:window-maximized="1"
     inkscape:current-layer="svg73"
     inkscape:document-rotation="0" />
  <defs
     id="defs29">
    <linearGradient
       id="b"
       x1="399.57"
       x2="399.57"
       y1="545.8"
       y2="517.8"
       gradientTransform="matrix(2.1429,0,0,2.1429,-826.36,-1107.5)"
       gradientUnits="userSpaceOnUse">
      <stop
         stop-color="#3889e9"
         offset="0"
         id="stop2" />
      <stop
         stop-color="#5ea5fb"
         offset="1"
         id="stop4" />
    </linearGradient>
    <linearGradient
       id="linearGradient862"
       x1="7.9373"
       x2="7.9373"
       y1="15.081"
       y2="1.852"
       gradientTransform="matrix(3.3743 0 0 3.3743 3.4312 3.4278)"
       gradientUnits="userSpaceOnUse">
      <stop
         stop-color="#f1efeb"
         offset="0"
         id="stop7" />
      <stop
         stop-color="#fff"
         offset="1"
         id="stop9" />
    </linearGradient>
    <linearGradient
       id="linearGradient910"
       x1="7.9373"
       x2="7.9373"
       y1="15.081"
       y2="1.852"
       gradientTransform="scale(3.7796)"
       gradientUnits="userSpaceOnUse">
      <stop
         stop-color="#613583"
         offset="0"
         id="stop12" />
      <stop
         stop-color="#a663c0"
         offset="1"
         id="stop14" />
    </linearGradient>
    <linearGradient
       id="linearGradient932"
       x1="379.24"
       x2="374.24"
       y1="546.85"
       y2="546.85"
       gradientTransform="matrix(2.1429 0 0 2.1429 -769.68 -1134.5)"
       gradientUnits="userSpaceOnUse">
      <stop
         stop-color="#f6f5f4"
         offset="0"
         id="stop17" />
      <stop
         stop-color="#fff"
         offset=".6"
         id="stop19" />
      <stop
         stop-color="#dddbd8"
         offset="1"
         id="stop21" />
    </linearGradient>
    <linearGradient
       id="linearGradient1146"
       x1="18"
       x2="18"
       y1="52"
       y2="12"
       gradientUnits="userSpaceOnUse">
      <stop
         stop-color="#5e337f"
         offset="0"
         id="stop24" />
      <stop
         stop-color="#ab60bf"
         offset="1"
         id="stop26" />
    </linearGradient>
  </defs>
  <circle
     cx="32.02"
     cy="32.044"
     r="30.001"
     fill-opacity="0"
     stroke-width="1.5715"
     id="circle39" />
  <circle
     cx="32.02"
     cy="32.044"
     r="0"
     fill="url(#b)"
     stroke-width="1.5715"
     id="circle41" />
  <path
     style="opacity:1;fill:#29292a;stroke-width:1.37264"
     d="m 32.351619,2.2706667 c -1.474433,0 -2.80291,0.5693235 -3.828163,1.4787242 -0.110684,0.098177 -0.228531,0.1867864 -0.331488,0.2930552 a 6.1592793,6.1945085 0 0 0 -1.999628,4.5598466 6.1592793,6.1945085 0 0 0 4.221137,5.8745663 v 3.118763 h -8.327323 v 3.901143 h 8.327323 v 15.876116 c 0,1.950109 -2.671425,3.104234 -3.94846,2.935939 -5.724168,-0.754497 -10.370279,-1.99541 -13.043023,-4.487254 l 3.921728,0.198955 -3.344296,-3.134895 -3.344295,-3.134894 C 9.3928318,32.62324 9.24417,35.475634 9.0832307,38.545105 l 2.0718063,-2.051392 c 0.996653,4.128376 14.585319,6.730183 16.504944,8.428726 l 4.691638,4.151181 4.688965,-4.148492 c 1.923503,-1.702446 15.513108,-4.312582 16.49425,-8.444859 l 2.085173,2.064836 c 0,-3.12407 -0.676073,-5.859463 -1.5719,-8.794373 l -3.344296,3.134894 -2.839043,3.134895 3.424497,-0.198955 c -2.666146,2.482485 -7.292257,3.730614 -12.994904,4.487254 -1.293323,0.171609 -4.001927,-0.98583 -4.001927,-2.935939 V 21.496765 h 8.324651 v -3.901143 h -8.324651 v -3.12414 A 6.1592793,6.1945085 0 0 0 38.510899,8.6022927 6.1592793,6.1945085 0 0 0 36.532658,4.0666447 C 35.474671,2.9631755 33.996386,2.2706667 32.351619,2.2706667 Z m 0,4.2667899 c 1.133883,0 2.053093,0.9244285 2.053093,2.0648361 0,1.140409 -0.91921,2.0648363 -2.053093,2.0648363 -1.133881,0 -2.053093,-0.9244273 -2.053093,-2.0648363 0,-1.1404076 0.919212,-2.0648361 2.053093,-2.0648361 z"
     id="path12" />
  <path
     style="fill:#29292a;stroke-width:0.919697"
     d="m 19.206687,52.781808 h -9.13319 c -0.6301652,0 -1.1375028,0.398961 -1.1375028,0.89453 v 7.182311 c 0,0.495569 0.5073376,0.89453 1.1375028,0.89453 h 9.13319 c 0.630181,0 1.13751,-0.398961 1.13751,-0.89453 v -7.182311 c 0,-0.495569 -0.507329,-0.89453 -1.13751,-0.89453 z"
     id="path10" />
  <path
     style="fill:#29292a;stroke-width:0.919697"
     d="m 54.468326,52.781808 h -9.13319 c -0.630164,0 -1.1375,0.398961 -1.1375,0.89453 v 7.182311 c 0,0.495569 0.507336,0.89453 1.1375,0.89453 h 9.13319 c 0.630184,0 1.13751,-0.398961 1.13751,-0.89453 v -7.182311 c 0,-0.495569 -0.507326,-0.89453 -1.13751,-0.89453 z"
     id="path14" />
  <path
     style="fill:#29292a;stroke-width:0.919697"
     d="m 36.837508,52.781808 h -9.133191 c -0.630166,0 -1.137501,0.398961 -1.137501,0.89453 v 7.182311 c 0,0.495569 0.507335,0.89453 1.137501,0.89453 h 9.133191 c 0.630181,0 1.137508,-0.398961 1.137508,-0.89453 v -7.182311 c 0,-0.495569 -0.507327,-0.89453 -1.137508,-0.89453 z"
     id="path16" />
</svg>
