<?xml version="1.0" encoding="UTF-8" standalone="no"?>
<svg
   xmlns:dc="http://purl.org/dc/elements/1.1/"
   xmlns:cc="http://creativecommons.org/ns#"
   xmlns:rdf="http://www.w3.org/1999/02/22-rdf-syntax-ns#"
   xmlns:svg="http://www.w3.org/2000/svg"
   xmlns="http://www.w3.org/2000/svg"
   xmlns:sodipodi="http://sodipodi.sourceforge.net/DTD/sodipodi-0.dtd"
   xmlns:inkscape="http://www.inkscape.org/namespaces/inkscape"
   width="64"
   height="64"
   version="1.1"
   id="svg12"
   sodipodi:docname="postman.svg"
   inkscape:version="1.0.2 (e86c870879, 2021-01-15)">
  <metadata
     id="metadata18">
    <rdf:RDF>
      <cc:Work
         rdf:about="">
        <dc:format>image/svg+xml</dc:format>
        <dc:type
           rdf:resource="http://purl.org/dc/dcmitype/StillImage" />
        <dc:title></dc:title>
      </cc:Work>
    </rdf:RDF>
  </metadata>
  <defs
     id="defs16" />
  <sodipodi:namedview
     pagecolor="#ffffff"
     bordercolor="#666666"
     borderopacity="1"
     objecttolerance="10"
     gridtolerance="10"
     guidetolerance="10"
     inkscape:pageopacity="0"
     inkscape:pageshadow="2"
     inkscape:window-width="1496"
     inkscape:window-height="897"
     id="namedview14"
     showgrid="false"
     inkscape:zoom="12.890625"
     inkscape:cx="32"
     inkscape:cy="32"
     inkscape:window-x="0"
     inkscape:window-y="0"
     inkscape:window-maximized="0"
     inkscape:current-layer="svg12" />
  <path
     style="fill:#29292a;stroke-width:1.85328"
     d="M 54.017429,2.3302419 C 52.288418,2.4051973 50.583155,3.1079309 49.24363,4.4266792 46.302495,7.333927 46.18864,12.132758 49.013295,15.159892 l -0.03161,-0.06043 c 2.21313,2.337784 5.650547,2.935432 8.504322,1.496797 l -5.067372,-5.182994 c -0.174718,-0.209784 -0.174718,-0.510713 0,-0.720508 L 58.94027,4.0083078 C 57.498825,2.8094554 55.746442,2.2553113 54.017429,2.3302419 Z m 5.622874,2.3660466 -6.20097,6.3869315 4.86413,5.00171 c 0.407684,-0.269733 0.75707,-0.595352 1.106508,-0.925038 2.82466,-2.87728 2.90939,-7.4964125 0.230336,-10.4636035 z m -0.33418,3.8442461 c 0.154978,-5.981e-4 0.301905,0.073404 0.39293,0.2045512 0.524157,1.0190338 0.38024,2.2452652 -0.347745,3.1144412 -0.08734,0.119903 -0.265367,0.209186 -0.410991,0.209186 -0.116493,0.0299 -0.262867,0.0299 -0.379376,0 l -0.02683,-0.02766 c -0.203869,-0.209783 -0.17674,-0.571132 0.02683,-0.780934 0.436805,-0.509513 0.498952,-1.25529 0.207765,-1.8547229 0,-0.029899 -0.03162,-0.030648 -0.03162,-0.060435 -0.116455,-0.2697325 0.03162,-0.6006213 0.293561,-0.7205076 0.08734,-0.056175 0.182547,-0.083308 0.275476,-0.083682 z M 44.75439,13.783953 C 41.62716,13.524051 36.490104,17.0364 23.211318,30.680972 l 3.843425,3.96046 17.997727,-18.523969 c 0.640645,-0.659374 1.486431,-1.02058 2.389155,-1.050541 -0.822641,-0.689348 -1.644827,-1.19633 -2.687235,-1.282969 z m 2.741434,2.431127 c -0.640645,0 -1.279893,0.24454 -1.774931,0.7391 L 27.78188,35.296859 30.19814,37.904625 49.157848,20.700811 c 0.524162,-0.479547 0.815447,-1.135405 0.844561,-1.854724 0.02904,-0.689342 -0.232099,-1.38239 -0.727136,-1.891907 -0.495042,-0.49453 -1.138807,-0.7391 -1.779449,-0.7391 z m 2.795629,4.63913 c -0.145605,0.209784 -0.317566,0.389346 -0.492283,0.539214 l -18.959706,17.171277 3.378239,3.47702 C 42.05102,34.339019 49.679928,26.428924 50.291453,20.85421 Z m -27.780173,10.426415 -4.7467,4.88549 -0.08579,0.120878 c -0.08738,0.08991 -0.114945,0.182237 -0.08579,0.302136 0.02904,0.179846 0.200155,0.299556 0.374859,0.269582 L 26.0928,35.059773 Z m 4.602179,4.88549 -2.709821,2.789053 c -0.05826,0.08992 -0.05826,0.212213 0,0.302138 0.08738,0.05995 0.174609,0.05995 0.261949,0 l 4.457652,-1.171408 z m 2.854346,2.849481 -7.366195,1.617653 -15.2020927,15.674481 4.9499357,5.248069 c 0.145602,0.149909 0.40789,0.149909 0.582612,0 0.174681,-0.119896 0.293084,-0.359881 0.234856,-0.599647 l -0.817466,-3.597878 c -0.08734,-0.419605 0.118261,-0.840745 0.496805,-1.050544 h 0.02683 V 56.2473 C 20.269615,52.620734 27.200359,48.036252 33.490312,42.641365 Z M 6.6136555,57.056128 2.7973241,61.016585 c -0.029117,0.08991 -0.029117,0.205523 0,0.32542 0.029117,0.08991 0.1454761,0.183883 0.2619488,0.21382 l 8.5043081,0.567092 z"
     id="path8" />
</svg>
