<?xml version="1.0" encoding="UTF-8" standalone="no"?>
<svg
   xmlns:dc="http://purl.org/dc/elements/1.1/"
   xmlns:cc="http://creativecommons.org/ns#"
   xmlns:rdf="http://www.w3.org/1999/02/22-rdf-syntax-ns#"
   xmlns:svg="http://www.w3.org/2000/svg"
   xmlns="http://www.w3.org/2000/svg"
   xmlns:sodipodi="http://sodipodi.sourceforge.net/DTD/sodipodi-0.dtd"
   xmlns:inkscape="http://www.inkscape.org/namespaces/inkscape"
   width="64"
   height="64"
   version="1"
   id="svg22"
   sodipodi:docname="preferences-desktop-locale.svg"
   inkscape:version="1.0.2 (e86c870879, 2021-01-15)">
  <metadata
     id="metadata28">
    <rdf:RDF>
      <cc:Work
         rdf:about="">
        <dc:format>image/svg+xml</dc:format>
        <dc:type
           rdf:resource="http://purl.org/dc/dcmitype/StillImage" />
        <dc:title></dc:title>
      </cc:Work>
    </rdf:RDF>
  </metadata>
  <defs
     id="defs26" />
  <sodipodi:namedview
     pagecolor="#ffffff"
     bordercolor="#666666"
     borderopacity="1"
     objecttolerance="10"
     gridtolerance="10"
     guidetolerance="10"
     inkscape:pageopacity="0"
     inkscape:pageshadow="2"
     inkscape:window-width="1440"
     inkscape:window-height="934"
     id="namedview24"
     showgrid="false"
     inkscape:zoom="12.890625"
     inkscape:cx="32"
     inkscape:cy="28.89697"
     inkscape:window-x="265"
     inkscape:window-y="28"
     inkscape:window-maximized="0"
     inkscape:current-layer="svg22" />
  <path
     style="fill:#676767"
     d="M 41.986,22 42,60 H 7.014 C 4.0144,60 4,57.488 4,57.488 V 25 C 4,25 4,22 7,22 Z"
     id="path2" />
  <path
     style="opacity:1;fill:#e6e6e6"
     d="M 19.143,30.763 C 19.969,31.335 20.73,32.033 21.429,32.858 L 20.191,34.38 C 19.428,33.428 18.634,32.634 17.809,32 L 19.142,30.763 M 19.142,36.762 C 19.904,37.334 20.634,37.969 21.333,38.667 L 20.095,40.286 C 19.396,39.396 18.634,38.634 17.809,38 L 19.142,36.762 M 19.523,43.333 21.047,44.381 C 20.285,46.983 19.174,49.491 17.714,51.903 L 16.095,50.665 C 17.555,48.316 18.698,45.871 19.523,43.332 M 23.999,30 25.808,30.381 C 25.681,31.016 25.491,31.619 25.237,32.19 H 32.666 V 33.905 H 24.475 L 23.618,35.333 C 23.364,35.841 22.951,36.381 22.38,36.952 L 21.237,35.619 C 22.443,34.159 23.364,32.286 23.999,30 M 23.523,35.905 H 32.285 C 32.285,37.873 32.253,39.714 32.19,41.428 H 33.428 V 43.142 H 32.094 C 31.967,44.476 31.872,45.777 31.809,47.047 H 33.237 V 48.666 H 31.618 C 31.364,50.888 30.474,52 28.95,52 28.569,52 28.029,51.936 27.331,51.81 L 27.045,50.191 C 27.871,50.317 28.506,50.381 28.95,50.381 29.395,50.381 29.68,49.81 29.807,48.667 H 22.379 C 22.633,46.953 22.855,45.111 23.045,43.143 H 21.712 V 41.429 H 23.236 C 23.363,39.651 23.458,37.81 23.522,35.905 M 24.95,41.429 H 30.379 C 30.442,40.096 30.474,38.794 30.474,37.524 H 25.236 C 25.172,38.921 25.077,40.223 24.95,41.429 M 27.334,38.001 C 28.033,38.446 28.668,38.953 29.239,39.525 L 28.096,40.953 C 27.525,40.318 26.89,39.747 26.192,39.239 L 27.333,38.001 M 30,47.048 C 30.127,45.715 30.222,44.414 30.286,43.144 H 24.857 C 24.73,44.541 24.571,45.842 24.381,47.048 H 30 M 27.048,43.62 C 27.81,44.064 28.508,44.572 29.143,45.144 L 27.905,46.572 C 27.27,45.874 26.603,45.271 25.905,44.763 L 27.048,43.62 M 17.048,32.287 V 47.239 H 15.333 V 45.62 H 13.714 V 48.096 H 12 V 32.287 H 17.048 M 13.714,44.001 H 15.333 V 33.906 H 13.714 V 44.001"
     id="path6" />
  <path
     style="fill:#29292a"
     d="M 22,4.001 V 42 H 56.987 C 59.986,42 60,39.487 60,39.487 L 59.986,6.9999 C 59.986,6.9999 59.986,4 56.987,4 Z"
     id="path12" />
  <path
     style="fill:#e6e6e6"
     d="M 38.421,25 C 39.272,21.937 40.044,18.754 40.682,16 H 40.817 C 41.61,19.28 42.327,21.863 43.112,25 H 38.421 M 45.475,34 H 50.739 L 43.856,12 H 37.883 L 31,34 H 36.061 L 37.411,29 H 44.126 L 45.476,34"
     id="path16" />
</svg>
