<?xml version="1.0" encoding="UTF-8" standalone="no"?>
<svg
   xmlns:dc="http://purl.org/dc/elements/1.1/"
   xmlns:cc="http://creativecommons.org/ns#"
   xmlns:rdf="http://www.w3.org/1999/02/22-rdf-syntax-ns#"
   xmlns:svg="http://www.w3.org/2000/svg"
   xmlns="http://www.w3.org/2000/svg"
   xmlns:sodipodi="http://sodipodi.sourceforge.net/DTD/sodipodi-0.dtd"
   xmlns:inkscape="http://www.inkscape.org/namespaces/inkscape"
   width="64"
   height="64"
   version="1.1"
   id="svg73"
   sodipodi:docname="remmina.svg"
   inkscape:version="1.0.2 (e86c870879, 2021-01-15)">
  <metadata
     id="metadata77">
    <rdf:RDF>
      <cc:Work
         rdf:about="">
        <dc:format>image/svg+xml</dc:format>
        <dc:type
           rdf:resource="http://purl.org/dc/dcmitype/StillImage" />
        <dc:title />
      </cc:Work>
    </rdf:RDF>
  </metadata>
  <sodipodi:namedview
     pagecolor="#ffffff"
     bordercolor="#666666"
     borderopacity="1"
     objecttolerance="10"
     gridtolerance="10"
     guidetolerance="10"
     inkscape:pageopacity="0"
     inkscape:pageshadow="2"
     inkscape:window-width="1920"
     inkscape:window-height="996"
     id="namedview75"
     showgrid="false"
     inkscape:zoom="12.578125"
     inkscape:cx="15.900621"
     inkscape:cy="25.639752"
     inkscape:window-x="0"
     inkscape:window-y="0"
     inkscape:window-maximized="1"
     inkscape:current-layer="svg73"
     inkscape:document-rotation="0" />
  <defs
     id="defs29">
    <linearGradient
       id="b"
       x1="399.57"
       x2="399.57"
       y1="545.8"
       y2="517.8"
       gradientTransform="matrix(2.1429,0,0,2.1429,-826.36,-1107.5)"
       gradientUnits="userSpaceOnUse">
      <stop
         stop-color="#3889e9"
         offset="0"
         id="stop2" />
      <stop
         stop-color="#5ea5fb"
         offset="1"
         id="stop4" />
    </linearGradient>
    <linearGradient
       id="linearGradient862"
       x1="7.9373"
       x2="7.9373"
       y1="15.081"
       y2="1.852"
       gradientTransform="matrix(3.3743 0 0 3.3743 3.4312 3.4278)"
       gradientUnits="userSpaceOnUse">
      <stop
         stop-color="#f1efeb"
         offset="0"
         id="stop7" />
      <stop
         stop-color="#fff"
         offset="1"
         id="stop9" />
    </linearGradient>
    <linearGradient
       id="linearGradient910"
       x1="7.9373"
       x2="7.9373"
       y1="15.081"
       y2="1.852"
       gradientTransform="scale(3.7796)"
       gradientUnits="userSpaceOnUse">
      <stop
         stop-color="#613583"
         offset="0"
         id="stop12" />
      <stop
         stop-color="#a663c0"
         offset="1"
         id="stop14" />
    </linearGradient>
    <linearGradient
       id="linearGradient932"
       x1="379.24"
       x2="374.24"
       y1="546.85"
       y2="546.85"
       gradientTransform="matrix(2.1429 0 0 2.1429 -769.68 -1134.5)"
       gradientUnits="userSpaceOnUse">
      <stop
         stop-color="#f6f5f4"
         offset="0"
         id="stop17" />
      <stop
         stop-color="#fff"
         offset=".6"
         id="stop19" />
      <stop
         stop-color="#dddbd8"
         offset="1"
         id="stop21" />
    </linearGradient>
    <linearGradient
       id="linearGradient1146"
       x1="18"
       x2="18"
       y1="52"
       y2="12"
       gradientUnits="userSpaceOnUse">
      <stop
         stop-color="#5e337f"
         offset="0"
         id="stop24" />
      <stop
         stop-color="#ab60bf"
         offset="1"
         id="stop26" />
    </linearGradient>
    <linearGradient
       id="l"
       x1="8.4666996"
       x2="8.4666996"
       y1="-2.9203"
       y2="19.84"
       gradientTransform="matrix(1.5911781,0,0,1.6527253,18.876293,17.874967)"
       gradientUnits="userSpaceOnUse">
      <stop
         stop-color="#ccc"
         offset="0"
         id="stop17-3" />
      <stop
         stop-color="#ebebeb"
         offset="1"
         id="stop19-6" />
    </linearGradient>
  </defs>
  <circle
     cx="32.02"
     cy="32.044"
     r="30.001"
     fill-opacity="0"
     stroke-width="1.5715"
     id="circle39" />
  <circle
     cx="32.02"
     cy="32.044"
     r="0"
     fill="url(#b)"
     stroke-width="1.5715"
     id="circle41" />
  <polygon
     style="fill:#29292a"
     class="st1"
     transform="matrix(0.78271584,0,0,0.78911231,2.6146027,0.3168099)"
     points="20.62,38.83 20.62,48.01 43.32,32.88 20.62,17.74 20.62,26.92 29.55,32.88 "
     id="polygon6" />
  <polygon
     style="fill:#29292a"
     class="st2"
     transform="matrix(0.78268134,0,0,0.78907752,1.9531851,3.4079757)"
     points="46.46,44.1 55.39,38.14 55.39,28.96 32.69,44.1 55.39,59.23 55.39,50.05 "
     id="polygon10" />
  <path
     style="fill:#29292a;stroke-width:1.02538"
     d="m 57.939035,17.819597 -4.980239,3.341452 A 23.692286,23.885903 0 0 1 55.720773,32.232187 23.692286,23.885903 0 0 1 32.028488,56.11809 23.692286,23.885903 0 0 1 13.799425,47.426195 l -4.9628856,3.329796 c 5.4290916,6.895655 13.8012666,11.333574 23.1919486,11.333574 16.329781,0 29.615359,-13.393361 29.615359,-29.857378 0,-5.227162 -1.353426,-10.134955 -3.704812,-14.41259 z"
     id="path14" />
  <path
     style="fill:#29292a;stroke-width:1.02538"
     d="m 32.028488,2.3748072 c -16.330549,0 -29.6153577,13.3933618 -29.6153577,29.8573798 0,4.858845 1.1610007,9.447183 3.2131525,13.50581 L 10.629658,42.381945 A 23.692286,23.885903 0 0 1 8.3362031,32.232187 23.692286,23.885903 0 0 1 32.028488,8.3462828 23.692286,23.885903 0 0 1 49.583686,16.250911 L 54.575494,12.90361 C 49.13971,6.4674303 41.049472,2.3748072 32.028488,2.3748072 Z"
     id="path18" />
</svg>
