<?xml version="1.0" encoding="UTF-8" standalone="no"?>
<svg
   xmlns:dc="http://purl.org/dc/elements/1.1/"
   xmlns:cc="http://creativecommons.org/ns#"
   xmlns:rdf="http://www.w3.org/1999/02/22-rdf-syntax-ns#"
   xmlns:svg="http://www.w3.org/2000/svg"
   xmlns="http://www.w3.org/2000/svg"
   xmlns:sodipodi="http://sodipodi.sourceforge.net/DTD/sodipodi-0.dtd"
   xmlns:inkscape="http://www.inkscape.org/namespaces/inkscape"
   width="64"
   height="64"
   version="1.1"
   id="svg18"
   sodipodi:docname="rocketchat-desktop.svg"
   inkscape:version="1.0.2 (e86c870879, 2021-01-15)">
  <metadata
     id="metadata24">
    <rdf:RDF>
      <cc:Work
         rdf:about="">
        <dc:format>image/svg+xml</dc:format>
        <dc:type
           rdf:resource="http://purl.org/dc/dcmitype/StillImage" />
        <dc:title></dc:title>
      </cc:Work>
    </rdf:RDF>
  </metadata>
  <defs
     id="defs22" />
  <sodipodi:namedview
     pagecolor="#ffffff"
     bordercolor="#666666"
     borderopacity="1"
     objecttolerance="10"
     gridtolerance="10"
     guidetolerance="10"
     inkscape:pageopacity="0"
     inkscape:pageshadow="2"
     inkscape:window-width="1718"
     inkscape:window-height="917"
     id="namedview20"
     showgrid="false"
     inkscape:zoom="12.890625"
     inkscape:cx="32"
     inkscape:cy="25.793939"
     inkscape:window-x="57"
     inkscape:window-y="551"
     inkscape:window-maximized="0"
     inkscape:current-layer="svg18" />
  <path
     style="fill:#29292a"
     d="M 30,32 C 30,47.463972 17.463973,60 2,60 10.4,50.2 9,13.799999 2,4 17.463973,4 30,16.536026 30,32 Z"
     id="path4" />
  <ellipse
     style="fill:#29292a"
     cx="32"
     cy="32"
     rx="30"
     ry="20"
     id="ellipse6" />
  <path
     style="fill:#ffffff;opacity:0.85"
     d="M 32,16 C 24.436316,16 17.651506,18.0891 13.003906,21.1875 8.3577592,24.284932 6.001473,28.09584 6,31.996094 c 0.0099,2.817942 1.252715,5.69631 4.050781,8.414062 a 4.0004,4.0004 0 0 1 1.191407,3.300782 c -0.432268,4.004714 -1.078989,7.744074 -2.1406256,11.085938 4.0564106,-1.271584 7.6895906,-3.480812 10.5156256,-6.54297 a 4.0004,4.0004 0 0 1 3.8125,-1.191406 c 2.74881,0.613708 5.653504,0.9319 8.578124,0.9375 7.56038,-0.0015 14.342366,-2.090222 18.988282,-5.1875 C 55.643694,39.7141 58,35.901528 58,32 58,28.098472 55.643694,24.2859 50.996094,21.1875 46.348494,18.0891 39.563684,16 32,16 Z"
     id="path10" />
  <path
     style="fill:#29292a"
     d="m 20,28 a 4,4 0 0 0 -4,4 4,4 0 0 0 4,4 4,4 0 0 0 4,-4 4,4 0 0 0 -4,-4 z m 12,0 a 4,4 0 0 0 -4,4 4,4 0 0 0 4,4 4,4 0 0 0 4,-4 4,4 0 0 0 -4,-4 z m 12,0 a 4,4 0 0 0 -4,4 4,4 0 0 0 4,4 4,4 0 0 0 4,-4 4,4 0 0 0 -4,-4 z"
     id="path14" />
</svg>
