<?xml version="1.0" encoding="UTF-8" standalone="no"?>
<svg
   xmlns:dc="http://purl.org/dc/elements/1.1/"
   xmlns:cc="http://creativecommons.org/ns#"
   xmlns:rdf="http://www.w3.org/1999/02/22-rdf-syntax-ns#"
   xmlns:svg="http://www.w3.org/2000/svg"
   xmlns="http://www.w3.org/2000/svg"
   xmlns:sodipodi="http://sodipodi.sourceforge.net/DTD/sodipodi-0.dtd"
   xmlns:inkscape="http://www.inkscape.org/namespaces/inkscape"
   width="64"
   height="64"
   version="1.1"
   id="svg16"
   sodipodi:docname="scummvm.svg"
   inkscape:version="1.0.2 (e86c870879, 2021-01-15)">
  <metadata
     id="metadata22">
    <rdf:RDF>
      <cc:Work
         rdf:about="">
        <dc:format>image/svg+xml</dc:format>
        <dc:type
           rdf:resource="http://purl.org/dc/dcmitype/StillImage" />
        <dc:title></dc:title>
      </cc:Work>
    </rdf:RDF>
  </metadata>
  <defs
     id="defs20" />
  <sodipodi:namedview
     pagecolor="#ffffff"
     bordercolor="#666666"
     borderopacity="1"
     objecttolerance="10"
     gridtolerance="10"
     guidetolerance="10"
     inkscape:pageopacity="0"
     inkscape:pageshadow="2"
     inkscape:window-width="1704"
     inkscape:window-height="996"
     id="namedview18"
     showgrid="false"
     inkscape:zoom="12.890625"
     inkscape:cx="32"
     inkscape:cy="31.703395"
     inkscape:window-x="0"
     inkscape:window-y="0"
     inkscape:window-maximized="0"
     inkscape:current-layer="g14" />
  <g
     transform="translate(0,-988.3622)"
     id="g14">
    <path
       style="fill:#29292a;stroke-width:1.02768"
       d="m 31.843052,990.54002 c -6.444333,0.0919 -13.276905,3.54409 -16.919002,10.73208 -0.03322,0.066 -0.06537,0.1324 -0.09641,0.2008 -1.386687,2.9796 -1.693058,5.9366 -1.693058,8.7542 0,3.2407 0.801413,6.3172 2.086431,8.842 0.07222,0.1432 0.149412,0.2814 0.231398,0.4172 0.477989,0.7911 1.062241,1.2432 1.561932,1.9279 -2.318027,1.2767 -2.605031,2.4592 -2.87704,2.8749 h -0.0039 c -0.601827,0.9194 -1.529457,2.248 -2.379536,3.555 -0.42504,0.6535 -0.832178,1.298 -1.226406,2.0199 -0.394227,0.7217 -0.9370649,0.9983 -1.2225493,3.5592 -0.4771273,2.665 0.6860632,4.1179 1.8781743,5.9294 0.6368,0.8669 1.358975,1.7087 2.19442,2.5909 1.644079,1.7366 3.521938,3.5387 6.124316,4.8989 3.653295,2.0972 8.229091,3.5133 13.232071,3.5133 2.386195,0 4.855159,-0.3029 7.323726,-1.0305 h 0.0077 c 2.419966,-0.7159 4.808456,-1.8078 6.984343,-3.4633 2.220406,-1.6894 4.075882,-3.9015 5.433984,-6.4635 1.554222,-2.9312 2.194421,-6.2388 2.194421,-9.5597 0,-2.7331 -0.510644,-5.3677 -1.419236,-7.8615 -0.105362,-0.5473 -0.276511,-1.0775 -0.509074,-1.5769 h -0.0039 c -0.823166,-1.7454 -2.04078,-3.2256 -3.243421,-4.7026 0.402316,-0.5027 0.819845,-1.0067 1.075997,-1.5315 0.03462,-0.07 0.06807,-0.141 0.100279,-0.2137 -0.343999,0.7721 1.185019,-1.8397 2.294693,-3.6927 0.04208,-0.068 0.669705,-0.7349 1.214836,-2.5789 0.545832,-1.846 -0.07012,-5.9799 -1.932168,-7.80703 -1.881047,-1.84578 -4.735052,-4.53705 -8.947363,-6.48021 -2.766183,-1.34564 -6.589056,-2.84979 -11.384751,-2.84979 v 0 c -0.027,-2.2e-4 -0.05398,-2.2e-4 -0.08098,0 z"
       id="path4" />
    <path
       style="fill:#ffffff;stroke-width:1.02768;opacity:0.85"
       d="m 47.458967,1023.3069 c 0.85688,1.8179 1.286598,4.0198 1.286598,6.5331 0,2.4237 -0.471043,4.5945 -1.412286,6.367 -0.94152,1.7735 -2.198842,3.2676 -3.705671,4.4122 -1.50626,1.1449 -3.245953,1.9605 -5.149374,2.5225 -1.904832,0.5606 -3.852868,0.8052 -5.777238,0.8052 -3.850431,0 -7.996222,-1.2967 -10.611304,-2.8214 -2.984685,-1.5261 -7.041712,-6.2092 -6.960672,-6.9347 0.105349,-0.9437 2.398251,-4.0793 3.788125,-6.1999 0.67691,-1.0328 0.945189,-1.5206 1.959266,-0.5557 1.267312,1.6672 3.027389,2.7385 4.649929,3.6343 1.422401,0.728 4.427349,1.775 6.001755,1.9875 1.317989,0.2094 3.286601,0.2094 3.429864,-2.016 0,-0.8517 -0.665023,-1.6274 -1.521901,-2.3915 -0.858009,-0.7623 -1.43195,-1.4142 -2.70807,-2.2454 -5.062162,-4.2564 -7.79732,-6.1773 -10.368074,-10.4259 -0.858006,-1.6832 -1.354021,-3.5518 -1.354021,-5.7516 0,-2.1546 0.309343,-4.2556 1.062619,-5.8717 2.446826,-4.82161 7.391989,-7.34282 11.820387,-7.40606 3.783597,0 6.559511,1.09784 9.049178,2.31298 3.362337,1.54068 5.501784,3.55878 7.329115,5.34908 0.71227,0.6978 0.09745,1.54 -0.273887,2.159 -0.933252,1.5561 -2.253588,3.4749 -2.665561,4.398 -0.327914,0.6711 -0.934034,0.9233 -1.436782,0.4557 0,0 -1.242737,-1.1321 -2.246817,-1.8289 -2.666217,-1.599 -5.433717,-3.9539 -8.253986,-4.2475 -0.753274,0 -1.510094,0.2379 -1.865076,0.6416 -0.356113,0.4043 -0.485072,1.2175 -0.466448,1.8457 0.03355,1.1324 0.328115,1.3432 1.320701,2.3637 0.856877,0.6962 1.532222,1.1971 3.266048,2.1905 1.296029,0.7422 2.886235,1.7855 4.372119,2.7054 1.485027,0.9204 2.977366,2.1036 4.275001,3.4048 1.29735,1.3031 2.307877,2.7902 3.166455,4.6077 z"
       id="path8" />
  </g>
</svg>
