<?xml version="1.0" encoding="UTF-8" standalone="no"?>
<svg
   xmlns:dc="http://purl.org/dc/elements/1.1/"
   xmlns:cc="http://creativecommons.org/ns#"
   xmlns:rdf="http://www.w3.org/1999/02/22-rdf-syntax-ns#"
   xmlns:svg="http://www.w3.org/2000/svg"
   xmlns="http://www.w3.org/2000/svg"
   xmlns:sodipodi="http://sodipodi.sourceforge.net/DTD/sodipodi-0.dtd"
   xmlns:inkscape="http://www.inkscape.org/namespaces/inkscape"
   width="64"
   height="64"
   version="1"
   id="svg18"
   sodipodi:docname="slack.svg"
   inkscape:version="1.0.2 (e86c870879, 2021-01-15)">
  <metadata
     id="metadata24">
    <rdf:RDF>
      <cc:Work
         rdf:about="">
        <dc:format>image/svg+xml</dc:format>
        <dc:type
           rdf:resource="http://purl.org/dc/dcmitype/StillImage" />
        <dc:title />
      </cc:Work>
    </rdf:RDF>
  </metadata>
  <defs
     id="defs22" />
  <sodipodi:namedview
     pagecolor="#ffffff"
     bordercolor="#666666"
     borderopacity="1"
     objecttolerance="10"
     gridtolerance="10"
     guidetolerance="10"
     inkscape:pageopacity="0"
     inkscape:pageshadow="2"
     inkscape:window-width="1488"
     inkscape:window-height="966"
     id="namedview20"
     showgrid="false"
     inkscape:zoom="12.890625"
     inkscape:cx="32"
     inkscape:cy="22.690909"
     inkscape:window-x="0"
     inkscape:window-y="0"
     inkscape:window-maximized="0"
     inkscape:current-layer="svg18"
     inkscape:document-rotation="0" />
  <path
     style="fill:#29292a;stroke-width:1.44395"
     d="m 55.603348,18.384642 a 5.7408003,5.8110043 0 0 1 5.7408,5.811004 5.7408003,5.8110043 0 0 1 -5.7408,5.811004 h -5.740801 v -5.811004 a 5.7408003,5.8110043 0 0 1 5.740801,-5.811004 z M 39.816147,2.4043797 a 5.7408003,5.8110043 0 0 0 -5.7408,5.8110043 v 15.980262 a 5.7408003,5.8110043 0 0 0 5.7408,5.811004 5.7408003,5.8110043 0 0 0 5.7408,-5.811004 V 8.215384 a 5.7408003,5.8110043 0 0 0 -5.7408,-5.8110043 z"
     id="path10" />
  <path
     style="fill:#29292a;stroke-width:1.44395"
     d="m 39.816147,61.967173 a 5.7408003,5.8110043 0 0 0 5.7408,-5.811004 5.7408003,5.8110043 0 0 0 -5.7408,-5.811004 h -5.7408 v 5.811004 a 5.7408003,5.8110043 0 0 0 5.7408,5.811004 z M 61.344148,40.175908 a 5.7408003,5.8110043 0 0 0 -5.7408,-5.811005 H 39.816147 a 5.7408003,5.8110043 0 0 0 -5.7408,5.811005 5.7408003,5.8110043 0 0 0 5.7408,5.811004 h 15.787201 a 5.7408003,5.8110043 0 0 0 5.7408,-5.811004 z"
     id="path12" />
  <path
     style="fill:#29292a;stroke-width:1.44395"
     d="M 8.2417447,45.986912 A 5.7408003,5.8110043 0 0 1 2.5009446,40.175908 5.7408003,5.8110043 0 0 1 8.2417447,34.364903 h 5.7408003 v 5.811005 A 5.7408003,5.8110043 0 0 1 8.2417447,45.986912 Z M 24.028946,34.364903 a 5.7408003,5.8110043 0 0 0 -5.7408,5.811005 v 15.980261 a 5.7408003,5.8110043 0 0 0 5.7408,5.811004 5.7408003,5.8110043 0 0 0 5.7408,-5.811004 V 40.175908 a 5.7408003,5.8110043 0 0 0 -5.7408,-5.811005 z"
     id="path14" />
  <path
     style="fill:#29292a;stroke-width:1.44395"
     d="m 29.769746,24.195646 a 5.7408003,5.8110043 0 0 0 -5.7408,-5.811004 H 8.2417447 A 5.7408003,5.8110043 0 0 0 2.5009446,24.195646 5.7408003,5.8110043 0 0 0 8.2417447,30.00665 H 24.028946 a 5.7408003,5.8110043 0 0 0 5.7408,-5.811004 z m -5.7408,-21.7912663 a 5.7408003,5.8110043 0 0 0 -5.7408,5.8110043 5.7408003,5.8110043 0 0 0 5.7408,5.811004 h 5.7408 V 8.215384 a 5.7408003,5.8110043 0 0 0 -5.7408,-5.8110043 z"
     id="path16" />
</svg>
