<?xml version="1.0" encoding="UTF-8" standalone="no"?>
<svg
   xmlns:dc="http://purl.org/dc/elements/1.1/"
   xmlns:cc="http://creativecommons.org/ns#"
   xmlns:rdf="http://www.w3.org/1999/02/22-rdf-syntax-ns#"
   xmlns:svg="http://www.w3.org/2000/svg"
   xmlns="http://www.w3.org/2000/svg"
   xmlns:sodipodi="http://sodipodi.sourceforge.net/DTD/sodipodi-0.dtd"
   xmlns:inkscape="http://www.inkscape.org/namespaces/inkscape"
   width="64"
   height="64"
   version="1"
   id="svg12"
   sodipodi:docname="system-software-update.svg"
   inkscape:version="1.0.2 (e86c870879, 2021-01-15)">
  <metadata
     id="metadata18">
    <rdf:RDF>
      <cc:Work
         rdf:about="">
        <dc:format>image/svg+xml</dc:format>
        <dc:type
           rdf:resource="http://purl.org/dc/dcmitype/StillImage" />
        <dc:title></dc:title>
      </cc:Work>
    </rdf:RDF>
  </metadata>
  <defs
     id="defs16" />
  <sodipodi:namedview
     pagecolor="#ffffff"
     bordercolor="#666666"
     borderopacity="1"
     objecttolerance="10"
     gridtolerance="10"
     guidetolerance="10"
     inkscape:pageopacity="0"
     inkscape:pageshadow="2"
     inkscape:window-width="1541"
     inkscape:window-height="738"
     id="namedview14"
     showgrid="false"
     inkscape:zoom="12.890625"
     inkscape:cx="32"
     inkscape:cy="50.618181"
     inkscape:window-x="184"
     inkscape:window-y="195"
     inkscape:window-maximized="0"
     inkscape:current-layer="svg12"
     inkscape:document-rotation="0" />
  <path
     style="fill:#29292a"
     d="m 24,5 -4,4 0,6 -16,0 0,37 c 0,1.662 1.338,3 3,3 l 50,0 c 1.662,0 3,-1.338 3,-3 L 60,15 44,15 44,9 40,5 Z m 0,4 16,0 0,6 -16,0 z"
     id="path4" />
  <ellipse
     style="fill:#676767;stroke-width:0.929205"
     cx="48.814072"
     cy="48.827068"
     id="circle12"
     rx="14.890004"
     ry="14.844596" />
  <path
     style="fill:#e6e6e6;stroke-width:1.25118"
     d="m 46.508957,38.664357 -0.222125,2.639739 a 7.8556881,7.8734544 0 0 0 -2.294491,1.330877 l -2.394569,-1.130267 -2.49953,4.340033 2.174885,1.511916 a 7.8556881,7.8734544 0 0 0 -0.122052,1.328432 7.8556881,7.8734544 0 0 0 0.114728,1.333324 l -2.167562,1.507024 2.499529,4.340033 2.389688,-1.125376 a 7.8556881,7.8734544 0 0 0 2.299372,1.321093 l 0.222127,2.644631 h 4.999059 L 51.72526,56.066078 A 7.8556881,7.8734544 0 0 0 54.024632,54.7352 l 2.392128,1.130268 2.499529,-4.340033 -2.172443,-1.511917 a 7.8556881,7.8734544 0 0 0 0.122053,-1.328431 7.8556881,7.8734544 0 0 0 -0.114729,-1.333325 l 2.167562,-1.507023 -2.499529,-4.340033 -2.389688,1.125375 a 7.8556881,7.8734544 0 0 0 -2.299374,-1.321092 l -0.222125,-2.644632 z m 2.409214,6.262956 a 3.7488565,3.7582904 0 0 1 0.09032,0 3.7488565,3.7582904 0 0 1 3.749295,3.757774 3.7488565,3.7582904 0 0 1 -3.749295,3.757773 3.7488565,3.7582904 0 0 1 -3.749294,-3.757773 3.7488565,3.7582904 0 0 1 3.658978,-3.757774 z"
     id="path16" />
</svg>
