<?xml version="1.0" encoding="UTF-8" standalone="no"?>
<svg
   xmlns:dc="http://purl.org/dc/elements/1.1/"
   xmlns:cc="http://creativecommons.org/ns#"
   xmlns:rdf="http://www.w3.org/1999/02/22-rdf-syntax-ns#"
   xmlns:svg="http://www.w3.org/2000/svg"
   xmlns="http://www.w3.org/2000/svg"
   xmlns:sodipodi="http://sodipodi.sourceforge.net/DTD/sodipodi-0.dtd"
   xmlns:inkscape="http://www.inkscape.org/namespaces/inkscape"
   width="64"
   height="64"
   version="1"
   id="svg20"
   sodipodi:docname="stacer.svg"
   inkscape:version="1.0.2 (e86c870879, 2021-01-15)">
  <metadata
     id="metadata26">
    <rdf:RDF>
      <cc:Work
         rdf:about="">
        <dc:format>image/svg+xml</dc:format>
        <dc:type
           rdf:resource="http://purl.org/dc/dcmitype/StillImage" />
        <dc:title />
      </cc:Work>
    </rdf:RDF>
  </metadata>
  <defs
     id="defs24" />
  <sodipodi:namedview
     pagecolor="#ffffff"
     bordercolor="#666666"
     borderopacity="1"
     objecttolerance="10"
     gridtolerance="10"
     guidetolerance="10"
     inkscape:pageopacity="0"
     inkscape:pageshadow="2"
     inkscape:window-width="1920"
     inkscape:window-height="996"
     id="namedview22"
     showgrid="false"
     inkscape:zoom="12.890625"
     inkscape:cx="32"
     inkscape:cy="22.690909"
     inkscape:window-x="0"
     inkscape:window-y="0"
     inkscape:window-maximized="1"
     inkscape:current-layer="svg20"
     inkscape:document-rotation="0" />
  <rect
     style="fill:#29292a"
     width="58"
     height="58"
     x="-61"
     y="-61"
     rx="29"
     ry="29"
     transform="matrix(0,-1,-1,0,0,0)"
     id="rect4" />
  <path
     style="fill:#f2f2f2;opacity:0.85"
     d="m 32,7 a 3,3 0 0 0 -3,3 3,3 0 0 0 3,3 3,3 0 0 0 3,-3 3,3 0 0 0 -3,-3 z M 19.929688,11 A 3,3 0 0 0 18.5,11.398438 3,3 0 0 0 17.402344,15.5 3,3 0 0 0 21.5,16.597656 3,3 0 0 0 22.597656,12.5 3,3 0 0 0 19.929688,11 Z m 24.140624,0 A 3,3 0 0 0 41.402344,12.5 3,3 0 0 0 42.5,16.597656 3,3 0 0 0 46.597656,15.5 3,3 0 0 0 45.5,11.398438 3,3 0 0 0 44.070312,11 Z m -31.996093,8 a 3,3 0 0 0 -0.214844,0.0039 A 3,3 0 0 0 9.4023438,20.5 3,3 0 0 0 10.503906,24.597656 3,3 0 0 0 14.601562,23.5 3,3 0 0 0 13.503906,19.402344 3,3 0 0 0 12.074219,19 Z m 39.851563,0 A 3,3 0 0 0 50.496094,19.402344 3,3 0 0 0 49.398438,23.5 3,3 0 0 0 53.496094,24.597656 3,3 0 0 0 54.597656,20.5 3,3 0 0 0 52.140624,19.003906 3,3 0 0 0 51.925782,19 Z M 10,31 a 3,3 0 0 0 -3,3 3,3 0 0 0 3,3 3,3 0 0 0 3,-3 3,3 0 0 0 -3,-3 z m 44,0 a 3,3 0 0 0 -3,3 3,3 0 0 0 3,3 3,3 0 0 0 3,-3 3,3 0 0 0 -3,-3 z M 13.929688,41 A 3,3 0 0 0 12.503906,41.402344 3,3 0 0 0 11.402344,45.5 3,3 0 0 0 15.503906,46.597656 3,3 0 0 0 16.601562,42.5 3,3 0 0 0 13.929688,41 Z m 35.92578,0 a 3,3 0 0 0 -2.45703,1.5 3,3 0 0 0 1.097656,4.097656 A 3,3 0 0 0 52.597656,45.5 3,3 0 0 0 51.496094,41.402344 3,3 0 0 0 50.070312,41 3,3 0 0 0 49.855468,41 Z"
     id="path10" />
  <path
     style="fill:#f2f2f2;opacity:0.85"
     d="m 49.386662,36.658746 -16.23127,-1.243328 1.552916,-5.795554 z"
     id="path12" />
  <circle
     style="fill:#676767"
     cx="22.627"
     cy="-39.192"
     r="5"
     transform="matrix(-0.25881903,0.96592583,-0.96592583,-0.25881903,0,0)"
     id="circle16" />
</svg>
