<?xml version="1.0" encoding="UTF-8" standalone="no"?>
<svg
   xmlns:dc="http://purl.org/dc/elements/1.1/"
   xmlns:cc="http://creativecommons.org/ns#"
   xmlns:rdf="http://www.w3.org/1999/02/22-rdf-syntax-ns#"
   xmlns:svg="http://www.w3.org/2000/svg"
   xmlns="http://www.w3.org/2000/svg"
   xmlns:sodipodi="http://sodipodi.sourceforge.net/DTD/sodipodi-0.dtd"
   xmlns:inkscape="http://www.inkscape.org/namespaces/inkscape"
   width="64"
   height="64"
   version="1.1"
   id="svg26"
   sodipodi:docname="steam_icon_107100.svg"
   inkscape:version="1.0.2 (e86c870879, 2021-01-15)">
  <metadata
     id="metadata32">
    <rdf:RDF>
      <cc:Work
         rdf:about="">
        <dc:format>image/svg+xml</dc:format>
        <dc:type
           rdf:resource="http://purl.org/dc/dcmitype/StillImage" />
        <dc:title></dc:title>
      </cc:Work>
    </rdf:RDF>
  </metadata>
  <defs
     id="defs30" />
  <sodipodi:namedview
     pagecolor="#ffffff"
     bordercolor="#666666"
     borderopacity="1"
     objecttolerance="10"
     gridtolerance="10"
     guidetolerance="10"
     inkscape:pageopacity="0"
     inkscape:pageshadow="2"
     inkscape:window-width="1529"
     inkscape:window-height="884"
     id="namedview28"
     showgrid="false"
     inkscape:zoom="12.890625"
     inkscape:cx="32"
     inkscape:cy="28.324039"
     inkscape:window-x="0"
     inkscape:window-y="0"
     inkscape:window-maximized="0"
     inkscape:current-layer="svg26" />
  <path
     d="m 29.912607,2.1799645 c -15.223354,0 -27.5643186,12.4033625 -27.5643186,27.7036845 0.0042,6.349636 2.1784991,12.505118 6.1589027,17.436007 l -3.9537573,4.726942 13.2308722,7.757031 3.055763,-3.794106 c 2.914775,1.033448 5.981731,1.566825 9.072538,1.577811 0.703615,-0.0025 1.406877,-0.03212 2.108239,-0.08874 l 2.302052,4.521328 12.128299,-4.43259 -1.636631,-4.397959 c 3.941213,-2.549542 7.17049,-6.06704 9.382636,-10.220063 l 4.382296,1.320254 3.307718,-13.297769 -4.412444,-1.181735 c -0.0221,-5.042186 -1.412961,-9.982703 -4.022668,-14.28904 L 56.374352,12.153291 45.348624,3.2881119 43.332984,5.6970338 C 39.230891,3.3942409 34.611202,2.183562 29.912607,2.1799645 Z"
     style="fill:#676767;stroke-width:1.10535"
     id="path4" />
  <path
     d="M 29.266568,2.1972793 C 14.342521,2.5432729 2.3482884,14.800996 2.3482884,29.883649 c 0.00106,1.604602 0.1432609,3.196233 0.4156181,4.759408 2.8677852,1.94466 6.9913995,3.80245 12.8152555,5.447669 v 7.523282 l 7.718008,1.108147 0.83339,-6.6965 c 3.760772,0.606983 6.995747,0.763463 9.772413,0.575717 l 1.522497,6.120783 7.71801,-2.216294 -1.59787,-5.618654 c 9.305738,-3.980229 9.315878,-13.219852 9.315878,-13.219852 0,0 0.01568,-25.1124675 -21.59492,-25.4700757 z"
     style="fill:#29292a;stroke-width:1.10535"
     id="path10" />
  <path
     d="m 21.156629,19.007788 c -1.448648,0.100376 -2.26975,0.902535 -2.26975,0.902535 0,0 1.102573,7.757032 5.512864,7.757032 5.512864,0 5.512864,-2.216295 5.512864,-2.216295 0,0 0,-2.216295 -5.512864,-5.540737 -1.278323,-0.770872 -2.373925,-0.962759 -3.243114,-0.902535 z m 26.397141,4.226977 c 0,0 -2.205146,0 -4.41029,1.108147 -1.394657,0.700855 -3.307718,3.324443 -3.307718,3.324443 0,0 1.102572,2.216294 4.410291,2.216294 3.307717,0 3.307717,-6.648884 3.307717,-6.648884 z"
     style="fill:#ffffff;stroke-width:1.10535;opacity:0.85"
     id="path14" />
  <path
     d="M 32.117752,4.3962592 A 3.3077182,1.6622211 0 0 0 28.810034,6.0584804 3.3077182,1.6622211 0 0 0 32.117752,7.7207015 3.3077182,1.6622211 0 0 0 35.42547,6.0584804 3.3077182,1.6622211 0 0 0 32.117752,4.3962592 Z m 3.859004,5.5407371 a 4.9615773,2.7703685 0 0 0 -4.961577,2.7703687 4.9615773,2.7703685 0 0 0 4.961577,2.770368 4.9615773,2.7703685 0 0 0 4.961578,-2.770368 4.9615773,2.7703685 0 0 0 -4.961578,-2.7703687 z m 1.102573,7.7570317 a 2.7564318,1.6622211 0 0 0 -2.756431,1.662221 2.7564318,1.6622211 0 0 0 2.756431,1.662221 2.7564318,1.6622211 0 0 0 2.756433,-1.662221 2.7564318,1.6622211 0 0 0 -2.756433,-1.662221 z"
     style="fill:#ffffff;stroke-width:1.10535;opacity:0.85"
     id="path18" />
</svg>
