<?xml version="1.0" encoding="UTF-8" standalone="no"?>
<svg
   xmlns:dc="http://purl.org/dc/elements/1.1/"
   xmlns:cc="http://creativecommons.org/ns#"
   xmlns:rdf="http://www.w3.org/1999/02/22-rdf-syntax-ns#"
   xmlns:svg="http://www.w3.org/2000/svg"
   xmlns="http://www.w3.org/2000/svg"
   xmlns:xlink="http://www.w3.org/1999/xlink"
   xmlns:sodipodi="http://sodipodi.sourceforge.net/DTD/sodipodi-0.dtd"
   xmlns:inkscape="http://www.inkscape.org/namespaces/inkscape"
   width="64"
   height="64"
   version="1.1"
   id="svg73"
   sodipodi:docname="steam_icon_606150.svg"
   inkscape:version="1.0.2 (e86c870879, 2021-01-15)">
  <metadata
     id="metadata77">
    <rdf:RDF>
      <cc:Work
         rdf:about="">
        <dc:format>image/svg+xml</dc:format>
        <dc:type
           rdf:resource="http://purl.org/dc/dcmitype/StillImage" />
        <dc:title></dc:title>
      </cc:Work>
    </rdf:RDF>
  </metadata>
  <sodipodi:namedview
     pagecolor="#ffffff"
     bordercolor="#666666"
     borderopacity="1"
     objecttolerance="10"
     gridtolerance="10"
     guidetolerance="10"
     inkscape:pageopacity="0"
     inkscape:pageshadow="2"
     inkscape:window-width="1541"
     inkscape:window-height="738"
     id="namedview75"
     showgrid="false"
     inkscape:zoom="12.578125"
     inkscape:cx="15.900621"
     inkscape:cy="32"
     inkscape:window-x="379"
     inkscape:window-y="249"
     inkscape:window-maximized="0"
     inkscape:current-layer="g44"
     inkscape:document-rotation="0" />
  <defs
     id="defs29">
    <linearGradient
       id="b"
       x1="399.57"
       x2="399.57"
       y1="545.8"
       y2="517.8"
       gradientTransform="matrix(2.1429,0,0,2.1429,-826.36,-1107.5)"
       gradientUnits="userSpaceOnUse">
      <stop
         stop-color="#3889e9"
         offset="0"
         id="stop2" />
      <stop
         stop-color="#5ea5fb"
         offset="1"
         id="stop4" />
    </linearGradient>
    <linearGradient
       id="linearGradient862"
       x1="7.9373"
       x2="7.9373"
       y1="15.081"
       y2="1.852"
       gradientTransform="matrix(3.3743 0 0 3.3743 3.4312 3.4278)"
       gradientUnits="userSpaceOnUse">
      <stop
         stop-color="#f1efeb"
         offset="0"
         id="stop7" />
      <stop
         stop-color="#fff"
         offset="1"
         id="stop9" />
    </linearGradient>
    <linearGradient
       id="linearGradient910"
       x1="7.9373"
       x2="7.9373"
       y1="15.081"
       y2="1.852"
       gradientTransform="scale(3.7796)"
       gradientUnits="userSpaceOnUse">
      <stop
         stop-color="#613583"
         offset="0"
         id="stop12" />
      <stop
         stop-color="#a663c0"
         offset="1"
         id="stop14" />
    </linearGradient>
    <linearGradient
       id="linearGradient932"
       x1="379.24"
       x2="374.24"
       y1="546.85"
       y2="546.85"
       gradientTransform="matrix(2.1429 0 0 2.1429 -769.68 -1134.5)"
       gradientUnits="userSpaceOnUse">
      <stop
         stop-color="#f6f5f4"
         offset="0"
         id="stop17" />
      <stop
         stop-color="#fff"
         offset=".6"
         id="stop19" />
      <stop
         stop-color="#dddbd8"
         offset="1"
         id="stop21" />
    </linearGradient>
    <linearGradient
       id="linearGradient1146"
       x1="18"
       x2="18"
       y1="52"
       y2="12"
       gradientUnits="userSpaceOnUse">
      <stop
         stop-color="#5e337f"
         offset="0"
         id="stop24" />
      <stop
         stop-color="#ab60bf"
         offset="1"
         id="stop26" />
    </linearGradient>
    <linearGradient
       id="i"
       x1="98.123001"
       x2="510.56"
       y1="1517.5"
       y2="828.58002"
       gradientTransform="matrix(0.035272,0,0,0.033878,29.106,-3.7792)"
       gradientUnits="userSpaceOnUse"
       xlink:href="#c" />
    <linearGradient
       id="c"
       x1="98.123001"
       x2="510.56"
       y1="1517.5"
       y2="828.58002"
       gradientTransform="matrix(0.04938,0,0,0.047429,27.948,-18.091)"
       gradientUnits="userSpaceOnUse">
      <stop
         stop-color="#7ccbea"
         offset="0"
         id="stop2-3" />
      <stop
         stop-color="#00b9ff"
         offset="1"
         id="stop4-6" />
    </linearGradient>
    <linearGradient
       id="g"
       x1="22"
       x2="43"
       y1="49"
       y2="16"
       gradientUnits="userSpaceOnUse">
      <stop
         stop-color="#00b2ed"
         offset="0"
         id="stop9-7" />
      <stop
         stop-color="#009bdb"
         offset="1"
         id="stop11" />
    </linearGradient>
    <filter
       id="j"
       x="-0.064162999"
       y="-0.056343999"
       width="1.1283"
       height="1.1127"
       color-interpolation-filters="sRGB">
      <feGaussianBlur
         stdDeviation="0.96245117"
         id="feGaussianBlur18" />
    </filter>
    <linearGradient
       id="b-5"
       x1="25.360001"
       x2="422.28"
       y1="1469.4"
       y2="819.97998"
       gradientTransform="matrix(0.035272,0,0,0.033878,29.106,-3.7792)"
       gradientUnits="userSpaceOnUse"
       xlink:href="#c" />
    <linearGradient
       id="h"
       x1="23"
       x2="40"
       y1="46"
       y2="19"
       gradientUnits="userSpaceOnUse"
       xlink:href="#c" />
    <filter
       id="k"
       x="-0.064000003"
       y="-0.056471001"
       width="1.128"
       height="1.1129"
       color-interpolation-filters="sRGB">
      <feGaussianBlur
         stdDeviation="0.8"
         id="feGaussianBlur15" />
    </filter>
  </defs>
  <circle
     cx="32.02"
     cy="32.044"
     r="30.001"
     fill-opacity="0"
     stroke-width="1.5715"
     id="circle39" />
  <circle
     cx="32.02"
     cy="32.044"
     r="0"
     fill="url(#b)"
     stroke-width="1.5715"
     id="circle41" />
  <g
     fill-rule="evenodd"
     id="g44"
     transform="matrix(0.72260175,0,0,0.7189979,8.7358881,9.2511594)">
    <path
       d="M 32,11.502 30.457,12.42778 14,22.30078 v 19.398 l 18,10.799 18,-10.799 v -19.398 z m 0,6.9961 12,7.2012 v 12.602 L 32,45.5025 20,38.3013 v -12.602 z"
       color="#000000"
       color-rendering="auto"
       dominant-baseline="auto"
       enable-background="accumulate"
       filter="url(#j)"
       image-rendering="auto"
       opacity="0.15"
       shape-rendering="auto"
       solid-color="#000000"
       style="font-variant-ligatures:normal;font-variant-position:normal;font-variant-caps:normal;font-variant-numeric:normal;font-variant-alternates:normal;font-feature-settings:normal;text-indent:0;text-decoration:none;text-decoration-line:none;text-decoration-style:solid;text-decoration-color:#000000;text-transform:none;text-orientation:mixed;white-space:normal;shape-padding:0;isolation:auto;mix-blend-mode:normal"
       id="path36"
       transform="matrix(1.5890079,0,0,1.7179625,-18.265823,-23.519574)" />
    <path
       d="M 32.582428,2.249864 8.7473099,17.711527 V 45.198928 L 32.582428,60.660591 56.417545,45.198928 V 17.711527 Z"
       fill="url(#i)"
       stroke="url(#g)"
       stroke-width="19.8268"
       id="path34"
       style="fill:#29292a;stroke:#29292a" />
    <path
       style="opacity:0.85;fill:#ffffff;stroke:none;stroke-width:0.122462"
       d="m 25.99298,52.970422 c 0.07559,-0.07509 0.105746,-0.33312 0.06701,-0.573403 -0.03873,-0.240286 -0.07536,-0.522892 -0.08139,-0.628018 -0.01135,-0.197819 -0.226739,-0.275632 -0.226739,-0.08192 0,0.06007 -0.07577,0.09693 -0.168374,0.08192 -0.0926,-0.01502 -0.189587,0.08328 -0.215512,0.218441 -0.06853,0.357256 -0.203459,0.301361 -0.464092,-0.192248 -0.141259,-0.267533 -0.320951,-0.435767 -0.465439,-0.435767 -0.129441,0 -0.31944,-0.08601 -0.422222,-0.191136 -0.177973,-0.182034 -0.19373,-0.182034 -0.330903,0 -0.176228,0.233863 -0.542308,0.252295 -0.542308,0.02731 0,-0.09011 0.09269,-0.163832 0.205962,-0.163832 0.113281,0 0.205962,-0.07372 0.205962,-0.163829 0,-0.242936 -0.379539,-0.198611 -0.481209,0.0562 -0.135665,0.339998 -0.305039,0.160921 -0.229387,-0.242522 0.0371,-0.197879 0.09387,-0.298034 0.126143,-0.22257 0.03227,0.07546 0.108846,0.112542 0.170165,0.0824 0.131768,-0.06478 0.03925,-1.382893 -0.104624,-1.490517 -0.05444,-0.04072 -0.335937,-0.124948 -0.625559,-0.187169 -0.441057,-0.09476 -0.514237,-0.08754 -0.450561,0.04446 0.04182,0.08667 0.01734,0.157594 -0.05436,0.157594 -0.07171,0 -0.16915,0.122873 -0.216538,0.27305 -0.07071,0.22411 -0.169622,0.273049 -0.551848,0.273049 -0.25613,0 -0.465692,-0.04915 -0.465692,-0.10922 0,-0.06007 0.07723,-0.10997 0.171636,-0.110892 0.118573,-0.0013 0.124993,-0.02648 0.02078,-0.08191 -0.189327,-0.1007 -0.195148,-0.135702 -0.281937,-1.694988 -0.07074,-1.271056 -0.07669,-1.290048 -0.476564,-1.525218 -0.383989,-0.225824 -0.390472,-0.242389 -0.125377,-0.320395 0.153755,-0.04524 0.279552,-0.157565 0.279552,-0.249608 0,-0.186526 -0.348267,-0.228419 -0.480808,-0.05783 -0.05688,0.07321 -0.170379,0.07321 -0.342345,0 -0.381322,-0.162333 -0.702787,-0.133438 -0.908019,0.08162 -0.152853,0.160171 -0.183113,-0.397763 -0.186772,-3.443861 -0.0038,-3.132526 0.0241,-3.643687 0.201597,-3.697864 0.241948,-0.07385 0.260825,-0.256065 0.06276,-0.605795 -0.25865,-0.456698 -0.539248,-0.801484 -0.541312,-0.665133 -0.0016,0.09704 -0.09504,0.10569 -0.340432,0.03148 -0.213557,-0.06459 -0.368522,-0.06359 -0.420026,0.0027 -0.156668,0.201636 -0.454181,0.112813 -0.379812,-0.113393 0.05071,-0.154262 0.0043,-0.218443 -0.158269,-0.218443 -0.126541,0 -0.191751,-0.04933 -0.144906,-0.109619 0.04685,-0.06029 0.232346,-0.08024 0.412223,-0.04433 0.179879,0.03591 0.395353,0.03172 0.47883,-0.0093 0.238542,-0.11726 -0.112498,-0.382819 -0.506061,-0.382819 -0.491518,0 -0.727146,-0.249848 -0.739413,-0.784044 -0.006,-0.259592 -0.03981,-0.415768 -0.07523,-0.347056 -0.06545,0.126986 -0.600461,0.07396 -0.600461,-0.05951 0,-0.04011 -0.200815,-0.168364 -0.446252,-0.285001 l -0.44625,-0.212065 0.68654,-0.12866 0.686538,-0.128657 -0.759659,-0.01049 -0.759658,-0.01049 -0.02798,0.511426 c -0.01539,0.281284 -0.08424,0.539317 -0.152999,0.573406 -0.06876,0.03409 -0.764725,0.03764 -1.546595,0.0079 l -1.421575,-0.05408 1.33875,-0.03178 c 0.824683,-0.01958 1.338754,-0.07615 1.338754,-0.147332 0,-0.07574 -0.508534,-0.106369 -1.47606,-0.0889 -0.811835,0.01466 -1.579199,-0.009 -1.705257,-0.05262 -0.134839,-0.04664 -0.370218,-0.0058 -0.571748,0.09926 -0.323568,0.16864 -0.3472783,0.1667 -0.4277567,-0.035 -0.046858,-0.117445 -0.075756,-0.255487 -0.0642,-0.306761 0.050162,-0.222689 -0.022069,-0.373975 -0.1488269,-0.311668 -0.075526,0.03713 -0.1373104,0.01546 -0.1373104,-0.04816 0,-0.152072 0.452598,-0.148844 0.645508,0.0046 0.09443,0.07512 0.32383,0.08947 0.611022,0.03822 0.27343,-0.04879 0.377326,-0.104657 0.25631,-0.137824 -0.27451,-0.07523 -0.556488,-0.308099 -0.463067,-0.38241 0.04155,-0.03305 0.16218,-0.03364 0.268076,-0.0013 0.105896,0.03233 0.19254,0.0101 0.19254,-0.04939 0,-0.205322 -0.589313,-0.240606 -0.776587,-0.04649 -0.150824,0.156334 -0.199593,0.16141 -0.3066085,0.03192 -0.087222,-0.105544 -0.5307907,-0.17426 -1.4100183,-0.21844 l -1.2827558,-0.06446 -0.038992,-2.075183 c -0.021455,-1.141349 -0.00312,-2.191184 0.04074,-2.332966 0.075959,-0.245578 0.1249341,-0.25575 1.0344742,-0.214869 0.6764063,0.0304 0.9547428,0.0051 0.9547428,-0.08696 0,-0.0761 0.1137021,-0.106219 0.2746154,-0.07275 0.1649861,0.03432 0.2746154,0.0033 0.2746154,-0.07757 0,-0.08096 0.1096418,-0.111891 0.2748058,-0.07754 0.151144,0.03144 0.243563,0.01695 0.20538,-0.03219 -0.03818,-0.04914 0.181148,-0.12303 0.487409,-0.164187 0.329857,-0.04433 0.534756,-0.126188 0.50267,-0.200815 -0.05793,-0.134713 -0.748009,-0.142011 -1.3672824,-0.01447 -0.2448522,0.05043 -0.3775978,0.0349 -0.3775978,-0.04418 0,-0.06708 0.069509,-0.109666 0.1544713,-0.09465 0.2502491,0.04423 0.2873591,-0.206353 0.057618,-0.389097 -0.2300978,-0.183029 -0.2875844,-0.511969 -0.089471,-0.511969 0.067433,0 0.1581817,0.07372 0.20165,0.16383 0.043474,0.09011 0.2045499,0.16383 0.3579619,0.16383 0.153407,0 0.278924,0.05241 0.278924,0.116475 0,0.06406 0.169919,0.100921 0.377597,0.08191 0.272159,-0.02491 0.39001,-0.104156 0.422051,-0.283806 0.04363,-0.24464 0.07273,-0.248679 1.573649,-0.21844 l 1.529196,0.03081 0.09778,0.381228 c 0.05613,0.218845 0.03864,0.43791 -0.04105,0.514296 -0.192404,0.184411 0.362497,0.274019 0.983862,0.158884 l 0.480577,-0.08905 -0.594291,-0.08415 c -0.568158,-0.08044 -0.581731,-0.09114 -0.308702,-0.24326 0.157075,-0.08751 0.347706,-0.128578 0.423625,-0.09125 0.07592,0.03732 0.179434,-0.02127 0.230034,-0.130199 0.126545,-0.272442 0.357732,-0.376742 0.486751,-0.219596 0.05904,0.07192 0.08143,-0.459029 0.04976,-1.179882 -0.03168,-0.720853 -0.06291,-1.443575 -0.0694,-1.606049 -0.01007,-0.251695 -0.088,-0.307302 -0.526713,-0.375801 -0.747851,-0.116763 -1.036518,-0.104631 -1.099735,0.04623 -0.03077,0.07342 0.03824,0.133491 0.15336,0.133491 0.307758,0 0.417051,0.208741 0.151698,0.289737 -0.130301,0.03977 -0.280677,0.0042 -0.349868,-0.08268 -0.08883,-0.11159 -0.121913,-0.11538 -0.123452,-0.01415 -0.0016,0.106505 -0.514975,0.134586 -2.233356,0.12217 -1.227189,-0.0089 -2.2752658,-0.03599 -2.3290561,-0.06028 -0.053793,-0.02429 -0.030222,-0.162141 0.052379,-0.306342 0.08292,-0.14477 0.1020644,-0.3509 0.042732,-0.460284 -0.1708539,-0.315018 -0.1886889,-0.47115 -0.053811,-0.47115 0.1638661,0 0.1563565,-0.230151 -0.014233,-0.436882 -0.1201812,-0.145626 -0.150229,-0.145626 -0.2704102,0 -0.074369,0.09011 -0.136153,0.109844 -0.1373077,0.04386 -0.00132,-0.07371 -0.3828065,-0.128812 -0.9893385,-0.1429 -0.5429761,-0.01262 -1.0266069,-0.04229 -1.074731,-0.06594 -0.1175363,-0.05778 -0.1268567,-3.663557 -0.010633,-4.115554 0.076767,-0.298582 0.1587112,-0.361264 0.4986758,-0.381462 L 8.24516,18.385319 7.9154743,18.584226 c -0.2318747,0.139892 -0.3069797,0.267983 -0.2531469,0.431734 0.043004,0.130799 0.011976,0.232828 -0.070792,0.232828 -0.081037,0 -0.108071,0.03123 -0.060084,0.06941 0.1258578,0.100111 0.7954945,-0.272884 0.7706971,-0.429286 -0.046814,-0.295214 0.024781,-0.381486 0.2735862,-0.329727 0.1514746,0.03151 0.3743811,-0.03497 0.528613,-0.157655 0.2389772,-0.190091 0.280985,-0.194116 0.4042053,-0.03873 0.1167394,0.14721 0.1682195,0.124108 0.3407758,-0.152926 0.1117929,-0.179483 0.1900432,-0.485393 0.1738832,-0.6798 -0.01665,-0.200054 0.02707,-0.325716 0.100679,-0.289529 0.07153,0.03516 0.342306,0.03226 0.601722,-0.0064 0.346307,-0.05168 0.471669,-0.127128 0.471669,-0.283876 0,-0.11742 0.04634,-0.213875 0.102982,-0.214343 0.220987,-0.0018 0.446251,-0.618858 0.446251,-1.222344 v -0.633546 h 1.289541 c 1.227837,0 1.293297,0.01191 1.368118,0.249037 0.04322,0.136971 0.04271,0.358143 -10e-4,0.491492 -0.103966,0.31624 0.06244,0.31378 0.222658,-0.0033 l 0.124179,-0.245747 0.0087,0.245747 c 0.0047,0.135159 0.08594,0.247487 0.180336,0.249614 0.0944,0.0021 0.04168,0.06357 -0.11717,0.136526 -0.158848,0.07296 -0.261828,0.194092 -0.22885,0.269179 0.03298,0.07509 -0.007,0.136526 -0.08879,0.136526 -0.08181,0 -0.148749,0.0983 -0.148749,0.21844 0,0.120143 0.06595,0.218442 0.146561,0.218442 0.08408,0 0.1094,0.09313 0.0594,0.21844 -0.05,0.125309 -0.02467,0.218439 0.0594,0.218439 0.08061,0 0.146562,-0.04915 0.146562,-0.10922 0,-0.157546 0.377554,-0.134669 0.450652,0.02731 0.04491,0.0995 0.234881,0.06547 0.700468,-0.125447 0.35137,-0.144084 0.682289,-0.227422 0.735373,-0.185197 0.05308,0.04223 0.0057,0.122499 -0.105465,0.178385 -0.227337,0.114361 -0.187074,0.123046 0.724842,0.156372 0.714516,0.02611 0.923927,-0.191933 0.303326,-0.315831 -0.663596,-0.132482 -0.175339,-0.289491 0.841901,-0.27073 0.84411,0.01558 0.993147,0.04449 0.864536,0.167757 -0.08548,0.08192 -0.240522,0.148945 -0.344555,0.148945 -0.10403,0 -0.189147,0.103557 -0.189147,0.230126 0,0.157452 0.06366,0.210696 0.201564,0.168601 0.11086,-0.03384 0.234083,-0.01967 0.273828,0.03148 0.03975,0.05115 -0.02006,0.121188 -0.132911,0.155633 -0.479878,0.146476 0.01175,1.009284 0.515391,0.904519 0.311274,-0.06475 0.717547,0.194324 0.580779,0.37035 -0.122606,0.157798 0.304203,0.651355 0.563264,0.651355 0.188289,0 0.187952,-0.0257 -0.0032,-0.242742 -0.117555,-0.133508 -0.213743,-0.379254 -0.213743,-0.546101 0,-0.234033 0.06501,-0.303358 0.284426,-0.303358 0.15643,0 0.377107,0.07372 0.490385,0.16383 0.113279,0.09011 0.322794,0.16383 0.465588,0.16383 0.224372,0 0.2584,0.08188 0.250574,0.602928 -0.007,0.464748 -0.06589,0.627123 -0.25705,0.708502 -0.229561,0.09772 -0.244806,0.551702 -0.01775,0.528473 0.25938,-0.02653 0.309261,0.03464 0.151511,0.185838 -0.140853,0.135 -0.199104,0.140493 -0.289531,0.02731 -0.157169,-0.196725 -0.11153,0.789661 0.04801,1.037671 0.08419,0.130873 0.21474,0.174064 0.391356,0.129473 0.145765,-0.0368 0.335616,-0.0322 0.4219,0.01021 0.21776,0.107054 1.081354,0.139739 1.081354,0.04093 0,-0.04446 0.154427,-0.07375 0.343172,-0.06509 l 0.343173,0.01575 9.7e-5,2.269745 c 8.2e-5,1.916847 -0.03192,2.279521 -0.205865,2.332613 -0.31701,0.09676 -0.244098,0.604626 0.137475,0.957552 0.188708,0.174539 0.343103,0.261779 0.343103,0.193866 0,-0.07866 0.14797,-0.09994 0.407687,-0.05862 0.576869,0.09177 0.911571,-0.02253 0.689427,-0.235442 -0.109228,-0.104691 -0.11716,-0.162539 -0.02229,-0.162539 0.08102,0 0.204506,0.08132 0.274432,0.180705 0.07651,0.108745 0.215918,0.153601 0.350093,0.112647 0.122626,-0.03743 0.222958,-0.02045 0.222958,0.03774 0,0.05819 -0.10298,0.105794 -0.228846,0.105794 -0.125866,0 -0.188047,0.03245 -0.13818,0.07212 0.14353,0.114169 -0.352064,0.339131 -0.94441,0.428689 -0.538541,0.08142 -0.539579,0.08255 -0.153005,0.165882 0.214069,0.04615 0.475916,0.05744 0.581882,0.02509 0.118016,-0.03602 0.286424,0.07221 0.434634,0.279334 l 0.241966,0.338144 1.390592,7.03e-4 c 1.035331,5.21e-4 1.43198,-0.03898 1.552595,-0.154578 0.221275,-0.212082 0.210691,-8.989676 -0.0111,-9.202247 -0.09637,-0.09233 -0.467366,-0.1446 -1.026596,-0.1446 H 27.262303 V 18.32052 c 0,-0.843744 0.04536,-1.147254 0.171635,-1.148484 0.114422,-10e-4 0.10298,-0.03696 -0.03433,-0.107547 -0.113279,-0.05823 -0.135603,-0.106629 -0.0496,-0.107549 0.086,-8.85e-4 0.196482,-0.171819 0.245529,-0.379775 0.07171,-0.304039 0.02932,-0.425718 -0.216425,-0.621189 -0.195891,-0.155818 -0.325116,-0.196525 -0.359954,-0.113387 -0.03553,0.08479 -0.412012,0.129698 -1.087407,0.129698 -0.885601,0 -1.021163,-0.02466 -0.949714,-0.172763 0.04584,-0.09502 0.08334,-0.291616 0.08334,-0.43688 0,-0.325829 0.405396,-0.362175 0.509448,-0.04568 0.07395,0.224929 0.37596,0.295071 0.512705,0.119077 0.128228,-0.165039 -0.08311,-0.463356 -0.284678,-0.401832 -0.103533,0.0316 -0.188242,0.0099 -0.188242,-0.04833 0,-0.05818 -0.127225,-0.105791 -0.28272,-0.105791 -0.155495,0 -0.246033,-0.04722 -0.201192,-0.10493 0.04483,-0.05771 -0.105985,-0.310829 -0.335166,-0.562487 -0.229183,-0.251657 -0.416695,-0.523908 -0.416695,-0.605003 0,-0.09869 -0.17789,-0.147442 -0.538,-0.147442 -1.000386,0 -0.972386,0.05099 -0.972386,-1.770894 0,-1.519439 0.01744,-1.632214 0.240289,-1.554393 0.402108,0.140413 0.901294,0.08035 1.098833,-0.132225 0.177015,-0.1904824 0.194484,-0.1910344 0.323325,-0.01022 0.166881,0.23419 0.397172,0.250022 0.397172,0.0273 0,-0.09011 -0.06179,-0.1638304 -0.137309,-0.1638304 -0.20562,0 -0.165456,-0.35631 0.07036,-0.624107 0.114214,-0.129709 0.195596,-0.374103 0.180849,-0.543099 -0.05879,-0.673638 0.02141,-1.017196 0.237478,-1.017196 0.117737,0 0.185414,0.03686 0.150397,0.08192 -0.03502,0.04505 0.671906,0.06445 1.570937,0.04311 1.103516,-0.0262 1.634606,-7.55e-4 1.634606,0.07849 0,0.06451 -0.09269,0.08901 -0.205962,0.05443 -0.166314,-0.05077 -0.205962,0.04326 -0.205962,0.488471 0,0.599485 0.22054,0.863376 0.313351,0.37495 0.04201,-0.221098 0.06295,-0.181044 0.078,0.14924 0.02206,0.484161 0.19189,0.581421 1.020885,0.584654 0.342094,0.0014 0.36663,0.02497 0.232653,0.224099 -0.08238,0.122436 -0.113898,0.4021764 -0.07005,0.6216474 0.09744,0.487692 0.210162,0.60461 0.210162,0.217984 0,-0.337913 0.2132,-0.474211 0.47324,-0.302543 0.140282,0.09261 0.20426,0.08816 0.257761,-0.0179 0.03914,-0.0776 0.07408,0.03094 0.07764,0.241186 0.0058,0.33885 -0.01407,0.360754 -0.174372,0.192834 -0.24195,-0.253448 -0.359655,-0.133987 -0.359655,0.365025 0,0.475272 0.207909,0.634215 0.512585,0.391864 0.164564,-0.130901 0.266599,-0.14101 0.458928,-0.04547 0.186078,0.09244 0.327993,0.08851 0.573167,-0.01586 0.232496,-0.09898 0.756153,-0.122467 1.827802,-0.082 0.826074,0.0312 1.711133,0.05862 1.966798,0.06095 0.255663,0.0023 0.54485,0.05704 0.642637,0.121599 0.273158,0.180326 0.499666,-0.254439 0.402511,-0.772589 -0.05093,-0.27164 -0.02752,-0.434788 0.06242,-0.434788 0.07916,0 0.143942,0.1012 0.143942,0.224886 0,0.137545 0.05945,0.195663 0.153061,0.149639 0.09323,-0.04584 0.128519,-0.278437 0.09027,-0.595081 l -0.0628,-0.5198344 0.554185,-0.05913 c 0.711549,-0.07592 1.024297,-0.398511 1.077899,-1.111835 l 0.04103,-0.546101 1.613368,-0.0086 1.613367,-0.0086 v 0.541989 c 0,0.298093 0.07157,0.732001 0.159043,0.964236 0.155437,0.412677 0.443589,0.558162 0.565911,0.285721 0.03371,-0.07509 0.104933,-0.104448 0.158263,-0.06524 0.05334,0.0392 0.01779,0.172128 -0.07898,0.295388 -0.09677,0.123259 -0.144158,0.2493984 -0.1053,0.2803064 0.109647,0.08722 0.845635,0.09032 1.18905,0.005 l 0.308944,-0.07675 v 1.602877 c 0,1.009711 -0.04938,1.578603 -0.133429,1.53728 -0.181839,-0.08939 -0.827727,0.259826 -0.827727,0.447537 0,0.08356 -0.13828,0.152018 -0.308942,0.152941 -0.169918,8.85e-4 -0.371989,0.03778 -0.449045,0.08191 -0.290069,0.166135 -0.477784,0.71461 -0.477784,1.396024 V 15.97222 H 40.9359 c -0.683344,0 -1.042924,-0.04492 -1.093014,-0.136526 -0.04105,-0.07509 -0.04583,0.01093 -0.01062,0.191135 0.03521,0.180213 0.02761,0.266224 -0.01688,0.191135 -0.04451,-0.07509 -0.206045,-0.136526 -0.358976,-0.136526 -0.233873,0 -0.26359,0.04773 -0.187006,0.300356 0.05009,0.165197 0.170147,0.349505 0.266813,0.409576 0.121461,0.07548 0.185465,0.504169 0.20718,1.387631 l 0.03142,1.278412 -0.998459,0.03223 c -0.932857,0.03011 -1.004706,0.05017 -1.09351,0.30528 -0.158651,0.455742 -0.14046,8.725165 0.01971,8.96323 0.126742,0.188375 0.299082,0.211261 1.590969,0.211261 h 1.448827 l 0.153025,-0.322478 c 0.08445,-0.177973 0.248312,-0.317045 0.36567,-0.310356 0.116956,0.0067 0.398013,5.21e-4 0.62457,-0.01357 0.40405,-0.02521 0.401424,-0.02833 -0.137309,-0.163194 -0.302077,-0.07562 -0.580125,-0.126153 -0.617886,-0.112292 -0.03776,0.01387 -0.14697,-0.04221 -0.242693,-0.124598 -0.143334,-0.123376 -0.112663,-0.16206 0.173836,-0.219259 0.191336,-0.0382 0.463626,-0.04537 0.605094,-0.01595 0.329604,0.06856 0.570473,-0.05116 0.61768,-0.307009 0.05514,-0.298867 0.328386,-0.31941 0.380211,-0.02859 0.04029,0.226082 0.06971,0.210881 0.2857,-0.14757 0.232691,-0.386176 0.202325,-0.809175 -0.04921,-0.685518 -0.07105,0.03493 -0.118347,-0.944856 -0.112083,-2.321555 0.006,-1.31009 0.04287,-2.318495 0.08201,-2.2409 0.05465,0.108337 0.115872,0.111572 0.263778,0.01394 0.148759,-0.0982 0.192608,-0.09427 0.192608,0.01728 0,0.108547 0.0391,0.113341 0.157332,0.01929 0.08745,-0.06956 0.331254,-0.09748 0.548891,-0.06286 0.231,0.03675 0.480444,0.0036 0.608326,-0.08081 0.178761,-0.11801 0.236316,-0.117942 0.32826,3.64e-4 0.212434,0.273414 0.416801,-0.0092 0.414707,-0.573562 -0.0013,-0.351534 -0.04621,-0.511605 -0.118198,-0.421277 -0.09261,0.116213 -0.133852,0.108882 -0.203861,-0.03624 -0.142267,-0.294902 -0.106262,-0.355122 0.255508,-0.427346 0.221635,-0.04425 0.34327,-0.145197 0.34327,-0.28489 0,-0.118999 -0.04633,-0.21054 -0.10298,-0.203426 -0.515829,0.06479 -0.583561,-0.01433 -0.583561,-0.681629 0,-0.573071 0.0286,-0.649818 0.199949,-0.536697 0.233022,0.153831 0.486592,0.06324 0.486592,-0.173832 0,-0.131689 0.172885,-0.160736 0.858174,-0.144184 0.471997,0.0114 1.016826,-0.01286 1.210728,-0.05392 0.297804,-0.06306 0.343323,-0.124681 0.293114,-0.396808 -0.07214,-0.390984 -0.302405,-0.539366 -0.302405,-0.194907 0,0.158917 -0.04726,0.20913 -0.132809,0.141087 -0.181638,-0.144482 -0.01711,-0.593366 0.217479,-0.593366 0.10447,0 0.189949,0.04957 0.189949,0.110145 0,0.07101 0.08537,0.07384 0.240288,0.008 0.132158,-0.05619 0.352333,-0.129988 0.489279,-0.163985 0.136946,-0.034 0.214862,-0.105738 0.173146,-0.159427 -0.112573,-0.144887 0.297222,-0.375117 0.53727,-0.301844 0.166313,0.05077 0.207709,-0.03387 0.207709,-0.424662 0,-0.268435 -0.06178,-0.488064 -0.137307,-0.488064 -0.07552,0 -0.137308,-0.221171 -0.137308,-0.49149 v -0.49149 h 2.940404 2.940405 l 0.05944,0.682624 c 0.06876,0.789674 0.146372,1.058673 0.399361,1.384238 0.198369,0.255274 0.678082,0.396689 1.006055,0.296577 0.142574,-0.04352 0.212546,0.01186 0.226602,0.179356 0.01118,0.133275 0.03292,0.316042 0.04833,0.406149 0.01539,0.09011 0.03714,0.274415 0.04833,0.409575 0.02278,0.275407 0.432252,0.345615 0.432252,0.07411 0,-0.156029 0.01962,-0.156029 0.215771,0 0.20603,0.163883 0.400359,0.217352 0.656859,0.180732 0.06459,-0.0092 0.203613,0.04013 0.308941,0.109661 0.151253,0.09985 0.191512,0.08672 0.191512,-0.06246 0,-0.127368 0.07073,-0.167297 0.217191,-0.122592 0.119455,0.03646 0.295857,0.0663 0.392006,0.0663 0.134935,0 0.181312,0.51076 0.203302,2.239012 l 0.02849,2.239012 h -0.476291 c -0.408696,0 -0.466104,-0.031 -0.404483,-0.21844 0.0395,-0.120141 0.150679,-0.21844 0.247071,-0.21844 0.182385,0 0.341945,-0.233511 0.341945,-0.500424 0,-0.234721 -0.506922,-0.185259 -0.733035,0.07152 -0.109657,0.124532 -0.186854,0.370276 -0.171553,0.5461 0.02541,0.2919 -0.01064,0.31968 -0.414854,0.31968 -0.243469,0 -0.478717,0.06144 -0.522773,0.136526 -0.06408,0.10922 -0.09611,0.10922 -0.16019,0 -0.04406,-0.07509 -0.130127,-0.136526 -0.191271,-0.136526 -0.205547,0 -0.274876,0.334435 -0.112267,0.54155 0.124268,0.158279 0.122406,0.242386 -0.0081,0.367506 -0.194945,0.186845 -0.07319,0.725589 0.166367,0.736171 0.08621,0.0038 0.03317,0.04559 -0.117867,0.09285 -0.151039,0.04726 -1.210388,0.09434 -2.354108,0.104628 l -2.079494,0.0187 -0.138216,-0.315382 c -0.136472,-0.311403 -0.14734,-0.314233 -0.861694,-0.22441 -0.397917,0.05003 -0.765451,0.144989 -0.816746,0.211008 -0.159076,0.204739 -0.161767,2.508528 -0.0029,2.508528 0.07864,0 0.142987,0.0983 0.142987,0.218439 0,0.120143 0.0645,0.21844 0.143327,0.21844 0.07883,0 0.12517,0.08601 0.102979,0.191136 -0.02317,0.109768 0.03509,0.178882 0.136851,0.162355 0.09746,-0.01582 0.293794,0.02086 0.436306,0.08152 0.392919,0.167269 0.690922,0.02171 0.690922,-0.33748 v -0.316098 h 1.555617 c 1.524924,0 1.555402,0.0049 1.544712,0.245744 -0.0084,0.189558 0.07544,0.253649 0.366696,0.280306 0.207678,0.01901 0.377597,-0.01785 0.377597,-0.08192 0,-0.06406 0.119164,-0.116475 0.264808,-0.116475 0.145646,0 0.357491,-0.07372 0.470769,-0.16383 0.11328,-0.09011 0.241271,-0.16383 0.284423,-0.16383 0.160496,0 0.07129,0.305644 -0.127498,0.436881 -0.279874,0.184759 -0.260104,0.518829 0.03432,0.580032 0.168226,0.03497 0.140586,0.05375 -0.09217,0.06262 -0.182854,0.007 -0.430007,-0.05398 -0.549233,-0.135448 -0.157069,-0.107324 -0.339686,-0.121505 -0.663023,-0.05149 -0.245439,0.05315 -0.446251,0.134236 -0.446251,0.180199 0,0.04596 0.370731,0.148989 0.823848,0.22895 0.453116,0.07996 0.823845,0.193656 0.823845,0.252656 0,0.059 0.09269,0.07898 0.205963,0.0444 0.117095,-0.03574 0.205962,-0.0024 0.205962,0.0772 0,0.101709 0.272636,0.13816 0.995482,0.133097 l 0.995482,-0.007 0.0371,2.330657 0.03709,2.330657 -0.99825,-0.02551 c -0.549036,-0.01403 -1.090933,0.0018 -1.204211,0.03517 -0.472963,0.139349 -0.813739,0.158838 -0.859693,0.04917 -0.02696,-0.06433 -0.126302,-0.07897 -0.220763,-0.03253 -0.13047,0.06414 -0.115232,0.117303 0.0634,0.22121 0.133125,0.07743 0.191132,0.193438 0.133691,0.267366 -0.0558,0.07183 0.0013,0.255276 0.126763,0.407663 0.233974,0.284049 0.196709,0.58709 -0.0722,0.58709 -0.09341,0 -0.114252,-0.09359 -0.05472,-0.245745 0.09049,-0.231247 0.0809,-0.235446 -0.162381,-0.07121 -0.142195,0.096 -0.370584,0.206233 -0.507532,0.244974 -0.136944,0.03874 -0.21053,0.119936 -0.163529,0.180431 0.047,0.0605 0.02002,0.111811 -0.05995,0.114037 -0.07998,0.0023 -0.840532,0.0058 -1.690125,0.008 l -1.544714,0.004 v -0.326451 c 0,-0.179546 -0.04209,-0.359979 -0.09352,-0.400962 -0.05144,-0.04098 -0.06027,-0.143431 -0.01965,-0.227664 0.04412,-0.09146 -0.01327,-0.15315 -0.14246,-0.15315 -0.138423,0 -0.187107,0.0606 -0.135168,0.168263 0.05645,0.116996 -0.04675,0.206673 -0.338693,0.294327 -0.230926,0.06934 -0.496093,0.239361 -0.589263,0.377836 -0.09317,0.138474 -0.236192,0.252526 -0.31783,0.253445 -0.08164,7.81e-4 -0.05576,0.04932 0.05753,0.107549 0.137309,0.07058 0.14875,0.106432 0.03433,0.107549 -0.101232,10e-4 -0.1725,0.147277 -0.173739,0.356637 -0.0016,0.26936 -0.0342,0.315456 -0.135206,0.191133 -0.115093,-0.141663 -0.13339,-0.139177 -0.135206,0.01838 -0.0011,0.100213 -0.0396,0.259947 -0.08545,0.354966 -0.05469,0.11337 -0.0075,0.172764 0.137307,0.172764 0.245859,0 0.274532,0.09091 0.09841,0.312014 -0.08705,0.109277 -0.144037,0.114732 -0.217041,0.02078 -0.07026,-0.09043 -0.149204,-0.0728 -0.271923,0.06069 -0.119444,0.129936 -0.253383,0.161705 -0.433069,0.102722 -0.143081,-0.04697 -0.426791,-0.09818 -0.630464,-0.113812 -0.31193,-0.02393 -0.384646,0.02346 -0.461177,0.300627 -0.05765,0.208797 -0.128499,0.280599 -0.193862,0.196478 -0.06435,-0.08282 -0.136038,-0.0013 -0.191037,0.21755 -0.122143,0.485781 -0.112484,0.545149 0.0836,0.513952 0.133918,-0.0213 0.171637,0.620736 0.171637,2.921638 v 2.948945 l -0.446252,0.03422 c -0.317653,0.02437 -0.446251,-0.01132 -0.446251,-0.123786 0,-0.08691 -0.123832,-0.183771 -0.275183,-0.215252 -0.310027,-0.06449 -0.239474,-0.405117 0.08391,-0.405117 0.105199,0 0.19127,-0.07372 0.19127,-0.163829 0,-0.103732 -0.131312,-0.163829 -0.357961,-0.163829 -0.274171,0 -0.337896,0.04159 -0.272245,0.177674 0.04714,0.09772 0.01528,0.245167 -0.07077,0.327661 -0.09907,0.09494 -0.104651,0.149984 -0.01523,0.149984 0.204401,0 0.04446,0.392374 -0.244822,0.600619 -0.20261,0.145853 -0.234088,0.292101 -0.174808,0.812137 0.03977,0.348837 0.02705,1.4024 -0.02828,2.341253 -0.08683,1.473543 -0.131461,1.708179 -0.326405,1.715622 -0.142481,0.0054 -0.162485,0.02896 -0.0542,0.06371 0.313421,0.100601 0.177511,0.255326 -0.224273,0.255326 -0.280099,0 -0.416864,-0.06374 -0.467541,-0.217889 -0.0394,-0.119839 -0.18563,-0.251412 -0.32496,-0.292387 -0.139328,-0.04097 -0.286704,-0.113454 -0.327502,-0.161065 -0.0408,-0.04761 -0.257059,-0.04746 -0.480578,2.61e-4 -0.368311,0.07876 -0.408173,0.132185 -0.425345,0.570089 -0.01042,0.265752 -0.06497,0.572502 -0.121214,0.681663 -0.05794,0.112451 -0.03485,0.252102 0.05327,0.322199 0.11585,0.09215 0.155539,0.09027 0.155539,-0.0073 0,-0.07208 0.06178,-0.131063 0.137309,-0.131063 0.214386,0 0.161067,0.652023 -0.06824,0.83442 -0.213743,0.17002 -0.82293,0.105117 -0.684585,-0.07293 0.04126,-0.0531 -0.204883,0.01187 -0.546979,0.144387 -0.502248,0.194554 -0.638329,0.309822 -0.706857,0.598747 -0.0686,0.289211 -0.121294,0.333761 -0.274879,0.232371 -0.104504,-0.06898 -0.190009,-0.187405 -0.190009,-0.263148 0,-0.07574 -0.118954,-0.162463 -0.264343,-0.192706 -0.185441,-0.03857 -0.242532,-0.0098 -0.191271,0.09648 0.04019,0.08331 0.0047,0.151469 -0.07893,0.151469 -0.236969,0 -0.178479,0.778678 0.07524,1.001688 0.219893,0.193273 -0.02267,0.199735 -7.500096,0.199735 -6.16363,0 -7.699526,-0.02763 -7.589897,-0.136528 z m -0.241122,-1.711283 c 0,-0.220559 -0.176769,-0.445813 -0.349856,-0.445813 -0.27681,0 -0.381249,0.207954 -0.194384,0.387052 0.18412,0.176471 0.54424,0.21535 0.54424,0.05876 z m 16.000438,-0.01416 c 0.0489,-0.06295 0.05348,-0.187939 0.01016,-0.277759 -0.06158,-0.127637 -0.139216,-0.137584 -0.355434,-0.04554 -0.15216,0.06478 -0.276656,0.189767 -0.276656,0.277759 0,0.182714 0.487629,0.218417 0.621951,0.04554 z m 1.986902,-0.438097 c 0,-0.05653 -0.09269,-0.102774 -0.205963,-0.102774 -0.212334,0 -0.27279,0.128876 -0.118155,0.251878 0.109698,0.08726 0.324118,-0.01138 0.324118,-0.149104 z m -20.59619,-2.341785 c 0,-0.178403 -0.750096,-0.237894 -0.880665,-0.06984 -0.114332,0.147154 0.0677,0.233675 0.491627,0.233675 0.254274,0 0.389038,-0.05675 0.389038,-0.163831 z m 21.384165,0.09531 c 0.441317,-0.09409 0.240363,-0.259143 -0.315502,-0.259143 -0.447198,0 -0.585231,0.09234 -0.380934,0.254847 0.111883,0.089 0.293879,0.09012 0.696436,0.0043 z M 28.598396,44.967361 c -0.09397,-0.243542 -0.196526,-0.346788 -0.279171,-0.281047 -0.181306,0.144218 0.0045,0.666011 0.237209,0.666011 0.154518,0 0.162443,-0.07271 0.04197,-0.384964 z m 1.718952,0.307883 c -0.169919,-0.02603 -0.447967,-0.02603 -0.617887,0 -0.169918,0.02603 -0.03089,0.04733 0.308943,0.04733 0.339836,0 0.478863,-0.02129 0.308944,-0.04733 z m 8.341455,-0.25058 c 0,-0.38059 -0.234577,-0.444758 -0.299457,-0.08192 -0.02783,0.155607 -0.132057,0.240181 -0.284167,0.230575 -0.132123,-0.0083 -0.240223,0.02852 -0.240223,0.08192 0,0.0534 0.185367,0.09709 0.411925,0.09709 0.366154,0 0.411922,-0.03641 0.411922,-0.327661 z M 27.948785,44.921888 c 0,-0.116593 -0.06179,-0.242369 -0.137307,-0.279496 -0.07788,-0.03828 -0.137309,0.05348 -0.137309,0.211995 0,0.153722 0.06178,0.279498 0.137309,0.279498 0.07552,0 0.137307,-0.0954 0.137307,-0.211997 z m 11.25925,-0.01289 c 0,-0.123688 -0.06178,-0.19451 -0.137308,-0.157386 -0.07552,0.03713 -0.137307,0.138326 -0.137307,0.224887 0,0.08656 0.06178,0.157385 0.137307,0.157385 0.07552,0 0.137308,-0.101199 0.137308,-0.224886 z m -0.94058,-0.321215 c 0.07898,-0.180215 0.199342,-0.327658 0.267473,-0.327658 0.232411,0 0.13478,-0.788488 -0.116414,-0.940165 -0.206699,-0.124809 -0.08673,-0.147386 0.858175,-0.161507 0.604156,-0.009 1.168233,-0.0098 1.253506,-0.0018 0.166941,0.01583 0.32063,-0.328944 0.323661,-0.726053 10e-4,-0.135158 -0.05859,-0.245745 -0.13249,-0.245745 -0.07945,0 -0.06608,-0.119215 0.03272,-0.291682 0.131979,-0.230408 0.131361,-0.30115 -0.0029,-0.33676 -0.202371,-0.05366 -0.230133,-0.354541 -0.03272,-0.354541 0.07552,0 0.137308,-0.150348 0.137308,-0.334106 0,-0.194927 -0.0572,-0.305985 -0.137308,-0.266606 -0.08849,0.04351 -0.137308,-0.378102 -0.137308,-1.185873 0,-0.877764 0.04938,-1.266467 0.164769,-1.297064 0.23955,-0.06352 0.205806,-0.849416 -0.04284,-0.997598 -0.114184,-0.06805 -0.248178,-0.209738 -0.297769,-0.314863 -0.128753,-0.272942 -0.319064,-0.23775 -0.738305,0.136525 -0.390651,0.348751 -1.008172,0.449101 -1.008172,0.163829 0,-0.09101 0.122051,-0.163829 0.274618,-0.163829 0.285299,0 0.330401,-0.08494 0.194596,-0.366441 -0.044,-0.09123 -0.167586,-0.139136 -0.274615,-0.106469 -0.131015,0.03999 -0.194599,-0.01788 -0.194599,-0.177174 0,-0.130112 -0.05576,-0.209151 -0.123932,-0.175643 -0.06816,0.03351 -0.188526,-0.08646 -0.267474,-0.266606 -0.0824,-0.18803 -0.241462,-0.327528 -0.373458,-0.327528 -0.184584,0 -0.19755,-0.03102 -0.06575,-0.157339 0.09029,-0.08654 0.252326,-0.130427 0.360083,-0.09754 0.107757,0.03289 0.195922,0.0082 0.195922,-0.0548 0,-0.07769 -1.4985,-0.115284 -4.652698,-0.116724 -2.558984,-0.0013 -4.729309,-0.0163 -4.822941,-0.03361 -0.315787,-0.05841 -0.287441,0.213039 0.03011,0.288295 l 0.314558,0.07454 -0.308942,0.119884 c -0.239761,0.09304 -0.313132,0.220094 -0.327642,0.567376 -0.01047,0.250366 -0.04492,0.339241 -0.0782,0.201751 -0.07454,-0.307852 -0.315023,-0.323777 -0.315023,-0.02085 0,0.123688 -0.05478,0.197952 -0.121748,0.165032 -0.153156,-0.07529 -0.379423,0.157464 -0.364171,0.374621 0.0065,0.09246 0.11485,0.149849 0.248713,0.131737 0.139729,-0.0189 0.237206,0.0372 0.237206,0.136525 0,0.281617 -0.626665,0.202966 -0.885386,-0.111121 -0.236909,-0.28761 -0.866445,-0.345004 -0.796635,-0.07263 0.01887,0.07366 -0.05174,0.133934 -0.156944,0.133934 -0.239585,0 -0.357959,0.237724 -0.357959,0.718863 0,0.259041 0.06305,0.373338 0.205962,0.373338 0.171025,0 0.20596,0.211075 0.20596,1.244345 0,1.005332 -0.03956,1.256422 -0.20596,1.307214 -0.11328,0.03458 -0.205962,0.110048 -0.205962,0.167714 0,0.05767 0.09269,0.178569 0.205962,0.268675 0.113278,0.09011 0.20596,0.211235 0.20596,0.269168 0,0.05793 -0.09268,0.133627 -0.20596,0.168203 -0.11328,0.03458 -0.205962,0.110051 -0.205962,0.167716 0,0.05766 0.09269,0.178567 0.205962,0.268676 0.113278,0.09011 0.205014,0.228778 0.203858,0.308156 -0.0016,0.108257 -0.03403,0.104175 -0.129841,-0.01632 -0.21468,-0.270019 -0.335347,-0.02546 -0.200954,0.407263 0.07327,0.235909 0.21402,0.413234 0.332897,0.419394 0.113279,0.0059 0.65393,0.01814 1.201446,0.02731 0.547513,0.0091 0.995482,0.06424 0.995482,0.122427 0,0.05819 -0.09268,0.0775 -0.205963,0.04292 -0.162173,-0.0495 -0.205963,0.03113 -0.205963,0.379252 0,0.461655 0.207835,0.707179 0.316952,0.374434 0.03471,-0.10586 0.07029,0.0082 0.07904,0.253508 0.0088,0.245292 0.05713,0.478749 0.107467,0.518797 0.05035,0.04005 2.185265,0.07281 4.744265,0.07281 h 4.652729 z M 19.809427,37.36595 c 0.248338,-0.197538 0.04106,-0.423573 -0.388424,-0.423573 -0.41768,0 -0.52141,0.185198 -0.232464,0.415036 0.206185,0.164009 0.421708,0.166972 0.620888,0.0085 z m 28.02423,-0.177828 c 0.03525,-0.197405 -0.02222,-0.245745 -0.292129,-0.245745 -0.435804,0 -0.701766,0.238219 -0.470952,0.421821 0.260372,0.207108 0.713326,0.102592 0.763081,-0.176076 z m 2.027184,-0.573406 c 0.345904,0 0.442431,-0.151174 0.179169,-0.280596 -0.08396,-0.04128 -0.197755,-0.017 -0.252871,0.05393 -0.05512,0.07094 -0.156339,0.120563 -0.224938,0.11028 -0.0686,-0.01028 -0.209526,-0.01289 -0.313171,-0.0058 -0.157619,0.01083 -0.158441,0.0417 -0.005,0.188739 0.114752,0.109983 0.202447,0.13043 0.234217,0.05461 0.02794,-0.06666 0.200116,-0.121196 0.382621,-0.121196 z M 39.636719,36.213333 c -0.161863,-0.221411 -0.20095,-0.150544 -0.06845,0.124111 0.04709,0.09761 0.114542,0.154465 0.149893,0.126346 0.03535,-0.02812 -0.0013,-0.140828 -0.08144,-0.250457 z m -12.812537,-0.0082 c -0.05574,-0.230218 -0.299422,-0.215702 -0.361526,0.02153 -0.0259,0.09895 0.04979,0.169601 0.181703,0.169601 0.141422,0 0.208768,-0.07158 0.179823,-0.191136 z m 0.53186,-0.04778 c -0.04383,-0.08713 -0.07637,-0.06125 -0.08295,0.06599 -0.006,0.115133 0.02649,0.179643 0.07211,0.143351 0.04563,-0.03629 0.05051,-0.130498 0.01084,-0.209339 z m 13.163813,0.120183 c 0.141498,-0.182118 -0.176743,-0.390954 -0.366163,-0.240285 -0.158442,0.126033 -0.05928,0.359021 0.152808,0.359021 0.06661,0 0.162615,-0.05343 0.213355,-0.118736 z M 28.498018,35.565433 c 0,-0.08368 -0.09268,-0.152145 -0.205962,-0.152145 -0.11333,0 -0.205963,0.0967 -0.205963,0.215012 0,0.146248 0.06587,0.194906 0.205963,0.152143 0.113279,-0.03458 0.205962,-0.131331 0.205962,-0.21501 z m 10.374141,-0.03341 c -0.106438,-0.136993 -0.487972,-0.161512 -0.487972,-0.03136 0,0.04806 0.07415,0.146355 0.16477,0.218438 0.191955,0.152689 0.464584,-0.0051 0.323202,-0.187078 z m -21.633392,-0.0061 c 0,-0.14785 -0.06543,-0.195041 -0.209466,-0.151075 -0.161527,0.0493 -0.173392,0.09851 -0.05184,0.215012 0.211621,0.20283 0.261307,0.190672 0.261307,-0.06394 z m 32.76167,-0.287399 c -0.06646,-0.137772 -0.132577,-0.15667 -0.242425,-0.06929 -0.08307,0.06608 -0.109915,0.20539 -0.05965,0.309578 0.06646,0.137771 0.132581,0.156669 0.242426,0.06929 0.08307,-0.06608 0.109912,-0.205387 0.05965,-0.309575 z m 5.341279,-0.04369 c -0.386272,-0.132031 -2.368956,-0.132031 -2.471543,0 -0.05461,0.0703 0.419619,0.106485 1.330649,0.101546 0.918689,-0.005 1.319125,-0.04062 1.140894,-0.101546 z m 0.95154,-0.752165 c 0.04139,-0.05326 -0.0095,-0.152817 -0.113168,-0.221226 -0.143802,-0.09493 -0.206229,-0.08746 -0.263645,0.03156 -0.117371,0.2433 0.207924,0.407041 0.376813,0.18967 z m -5.311,-0.585793 c -0.08651,-0.206665 -0.51497,-0.236044 -0.51497,-0.03531 0,0.101316 0.117397,0.171837 0.286056,0.171837 0.167789,0 0.262432,-0.05645 0.228914,-0.136525 z m 1.327456,-5.499996 c 0.119456,-0.03646 0.217193,-0.110187 0.217193,-0.163831 0,-0.117786 -0.484883,-0.125962 -1.11563,-0.01881 l -0.46341,0.07873 0.480577,0.07072 c 0.264315,0.0389 0.521867,0.0772 0.572326,0.0851 0.05046,0.0079 0.189487,-0.01545 0.308944,-0.05192 z M 23.837141,27.611326 c -0.08984,-0.0861 -0.192213,-0.341734 -0.227506,-0.568068 -0.102304,-0.656106 -0.247384,-0.666855 -0.397044,-0.02942 -0.06867,0.292493 -0.03424,0.438892 0.134868,0.573408 0.29349,0.233453 0.730558,0.254947 0.489682,0.02408 z m 19.67841,-0.0052 c 0.213558,-0.128643 0.241045,-0.239043 0.162823,-0.653959 -0.111334,-0.590565 -0.351101,-0.555641 -0.351101,0.05114 0,0.233193 -0.06178,0.454364 -0.137308,0.491491 -0.160075,0.07869 -0.185028,0.27466 -0.03433,0.269577 0.05663,-0.0019 0.2186,-0.07312 0.359913,-0.158248 z m 7.363658,-0.329773 c 0,-0.09011 -0.05986,-0.163828 -0.133001,-0.163828 -0.07315,0 -0.09743,0.07372 -0.05396,0.163828 0.04347,0.09011 0.103318,0.163831 0.132999,0.163831 0.02967,0 0.05396,-0.07372 0.05396,-0.163831 z M 17.238767,27.16716 c 0,-0.09011 -0.06179,-0.16383 -0.137308,-0.16383 -0.07552,0 -0.137307,0.07372 -0.137307,0.16383 0,0.09011 0.06178,0.163831 0.137307,0.163831 0.07552,0 0.137308,-0.07372 0.137308,-0.163831 z m 32.74794,-0.03641 c 0,-0.197541 -0.268752,-0.161479 -0.322055,0.04322 -0.02965,0.113887 0.02181,0.163817 0.137307,0.133193 0.101612,-0.02694 0.184748,-0.106326 0.184748,-0.176409 z M 17.21399,26.329255 c -0.06469,-0.349668 -0.387147,-0.387117 -0.387147,-0.04496 0,0.183544 0.07532,0.282151 0.215511,0.282151 0.143123,0 0.200774,-0.07967 0.171636,-0.237191 z m 32.887173,0.08135 c 0.08225,-0.170486 -0.221724,-0.432355 -0.367379,-0.316496 -0.04969,0.03953 -0.09035,0.161974 -0.09035,0.272105 0,0.23601 0.348957,0.269855 0.457725,0.04439 z m 0.460773,-0.36295 c -0.03453,-0.105125 -0.0628,-0.01911 -0.0628,0.191135 0,0.210248 0.02827,0.296259 0.0628,0.191135 0.03453,-0.105125 0.03453,-0.277146 0,-0.38227 z m -7.097355,-1.774827 c 0,-1.587268 -0.04035,-2.075212 -0.171635,-2.075305 -0.132695,-9.1e-5 -0.162543,0.470707 -0.131565,2.075183 0.02371,1.228168 0.09377,2.075304 0.171634,2.075304 0.07926,0 0.131566,-0.824918 0.131566,-2.075182 z m -26.567014,0.871094 c 0.116474,-0.149906 -0.05939,-0.761876 -0.218943,-0.761876 -0.06952,0 -0.126396,0.196596 -0.126396,0.436881 0,0.416496 0.158413,0.565578 0.345339,0.324995 z m -5.99578,-0.640111 c 0.306915,-0.154712 0.129716,-0.504035 -0.25568,-0.504035 -0.327674,0 -0.358833,0.05283 -0.289899,0.491491 0.02092,0.133007 0.294145,0.13929 0.545579,0.01255 z m 45.71915,-0.259223 c 0.0375,-0.258444 -0.0054,-0.299422 -0.313253,-0.299422 -0.415626,0 -0.592379,0.257346 -0.341742,0.497565 0.259484,0.248701 0.605337,0.144075 0.654995,-0.198143 z m -45.28641,-0.633529 c 0,-0.05653 -0.06179,-0.102773 -0.137307,-0.102773 -0.07553,0 -0.137311,0.07662 -0.137311,0.170276 0,0.09365 0.06179,0.139901 0.137311,0.102774 0.07552,-0.03713 0.137307,-0.113751 0.137307,-0.170277 z m 44.549173,-0.0029 c -0.04421,-0.0569 -0.138907,-0.07468 -0.210441,-0.03952 -0.07153,0.03517 -0.09389,0.110494 -0.04968,0.167394 0.04421,0.0569 0.138908,0.07468 0.210441,0.03951 0.07153,-0.03516 0.09389,-0.110491 0.04968,-0.167392 z M 11.062079,23.123932 c 0.194384,-0.186307 -0.04332,-0.309965 -0.415322,-0.216051 -0.371148,0.0937 -0.374286,0.49172 -0.0033,0.414543 0.148564,-0.0309 0.33693,-0.120226 0.418591,-0.198492 z m 45.721369,0.18361 c 0,-0.144549 -0.482742,-0.454581 -0.707818,-0.454581 -0.351398,0 -0.318499,0.315525 0.04402,0.422197 0.336053,0.09888 0.6638,0.114874 0.6638,0.03238 z M 8.3681611,22.351626 c 0.1583946,-0.328335 -0.1766373,-0.480328 -0.5948109,-0.269847 -0.1633755,0.08223 -0.1663748,0.128705 -0.017535,0.271378 0.2304489,0.220872 0.5053647,0.220184 0.6123243,-0.0016 z m 1.2844075,-0.18128 c -0.086507,-0.206665 -0.51497,-0.236046 -0.51497,-0.03531 0,0.101315 0.1174001,0.171837 0.2860596,0.171837 0.1677848,0 0.2624301,-0.05645 0.2289104,-0.136525 z M 57.84765,22.115736 c 0.03352,-0.08008 -0.06112,-0.136525 -0.22891,-0.136525 -0.168659,0 -0.286057,0.07052 -0.286057,0.171838 0,0.200733 0.428459,0.171352 0.514967,-0.03531 z m -46.513123,-0.02086 c 0,-0.05652 -0.06179,-0.13315 -0.137307,-0.170275 -0.07553,-0.03713 -0.137311,0.0091 -0.137311,0.102775 0,0.09365 0.06179,0.170275 0.137311,0.170275 0.07552,0 0.137307,-0.04625 0.137307,-0.102775 z m 44.625077,-0.0064 c 0,-0.06007 -0.09633,-0.109221 -0.214067,-0.109221 -0.117735,0 -0.175877,0.04915 -0.129204,0.109221 0.04667,0.06007 0.143002,0.109219 0.214065,0.109219 0.07107,0 0.129206,-0.04915 0.129206,-0.109219 z m -35.356033,-0.76552 c 0.04709,-0.06061 0.04439,-0.213536 -0.0061,-0.339839 -0.07957,-0.199425 -0.117535,-0.209035 -0.288523,-0.07302 -0.108664,0.08643 -0.157284,0.238723 -0.108506,0.339839 0.09947,0.206186 0.274883,0.237968 0.403038,0.07302 z M 46.73852,21.044231 c -0.02596,-0.106528 -0.116571,-0.212056 -0.201355,-0.234509 -0.210868,-0.05584 -0.330372,0.358163 -0.145774,0.505002 0.192353,0.153003 0.409168,-0.01595 0.347129,-0.270493 z m -1.101272,-1.831835 c 0.02628,-0.107774 -0.04376,-0.182084 -0.171633,-0.182084 -0.127375,0 -0.21603,0.09338 -0.21603,0.22754 0,0.266175 0.320857,0.228552 0.387663,-0.04546 z m -24.279243,-0.01825 c 0,-0.09011 -0.05986,-0.16383 -0.132999,-0.16383 -0.07315,0 -0.09743,0.07372 -0.05396,0.16383 0.04347,0.09011 0.103321,0.163829 0.133001,0.163829 0.02967,0 0.05396,-0.07372 0.05396,-0.163829 z m 37.971054,-0.136524 c -0.007,-0.387369 -0.210761,-0.498482 -0.513945,-0.280234 -0.273841,0.197129 -0.211099,0.335783 0.213642,0.472099 0.16219,0.05205 0.297328,0.09776 0.300303,0.101565 0.003,0.0038 0.003,-0.128236 0,-0.29343 z m -12.615201,0.01996 c 0.132619,-0.274902 -0.176949,-0.437193 -0.348261,-0.182573 -0.143244,0.212903 -0.08474,0.353746 0.146952,0.353746 0.0653,0 0.155894,-0.07703 0.201309,-0.171173 z M 28.811553,17.200831 c 0.03032,-0.04505 0.0092,-0.204788 -0.04686,-0.354965 -0.0561,-0.150179 -0.109098,-0.223903 -0.117782,-0.163831 -0.0087,0.06007 -0.06892,0.04253 -0.133852,-0.03899 -0.07407,-0.09299 -0.226771,-0.120767 -0.409821,-0.07455 -0.331668,0.08373 -0.398882,0.386598 -0.0858,0.386598 0.113279,0 0.205962,0.07372 0.205962,0.16383 0,0.165588 0.486264,0.233313 0.588152,0.08192 z m 10.022696,-0.137775 c 0.298127,-0.27696 0.304691,-0.544851 0.01337,-0.544851 -0.175308,0 -0.205245,-0.07111 -0.139696,-0.331818 0.08879,-0.353138 -0.12933,-0.515429 -0.528845,-0.393481 -0.16752,0.05113 -0.176066,0.11335 -0.04662,0.339345 0.08718,0.152202 0.210385,0.276733 0.273781,0.276733 0.06339,0 0.115268,0.07898 0.115268,0.175516 0,0.09884 -0.07772,0.151793 -0.177905,0.121213 -0.116919,-0.03569 -0.18827,0.0539 -0.208142,0.261364 -0.0368,0.384137 0.333828,0.435042 0.698802,0.09598 z m 10.809189,0.05586 c 0,-0.09011 -0.02584,-0.16383 -0.05743,-0.16383 -0.03158,0 -0.15516,-0.02983 -0.274617,-0.0663 -0.139486,-0.04258 -0.217193,-0.0068 -0.217193,0.100119 0,0.150985 0.174406,0.262453 0.44625,0.285214 0.05663,0.0047 0.102982,-0.0651 0.102982,-0.155207 z M 28.781207,16.177802 c 0.122659,-0.182309 0.111951,-0.265856 -0.05065,-0.395195 -0.259311,-0.206266 -0.507158,-0.09272 -0.507158,0.232348 0,0.440233 0.310239,0.530804 0.557807,0.162847 z m 12.486448,-0.80641 c 0,-0.21139 -0.269551,-0.320767 -0.44553,-0.180785 -0.104445,0.08308 -0.09648,0.165328 0.02752,0.284174 0.193573,0.185528 0.41801,0.130015 0.41801,-0.103389 z M 25.969959,13.924779 c -0.149995,-0.119312 -0.252851,0.07043 -0.14516,0.267786 0.102115,0.187136 0.109515,0.186965 0.166409,-0.0038 0.03275,-0.109825 0.02319,-0.228602 -0.02124,-0.263947 z M 42.22881,13.625558 c 0,-0.07632 -0.08448,-0.194542 -0.187745,-0.262711 -0.276096,-0.182267 -0.60204,0.139687 -0.368262,0.363751 0.185314,0.177612 0.556007,0.110247 0.556007,-0.10104 z M 23.099497,12.784242 c -0.04383,-0.08713 -0.07637,-0.06125 -0.08295,0.06599 -0.006,0.115135 0.02649,0.179643 0.07211,0.14335 0.04562,-0.03629 0.0505,-0.130494 0.01084,-0.209337 z m 20.914315,0.07509 c 0,-0.09011 -0.06179,-0.163828 -0.137308,-0.163828 -0.07552,0 -0.137306,0.07372 -0.137306,0.163828 0,0.09011 0.06178,0.16383 0.137306,0.16383 0.07551,0 0.137308,-0.07372 0.137308,-0.16383 z M 30.420328,12.236777 c 0,-0.176435 -0.04061,-0.207985 -0.152805,-0.118736 -0.08404,0.06685 -0.111292,0.174979 -0.06056,0.240285 0.14203,0.1828 0.213356,0.142165 0.213356,-0.121549 z m 0.686539,0.07645 c 0,-0.09011 -0.09268,-0.163831 -0.205962,-0.163831 -0.214415,0 -0.272413,0.129177 -0.114423,0.254848 0.157991,0.125673 0.320385,0.07954 0.320385,-0.09102 z m 0.823848,-0.0064 c 0,-0.09365 -0.06178,-0.139901 -0.137309,-0.102774 -0.07552,0.03712 -0.137305,0.113748 -0.137305,0.170275 0,0.05653 0.06178,0.102775 0.137305,0.102775 0.07552,0 0.137309,-0.07662 0.137309,-0.170276 z m 3.295389,0.0675 c 0,-0.05653 -0.06178,-0.13315 -0.137306,-0.170275 -0.07552,-0.03713 -0.137309,0.0091 -0.137309,0.102774 0,0.09365 0.06178,0.170276 0.137309,0.170276 0.07552,0 0.137306,-0.04625 0.137306,-0.102775 z m 0.961158,-0.122112 c 0,-0.05652 -0.09268,-0.102775 -0.205962,-0.102775 -0.212337,0 -0.27279,0.128877 -0.118158,0.251878 0.109699,0.08726 0.32412,-0.01139 0.32412,-0.149103 z m 0.492716,-0.184136 c -0.149995,-0.119312 -0.252852,0.07043 -0.14516,0.267787 0.102114,0.187133 0.109514,0.186962 0.166408,-0.0038 0.03274,-0.109825 0.02318,-0.228602 -0.02123,-0.263949 z m -7.220519,-1.88446 c -0.08858,-0.04355 -0.151137,-0.121598 -0.139024,-0.17345 0.01211,-0.05185 -0.0444,-0.1118914 -0.125581,-0.1334164 -0.218551,-0.05795 -0.178978,0.1500494 0.05836,0.3067274 0.113278,0.07478 0.214376,0.240534 0.224659,0.368339 0.01673,0.207756 0.02527,0.204754 0.08067,-0.02833 0.03409,-0.143383 -0.01052,-0.296327 -0.09908,-0.339872 z m 8.100882,0.32752 c 0,-0.06007 -0.06178,-0.10922 -0.137308,-0.10922 -0.07552,0 -0.137309,0.04915 -0.137309,0.10922 0,0.06007 0.06178,0.109221 0.137309,0.109221 0.07552,0 0.137308,-0.04915 0.137308,-0.109221 z M 28.2234,10.074221 c 0,-0.06007 -0.06178,-0.1092214 -0.137307,-0.1092214 -0.07552,0 -0.137308,0.04915 -0.137308,0.1092214 0,0.06007 0.06178,0.109221 0.137308,0.109221 0.07552,0 0.137307,-0.04915 0.137307,-0.109221 z m 10.71002,0 c 0,-0.06007 -0.06178,-0.1092214 -0.137308,-0.1092214 -0.07552,0 -0.137309,0.04915 -0.137309,0.1092214 0,0.06007 0.06178,0.109221 0.137309,0.109221 0.07552,0 0.137308,-0.04915 0.137308,-0.109221 z M 28.339893,9.2983376 c -0.123398,-0.0614 -0.201101,-0.0337 -0.232982,0.08305 -0.02631,0.09634 0.03547,0.216628 0.137307,0.267297 0.123398,0.0614 0.201098,0.0337 0.232983,-0.08305 0.02631,-0.09634 -0.03548,-0.216627 -0.137308,-0.267298 z m 10.593527,0.127081 c 0,-0.103704 -0.0408,-0.221007 -0.09066,-0.260671 -0.125147,-0.09955 -0.493773,0.338917 -0.393468,0.468014 0.12406,0.159674 0.484135,0.0055 0.484135,-0.207343 z m 2.196925,-1.153329 c 0,-0.09011 -0.06178,-0.163831 -0.137306,-0.163831 -0.07553,0 -0.137308,0.07372 -0.137308,0.163831 0,0.09011 0.06178,0.16383 0.137308,0.16383 0.07552,0 0.137306,-0.07372 0.137306,-0.16383 z"
       id="path16" />
  </g>
</svg>
