<?xml version="1.0" encoding="UTF-8" standalone="no"?>
<svg
   xmlns:dc="http://purl.org/dc/elements/1.1/"
   xmlns:cc="http://creativecommons.org/ns#"
   xmlns:rdf="http://www.w3.org/1999/02/22-rdf-syntax-ns#"
   xmlns:svg="http://www.w3.org/2000/svg"
   xmlns="http://www.w3.org/2000/svg"
   xmlns:sodipodi="http://sodipodi.sourceforge.net/DTD/sodipodi-0.dtd"
   xmlns:inkscape="http://www.inkscape.org/namespaces/inkscape"
   width="64"
   height="64"
   version="1.1"
   id="svg12"
   sodipodi:docname="steam_icon_466560.svg"
   inkscape:version="1.0.2 (e86c870879, 2021-01-15)">
  <metadata
     id="metadata18">
    <rdf:RDF>
      <cc:Work
         rdf:about="">
        <dc:format>image/svg+xml</dc:format>
        <dc:type
           rdf:resource="http://purl.org/dc/dcmitype/StillImage" />
        <dc:title></dc:title>
      </cc:Work>
    </rdf:RDF>
  </metadata>
  <defs
     id="defs16" />
  <sodipodi:namedview
     pagecolor="#ffffff"
     bordercolor="#666666"
     borderopacity="1"
     objecttolerance="10"
     gridtolerance="10"
     guidetolerance="10"
     inkscape:pageopacity="0"
     inkscape:pageshadow="2"
     inkscape:window-width="1280"
     inkscape:window-height="973"
     id="namedview14"
     showgrid="false"
     inkscape:zoom="12.890625"
     inkscape:cx="32"
     inkscape:cy="32"
     inkscape:window-x="436"
     inkscape:window-y="23"
     inkscape:window-maximized="0"
     inkscape:current-layer="svg12"
     inkscape:document-rotation="0" />
  <path
     d="M 11.450725,53.513579 C -0.35413834,42.119833 -0.6320585,23.188251 10.830966,11.31161 22.294212,-0.56526151 41.223756,-0.95830366 53.02862,10.435443 64.833484,21.82919 65.111403,40.760774 53.648156,52.637646 42.184901,64.514065 23.25536,64.907105 11.450725,53.513579 Z M 12.132691,14.619031 C 3.2453092,24.889378 3.4711631,40.259 12.654352,50.153912 Z m 3.158119,-3.098703 0.610684,41.599294 c 4.459052,3.441458 9.764575,5.257705 15.126689,5.46604 L 30.783969,41.965382 C 28.752388,41.684493 26.792353,40.783625 25.210267,39.256637 21.219092,35.404458 21.125123,29.003486 25.0008,24.987964 c 1.536079,-1.591505 3.46848,-2.573193 5.4908,-2.938479 L 30.248298,5.4296391 C 24.895113,5.8604593 19.646361,7.8960728 15.29081,11.520328 Z m 18.696474,30.378767 0.243763,16.62029 c 5.352955,-0.431041 10.601714,-2.466202 14.957035,-6.090679 L 48.57762,10.829181 C 44.118569,7.3877197 38.812813,5.5712541 33.4507,5.3629198 l 0.243986,16.6200582 c 2.031579,0.280886 3.991617,1.181755 5.573702,2.708743 3.991176,3.852179 4.085143,10.253151 0.209466,14.268672 -1.536072,1.591958 -3.468702,2.573426 -5.49057,2.938702 z m 3.049735,-14.895031 c -2.724128,-2.629257 -7.092589,-2.538554 -9.737886,0.202192 -2.645296,2.740746 -2.581159,7.109678 0.142969,9.738935 2.724129,2.629258 7.09259,2.538555 9.737887,-0.202191 2.645296,-2.740746 2.580928,-7.1099 -0.14297,-9.738936 z M 51.824765,13.794889 52.346424,49.329772 C 61.23336,39.059887 61.007957,23.690256 51.824765,13.794889 Z"
     id="path2"
     style="fill:#29292a;stroke-width:0.320332" />
  <path
     style="opacity:1;fill:#29292a;stroke:none;stroke-width:0.0859741"
     d="m 30.779815,39.469806 c -2.8187,-0.541102 -4.999397,-2.542421 -5.85929,-5.377321 -0.205451,-0.67733 -0.230798,-0.900009 -0.234032,-2.056086 -0.004,-1.421895 0.123703,-2.07367 0.625226,-3.191583 1.330839,-2.966491 4.513801,-4.808239 7.690928,-4.450179 3.381523,0.381094 6.063352,2.950457 6.601984,6.325123 0.143534,0.89928 0.06422,2.425037 -0.168755,3.2459 -0.74202,2.614541 -2.855132,4.698 -5.460765,5.384142 -0.874452,0.230268 -2.335141,0.285126 -3.195296,0.120004 z"
     id="path17" />
</svg>
