<?xml version="1.0" encoding="UTF-8" standalone="no"?>
<svg
   xmlns:dc="http://purl.org/dc/elements/1.1/"
   xmlns:cc="http://creativecommons.org/ns#"
   xmlns:rdf="http://www.w3.org/1999/02/22-rdf-syntax-ns#"
   xmlns:svg="http://www.w3.org/2000/svg"
   xmlns="http://www.w3.org/2000/svg"
   xmlns:sodipodi="http://sodipodi.sourceforge.net/DTD/sodipodi-0.dtd"
   xmlns:inkscape="http://www.inkscape.org/namespaces/inkscape"
   width="64"
   height="64"
   version="1.1"
   id="svg73"
   sodipodi:docname="steam_icon_807120.svg"
   inkscape:version="1.0.2 (e86c870879, 2021-01-15)">
  <metadata
     id="metadata77">
    <rdf:RDF>
      <cc:Work
         rdf:about="">
        <dc:format>image/svg+xml</dc:format>
        <dc:type
           rdf:resource="http://purl.org/dc/dcmitype/StillImage" />
        <dc:title />
      </cc:Work>
    </rdf:RDF>
  </metadata>
  <sodipodi:namedview
     pagecolor="#ffffff"
     bordercolor="#666666"
     borderopacity="1"
     objecttolerance="10"
     gridtolerance="10"
     guidetolerance="10"
     inkscape:pageopacity="0"
     inkscape:pageshadow="2"
     inkscape:window-width="1920"
     inkscape:window-height="996"
     id="namedview75"
     showgrid="false"
     inkscape:zoom="8.8940775"
     inkscape:cx="32"
     inkscape:cy="32"
     inkscape:window-x="0"
     inkscape:window-y="0"
     inkscape:window-maximized="1"
     inkscape:current-layer="svg73"
     inkscape:document-rotation="0" />
  <defs
     id="defs29">
    <linearGradient
       id="b"
       x1="399.57"
       x2="399.57"
       y1="545.8"
       y2="517.8"
       gradientTransform="matrix(2.1429,0,0,2.1429,-826.36,-1107.5)"
       gradientUnits="userSpaceOnUse">
      <stop
         stop-color="#3889e9"
         offset="0"
         id="stop2" />
      <stop
         stop-color="#5ea5fb"
         offset="1"
         id="stop4" />
    </linearGradient>
    <linearGradient
       id="linearGradient862"
       x1="7.9373"
       x2="7.9373"
       y1="15.081"
       y2="1.852"
       gradientTransform="matrix(3.3743 0 0 3.3743 3.4312 3.4278)"
       gradientUnits="userSpaceOnUse">
      <stop
         stop-color="#f1efeb"
         offset="0"
         id="stop7" />
      <stop
         stop-color="#fff"
         offset="1"
         id="stop9" />
    </linearGradient>
    <linearGradient
       id="linearGradient910"
       x1="7.9373"
       x2="7.9373"
       y1="15.081"
       y2="1.852"
       gradientTransform="scale(3.7796)"
       gradientUnits="userSpaceOnUse">
      <stop
         stop-color="#613583"
         offset="0"
         id="stop12" />
      <stop
         stop-color="#a663c0"
         offset="1"
         id="stop14" />
    </linearGradient>
    <linearGradient
       id="linearGradient932"
       x1="379.24"
       x2="374.24"
       y1="546.85"
       y2="546.85"
       gradientTransform="matrix(2.1429 0 0 2.1429 -769.68 -1134.5)"
       gradientUnits="userSpaceOnUse">
      <stop
         stop-color="#f6f5f4"
         offset="0"
         id="stop17" />
      <stop
         stop-color="#fff"
         offset=".6"
         id="stop19" />
      <stop
         stop-color="#dddbd8"
         offset="1"
         id="stop21" />
    </linearGradient>
    <linearGradient
       id="linearGradient1146"
       x1="18"
       x2="18"
       y1="52"
       y2="12"
       gradientUnits="userSpaceOnUse">
      <stop
         stop-color="#5e337f"
         offset="0"
         id="stop24" />
      <stop
         stop-color="#ab60bf"
         offset="1"
         id="stop26" />
    </linearGradient>
  </defs>
  <circle
     cx="32.02"
     cy="32.044"
     r="30.001"
     fill-opacity="0"
     stroke-width="1.5715"
     id="circle39" />
  <circle
     cx="32.02"
     cy="32.044"
     r="0"
     fill="url(#b)"
     stroke-width="1.5715"
     id="circle41" />
  <path
     d="m 34.841241,2.9399137 c 2.579412,0.7506556 4.344828,1.8570992 4.85241,3.5138931 -0.16349,0.09039 -0.325909,0.1854045 -0.486294,0.2886108 -3.068337,0.7092516 -6.348845,2.2759094 -9.693222,4.1970104 2.41891,-0.572827 4.389921,-0.539848 5.686264,0.405984 -0.683155,1.258016 -1.291322,2.722931 -1.80871,4.404278 -2.552624,8.295818 -15.031091,-9.8414712 -22.612178,-0.641835 -4.8049309,5.830597 1.322417,11.461376 -6.5953432,21.470299 4.2557282,-0.505651 5.3951571,-1.156645 7.4649552,-4.422599 1.248624,-1.970077 3.410993,-2.699238 5.342293,-2.61985 -1.521073,1.368674 -3.084009,3.70736 -4.569913,7.315424 2.371905,-2.262963 5.373265,-4.724277 8.563717,-4.886106 0.109073,0.776059 -0.287997,1.678166 -1.436157,2.615936 -7.386377,6.032249 -16.6709263,10.533991 -16.162627,24.252342 0.6647379,-1.37612 1.392862,-2.480609 2.1018508,-3.495206 0.715209,3.61307 3.3727207,6.570996 11.1216062,4.944369 -5.612591,-0.782535 -9.1216526,-7.277682 -5.424459,-10.079761 7.500833,-5.684764 15.406872,0.175391 32.280043,-9.202075 0.296012,-0.164398 0.581257,-0.304124 0.856815,-0.422597 -0.268622,2.393893 -1.479095,4.865958 -2.674495,6.978934 1.705497,-1.267788 3.039636,-2.460702 4.057786,-3.573986 0.255948,3.192672 -1.405058,6.674808 -3.037,9.559451 5.173898,-3.846105 7.318325,-7.081039 7.559557,-9.578262 1.116348,4.479759 -0.22664,11.669867 -2.993587,15.082996 9.27534,-4.816244 12.750319,-9.420091 13.127297,-23.287211 0.198775,-7.30675 -7.921109,-7.39371 -6.749626,-12.377897 1.42862,-6.077069 0.809453,-10.343819 -0.904775,-13.18437 C 50.363288,4.1237903 43.140645,2.9011958 34.841001,2.9399137 Z M 11.754849,6.4583263 C 7.5556935,6.4399912 6.424636,10.778571 7.6793611,14.924404 9.7300214,8.633838 16.100876,9.5210444 20.975291,10.726909 16.994763,7.6728615 13.953933,6.4679737 11.75461,6.4582049 Z m 30.449565,3.7547497 c 2.229704,2.610075 3.513015,5.254353 1.208558,8.028338 -3.176812,-2.036883 -3.227405,-4.79414 -1.208558,-8.028338 z m 8.909484,5.935881 c 0.437138,-0.0015 0.930488,0.04275 1.491773,0.13313 -0.20404,3.725921 -1.72224,4.030534 -5.577431,3.927205 0.996869,-2.704857 1.724157,-4.052032 4.085538,-4.060458 z m -10.127371,4.924089 c 1.154381,0.01228 2.422858,0.346872 3.659523,1.089224 5.340141,3.205617 2.623306,8.954384 -0.490362,9.133438 -1.81481,0.104428 0.172585,-2.912002 -1.933932,-4.69936 -1.824855,-1.54846 -4.616082,1.530381 -5.406396,-0.705955 -0.982875,-2.771665 1.221113,-4.848369 4.171287,-4.817347 z m 7.19753,30.066331 c -2.893723,3.398474 -7.043245,7.340462 -11.893504,3.836337 1.98835,5.574721 8.236853,8.606414 11.893386,-3.836337 z"
     fill="#000000"
     fill-rule="evenodd"
     id="path4"
     style="fill:#29292a;stroke-width:0.120862" />
</svg>
