<?xml version="1.0" encoding="UTF-8" standalone="no"?>
<svg
   xmlns:dc="http://purl.org/dc/elements/1.1/"
   xmlns:cc="http://creativecommons.org/ns#"
   xmlns:rdf="http://www.w3.org/1999/02/22-rdf-syntax-ns#"
   xmlns:svg="http://www.w3.org/2000/svg"
   xmlns="http://www.w3.org/2000/svg"
   xmlns:xlink="http://www.w3.org/1999/xlink"
   xmlns:sodipodi="http://sodipodi.sourceforge.net/DTD/sodipodi-0.dtd"
   xmlns:inkscape="http://www.inkscape.org/namespaces/inkscape"
   width="64"
   height="64"
   version="1.1"
   id="svg73"
   sodipodi:docname="steam-icon.svg"
   inkscape:version="1.0.2 (e86c870879, 2021-01-15)">
  <metadata
     id="metadata77">
    <rdf:RDF>
      <cc:Work
         rdf:about="">
        <dc:format>image/svg+xml</dc:format>
        <dc:type
           rdf:resource="http://purl.org/dc/dcmitype/StillImage" />
        <dc:title />
      </cc:Work>
    </rdf:RDF>
  </metadata>
  <sodipodi:namedview
     pagecolor="#ffffff"
     bordercolor="#666666"
     borderopacity="1"
     objecttolerance="10"
     gridtolerance="10"
     guidetolerance="10"
     inkscape:pageopacity="0"
     inkscape:pageshadow="2"
     inkscape:window-width="1717"
     inkscape:window-height="809"
     id="namedview75"
     showgrid="false"
     inkscape:zoom="12.578125"
     inkscape:cx="16.854658"
     inkscape:cy="47.900621"
     inkscape:window-x="203"
     inkscape:window-y="187"
     inkscape:window-maximized="0"
     inkscape:current-layer="svg73"
     inkscape:document-rotation="0" />
  <defs
     id="defs29">
    <linearGradient
       id="b"
       x1="399.57"
       x2="399.57"
       y1="545.8"
       y2="517.8"
       gradientTransform="matrix(2.1429,0,0,2.1429,-826.36,-1107.5)"
       gradientUnits="userSpaceOnUse">
      <stop
         stop-color="#3889e9"
         offset="0"
         id="stop2" />
      <stop
         stop-color="#5ea5fb"
         offset="1"
         id="stop4" />
    </linearGradient>
    <linearGradient
       id="linearGradient862"
       x1="7.9373"
       x2="7.9373"
       y1="15.081"
       y2="1.852"
       gradientTransform="matrix(3.3743 0 0 3.3743 3.4312 3.4278)"
       gradientUnits="userSpaceOnUse">
      <stop
         stop-color="#f1efeb"
         offset="0"
         id="stop7" />
      <stop
         stop-color="#fff"
         offset="1"
         id="stop9" />
    </linearGradient>
    <linearGradient
       id="linearGradient910"
       x1="7.9373"
       x2="7.9373"
       y1="15.081"
       y2="1.852"
       gradientTransform="scale(3.7796)"
       gradientUnits="userSpaceOnUse">
      <stop
         stop-color="#613583"
         offset="0"
         id="stop12" />
      <stop
         stop-color="#a663c0"
         offset="1"
         id="stop14" />
    </linearGradient>
    <linearGradient
       id="linearGradient932"
       x1="379.24"
       x2="374.24"
       y1="546.85"
       y2="546.85"
       gradientTransform="matrix(2.1429 0 0 2.1429 -769.68 -1134.5)"
       gradientUnits="userSpaceOnUse">
      <stop
         stop-color="#f6f5f4"
         offset="0"
         id="stop17" />
      <stop
         stop-color="#fff"
         offset=".6"
         id="stop19" />
      <stop
         stop-color="#dddbd8"
         offset="1"
         id="stop21" />
    </linearGradient>
    <linearGradient
       id="linearGradient1146"
       x1="18"
       x2="18"
       y1="52"
       y2="12"
       gradientUnits="userSpaceOnUse">
      <stop
         stop-color="#5e337f"
         offset="0"
         id="stop24" />
      <stop
         stop-color="#ab60bf"
         offset="1"
         id="stop26" />
    </linearGradient>
    <linearGradient
       x1="41.14489"
       y1="33.263603"
       x2="44.618843"
       y2="59.650906"
       id="linearGradient3968"
       xlink:href="#linearGradient3962"
       gradientUnits="userSpaceOnUse"
       gradientTransform="matrix(0.57850871,0,0,0.81580056,4.6247319,-10.571474)" />
    <linearGradient
       id="linearGradient3962">
      <stop
         id="stop3964"
         style="stop-color:#f5f5f5;stop-opacity:1"
         offset="0" />
      <stop
         id="stop3966"
         style="stop-color:#e6e6e6;stop-opacity:1"
         offset="1" />
    </linearGradient>
    <linearGradient
       x1="41.14489"
       y1="33.263603"
       x2="44.618843"
       y2="59.650906"
       id="linearGradient3968-3"
       xlink:href="#linearGradient3962"
       gradientUnits="userSpaceOnUse"
       gradientTransform="matrix(0.62517405,0,0,0.75428319,1.6770515,-9.2990771)" />
    <clipPath
       id="clipPath4066">
      <rect
         width="84"
         height="38"
         rx="6"
         ry="6"
         x="6"
         y="48"
         id="rect4068"
         style="color:#000000;display:inline;overflow:visible;visibility:visible;opacity:0.5;fill:#ff00ff;fill-opacity:1;fill-rule:nonzero;stroke:none;stroke-width:8;marker:none;enable-background:accumulate" />
    </clipPath>
    <linearGradient
       x1="29"
       y1="86"
       x2="29"
       y2="70"
       id="linearGradient4081"
       xlink:href="#linearGradient4075"
       gradientUnits="userSpaceOnUse" />
    <linearGradient
       id="linearGradient4075">
      <stop
         id="stop4077"
         style="stop-color:#ffdf60;stop-opacity:1"
         offset="0" />
      <stop
         id="stop4079"
         style="stop-color:#ffd917;stop-opacity:1"
         offset="1" />
    </linearGradient>
    <linearGradient
       id="b-5"
       x1="429.07001"
       x2="429.07001"
       y1="14.723"
       y2="1034.7"
       gradientTransform="matrix(0.063764,0,0,0.063764,2.5519371,-2.8187191)"
       gradientUnits="userSpaceOnUse">
      <stop
         stop-color="#fff"
         offset="0"
         id="stop2-3" />
      <stop
         stop-color="#d7d7d7"
         offset="1"
         id="stop4-5" />
    </linearGradient>
  </defs>
  <circle
     cx="32.02"
     cy="32.044"
     r="30.001"
     fill-opacity="0"
     stroke-width="1.5715"
     id="circle39" />
  <circle
     cx="32.02"
     cy="32.044"
     r="0"
     fill="url(#b)"
     stroke-width="1.5715"
     id="circle41" />
  <path
     d="m 43.826153,3.9598931 c -9.565128,0 -17.344187,7.6258839 -17.344187,16.9973969 0,0.07512 -0.0011,0.151335 0.003,0.221889 L 15.343437,37.012125 c -0.171973,-0.0093 -0.344121,-0.01511 -0.516337,-0.01752 -2.499709,0.0031 -4.9428072,0.728293 -7.0227921,2.084502 L 6.6015537,38.594463 0.04728466,35.94941 v 6.828855 c 0,9.992038 5.62989474,19.941192 15.68159034,18.997443 1.493361,-0.102139 2.95647,-0.461922 4.321683,-1.062715 0.01295,-0.0068 0.02588,-0.0136 0.0388,-0.02043 4.521648,-2.014096 7.426001,-6.423925 7.431717,-11.283964 -0.0036,-0.107106 -0.0086,-0.214163 -0.01497,-0.321143 l 15.929144,-11.13508 c 0.12937,0.0042 0.261629,0.0058 0.390985,0.0058 9.56895,0 17.347244,-7.629471 17.347244,-17.000387 0,-9.371812 -7.77692,-16.994407 -17.347244,-16.994407 v -0.00299 z m 0,5.6726254 c 6.374104,0 11.562386,5.0839715 11.562386,11.3249215 0,6.245732 -5.188282,11.327762 -11.562386,11.327762 -6.37013,0 -11.553367,-5.08203 -11.553367,-11.327762 0,-6.2408 5.18339,-11.3249215 11.553367,-11.3249215 z m 0.0209,2.7969245 c -4.790358,0 -8.679277,3.811896 -8.679277,8.510508 0,4.698911 3.888919,8.507517 8.679277,8.507517 4.794331,0 8.682179,-3.808606 8.682179,-8.507517 0,-4.698612 -3.888001,-8.510508 -8.682179,-8.510508 z M 14.828002,39.896436 c 0.958745,2.5e-5 1.912216,0.138744 2.82947,0.411654 0.296792,0.08944 0.590788,0.193247 0.883438,0.312383 0.904527,0.368125 1.73335,0.857957 2.468224,1.451004 1.224774,0.988424 2.188729,2.26358 2.808536,3.739996 0.236018,0.562121 0.411247,1.139249 0.534247,1.722461 0.0092,0.03887 0.01816,0.0778 0.02686,0.116789 0.04189,0.212037 0.0685,0.425884 0.09551,0.639371 0.01589,0.109722 0.02982,0.219706 0.04178,0.329904 0.02375,0.262965 0.03753,0.52469 0.0388,0.788268 v 0.003 c -0.0019,5.253137 -4.356571,9.51029 -9.726804,9.508886 -3.561409,-0.0033 -6.8360784,-1.910695 -8.5359386,-4.972012 l 5.1604686,2.081662 c 3.357896,1.35468 7.121814,0.09068 8.992695,-2.817403 0.0014,-0.0023 0.0046,-0.0035 0.0059,-0.0058 0.02205,-0.03353 0.03518,-0.07404 0.05671,-0.10803 0.188173,-0.304386 0.377996,-0.607472 0.522313,-0.945925 0.0083,-0.01919 0.0099,-0.03918 0.01791,-0.05839 0.186477,-0.437784 0.322969,-0.883354 0.414854,-1.331301 5.83e-4,-0.0028 -5.77e-4,-0.0058 0,-0.0088 0.09453,-0.463583 0.138754,-0.927779 0.137287,-1.389704 -0.0045,-1.391287 -0.430884,-2.746849 -1.208775,-3.891717 -0.007,-0.01029 -0.01683,-0.01886 -0.02388,-0.02919 -0.249397,-0.362868 -0.532894,-0.70437 -0.850622,-1.018892 -0.256066,-0.254982 -0.549665,-0.477081 -0.847634,-0.694843 -0.07527,-0.05503 -0.137041,-0.122754 -0.214884,-0.175177 -0.0018,-0.0012 -0.0041,-0.0016 -0.0059,-0.003 -0.419792,-0.282084 -0.872926,-0.531777 -1.363972,-0.729883 l -5.709524,-2.30065 c 1.102782,-0.411541 2.272944,-0.623253 3.453252,-0.624783 z"
     color="#000000"
     fill="url(#b)"
     stroke-width="1.61218"
     id="path25"
     style="fill:#29292a"
     sodipodi:nodetypes="csccccccsccccccsscccssssssssssccccccccccsccccccccsccsccccccccc" />
</svg>
