<?xml version="1.0" encoding="UTF-8" standalone="no"?>
<svg
   xmlns:dc="http://purl.org/dc/elements/1.1/"
   xmlns:cc="http://creativecommons.org/ns#"
   xmlns:rdf="http://www.w3.org/1999/02/22-rdf-syntax-ns#"
   xmlns:svg="http://www.w3.org/2000/svg"
   xmlns="http://www.w3.org/2000/svg"
   xmlns:sodipodi="http://sodipodi.sourceforge.net/DTD/sodipodi-0.dtd"
   xmlns:inkscape="http://www.inkscape.org/namespaces/inkscape"
   width="64"
   height="64"
   version="1.1"
   id="svg14"
   sodipodi:docname="steam_icon_1020730.svg"
   inkscape:version="1.0.2 (e86c870879, 2021-01-15)">
  <metadata
     id="metadata20">
    <rdf:RDF>
      <cc:Work
         rdf:about="">
        <dc:format>image/svg+xml</dc:format>
        <dc:type
           rdf:resource="http://purl.org/dc/dcmitype/StillImage" />
        <dc:title></dc:title>
      </cc:Work>
    </rdf:RDF>
  </metadata>
  <defs
     id="defs18" />
  <sodipodi:namedview
     pagecolor="#ffffff"
     bordercolor="#666666"
     borderopacity="1"
     objecttolerance="10"
     gridtolerance="10"
     guidetolerance="10"
     inkscape:pageopacity="0"
     inkscape:pageshadow="2"
     inkscape:window-width="1336"
     inkscape:window-height="939"
     id="namedview16"
     showgrid="false"
     inkscape:zoom="12.890625"
     inkscape:cx="32"
     inkscape:cy="27.843755"
     inkscape:window-x="454"
     inkscape:window-y="57"
     inkscape:window-maximized="0"
     inkscape:current-layer="svg14" />
  <path
     style="fill:#d8d8d8"
     d="m 36.761913,11.907853 v 28 l 4,-4 4,4 v -28 z"
     id="path8" />
  <path
     style="opacity:0.2"
     d="M 38,5 V 33 L 42,29 46,33 V 5 Z"
     id="path6" />
  <path
     style="opacity:0.2;fill:#ffffff"
     d="m 11.36982,8.9777285 c -1.6619999,0 -2.9999999,1.3379995 -2.9999999,2.9999995 v 1 c 0,-1.662 1.338,-2.9999995 2.9999999,-2.9999995 h 38 c 1.662,0 3,1.3379995 3,2.9999995 v -1 c 0,-1.662 -1.338,-2.9999995 -3,-2.9999995 z"
     id="path12" />
  <rect
     style="fill:#29292a"
     width="44"
     height="56"
     x="10"
     y="4"
     rx="3"
     ry="3"
     id="rect4" />
  <path
     style="opacity:1;fill:#676767"
     d="M 13 4 C 11.338 4 10 5.338 10 7 L 10 57 C 10 58.662 11.338 60 13 60 L 18 60 L 18 4 L 13 4 z"
     id="path10" />
  <path
     style="fill:#ffffff;stroke-width:0.571231;opacity:0.85"
     d="m 27.56969,16.052341 c -0.431467,0.288863 -0.850772,0.600652 -1.252905,0.931976 l 3.377586,10.529063 -8.941185,5.746432 a 15.700737,16.293679 0 0 0 0.269419,1.120645 l 10.967297,0.05228 3.06217,11.56333 a 15.700737,16.293679 0 0 0 1.014153,0.05229 c 0.253686,-0.0031 0.506824,-0.01363 0.760066,-0.02955 l 3.248353,-11.608793 h 2.271437 8.759382 a 15.700737,16.293679 0 0 0 0.32637,-1.327499 l -8.884235,-5.68506 3.487106,-10.219919 a 15.700737,16.293679 0 0 0 -0.08762,-0.06819 c -0.399953,-0.33517 -0.812215,-0.652743 -1.241949,-0.94562 l -8.503106,6.428365 z m 0.994438,2.770925 6.306142,4.775813 -3.84195,2.907311 z m 15.225423,0.04774 -2.567141,7.524006 -3.686431,-2.795929 z m -7.587522,5.737339 4.472783,3.38694 -1.710698,4.784904 H 38.931254 33.11357 L 31.547435,28.127123 Z M 42,29 l 6.35433,3.780189 h -6.008249 -1.715077 z m -11.784315,0.136389 1.241953,3.643801 h -1.67127 v 0.01141 l -5.657786,-0.02504 z m 3.421393,5.273623 h 4.735631 l -2.442289,9.169741 -0.0679,-0.206852 z"
     id="path10-3" />
</svg>
