<?xml version="1.0" encoding="UTF-8" standalone="no"?>
<svg
   xmlns:dc="http://purl.org/dc/elements/1.1/"
   xmlns:cc="http://creativecommons.org/ns#"
   xmlns:rdf="http://www.w3.org/1999/02/22-rdf-syntax-ns#"
   xmlns:svg="http://www.w3.org/2000/svg"
   xmlns="http://www.w3.org/2000/svg"
   xmlns:sodipodi="http://sodipodi.sourceforge.net/DTD/sodipodi-0.dtd"
   xmlns:inkscape="http://www.inkscape.org/namespaces/inkscape"
   width="64"
   height="64"
   version="1.1"
   id="svg73"
   sodipodi:docname="steam_icon_1158310.svg"
   inkscape:version="1.0.2 (e86c870879, 2021-01-15)">
  <metadata
     id="metadata77">
    <rdf:RDF>
      <cc:Work
         rdf:about="">
        <dc:format>image/svg+xml</dc:format>
        <dc:type
           rdf:resource="http://purl.org/dc/dcmitype/StillImage" />
        <dc:title></dc:title>
      </cc:Work>
    </rdf:RDF>
  </metadata>
  <sodipodi:namedview
     pagecolor="#ffffff"
     bordercolor="#666666"
     borderopacity="1"
     objecttolerance="10"
     gridtolerance="10"
     guidetolerance="10"
     inkscape:pageopacity="0"
     inkscape:pageshadow="2"
     inkscape:window-width="1920"
     inkscape:window-height="996"
     id="namedview75"
     showgrid="false"
     inkscape:zoom="12.578125"
     inkscape:cx="32"
     inkscape:cy="35.061307"
     inkscape:window-x="0"
     inkscape:window-y="0"
     inkscape:window-maximized="1"
     inkscape:current-layer="svg73"
     inkscape:document-rotation="0" />
  <defs
     id="defs29">
    <linearGradient
       id="b"
       x1="399.57"
       x2="399.57"
       y1="545.8"
       y2="517.8"
       gradientTransform="matrix(2.1429,0,0,2.1429,-826.36,-1107.5)"
       gradientUnits="userSpaceOnUse">
      <stop
         stop-color="#3889e9"
         offset="0"
         id="stop2" />
      <stop
         stop-color="#5ea5fb"
         offset="1"
         id="stop4" />
    </linearGradient>
    <linearGradient
       id="linearGradient862"
       x1="7.9373"
       x2="7.9373"
       y1="15.081"
       y2="1.852"
       gradientTransform="matrix(3.3743 0 0 3.3743 3.4312 3.4278)"
       gradientUnits="userSpaceOnUse">
      <stop
         stop-color="#f1efeb"
         offset="0"
         id="stop7" />
      <stop
         stop-color="#fff"
         offset="1"
         id="stop9" />
    </linearGradient>
    <linearGradient
       id="linearGradient910"
       x1="7.9373"
       x2="7.9373"
       y1="15.081"
       y2="1.852"
       gradientTransform="scale(3.7796)"
       gradientUnits="userSpaceOnUse">
      <stop
         stop-color="#613583"
         offset="0"
         id="stop12" />
      <stop
         stop-color="#a663c0"
         offset="1"
         id="stop14" />
    </linearGradient>
    <linearGradient
       id="linearGradient932"
       x1="379.24"
       x2="374.24"
       y1="546.85"
       y2="546.85"
       gradientTransform="matrix(2.1429 0 0 2.1429 -769.68 -1134.5)"
       gradientUnits="userSpaceOnUse">
      <stop
         stop-color="#f6f5f4"
         offset="0"
         id="stop17" />
      <stop
         stop-color="#fff"
         offset=".6"
         id="stop19" />
      <stop
         stop-color="#dddbd8"
         offset="1"
         id="stop21" />
    </linearGradient>
    <linearGradient
       id="linearGradient1146"
       x1="18"
       x2="18"
       y1="52"
       y2="12"
       gradientUnits="userSpaceOnUse">
      <stop
         stop-color="#5e337f"
         offset="0"
         id="stop24" />
      <stop
         stop-color="#ab60bf"
         offset="1"
         id="stop26" />
    </linearGradient>
    <linearGradient
       id="g"
       x1="500"
       x2="500"
       y1="4"
       y2="1024"
       gradientTransform="matrix(0.03400746,0,0,0.03400746,30.71876,30.227719)"
       gradientUnits="userSpaceOnUse">
      <stop
         stop-color="#fff"
         offset="0"
         id="stop7-3" />
      <stop
         stop-color="#e6e6e6"
         offset="1"
         id="stop9-5" />
    </linearGradient>
  </defs>
  <circle
     cx="32.02"
     cy="32.044"
     r="30.001"
     fill-opacity="0"
     stroke-width="1.5715"
     id="circle39" />
  <circle
     cx="32.02"
     cy="32.044"
     r="0"
     fill="url(#b)"
     stroke-width="1.5715"
     id="circle41" />
  <path
     d="M 32.331071,7.7268644 C 25.31025,9.9131302 18.291501,12.106006 11.270678,14.29668 11.785056,30.56364 15.713397,50.405319 32.331071,56.21479 49.127116,50.583835 52.677972,30.389532 53.391463,14.29668 46.37064,12.103802 39.351892,9.910925 32.331071,7.7268644"
     style="fill:#e6e6e6;fill-rule:evenodd;stroke-width:1.00377"
     id="path4" />
  <path
     style="fill:#29292a;fill-rule:evenodd;stroke-width:1.00377"
     d="M 32.331071,2.6213773 C 24.034683,5.2673417 15.738287,7.9223371 7.4418965,10.575077 8.0496081,30.268559 12.691439,54.289958 32.331071,61.320278 52.18019,54.502175 56.378166,30.05634 57.220248,10.575077 48.923855,7.9200805 40.627463,5.2650852 32.331071,2.6213773 Z"
     id="path6" />
  <path
     d="M 32.331071,2.6213773 C 24.034683,5.2673417 15.738287,7.9223371 7.4418965,10.575077 8.0496081,30.268559 12.691439,54.289958 32.331071,61.320278 Z"
     style="fill:#29292a;fill-rule:evenodd;stroke-width:1.00377"
     id="path8" />
  <path
     style="opacity:0.85;fill:#ffffff;stroke-width:1.00377"
     d="m 32.331072,8.4841511 c -2.03239,0.6484737 -4.065267,1.2997579 -6.097847,1.9489869 l 3.111146,3.368229 V 23.874428 H 18.692581 17.813682 L 13.81197,20.12668 c 0.413892,3.996144 1.039199,7.966309 1.9678,11.737407 l 2.033912,-1.91736 h 0.878899 10.65179 v 20.193561 l -1.843355,2.087353 c 0.0052,0.004 0.01036,0.0078 0.01556,0.01181 0.592811,0.453246 1.223027,0.86285 1.862799,1.265063 0.157884,0.09906 0.301933,0.212465 0.462784,0.308358 0.803509,0.479961 1.643269,0.921837 2.523918,1.32041 0.889101,-0.39076 1.735552,-0.824956 2.543362,-1.300642 0.805289,-0.474201 1.571596,-0.987508 2.30225,-1.541794 0.0023,-0.0018 0.0055,-0.0023 0.0077,-0.004 L 35.317773,50.140288 V 29.946727 h 10.612901 0.917786 l 1.991135,1.871897 c 0.903066,-3.742904 1.5224,-7.676236 1.948357,-11.626715 L 46.84846,23.874428 H 45.930674 35.317773 V 13.801367 L 38.42892,10.433138 C 36.396257,9.7840739 34.36325,9.1320786 32.331072,8.4841511 Z"
     id="path14" />
  <ellipse
     style="fill:#676767;stroke-width:0.929205"
     cx="48.876377"
     cy="48.960499"
     id="circle12"
     rx="14.890004"
     ry="14.844596" />
  <path
     d="m 40.668382,39.310508 h 4.955385 v 0.09557 q -1.077258,0 -1.54407,1.624761 -0.0359,0.179201 -0.107725,0.525658 v 14.909567 q 0.07182,1.158836 0.933623,1.95927 0.421926,0.191149 0.646354,0.191149 h 0.07182 v 0.14336 h -4.955385 v -0.14336 h 0.07182 q 1.095212,0 1.50816,-1.768123 V 41.460926 q 0,-1.409718 -1.220891,-1.95927 -0.08977,-0.04778 -0.359087,-0.09558 z"
     style="font-size:21.2092px;line-height:1.25;font-family:'Antique Quest St';-inkscape-font-specification:'Antique Quest St';opacity:0.85;fill:#ffffff;stroke-width:0.53023"
     id="path66" />
  <path
     d="m 46.93443,39.310508 h 4.955383 v 0.09557 q -1.077258,0 -1.544069,1.624761 -0.0359,0.179201 -0.107726,0.525658 v 14.909567 q 0.07182,1.158836 0.933623,1.95927 0.421926,0.191149 0.646354,0.191149 h 0.07182 v 0.14336 h -4.955384 v -0.14336 h 0.07182 q 1.095212,0 1.50816,-1.768123 V 41.460926 q 0,-1.409718 -1.220891,-1.95927 -0.08977,-0.04778 -0.359086,-0.09558 z"
     style="font-size:21.2092px;line-height:1.25;font-family:'Antique Quest St';-inkscape-font-specification:'Antique Quest St';opacity:0.85;fill:#ffffff;stroke-width:0.53023"
     id="path68-6" />
  <path
     d="m 53.200476,39.310508 h 4.955383 v 0.09557 q -1.077257,0 -1.544069,1.624761 -0.0359,0.179201 -0.107725,0.525658 v 14.909567 q 0.07182,1.158836 0.933622,1.95927 0.421926,0.191149 0.646355,0.191149 h 0.07182 v 0.14336 h -4.955384 v -0.14336 h 0.07182 q 1.095212,0 1.50816,-1.768123 V 41.460926 q 0,-1.409718 -1.220891,-1.95927 -0.08977,-0.04778 -0.359085,-0.09558 z"
     style="font-size:21.2092px;line-height:1.25;font-family:'Antique Quest St';-inkscape-font-specification:'Antique Quest St';opacity:0.85;fill:#ffffff;stroke-width:0.53023"
     id="path70" />
</svg>
