<?xml version="1.0" encoding="UTF-8" standalone="no"?>
<svg
   xmlns:dc="http://purl.org/dc/elements/1.1/"
   xmlns:cc="http://creativecommons.org/ns#"
   xmlns:rdf="http://www.w3.org/1999/02/22-rdf-syntax-ns#"
   xmlns:svg="http://www.w3.org/2000/svg"
   xmlns="http://www.w3.org/2000/svg"
   xmlns:sodipodi="http://sodipodi.sourceforge.net/DTD/sodipodi-0.dtd"
   xmlns:inkscape="http://www.inkscape.org/namespaces/inkscape"
   width="64"
   height="64"
   version="1.1"
   id="svg73"
   sodipodi:docname="steam_icon_262060.svg"
   inkscape:version="1.0.2 (e86c870879, 2021-01-15)">
  <metadata
     id="metadata77">
    <rdf:RDF>
      <cc:Work
         rdf:about="">
        <dc:format>image/svg+xml</dc:format>
        <dc:type
           rdf:resource="http://purl.org/dc/dcmitype/StillImage" />
        <dc:title />
      </cc:Work>
    </rdf:RDF>
  </metadata>
  <sodipodi:namedview
     pagecolor="#ffffff"
     bordercolor="#666666"
     borderopacity="1"
     objecttolerance="10"
     gridtolerance="10"
     guidetolerance="10"
     inkscape:pageopacity="0"
     inkscape:pageshadow="2"
     inkscape:window-width="1541"
     inkscape:window-height="764"
     id="namedview75"
     showgrid="false"
     inkscape:zoom="8.8940775"
     inkscape:cx="15.900621"
     inkscape:cy="31.454377"
     inkscape:window-x="217"
     inkscape:window-y="232"
     inkscape:window-maximized="0"
     inkscape:current-layer="svg73"
     inkscape:document-rotation="0" />
  <defs
     id="defs29">
    <linearGradient
       id="b"
       x1="399.57"
       x2="399.57"
       y1="545.8"
       y2="517.8"
       gradientTransform="matrix(2.1429,0,0,2.1429,-826.36,-1107.5)"
       gradientUnits="userSpaceOnUse">
      <stop
         stop-color="#3889e9"
         offset="0"
         id="stop2" />
      <stop
         stop-color="#5ea5fb"
         offset="1"
         id="stop4" />
    </linearGradient>
    <linearGradient
       id="linearGradient862"
       x1="7.9373"
       x2="7.9373"
       y1="15.081"
       y2="1.852"
       gradientTransform="matrix(3.3743 0 0 3.3743 3.4312 3.4278)"
       gradientUnits="userSpaceOnUse">
      <stop
         stop-color="#f1efeb"
         offset="0"
         id="stop7" />
      <stop
         stop-color="#fff"
         offset="1"
         id="stop9" />
    </linearGradient>
    <linearGradient
       id="linearGradient910"
       x1="7.9373"
       x2="7.9373"
       y1="15.081"
       y2="1.852"
       gradientTransform="scale(3.7796)"
       gradientUnits="userSpaceOnUse">
      <stop
         stop-color="#613583"
         offset="0"
         id="stop12" />
      <stop
         stop-color="#a663c0"
         offset="1"
         id="stop14" />
    </linearGradient>
    <linearGradient
       id="linearGradient932"
       x1="379.24"
       x2="374.24"
       y1="546.85"
       y2="546.85"
       gradientTransform="matrix(2.1429 0 0 2.1429 -769.68 -1134.5)"
       gradientUnits="userSpaceOnUse">
      <stop
         stop-color="#f6f5f4"
         offset="0"
         id="stop17" />
      <stop
         stop-color="#fff"
         offset=".6"
         id="stop19" />
      <stop
         stop-color="#dddbd8"
         offset="1"
         id="stop21" />
    </linearGradient>
    <linearGradient
       id="linearGradient1146"
       x1="18"
       x2="18"
       y1="52"
       y2="12"
       gradientUnits="userSpaceOnUse">
      <stop
         stop-color="#5e337f"
         offset="0"
         id="stop24" />
      <stop
         stop-color="#ab60bf"
         offset="1"
         id="stop26" />
    </linearGradient>
    <linearGradient
       id="l"
       x1="8.4666996"
       x2="8.4666996"
       y1="-2.9203"
       y2="19.84"
       gradientTransform="matrix(1.5911781,0,0,1.6527253,18.876293,17.874967)"
       gradientUnits="userSpaceOnUse">
      <stop
         stop-color="#ccc"
         offset="0"
         id="stop17-3" />
      <stop
         stop-color="#ebebeb"
         offset="1"
         id="stop19-6" />
    </linearGradient>
  </defs>
  <circle
     cx="32.02"
     cy="32.044"
     r="30.001"
     fill-opacity="0"
     stroke-width="1.5715"
     id="circle39" />
  <circle
     cx="32.02"
     cy="32.044"
     r="0"
     fill="url(#b)"
     stroke-width="1.5715"
     id="circle41" />
  <path
     fill="#000"
     d="M 57.515251,4.0118029 C 56.910514,7.8994254 43.199451,17.908588 48.069656,6.1851881 38.882217,12.029823 35.750751,9.2015246 39.075321,5.4567336 32.796009,5.8173547 31.887986,16.812815 32.736452,19.933862 l 1.99724,2.463169 c -0.245103,-4.020666 0.04627,-6.239386 2.233407,-9.20485 1.576442,2.654944 2.118302,4.340588 5.962855,0.89769 -1.075816,6.893011 6.254687,2.414485 10.164868,1.408739 -1.74641,1.809287 -4.026204,4.214499 -4.452499,7.143901 -0.142021,0.977154 0.711026,2.308618 1.61779,3.300454 -1.081542,0.287982 -4.750172,1.147548 -4.416765,3.376957 0.333523,2.229411 1.39044,1.530707 0.400869,1.967961 -1.420563,0.356242 -2.423076,0.718666 -4.534734,-0.281671 l 2.161709,2.668209 c 3.251612,1.90485 8.464501,0.940963 9.574333,-1.915799 -1.692579,-0.157128 -3.106727,-0.60198 -3.779614,-1.484986 5.042004,-1.074134 7.646731,-5.054231 9.824704,-9.663611 -3.852686,2.440631 -4.828513,2.290459 -6.413889,2.101004 4.067551,-1.850115 5.368883,-14.0311169 4.438182,-18.6992261 z M 31.190133,21.3587 l -6.503226,9.031622 9.069468,11.192902 8.60091,-6.43966 L 31.190247,21.358829 Z M 24.049641,32.966187 5.3951894,57.621968 7.8505626,60.652473 31.415878,42.058084 24.04987,32.966315 Z"
     id="path2"
     style="fill:#29292a;stroke-width:0.121454" />
</svg>
