<?xml version="1.0" encoding="UTF-8" standalone="no"?>
<svg
   xmlns:dc="http://purl.org/dc/elements/1.1/"
   xmlns:cc="http://creativecommons.org/ns#"
   xmlns:rdf="http://www.w3.org/1999/02/22-rdf-syntax-ns#"
   xmlns:svg="http://www.w3.org/2000/svg"
   xmlns="http://www.w3.org/2000/svg"
   xmlns:sodipodi="http://sodipodi.sourceforge.net/DTD/sodipodi-0.dtd"
   xmlns:inkscape="http://www.inkscape.org/namespaces/inkscape"
   width="64"
   height="64"
   version="1"
   id="svg20"
   sodipodi:docname="steam_icon_1266820.svg"
   inkscape:version="1.0.2 (e86c870879, 2021-01-15)">
  <metadata
     id="metadata26">
    <rdf:RDF>
      <cc:Work
         rdf:about="">
        <dc:format>image/svg+xml</dc:format>
        <dc:type
           rdf:resource="http://purl.org/dc/dcmitype/StillImage" />
        <dc:title></dc:title>
      </cc:Work>
    </rdf:RDF>
  </metadata>
  <defs
     id="defs24" />
  <sodipodi:namedview
     pagecolor="#ffffff"
     bordercolor="#666666"
     borderopacity="1"
     objecttolerance="10"
     gridtolerance="10"
     guidetolerance="10"
     inkscape:pageopacity="0"
     inkscape:pageshadow="2"
     inkscape:window-width="1541"
     inkscape:window-height="738"
     id="namedview22"
     showgrid="false"
     inkscape:zoom="12.890625"
     inkscape:cx="32"
     inkscape:cy="35.10303"
     inkscape:window-x="317"
     inkscape:window-y="42"
     inkscape:window-maximized="0"
     inkscape:current-layer="svg20"
     inkscape:document-rotation="0" />
  <path
     fill="#1ed760"
     d="M 60,32 V 32 C 60,16.5 47.5,4 32,4 V 4 C 16.5,4 4,16.5 4,32 V 32 C 4,47.5 16.5,60 32,60 V 60 C 47.5,60 60,47.5 60,32 Z"
     id="path4"
     style="fill:#29292a" />
  <path
     d="m 31.417304,16.91606 q -0.678228,0.123314 -1.582531,0.822094 -1.294799,1.007066 -1.294799,2.425179 l 0.06166,24.251784 q 0,2.918435 0.863199,3.123958 -2.014131,-0.08221 -2.445731,-1.726398 -0.123314,-0.472704 -0.123314,-1.767503 -0.637123,3.226721 -4.953118,3.473349 l -0.369943,0.02055 h -0.575466 q -0.493257,0 -1.233142,-0.164418 -4.747595,-1.068723 -4.747595,-6.104051 V 22.917349 q 0,-0.842647 -0.164419,-1.438665 -0.205523,-1.705846 -0.719332,-2.651255 -0.267181,-0.493256 -0.986513,-0.863199 -0.904304,-0.472704 -1.500323,-1.068723 0.02055,0.02055 0.0411,0.02055 0.411047,0.06166 0.739885,0.123314 4.727043,1.027618 4.727043,5.877975 v 18.805409 q 0,0.369942 0.143866,1.04817 0.904304,4.254338 4.377653,4.192681 3.267825,-0.0411 4.336548,-3.535005 0.369942,-1.21259 0.369942,-1.91137 V 24.58209 q 0,-6.700069 -6.021841,-9.104695 4.172129,1.192036 5.508032,3.308929 l 0.883752,1.397561 q 0.780989,-1.767503 2.44573,-2.651255 1.274247,-0.678227 2.219655,-0.61657 z M 11.563725,16.89551 Z"
     style="font-style:normal;font-variant:normal;font-weight:normal;font-stretch:normal;font-size:42.6667px;line-height:1.25;font-family:'Endor Alt';-inkscape-font-specification:'Endor Alt';letter-spacing:4.95px;opacity:0.85;fill:#ffffff;fill-opacity:1;stroke:none"
     id="path40" />
  <path
     d="m 52.089837,47.415761 q -0.61657,-0.06166 -0.986513,-0.143866 -4.644833,-1.048171 -4.644833,-5.816318 v -8.919724 h -8.44702 v 7.275535 q 0,4.233786 2.404626,6.700069 1.582532,1.623637 3.617215,2.384074 -3.65832,-1.089275 -4.953118,-2.589597 l -0.554914,-0.637123 -0.801542,-1.47977 q -0.863199,1.870265 -2.486835,2.712911 -1.294799,0.678228 -2.219655,0.596019 0.637123,-0.123314 1.541427,-0.801542 1.294798,-0.965961 1.294798,-2.466283 V 33.02911 q -2.425178,0.924856 -2.815673,2.959539 0.06166,-0.431599 0.184971,-1.04817 0.554914,-2.651254 2.630702,-3.822739 v -7.357745 q 0,-2.712911 1.500323,-4.233786 -0.719333,-0.34939 -1.623637,-1.171484 -0.739885,-0.678228 -0.822094,-0.863199 0.637123,0.411047 2.425178,0.411047 2.651255,0 5.590242,-0.822094 2.425178,-0.678228 3.30893,-1.520875 2.055236,1.973026 2.466283,4.213234 0.452152,-0.184972 0.904304,-0.226076 L 50.671725,19.444 q -2.075789,0.904304 -2.075789,2.52794 l 0.02055,8.385363 q 2.137445,-0.06166 2.322416,-0.904304 0,2.61015 -2.322416,2.95954 l 0.06166,9.597952 q 0.102761,0.924856 0.184971,1.377008 0.69878,3.617215 3.22672,4.028262 z M 46.479043,30.377855 v -7.296087 q 0,-1.56198 -0.369942,-2.897883 -1.027618,-2.404626 -1.849713,-2.692359 -2.09634,0.924856 -4.583176,1.315351 -0.328838,0.34939 -0.554914,0.739885 -1.089275,1.849712 -1.089275,3.719977 l -0.02055,7.111116 z"
     style="font-style:normal;font-variant:normal;font-weight:normal;font-stretch:normal;font-size:42.6667px;line-height:1.25;font-family:'Endor Alt';-inkscape-font-specification:'Endor Alt';letter-spacing:4.95px;opacity:0.85;fill:#ffffff;fill-opacity:1;stroke:none"
     id="path42" />
</svg>
