<?xml version="1.0" encoding="UTF-8" standalone="no"?>
<svg
   xmlns:dc="http://purl.org/dc/elements/1.1/"
   xmlns:cc="http://creativecommons.org/ns#"
   xmlns:rdf="http://www.w3.org/1999/02/22-rdf-syntax-ns#"
   xmlns:svg="http://www.w3.org/2000/svg"
   xmlns="http://www.w3.org/2000/svg"
   xmlns:sodipodi="http://sodipodi.sourceforge.net/DTD/sodipodi-0.dtd"
   xmlns:inkscape="http://www.inkscape.org/namespaces/inkscape"
   width="64"
   height="64"
   version="1.1"
   id="svg73"
   sodipodi:docname="steam_icon_200510.svg"
   inkscape:version="1.0.2 (e86c870879, 2021-01-15)">
  <metadata
     id="metadata77">
    <rdf:RDF>
      <cc:Work
         rdf:about="">
        <dc:format>image/svg+xml</dc:format>
        <dc:type
           rdf:resource="http://purl.org/dc/dcmitype/StillImage" />
        <dc:title></dc:title>
      </cc:Work>
    </rdf:RDF>
  </metadata>
  <sodipodi:namedview
     pagecolor="#ffffff"
     bordercolor="#666666"
     borderopacity="1"
     objecttolerance="10"
     gridtolerance="10"
     guidetolerance="10"
     inkscape:pageopacity="0"
     inkscape:pageshadow="2"
     inkscape:window-width="1920"
     inkscape:window-height="996"
     id="namedview75"
     showgrid="false"
     inkscape:zoom="12.578125"
     inkscape:cx="32"
     inkscape:cy="44.720496"
     inkscape:window-x="0"
     inkscape:window-y="0"
     inkscape:window-maximized="1"
     inkscape:current-layer="svg73"
     inkscape:document-rotation="0" />
  <defs
     id="defs29">
    <linearGradient
       id="b"
       x1="399.57"
       x2="399.57"
       y1="545.8"
       y2="517.8"
       gradientTransform="matrix(2.1429,0,0,2.1429,-826.36,-1107.5)"
       gradientUnits="userSpaceOnUse">
      <stop
         stop-color="#3889e9"
         offset="0"
         id="stop2" />
      <stop
         stop-color="#5ea5fb"
         offset="1"
         id="stop4" />
    </linearGradient>
    <linearGradient
       id="linearGradient862"
       x1="7.9373"
       x2="7.9373"
       y1="15.081"
       y2="1.852"
       gradientTransform="matrix(3.3743 0 0 3.3743 3.4312 3.4278)"
       gradientUnits="userSpaceOnUse">
      <stop
         stop-color="#f1efeb"
         offset="0"
         id="stop7" />
      <stop
         stop-color="#fff"
         offset="1"
         id="stop9" />
    </linearGradient>
    <linearGradient
       id="linearGradient910"
       x1="7.9373"
       x2="7.9373"
       y1="15.081"
       y2="1.852"
       gradientTransform="scale(3.7796)"
       gradientUnits="userSpaceOnUse">
      <stop
         stop-color="#613583"
         offset="0"
         id="stop12" />
      <stop
         stop-color="#a663c0"
         offset="1"
         id="stop14" />
    </linearGradient>
    <linearGradient
       id="linearGradient932"
       x1="379.24"
       x2="374.24"
       y1="546.85"
       y2="546.85"
       gradientTransform="matrix(2.1429 0 0 2.1429 -769.68 -1134.5)"
       gradientUnits="userSpaceOnUse">
      <stop
         stop-color="#f6f5f4"
         offset="0"
         id="stop17" />
      <stop
         stop-color="#fff"
         offset=".6"
         id="stop19" />
      <stop
         stop-color="#dddbd8"
         offset="1"
         id="stop21" />
    </linearGradient>
    <linearGradient
       id="linearGradient1146"
       x1="18"
       x2="18"
       y1="52"
       y2="12"
       gradientUnits="userSpaceOnUse">
      <stop
         stop-color="#5e337f"
         offset="0"
         id="stop24" />
      <stop
         stop-color="#ab60bf"
         offset="1"
         id="stop26" />
    </linearGradient>
  </defs>
  <circle
     cx="32.02"
     cy="32.044"
     r="30.001"
     fill-opacity="0"
     stroke-width="1.5715"
     id="circle39" />
  <circle
     cx="32.02"
     cy="32.044"
     r="0"
     fill="url(#b)"
     stroke-width="1.5715"
     id="circle41" />
  <path
     d="M 8.8244294,10.658453 A 3.1802157,3.2046042 0 0 0 6.7355526,16.278467 L 23.065651,30.622644 3.5556531,47.762225 a 3.1802157,3.2046042 0 0 0 2.0888793,5.620013 h 8.4797286 a 3.1802157,3.2046042 0 0 0 2.088876,-0.788554 L 32.14368,38.599976 48.074221,52.593684 a 3.1802157,3.2046042 0 0 0 2.08888,0.788554 h 8.479726 a 3.1802157,3.2046042 0 0 0 2.088879,-5.620013 L 41.221709,30.622644 57.551808,16.278467 a 3.1802157,3.2046042 0 0 0 -2.088879,-5.620014 h -8.479727 a 3.1802157,3.2046042 0 0 0 -2.088878,0.788553 L 32.14368,22.647397 19.393035,11.447006 a 3.1802157,3.2046042 0 0 0 -2.088877,-0.788553 z"
     style="fill:#676767;stroke-width:1.06402"
     id="path4" />
  <path
     d="m 16.244191,35.22463 c 0,3.204283 9.539694,13.885228 15.899489,13.885228 5.299829,0 15.899488,-10.680945 15.899488,-13.885228 0,-12.817136 -7.419762,-20.293798 -15.899488,-20.293798 -8.479727,0 -15.899489,6.408567 -15.899489,20.293798 z"
     style="fill:#29292a;stroke-width:1.06402"
     id="path10" />
  <path
     d="m 18.364123,29.884156 c 0,0 3.179897,6.408568 6.359796,6.408568 h 3.179898 c 0,0 -1.059967,-6.408568 -5.299829,-6.408568 z m 23.319251,0 c -4.239865,0 -5.29983,6.408568 -5.29983,6.408568 h 3.179897 c 3.179898,0 6.359796,-6.408568 6.359796,-6.408568 z"
     style="opacity:0.85;fill:#ffffff;stroke-width:1.06402"
     id="path14" />
  <ellipse
     style="fill:#676767;stroke-width:0.929205"
     cx="48.804688"
     cy="49.042221"
     id="circle12"
     rx="14.890004"
     ry="14.844596" />
  <g
     aria-label="III"
     transform="matrix(0.8668498,0,0,1.1536024,1.0413433,0.92499759)"
     id="text64"
     style="font-size:21.2092px;line-height:1.25;font-family:'Antique Quest St';-inkscape-font-specification:'Antique Quest St';opacity:0.85;fill:#ffffff;stroke-width:0.53023">
    <path
       d="m 52.783231,33.281688 h 5.716542 v 0.08285 q -1.242727,0 -1.781242,1.408423 -0.04142,0.155341 -0.124272,0.455667 v 12.924355 q 0.08285,1.004537 1.077029,1.698393 0.486735,0.165697 0.745636,0.165697 h 0.08285 v 0.124272 h -5.716543 v -0.124272 h 0.08285 q 1.263439,0 1.739817,-1.532697 V 35.145778 q 0,-1.222014 -1.408423,-1.698393 -0.103561,-0.04142 -0.414242,-0.08285 z"
       style="fill:#ffffff;stroke-width:0.53023"
       id="path70" />
  </g>
</svg>
