<?xml version="1.0" encoding="UTF-8" standalone="no"?>
<svg
   xmlns:dc="http://purl.org/dc/elements/1.1/"
   xmlns:cc="http://creativecommons.org/ns#"
   xmlns:rdf="http://www.w3.org/1999/02/22-rdf-syntax-ns#"
   xmlns:svg="http://www.w3.org/2000/svg"
   xmlns="http://www.w3.org/2000/svg"
   xmlns:sodipodi="http://sodipodi.sourceforge.net/DTD/sodipodi-0.dtd"
   xmlns:inkscape="http://www.inkscape.org/namespaces/inkscape"
   width="64"
   height="64"
   version="1"
   id="svg15"
   sodipodi:docname="steam_icon_367520.svg"
   inkscape:version="1.0.2 (e86c870879, 2021-01-15)">
  <metadata
     id="metadata21">
    <rdf:RDF>
      <cc:Work
         rdf:about="">
        <dc:format>image/svg+xml</dc:format>
        <dc:type
           rdf:resource="http://purl.org/dc/dcmitype/StillImage" />
        <dc:title></dc:title>
      </cc:Work>
    </rdf:RDF>
  </metadata>
  <defs
     id="defs19" />
  <sodipodi:namedview
     pagecolor="#ffffff"
     bordercolor="#666666"
     borderopacity="1"
     objecttolerance="10"
     gridtolerance="10"
     guidetolerance="10"
     inkscape:pageopacity="0"
     inkscape:pageshadow="2"
     inkscape:window-width="1318"
     inkscape:window-height="996"
     id="namedview17"
     showgrid="false"
     inkscape:zoom="12.890625"
     inkscape:cx="32"
     inkscape:cy="35.10303"
     inkscape:window-x="236"
     inkscape:window-y="87"
     inkscape:window-maximized="0"
     inkscape:current-layer="svg15" />
  <path
     style="fill:#29292a;stroke-width:1.36878"
     d="m 17.066428,2.5609064 c -0.269417,0.021728 -0.603663,0.1604198 -1.082035,0.4269089 -2.684135,1.4952222 -5.670033,5.834087 -6.9670768,10.1216107 -1.1566341,3.823372 -1.2686274,8.014599 -0.3086671,11.421742 1.1018834,3.79345 3.0643409,7.005243 5.6981669,9.679176 0.763354,1.906959 -0.307965,3.239444 0.183167,8.326467 1.149199,12.165663 3.708452,19.486428 17.78434,19.486428 14.075888,0 16.63514,-7.320765 17.78306,-19.486428 0.491132,-5.087023 -0.580187,-6.419508 0.183166,-8.326467 2.633826,-2.673933 4.597565,-5.885726 5.699448,-9.679176 0.95996,-3.407144 0.847966,-7.59837 -0.308667,-11.421742 C 54.434287,8.8219023 51.448385,4.4830375 48.764253,2.9878153 48.28588,2.7213234 47.951635,2.5826432 47.682218,2.5609064 c -0.269415,-0.021743 -0.471314,0.076868 -0.688565,0.2871935 0,0 1.840161,2.161305 2.045348,4.2846078 -0.385163,1.5494193 -2.981529,1.3001297 -2.981529,1.3001297 0,-1.5e-6 4.002324,4.2190936 4.708035,7.5019466 0.568368,2.75809 0.260554,7.854152 -2.411681,9.131958 0,0 -6.650843,-2.63907 -15.979503,-2.63907 -9.328662,0 -15.979503,2.63907 -15.979503,2.63907 -2.672235,-1.277806 -2.980049,-6.373868 -2.411682,-9.131958 0.705711,-3.282853 4.708036,-7.5019481 4.708036,-7.5019466 0,0 -2.596365,0.2492896 -2.981529,-1.3001297 0.205188,-2.1233028 2.045348,-4.2846078 2.045348,-4.2846078 -0.21725,-0.210327 -0.419149,-0.3089391 -0.688565,-0.2871935 z"
     id="path8" />
  <ellipse
     style="opacity:0.85;fill:#ffffff;stroke-width:1.37324"
     cx="58.268963"
     cy="21.91445"
     rx="5.0490026"
     ry="6.6414213"
     transform="matrix(0.86189562,0.50708574,-0.40568554,0.91401272,0,0)"
     id="ellipse10" />
  <ellipse
     id="ellipse840"
     style="opacity:0.85;fill:#ffffff;stroke-width:1.37324"
     cx="-1.2984394"
     cy="54.963314"
     rx="5.0490026"
     ry="6.6414213"
     transform="matrix(-0.86189562,0.50708574,0.40568554,0.91401272,0,0)" />
</svg>
