<?xml version="1.0" encoding="UTF-8" standalone="no"?>
<svg
   xmlns:dc="http://purl.org/dc/elements/1.1/"
   xmlns:cc="http://creativecommons.org/ns#"
   xmlns:rdf="http://www.w3.org/1999/02/22-rdf-syntax-ns#"
   xmlns:svg="http://www.w3.org/2000/svg"
   xmlns="http://www.w3.org/2000/svg"
   xmlns:sodipodi="http://sodipodi.sourceforge.net/DTD/sodipodi-0.dtd"
   xmlns:inkscape="http://www.inkscape.org/namespaces/inkscape"
   width="64"
   height="64"
   version="1.1"
   id="svg73"
   sodipodi:docname="steam_icon_978520.svg"
   inkscape:version="1.0.2 (e86c870879, 2021-01-15)">
  <metadata
     id="metadata77">
    <rdf:RDF>
      <cc:Work
         rdf:about="">
        <dc:format>image/svg+xml</dc:format>
        <dc:type
           rdf:resource="http://purl.org/dc/dcmitype/StillImage" />
        <dc:title></dc:title>
      </cc:Work>
    </rdf:RDF>
  </metadata>
  <sodipodi:namedview
     pagecolor="#ffffff"
     bordercolor="#666666"
     borderopacity="1"
     objecttolerance="10"
     gridtolerance="10"
     guidetolerance="10"
     inkscape:pageopacity="0"
     inkscape:pageshadow="2"
     inkscape:window-width="1920"
     inkscape:window-height="996"
     id="namedview75"
     showgrid="false"
     inkscape:zoom="12.578125"
     inkscape:cx="32"
     inkscape:cy="25.639751"
     inkscape:window-x="0"
     inkscape:window-y="0"
     inkscape:window-maximized="1"
     inkscape:current-layer="g18"
     inkscape:document-rotation="0" />
  <defs
     id="defs29">
    <linearGradient
       id="b"
       x1="399.57"
       x2="399.57"
       y1="545.8"
       y2="517.8"
       gradientTransform="matrix(2.1429,0,0,2.1429,-826.36,-1107.5)"
       gradientUnits="userSpaceOnUse">
      <stop
         stop-color="#3889e9"
         offset="0"
         id="stop2" />
      <stop
         stop-color="#5ea5fb"
         offset="1"
         id="stop4" />
    </linearGradient>
    <linearGradient
       id="linearGradient862"
       x1="7.9373"
       x2="7.9373"
       y1="15.081"
       y2="1.852"
       gradientTransform="matrix(3.3743 0 0 3.3743 3.4312 3.4278)"
       gradientUnits="userSpaceOnUse">
      <stop
         stop-color="#f1efeb"
         offset="0"
         id="stop7" />
      <stop
         stop-color="#fff"
         offset="1"
         id="stop9" />
    </linearGradient>
    <linearGradient
       id="linearGradient910"
       x1="7.9373"
       x2="7.9373"
       y1="15.081"
       y2="1.852"
       gradientTransform="scale(3.7796)"
       gradientUnits="userSpaceOnUse">
      <stop
         stop-color="#613583"
         offset="0"
         id="stop12" />
      <stop
         stop-color="#a663c0"
         offset="1"
         id="stop14" />
    </linearGradient>
    <linearGradient
       id="linearGradient932"
       x1="379.24"
       x2="374.24"
       y1="546.85"
       y2="546.85"
       gradientTransform="matrix(2.1429 0 0 2.1429 -769.68 -1134.5)"
       gradientUnits="userSpaceOnUse">
      <stop
         stop-color="#f6f5f4"
         offset="0"
         id="stop17" />
      <stop
         stop-color="#fff"
         offset=".6"
         id="stop19" />
      <stop
         stop-color="#dddbd8"
         offset="1"
         id="stop21" />
    </linearGradient>
    <linearGradient
       id="linearGradient1146"
       x1="18"
       x2="18"
       y1="52"
       y2="12"
       gradientUnits="userSpaceOnUse">
      <stop
         stop-color="#5e337f"
         offset="0"
         id="stop24" />
      <stop
         stop-color="#ab60bf"
         offset="1"
         id="stop26" />
    </linearGradient>
  </defs>
  <circle
     cx="32.02"
     cy="32.044"
     r="30.001"
     fill-opacity="0"
     stroke-width="1.5715"
     id="circle39" />
  <circle
     cx="32.02"
     cy="32.044"
     r="0"
     fill="url(#b)"
     stroke-width="1.5715"
     id="circle41" />
  <g
     id="g18"
     transform="matrix(0.16483982,0,0,0.19728726,7.7502959,2.8406753)"
     style="fill:#29292a">
    <path
       d="m 257.764,224.086 c -0.888,-4.686 -3.166,-8.996 -6.538,-12.368 l -26.112,-26.112 c 2.88,22.33 9.967,56.375 14.155,75.647 l 20.943,3.967 c 1.249,0.237 2.535,-0.16 3.434,-1.059 0.899,-0.899 1.296,-2.185 1.059,-3.434 z"
       id="path2"
       style="fill:#29292a" />
    <path
       d="m 79.188,119.725 12.324,12.324 c 4.522,-5.186 9.638,-9.59 16.036,-13.38 L 93.896,105.017 Z"
       id="path4"
       style="fill:#29292a" />
    <path
       d="m 48.13,129.57 80.926,-80.926 c 5.2,-5.2 5.2,-13.631 0,-18.83 l -7.723,-7.722 c -6.514,-6.514 -17.558,-4.607 -21.477,3.777 L 83.939,59.917 C 70.255,46.234 73.201,49.179 59.317,35.295 60.842,26.109 58.07,16.349 50.983,9.262 39.32,-2.401 20.41,-2.401 8.747,9.262 c -11.663,11.663 -11.663,30.572 0,42.236 7.086,7.086 16.847,9.859 26.032,8.334 13.886,13.884 10.939,10.938 24.623,24.622 L 25.353,100.37 c -8.369,3.912 -10.294,14.96 -3.777,21.478 l 7.722,7.722 c 5.201,5.2 13.632,5.2 18.832,0 z"
       id="path6"
       style="fill:#29292a" />
    <path
       d="m 44.546,211.717 c -3.373,3.372 -5.651,7.682 -6.539,12.368 l -6.94,36.641 c -0.237,1.249 0.16,2.535 1.059,3.434 0.899,0.899 2.184,1.295 3.434,1.059 l 20.943,-3.967 c 4.188,-19.272 11.276,-53.317 14.155,-75.647 z"
       id="path8"
       style="fill:#29292a" />
    <path
       d="m 204.26,132.049 12.324,-12.324 -14.708,-14.708 -13.652,13.652 c 6.39,3.786 11.508,8.188 16.036,13.38 z"
       id="path10"
       style="fill:#29292a" />
    <path
       d="m 147.886,108.378 -28.675,-28.675 -14.708,14.707 17.768,17.768 c 7.738,-2.38 16.223,-3.589 25.42,-3.606 0.066,0 0.129,-0.004 0.195,-0.004 9.273,0 17.822,1.212 25.615,3.61 L 191.269,94.41 176.561,79.702 Z"
       id="path12"
       style="fill:#29292a" />
    <path
       d="m 260.992,59.832 c 9.186,1.525 18.946,-1.248 26.033,-8.334 11.663,-11.663 11.663,-30.573 0,-42.236 -11.663,-11.663 -30.572,-11.663 -42.235,0 -7.086,7.086 -9.859,16.847 -8.334,26.032 -13.883,13.883 -10.894,10.894 -24.623,24.623 L 195.917,25.868 C 191.993,17.473 180.946,15.585 174.44,22.091 l -7.722,7.722 c -5.2,5.2 -5.2,13.63 0,18.83 l 80.926,80.926 c 5.2,5.2 13.63,5.2 18.83,0 l 7.723,-7.722 c 6.519,-6.52 4.59,-17.566 -3.777,-21.478 L 236.371,84.453 C 250.053,70.77 247.107,73.716 260.992,59.832 Z"
       id="path14"
       style="fill:#29292a" />
    <path
       d="m 147.886,123.569 c -34.308,0 -56.898,19.425 -62.119,62.119 -3.287,26.878 -12.937,71.378 -16.525,87.49 -0.767,3.442 1.19,6.912 4.535,8.028 l 41.063,13.696 c 2.027,0.676 4.252,0.373 6.025,-0.82 1.772,-1.193 2.891,-3.141 3.027,-5.273 l 3.507,-54.728 c 0.18,-2.803 -1.361,-5.434 -3.893,-6.649 l -19.598,-9.406 c -6.607,-3.171 -9.393,-11.097 -6.222,-17.704 3.169,-6.603 11.098,-9.392 17.704,-6.222 l 29.517,14.166 c 1.884,0.904 4.076,0.904 5.96,0 L 180.383,194.1 c 6.603,-3.169 14.534,-0.385 17.704,6.222 3.171,6.607 0.385,14.534 -6.222,17.704 l -19.598,9.406 c -2.532,1.215 -4.073,3.846 -3.893,6.649 l 3.507,54.728 c 0.137,2.132 1.255,4.08 3.027,5.273 1.772,1.193 3.998,1.496 6.025,0.82 l 41.063,-13.696 c 3.352,-1.118 5.303,-4.579 4.535,-8.028 -3.588,-16.113 -13.238,-60.612 -16.525,-87.49 -5.222,-42.694 -27.813,-62.119 -62.12,-62.119 z"
       id="path16"
       style="fill:#29292a" />
  </g>
</svg>
