<?xml version="1.0" encoding="UTF-8" standalone="no"?>
<svg
   xmlns:dc="http://purl.org/dc/elements/1.1/"
   xmlns:cc="http://creativecommons.org/ns#"
   xmlns:rdf="http://www.w3.org/1999/02/22-rdf-syntax-ns#"
   xmlns:svg="http://www.w3.org/2000/svg"
   xmlns="http://www.w3.org/2000/svg"
   xmlns:sodipodi="http://sodipodi.sourceforge.net/DTD/sodipodi-0.dtd"
   xmlns:inkscape="http://www.inkscape.org/namespaces/inkscape"
   width="64"
   height="64"
   version="1.1"
   id="svg73"
   sodipodi:docname="steam_icon_560130.svg"
   inkscape:version="1.0.2 (e86c870879, 2021-01-15)">
  <metadata
     id="metadata77">
    <rdf:RDF>
      <cc:Work
         rdf:about="">
        <dc:format>image/svg+xml</dc:format>
        <dc:type
           rdf:resource="http://purl.org/dc/dcmitype/StillImage" />
        <dc:title />
      </cc:Work>
    </rdf:RDF>
  </metadata>
  <sodipodi:namedview
     pagecolor="#ffffff"
     bordercolor="#666666"
     borderopacity="1"
     objecttolerance="10"
     gridtolerance="10"
     guidetolerance="10"
     inkscape:pageopacity="0"
     inkscape:pageshadow="2"
     inkscape:window-width="1920"
     inkscape:window-height="996"
     id="namedview75"
     showgrid="false"
     inkscape:zoom="12.578125"
     inkscape:cx="15.900621"
     inkscape:cy="37.060861"
     inkscape:window-x="0"
     inkscape:window-y="0"
     inkscape:window-maximized="1"
     inkscape:current-layer="svg73"
     inkscape:document-rotation="0" />
  <defs
     id="defs29">
    <linearGradient
       id="b"
       x1="399.57"
       x2="399.57"
       y1="545.8"
       y2="517.8"
       gradientTransform="matrix(2.1429,0,0,2.1429,-826.36,-1107.5)"
       gradientUnits="userSpaceOnUse">
      <stop
         stop-color="#3889e9"
         offset="0"
         id="stop2" />
      <stop
         stop-color="#5ea5fb"
         offset="1"
         id="stop4" />
    </linearGradient>
    <linearGradient
       id="linearGradient862"
       x1="7.9373"
       x2="7.9373"
       y1="15.081"
       y2="1.852"
       gradientTransform="matrix(3.3743 0 0 3.3743 3.4312 3.4278)"
       gradientUnits="userSpaceOnUse">
      <stop
         stop-color="#f1efeb"
         offset="0"
         id="stop7" />
      <stop
         stop-color="#fff"
         offset="1"
         id="stop9" />
    </linearGradient>
    <linearGradient
       id="linearGradient910"
       x1="7.9373"
       x2="7.9373"
       y1="15.081"
       y2="1.852"
       gradientTransform="scale(3.7796)"
       gradientUnits="userSpaceOnUse">
      <stop
         stop-color="#613583"
         offset="0"
         id="stop12" />
      <stop
         stop-color="#a663c0"
         offset="1"
         id="stop14" />
    </linearGradient>
    <linearGradient
       id="linearGradient932"
       x1="379.24"
       x2="374.24"
       y1="546.85"
       y2="546.85"
       gradientTransform="matrix(2.1429 0 0 2.1429 -769.68 -1134.5)"
       gradientUnits="userSpaceOnUse">
      <stop
         stop-color="#f6f5f4"
         offset="0"
         id="stop17" />
      <stop
         stop-color="#fff"
         offset=".6"
         id="stop19" />
      <stop
         stop-color="#dddbd8"
         offset="1"
         id="stop21" />
    </linearGradient>
    <linearGradient
       id="linearGradient1146"
       x1="18"
       x2="18"
       y1="52"
       y2="12"
       gradientUnits="userSpaceOnUse">
      <stop
         stop-color="#5e337f"
         offset="0"
         id="stop24" />
      <stop
         stop-color="#ab60bf"
         offset="1"
         id="stop26" />
    </linearGradient>
  </defs>
  <circle
     cx="32.02"
     cy="32.044"
     r="30.001"
     fill-opacity="0"
     stroke-width="1.5715"
     id="circle39" />
  <circle
     cx="32.02"
     cy="32.044"
     r="0"
     fill="url(#b)"
     stroke-width="1.5715"
     id="circle41" />
  <g
     id="g14"
     transform="matrix(0.11341837,0,0,0.11421614,2.969685,2.8612427)"
     style="fill:#29292a">
    <g
       id="g12"
       style="fill:#29292a">
      <g
         id="g10"
         style="fill:#29292a">
        <path
           d="m 125.491,267.021 c -3.337,-3.337 -8.73,-3.337 -12.066,0 -25.301,25.293 -25.813,53.094 -1.707,78.507 l -53.896,53.888 -8.866,-8.798 c -6.647,-6.656 -17.468,-6.673 -24.098,-0.043 L 4.992,410.449 c -6.656,6.647 -6.656,17.476 0,24.132 l 72.397,72.405 c 3.328,3.328 7.706,4.992 12.075,4.992 4.369,0 8.747,-1.664 12.066,-4.992 l 19.866,-19.857 c 3.482,-3.482 5.163,-8.346 4.625,-13.346 -0.495,-4.582 -2.756,-8.994 -6.536,-12.774 l -6.912,-6.878 53.837,-53.828 c 25.762,24.525 52.873,23.927 78.549,-1.749 3.337,-3.337 3.337,-8.73 0,-12.066 z m 51.158,119.424 -4.301,-4.241 c -3.336,-3.285 -8.695,-3.268 -12.023,0.043 L 100.489,442.091 87.04,428.702 c -3.336,-3.328 -8.73,-3.311 -12.075,0.026 -3.328,3.337 -3.311,8.738 0.026,12.066 l 32.435,32.299 c 1.263,1.254 1.587,2.236 1.86,2.014 L 89.455,494.921 17.058,422.516 36.915,402.71 51.84,417.524 c 3.328,3.302 8.721,3.294 12.041,-0.026 l 59.827,-59.836 15.317,15.352 c 3.337,3.337 8.73,3.337 12.066,0.017 3.345,-3.328 3.345,-8.738 0.017,-12.075 l -25.617,-25.668 c -9.591,-9.6 -14.473,-19.021 -14.498,-28.023 -0.017,-7.049 2.935,-14.362 8.798,-21.803 l 106.752,106.743 c -16.939,13.474 -32.572,11.58 -49.894,-5.76 z"
           id="path2"
           style="fill:#29292a" />
        <path
           d="M 287.625,176.687 430.933,33.378 476.706,23.206 305.425,194.487 c -3.337,3.337 -3.337,8.73 0,12.066 1.664,1.664 3.849,2.5 6.033,2.5 2.185,0 4.369,-0.836 6.033,-2.5 L 488.764,35.281 478.601,81.045 335.292,224.354 c -3.337,3.337 -3.337,8.73 0,12.066 1.664,1.664 3.849,2.5 6.033,2.5 2.185,0 4.369,-0.836 6.033,-2.5 L 492.425,91.354 c 1.152,-1.143 1.946,-2.594 2.304,-4.181 l 17.067,-76.8 c 0.111,-0.521 0.12,-1.05 0.137,-1.57 0.009,-0.128 0.043,-0.256 0.043,-0.384 -0.017,-0.973 -0.213,-1.911 -0.546,-2.816 -0.077,-0.205 -0.171,-0.393 -0.265,-0.589 -0.418,-0.922 -0.939,-1.792 -1.673,-2.526 -0.734,-0.734 -1.604,-1.254 -2.517,-1.673 -0.205,-0.094 -0.393,-0.188 -0.597,-0.265 -0.904,-0.324 -1.843,-0.529 -2.807,-0.546 -0.145,0 -0.273,0.034 -0.418,0.043 -0.521,0.017 -1.033,0.034 -1.544,0.145 l -76.8,17.067 c -1.579,0.35 -3.029,1.143 -4.181,2.295 l -145.07,145.067 c -3.337,3.337 -3.337,8.73 0,12.066 3.337,3.336 8.73,3.336 12.067,0 z"
           id="path4"
           style="fill:#29292a" />
        <path
           d="m 506.991,410.449 -19.857,-19.866 c -6.007,-6.016 -16.922,-7.296 -26.129,1.92 l -6.861,6.895 -53.837,-53.828 c 24.516,-25.754 23.936,-52.864 -1.749,-78.549 -3.337,-3.337 -8.73,-3.337 -12.066,0 L 267.025,386.487 c -3.337,3.337 -3.337,8.73 0,12.066 25.301,25.301 53.111,25.813 78.507,1.707 l 53.897,53.897 -8.806,8.866 c -6.656,6.656 -6.673,17.468 -0.034,24.098 l 19.866,19.866 c 3.319,3.328 7.697,4.992 12.066,4.992 4.369,0 8.747,-1.664 12.075,-4.992 l 72.397,-72.397 c 6.654,-6.656 6.654,-17.493 -0.002,-24.141 z m -84.472,84.472 -19.806,-19.857 14.814,-14.925 c 3.302,-3.337 3.294,-8.721 -0.026,-12.041 l -59.836,-59.836 15.352,-15.309 c 3.345,-3.328 3.345,-8.73 0.017,-12.075 -3.336,-3.328 -8.738,-3.337 -12.066,-0.009 l -25.677,25.617 c -9.6,9.591 -19.029,14.473 -28.023,14.498 h -0.077 c -7.023,0 -14.31,-2.953 -21.726,-8.806 L 392.208,285.443 c 13.483,16.922 11.563,32.555 -5.769,49.886 l -4.233,4.301 c -3.285,3.345 -3.268,8.713 0.051,12.023 l 59.836,59.836 -13.397,13.449 c -3.319,3.336 -3.302,8.747 0.026,12.066 3.354,3.337 8.747,3.319 12.075,-0.026 l 32.29,-32.427 c 1.263,-1.254 2.219,-1.587 2.022,-1.86 l 19.814,19.831 z"
           id="path6"
           style="fill:#29292a" />
        <path
           d="m 281.591,349.854 c 2.185,0 4.369,-0.836 6.033,-2.5 3.336,-3.337 3.336,-8.73 0,-12.066 L 33.382,81.045 23.219,35.281 305.425,317.487 c 1.664,1.664 3.849,2.5 6.033,2.5 2.185,0 4.369,-0.836 6.033,-2.5 3.337,-3.337 3.337,-8.73 0,-12.066 L 35.277,23.206 81.05,33.378 335.292,287.62 c 3.337,3.337 8.73,3.337 12.066,0 3.336,-3.337 3.336,-8.73 0,-12.066 l -256,-256 C 90.206,18.402 88.755,17.608 87.177,17.259 L 10.377,0.192 C 9.865,0.081 9.353,0.064 8.832,0.047 8.687,0.038 8.559,0.004 8.414,0.004 7.441,0.021 6.511,0.226 5.606,0.55 5.402,0.627 5.214,0.721 5.018,0.815 4.096,1.225 3.226,1.754 2.492,2.488 1.758,3.221 1.229,4.092 0.819,5.013 0.725,5.21 0.631,5.397 0.555,5.602 0.222,6.507 0.026,7.445 0.009,8.418 c 0,0.128 0.034,0.256 0.043,0.384 0.017,0.521 0.026,1.05 0.137,1.57 l 17.067,76.8 c 0.358,1.587 1.152,3.038 2.304,4.181 l 164.634,164.634 -19.567,19.567 c -3.337,3.337 -3.337,8.73 0,12.066 1.664,1.664 3.849,2.5 6.033,2.5 2.184,0 4.369,-0.836 6.033,-2.5 l 19.567,-19.567 17.8,17.801 -19.567,19.567 c -3.337,3.336 -3.337,8.73 0,12.066 1.664,1.664 3.849,2.5 6.033,2.5 2.185,0 4.369,-0.836 6.033,-2.5 l 19.567,-19.567 17.801,17.801 -19.567,19.567 c -3.337,3.337 -3.337,8.73 0,12.066 1.664,1.664 3.849,2.5 6.033,2.5 2.184,0 4.369,-0.836 6.033,-2.5 l 19.567,-19.567 19.567,19.567 c 1.662,1.664 3.847,2.5 6.031,2.5 z"
           id="path8"
           style="fill:#29292a" />
      </g>
    </g>
  </g>
  <path
     style="fill:#29292a;stroke:#29292a;stroke-width:1.49914"
     id="path924"
     d="m 17.126247,39.605087 c 0.551456,0.267531 1.094128,0.550153 1.632485,0.842016 0.516136,0.27872 1.039122,0.544564 1.563149,0.808659 0.327277,0.167365 0.642927,0.353768 0.956575,0.544042 0.24867,0.149332 0.505513,0.28487 0.711063,0.489907 0.141512,0.164053 0.233577,0.349262 0.277588,0.558331 0.04013,0.203963 0.07321,0.413488 0.133221,0.613227 0.0111,0.173627 0.06528,0.340089 0.118154,0.50487 0.103439,0.243902 0.253101,0.466486 0.389369,0.69401 0.126978,0.184722 0.303099,0.331238 0.465629,0.48542 0.249684,0.204289 0.506621,0.400003 0.756619,0.604129 0.204006,0.186524 0.451002,0.318859 0.678441,0.475193 0.241539,0.17449 0.50715,0.31215 0.766768,0.458152 0.249048,0.125034 0.4999,0.247511 0.743529,0.382495 0.179652,0.08718 0.344962,0.194292 0.514299,0.298314 0.144164,0.10789 0.299554,0.200494 0.444868,0.306816 0.05018,0.04622 0.139496,0.110888 0.159983,0.154765 -0.01318,-0.0022 -0.02828,-0.01364 -0.03971,-0.0066 -0.01597,0.0096 -0.01624,0.03353 -0.02822,0.04763 -0.06888,0.08096 -0.169506,0.153974 -0.257942,0.211609 -0.546416,0.272859 -1.27223,0.732068 1.23884,-0.710697 0.03277,-0.01883 -0.06797,0.03334 -0.102667,0.04846 -0.07412,0.03231 -0.149954,0.06069 -0.224789,0.09137 -0.338246,0.128356 -0.707354,0.132553 -1.065195,0.146433 -0.326302,0.0037 -0.653445,0.01666 -0.979613,0.0014 -0.196477,-0.0036 -0.344443,-0.07301 -0.501838,-0.179579 -0.236613,-0.180608 -0.422656,-0.41552 -0.622174,-0.633128 -0.208982,-0.218488 -0.393241,-0.458186 -0.568786,-0.702774 -0.135298,-0.169774 -0.253879,-0.351091 -0.390145,-0.520677 -0.119276,-0.157022 -0.232442,-0.318742 -0.360503,-0.468912 -0.179483,-0.229334 -0.405033,-0.418652 -0.617754,-0.617377 -0.254001,-0.21456 -0.515434,-0.420061 -0.765488,-0.639162 -0.220398,-0.20091 -0.367519,-0.459327 -0.564224,-0.679781 -0.216171,-0.22785 -0.408468,-0.470757 -0.585509,-0.728344 -0.216456,-0.328345 -0.431896,-0.657345 -0.652524,-0.983032 -0.193103,-0.33826 -0.436779,-0.642562 -0.676713,-0.949294 -0.220856,-0.312472 -0.501353,-0.566324 -0.789443,-0.81667 -0.256674,-0.219853 -0.472769,-0.480151 -0.700456,-0.727703 -0.16746,-0.192757 -0.359789,-0.372611 -0.4891,-0.593655 -0.07502,-0.184865 -0.06319,-0.390706 -0.06659,-0.586246 -0.004,-0.303336 8.11e-4,-0.606695 0.0031,-0.910026 0.01826,-0.221302 -0.01855,-0.439275 -0.01921,-0.659582 0.01049,-0.07072 -0.0095,-0.147854 0.0065,-0.218011 0.0046,-0.01994 0.0714,-0.04241 0.0536,-0.03171 -0.491523,0.295254 -0.989294,0.580437 -1.483941,0.870656 0.255686,0.05683 0.474502,0.209379 0.679729,0.362189 0.254912,0.221563 0.488869,0.464997 0.701389,0.725668 0.214159,0.248913 0.366409,0.538038 0.523299,0.822596 0.113933,0.225288 0.226805,0.450925 0.329835,0.681042 0.09024,0.162867 0.184815,0.322161 0.27525,0.484707 0.145574,0.21098 0.30544,0.411567 0.45516,0.619713 0.212779,0.242267 0.463481,0.445184 0.712755,0.649529 0.303426,0.257234 0.582101,0.537254 0.890222,0.789488 0.348381,0.284038 0.669326,0.596143 1.016688,0.881484 0.305407,0.248796 0.634772,0.463686 0.971396,0.669162 0.304984,0.195725 0.61604,0.382448 0.918887,0.581324 0.225505,0.15507 0.438299,0.325565 0.675223,0.463865 0.18129,0.106205 0.36082,0.214766 0.523696,0.346952 0.103186,0.102568 0.161013,0.237709 0.227663,0.363768 0.03365,0.118316 0.124811,0.212265 0.202466,0.306062 0.09434,0.10181 0.175877,0.212851 0.261423,0.321609 0.11509,0.118955 0.193815,0.255955 0.272225,0.399269 0.161401,0.268913 0.337776,0.528723 0.509251,0.791605 0.128751,0.224433 0.279336,0.436527 0.39978,0.665439 0.09021,0.154438 0.178797,0.342666 0.100617,0.517996 -0.04136,0.05821 -0.103945,0.07606 -0.168563,0.09939 0.489238,-0.279176 0.979699,-0.556308 1.467712,-0.837528 0.05028,-0.02899 -0.108939,0.04218 -0.165757,0.05521 -0.379363,-2.5e-4 -0.741943,-0.139127 -1.078482,-0.298439 -0.393822,-0.202432 -0.744573,-0.476977 -1.068685,-0.773195 -0.164774,-0.175944 -0.307415,-0.369472 -0.463545,-0.552439 -0.162723,-0.211355 -0.379315,-0.36676 -0.581909,-0.537576 -0.179757,-0.14185 -0.369979,-0.270609 -0.559334,-0.399869 -0.262981,-0.217038 -0.46385,-0.496598 -0.670731,-0.763106 -0.241673,-0.289301 -0.463566,-0.591618 -0.669294,-0.906062 -0.142042,-0.233547 -0.311321,-0.447761 -0.46877,-0.670962 -0.163504,-0.223168 -0.327354,-0.448028 -0.521453,-0.646888 -0.311036,-0.29202 -0.676063,-0.526032 -1.041939,-0.746683 -0.413794,-0.266861 -0.869492,-0.459005 -1.298096,-0.700053 -0.368954,-0.211229 -0.725214,-0.441912 -1.049645,-0.714726 -0.275509,-0.26994 -0.450838,-0.614936 -0.627258,-0.950332 -0.172937,-0.359113 -0.338908,-0.721962 -0.471606,-1.097396 -0.09012,-0.214396 -0.08431,-0.414692 -0.04822,-0.636407 0.06916,-0.151439 0.143543,-0.302797 0.18715,-0.463492 0.04012,-0.160012 0.0447,-0.325313 0.04909,-0.489172 0.0022,-0.082 0.0013,-0.164037 0.0028,-0.246051 0,0 -1.604436,0.800123 -1.604436,0.800123 v 0 c 0.0016,0.07948 6.17e-4,0.159001 -0.0018,0.238468 -0.0069,0.150527 -0.01838,0.301955 -0.06996,0.445281 -0.06326,0.160988 -0.140422,0.319434 -0.17129,0.490253 -0.02834,0.245004 0.0013,0.475894 0.09613,0.70669 0.144467,0.378438 0.312437,0.747636 0.492006,1.111274 0.184108,0.357247 0.366592,0.722898 0.653543,1.014024 0.332679,0.279365 0.70167,0.511305 1.072793,0.738453 0.427387,0.243916 0.887696,0.42572 1.30212,0.692313 0.353324,0.210814 0.700766,0.441608 1.00409,0.718003 0.189074,0.189175 0.345277,0.408461 0.503729,0.622083 0.152803,0.224714 0.329534,0.432422 0.469724,0.665921 0.210695,0.316856 0.439597,0.619816 0.684749,0.912193 0.216319,0.28104 0.420951,0.576868 0.684967,0.817804 0.183662,0.128192 0.371129,0.249742 0.550694,0.383468 0.193321,0.168259 0.413875,0.304886 0.567595,0.513692 0.16033,0.189663 0.308662,0.388651 0.481574,0.568011 0.337061,0.305025 0.704576,0.584859 1.102943,0.808726 0.346083,0.182331 0.720376,0.328326 1.112508,0.379221 0.747692,0.112658 1.683567,-0.419445 1.933623,-1.115845 0.01587,-0.221815 -0.04827,-0.429893 -0.164976,-0.620656 -0.1234,-0.234007 -0.277289,-0.449563 -0.41388,-0.676127 -0.16853,-0.258064 -0.33963,-0.515067 -0.493647,-0.781658 -0.07899,-0.156061 -0.161435,-0.304372 -0.285674,-0.430567 -0.08939,-0.107902 -0.164339,-0.227444 -0.261825,-0.328377 -0.07465,-0.08202 -0.147029,-0.167219 -0.183717,-0.271955 -0.07857,-0.145512 -0.150682,-0.297384 -0.265202,-0.420192 -0.167217,-0.143214 -0.355229,-0.256144 -0.54364,-0.370039 -0.235586,-0.136289 -0.45752,-0.288558 -0.675311,-0.451369 C 24.861984,43.003725 24.543758,42.822782 24.238798,42.621725 23.906538,42.422491 23.584373,42.210768 23.2771,41.97566 22.927943,41.692598 22.608833,41.380066 22.262113,41.094467 21.957274,40.839795 21.674381,40.565272 21.375952,40.30372 21.142319,40.104112 20.90243,39.912268 20.691629,39.688565 20.546313,39.485527 20.392916,39.288411 20.254473,39.080772 20.165023,38.923395 20.072536,38.769013 19.98277,38.611701 19.876678,38.377947 19.757854,38.149856 19.640865,37.921008 19.477799,37.628234 19.317599,37.331266 19.098959,37.073303 18.877952,36.802574 18.637535,36.5472 18.377892,36.311493 c -0.2239,-0.175254 -0.458298,-0.329099 -0.721118,-0.443308 -1.496014,0.775703 -1.664877,0.317576 -1.642308,1.192324 0.01085,0.21733 0.03609,0.433478 0.02264,0.651753 -2.63e-4,0.304241 -3.04e-4,0.608483 -9.14e-4,0.912725 0.0031,0.226723 -9.79e-4,0.460773 0.104597,0.668905 0.140588,0.229261 0.34012,0.416919 0.517289,0.618645 0.232842,0.251557 0.452009,0.517796 0.710169,0.745042 0.281676,0.241895 0.564115,0.477517 0.777158,0.784272 0.237132,0.303756 0.47322,0.608686 0.670392,0.939467 0.221165,0.325472 0.43457,0.655927 0.647714,0.986455 0.180063,0.265027 0.373606,0.516182 0.596479,0.74893 0.203288,0.223584 0.349655,0.491369 0.575893,0.696444 0.247606,0.219391 0.504542,0.427574 0.763852,0.63354 0.206313,0.195154 0.423782,0.383637 0.60038,0.605582 0.127766,0.148584 0.236656,0.312477 0.356253,0.467612 0.138405,0.163155 0.250883,0.34521 0.390065,0.507306 0.179879,0.250007 0.368622,0.495115 0.5817,0.719204 0.206628,0.225881 0.399212,0.467524 0.635335,0.664931 0.167913,0.133901 0.332647,0.246209 0.556059,0.260167 0.331413,0.04539 0.670819,-0.0019 1.004317,0.0084 0.364374,-0.0082 0.735359,-0.0084 1.091589,-0.09129 0.77388,-0.27507 1.493597,-0.69331 2.159756,-1.165342 0.126462,-0.120793 0.277117,-0.253835 0.245531,-0.44192 -0.04889,-0.110142 -0.135753,-0.172116 -0.224653,-0.25123 -0.152051,-0.109491 -0.315449,-0.198765 -0.457872,-0.321526 -0.176301,-0.09251 -0.326733,-0.224966 -0.515977,-0.29594 -0.23861,-0.143866 -0.498267,-0.257422 -0.748155,-0.381329 -0.253372,-0.145557 -0.518487,-0.273715 -0.755402,-0.445434 -0.221446,-0.158203 -0.470326,-0.281745 -0.672611,-0.463883 -0.246748,-0.200308 -0.503742,-0.388629 -0.746799,-0.592979 -0.149849,-0.146252 -0.312574,-0.28357 -0.443376,-0.445693 -0.131296,-0.214199 -0.272978,-0.426589 -0.364196,-0.6604 -0.05104,-0.164883 -0.08849,-0.331544 -0.115247,-0.502092 -0.05552,-0.19838 -0.09198,-0.402438 -0.131297,-0.604349 -0.06131,-0.236088 -0.169079,-0.449132 -0.327494,-0.638607 -0.212114,-0.22118 -0.473939,-0.369495 -0.738237,-0.524854 -0.318751,-0.195093 -0.643341,-0.379445 -0.977308,-0.548694 -0.526739,-0.25951 -1.049919,-0.524811 -1.570233,-0.796627 -0.534137,-0.291486 -1.070854,-0.576555 -1.61103,-0.856569 0,0 -1.494595,0.953871 -1.494595,0.953871 z" />
  <path
     style="fill:#29292a;stroke:#29292a;stroke-width:1.49914"
     id="path926"
     d="m 19.701679,46.04452 c -0.243096,0.268051 -0.505706,0.517989 -0.75607,0.77893 -0.191193,0.172721 -0.406591,0.320432 -0.592314,0.498037 -0.18516,0.15133 -0.3873,0.27812 -0.578953,0.420917 -0.231759,0.140322 -0.467149,0.26965 -0.68338,0.432881 -0.230687,0.216168 -0.482837,0.397932 -0.745137,0.574544 -0.271767,0.220918 -0.583561,0.383349 -0.8669,0.588086 -0.308744,0.195748 -0.612835,0.403015 -0.867123,0.66456 -0.204916,0.231921 -0.429774,0.446006 -0.589329,0.711389 -0.128084,0.174547 -0.235212,0.361967 -0.351298,0.543804 -0.103849,0.163863 -0.188888,0.354972 -0.324873,0.496743 -0.09258,0.135636 -0.185842,0.266769 -0.282304,0.399162 -0.119445,0.180824 -0.304509,0.28605 -0.482896,0.401798 2.579236,-1.551497 1.688648,-0.872733 1.098657,-0.673413 -0.180504,0.06097 -0.3658,0.09419 -0.553322,0.125774 -0.245521,0.03682 -0.506688,0.05827 -0.731576,-0.06055 -0.169358,-0.232505 -0.181439,-0.564104 -0.169231,-0.841062 0.01424,-0.333606 0.06795,-0.660813 0.208942,-0.965959 0.144573,-0.297995 0.32207,-0.48976 0.588712,-0.686581 0.05785,-0.03735 0.114837,-0.076 0.173543,-0.112056 0.0633,-0.03888 0.128478,-0.07473 0.192341,-0.112706 0.963937,-0.573137 -1.896712,1.063431 -0.970073,0.545887 0.05814,-0.03247 0.116272,-0.06492 0.174406,-0.09738 0.919668,-0.425618 1.778457,-0.938891 2.660848,-1.441081 0.406379,-0.296518 0.81999,-0.581857 1.250666,-0.843897 0.138769,-0.08908 0.402607,-0.259842 0.543793,-0.344909 0.08511,-0.05128 0.344823,-0.197943 0.258284,-0.149016 -2.841139,1.606344 -0.236699,0.188705 0.707061,-0.420174 0.373328,-0.235191 0.721126,-0.497099 1.05255,-0.785648 0.334194,-0.318916 0.580458,-0.709805 0.828453,-1.093147 0.142437,-0.22698 0.266995,-0.454891 0.218786,-0.725006 -0.07799,-0.198906 -0.264302,-0.256111 -0.461027,-0.288071 -0.221082,-0.03592 -0.437868,-3.91e-4 -0.654289,0.04318 -0.831002,0.228355 -1.679992,0.620034 -2.25136,1.260227 -0.23689,0.255868 -0.432615,0.541421 -0.641416,0.818393 -0.214806,0.328527 -0.479608,0.62071 -0.752913,0.903014 -0.213264,0.246255 -0.482506,0.427861 -0.747784,0.614578 -0.310803,0.200932 -0.587774,0.448141 -0.893674,0.656312 -0.257729,0.160848 -0.467655,0.375909 -0.692815,0.574905 -0.249598,0.205084 -0.498917,0.413494 -0.758339,0.607142 -0.297159,0.208444 -0.553333,0.465686 -0.840233,0.685856 -0.214513,0.179867 -0.430395,0.359305 -0.639669,0.545875 -0.256095,0.233433 -0.502851,0.476451 -0.75107,0.717828 -0.2070079,0.252281 -0.4382846,0.485749 -0.6391135,0.742628 -0.069124,0.08003 -0.1394204,0.165521 -0.2327301,0.220545 -0.019093,0.01132 -0.080498,0.03734 -0.061248,0.02632 1.6098926,-0.92129 1.9623416,-1.153301 1.4478556,-0.816456 C 10.31538,51.148111 10.111488,50.991013 9.9171515,50.870182 9.6960076,50.729698 9.5303342,50.532539 9.3646753,50.335949 9.174902,50.118361 8.9806117,49.905135 8.80083,49.679419 8.6750342,49.525117 8.510737,49.413276 8.3269823,49.335774 8.0648079,49.252217 7.7928286,49.204512 7.5205431,49.16577 7.3251202,49.144279 7.1244156,49.15084 6.931025,49.186298 c -1.7677954,0.292803 -1.3149008,0.637423 -1.9504332,1.261767 -0.1377994,0.167728 -0.276729,0.338894 -0.3593245,0.540015 0.00893,0.296042 0.2072745,0.558509 0.3954907,0.777958 0.1859125,0.206005 0.3973879,0.386717 0.6108378,0.564441 0.17584,0.163682 0.3363752,0.342407 0.5033379,0.514675 0.1488176,0.184318 0.3212659,0.350307 0.5176657,0.485523 0.2293976,0.140885 0.446952,0.298539 0.6696928,0.449163 0.1461049,0.112755 0.281117,0.23728 0.4296788,0.347678 0.1432246,0.08616 0.2729091,0.188399 0.3992936,0.296473 0.1565164,0.164534 0.3080501,0.332953 0.4698204,0.493444 0.1629186,0.176817 0.3172554,0.361206 0.4868476,0.531968 0.1537084,0.153469 0.297278,0.31654 0.4533191,0.467782 0.1921603,0.186764 0.3818637,0.375715 0.5707963,0.565587 0.138663,0.180218 0.291357,0.345604 0.469181,0.488908 0.230747,0.200592 0.493023,0.358856 0.742064,0.535027 0.204369,0.121964 0.357709,0.30141 0.538321,0.451094 0.112352,0.09525 0.223763,0.191036 0.349369,0.269152 0.158312,0.09167 0.301879,0.203883 0.447012,0.313792 0.147287,0.10889 0.307281,0.208062 0.49657,0.210105 0.634125,-0.09486 1.344157,-0.718998 1.717378,-0.930142 0.0777,-0.04397 0.102594,-0.08096 0.141754,-0.160366 0.06462,-0.154776 0.164147,-0.292809 0.229687,-0.450007 0.05224,-0.156258 0.09102,-0.323874 0.07076,-0.488501 -0.03076,-0.147603 -0.109796,-0.290059 -0.200668,-0.411187 -0.217093,-0.239632 -0.483597,-0.43112 -0.740716,-0.627401 -0.257981,-0.194273 -0.505713,-0.40093 -0.75832,-0.6017 C 13.446106,54.925171 13.271104,54.75903 13.091305,54.597753 12.87963,54.425366 12.653699,54.270854 12.425652,54.120132 12.231422,53.973672 12.023527,53.846248 11.815687,53.719358 11.604709,53.599114 11.404523,53.461487 11.202953,53.326899 10.93826,53.166092 10.694543,52.976333 10.452371,52.785261 10.222698,52.607112 9.980579,52.440355 9.7338986,52.284729 9.5055384,52.143428 9.2710593,52.008709 9.0595803,51.843483 8.8936777,51.713557 8.7195674,51.592651 8.5395795,51.48196 8.3010297,51.349125 8.0804383,51.191925 7.8680268,51.022716 c -0.122491,-0.09822 -0.2490998,-0.19075 -0.3699324,-0.29098 0,0 -1.5208836,0.933394 -1.5208836,0.933394 v 0 c 0.1261734,0.09554 0.2530006,0.189594 0.3773744,0.287275 0.2198618,0.170401 0.4375344,0.343128 0.6799438,0.483131 0.178707,0.09756 0.3412311,0.221194 0.5074472,0.336787 0.211853,0.178123 0.4580123,0.310029 0.6888765,0.462409 0.2480168,0.139017 0.4802934,0.311337 0.707123,0.479535 0.2435263,0.195409 0.4922825,0.386035 0.7594286,0.54967 0.1975409,0.142606 0.3979257,0.284937 0.6108117,0.403978 0.205324,0.130892 0.423158,0.242667 0.614041,0.394351 0.222607,0.142191 0.434026,0.29923 0.645437,0.456823 0.181323,0.166077 0.36482,0.329254 0.549888,0.491112 0.254651,0.200489 0.505186,0.405513 0.762081,0.603401 0.244609,0.185106 0.501665,0.362956 0.705054,0.59255 0.07146,0.09373 0.136254,0.20508 0.147196,0.323017 -0.0071,0.14222 -0.0413,0.281624 -0.104923,0.410056 -0.07524,0.141968 -0.156241,0.283973 -0.248921,0.414822 -0.09368,0.06888 -0.0069,0.0089 -0.10883,0.06807 -0.01956,0.01132 -0.07704,0.04726 -0.05729,0.03623 3.231067,-1.807247 1.805426,-1.1372 1.396179,-0.765098 -0.18209,0.07057 -0.259697,0.01877 -0.42018,-0.08789 -0.153097,-0.111971 -0.297173,-0.235692 -0.455177,-0.340652 -0.12819,-0.0534 -0.230203,-0.155018 -0.337212,-0.239649 C 13.20365,56.884203 13.061558,56.688334 12.849342,56.571327 12.607228,56.390991 12.337177,56.248508 12.11278,56.044387 11.941466,55.903146 11.788586,55.747536 11.656118,55.569522 11.466109,55.378063 11.269249,55.19325 11.080923,55.000148 10.921192,54.853273 10.78735,54.682508 10.633211,54.530677 10.455873,54.369277 10.303466,54.182153 10.140989,54.006668 9.9795296,53.841834 9.8267861,53.670134 9.6726917,53.499405 9.5455172,53.38281 9.4136061,53.271131 9.2637381,53.183968 9.1058009,53.083085 8.9730395,52.954441 8.8280358,52.837722 8.6041986,52.685904 8.3780251,52.538515 8.1578871,52.381328 7.960813,52.271596 7.7978884,52.108402 7.657661,51.935862 7.4868254,51.757504 7.3231035,51.572391 7.1453313,51.400632 6.9333891,51.23597 6.7309476,51.05985 6.5479661,50.864237 6.4124403,50.711595 6.187064,50.477445 6.2560084,50.261627 c 0.1058511,-0.177739 0.2346225,-0.340726 0.3753613,-0.493379 0.069003,-0.08418 0.1330846,-0.17375 0.2180996,-0.243644 0.023882,-0.01964 0.1024256,-0.06946 0.075239,-0.05447 -1.4501059,0.799506 -1.9039558,1.190538 -1.4223839,0.781725 0.1825208,-0.05058 0.3677397,-0.07444 0.5584876,-0.07607 0.2637533,0.02874 0.5238424,0.07226 0.7793963,0.141878 0.1641717,0.04455 0.308617,0.135057 0.4234008,0.259252 0.1830515,0.224554 0.3792294,0.437977 0.5680752,0.657842 0.1752345,0.210612 0.3493111,0.422792 0.5786688,0.580772 0.2167379,0.14351 0.446478,0.27217 0.6737575,0.398638 0.7145287,0.272022 1.4887054,-0.603411 1.9491854,-1.144721 0.20898,-0.244389 0.418514,-0.489122 0.641158,-0.721683 0.249585,-0.241662 0.499118,-0.483693 0.761434,-0.712251 0.211171,-0.181324 0.421629,-0.363664 0.638959,-0.537857 0.275258,-0.232432 0.547652,-0.468249 0.839311,-0.681283 0.256549,-0.203154 0.516227,-0.403422 0.759985,-0.621262 0.221464,-0.198157 0.44358,-0.394206 0.695606,-0.55583 0.295588,-0.221447 0.585453,-0.450804 0.893557,-0.655707 0.267182,-0.19123 0.518143,-0.399523 0.734496,-0.646216 0.267462,-0.288887 0.514984,-0.593429 0.73686,-0.91759 0.207991,-0.276783 0.417335,-0.553773 0.66466,-0.798858 0.472037,-0.393857 1.331101,-0.778075 -1.196277,0.625764 -0.05516,0.03063 0.353985,-0.199634 0.376001,-0.148675 0.193676,-0.06913 0.403895,-0.107577 0.610047,-0.09572 0.09962,0.0055 0.282781,-0.01144 0.333597,0.08912 0.0099,0.2255 -0.150742,0.420851 -0.255325,0.609369 -0.243424,0.37628 -0.499645,0.750433 -0.845493,1.04544 -0.333961,0.278346 -0.690072,0.525784 -1.057171,0.760737 -0.074,0.04575 -0.2983,0.179163 -0.221976,0.137238 0.42661,-0.234304 1.695359,-0.956237 1.273082,-0.714538 -0.855956,0.489924 -1.731916,0.945485 -2.554811,1.487881 -0.428061,0.271203 -0.840312,0.563255 -1.260858,0.84484 2.633732,-1.473986 1.032815,-0.548125 0.376932,-0.279448 -0.881065,0.485287 -1.785682,0.94047 -2.604916,1.521631 -0.247816,0.217092 -0.433999,0.46374 -0.557186,0.768742 -0.118009,0.329701 -0.171367,0.674315 -0.179374,1.023587 0.0072,0.343106 0.03969,0.712348 0.250739,0.998407 0.239154,0.170828 0.525117,0.199172 0.815098,0.158635 1.04397,-0.142442 1.506198,-0.477053 2.546029,-1.138874 0.183097,-0.126696 0.342453,-0.274858 0.462806,-0.461921 0.09293,-0.132359 0.188117,-0.263268 0.284686,-0.393253 0.106345,-0.169786 0.215881,-0.337613 0.315241,-0.511463 0.11123,-0.182199 0.230532,-0.359697 0.34906,-0.537413 0.17858,-0.242196 0.391555,-0.458615 0.601943,-0.674327 0.271369,-0.237866 0.570948,-0.439477 0.873406,-0.637467 0.292918,-0.192727 0.590472,-0.37792 0.870869,-0.588368 0.261191,-0.179362 0.49442,-0.389304 0.747193,-0.57921 0.224766,-0.149989 0.465419,-0.275586 0.684143,-0.434542 0.197681,-0.137979 0.394538,-0.277669 0.574412,-0.437862 0.200026,-0.162609 0.399906,-0.326873 0.582946,-0.507811 0.258495,-0.257769 0.509479,-0.523388 0.751986,-0.795508 0,0 -1.644454,0.688586 -1.644454,0.688586 z" />
  <path
     style="fill:#29292a;stroke:#29292a;stroke-width:1.49914"
     id="path928"
     d="m 14.880233,52.916524 c 0.162491,-0.319393 0.366424,-0.616893 0.578908,-0.906338 0.101859,-0.205434 0.277764,-0.353324 0.416322,-0.530594 0.125553,-0.126428 0.237694,-0.256102 0.379264,-0.365718 0.185668,-0.101797 0.339732,-0.249344 0.529552,-0.341915 -0.468633,0.266088 -0.938972,0.529321 -1.405899,0.798262 -0.04894,0.02819 0.101123,-0.05058 0.151695,-0.07586 0.05426,-0.02713 0.110013,-0.05154 0.162786,-0.08133 0.537535,-0.303398 1.341736,-0.687948 1.918327,-1.124557 0.171816,-0.105566 0.290322,-0.269831 0.446799,-0.392354 0.207764,-0.206169 0.459712,-0.355044 0.68987,-0.532783 0.240534,-0.181283 0.481269,-0.363584 0.710807,-0.558778 0.220802,-0.186142 0.451097,-0.360238 0.667848,-0.5515 0.196163,-0.141597 0.38165,-0.307445 0.50758,-0.512717 0.104778,-0.22018 0.233368,-0.429489 0.29693,-0.665637 0.05958,-0.306358 -0.131676,-0.58531 -0.29054,-0.833106 -0.303188,-0.432457 -0.716993,-0.767937 -1.137202,-1.08574 -0.404627,-0.295001 -0.845085,-0.538809 -1.321158,-0.702592 -0.298586,-0.09343 -0.60889,-0.13322 -0.920701,-0.148808 -0.213013,-0.0011 -0.421139,0.05172 -0.631417,0.07978 -0.690641,0.09842 -1.860451,0.941384 -2.09148,1.072363 -0.24134,0.231326 -0.44858,0.493122 -0.61118,0.782626 -0.147165,0.22825 -0.23947,0.48156 -0.345482,0.728452 -0.06718,0.205746 -0.148727,0.406325 -0.216306,0.612053 -0.09317,0.350795 -0.217496,0.691753 -0.307065,1.044369 -0.07401,0.391292 -0.171775,0.778172 -0.23998,1.170623 -0.02243,0.239215 -0.06049,0.474643 -0.09854,0.711691 -0.04506,0.169002 -0.109205,0.331146 -0.189662,0.486936 0,0 1.628801,-0.727611 1.628801,-0.727611 v 0 c 0.07287,-0.171797 0.141604,-0.345876 0.170712,-0.530841 0.03857,-0.234753 0.05879,-0.470896 0.09251,-0.70627 0.06886,-0.385992 0.152045,-0.76992 0.237229,-1.152623 0.09911,-0.349594 0.22385,-0.690799 0.326087,-1.039426 0.07418,-0.201359 0.146211,-0.403473 0.222352,-0.604068 0.09641,-0.243057 0.211131,-0.478632 0.349949,-0.701574 0.174541,-0.267754 0.377276,-0.529653 0.650327,-0.707674 -2.62111,1.470598 -1.635687,0.860837 -1.017156,0.608491 0.208502,-0.01901 0.414611,-0.05227 0.618012,-0.101545 0.304102,0.0028 0.608487,0.02278 0.903744,0.100003 0.469766,0.136556 0.897986,0.36746 1.293115,0.650415 0.407076,0.300563 0.81121,0.615627 1.096684,1.036112 0.13404,0.213433 0.29569,0.447967 0.20655,0.706611 -0.08203,0.215104 -0.191,0.421971 -0.318593,0.614428 -0.153953,0.176788 -0.333916,0.328182 -0.518427,0.473749 -0.220876,0.185847 -0.45191,0.359536 -0.669929,0.548684 -0.233289,0.188359 -0.470852,0.372075 -0.713411,0.548835 -0.241898,0.169137 -0.470936,0.352183 -0.689884,0.549252 -0.139633,0.136482 -0.286154,0.26568 -0.450076,0.374168 -0.0814,0.05418 -0.332091,0.206749 -0.246297,0.159496 0.46142,-0.254136 0.920423,-0.512453 1.379473,-0.770664 0.100484,-0.05651 -0.209033,0.09839 -0.310009,0.154048 -0.554691,0.30579 -1.105469,0.618328 -1.658202,0.927491 -0.175234,0.122216 -0.357739,0.236065 -0.52259,0.371546 -0.131342,0.121164 -0.242923,0.261978 -0.36573,0.391298 -0.154324,0.166617 -0.280616,0.352487 -0.404092,0.541913 -0.205219,0.298758 -0.397803,0.605103 -0.575779,0.920272 0,0 1.63456,-0.711322 1.63456,-0.711322 z" />
  <path
     style="fill:#123354;stroke:#123354;stroke-width:1.49914"
     id="path924-3"
     d="m 47.357051,39.360448 c -0.551455,0.26753 -1.094127,0.550152 -1.632483,0.842016 -0.516136,0.27872 -1.039123,0.544564 -1.563149,0.80866 -0.327277,0.167363 -0.642927,0.353767 -0.956576,0.544042 -0.248669,0.149331 -0.505511,0.28487 -0.711062,0.489906 -0.141512,0.164053 -0.233578,0.349262 -0.277588,0.558331 -0.04013,0.203963 -0.07321,0.413488 -0.133222,0.613227 -0.0111,0.173627 -0.06528,0.340089 -0.118154,0.50487 -0.103439,0.243902 -0.253099,0.466487 -0.389369,0.694011 -0.126977,0.184721 -0.303098,0.331238 -0.46563,0.485419 -0.249683,0.204289 -0.506621,0.400002 -0.756618,0.60413 -0.204004,0.186523 -0.451001,0.318859 -0.678441,0.475192 -0.241538,0.174489 -0.507149,0.312151 -0.766767,0.458153 -0.249049,0.125034 -0.499901,0.24751 -0.74353,0.382495 -0.179651,0.08718 -0.344961,0.194291 -0.514299,0.298313 -0.144165,0.10789 -0.299553,0.200495 -0.444868,0.306816 -0.05018,0.04622 -0.139497,0.110888 -0.159983,0.154765 0.01318,-0.0022 0.02828,-0.01364 0.03971,-0.0066 0.01597,0.0096 0.01624,0.03353 0.02822,0.04763 0.06888,0.08097 0.169505,0.153975 0.257942,0.21161 0.546416,0.272859 1.272229,0.732069 -1.23884,-0.710696 -0.03277,-0.01883 0.06797,0.03334 0.102667,0.04846 0.07412,0.03231 0.149954,0.06069 0.22479,0.09137 0.338245,0.128355 0.707354,0.132552 1.065194,0.146431 0.326303,0.0037 0.653446,0.01666 0.979613,0.0014 0.196477,-0.0036 0.344444,-0.07301 0.501839,-0.179581 0.236612,-0.180606 0.422656,-0.415519 0.622172,-0.633127 0.208983,-0.218487 0.393243,-0.458187 0.568787,-0.702774 0.135298,-0.169774 0.25388,-0.351091 0.390147,-0.520677 0.119275,-0.157021 0.232441,-0.318742 0.360502,-0.468913 0.179483,-0.229333 0.405032,-0.41865 0.617753,-0.617376 0.254,-0.21456 0.515434,-0.420061 0.765488,-0.639162 0.220398,-0.200909 0.367519,-0.459328 0.564226,-0.67978 0.21617,-0.22785 0.408467,-0.470757 0.585507,-0.728345 0.216457,-0.328345 0.431897,-0.657345 0.652525,-0.983032 0.193103,-0.33826 0.436779,-0.642563 0.676712,-0.949294 0.220856,-0.312472 0.501354,-0.566324 0.789442,-0.81667 0.256676,-0.219853 0.472771,-0.480151 0.700457,-0.727704 0.167461,-0.192757 0.35979,-0.37261 0.4891,-0.593654 0.07502,-0.184865 0.06319,-0.390707 0.06659,-0.586245 0.004,-0.303337 -8.11e-4,-0.606696 -0.0031,-0.910028 -0.01826,-0.221301 0.01855,-0.439274 0.01921,-0.659581 -0.01049,-0.07071 0.0095,-0.147855 -0.0065,-0.218011 -0.0046,-0.01994 -0.0714,-0.0424 -0.05361,-0.03171 0.491525,0.295255 0.989294,0.580437 1.483943,0.870656 -0.255688,0.05682 -0.474502,0.209379 -0.679729,0.362188 -0.254913,0.221563 -0.488869,0.464998 -0.701389,0.725669 -0.214159,0.248913 -0.366409,0.538037 -0.523301,0.822596 -0.113932,0.225287 -0.226804,0.450925 -0.329833,0.681042 -0.09024,0.162866 -0.184816,0.322162 -0.27525,0.484707 -0.145574,0.210981 -0.30544,0.411567 -0.455161,0.619713 -0.212778,0.242268 -0.463481,0.445184 -0.712756,0.649529 -0.303425,0.257234 -0.582099,0.537253 -0.89022,0.789488 -0.348381,0.284038 -0.669326,0.596143 -1.016689,0.881483 -0.305406,0.248797 -0.634771,0.463687 -0.971395,0.669162 -0.304985,0.195726 -0.61604,0.382449 -0.918887,0.581325 -0.225505,0.15507 -0.438299,0.325565 -0.675223,0.463866 -0.18129,0.106204 -0.36082,0.214765 -0.523696,0.346951 -0.103186,0.102568 -0.161013,0.23771 -0.227663,0.363768 -0.03365,0.118316 -0.124811,0.212265 -0.202466,0.306063 -0.09434,0.101809 -0.175878,0.21285 -0.261423,0.321608 -0.11509,0.118955 -0.193816,0.255955 -0.272226,0.399269 -0.161402,0.268914 -0.337775,0.528724 -0.509251,0.791604 -0.128751,0.224434 -0.279336,0.436529 -0.399779,0.665441 -0.09021,0.154436 -0.178797,0.342665 -0.100617,0.517995 0.04136,0.05821 0.103945,0.07606 0.168562,0.09939 -0.489237,-0.279175 -0.979699,-0.556308 -1.467711,-0.837526 -0.05028,-0.02899 0.108939,0.04218 0.165757,0.05521 0.379418,-2.43e-4 0.741997,-0.139122 1.078538,-0.298433 0.39382,-0.202433 0.744572,-0.476976 1.068685,-0.773196 0.164773,-0.175942 0.307414,-0.36947 0.463545,-0.552437 0.162722,-0.211356 0.379315,-0.366761 0.581908,-0.537578 0.179756,-0.141849 0.369978,-0.270607 0.559334,-0.399867 0.262982,-0.217039 0.463849,-0.496599 0.67073,-0.763106 0.241673,-0.289301 0.463567,-0.591619 0.669295,-0.906063 0.142043,-0.233547 0.31132,-0.447761 0.468769,-0.670962 0.163505,-0.223167 0.327356,-0.448027 0.521453,-0.646889 0.311036,-0.292018 0.676065,-0.526031 1.041941,-0.746681 0.413793,-0.266861 0.869492,-0.459006 1.298096,-0.700053 0.368954,-0.211229 0.725214,-0.441913 1.049643,-0.714728 0.27551,-0.269939 0.450838,-0.614935 0.62726,-0.95033 0.172936,-0.359113 0.338906,-0.721962 0.471604,-1.097397 0.09012,-0.214395 0.08431,-0.414692 0.04822,-0.636406 -0.06916,-0.151441 -0.143543,-0.302797 -0.18715,-0.463492 -0.04012,-0.160014 -0.0447,-0.325314 -0.04909,-0.489172 -0.0022,-0.08201 -0.0013,-0.164038 -0.0028,-0.246051 0,0 1.604437,0.800123 1.604437,0.800123 v 0 c -0.0016,0.07948 -6.18e-4,0.159001 0.0018,0.238468 0.0069,0.150527 0.01838,0.301953 0.06996,0.445281 0.06326,0.160988 0.14042,0.319433 0.17129,0.490253 0.02834,0.245003 -0.0013,0.475893 -0.09613,0.70669 -0.144468,0.378437 -0.312438,0.747636 -0.492006,1.111272 -0.184108,0.357249 -0.366591,0.722898 -0.653542,1.014024 -0.332681,0.279367 -0.701672,0.511305 -1.072795,0.738455 -0.427387,0.243915 -0.887695,0.425719 -1.302119,0.692312 -0.353324,0.210815 -0.700765,0.441609 -1.00409,0.718004 -0.189075,0.189174 -0.345278,0.408461 -0.50373,0.622081 -0.152801,0.224716 -0.329532,0.432423 -0.469724,0.665922 -0.210694,0.316857 -0.439595,0.619817 -0.684748,0.912194 -0.216319,0.28104 -0.420952,0.576866 -0.684967,0.817803 -0.183663,0.128192 -0.371129,0.249743 -0.550693,0.383467 -0.193322,0.168261 -0.413875,0.304888 -0.567596,0.513693 -0.16033,0.189664 -0.308662,0.388652 -0.481574,0.568011 -0.33706,0.305025 -0.704577,0.58486 -1.102944,0.808727 -0.346082,0.18233 -0.720376,0.328326 -1.112506,0.37922 -0.747692,0.112657 -1.683567,-0.419444 -1.933625,-1.115845 -0.01587,-0.221814 0.04827,-0.429892 0.164978,-0.620657 0.1234,-0.234006 0.277288,-0.449562 0.413879,-0.676126 0.168531,-0.258063 0.339631,-0.515066 0.493648,-0.781657 0.07899,-0.156061 0.161435,-0.304373 0.285672,-0.430567 0.08939,-0.107902 0.164341,-0.227444 0.261826,-0.328377 0.07465,-0.08202 0.147029,-0.16722 0.183718,-0.271956 0.07857,-0.145512 0.150681,-0.297383 0.265201,-0.420192 0.167157,-0.143213 0.35517,-0.256143 0.543581,-0.370038 0.235585,-0.136289 0.45752,-0.288558 0.675311,-0.45137 0.303357,-0.203212 0.621585,-0.384157 0.926544,-0.585213 0.332259,-0.199234 0.654425,-0.410956 0.961698,-0.646064 0.349156,-0.283064 0.668266,-0.595594 1.014987,-0.881193 0.304838,-0.254672 0.587732,-0.529195 0.88616,-0.790748 0.233634,-0.199607 0.473522,-0.391451 0.684323,-0.615155 0.145316,-0.203037 0.298714,-0.400153 0.437157,-0.607793 0.08945,-0.157376 0.181936,-0.311758 0.271702,-0.469071 0.106092,-0.233753 0.224918,-0.461845 0.341905,-0.690694 0.163066,-0.292773 0.323267,-0.589742 0.541907,-0.847703 0.221006,-0.270729 0.461424,-0.526103 0.721067,-0.761811 0.2239,-0.175255 0.458297,-0.329099 0.721117,-0.443308 1.496014,0.775703 1.664879,0.317576 1.64231,1.192325 -0.01086,0.217328 -0.03609,0.433478 -0.02264,0.651751 2.62e-4,0.304243 3.03e-4,0.608485 9.13e-4,0.912726 -0.0031,0.226723 9.8e-4,0.460773 -0.104596,0.668906 -0.140587,0.22926 -0.34012,0.416919 -0.51729,0.618645 -0.232842,0.251555 -0.452009,0.517795 -0.710168,0.745041 -0.281677,0.241896 -0.564116,0.477518 -0.777158,0.784273 -0.237131,0.303756 -0.473221,0.608686 -0.670391,0.939466 -0.221167,0.325473 -0.434571,0.655928 -0.647716,0.986456 -0.180063,0.265027 -0.373605,0.516182 -0.596477,0.748929 -0.203288,0.223583 -0.349655,0.49137 -0.575894,0.696445 -0.247606,0.219391 -0.504543,0.427574 -0.763851,0.63354 -0.206313,0.195154 -0.423783,0.383636 -0.600382,0.605582 -0.127766,0.148582 -0.236655,0.312477 -0.356251,0.467612 -0.138405,0.163154 -0.250885,0.345209 -0.390066,0.507306 -0.179879,0.250007 -0.368622,0.495114 -0.5817,0.719203 -0.206628,0.225881 -0.399211,0.467525 -0.635335,0.664932 -0.167912,0.133901 -0.332646,0.246207 -0.556059,0.260165 -0.331414,0.04539 -0.67082,-0.0019 -1.004316,0.0084 -0.364375,-0.0082 -0.73536,-0.0084 -1.091591,-0.09129 -0.773878,-0.275069 -1.493597,-0.693311 -2.159755,-1.165343 -0.126463,-0.120792 -0.277118,-0.253833 -0.245531,-0.441919 0.04887,-0.110141 0.135753,-0.172116 0.224652,-0.251229 0.152052,-0.109491 0.315451,-0.198765 0.457873,-0.321528 0.1763,-0.09252 0.326732,-0.224964 0.515977,-0.29594 0.238609,-0.143865 0.498268,-0.257421 0.748154,-0.381329 0.253373,-0.145556 0.518487,-0.273714 0.755404,-0.445432 0.221445,-0.158204 0.470326,-0.281746 0.67261,-0.463884 0.246748,-0.200307 0.503742,-0.38863 0.746799,-0.592978 0.149848,-0.146253 0.312573,-0.283571 0.443375,-0.445694 0.131297,-0.214199 0.272979,-0.426588 0.364197,-0.660399 0.05104,-0.164885 0.0885,-0.331544 0.115247,-0.502093 0.05552,-0.198379 0.09198,-0.402437 0.131296,-0.604348 0.06131,-0.236089 0.169079,-0.449133 0.327495,-0.638608 0.212114,-0.221181 0.473939,-0.369495 0.738236,-0.524855 0.318752,-0.195091 0.643341,-0.379443 0.97731,-0.548694 0.526737,-0.25951 1.049918,-0.524809 1.570233,-0.796625 0.534136,-0.291488 1.070853,-0.576556 1.611028,-0.856569 0,0 1.494596,0.953871 1.494596,0.953871 z" />
  <path
     style="fill:#123354;stroke:#123354;stroke-width:1.49914"
     id="path926-6"
     d="m 44.78162,45.799881 c 0.243096,0.26805 0.505707,0.517988 0.756071,0.77893 0.191192,0.172721 0.40659,0.320431 0.592314,0.498038 0.18516,0.15133 0.387298,0.278119 0.578953,0.420916 0.231758,0.140322 0.467149,0.26965 0.68338,0.432882 0.230687,0.216166 0.482836,0.397931 0.745136,0.574543 0.271768,0.220918 0.583561,0.383349 0.866901,0.588086 0.308744,0.195748 0.612834,0.403016 0.867123,0.664561 0.204916,0.23192 0.429774,0.446005 0.58933,0.711389 0.128082,0.174546 0.235211,0.361966 0.351296,0.543803 0.103849,0.163864 0.188889,0.354971 0.324873,0.496743 0.09258,0.135636 0.185843,0.266768 0.282304,0.399163 0.119444,0.180823 0.30451,0.286049 0.482896,0.401797 -2.579236,-1.551497 -1.688647,-0.872734 -1.098657,-0.673414 0.180504,0.06097 0.3658,0.09419 0.553322,0.125776 0.245522,0.03682 0.506689,0.05827 0.731576,-0.06055 0.169358,-0.232507 0.181439,-0.564104 0.169233,-0.841063 -0.01425,-0.333605 -0.06797,-0.660812 -0.208943,-0.965959 -0.144574,-0.297995 -0.32207,-0.48976 -0.588712,-0.686581 -0.05785,-0.03735 -0.114837,-0.076 -0.173544,-0.112056 -0.06329,-0.03888 -0.128477,-0.07473 -0.192341,-0.112706 -0.963936,-0.573137 1.896712,1.063431 0.970074,0.545887 -0.05814,-0.03247 -0.116272,-0.06492 -0.174407,-0.09738 -0.919667,-0.425617 -1.778458,-0.93889 -2.660846,-1.441079 -0.40638,-0.296519 -0.819992,-0.581858 -1.250667,-0.843898 -0.138769,-0.08908 -0.402607,-0.259843 -0.543793,-0.344909 -0.08511,-0.05128 -0.344823,-0.197942 -0.258284,-0.149016 2.841138,1.606345 0.236699,0.188706 -0.707061,-0.420173 -0.373329,-0.235191 -0.721126,-0.497101 -1.052552,-0.785648 -0.334192,-0.318916 -0.580456,-0.709805 -0.828452,-1.093149 -0.142436,-0.226979 -0.266994,-0.45489 -0.218785,-0.725006 0.07799,-0.198905 0.264302,-0.25611 0.461025,-0.28807 0.221084,-0.03592 0.43787,-3.91e-4 0.654291,0.04319 0.831001,0.228356 1.679992,0.620033 2.25136,1.260226 0.23689,0.25587 0.432615,0.541421 0.641416,0.818394 0.214806,0.328526 0.479608,0.62071 0.752913,0.903014 0.213263,0.246256 0.482506,0.427862 0.747784,0.614577 0.310801,0.200934 0.587774,0.448143 0.893672,0.656313 0.257731,0.160848 0.467656,0.375908 0.692817,0.574905 0.249597,0.205084 0.498917,0.413494 0.758337,0.607143 0.29716,0.208444 0.553334,0.465684 0.840233,0.685855 0.214515,0.179866 0.430397,0.359306 0.639671,0.545876 0.256094,0.233433 0.502851,0.476451 0.75107,0.717826 0.207008,0.252282 0.438285,0.485751 0.639112,0.742629 0.06912,0.08003 0.139421,0.165522 0.23273,0.220546 0.01909,0.01132 0.0805,0.03733 0.06125,0.02632 -1.609892,-0.921287 -1.962341,-1.153298 -1.447854,-0.816453 0.228737,-0.03861 0.432628,-0.195711 0.626966,-0.316541 0.221142,-0.140485 0.386817,-0.337645 0.552475,-0.534233 0.189774,-0.217588 0.384063,-0.430815 0.563846,-0.65653 0.125795,-0.154304 0.290093,-0.266143 0.473848,-0.343645 0.262173,-0.08356 0.534153,-0.131262 0.806438,-0.170005 0.195424,-0.02149 0.396127,-0.01493 0.589519,0.02052 1.767796,0.292803 1.314901,0.637423 1.950433,1.261768 0.137798,0.167727 0.276728,0.338893 0.359325,0.540015 -0.0089,0.296041 -0.207275,0.558509 -0.395492,0.777956 -0.185911,0.206007 -0.397387,0.386718 -0.610837,0.564442 -0.175841,0.163681 -0.336375,0.342408 -0.503339,0.514675 -0.148816,0.184319 -0.321266,0.350308 -0.517666,0.485522 -0.229396,0.140886 -0.44695,0.298539 -0.669691,0.449165 -0.146105,0.112754 -0.281118,0.237279 -0.429679,0.347677 -0.143225,0.08616 -0.272909,0.188399 -0.399294,0.296474 -0.156516,0.164533 -0.30805,0.332952 -0.469821,0.493444 -0.162919,0.176816 -0.317256,0.361205 -0.486846,0.531968 -0.153709,0.153468 -0.297279,0.31654 -0.45332,0.467782 -0.19216,0.186763 -0.381865,0.375715 -0.570796,0.565586 -0.138663,0.180218 -0.291357,0.345605 -0.469181,0.488909 -0.230749,0.20059 -0.493023,0.358855 -0.742065,0.535026 -0.204369,0.121965 -0.357708,0.301409 -0.53832,0.451095 -0.112352,0.09525 -0.223763,0.191035 -0.34937,0.269152 -0.158312,0.09167 -0.301879,0.203882 -0.447012,0.313792 -0.147287,0.108889 -0.30728,0.20806 -0.496569,0.210103 -0.634125,-0.09486 -1.344157,-0.718997 -1.717378,-0.93014 -0.0777,-0.04397 -0.102594,-0.08097 -0.141754,-0.160367 -0.06462,-0.154775 -0.164146,-0.292809 -0.229687,-0.450008 -0.05224,-0.156258 -0.09102,-0.323873 -0.07076,-0.4885 0.03076,-0.147603 0.109795,-0.290058 0.200668,-0.411186 0.217095,-0.239631 0.483597,-0.431119 0.740716,-0.627401 0.257982,-0.194273 0.505714,-0.40093 0.758322,-0.6017 0.184333,-0.156374 0.359334,-0.322515 0.539135,-0.483792 0.211673,-0.172387 0.437605,-0.326901 0.665652,-0.477622 0.194229,-0.146461 0.402124,-0.273883 0.609966,-0.400773 0.210976,-0.120243 0.411162,-0.257871 0.612732,-0.39246 0.264693,-0.160806 0.50841,-0.350566 0.750583,-0.541637 0.229678,-0.178149 0.471798,-0.344906 0.718477,-0.500533 0.228361,-0.1413 0.46284,-0.276019 0.674318,-0.441245 0.165903,-0.129927 0.340014,-0.250833 0.520001,-0.361525 0.238551,-0.132833 0.459142,-0.290033 0.671552,-0.459242 0.122492,-0.09822 0.249102,-0.190751 0.369934,-0.290981 0,0 1.520884,0.933394 1.520884,0.933394 v 0 c -0.126175,0.09554 -0.253002,0.189595 -0.377375,0.287275 -0.219861,0.170402 -0.437534,0.343129 -0.679945,0.483132 -0.178705,0.09756 -0.341231,0.221193 -0.507447,0.336787 -0.211853,0.178123 -0.458011,0.310029 -0.688875,0.462409 -0.248017,0.139017 -0.480294,0.311337 -0.707124,0.479535 -0.243526,0.195409 -0.492282,0.386035 -0.759429,0.54967 -0.197541,0.142606 -0.397925,0.284937 -0.610811,0.403978 -0.205323,0.130891 -0.423159,0.242667 -0.614042,0.39435 -0.222605,0.14219 -0.434024,0.29923 -0.645437,0.456824 -0.181322,0.166077 -0.36482,0.329253 -0.549887,0.491112 -0.25465,0.200489 -0.505185,0.405512 -0.76208,0.603401 -0.24461,0.185105 -0.501665,0.362955 -0.705055,0.592549 -0.07146,0.09373 -0.136253,0.205081 -0.147196,0.323018 0.0071,0.14222 0.0413,0.281624 0.104922,0.410055 0.07524,0.141967 0.15624,0.283973 0.248921,0.414823 0.09368,0.06888 0.0069,0.0089 0.108831,0.06807 0.01956,0.01132 0.07704,0.04726 0.05729,0.03623 -3.231068,-1.807247 -1.805427,-1.1372 -1.39618,-0.765098 0.182091,0.07057 0.259698,0.01877 0.42018,-0.08789 0.153097,-0.111971 0.297175,-0.235692 0.455177,-0.340652 0.12819,-0.0534 0.230204,-0.155018 0.337213,-0.239649 0.191906,-0.140855 0.333998,-0.336724 0.546216,-0.453733 0.242112,-0.180334 0.512163,-0.322817 0.736561,-0.526939 0.171314,-0.141241 0.324193,-0.29685 0.456663,-0.474864 0.190007,-0.191459 0.386867,-0.376272 0.575193,-0.569374 0.159732,-0.146876 0.293573,-0.31764 0.447713,-0.469471 0.177338,-0.1614 0.329744,-0.348524 0.492221,-0.524009 0.161459,-0.164835 0.314204,-0.336536 0.468299,-0.507263 0.127174,-0.116595 0.259085,-0.228274 0.408952,-0.315437 0.157938,-0.100883 0.2907,-0.229527 0.435703,-0.346248 0.223836,-0.151816 0.45001,-0.299206 0.670149,-0.456392 0.197074,-0.109732 0.359999,-0.272927 0.500225,-0.445467 0.170837,-0.178359 0.334558,-0.36347 0.512331,-0.535229 0.211942,-0.164662 0.414382,-0.340782 0.597365,-0.536395 0.135525,-0.152644 0.360902,-0.386793 0.291957,-0.60261 -0.105851,-0.17774 -0.234622,-0.340727 -0.37536,-0.493381 -0.069,-0.08418 -0.133086,-0.173749 -0.218101,-0.243642 -0.02388,-0.01964 -0.102426,-0.06946 -0.07524,-0.05447 1.450107,0.799505 1.903955,1.190536 1.422385,0.781725 -0.182522,-0.05058 -0.367741,-0.07444 -0.558489,-0.07607 -0.263753,0.02874 -0.523841,0.07226 -0.779395,0.141879 -0.164172,0.04455 -0.308618,0.135058 -0.423401,0.259253 -0.183052,0.224553 -0.379231,0.437977 -0.568076,0.657842 -0.175234,0.210612 -0.34931,0.422792 -0.578668,0.580772 -0.216738,0.14351 -0.446478,0.272169 -0.673759,0.398637 -0.714528,0.272023 -1.488703,-0.603411 -1.949183,-1.14472 -0.208982,-0.244389 -0.418515,-0.489122 -0.641159,-0.721683 -0.249585,-0.241663 -0.499119,-0.483694 -0.761434,-0.712251 -0.211172,-0.181324 -0.421629,-0.363664 -0.638959,-0.537857 -0.275258,-0.232432 -0.547651,-0.468249 -0.839312,-0.681282 -0.256549,-0.203155 -0.516227,-0.403423 -0.759985,-0.621264 -0.221462,-0.198156 -0.44358,-0.394205 -0.695604,-0.555829 -0.295589,-0.221447 -0.585455,-0.450804 -0.893559,-0.655707 -0.267181,-0.191231 -0.518141,-0.399522 -0.734496,-0.646216 -0.267462,-0.288888 -0.514984,-0.593429 -0.736859,-0.91759 -0.207991,-0.276783 -0.417336,-0.553773 -0.664659,-0.798858 -0.472039,-0.393857 -1.331103,-0.778075 1.196275,0.625763 0.05516,0.03063 -0.353985,-0.199634 -0.376,-0.148674 -0.193676,-0.06913 -0.403895,-0.107577 -0.610047,-0.09572 -0.09963,0.0055 -0.28278,-0.01144 -0.333597,0.08912 -0.0099,0.2255 0.150742,0.420851 0.255324,0.609367 0.243425,0.376283 0.499645,0.750435 0.845494,1.045441 0.333961,0.278346 0.690072,0.525785 1.057171,0.760737 0.074,0.04575 0.2983,0.179164 0.221975,0.137239 -0.426609,-0.234304 -1.695358,-0.956238 -1.273081,-0.714538 0.855955,0.489924 1.731916,0.945484 2.554811,1.487882 0.428061,0.271202 0.840311,0.563254 1.260858,0.844839 -2.633733,-1.473986 -1.032816,-0.548125 -0.376933,-0.279449 0.881066,0.485288 1.785682,0.940471 2.604917,1.521632 0.247817,0.217093 0.433999,0.463741 0.557186,0.768741 0.118009,0.329701 0.171368,0.674316 0.179373,1.023589 -0.0072,0.343106 -0.03969,0.712347 -0.250738,0.998406 -0.239154,0.170827 -0.525118,0.199171 -0.815099,0.158635 -1.04396,-0.14244 -1.506188,-0.47705 -2.546018,-1.138873 -0.183098,-0.126694 -0.342455,-0.274858 -0.462807,-0.46192 -0.09294,-0.132359 -0.188117,-0.263268 -0.284685,-0.393254 -0.10635,-0.169786 -0.215881,-0.337613 -0.315241,-0.511461 -0.111231,-0.1822 -0.230533,-0.359699 -0.349061,-0.537413 C 48.64548,49.524176 48.432506,49.307758 48.222119,49.092044 47.95075,48.854179 47.651171,48.652568 47.348713,48.454578 47.055795,48.261851 46.75824,48.076658 46.477842,47.866209 46.216652,47.686849 45.983424,47.476907 45.730651,47.287 45.505885,47.137011 45.265232,47.011414 45.046507,46.852459 44.848827,46.71448 44.65197,46.57479 44.472094,46.414597 44.27207,46.251988 44.07219,46.087722 43.889148,45.906786 c -0.258493,-0.25777 -0.509478,-0.52339 -0.751985,-0.795509 0,0 1.644454,0.688585 1.644454,0.688585 z" />
  <path
     style="fill:#123354;stroke:#123354;stroke-width:1.49914"
     id="path928-7"
     d="m 49.603066,52.671886 c -0.162489,-0.319393 -0.366423,-0.616893 -0.578907,-0.90634 -0.101863,-0.205434 -0.277765,-0.353324 -0.416323,-0.530594 -0.125552,-0.126427 -0.237693,-0.256101 -0.379263,-0.365716 -0.185668,-0.101798 -0.339732,-0.249345 -0.529552,-0.341915 0.468632,0.266086 0.938971,0.52932 1.405899,0.798262 0.04893,0.02819 -0.101123,-0.05058 -0.151695,-0.07586 -0.05425,-0.02713 -0.110012,-0.05154 -0.162787,-0.08133 -0.537533,-0.303398 -1.341737,-0.687948 -1.918327,-1.124557 -0.171816,-0.105566 -0.290321,-0.26983 -0.446799,-0.392354 -0.207763,-0.206169 -0.459712,-0.355043 -0.689869,-0.532783 -0.240535,-0.181282 -0.48127,-0.363584 -0.710807,-0.558779 -0.220802,-0.18614 -0.451097,-0.360236 -0.667848,-0.551499 -0.196164,-0.141597 -0.38165,-0.307445 -0.507581,-0.512717 -0.104778,-0.220179 -0.233368,-0.429489 -0.29693,-0.665637 -0.05958,-0.306359 0.131676,-0.58531 0.290541,-0.833106 0.303187,-0.432456 0.716993,-0.767936 1.137202,-1.085739 0.404627,-0.295001 0.845084,-0.538809 1.321158,-0.702592 0.298585,-0.09343 0.60889,-0.13322 0.9207,-0.148809 0.213013,-0.0011 0.421139,0.05172 0.631418,0.07978 0.690641,0.09841 1.860451,0.941384 2.09148,1.072363 0.24134,0.231326 0.448579,0.493121 0.61118,0.782624 0.147165,0.228251 0.23947,0.481562 0.345482,0.728453 0.06718,0.205745 0.148725,0.406326 0.216306,0.612053 0.09317,0.350795 0.217496,0.691753 0.307066,1.044368 0.07401,0.391294 0.171774,0.778173 0.239979,1.170624 0.02243,0.239216 0.06049,0.474642 0.09854,0.711691 0.04506,0.169002 0.109205,0.331147 0.189662,0.486936 0,0 -1.628801,-0.727611 -1.628801,-0.727611 v 0 c -0.07287,-0.171797 -0.141603,-0.345876 -0.170712,-0.53084 -0.03857,-0.234755 -0.05879,-0.470897 -0.09251,-0.706271 -0.06886,-0.385993 -0.152045,-0.769919 -0.23723,-1.152622 -0.09911,-0.349595 -0.22385,-0.6908 -0.326087,-1.039426 -0.07418,-0.20136 -0.14621,-0.403473 -0.222351,-0.604068 -0.09641,-0.243059 -0.211132,-0.478633 -0.34995,-0.701575 -0.17454,-0.267753 -0.377275,-0.529652 -0.650326,-0.707675 2.621109,1.470599 1.635685,0.860838 1.017155,0.608492 -0.208501,-0.01901 -0.414611,-0.05226 -0.618012,-0.101545 -0.304101,0.0028 -0.608486,0.02278 -0.903743,0.100004 -0.469766,0.136556 -0.897986,0.367459 -1.293115,0.650415 -0.407077,0.300563 -0.81121,0.615626 -1.096684,1.036112 -0.13404,0.213432 -0.29569,0.447967 -0.20655,0.70661 0.08202,0.215105 0.190999,0.42197 0.318592,0.614428 0.153953,0.176788 0.333917,0.328181 0.518428,0.47375 0.220875,0.185846 0.451909,0.359536 0.669929,0.548683 0.233289,0.188359 0.470852,0.372074 0.713411,0.548835 0.241898,0.169136 0.470936,0.352182 0.689884,0.549253 0.139633,0.136481 0.286154,0.265678 0.450076,0.374167 0.0814,0.05418 0.33209,0.20675 0.246296,0.159496 -0.46142,-0.254136 -0.920423,-0.512452 -1.379473,-0.770663 -0.100484,-0.05652 0.209034,0.09839 0.31001,0.154046 0.55469,0.305792 1.105469,0.618328 1.658202,0.927493 0.175234,0.122216 0.357738,0.236064 0.522589,0.371545 0.131343,0.121163 0.242924,0.261977 0.365731,0.391298 0.154323,0.166618 0.280616,0.352488 0.404092,0.541914 0.205219,0.298758 0.397802,0.605102 0.575778,0.920271 0,0 -1.63456,-0.711322 -1.63456,-0.711322 z" />
  <path
     style="fill:none;stroke:#123354;stroke-width:1.49914px;stroke-linecap:butt;stroke-linejoin:miter;stroke-opacity:1"
     d="m 50.891105,59.389205 0.346516,-6.005987"
     id="path900" />
  <path
     style="fill:none;stroke:#123354;stroke-width:1.49914px;stroke-linecap:butt;stroke-linejoin:miter;stroke-opacity:1"
     d="M 48.607836,51.234952 46.872111,50.043829"
     id="path902" />
  <path
     style="fill:none;stroke:#123354;stroke-width:1.49914px;stroke-linecap:butt;stroke-linejoin:miter;stroke-opacity:1"
     d="m 49.603061,52.671897 1.780471,2.17236"
     id="path904" />
  <ellipse
     style="fill:#676767;stroke-width:0.929205"
     cx="49.020847"
     cy="49.005283"
     id="circle12"
     rx="14.890004"
     ry="14.844596" />
  <path
     d="m 43.791653,39.348364 h 4.955383 v 0.09558 q -1.077258,0 -1.544069,1.62476 -0.0359,0.179202 -0.107726,0.525659 V 56.50393 q 0.07182,1.158836 0.933623,1.95927 0.421926,0.191148 0.646354,0.191148 h 0.07182 v 0.143361 h -4.955384 v -0.143361 h 0.07182 q 1.095212,0 1.50816,-1.768122 V 41.498783 q 0,-1.409718 -1.220891,-1.95927 -0.08977,-0.04778 -0.359086,-0.09558 z"
     style="font-size:21.2092px;line-height:1.25;font-family:'Antique Quest St';-inkscape-font-specification:'Antique Quest St';fill:#e6e6e6;stroke-width:0.53023"
     id="path68" />
  <path
     d="m 50.057699,39.348364 h 4.955383 v 0.09558 q -1.077257,0 -1.544069,1.62476 -0.0359,0.179202 -0.107725,0.525659 V 56.50393 q 0.07182,1.158836 0.933622,1.95927 0.421926,0.191148 0.646355,0.191148 h 0.07182 v 0.143361 h -4.955384 v -0.143361 h 0.07182 q 1.095212,0 1.50816,-1.768122 V 41.498783 q 0,-1.409718 -1.220891,-1.95927 -0.08977,-0.04778 -0.359085,-0.09558 z"
     style="font-size:21.2092px;line-height:1.25;font-family:'Antique Quest St';-inkscape-font-specification:'Antique Quest St';fill:#e6e6e6;stroke-width:0.53023"
     id="path70" />
</svg>
