<?xml version="1.0" encoding="UTF-8" standalone="no"?>
<svg
   xmlns:dc="http://purl.org/dc/elements/1.1/"
   xmlns:cc="http://creativecommons.org/ns#"
   xmlns:rdf="http://www.w3.org/1999/02/22-rdf-syntax-ns#"
   xmlns:svg="http://www.w3.org/2000/svg"
   xmlns="http://www.w3.org/2000/svg"
   xmlns:sodipodi="http://sodipodi.sourceforge.net/DTD/sodipodi-0.dtd"
   xmlns:inkscape="http://www.inkscape.org/namespaces/inkscape"
   width="64"
   height="64"
   version="1.1"
   id="svg73"
   sodipodi:docname="steam_icon_268500.svg"
   inkscape:version="1.0.2 (e86c870879, 2021-01-15)">
  <metadata
     id="metadata77">
    <rdf:RDF>
      <cc:Work
         rdf:about="">
        <dc:format>image/svg+xml</dc:format>
        <dc:type
           rdf:resource="http://purl.org/dc/dcmitype/StillImage" />
        <dc:title></dc:title>
      </cc:Work>
    </rdf:RDF>
  </metadata>
  <sodipodi:namedview
     pagecolor="#ffffff"
     bordercolor="#666666"
     borderopacity="1"
     objecttolerance="10"
     gridtolerance="10"
     guidetolerance="10"
     inkscape:pageopacity="0"
     inkscape:pageshadow="2"
     inkscape:window-width="1920"
     inkscape:window-height="996"
     id="namedview75"
     showgrid="false"
     inkscape:zoom="12.578125"
     inkscape:cx="32"
     inkscape:cy="44.720496"
     inkscape:window-x="0"
     inkscape:window-y="0"
     inkscape:window-maximized="1"
     inkscape:current-layer="svg73"
     inkscape:document-rotation="0" />
  <defs
     id="defs29">
    <linearGradient
       id="b"
       x1="399.57"
       x2="399.57"
       y1="545.8"
       y2="517.8"
       gradientTransform="matrix(2.1429,0,0,2.1429,-826.36,-1107.5)"
       gradientUnits="userSpaceOnUse">
      <stop
         stop-color="#3889e9"
         offset="0"
         id="stop2" />
      <stop
         stop-color="#5ea5fb"
         offset="1"
         id="stop4" />
    </linearGradient>
    <linearGradient
       id="linearGradient862"
       x1="7.9373"
       x2="7.9373"
       y1="15.081"
       y2="1.852"
       gradientTransform="matrix(3.3743 0 0 3.3743 3.4312 3.4278)"
       gradientUnits="userSpaceOnUse">
      <stop
         stop-color="#f1efeb"
         offset="0"
         id="stop7" />
      <stop
         stop-color="#fff"
         offset="1"
         id="stop9" />
    </linearGradient>
    <linearGradient
       id="linearGradient910"
       x1="7.9373"
       x2="7.9373"
       y1="15.081"
       y2="1.852"
       gradientTransform="scale(3.7796)"
       gradientUnits="userSpaceOnUse">
      <stop
         stop-color="#613583"
         offset="0"
         id="stop12" />
      <stop
         stop-color="#a663c0"
         offset="1"
         id="stop14" />
    </linearGradient>
    <linearGradient
       id="linearGradient932"
       x1="379.24"
       x2="374.24"
       y1="546.85"
       y2="546.85"
       gradientTransform="matrix(2.1429 0 0 2.1429 -769.68 -1134.5)"
       gradientUnits="userSpaceOnUse">
      <stop
         stop-color="#f6f5f4"
         offset="0"
         id="stop17" />
      <stop
         stop-color="#fff"
         offset=".6"
         id="stop19" />
      <stop
         stop-color="#dddbd8"
         offset="1"
         id="stop21" />
    </linearGradient>
    <linearGradient
       id="linearGradient1146"
       x1="18"
       x2="18"
       y1="52"
       y2="12"
       gradientUnits="userSpaceOnUse">
      <stop
         stop-color="#5e337f"
         offset="0"
         id="stop24" />
      <stop
         stop-color="#ab60bf"
         offset="1"
         id="stop26" />
    </linearGradient>
  </defs>
  <circle
     cx="32.02"
     cy="32.044"
     r="30.001"
     fill-opacity="0"
     stroke-width="1.5715"
     id="circle39" />
  <circle
     cx="32.02"
     cy="32.044"
     r="0"
     fill="url(#b)"
     stroke-width="1.5715"
     id="circle41" />
  <path
     d="M 8.8244294,10.658453 A 3.1802157,3.2046042 0 0 0 6.7355526,16.278467 L 23.065651,30.622644 3.5556531,47.762225 a 3.1802157,3.2046042 0 0 0 2.0888793,5.620013 h 8.4797286 a 3.1802157,3.2046042 0 0 0 2.088876,-0.788554 L 32.14368,38.599976 48.074221,52.593684 a 3.1802157,3.2046042 0 0 0 2.08888,0.788554 h 8.479726 a 3.1802157,3.2046042 0 0 0 2.088879,-5.620013 L 41.221709,30.622644 57.551808,16.278467 a 3.1802157,3.2046042 0 0 0 -2.088879,-5.620014 h -8.479727 a 3.1802157,3.2046042 0 0 0 -2.088878,0.788553 L 32.14368,22.647397 19.393035,11.447006 a 3.1802157,3.2046042 0 0 0 -2.088877,-0.788553 z"
     style="fill:#676767;stroke-width:1.06402"
     id="path4" />
  <path
     d="m 16.244191,35.22463 c 0,3.204283 9.539694,13.885228 15.899489,13.885228 5.299829,0 15.899488,-10.680945 15.899488,-13.885228 0,-12.817136 -7.419762,-20.293798 -15.899488,-20.293798 -8.479727,0 -15.899489,6.408567 -15.899489,20.293798 z"
     style="fill:#29292a;stroke-width:1.06402"
     id="path10" />
  <path
     d="m 18.364123,29.884156 c 0,0 3.179897,6.408568 6.359796,6.408568 h 3.179898 c 0,0 -1.059967,-6.408568 -5.299829,-6.408568 z m 23.319251,0 c -4.239865,0 -5.29983,6.408568 -5.29983,6.408568 h 3.179897 c 3.179898,0 6.359796,-6.408568 6.359796,-6.408568 z"
     style="opacity:0.85;fill:#ffffff;stroke-width:1.06402"
     id="path14" />
  <ellipse
     style="fill:#676767;stroke-width:0.929205"
     cx="48.869884"
     cy="48.834587"
     id="circle12"
     rx="14.890004"
     ry="14.844596" />
  <path
     d="m 44.028048,39.23449 h 4.955383 v 0.09558 q -1.077258,0 -1.544069,1.62476 -0.0359,0.179202 -0.107726,0.525659 v 14.909567 q 0.07182,1.158836 0.933623,1.95927 0.421926,0.191148 0.646354,0.191148 h 0.07182 v 0.143361 H 44.028048 V 58.54047 h 0.07182 q 1.095211,0 1.508159,-1.768123 V 41.384909 q 0,-1.409719 -1.220891,-1.959271 -0.08977,-0.04778 -0.359086,-0.09558 z"
     style="font-size:21.2092px;line-height:1.25;font-family:'Antique Quest St';-inkscape-font-specification:'Antique Quest St';opacity:0.85;fill:#ffffff;stroke-width:0.53023"
     id="path68" />
  <path
     d="m 50.294094,39.23449 h 4.955383 v 0.09558 q -1.077258,0 -1.544069,1.62476 -0.0359,0.179202 -0.107725,0.525659 v 14.909567 q 0.07182,1.158836 0.933622,1.95927 0.421926,0.191148 0.646354,0.191148 h 0.07182 v 0.143361 H 50.294094 V 58.54047 h 0.07182 q 1.095211,0 1.508159,-1.768123 V 41.384909 q 0,-1.409719 -1.220891,-1.959271 -0.08977,-0.04778 -0.359085,-0.09558 z"
     style="font-size:21.2092px;line-height:1.25;font-family:'Antique Quest St';-inkscape-font-specification:'Antique Quest St';opacity:0.85;fill:#ffffff;stroke-width:0.53023"
     id="path70-3" />
</svg>
