<?xml version="1.0" encoding="UTF-8" standalone="no"?>
<svg
   xmlns:dc="http://purl.org/dc/elements/1.1/"
   xmlns:cc="http://creativecommons.org/ns#"
   xmlns:rdf="http://www.w3.org/1999/02/22-rdf-syntax-ns#"
   xmlns:svg="http://www.w3.org/2000/svg"
   xmlns="http://www.w3.org/2000/svg"
   xmlns:sodipodi="http://sodipodi.sourceforge.net/DTD/sodipodi-0.dtd"
   xmlns:inkscape="http://www.inkscape.org/namespaces/inkscape"
   width="64"
   height="64"
   version="1.1"
   id="svg73"
   sodipodi:docname="steam_icon_1147560.svg"
   inkscape:version="1.0.2 (e86c870879, 2021-01-15)">
  <metadata
     id="metadata77">
    <rdf:RDF>
      <cc:Work
         rdf:about="">
        <dc:format>image/svg+xml</dc:format>
        <dc:type
           rdf:resource="http://purl.org/dc/dcmitype/StillImage" />
        <dc:title></dc:title>
      </cc:Work>
    </rdf:RDF>
  </metadata>
  <sodipodi:namedview
     pagecolor="#ffffff"
     bordercolor="#666666"
     borderopacity="1"
     objecttolerance="10"
     gridtolerance="10"
     guidetolerance="10"
     inkscape:pageopacity="0"
     inkscape:pageshadow="2"
     inkscape:window-width="1920"
     inkscape:window-height="996"
     id="namedview75"
     showgrid="false"
     inkscape:zoom="12.578125"
     inkscape:cx="32"
     inkscape:cy="35.180124"
     inkscape:window-x="0"
     inkscape:window-y="0"
     inkscape:window-maximized="1"
     inkscape:current-layer="svg73"
     inkscape:document-rotation="0" />
  <defs
     id="defs29">
    <linearGradient
       id="b"
       x1="399.57"
       x2="399.57"
       y1="545.8"
       y2="517.8"
       gradientTransform="matrix(2.1429,0,0,2.1429,-826.36,-1107.5)"
       gradientUnits="userSpaceOnUse">
      <stop
         stop-color="#3889e9"
         offset="0"
         id="stop2" />
      <stop
         stop-color="#5ea5fb"
         offset="1"
         id="stop4" />
    </linearGradient>
    <linearGradient
       id="linearGradient862"
       x1="7.9373"
       x2="7.9373"
       y1="15.081"
       y2="1.852"
       gradientTransform="matrix(3.3743 0 0 3.3743 3.4312 3.4278)"
       gradientUnits="userSpaceOnUse">
      <stop
         stop-color="#f1efeb"
         offset="0"
         id="stop7" />
      <stop
         stop-color="#fff"
         offset="1"
         id="stop9" />
    </linearGradient>
    <linearGradient
       id="linearGradient910"
       x1="7.9373"
       x2="7.9373"
       y1="15.081"
       y2="1.852"
       gradientTransform="scale(3.7796)"
       gradientUnits="userSpaceOnUse">
      <stop
         stop-color="#613583"
         offset="0"
         id="stop12" />
      <stop
         stop-color="#a663c0"
         offset="1"
         id="stop14" />
    </linearGradient>
    <linearGradient
       id="linearGradient932"
       x1="379.24"
       x2="374.24"
       y1="546.85"
       y2="546.85"
       gradientTransform="matrix(2.1429 0 0 2.1429 -769.68 -1134.5)"
       gradientUnits="userSpaceOnUse">
      <stop
         stop-color="#f6f5f4"
         offset="0"
         id="stop17" />
      <stop
         stop-color="#fff"
         offset=".6"
         id="stop19" />
      <stop
         stop-color="#dddbd8"
         offset="1"
         id="stop21" />
    </linearGradient>
    <linearGradient
       id="linearGradient1146"
       x1="18"
       x2="18"
       y1="52"
       y2="12"
       gradientUnits="userSpaceOnUse">
      <stop
         stop-color="#5e337f"
         offset="0"
         id="stop24" />
      <stop
         stop-color="#ab60bf"
         offset="1"
         id="stop26" />
    </linearGradient>
  </defs>
  <circle
     cx="32.02"
     cy="32.044"
     r="30.001"
     fill-opacity="0"
     stroke-width="1.5715"
     id="circle39" />
  <circle
     cx="32.02"
     cy="32.044"
     r="0"
     fill="url(#b)"
     stroke-width="1.5715"
     id="circle41" />
  <g
     id="g4"
     transform="matrix(0.22612194,0,0,0.17702781,1.9811286,8.0076363)"
     style="fill:#29292a">
    <path
       style="fill:#29292a"
       d="M 262.577,119.935 C 257.857,89.719 243.916,64.781 220.769,45.181 196.435,24.168 166.786,13.652 131.825,13.652 96.854,13.652 67.207,24.048 42.885,44.818 19.727,64.678 5.91,89.719 1.427,119.935 0.477,124.901 0,129.625 0,134.122 c 0,19.844 6.494,37.197 19.498,52.087 12.986,14.881 31.297,25.761 54.931,32.591 v 5.338 c 0,6.606 2.239,12.162 6.727,16.644 4.483,4.493 10.037,6.978 16.653,7.446 6.851,0.479 11.923,-0.707 15.233,-3.541 5.193,3.771 10.984,5.66 17.367,5.66 5.905,0 11.344,-1.764 16.297,-5.307 3.312,2.59 8.149,3.667 14.534,3.188 6.609,-0.707 12.167,-3.248 16.652,-7.614 4.486,-4.392 6.728,-9.869 6.728,-16.476 v -3.895 c 25.51,-6.623 45.239,-17.721 59.185,-33.33 C 257.268,172.04 264,154.446 264,134.122 c 0,-4.497 -0.477,-9.221 -1.423,-14.187 z m -161.225,34.203 c -7.09,8.16 -15.601,12.223 -25.514,12.223 -9.92,0 -18.426,-4.062 -25.513,-12.223 -7.086,-8.149 -10.633,-18.02 -10.633,-29.596 0,-11.567 3.547,-21.435 10.633,-29.568 7.087,-8.147 15.593,-12.222 25.513,-12.222 9.913,0 18.424,4.075 25.514,12.222 7.09,8.133 10.641,18.001 10.641,29.568 -10e-4,11.576 -3.551,21.445 -10.641,29.596 z m 30.823,46.952 c -5.907,0 -10.277,-1.521 -13.106,-4.548 -1.657,-1.889 -2.477,-4.214 -2.477,-7.025 0,-4.428 1.709,-8.865 5.135,-13.315 3.423,-4.427 6.784,-6.647 10.098,-6.647 3.308,0 6.428,2.448 9.386,7.375 2.952,4.901 4.441,9.562 4.441,14.012 0,6.776 -4.498,10.148 -13.477,10.148 z m 78.139,-46.952 c -6.971,8.16 -15.531,12.223 -25.695,12.223 -9.916,0 -18.359,-4.062 -25.328,-12.223 -6.977,-8.149 -10.463,-18.02 -10.463,-29.596 0,-11.567 3.486,-21.435 10.463,-29.568 6.969,-8.147 15.412,-12.222 25.328,-12.222 10.164,0 18.727,4.075 25.695,12.222 6.963,8.133 10.455,18.001 10.455,29.568 0.001,11.576 -3.492,21.445 -10.455,29.596 z"
       id="path2" />
  </g>
</svg>
