<?xml version="1.0" encoding="UTF-8" standalone="no"?>
<svg
   xmlns:dc="http://purl.org/dc/elements/1.1/"
   xmlns:cc="http://creativecommons.org/ns#"
   xmlns:rdf="http://www.w3.org/1999/02/22-rdf-syntax-ns#"
   xmlns:svg="http://www.w3.org/2000/svg"
   xmlns="http://www.w3.org/2000/svg"
   xmlns:sodipodi="http://sodipodi.sourceforge.net/DTD/sodipodi-0.dtd"
   xmlns:inkscape="http://www.inkscape.org/namespaces/inkscape"
   width="64"
   height="64"
   version="1.1"
   id="svg73"
   sodipodi:docname="steam_icon_257350.svg"
   inkscape:version="1.0.2 (e86c870879, 2021-01-15)">
  <ellipse
     style="fill:#676767;stroke-width:0.929205"
     cx="48.720409"
     cy="48.839317"
     id="circle12"
     rx="14.890004"
     ry="14.844596" />
  <metadata
     id="metadata77">
    <rdf:RDF>
      <cc:Work
         rdf:about="">
        <dc:format>image/svg+xml</dc:format>
        <dc:type
           rdf:resource="http://purl.org/dc/dcmitype/StillImage" />
        <dc:title></dc:title>
      </cc:Work>
    </rdf:RDF>
  </metadata>
  <sodipodi:namedview
     pagecolor="#ffffff"
     bordercolor="#666666"
     borderopacity="1"
     objecttolerance="10"
     gridtolerance="10"
     guidetolerance="10"
     inkscape:pageopacity="0"
     inkscape:pageshadow="2"
     inkscape:window-width="1717"
     inkscape:window-height="798"
     id="namedview75"
     showgrid="false"
     inkscape:zoom="12.578125"
     inkscape:cx="32"
     inkscape:cy="53.586305"
     inkscape:window-x="143"
     inkscape:window-y="102"
     inkscape:window-maximized="0"
     inkscape:current-layer="svg73"
     inkscape:document-rotation="0" />
  <defs
     id="defs29">
    <linearGradient
       id="b"
       x1="399.57"
       x2="399.57"
       y1="545.8"
       y2="517.8"
       gradientTransform="matrix(2.1429,0,0,2.1429,-826.36,-1107.5)"
       gradientUnits="userSpaceOnUse">
      <stop
         stop-color="#3889e9"
         offset="0"
         id="stop2" />
      <stop
         stop-color="#5ea5fb"
         offset="1"
         id="stop4" />
    </linearGradient>
    <linearGradient
       id="linearGradient862"
       x1="7.9373"
       x2="7.9373"
       y1="15.081"
       y2="1.852"
       gradientTransform="matrix(3.3743 0 0 3.3743 3.4312 3.4278)"
       gradientUnits="userSpaceOnUse">
      <stop
         stop-color="#f1efeb"
         offset="0"
         id="stop7" />
      <stop
         stop-color="#fff"
         offset="1"
         id="stop9" />
    </linearGradient>
    <linearGradient
       id="linearGradient910"
       x1="7.9373"
       x2="7.9373"
       y1="15.081"
       y2="1.852"
       gradientTransform="scale(3.7796)"
       gradientUnits="userSpaceOnUse">
      <stop
         stop-color="#613583"
         offset="0"
         id="stop12" />
      <stop
         stop-color="#a663c0"
         offset="1"
         id="stop14" />
    </linearGradient>
    <linearGradient
       id="linearGradient932"
       x1="379.24"
       x2="374.24"
       y1="546.85"
       y2="546.85"
       gradientTransform="matrix(2.1429 0 0 2.1429 -769.68 -1134.5)"
       gradientUnits="userSpaceOnUse">
      <stop
         stop-color="#f6f5f4"
         offset="0"
         id="stop17" />
      <stop
         stop-color="#fff"
         offset=".6"
         id="stop19" />
      <stop
         stop-color="#dddbd8"
         offset="1"
         id="stop21" />
    </linearGradient>
    <linearGradient
       id="linearGradient1146"
       x1="18"
       x2="18"
       y1="52"
       y2="12"
       gradientUnits="userSpaceOnUse">
      <stop
         stop-color="#5e337f"
         offset="0"
         id="stop24" />
      <stop
         stop-color="#ab60bf"
         offset="1"
         id="stop26" />
    </linearGradient>
  </defs>
  <circle
     cx="32.02"
     cy="32.044"
     r="30.001"
     fill-opacity="0"
     stroke-width="1.5715"
     id="circle39" />
  <circle
     cx="32.02"
     cy="32.044"
     r="0"
     fill="url(#b)"
     stroke-width="1.5715"
     id="circle41" />
  <g
     aria-label="B"
     id="text32"
     style="font-style:normal;font-variant:normal;font-weight:normal;font-stretch:normal;font-size:40px;line-height:1.25;font-family:'Endor Alt';-inkscape-font-specification:'Endor Alt';fill:#29292a"
     transform="matrix(1.7289288,0,0,1.6689494,-24.3027,-14.536247)">
    <path
       d="m 30.735058,30.761845 -0.01927,0.385356 q -0.0578,1.078999 -0.789981,2.620424 -2.215799,4.643546 -9.017341,4.951831 0.732177,0.674374 1.695569,0.828516 -1.368016,-0.154142 -2.524085,-0.809248 -1.464355,0 -3.603083,-0.231214 -0.134875,-0.01927 -0.115607,-0.01927 l 0.115607,0.01927 h 0.963391 q 1.445087,0 2.100193,-0.115607 -1.233141,-0.88632 -1.753372,-2.292871 -1.040462,0.558767 -2.292871,0.558767 1.926782,-0.26975 1.926782,-2.986513 V 17.717529 q 0,-2.485549 1.483623,-3.969171 l -2.312139,-1.849711 q 0.115607,0.07707 0.539499,0.250481 0.905588,0.366089 2.639692,0.366089 0.88632,0 1.984585,-0.231214 2.562621,-0.539499 5.394991,-2.2928709 3.391137,4.2196529 3.391137,7.5722539 0,0.71291 -0.192679,1.348748 -0.847784,2.83237 -4.33526,4.277457 2.755299,1.522158 3.872833,3.757225 0.847784,1.695569 0.847784,3.294798 z M 28.750472,18.06435 q 0,-2.273603 -2.543353,-5.125241 l -0.01927,-0.03854 q -0.346821,-0.404624 -0.500964,-0.61657 l -0.481695,-0.44316 q -1.579962,0.809249 -3.949904,1.271676 -0.597302,0.44316 -0.944123,1.098266 -0.867052,1.657033 -0.867052,3.506744 v 3.930636 q 3.429672,0.154142 5.703275,1.136801 3.603083,-1.888246 3.603083,-4.720616 z m -0.0578,11.560693 q 0,-3.526011 -3.930636,-5.973025 -2.196532,0.732178 -4.065511,0.809249 l -0.366088,0.0578 Q 22.60404,23.979568 24.10693,23.305195 22.411361,22.399607 19.444117,22.129857 V 34.40346 q 0,2.369943 1.078998,3.853565 1.098266,-0.154143 1.772639,-0.346821 6.396918,-1.753372 6.396918,-8.285164 z"
       id="path38"
       style="fill:#29292a" />
  </g>
  <g
     aria-label="G"
     id="text36"
     style="font-size:26.6667px;line-height:1.25;font-family:'Antique Quest St';-inkscape-font-specification:'Antique Quest St';fill:#29292a"
     transform="matrix(1.4697553,0,0,1.4078332,-9.4399073,-31.32013)">
    <path
       d="m 37.851836,24.373989 h 3.333338 q 3.046879,0 4.427089,1.927086 0,0.130208 0.104167,0.625 -0.09115,0.937502 -0.677085,0.937502 H 44.518511 L 44.362261,27.75941 H 43.11226 q -0.05208,0 -0.416668,0.104167 h -0.416667 l -0.260417,-0.05208 v -0.364584 h 0.572918 q 0.286458,0 0.416667,-0.3125 v -0.208334 q 0,-1.132814 -2.656254,-2.083336 -0.651042,-0.104166 -0.885417,-0.104166 -2.408858,0 -5.989591,3.22917 0,0.06511 -0.625001,0.729168 -1.406252,1.445314 -2.031253,4.635422 -0.15625,0.963543 -0.15625,1.718753 0,3.138024 1.770836,5.885424 3.802088,4.427089 7.343759,4.427089 1.119793,0 2.812504,-1.302085 0.208333,-0.29948 0.520834,-0.572918 v -6.354174 q 0,-0.273438 -1.822919,-0.468751 -0.833335,0 -1.822919,0.572917 0,0.416668 -0.05208,1.875003 l -0.104167,0.05208 h -0.208333 q -0.45573,0 -0.520834,-0.677084 v -0.260417 q 0,-0.494792 0.677084,-1.197918 v -0.260417 q -0.625001,0 -0.625001,-0.729168 v -0.15625 q 0,-0.742188 0.885418,-1.354168 0.885418,-0.468751 1.875002,-0.468751 2.330732,0 4.166672,2.083336 h 0.05208 v 7.083342 q 0,1.666669 1.770835,2.29167 0.208334,0.05208 0.416667,0.05208 h 0.104167 v 0.15625 q -1.718752,0 -3.750004,-0.05208 -2.304691,0.05208 -4.114589,0.05208 -0.03906,0 -0.3125,-0.05208 -0.01302,0.03906 -1.406252,0.104167 -3.593755,0 -6.093758,-2.187503 -2.695316,-1.979169 -3.645838,-4.843756 -0.572917,-2.031253 -0.572917,-3.489588 v -0.260417 q 0,-3.0599 1.510418,-5.67709 1.966149,-2.630212 4.479173,-4.010422 1.705731,-0.937501 3.854171,-0.937501 z"
       id="path41"
       style="fill:#29292a" />
  </g>
  <path
     d="m 43.878571,39.239225 h 4.955383 v 0.09558 q -1.077258,0 -1.544069,1.62476 -0.0359,0.179202 -0.107726,0.525659 v 14.909567 q 0.07182,1.158836 0.933623,1.95927 0.421926,0.191148 0.646354,0.191148 h 0.07182 v 0.143361 h -4.955385 v -0.143365 h 0.07182 q 1.095212,0 1.50816,-1.768123 V 41.389644 q 0,-1.409719 -1.220891,-1.959271 -0.08977,-0.04778 -0.359086,-0.09558 z"
     style="font-size:21.2092px;line-height:1.25;font-family:'Antique Quest St';-inkscape-font-specification:'Antique Quest St';fill:#ffffff;stroke-width:0.53023;opacity:0.85"
     id="path68" />
  <path
     d="M 50.144617,39.239225 H 55.1 v 0.09558 q -1.077258,0 -1.544069,1.62476 -0.0359,0.179202 -0.107725,0.525659 v 14.909567 q 0.07182,1.158836 0.933622,1.95927 0.421926,0.191148 0.646354,0.191148 h 0.07182 v 0.143361 h -4.955385 v -0.143365 h 0.07182 q 1.095212,0 1.50816,-1.768123 V 41.389644 q 0,-1.409719 -1.220891,-1.959271 -0.08977,-0.04778 -0.359085,-0.09558 z"
     style="font-size:21.2092px;line-height:1.25;font-family:'Antique Quest St';-inkscape-font-specification:'Antique Quest St';fill:#ffffff;stroke-width:0.53023;opacity:0.85"
     id="path70-3" />
</svg>
