<?xml version="1.0" encoding="UTF-8" standalone="no"?>
<svg
   width="64"
   height="64"
   version="1.1"
   id="svg73"
   sodipodi:docname="steam_icon_596970.svg"
   inkscape:version="1.1 (c68e22c387, 2021-05-23)"
   xmlns:inkscape="http://www.inkscape.org/namespaces/inkscape"
   xmlns:sodipodi="http://sodipodi.sourceforge.net/DTD/sodipodi-0.dtd"
   xmlns="http://www.w3.org/2000/svg"
   xmlns:svg="http://www.w3.org/2000/svg"
   xmlns:rdf="http://www.w3.org/1999/02/22-rdf-syntax-ns#"
   xmlns:cc="http://creativecommons.org/ns#"
   xmlns:dc="http://purl.org/dc/elements/1.1/">
  <metadata
     id="metadata77">
    <rdf:RDF>
      <cc:Work
         rdf:about="">
        <dc:format>image/svg+xml</dc:format>
        <dc:type
           rdf:resource="http://purl.org/dc/dcmitype/StillImage" />
      </cc:Work>
    </rdf:RDF>
  </metadata>
  <sodipodi:namedview
     pagecolor="#ffffff"
     bordercolor="#666666"
     borderopacity="1"
     objecttolerance="10"
     gridtolerance="10"
     guidetolerance="10"
     inkscape:pageopacity="0"
     inkscape:pageshadow="2"
     inkscape:window-width="1920"
     inkscape:window-height="996"
     id="namedview75"
     showgrid="false"
     inkscape:zoom="6.2890625"
     inkscape:cx="32.039752"
     inkscape:cy="35.219876"
     inkscape:window-x="0"
     inkscape:window-y="0"
     inkscape:window-maximized="1"
     inkscape:current-layer="svg73"
     inkscape:document-rotation="0"
     inkscape:pagecheckerboard="0" />
  <defs
     id="defs29">
    <linearGradient
       id="b"
       x1="399.57"
       x2="399.57"
       y1="545.8"
       y2="517.8"
       gradientTransform="matrix(2.1429,0,0,2.1429,-826.36,-1107.5)"
       gradientUnits="userSpaceOnUse">
      <stop
         stop-color="#3889e9"
         offset="0"
         id="stop2" />
      <stop
         stop-color="#5ea5fb"
         offset="1"
         id="stop4" />
    </linearGradient>
    <linearGradient
       id="linearGradient862"
       x1="7.9373"
       x2="7.9373"
       y1="15.081"
       y2="1.852"
       gradientTransform="matrix(3.3743 0 0 3.3743 3.4312 3.4278)"
       gradientUnits="userSpaceOnUse">
      <stop
         stop-color="#f1efeb"
         offset="0"
         id="stop7" />
      <stop
         stop-color="#fff"
         offset="1"
         id="stop9" />
    </linearGradient>
    <linearGradient
       id="linearGradient910"
       x1="7.9373"
       x2="7.9373"
       y1="15.081"
       y2="1.852"
       gradientTransform="scale(3.7796)"
       gradientUnits="userSpaceOnUse">
      <stop
         stop-color="#613583"
         offset="0"
         id="stop12" />
      <stop
         stop-color="#a663c0"
         offset="1"
         id="stop14" />
    </linearGradient>
    <linearGradient
       id="linearGradient932"
       x1="379.24"
       x2="374.24"
       y1="546.85"
       y2="546.85"
       gradientTransform="matrix(2.1429 0 0 2.1429 -769.68 -1134.5)"
       gradientUnits="userSpaceOnUse">
      <stop
         stop-color="#f6f5f4"
         offset="0"
         id="stop17" />
      <stop
         stop-color="#fff"
         offset=".6"
         id="stop19" />
      <stop
         stop-color="#dddbd8"
         offset="1"
         id="stop21" />
    </linearGradient>
    <linearGradient
       id="linearGradient1146"
       x1="18"
       x2="18"
       y1="52"
       y2="12"
       gradientUnits="userSpaceOnUse">
      <stop
         stop-color="#5e337f"
         offset="0"
         id="stop24" />
      <stop
         stop-color="#ab60bf"
         offset="1"
         id="stop26" />
    </linearGradient>
  </defs>
  <circle
     cx="32.02"
     cy="32.044"
     r="30.001"
     fill-opacity="0"
     stroke-width="1.5715"
     id="circle39" />
  <circle
     cx="32.02"
     cy="32.044"
     r="0"
     fill="url(#b)"
     stroke-width="1.5715"
     id="circle41" />
  <g
     id="g6"
     style="fill:#29292a"
     transform="matrix(0.21472962,0,0,0.21295686,1.2919976,2.7996421)">
    <path
       d="m 287.985,215.049 -9.848,-24.938 c -1.365,-3.458 -4.706,-5.73 -8.424,-5.73 h -33.89 c 4.387,0 8.465,-2.258 10.794,-5.976 16.747,-26.736 16.747,-60.691 0,-87.428 C 244.288,87.258 240.21,85 235.822,85 H 224.475 V 53.66 h 5.851 c 3.616,0 6.548,-2.932 6.548,-6.548 V 39.94 c 0,-3.616 -2.932,-6.548 -6.548,-6.548 h -48.184 c -3.616,0 -6.548,2.932 -6.548,6.548 v 7.172 c 0,3.616 2.932,6.548 6.548,6.548 h 5.851 V 85.002 H 149.124 V 29.45 c 0,-5.003 -4.055,-9.058 -9.057,-9.058 H 9.057 C 4.055,20.392 0,24.447 0,29.45 v 13.875 c 0,5.002 4.055,9.057 9.057,9.057 h 10.101 v 132 H 9.057 C 4.055,184.382 0,188.437 0,193.439 v 24.938 c 0,5.003 4.055,9.058 9.057,9.058 h 19.682 v -0.001 c 0,-30.765 25.028,-55.793 55.793,-55.793 30.765,0 55.794,25.028 55.794,55.793 v 0.001 h 26.992 c 5.183,-17.839 21.663,-30.919 41.151,-30.919 19.488,0 35.969,13.08 41.152,30.919 h 29.939 c 2.999,0 5.803,-1.483 7.489,-3.963 1.687,-2.481 2.037,-5.634 0.936,-8.423 z M 116.777,136.744 c 0,4.705 -3.814,8.52 -8.52,8.52 H 57.782 c -4.705,0 -8.52,-3.814 -8.52,-8.52 V 94.139 c 0,-18.645 15.113,-33.758 33.757,-33.758 18.645,0 33.758,15.113 33.758,33.758 z"
       id="path2"
       style="fill:#29292a" />
    <path
       d="m 208.469,210.514 c -15.34,0 -27.877,11.971 -28.796,27.079 -5.911,0 -49.787,0 -55.624,0 0.833,-3.248 1.276,-6.653 1.276,-10.161 0,-22.529 -18.264,-40.793 -40.794,-40.793 -22.529,0 -40.793,18.264 -40.793,40.793 0,22.53 18.264,40.794 40.793,40.794 13.033,0 24.63,-6.119 32.098,-15.633 23.751,0 41.245,0 66.195,0 4.796,9.283 14.476,15.633 25.645,15.633 15.938,0 28.856,-12.919 28.856,-28.856 0,-15.937 -12.919,-28.856 -28.856,-28.856 z"
       id="path4"
       style="fill:#29292a" />
  </g>
</svg>
