<?xml version="1.0" encoding="UTF-8" standalone="no"?>
<svg
   xmlns:dc="http://purl.org/dc/elements/1.1/"
   xmlns:cc="http://creativecommons.org/ns#"
   xmlns:rdf="http://www.w3.org/1999/02/22-rdf-syntax-ns#"
   xmlns:svg="http://www.w3.org/2000/svg"
   xmlns="http://www.w3.org/2000/svg"
   xmlns:sodipodi="http://sodipodi.sourceforge.net/DTD/sodipodi-0.dtd"
   xmlns:inkscape="http://www.inkscape.org/namespaces/inkscape"
   width="64"
   height="64"
   version="1.1"
   id="svg73"
   sodipodi:docname="system-software-update.svg"
   inkscape:version="1.0.2 (e86c870879, 2021-01-15)">
  <metadata
     id="metadata77">
    <rdf:RDF>
      <cc:Work
         rdf:about="">
        <dc:format>image/svg+xml</dc:format>
        <dc:type
           rdf:resource="http://purl.org/dc/dcmitype/StillImage" />
        <dc:title />
      </cc:Work>
    </rdf:RDF>
  </metadata>
  <sodipodi:namedview
     pagecolor="#ffffff"
     bordercolor="#666666"
     borderopacity="1"
     objecttolerance="10"
     gridtolerance="10"
     guidetolerance="10"
     inkscape:pageopacity="0"
     inkscape:pageshadow="2"
     inkscape:window-width="1920"
     inkscape:window-height="996"
     id="namedview75"
     showgrid="false"
     inkscape:zoom="12.578125"
     inkscape:cx="32"
     inkscape:cy="25.639752"
     inkscape:window-x="0"
     inkscape:window-y="0"
     inkscape:window-maximized="1"
     inkscape:current-layer="svg73"
     inkscape:document-rotation="0" />
  <defs
     id="defs29">
    <linearGradient
       id="b"
       x1="399.57"
       x2="399.57"
       y1="545.8"
       y2="517.8"
       gradientTransform="matrix(2.1429,0,0,2.1429,-826.36,-1107.5)"
       gradientUnits="userSpaceOnUse">
      <stop
         stop-color="#3889e9"
         offset="0"
         id="stop2" />
      <stop
         stop-color="#5ea5fb"
         offset="1"
         id="stop4" />
    </linearGradient>
    <linearGradient
       id="linearGradient862"
       x1="7.9373"
       x2="7.9373"
       y1="15.081"
       y2="1.852"
       gradientTransform="matrix(3.3743 0 0 3.3743 3.4312 3.4278)"
       gradientUnits="userSpaceOnUse">
      <stop
         stop-color="#f1efeb"
         offset="0"
         id="stop7" />
      <stop
         stop-color="#fff"
         offset="1"
         id="stop9" />
    </linearGradient>
    <linearGradient
       id="linearGradient910"
       x1="7.9373"
       x2="7.9373"
       y1="15.081"
       y2="1.852"
       gradientTransform="scale(3.7796)"
       gradientUnits="userSpaceOnUse">
      <stop
         stop-color="#613583"
         offset="0"
         id="stop12" />
      <stop
         stop-color="#a663c0"
         offset="1"
         id="stop14" />
    </linearGradient>
    <linearGradient
       id="linearGradient932"
       x1="379.24"
       x2="374.24"
       y1="546.85"
       y2="546.85"
       gradientTransform="matrix(2.1429 0 0 2.1429 -769.68 -1134.5)"
       gradientUnits="userSpaceOnUse">
      <stop
         stop-color="#f6f5f4"
         offset="0"
         id="stop17" />
      <stop
         stop-color="#fff"
         offset=".6"
         id="stop19" />
      <stop
         stop-color="#dddbd8"
         offset="1"
         id="stop21" />
    </linearGradient>
    <linearGradient
       id="linearGradient1146"
       x1="18"
       x2="18"
       y1="52"
       y2="12"
       gradientUnits="userSpaceOnUse">
      <stop
         stop-color="#5e337f"
         offset="0"
         id="stop24" />
      <stop
         stop-color="#ab60bf"
         offset="1"
         id="stop26" />
    </linearGradient>
  </defs>
  <circle
     cx="32.02"
     cy="32.044"
     r="30.001"
     fill-opacity="0"
     stroke-width="1.5715"
     id="circle39" />
  <circle
     cx="32.02"
     cy="32.044"
     r="0"
     fill="url(#b)"
     stroke-width="1.5715"
     id="circle41" />
  <path
     style="fill:#29292a;fill-rule:evenodd;stroke-width:1.14623"
     d="m 33.301261,7.3235582 c -0.974946,-0.00667 -1.95071,0.048088 -2.917728,0.1674592 -3.868068,0.4775194 -7.63044,1.9558419 -10.938245,4.3958436 -6.002886,4.428028 -9.7870846,11.513764 -10.4426229,19.248674 h -0.965392 a 3.5846244,2.9776309 0 0 0 -3.1030487,4.465617 l 2.0686988,2.977078 2.0730087,2.977078 a 3.5846244,2.9776309 0 0 0 6.2060971,0 l 2.07301,-2.977078 2.068699,-2.977078 a 3.5846244,2.9776309 0 0 0 -3.103049,-4.465617 h -0.689566 c 0.625932,-5.375909 3.347413,-10.249743 7.550751,-13.350337 4.816563,-3.552937 10.937433,-4.306145 16.372892,-2.018833 A 3.3102496,3.5728515 0 1 0 41.95963,9.1098051 C 39.160003,7.9316852 36.226102,7.3435279 33.301261,7.3235582 Z"
     id="path14" />
  <path
     style="fill:#29292a;fill-rule:evenodd;stroke-width:1.14623"
     d="m 30.775696,57.329173 c 0.974949,0.0067 1.950713,-0.04809 2.91773,-0.167455 3.868067,-0.477515 7.63044,-1.95584 10.938245,-4.395842 6.002887,-4.428035 9.787083,-11.51377 10.442621,-19.248678 h 0.965394 a 3.5846244,2.9776309 0 0 0 3.103048,-4.465618 l -2.068698,-2.977079 -2.073009,-2.977077 a 3.5846244,2.9776309 0 0 0 -6.206099,0 l -2.073007,2.977077 -2.0687,2.977079 a 3.5846244,2.9776309 0 0 0 3.10305,4.465618 h 0.689566 c -0.625933,5.375908 -3.347413,10.249742 -7.550752,13.350336 -4.816563,3.552936 -10.937433,4.306144 -16.372892,2.018832 a 3.3102496,3.5728515 0 1 0 -2.404863,6.65656 c 2.799625,1.178121 5.733527,1.766277 8.658366,1.786247 z"
     id="path20" />
</svg>
