<?xml version="1.0" encoding="UTF-8" standalone="no"?>
<svg
   xmlns:dc="http://purl.org/dc/elements/1.1/"
   xmlns:cc="http://creativecommons.org/ns#"
   xmlns:rdf="http://www.w3.org/1999/02/22-rdf-syntax-ns#"
   xmlns:svg="http://www.w3.org/2000/svg"
   xmlns="http://www.w3.org/2000/svg"
   xmlns:sodipodi="http://sodipodi.sourceforge.net/DTD/sodipodi-0.dtd"
   xmlns:inkscape="http://www.inkscape.org/namespaces/inkscape"
   width="64"
   height="64"
   version="1.1"
   id="svg73"
   sodipodi:docname="teamspeak3.svg"
   inkscape:version="1.0.2 (e86c870879, 2021-01-15)">
  <metadata
     id="metadata77">
    <rdf:RDF>
      <cc:Work
         rdf:about="">
        <dc:format>image/svg+xml</dc:format>
        <dc:type
           rdf:resource="http://purl.org/dc/dcmitype/StillImage" />
        <dc:title />
      </cc:Work>
    </rdf:RDF>
  </metadata>
  <sodipodi:namedview
     pagecolor="#ffffff"
     bordercolor="#666666"
     borderopacity="1"
     objecttolerance="10"
     gridtolerance="10"
     guidetolerance="10"
     inkscape:pageopacity="0"
     inkscape:pageshadow="2"
     inkscape:window-width="1920"
     inkscape:window-height="996"
     id="namedview75"
     showgrid="false"
     inkscape:zoom="12.578125"
     inkscape:cx="15.900621"
     inkscape:cy="32"
     inkscape:window-x="0"
     inkscape:window-y="0"
     inkscape:window-maximized="1"
     inkscape:current-layer="svg73"
     inkscape:document-rotation="0" />
  <defs
     id="defs29">
    <linearGradient
       id="b"
       x1="399.57"
       x2="399.57"
       y1="545.8"
       y2="517.8"
       gradientTransform="matrix(2.1429,0,0,2.1429,-826.36,-1107.5)"
       gradientUnits="userSpaceOnUse">
      <stop
         stop-color="#3889e9"
         offset="0"
         id="stop2" />
      <stop
         stop-color="#5ea5fb"
         offset="1"
         id="stop4" />
    </linearGradient>
    <linearGradient
       id="linearGradient862"
       x1="7.9373"
       x2="7.9373"
       y1="15.081"
       y2="1.852"
       gradientTransform="matrix(3.3743 0 0 3.3743 3.4312 3.4278)"
       gradientUnits="userSpaceOnUse">
      <stop
         stop-color="#f1efeb"
         offset="0"
         id="stop7" />
      <stop
         stop-color="#fff"
         offset="1"
         id="stop9" />
    </linearGradient>
    <linearGradient
       id="linearGradient910"
       x1="7.9373"
       x2="7.9373"
       y1="15.081"
       y2="1.852"
       gradientTransform="scale(3.7796)"
       gradientUnits="userSpaceOnUse">
      <stop
         stop-color="#613583"
         offset="0"
         id="stop12" />
      <stop
         stop-color="#a663c0"
         offset="1"
         id="stop14" />
    </linearGradient>
    <linearGradient
       id="linearGradient932"
       x1="379.24"
       x2="374.24"
       y1="546.85"
       y2="546.85"
       gradientTransform="matrix(2.1429 0 0 2.1429 -769.68 -1134.5)"
       gradientUnits="userSpaceOnUse">
      <stop
         stop-color="#f6f5f4"
         offset="0"
         id="stop17" />
      <stop
         stop-color="#fff"
         offset=".6"
         id="stop19" />
      <stop
         stop-color="#dddbd8"
         offset="1"
         id="stop21" />
    </linearGradient>
    <linearGradient
       id="linearGradient1146"
       x1="18"
       x2="18"
       y1="52"
       y2="12"
       gradientUnits="userSpaceOnUse">
      <stop
         stop-color="#5e337f"
         offset="0"
         id="stop24" />
      <stop
         stop-color="#ab60bf"
         offset="1"
         id="stop26" />
    </linearGradient>
  </defs>
  <circle
     cx="32.02"
     cy="32.044"
     r="30.001"
     fill-opacity="0"
     stroke-width="1.5715"
     id="circle39" />
  <circle
     cx="32.02"
     cy="32.044"
     r="0"
     fill="url(#b)"
     stroke-width="1.5715"
     id="circle41" />
  <path
     style="fill:#29292a;stroke-width:1.43844"
     class="st0"
     d="m 2.9559942,34.893524 c 0.095975,-0.968832 -0.095975,-2.090639 0.095975,-3.263431 0.2879339,-1.886671 1.2957002,-3.365414 2.8793342,-4.181272 0.38391,-0.203975 0.5758655,-0.407929 0.6718427,-0.968832 0.6718461,-4.079287 2.255479,-7.85263 4.5589469,-11.218043 0.287932,-0.407929 0.479889,-0.611894 0.09596,-1.172795 -0.383912,-0.611895 -0.09596,-1.27478 0.287933,-1.78469 3.263245,-3.8753229 7.102357,-6.7308254 11.661301,-8.3115511 10.941468,-3.67135752 20.539248,-1.1727944 28.841329,7.4447021 0.767819,0.815859 1.775588,1.580724 0.767819,2.957485 -0.191964,0.203974 0.09596,0.407928 0.287936,0.611894 2.351456,3.467395 3.935091,7.34272 4.654922,11.523989 0.09596,0.40793 0.383911,0.611895 0.671846,0.815861 1.967543,1.070811 2.975312,2.855501 2.975312,5.252082 0,2.090634 0.191964,4.18127 -0.09596,6.271904 -0.479889,3.059467 -2.940562,5.150102 -5.723917,4.487219 -0.767823,-0.203975 -1.103746,-0.815858 -1.103746,-1.682708 0,-3.467395 0.09596,-6.934788 0,-10.402186 C 54.1949,21.941782 49.937128,14.905009 42.306894,10.417789 29.733801,3.0750709 12.999108,11.38662 10.263741,26.581972 c -0.479887,2.600547 -0.3839086,5.354067 -0.3839086,7.954612 0,2.498565 0,4.946138 -0.095963,7.444702 0,0.815856 -0.4798905,1.37676 -1.3916796,1.37676 -3.5991666,0.203974 -5.5321551,-2.192619 -5.5321551,-6.06794 0.095975,-0.611895 0.095975,-1.376764 0.095975,-2.396582"
     id="path9" />
  <path
     style="fill:#29292a;stroke-width:1.43844"
     class="st0"
     d="m 28.332379,47.668296 c 1.225509,-0.474557 2.133294,-1.376215 2.405631,-2.847341 0.272333,-1.471126 -1.316286,-3.511718 -3.449584,-5.647225 -2.224071,-2.230416 -5.128984,-4.603201 -6.717605,-5.457402 -2.314853,-1.471123 -4.493535,-0.189813 -4.947426,2.657518 -0.54467,3.132074 0,6.074326 1.588624,8.684387 1.13473,1.850771 2.723352,2.657517 4.67509,2.847339 1.089338,-0.04745 5.492096,0.189834 6.44527,-0.237276"
     id="path11" />
  <path
     style="fill:#29292a;stroke-width:1.43844"
     class="st0"
     d="m 38.744591,47.318906 c 1.387087,0.199904 2.684687,0.499732 4.071775,0.599677 1.834534,0.09994 3.221622,-0.49973 4.25075,-1.749062 1.297599,-1.549171 1.924025,-3.498125 1.834537,-5.547027 -0.0895,-2.148848 -1.655555,-3.39818 -3.75856,-2.998393 -1.924025,0.29984 -3.579581,1.24933 -5.324628,1.948954 -1.566067,0.699627 -2.953155,1.549172 -4.071774,2.648583 -1.566066,1.649117 -0.715914,3.897909 1.745046,4.747454 0.313214,0.149918 0.760661,0.249867 1.252854,0.349814"
     id="path13" />
  <path
     style="fill:#29292a;stroke-width:1.43844"
     class="st0"
     d="m 54.569178,45.102914 c -0.292396,-0.288931 -0.77972,-0.09631 -1.023384,0.288931 -0.925918,2.889308 -5.214387,12.568483 -19.83416,13.579738 -17.251332,1.203878 9.210457,4.863666 16.764008,-0.674171 2.582829,-1.97436 5.506781,-3.94872 5.409315,-9.631019 0,-1.107569 -0.536056,-2.98562 -1.315779,-3.563479"
     id="path15" />
</svg>
