<?xml version="1.0" encoding="UTF-8" standalone="no"?>
<svg
   xmlns:dc="http://purl.org/dc/elements/1.1/"
   xmlns:cc="http://creativecommons.org/ns#"
   xmlns:rdf="http://www.w3.org/1999/02/22-rdf-syntax-ns#"
   xmlns:svg="http://www.w3.org/2000/svg"
   xmlns="http://www.w3.org/2000/svg"
   xmlns:xlink="http://www.w3.org/1999/xlink"
   xmlns:sodipodi="http://sodipodi.sourceforge.net/DTD/sodipodi-0.dtd"
   xmlns:inkscape="http://www.inkscape.org/namespaces/inkscape"
   width="64"
   height="64"
   version="1.1"
   id="svg73"
   sodipodi:docname="virtualbox.svg"
   inkscape:version="1.0.2 (e86c870879, 2021-01-15)">
  <metadata
     id="metadata77">
    <rdf:RDF>
      <cc:Work
         rdf:about="">
        <dc:format>image/svg+xml</dc:format>
        <dc:type
           rdf:resource="http://purl.org/dc/dcmitype/StillImage" />
        <dc:title></dc:title>
      </cc:Work>
    </rdf:RDF>
  </metadata>
  <sodipodi:namedview
     pagecolor="#ffffff"
     bordercolor="#666666"
     borderopacity="1"
     objecttolerance="10"
     gridtolerance="10"
     guidetolerance="10"
     inkscape:pageopacity="0"
     inkscape:pageshadow="2"
     inkscape:window-width="1920"
     inkscape:window-height="996"
     id="namedview75"
     showgrid="false"
     inkscape:zoom="12.578125"
     inkscape:cx="15.900621"
     inkscape:cy="28.819876"
     inkscape:window-x="0"
     inkscape:window-y="0"
     inkscape:window-maximized="1"
     inkscape:current-layer="g44"
     inkscape:document-rotation="0" />
  <defs
     id="defs29">
    <linearGradient
       id="b"
       x1="399.57"
       x2="399.57"
       y1="545.8"
       y2="517.8"
       gradientTransform="matrix(2.1429,0,0,2.1429,-826.36,-1107.5)"
       gradientUnits="userSpaceOnUse">
      <stop
         stop-color="#3889e9"
         offset="0"
         id="stop2" />
      <stop
         stop-color="#5ea5fb"
         offset="1"
         id="stop4" />
    </linearGradient>
    <linearGradient
       id="linearGradient862"
       x1="7.9373"
       x2="7.9373"
       y1="15.081"
       y2="1.852"
       gradientTransform="matrix(3.3743 0 0 3.3743 3.4312 3.4278)"
       gradientUnits="userSpaceOnUse">
      <stop
         stop-color="#f1efeb"
         offset="0"
         id="stop7" />
      <stop
         stop-color="#fff"
         offset="1"
         id="stop9" />
    </linearGradient>
    <linearGradient
       id="linearGradient910"
       x1="7.9373"
       x2="7.9373"
       y1="15.081"
       y2="1.852"
       gradientTransform="scale(3.7796)"
       gradientUnits="userSpaceOnUse">
      <stop
         stop-color="#613583"
         offset="0"
         id="stop12" />
      <stop
         stop-color="#a663c0"
         offset="1"
         id="stop14" />
    </linearGradient>
    <linearGradient
       id="linearGradient932"
       x1="379.24"
       x2="374.24"
       y1="546.85"
       y2="546.85"
       gradientTransform="matrix(2.1429 0 0 2.1429 -769.68 -1134.5)"
       gradientUnits="userSpaceOnUse">
      <stop
         stop-color="#f6f5f4"
         offset="0"
         id="stop17" />
      <stop
         stop-color="#fff"
         offset=".6"
         id="stop19" />
      <stop
         stop-color="#dddbd8"
         offset="1"
         id="stop21" />
    </linearGradient>
    <linearGradient
       id="linearGradient1146"
       x1="18"
       x2="18"
       y1="52"
       y2="12"
       gradientUnits="userSpaceOnUse">
      <stop
         stop-color="#5e337f"
         offset="0"
         id="stop24" />
      <stop
         stop-color="#ab60bf"
         offset="1"
         id="stop26" />
    </linearGradient>
    <linearGradient
       id="i"
       x1="98.123001"
       x2="510.56"
       y1="1517.5"
       y2="828.58002"
       gradientTransform="matrix(0.035272,0,0,0.033878,29.106,-3.7792)"
       gradientUnits="userSpaceOnUse"
       xlink:href="#c" />
    <linearGradient
       id="c"
       x1="98.123001"
       x2="510.56"
       y1="1517.5"
       y2="828.58002"
       gradientTransform="matrix(0.04938,0,0,0.047429,27.948,-18.091)"
       gradientUnits="userSpaceOnUse">
      <stop
         stop-color="#7ccbea"
         offset="0"
         id="stop2-3" />
      <stop
         stop-color="#00b9ff"
         offset="1"
         id="stop4-6" />
    </linearGradient>
    <linearGradient
       id="g"
       x1="22"
       x2="43"
       y1="49"
       y2="16"
       gradientUnits="userSpaceOnUse">
      <stop
         stop-color="#00b2ed"
         offset="0"
         id="stop9-7" />
      <stop
         stop-color="#009bdb"
         offset="1"
         id="stop11" />
    </linearGradient>
    <filter
       id="j"
       x="-0.064162999"
       y="-0.056343999"
       width="1.1283"
       height="1.1127"
       color-interpolation-filters="sRGB">
      <feGaussianBlur
         stdDeviation="0.96245117"
         id="feGaussianBlur18" />
    </filter>
    <linearGradient
       id="b-5"
       x1="25.360001"
       x2="422.28"
       y1="1469.4"
       y2="819.97998"
       gradientTransform="matrix(0.035272,0,0,0.033878,29.106,-3.7792)"
       gradientUnits="userSpaceOnUse"
       xlink:href="#c" />
    <linearGradient
       id="h"
       x1="23"
       x2="40"
       y1="46"
       y2="19"
       gradientUnits="userSpaceOnUse"
       xlink:href="#c" />
    <filter
       id="k"
       x="-0.064000003"
       y="-0.056471001"
       width="1.128"
       height="1.1129"
       color-interpolation-filters="sRGB">
      <feGaussianBlur
         stdDeviation="0.8"
         id="feGaussianBlur15" />
    </filter>
  </defs>
  <circle
     cx="32.02"
     cy="32.044"
     r="30.001"
     fill-opacity="0"
     stroke-width="1.5715"
     id="circle39" />
  <circle
     cx="32.02"
     cy="32.044"
     r="0"
     fill="url(#b)"
     stroke-width="1.5715"
     id="circle41" />
  <g
     fill-rule="evenodd"
     id="g44"
     transform="matrix(0.72260175,0,0,0.7189979,8.7358881,9.2511594)">
    <path
       d="M 32,11.502 30.457,12.42778 14,22.30078 v 19.398 l 18,10.799 18,-10.799 v -19.398 z m 0,6.9961 12,7.2012 v 12.602 L 32,45.5025 20,38.3013 v -12.602 z"
       color="#000000"
       color-rendering="auto"
       dominant-baseline="auto"
       enable-background="accumulate"
       filter="url(#j)"
       image-rendering="auto"
       opacity="0.15"
       shape-rendering="auto"
       solid-color="#000000"
       style="font-variant-ligatures:normal;font-variant-position:normal;font-variant-caps:normal;font-variant-numeric:normal;font-variant-alternates:normal;font-feature-settings:normal;text-indent:0;text-decoration:none;text-decoration-line:none;text-decoration-style:solid;text-decoration-color:#000000;text-transform:none;text-orientation:mixed;white-space:normal;shape-padding:0;isolation:auto;mix-blend-mode:normal"
       id="path36"
       transform="matrix(1.5890079,0,0,1.7179625,-18.265823,-23.519574)" />
    <path
       d="M 32.582428,2.249864 8.7473099,17.711527 V 45.198928 L 32.582428,60.660591 56.417545,45.198928 V 17.711527 Z"
       fill="url(#i)"
       stroke="url(#g)"
       stroke-width="19.8268"
       id="path34"
       style="fill:#29292a;stroke:#29292a" />
    <g
       transform="matrix(0.46518236,-0.00884923,-0.12541922,0.49537181,11.299214,0.1916309)"
       fill="#ffffff"
       fill-opacity="0.80102"
       id="g48"
       style="fill:#ffffff">
      <path
         d="m 88.947,67.734 c 0,1.544 -1.252,2.802 -2.801,2.802 H 68.989 c -1.401,0 -2.583,-1.028 -2.763,-2.419 L 63.193,46.348 57.07,102.361 c -0.147,1.319 -1.216,2.375 -2.561,2.474 -0.079,0.005 -0.145,0.013 -0.229,0.013 -1.251,0 -2.354,-0.822 -2.685,-2.043 l -9.126,-32.46 -8.988,17.078 c -0.539,1.028 -1.667,1.653 -2.813,1.479 -1.159,-0.139 -2.101,-0.976 -2.388,-2.101 L 23.905,69.311 H 2.803 C 1.262,69.312 0,68.052 0,66.51 0,64.961 1.262,63.708 2.803,63.708 h 23.285 c 1.284,0 2.412,0.875 2.72,2.123 l 3.124,12.487 8.843,-16.789 c 0.528,-1.023 1.631,-1.638 2.764,-1.488 1.137,0.121 2.089,0.925 2.412,2.024 l 7.117,25.319 7.018,-64.09 c 0.149,-1.401 1.321,-2.465 2.743,-2.487 1.576,0.134 2.617,1.026 2.813,2.426 l 5.79,41.699 h 14.719 c 1.544,0.001 2.796,1.26 2.796,2.802 z m 14.824,-2.801 h -8.862 c -1.54,0 -2.802,1.26 -2.802,2.802 0,1.544 1.262,2.802 2.802,2.802 h 8.862 c 1.537,0 2.802,-1.258 2.802,-2.802 0,-1.543 -1.265,-2.802 -2.802,-2.802 z m 19.083,0 h -9.431 c -1.537,0 -2.802,1.26 -2.802,2.802 0,1.544 1.265,2.802 2.802,2.802 h 9.431 c 1.536,0 2.802,-1.258 2.802,-2.802 0,-1.543 -1.266,-2.802 -2.802,-2.802 z"
         fill="#ffffff"
         fill-opacity="0.80102"
         id="path46"
         style="fill:#ffffff" />
    </g>
  </g>
</svg>
