<?xml version="1.0" encoding="UTF-8" standalone="no"?>
<svg
   xmlns:dc="http://purl.org/dc/elements/1.1/"
   xmlns:cc="http://creativecommons.org/ns#"
   xmlns:rdf="http://www.w3.org/1999/02/22-rdf-syntax-ns#"
   xmlns:svg="http://www.w3.org/2000/svg"
   xmlns="http://www.w3.org/2000/svg"
   xmlns:sodipodi="http://sodipodi.sourceforge.net/DTD/sodipodi-0.dtd"
   xmlns:inkscape="http://www.inkscape.org/namespaces/inkscape"
   width="64"
   height="64"
   version="1.1"
   id="svg73"
   sodipodi:docname="vlc.svg"
   inkscape:version="1.0.2 (e86c870879, 2021-01-15)">
  <metadata
     id="metadata77">
    <rdf:RDF>
      <cc:Work
         rdf:about="">
        <dc:format>image/svg+xml</dc:format>
        <dc:type
           rdf:resource="http://purl.org/dc/dcmitype/StillImage" />
        <dc:title />
      </cc:Work>
    </rdf:RDF>
  </metadata>
  <sodipodi:namedview
     pagecolor="#ffffff"
     bordercolor="#666666"
     borderopacity="1"
     objecttolerance="10"
     gridtolerance="10"
     guidetolerance="10"
     inkscape:pageopacity="0"
     inkscape:pageshadow="2"
     inkscape:window-width="1920"
     inkscape:window-height="996"
     id="namedview75"
     showgrid="false"
     inkscape:zoom="12.578125"
     inkscape:cx="32"
     inkscape:cy="47.900621"
     inkscape:window-x="0"
     inkscape:window-y="0"
     inkscape:window-maximized="1"
     inkscape:current-layer="svg73"
     inkscape:document-rotation="0" />
  <defs
     id="defs29">
    <linearGradient
       id="b"
       x1="399.57"
       x2="399.57"
       y1="545.8"
       y2="517.8"
       gradientTransform="matrix(2.1429,0,0,2.1429,-826.36,-1107.5)"
       gradientUnits="userSpaceOnUse">
      <stop
         stop-color="#3889e9"
         offset="0"
         id="stop2" />
      <stop
         stop-color="#5ea5fb"
         offset="1"
         id="stop4" />
    </linearGradient>
    <linearGradient
       id="linearGradient862"
       x1="7.9373"
       x2="7.9373"
       y1="15.081"
       y2="1.852"
       gradientTransform="matrix(3.3743 0 0 3.3743 3.4312 3.4278)"
       gradientUnits="userSpaceOnUse">
      <stop
         stop-color="#f1efeb"
         offset="0"
         id="stop7" />
      <stop
         stop-color="#fff"
         offset="1"
         id="stop9" />
    </linearGradient>
    <linearGradient
       id="linearGradient910"
       x1="7.9373"
       x2="7.9373"
       y1="15.081"
       y2="1.852"
       gradientTransform="scale(3.7796)"
       gradientUnits="userSpaceOnUse">
      <stop
         stop-color="#613583"
         offset="0"
         id="stop12" />
      <stop
         stop-color="#a663c0"
         offset="1"
         id="stop14" />
    </linearGradient>
    <linearGradient
       id="linearGradient932"
       x1="379.24"
       x2="374.24"
       y1="546.85"
       y2="546.85"
       gradientTransform="matrix(2.1429 0 0 2.1429 -769.68 -1134.5)"
       gradientUnits="userSpaceOnUse">
      <stop
         stop-color="#f6f5f4"
         offset="0"
         id="stop17" />
      <stop
         stop-color="#fff"
         offset=".6"
         id="stop19" />
      <stop
         stop-color="#dddbd8"
         offset="1"
         id="stop21" />
    </linearGradient>
    <linearGradient
       id="linearGradient1146"
       x1="18"
       x2="18"
       y1="52"
       y2="12"
       gradientUnits="userSpaceOnUse">
      <stop
         stop-color="#5e337f"
         offset="0"
         id="stop24" />
      <stop
         stop-color="#ab60bf"
         offset="1"
         id="stop26" />
    </linearGradient>
    <linearGradient
       id="b-3"
       x1="49.582001"
       x2="49.582001"
       y1="6.1630001"
       y2="89.387001"
       gradientTransform="matrix(0.38616,0,0,0.38616,12.774871,13.017777)"
       gradientUnits="userSpaceOnUse">
      <stop
         stop-color="#fff"
         offset="0"
         id="stop2-6" />
      <stop
         stop-color="#feebe6"
         offset="1"
         id="stop4-7" />
    </linearGradient>
  </defs>
  <circle
     cx="32.02"
     cy="32.044"
     r="30.001"
     fill-opacity="0"
     stroke-width="1.5715"
     id="circle39" />
  <circle
     cx="32.02"
     cy="32.044"
     r="0"
     fill="url(#b)"
     stroke-width="1.5715"
     id="circle41" />
  <path
     d="m 32.143137,38.827527 c 7.381903,0 13.561241,-2.667114 13.935702,-6.148549 -1.097632,-3.273942 -2.294758,-6.843985 -3.470769,-10.353141 -0.816586,2.502822 -5.326282,4.26752 -10.464293,4.26752 -5.136732,0 -9.646428,-1.765378 -10.464294,-4.26701 -1.176074,3.508305 -2.371857,7.077838 -3.469489,10.352461 0.373086,3.481434 6.55124,6.14855 13.933143,6.14855 z m 0,-22.017901 c 3.469489,0 6.693283,-1.142087 7.636395,-2.915255 -1.300235,-3.88332 -2.417605,-7.2150881 -3.12366,-9.3173845 -0.46882,-1.4008561 -2.594839,-2.1284877 -4.512895,-2.1284877 -1.917896,0 -4.044059,0.7276826 -4.513375,2.1284877 -0.704776,2.1022964 -1.821602,5.4338945 -3.12366,9.3173845 0.943832,1.773202 4.168825,2.915255 7.637035,2.915255 z m 27.119282,25.261231 -11.598237,-4.967039 1.335442,3.962236 c -0.06732,4.19932 -7.73413,7.545375 -16.856375,7.545375 -9.120806,0 -16.789194,-3.346226 -16.854776,-7.545375 l 1.33421,-3.962236 -11.5971161,4.967039 c -3.2514666,1.392982 -3.3874302,3.97278 -0.3026721,5.730845 L 26.534769,60.237411 c 3.084791,1.758065 8.133705,1.758065 11.218496,0 L 59.565139,47.801702 c 3.08527,-1.758065 2.948826,-4.337932 -0.302673,-5.730845 z"
     fill="url(#b)"
     stroke-width="9.98886"
     id="path20"
     style="fill:#29292a" />
</svg>
