<?xml version="1.0" encoding="UTF-8" standalone="no"?>
<svg
   width="64"
   height="64"
   version="1.1"
   id="svg28"
   sodipodi:docname="wike.svg"
   inkscape:version="1.1 (c68e22c387, 2021-05-23)"
   xmlns:inkscape="http://www.inkscape.org/namespaces/inkscape"
   xmlns:sodipodi="http://sodipodi.sourceforge.net/DTD/sodipodi-0.dtd"
   xmlns="http://www.w3.org/2000/svg"
   xmlns:svg="http://www.w3.org/2000/svg"
   xmlns:rdf="http://www.w3.org/1999/02/22-rdf-syntax-ns#"
   xmlns:cc="http://creativecommons.org/ns#"
   xmlns:dc="http://purl.org/dc/elements/1.1/">
  <metadata
     id="metadata34">
    <rdf:RDF>
      <cc:Work
         rdf:about="">
        <dc:format>image/svg+xml</dc:format>
        <dc:type
           rdf:resource="http://purl.org/dc/dcmitype/StillImage" />
      </cc:Work>
    </rdf:RDF>
  </metadata>
  <defs
     id="defs32" />
  <sodipodi:namedview
     pagecolor="#ffffff"
     bordercolor="#666666"
     borderopacity="1"
     objecttolerance="10"
     gridtolerance="10"
     guidetolerance="10"
     inkscape:pageopacity="0"
     inkscape:pageshadow="2"
     inkscape:window-width="1365"
     inkscape:window-height="871"
     id="namedview30"
     showgrid="false"
     inkscape:zoom="12.890625"
     inkscape:cx="32.038788"
     inkscape:cy="26.065455"
     inkscape:window-x="517"
     inkscape:window-y="67"
     inkscape:window-maximized="0"
     inkscape:current-layer="g26"
     inkscape:document-rotation="0"
     inkscape:pagecheckerboard="0" />
  <g
     transform="translate(0,16)"
     id="g26">
    <path
       style="fill:#29292a;stroke-width:1.10536"
       d="M 5.1207655,41.725032 H 59.006357 C 60.664835,41.725032 62,40.29155 62,38.510947 V -6.4862419 c 0,-1.7806029 -1.335165,-3.2140848 -2.993643,-3.2140848 H 5.1207655 c -1.6584787,0 -2.9936439,1.4334819 -2.9936439,3.2140848 V 38.510947 c 0,1.780603 1.3351652,3.214085 2.9936439,3.214085 z"
       id="path4" />
    <path
       style="opacity:0.85;fill:#ffffff;stroke-width:1.14382"
       d="m 39.282675,1.1139124 c -1.611857,-0.00138 -3.521054,0.00508 -4.694815,0.013616 l -0.115879,0.080656 v 0.8601711 c 0,0.104957 0.04308,0.1782868 0.128578,0.2419324 0.0873,0.067132 0.174613,0.1075414 0.270106,0.1075414 l 0.373013,0.040363 c 0.959872,0.041285 1.411824,0.3052537 1.543532,0.4704106 0.228856,0.29247 0.336186,0.6171771 -0.218607,1.881645 L 33.250054,11.718612 30.253064,5.3075424 C 29.268498,3.2585943 29.02853,2.6189178 30.510312,2.4984598 L 31.102,2.417804 c 0.284846,0 0.424468,-0.1044027 0.424468,-0.3091308 V 1.2081877 l -0.218607,-0.080656 c 0,0 -5.583072,0.00993 -8.090693,0.013616 l -0.115652,0.080656 V 2.122312 c 0,0.2012951 0.203186,0.2557778 0.591665,0.3091308 1.387945,0.1909565 1.353793,0.3415987 2.726907,3.1854579 0.205907,0.4266579 0.810362,1.7069329 0.810362,1.7069329 l 3.125568,6.4244544 c 0,0 0.675524,1.560329 0.913248,2.110123 l -4.540612,9.461992 -0.257248,-0.0672 c 0,0 -7.052314,-15.5412223 -9.093922,-20.7384763 -0.212483,-0.5384631 -0.308703,-0.9367379 -0.308703,-1.1827539 0,-0.5281484 0.451318,-0.8071872 1.363431,-0.8467411 l 1.06761,-0.053794 c 0.281535,0 0.424467,-0.1137609 0.424467,-0.3494681 V 1.2352287 l -0.102957,-0.094064 c 0,0 -8.442186,-0.010387 -10.1871799,0 l -0.090028,0.096926 v 0.886131 c 0,0.1617194 0.1852709,0.2643857 0.5788299,0.3091308 1.071805,0.060233 1.783182,0.239994 2.122339,0.5376091 0.337524,0.3010768 0.696342,1.0592046 1.170517,2.2445431 2.563407,6.4341453 8.010871,17.9222393 10.663171,24.4609203 0.763941,1.785739 1.715581,2.063993 2.881336,-0.05379 1.256736,-2.435708 3.454838,-7.138665 5.235208,-10.980876 0.02563,-0.372729 0.02563,0.345291 0.347298,0.12099 1.662336,3.825826 3.668909,8.431171 4.784843,10.832956 0.864379,1.863161 1.843275,2.04251 2.842786,0.05379 C 42.781707,23.583419 50.422034,5.3362651 50.422034,5.3362651 50.75296,4.4399569 51.207293,3.753643 51.798346,3.2530249 52.387766,2.7558454 53.297,2.4765065 54.525253,2.4197381 c 0.250263,0 0.373013,-0.1172041 0.373013,-0.3494439 V 1.2101217 l -0.09003,-0.094111 h -9.376932 l -0.115879,0.094111 v 0.860171 c 0,0.1015181 0.04308,0.1782637 0.128579,0.2419312 0.0873,0.067133 0.174612,0.1075299 0.270105,0.1075299 l 0.784646,0.040362 c 0.961504,0.041286 1.222879,0.2407325 1.594963,0.5779233 0.370451,0.3457757 0.416757,0.931453 0.128578,1.7606782 L 39.92593,25.37589 39.604371,25.281791 34.330613,14.032307 c 0.0046,-0.01018 0.128577,-0.268817 0.128577,-0.268817 l 4.309081,-8.4270176 c 0.502182,-0.8894322 0.98951,-1.6864884 1.234829,-2.056379 0.449481,-0.6760906 0.701173,-0.7999641 1.929403,-0.8601711 0.250264,0 0.373036,-0.1137608 0.373036,-0.349467 v -0.846741 l -0.09003,-0.094075 c 0,0 -1.320844,-0.011308 -2.932587,-0.013616 z"
       id="path8" />
  </g>
</svg>
