<?xml version="1.0" encoding="UTF-8" standalone="no"?>
<svg
   xmlns:dc="http://purl.org/dc/elements/1.1/"
   xmlns:cc="http://creativecommons.org/ns#"
   xmlns:rdf="http://www.w3.org/1999/02/22-rdf-syntax-ns#"
   xmlns:svg="http://www.w3.org/2000/svg"
   xmlns="http://www.w3.org/2000/svg"
   xmlns:sodipodi="http://sodipodi.sourceforge.net/DTD/sodipodi-0.dtd"
   xmlns:inkscape="http://www.inkscape.org/namespaces/inkscape"
   width="64"
   height="64"
   version="1.1"
   id="svg18"
   sodipodi:docname="winetricks.svg"
   inkscape:version="1.0.2 (e86c870879, 2021-01-15)">
  <metadata
     id="metadata24">
    <rdf:RDF>
      <cc:Work
         rdf:about="">
        <dc:format>image/svg+xml</dc:format>
        <dc:type
           rdf:resource="http://purl.org/dc/dcmitype/StillImage" />
        <dc:title></dc:title>
      </cc:Work>
    </rdf:RDF>
  </metadata>
  <defs
     id="defs22" />
  <sodipodi:namedview
     pagecolor="#ffffff"
     bordercolor="#666666"
     borderopacity="1"
     objecttolerance="10"
     gridtolerance="10"
     guidetolerance="10"
     inkscape:pageopacity="0"
     inkscape:pageshadow="2"
     inkscape:window-width="1406"
     inkscape:window-height="943"
     id="namedview20"
     showgrid="false"
     inkscape:zoom="12.890625"
     inkscape:cx="32"
     inkscape:cy="35.10303"
     inkscape:window-x="149"
     inkscape:window-y="0"
     inkscape:window-maximized="0"
     inkscape:current-layer="svg18" />
  <path
     style="fill:#29292a;stroke-width:1.54369"
     d="m 35.648239,2.990334 c -1.8095,-0.00382 -3.202138,0.2692553 -3.777155,0.8524889 -0.91228,0.9253096 -3.013272,7.8244031 -5.634401,18.3695021 -1.891075,7.588183 -0.576126,12.013306 0.716054,14.381656 1.652015,3.027872 2.937877,4.847293 0.326693,10.889727 -1.891117,4.376175 -3.820022,4.375754 -5.612019,4.583982 -4.318651,-0.95107 -7.580661,-0.983643 -8.006309,0.08608 -0.582264,1.463305 4.346207,5.266148 11.000281,7.461529 6.654075,2.195374 12.530358,2.791216 13.112623,1.327913 0.427042,-1.073211 -2.114217,-2.952124 -6.122208,-4.746068 -1.759497,-1.660272 -3.340111,-2.816859 -1.946753,-7.959299 2.725806,-10.060099 6.882803,-6.604692 11.783455,-12.85701 4.157035,-5.303605 5.259216,-9.37421 7.666185,-15.59072 2.55025,-6.586554 3.66868,-9.635929 3.33857,-10.2380517 C 50.269871,5.4965901 41.076736,3.0018028 35.648239,2.9903516 Z m -6.21619,13.398014 c 2.627161,2.632668 5.025785,4.150219 7.189235,4.22838 5.338628,0.192863 9.245282,-5.362882 11.620435,-2.543893 -1.143013,3.438038 -8.031365,24.255918 -17.211991,20.537609 -7.605044,-3.035921 -3.20302,-18.518449 -1.597679,-22.222096 z"
     id="path8" />
  <ellipse
     style="fill:#676767;stroke-width:0.929205"
     cx="49.127663"
     cy="48.954224"
     id="circle12"
     rx="14.890004"
     ry="14.844596" />
  <path
     style="fill:#e6e6e6"
     d="m 49.273362,54.688003 -5.562,3.074142 1.062,-6.512142 -4.5,-4.611858 6.219,-0.950142 2.781,-5.925858 2.781,5.925858 6.219,0.950142 -4.5,4.611858 1.062,6.512142 z"
     id="path16" />
</svg>
