<?xml version="1.0" encoding="UTF-8" standalone="no"?>
<svg
   xmlns:dc="http://purl.org/dc/elements/1.1/"
   xmlns:cc="http://creativecommons.org/ns#"
   xmlns:rdf="http://www.w3.org/1999/02/22-rdf-syntax-ns#"
   xmlns:svg="http://www.w3.org/2000/svg"
   xmlns="http://www.w3.org/2000/svg"
   xmlns:sodipodi="http://sodipodi.sourceforge.net/DTD/sodipodi-0.dtd"
   xmlns:inkscape="http://www.inkscape.org/namespaces/inkscape"
   width="64"
   height="64"
   version="1.1"
   id="svg12"
   sodipodi:docname="wolfenstein.svg"
   inkscape:version="1.0.2 (e86c870879, 2021-01-15)">
  <metadata
     id="metadata18">
    <rdf:RDF>
      <cc:Work
         rdf:about="">
        <dc:format>image/svg+xml</dc:format>
        <dc:type
           rdf:resource="http://purl.org/dc/dcmitype/StillImage" />
        <dc:title></dc:title>
      </cc:Work>
    </rdf:RDF>
  </metadata>
  <defs
     id="defs16" />
  <sodipodi:namedview
     pagecolor="#ffffff"
     bordercolor="#666666"
     borderopacity="1"
     objecttolerance="10"
     gridtolerance="10"
     guidetolerance="10"
     inkscape:pageopacity="0"
     inkscape:pageshadow="2"
     inkscape:window-width="1494"
     inkscape:window-height="958"
     id="namedview14"
     showgrid="false"
     inkscape:zoom="12.890625"
     inkscape:cx="32"
     inkscape:cy="32"
     inkscape:window-x="0"
     inkscape:window-y="0"
     inkscape:window-maximized="0"
     inkscape:current-layer="svg12"
     inkscape:document-rotation="0" />
  <rect
     style="fill:#29292a"
     width="57"
     height="57"
     x="-60"
     y="-61"
     rx="2.85"
     ry="2.85"
     transform="matrix(0,-1,-1,0,0,0)"
     id="rect4" />
  <path
     style="opacity:0.85;fill:#ffffff;stroke-width:0.96147"
     d="M 30.654895,9.1699219 V 22 h 3.697702 v -8.216797 l 1.386637,-0.996094 z m -6.389728,5.6406251 -0.222079,4.191406 -4.871289,-0.0039 L 21.898133,18 H 4.1823882 l 9.8870168,1 -3.437705,3 h 17.24992 v -5.472656 z m 16.477158,0 -3.616452,1.716797 V 22 h 17.24992 l -3.437707,-3 9.887018,-1 H 43.10936 l 2.726333,0.998047 -4.871288,0.0039 z M 20.265945,24 l 3.917973,3.369141 v 26.453125 l 6.470977,-4.269532 v 4.302735 L 40.823574,45.728516 V 27.458984 L 44.799324,24 H 37.125873 V 43.894531 L 34.390513,45.966797 34.314681,24 H 30.654895 V 43.9375 L 27.924952,45.964844 27.838288,24 Z"
     id="path8" />
</svg>
