<?xml version="1.0" encoding="UTF-8" standalone="no"?>
<svg
   xmlns:dc="http://purl.org/dc/elements/1.1/"
   xmlns:cc="http://creativecommons.org/ns#"
   xmlns:rdf="http://www.w3.org/1999/02/22-rdf-syntax-ns#"
   xmlns:svg="http://www.w3.org/2000/svg"
   xmlns="http://www.w3.org/2000/svg"
   xmlns:sodipodi="http://sodipodi.sourceforge.net/DTD/sodipodi-0.dtd"
   xmlns:inkscape="http://www.inkscape.org/namespaces/inkscape"
   width="64"
   height="64"
   version="1.1"
   id="svg24"
   sodipodi:docname="worldofpadman.svg"
   inkscape:version="1.0.2 (e86c870879, 2021-01-15)">
  <metadata
     id="metadata30">
    <rdf:RDF>
      <cc:Work
         rdf:about="">
        <dc:format>image/svg+xml</dc:format>
        <dc:type
           rdf:resource="http://purl.org/dc/dcmitype/StillImage" />
        <dc:title></dc:title>
      </cc:Work>
    </rdf:RDF>
  </metadata>
  <defs
     id="defs28" />
  <sodipodi:namedview
     pagecolor="#ffffff"
     bordercolor="#666666"
     borderopacity="1"
     objecttolerance="10"
     gridtolerance="10"
     guidetolerance="10"
     inkscape:pageopacity="0"
     inkscape:pageshadow="2"
     inkscape:window-width="1587"
     inkscape:window-height="899"
     id="namedview26"
     showgrid="false"
     inkscape:zoom="12.890625"
     inkscape:cx="32"
     inkscape:cy="25.793939"
     inkscape:window-x="0"
     inkscape:window-y="0"
     inkscape:window-maximized="0"
     inkscape:current-layer="g22" />
  <g
     transform="translate(0,-988.3622)"
     id="g22">
    <path
       style="fill:#29292a"
       d="m 52.745288,1045.2606 c -0.334088,-0.048 -0.703718,-0.138 -0.821406,-0.198 -0.11768,-0.06 -2.49091,-1.351 -5.27383,-2.868 -2.78292,-1.5174 -5.15356,-2.8066 -5.26809,-2.8654 -0.200152,-0.102 -0.341616,-0.086 -3.647038,0.423 l -3.438806,0.5296 -4.651402,-0.274 c -2.558272,-0.15 -4.90125,-0.2844 -5.206622,-0.2972 -0.531234,-0.024 -0.763182,-0.094 -5.369741,-1.7016 -2.647987,-0.923 -4.882144,-1.7206 -4.964793,-1.7724 -0.135942,-0.086 -8.5405079,-6.86 -8.7390329,-7.0444 -0.046112,-0.042 -0.7948386,-2.0322 -1.6638372,-4.4204 -0.8689986,-2.3886 -1.621014,-4.4254 -1.6711454,-4.5268 -0.081714,-0.164 -0.02374,-0.7008 0.560128,-5.174 0.6087114,-4.6636 0.6611364,-4.9998 0.8021552,-5.1434 0.082984,-0.084 1.7585878,-2.0548 3.7235648,-4.3786 l 3.5726865,-4.2252 3.787106,-1.8376 3.787103,-1.8372 5.092712,-1.1444 5.092712,-1.1448 4.676622,0.102 4.67662,0.102 4.59194,1.427 4.59194,1.427 3.64393,2.324 c 2.00416,1.2784 3.707304,2.3924 3.784766,2.4758 0.11402,0.122 5.496354,6.502 5.791898,6.8644 0.0464,0.056 0.469136,1.7674 0.93945,3.8008 L 62,1017.581 l -0.665322,3.8102 c -0.610328,3.4952 -0.679756,3.8288 -0.839994,4.0388 -1.50168,1.9668 -5.06192,6.4008 -5.20795,6.4862 -0.14198,0.082 -4.72455,3.7268 -5.071202,4.0322 -0.02678,0.024 0.71987,2.1442 1.659238,4.7126 0.939368,2.568 1.707942,4.6772 1.707942,4.6868 0,0.028 -0.17952,0.02 -0.837424,-0.086 z"
       id="path4" />
    <path
       style="fill:#ffffff;opacity:0.85"
       d="m 14.451038,1029.43 -1.304681,-1.9316 -1.186255,-0.6724 c -0.663352,-0.3762 -1.174039,-0.7034 -1.158542,-0.743 0.01524,-0.038 0.653397,-1.0172 1.418124,-2.1746 0.764726,-1.1574 1.378917,-2.138 1.364866,-2.1792 -0.01406,-0.042 -0.05275,-0.076 -0.08598,-0.076 -0.03325,0 -0.479977,0.2604 -0.992745,0.5784 -1.210858,0.7512 -2.9427035,1.8074 -3.3212471,2.0258 -0.2640458,0.152 -0.3015498,0.16 -0.3305804,0.066 -0.01802,-0.058 -0.2175258,-1.0874 -0.4433704,-2.2884 l -0.4106272,-2.1834 0.468897,-2.609 c 0.257894,-1.4354 0.5090238,-2.832 0.5580676,-3.104 0.084698,-0.4698 0.166894,-0.6298 1.6395035,-3.1848 l 1.550334,-2.69 2.371445,-1.1888 c 1.304295,-0.6538 2.392833,-1.1898 2.418972,-1.1904 0.175594,0 -0.07083,0.371 -0.887136,1.3562 -0.514062,0.6204 -1.038335,1.2572 -1.165052,1.4156 -0.18114,0.226 -0.371913,0.6782 -0.892408,2.1148 l -0.662016,1.8274 0.263833,1.6358 0.263833,1.6358 0.438476,0.409 c 0.241159,0.2248 0.544231,0.4982 0.673488,0.607 l 0.235015,0.198 0.532928,-0.2438 0.532928,-0.2438 0.03858,-0.3324 c 0.03088,-0.266 0.11964,-1.7456 0.124716,-2.0784 0.0012,-0.08 2.978442,-3.3722 3.077665,-3.405 0.03045,-0.02 0.599129,0.5446 1.263719,1.232 l 1.208348,1.2502 0.22988,0.9326 c 0.12644,0.5126 0.257288,1.0364 0.290792,1.1638 0.05094,0.194 0.13802,0.2824 0.531976,0.5418 l 0.47106,0.3104 0.367356,-0.6126 0.367358,-0.6124 0.0198,-1.291 0.0198,-1.2906 -1.157528,-1.8872 c -0.954432,-1.5558 -1.20026,-1.9138 -1.401088,-2.0398 -0.13398,-0.082 -1.095858,-0.7092 -2.137548,-1.3894 -1.841852,-1.203 -1.895173,-1.2434 -1.937139,-1.4728 -0.02375,-0.13 -0.03321,-0.2446 -0.02103,-0.2552 0.03029,-0.028 5.749883,1.2418 5.890871,1.3058 0.06204,0.028 1.065208,0.69 2.229268,1.4712 l 2.116466,1.4196 0.259062,0.7756 c 0.1425,0.4264 0.6072,1.816 1.03271,3.0876 l 0.773666,2.3122 -0.04266,1.3672 c -0.02346,0.7522 -0.05784,1.7152 -0.07644,2.1402 l -0.0338,0.7732 -0.797778,2.3498 -0.797774,2.35 -1.13284,1.1538 -1.132844,1.1536 -0.718944,1.4616 c -0.39542,0.8038 -0.732238,1.4744 -0.748486,1.4904 -0.0164,0.02 -0.78263,-1.2372 -1.703066,-2.785 l -1.673516,-2.8134 -0.946258,-0.309 -0.946258,-0.3086 -0.957628,0.7014 -0.957631,0.7014 -0.07635,0.3336 c -0.321508,1.4038 -1.436653,5.868 -1.465689,5.8674 -0.01998,-4e-4 -0.623459,-0.87 -1.341034,-1.9324 z"
       id="path10" />
    <path
       style="fill:#ffffff;opacity:0.85"
       d="m 42.712226,1005.3628 c -0.39073,0 -0.712222,0.02 -0.712222,0.04 0,0.022 0.233048,0.7664 0.515112,1.6546 0.526198,1.6564 0.556778,1.7886 0.620236,2.6308 0.02032,0.2704 0.04914,0.623 0.0657,0.7854 0.0166,0.162 0.18952,2.1978 0.383708,4.522 l 0.352166,4.2234 -0.24967,4.1614 -0.249674,4.1616 -0.720106,1.8642 C 42.322786,1030.4316 42,1031.2872 42,1031.3108 v 0 c 0,0.022 0.650404,-0.11 1.442838,-0.2932 1.278186,-0.2984 1.484496,-0.3294 1.829174,-0.2824 0.21369,0.028 1.31507,0.184 2.44941,0.3442 2.373532,0.3364 2.1336,0.3114 2.081472,0.226 -0.0226,-0.036 -0.386212,-1.152 -0.806832,-2.4776 l -0.764784,-2.4102 -0.07622,-1.8212 c -0.0423,-1.0008 -0.06678,-1.8234 -0.0552,-1.8374 0.0118,-0.02 0.631846,0.06 1.379764,0.158 l 1.361368,0.18 1.78975,-1.2508 1.789752,-1.2536 0.788436,-1.6464 0.791064,-1.6462 -0.10514,-2.335 -0.10514,-2.335 -0.693826,-1.7834 -0.696448,-1.7834 -1.508544,-0.9362 -1.51117,-0.9334 -2.052564,-0.13 -2.055192,-0.128 -1.923784,-0.7882 -1.926414,-0.7882 z m 7.563734,8.5088 0.735874,0.6698 c 0.404308,0.369 0.870654,0.7956 1.035482,0.9494 l 0.299604,0.2798 -0.1866,1.189 c -0.10196,0.6538 -0.19856,1.2112 -0.215504,1.24 -0.017,0.028 -0.537078,0.3638 -1.156372,0.7478 -1.248602,0.7746 -1.118198,0.7408 -2.20237,0.5758 l -0.701708,-0.108 0.0052,-1.4392 c 0.0052,-1.2098 0.14724,-3.6212 0.228646,-3.8738 0.014,-0.044 0.307322,-0.092 0.72536,-0.118 0.385928,-0.024 0.865874,-0.06 1.067018,-0.082 z"
       id="path12" />
    <path
       style="fill:#ffffff;opacity:0.85"
       d="m 35.708826,1011.359 c -0.05144,6e-4 -0.692122,0.3742 -1.422784,0.8306 l -1.329116,0.8306 -0.883542,1.7586 -0.883544,1.7562 -0.19492,3.2174 -0.19492,3.2148 0.964556,2.684 0.96709,2.6842 1.303798,1.3178 1.306328,1.315 1.384812,0.194 c 0.761258,0.104 1.387868,0.198 1.392402,0.198 0.0044,0 0.368606,-0.166 0.810128,-0.3744 0.441522,-0.2094 0.97137,-0.459 1.177218,-0.5536 l 0.374682,-0.172 0.678482,-1.1306 0.68101,-1.1306 0.478482,-2.3278 0.481012,-2.3276 -0.05318,-2.1152 -0.05062,-2.1176 -0.683544,-2.1432 c -0.37585,-1.18 -0.706634,-2.1856 -0.734178,-2.2356 -0.02756,-0.05 -0.587404,-0.6472 -1.243038,-1.3278 l -1.189874,-1.2382 -1.52152,-0.4024 c -0.836712,-0.2216 -1.563718,-0.4032 -1.61519,-0.4026 z m 2.126582,9.7776 c 0.02594,-0.02 0.437252,0.333 0.916458,0.764 l 0.873418,0.7846 0.09368,0.4228 c 0.05196,0.2322 0.15906,0.7338 0.237976,1.1154 l 0.1443,0.6922 -0.278478,1.2126 -0.278484,1.21 -0.873418,0.4436 -0.873414,0.4432 -0.774686,-0.2588 -0.777216,-0.2614 -0.4481,-1.3512 -0.450634,-1.3482 0.43038,-1.3948 c 0.236404,-0.7664 0.430076,-1.422 0.430378,-1.4588 4.74e-4,-0.052 1.394238,-0.9206 1.62785,-1.0152 z"
       id="path14" />
  </g>
</svg>
