<?xml version="1.0" encoding="UTF-8" standalone="no"?>
<svg
   xmlns:dc="http://purl.org/dc/elements/1.1/"
   xmlns:cc="http://creativecommons.org/ns#"
   xmlns:rdf="http://www.w3.org/1999/02/22-rdf-syntax-ns#"
   xmlns:svg="http://www.w3.org/2000/svg"
   xmlns="http://www.w3.org/2000/svg"
   xmlns:sodipodi="http://sodipodi.sourceforge.net/DTD/sodipodi-0.dtd"
   xmlns:inkscape="http://www.inkscape.org/namespaces/inkscape"
   width="64"
   height="64"
   version="1.1"
   id="svg18"
   sodipodi:docname="world-of-goo.svg"
   inkscape:version="1.0.2 (e86c870879, 2021-01-15)">
  <metadata
     id="metadata24">
    <rdf:RDF>
      <cc:Work
         rdf:about="">
        <dc:format>image/svg+xml</dc:format>
        <dc:type
           rdf:resource="http://purl.org/dc/dcmitype/StillImage" />
        <dc:title></dc:title>
      </cc:Work>
    </rdf:RDF>
  </metadata>
  <defs
     id="defs22" />
  <sodipodi:namedview
     pagecolor="#ffffff"
     bordercolor="#666666"
     borderopacity="1"
     objecttolerance="10"
     gridtolerance="10"
     guidetolerance="10"
     inkscape:pageopacity="0"
     inkscape:pageshadow="2"
     inkscape:window-width="1341"
     inkscape:window-height="975"
     id="namedview20"
     showgrid="false"
     inkscape:zoom="12.890625"
     inkscape:cx="32"
     inkscape:cy="25.105838"
     inkscape:window-x="0"
     inkscape:window-y="0"
     inkscape:window-maximized="0"
     inkscape:current-layer="svg18" />
  <path
     d="m 31.671378,58.855189 c 30.089929,0 27.861045,-26.586803 27.861045,-26.586803 0,0 -2.228884,-26.5868046 -27.861045,-26.5868046 -22.2888358,0 -28.975486,26.5868046 -28.975486,26.5868046 0,0 0,26.586803 28.975486,26.586803 z"
     style="fill:#29292a;stroke-width:1.1111"
     id="path4" />
  <path
     d="m 14.954752,10.112715 c -8.9155346,0 -12.25886,13.293403 -12.25886,13.293403 0,0 -1.1144418,14.401185 10.029976,14.401185 12.25886,0 14.487743,-13.293402 14.487743,-13.293402 0,0 1.114442,-14.401186 -12.258859,-14.401186 z m 36.776578,2.215568 c -10.029975,0 -10.029975,11.077835 -10.029975,11.077835 0,0 1.114442,11.077834 10.029975,11.077834 10.029977,0 10.029977,-9.970051 10.029977,-9.970051 0,0 -1.114442,-12.185618 -10.029977,-12.185618 z"
     style="fill:#e6e6e6;stroke-width:1.1111"
     id="path10" />
  <ellipse
     cx="11.611426"
     cy="23.406118"
     style="fill:#29292a;stroke-width:1.1111"
     id="circle12"
     rx="3.3433254"
     ry="3.3233507" />
  <ellipse
     cx="55.074657"
     cy="23.406118"
     style="fill:#29292a;stroke-width:1.1111"
     id="circle14"
     rx="3.3433254"
     ry="3.3233507" />
</svg>
