<?xml version="1.0" encoding="UTF-8" standalone="no"?>
<svg
   xmlns:dc="http://purl.org/dc/elements/1.1/"
   xmlns:cc="http://creativecommons.org/ns#"
   xmlns:rdf="http://www.w3.org/1999/02/22-rdf-syntax-ns#"
   xmlns:svg="http://www.w3.org/2000/svg"
   xmlns="http://www.w3.org/2000/svg"
   xmlns:sodipodi="http://sodipodi.sourceforge.net/DTD/sodipodi-0.dtd"
   xmlns:inkscape="http://www.inkscape.org/namespaces/inkscape"
   width="64"
   height="64"
   version="1"
   id="svg12"
   sodipodi:docname="wps-office-wpsmain.svg"
   inkscape:version="1.0.2 (e86c870879, 2021-01-15)">
  <metadata
     id="metadata18">
    <rdf:RDF>
      <cc:Work
         rdf:about="">
        <dc:format>image/svg+xml</dc:format>
        <dc:type
           rdf:resource="http://purl.org/dc/dcmitype/StillImage" />
        <dc:title />
      </cc:Work>
    </rdf:RDF>
  </metadata>
  <defs
     id="defs16" />
  <sodipodi:namedview
     pagecolor="#ffffff"
     bordercolor="#666666"
     borderopacity="1"
     objecttolerance="10"
     gridtolerance="10"
     guidetolerance="10"
     inkscape:pageopacity="0"
     inkscape:pageshadow="2"
     inkscape:window-width="1495"
     inkscape:window-height="901"
     id="namedview14"
     showgrid="false"
     inkscape:zoom="12.890625"
     inkscape:cx="32"
     inkscape:cy="32"
     inkscape:window-x="0"
     inkscape:window-y="0"
     inkscape:window-maximized="0"
     inkscape:current-layer="svg12"
     inkscape:document-rotation="0" />
  <rect
     style="fill:#29292a"
     width="58"
     height="58"
     x="3"
     y="3"
     rx="2.9"
     ry="2.9"
     id="rect4" />
  <path
     style="fill:none;stroke:#f2f2f2;stroke-width:6;stroke-linecap:round;stroke-linejoin:round;opacity:0.85"
     d="m 14.001,18 v 26.4 c 0,0 0.725,3.625 4.35,0 L 32.000146,28 45.651,44.4 c 3.625,3.625 4.35,0 4.35,0 L 50.000696,18"
     id="path8" />
  <path
     style="opacity:0.2;fill:#ffffff"
     d="M 5.8984375 3 C 4.2918373 3 3 4.2918373 3 5.8984375 L 3 6.8984375 C 3 5.2918373 4.2918373 4 5.8984375 4 L 58.101562 4 C 59.708163 4 61 5.2918373 61 6.8984375 L 61 5.8984375 C 61 4.2918373 59.708163 3 58.101562 3 L 5.8984375 3 z"
     id="path10" />
</svg>
