<?xml version="1.0" encoding="UTF-8" standalone="no"?>
<svg
   xmlns:dc="http://purl.org/dc/elements/1.1/"
   xmlns:cc="http://creativecommons.org/ns#"
   xmlns:rdf="http://www.w3.org/1999/02/22-rdf-syntax-ns#"
   xmlns:svg="http://www.w3.org/2000/svg"
   xmlns="http://www.w3.org/2000/svg"
   xmlns:sodipodi="http://sodipodi.sourceforge.net/DTD/sodipodi-0.dtd"
   xmlns:inkscape="http://www.inkscape.org/namespaces/inkscape"
   width="64"
   height="64"
   version="1"
   id="svg16"
   sodipodi:docname="zorin-appearance.svg"
   inkscape:version="1.0.2 (e86c870879, 2021-01-15)">
  <metadata
     id="metadata22">
    <rdf:RDF>
      <cc:Work
         rdf:about="">
        <dc:format>image/svg+xml</dc:format>
        <dc:type
           rdf:resource="http://purl.org/dc/dcmitype/StillImage" />
        <dc:title />
      </cc:Work>
    </rdf:RDF>
  </metadata>
  <defs
     id="defs20" />
  <sodipodi:namedview
     pagecolor="#ffffff"
     bordercolor="#666666"
     borderopacity="1"
     objecttolerance="10"
     gridtolerance="10"
     guidetolerance="10"
     inkscape:pageopacity="0"
     inkscape:pageshadow="2"
     inkscape:window-width="1920"
     inkscape:window-height="996"
     id="namedview18"
     showgrid="false"
     inkscape:zoom="12.890625"
     inkscape:cx="32"
     inkscape:cy="41.309091"
     inkscape:window-x="0"
     inkscape:window-y="0"
     inkscape:window-maximized="1"
     inkscape:current-layer="svg16"
     inkscape:document-rotation="0" />
  <path
     style="fill:#29292a;stroke-width:1.16668"
     d="m 32.316656,1.4011393 c -16.868186,0 -30.3628272,13.4685927 -30.3628272,30.3042147 0,16.835623 13.4946412,30.304216 30.3628272,30.304216 2.699021,0 4.671239,-2.356968 4.671239,-5.05078 0,-1.34686 0.05195,-2.356969 -0.960155,-3.367033 -0.674731,-1.010132 -1.349463,-2.020288 -1.349463,-3.36703 0,-2.693812 2.36176,-4.532949 5.060548,-4.532949 h 6.072565 c 9.445176,0 16.867719,-7.926047 16.867719,-17.352988 0,-14.81643 -13.495109,-26.9381169 -30.362827,-26.9381169 z"
     id="path4" />
  <path
     style="opacity:0.85;fill:#f9f9f9;stroke-width:1.16668"
     d="m 11.296237,31.705354 c -2.4913862,0 -4.671204,-2.174909 -4.671204,-4.662186 0,-2.487277 2.1798178,-4.662188 4.671204,-4.662188 2.491387,0 4.671204,2.174911 4.671204,4.662188 0,2.487277 -2.179817,4.662186 -4.671204,4.662186 z"
     id="path6" />
  <path
     style="opacity:0.85;fill:#f9f9f9;stroke-width:1.16668"
     d="m 22.974247,17.718794 c -2.491387,0 -4.671203,-2.17568 -4.671203,-4.662187 0,-2.486508 2.179887,-4.6621875 4.671203,-4.6621875 2.491316,0 4.671205,2.1756795 4.671205,4.6621875 0,2.486507 -2.179889,4.662187 -4.671205,4.662187 z"
     id="path8" />
  <path
     style="opacity:0.85;fill:#f9f9f9;stroke-width:1.16668"
     d="m 39.323463,17.718794 c -2.491388,0 -4.671205,-2.17568 -4.671205,-4.662187 0,-2.486508 2.179886,-4.6621875 4.671205,-4.6621875 2.491316,0 4.671203,2.1756795 4.671203,4.6621875 0,2.486507 -2.179887,4.662187 -4.671203,4.662187 z"
     id="path10" />
  <path
     style="opacity:0.85;fill:#f9f9f9;stroke-width:1.16668"
     d="m 51.001472,31.705354 c -2.491387,0 -4.671204,-2.175679 -4.671204,-4.662186 0,-2.486508 2.179887,-4.662188 4.671204,-4.662188 2.491317,0 4.671204,2.17568 4.671204,4.662188 0,2.486507 -2.179887,4.662186 -4.671204,4.662186 z"
     id="path12" />
</svg>
